%TF.GenerationSoftware,KiCad,Pcbnew,5.1.10*%
%TF.CreationDate,2021-11-07T20:18:02+05:45*%
%TF.ProjectId,RobotHat,526f626f-7448-4617-942e-6b696361645f,rev?*%
%TF.SameCoordinates,Original*%
%TF.FileFunction,Legend,Top*%
%TF.FilePolarity,Positive*%
%FSLAX46Y46*%
G04 Gerber Fmt 4.6, Leading zero omitted, Abs format (unit mm)*
G04 Created by KiCad (PCBNEW 5.1.10) date 2021-11-07 20:18:02*
%MOMM*%
%LPD*%
G01*
G04 APERTURE LIST*
%ADD10C,0.125000*%
%ADD11C,0.120000*%
%ADD12C,0.150000*%
%ADD13C,0.300000*%
G04 APERTURE END LIST*
D10*
X105056904Y-75246190D02*
X105056904Y-74746190D01*
X105271190Y-74793809D02*
X105295000Y-74770000D01*
X105342619Y-74746190D01*
X105461666Y-74746190D01*
X105509285Y-74770000D01*
X105533095Y-74793809D01*
X105556904Y-74841428D01*
X105556904Y-74889047D01*
X105533095Y-74960476D01*
X105247380Y-75246190D01*
X105556904Y-75246190D01*
X106056904Y-75198571D02*
X106033095Y-75222380D01*
X105961666Y-75246190D01*
X105914047Y-75246190D01*
X105842619Y-75222380D01*
X105795000Y-75174761D01*
X105771190Y-75127142D01*
X105747380Y-75031904D01*
X105747380Y-74960476D01*
X105771190Y-74865238D01*
X105795000Y-74817619D01*
X105842619Y-74770000D01*
X105914047Y-74746190D01*
X105961666Y-74746190D01*
X106033095Y-74770000D01*
X106056904Y-74793809D01*
D11*
X106307000Y-77433000D02*
X107577000Y-77433000D01*
X106307000Y-73750000D02*
X107577000Y-73750000D01*
X106307000Y-72480000D02*
X106307000Y-77433000D01*
X106307000Y-75020000D02*
X107577000Y-75020000D01*
D10*
X106549142Y-75857380D02*
X106620571Y-75881190D01*
X106739619Y-75881190D01*
X106787238Y-75857380D01*
X106811047Y-75833571D01*
X106834857Y-75785952D01*
X106834857Y-75738333D01*
X106811047Y-75690714D01*
X106787238Y-75666904D01*
X106739619Y-75643095D01*
X106644380Y-75619285D01*
X106596761Y-75595476D01*
X106572952Y-75571666D01*
X106549142Y-75524047D01*
X106549142Y-75476428D01*
X106572952Y-75428809D01*
X106596761Y-75405000D01*
X106644380Y-75381190D01*
X106763428Y-75381190D01*
X106834857Y-75405000D01*
X107049142Y-75881190D02*
X107049142Y-75381190D01*
X107168190Y-75381190D01*
X107239619Y-75405000D01*
X107287238Y-75452619D01*
X107311047Y-75500238D01*
X107334857Y-75595476D01*
X107334857Y-75666904D01*
X107311047Y-75762142D01*
X107287238Y-75809761D01*
X107239619Y-75857380D01*
X107168190Y-75881190D01*
X107049142Y-75881190D01*
X106846761Y-74111190D02*
X106608666Y-74111190D01*
X106584857Y-74349285D01*
X106608666Y-74325476D01*
X106656285Y-74301666D01*
X106775333Y-74301666D01*
X106822952Y-74325476D01*
X106846761Y-74349285D01*
X106870571Y-74396904D01*
X106870571Y-74515952D01*
X106846761Y-74563571D01*
X106822952Y-74587380D01*
X106775333Y-74611190D01*
X106656285Y-74611190D01*
X106608666Y-74587380D01*
X106584857Y-74563571D01*
X107013428Y-74111190D02*
X107180095Y-74611190D01*
X107346761Y-74111190D01*
D11*
X107577000Y-72480000D02*
X107577000Y-77433000D01*
X106307000Y-76290000D02*
X107577000Y-76290000D01*
D10*
X107072952Y-72865000D02*
X107025333Y-72841190D01*
X106953904Y-72841190D01*
X106882476Y-72865000D01*
X106834857Y-72912619D01*
X106811047Y-72960238D01*
X106787238Y-73055476D01*
X106787238Y-73126904D01*
X106811047Y-73222142D01*
X106834857Y-73269761D01*
X106882476Y-73317380D01*
X106953904Y-73341190D01*
X107001523Y-73341190D01*
X107072952Y-73317380D01*
X107096761Y-73293571D01*
X107096761Y-73126904D01*
X107001523Y-73126904D01*
X106549142Y-77127380D02*
X106620571Y-77151190D01*
X106739619Y-77151190D01*
X106787238Y-77127380D01*
X106811047Y-77103571D01*
X106834857Y-77055952D01*
X106834857Y-77008333D01*
X106811047Y-76960714D01*
X106787238Y-76936904D01*
X106739619Y-76913095D01*
X106644380Y-76889285D01*
X106596761Y-76865476D01*
X106572952Y-76841666D01*
X106549142Y-76794047D01*
X106549142Y-76746428D01*
X106572952Y-76698809D01*
X106596761Y-76675000D01*
X106644380Y-76651190D01*
X106763428Y-76651190D01*
X106834857Y-76675000D01*
X107334857Y-77103571D02*
X107311047Y-77127380D01*
X107239619Y-77151190D01*
X107192000Y-77151190D01*
X107120571Y-77127380D01*
X107072952Y-77079761D01*
X107049142Y-77032142D01*
X107025333Y-76936904D01*
X107025333Y-76865476D01*
X107049142Y-76770238D01*
X107072952Y-76722619D01*
X107120571Y-76675000D01*
X107192000Y-76651190D01*
X107239619Y-76651190D01*
X107311047Y-76675000D01*
X107334857Y-76698809D01*
D11*
X106307000Y-72480000D02*
X107577000Y-72480000D01*
D10*
X101909904Y-68142190D02*
X102195619Y-68142190D01*
X102052761Y-68642190D02*
X102052761Y-68142190D01*
X102528952Y-68380285D02*
X102362285Y-68380285D01*
X102362285Y-68642190D02*
X102362285Y-68142190D01*
X102600380Y-68142190D01*
X102719428Y-68142190D02*
X103005142Y-68142190D01*
X102862285Y-68642190D02*
X102862285Y-68142190D01*
X103052761Y-68689809D02*
X103433714Y-68689809D01*
X103790857Y-68642190D02*
X103552761Y-68642190D01*
X103552761Y-68142190D01*
X104243238Y-68594571D02*
X104219428Y-68618380D01*
X104148000Y-68642190D01*
X104100380Y-68642190D01*
X104028952Y-68618380D01*
X103981333Y-68570761D01*
X103957523Y-68523142D01*
X103933714Y-68427904D01*
X103933714Y-68356476D01*
X103957523Y-68261238D01*
X103981333Y-68213619D01*
X104028952Y-68166000D01*
X104100380Y-68142190D01*
X104148000Y-68142190D01*
X104219428Y-68166000D01*
X104243238Y-68189809D01*
X104457523Y-68642190D02*
X104457523Y-68142190D01*
X104576571Y-68142190D01*
X104648000Y-68166000D01*
X104695619Y-68213619D01*
X104719428Y-68261238D01*
X104743238Y-68356476D01*
X104743238Y-68427904D01*
X104719428Y-68523142D01*
X104695619Y-68570761D01*
X104648000Y-68618380D01*
X104576571Y-68642190D01*
X104457523Y-68642190D01*
X104838476Y-68689809D02*
X105219428Y-68689809D01*
X105314666Y-68618380D02*
X105386095Y-68642190D01*
X105505142Y-68642190D01*
X105552761Y-68618380D01*
X105576571Y-68594571D01*
X105600380Y-68546952D01*
X105600380Y-68499333D01*
X105576571Y-68451714D01*
X105552761Y-68427904D01*
X105505142Y-68404095D01*
X105409904Y-68380285D01*
X105362285Y-68356476D01*
X105338476Y-68332666D01*
X105314666Y-68285047D01*
X105314666Y-68237428D01*
X105338476Y-68189809D01*
X105362285Y-68166000D01*
X105409904Y-68142190D01*
X105528952Y-68142190D01*
X105600380Y-68166000D01*
X105814666Y-68642190D02*
X105814666Y-68142190D01*
X106005142Y-68142190D01*
X106052761Y-68166000D01*
X106076571Y-68189809D01*
X106100380Y-68237428D01*
X106100380Y-68308857D01*
X106076571Y-68356476D01*
X106052761Y-68380285D01*
X106005142Y-68404095D01*
X105814666Y-68404095D01*
X106314666Y-68642190D02*
X106314666Y-68142190D01*
X98583904Y-77405190D02*
X98583904Y-76905190D01*
X99107714Y-77357571D02*
X99083904Y-77381380D01*
X99012476Y-77405190D01*
X98964857Y-77405190D01*
X98893428Y-77381380D01*
X98845809Y-77333761D01*
X98822000Y-77286142D01*
X98798190Y-77190904D01*
X98798190Y-77119476D01*
X98822000Y-77024238D01*
X98845809Y-76976619D01*
X98893428Y-76929000D01*
X98964857Y-76905190D01*
X99012476Y-76905190D01*
X99083904Y-76929000D01*
X99107714Y-76952809D01*
X99298190Y-77381380D02*
X99369619Y-77405190D01*
X99488666Y-77405190D01*
X99536285Y-77381380D01*
X99560095Y-77357571D01*
X99583904Y-77309952D01*
X99583904Y-77262333D01*
X99560095Y-77214714D01*
X99536285Y-77190904D01*
X99488666Y-77167095D01*
X99393428Y-77143285D01*
X99345809Y-77119476D01*
X99322000Y-77095666D01*
X99298190Y-77048047D01*
X99298190Y-77000428D01*
X99322000Y-76952809D01*
X99345809Y-76929000D01*
X99393428Y-76905190D01*
X99512476Y-76905190D01*
X99583904Y-76929000D01*
X99798190Y-77405190D02*
X99798190Y-76905190D01*
X99988666Y-76905190D01*
X100036285Y-76929000D01*
X100060095Y-76952809D01*
X100083904Y-77000428D01*
X100083904Y-77071857D01*
X100060095Y-77119476D01*
X100036285Y-77143285D01*
X99988666Y-77167095D01*
X99798190Y-77167095D01*
D11*
X99322000Y-77687000D02*
X99322000Y-81497000D01*
X98052000Y-77687000D02*
X100592000Y-77687000D01*
X100592000Y-77687000D02*
X100592000Y-81497000D01*
D10*
X98258428Y-79818190D02*
X98258428Y-79318190D01*
X98425095Y-79675333D01*
X98591761Y-79318190D01*
X98591761Y-79818190D01*
X98925095Y-79318190D02*
X99020333Y-79318190D01*
X99067952Y-79342000D01*
X99115571Y-79389619D01*
X99139380Y-79484857D01*
X99139380Y-79651523D01*
X99115571Y-79746761D01*
X99067952Y-79794380D01*
X99020333Y-79818190D01*
X98925095Y-79818190D01*
X98877476Y-79794380D01*
X98829857Y-79746761D01*
X98806047Y-79651523D01*
X98806047Y-79484857D01*
X98829857Y-79389619D01*
X98877476Y-79342000D01*
X98925095Y-79318190D01*
X99564142Y-79794380D02*
X99635571Y-79818190D01*
X99754619Y-79818190D01*
X99802238Y-79794380D01*
X99826047Y-79770571D01*
X99849857Y-79722952D01*
X99849857Y-79675333D01*
X99826047Y-79627714D01*
X99802238Y-79603904D01*
X99754619Y-79580095D01*
X99659380Y-79556285D01*
X99611761Y-79532476D01*
X99587952Y-79508666D01*
X99564142Y-79461047D01*
X99564142Y-79413428D01*
X99587952Y-79365809D01*
X99611761Y-79342000D01*
X99659380Y-79318190D01*
X99778428Y-79318190D01*
X99849857Y-79342000D01*
X100349857Y-79770571D02*
X100326047Y-79794380D01*
X100254619Y-79818190D01*
X100207000Y-79818190D01*
X100135571Y-79794380D01*
X100087952Y-79746761D01*
X100064142Y-79699142D01*
X100040333Y-79603904D01*
X100040333Y-79532476D01*
X100064142Y-79437238D01*
X100087952Y-79389619D01*
X100135571Y-79342000D01*
X100207000Y-79318190D01*
X100254619Y-79318190D01*
X100326047Y-79342000D01*
X100349857Y-79365809D01*
D11*
X98052000Y-80227000D02*
X100592000Y-80227000D01*
D10*
X99671285Y-81088190D02*
X99671285Y-80588190D01*
X99837952Y-80945333D01*
X100004619Y-80588190D01*
X100004619Y-81088190D01*
X100242714Y-81088190D02*
X100242714Y-80588190D01*
D11*
X98052000Y-81497000D02*
X100592000Y-81497000D01*
D10*
X98591761Y-80588190D02*
X98353666Y-80588190D01*
X98329857Y-80826285D01*
X98353666Y-80802476D01*
X98401285Y-80778666D01*
X98520333Y-80778666D01*
X98567952Y-80802476D01*
X98591761Y-80826285D01*
X98615571Y-80873904D01*
X98615571Y-80992952D01*
X98591761Y-81040571D01*
X98567952Y-81064380D01*
X98520333Y-81088190D01*
X98401285Y-81088190D01*
X98353666Y-81064380D01*
X98329857Y-81040571D01*
X98758428Y-80588190D02*
X98925095Y-81088190D01*
X99091761Y-80588190D01*
X100111761Y-78548190D02*
X99945095Y-78310095D01*
X99826047Y-78548190D02*
X99826047Y-78048190D01*
X100016523Y-78048190D01*
X100064142Y-78072000D01*
X100087952Y-78095809D01*
X100111761Y-78143428D01*
X100111761Y-78214857D01*
X100087952Y-78262476D01*
X100064142Y-78286285D01*
X100016523Y-78310095D01*
X99826047Y-78310095D01*
D11*
X98052000Y-78957000D02*
X100592000Y-78957000D01*
X98052000Y-77687000D02*
X98052000Y-81497000D01*
D10*
X98817952Y-78072000D02*
X98770333Y-78048190D01*
X98698904Y-78048190D01*
X98627476Y-78072000D01*
X98579857Y-78119619D01*
X98556047Y-78167238D01*
X98532238Y-78262476D01*
X98532238Y-78333904D01*
X98556047Y-78429142D01*
X98579857Y-78476761D01*
X98627476Y-78524380D01*
X98698904Y-78548190D01*
X98746523Y-78548190D01*
X98817952Y-78524380D01*
X98841761Y-78500571D01*
X98841761Y-78333904D01*
X98746523Y-78333904D01*
X105179952Y-91502190D02*
X105013285Y-91264095D01*
X104894238Y-91502190D02*
X104894238Y-91002190D01*
X105084714Y-91002190D01*
X105132333Y-91026000D01*
X105156142Y-91049809D01*
X105179952Y-91097428D01*
X105179952Y-91168857D01*
X105156142Y-91216476D01*
X105132333Y-91240285D01*
X105084714Y-91264095D01*
X104894238Y-91264095D01*
X105584714Y-91478380D02*
X105537095Y-91502190D01*
X105441857Y-91502190D01*
X105394238Y-91478380D01*
X105370428Y-91430761D01*
X105370428Y-91240285D01*
X105394238Y-91192666D01*
X105441857Y-91168857D01*
X105537095Y-91168857D01*
X105584714Y-91192666D01*
X105608523Y-91240285D01*
X105608523Y-91287904D01*
X105370428Y-91335523D01*
X105799000Y-91478380D02*
X105846619Y-91502190D01*
X105941857Y-91502190D01*
X105989476Y-91478380D01*
X106013285Y-91430761D01*
X106013285Y-91406952D01*
X105989476Y-91359333D01*
X105941857Y-91335523D01*
X105870428Y-91335523D01*
X105822809Y-91311714D01*
X105799000Y-91264095D01*
X105799000Y-91240285D01*
X105822809Y-91192666D01*
X105870428Y-91168857D01*
X105941857Y-91168857D01*
X105989476Y-91192666D01*
X106418047Y-91478380D02*
X106370428Y-91502190D01*
X106275190Y-91502190D01*
X106227571Y-91478380D01*
X106203761Y-91430761D01*
X106203761Y-91240285D01*
X106227571Y-91192666D01*
X106275190Y-91168857D01*
X106370428Y-91168857D01*
X106418047Y-91192666D01*
X106441857Y-91240285D01*
X106441857Y-91287904D01*
X106203761Y-91335523D01*
X106584714Y-91168857D02*
X106775190Y-91168857D01*
X106656142Y-91002190D02*
X106656142Y-91430761D01*
X106679952Y-91478380D01*
X106727571Y-91502190D01*
X106775190Y-91502190D01*
D11*
X103894000Y-97626000D02*
X103894000Y-96356000D01*
X102624000Y-97626000D02*
X102624000Y-96356000D01*
D10*
X101846142Y-97193380D02*
X101917571Y-97217190D01*
X102036619Y-97217190D01*
X102084238Y-97193380D01*
X102108047Y-97169571D01*
X102131857Y-97121952D01*
X102131857Y-97074333D01*
X102108047Y-97026714D01*
X102084238Y-97002904D01*
X102036619Y-96979095D01*
X101941380Y-96955285D01*
X101893761Y-96931476D01*
X101869952Y-96907666D01*
X101846142Y-96860047D01*
X101846142Y-96812428D01*
X101869952Y-96764809D01*
X101893761Y-96741000D01*
X101941380Y-96717190D01*
X102060428Y-96717190D01*
X102131857Y-96741000D01*
D11*
X101354000Y-97626000D02*
X101354000Y-96356000D01*
D10*
X104659952Y-96741000D02*
X104612333Y-96717190D01*
X104540904Y-96717190D01*
X104469476Y-96741000D01*
X104421857Y-96788619D01*
X104398047Y-96836238D01*
X104374238Y-96931476D01*
X104374238Y-97002904D01*
X104398047Y-97098142D01*
X104421857Y-97145761D01*
X104469476Y-97193380D01*
X104540904Y-97217190D01*
X104588523Y-97217190D01*
X104659952Y-97193380D01*
X104683761Y-97169571D01*
X104683761Y-97002904D01*
X104588523Y-97002904D01*
X102136000Y-95812285D02*
X102302666Y-95812285D01*
X102374095Y-96074190D02*
X102136000Y-96074190D01*
X102136000Y-95574190D01*
X102374095Y-95574190D01*
X102588380Y-95740857D02*
X102588380Y-96074190D01*
X102588380Y-95788476D02*
X102612190Y-95764666D01*
X102659809Y-95740857D01*
X102731238Y-95740857D01*
X102778857Y-95764666D01*
X102802666Y-95812285D01*
X102802666Y-96074190D01*
X103255047Y-96050380D02*
X103207428Y-96074190D01*
X103112190Y-96074190D01*
X103064571Y-96050380D01*
X103040761Y-96026571D01*
X103016952Y-95978952D01*
X103016952Y-95836095D01*
X103040761Y-95788476D01*
X103064571Y-95764666D01*
X103112190Y-95740857D01*
X103207428Y-95740857D01*
X103255047Y-95764666D01*
X103540761Y-96074190D02*
X103493142Y-96050380D01*
X103469333Y-96026571D01*
X103445523Y-95978952D01*
X103445523Y-95836095D01*
X103469333Y-95788476D01*
X103493142Y-95764666D01*
X103540761Y-95740857D01*
X103612190Y-95740857D01*
X103659809Y-95764666D01*
X103683619Y-95788476D01*
X103707428Y-95836095D01*
X103707428Y-95978952D01*
X103683619Y-96026571D01*
X103659809Y-96050380D01*
X103612190Y-96074190D01*
X103540761Y-96074190D01*
X104136000Y-96074190D02*
X104136000Y-95574190D01*
X104136000Y-96050380D02*
X104088380Y-96074190D01*
X103993142Y-96074190D01*
X103945523Y-96050380D01*
X103921714Y-96026571D01*
X103897904Y-95978952D01*
X103897904Y-95836095D01*
X103921714Y-95788476D01*
X103945523Y-95764666D01*
X103993142Y-95740857D01*
X104088380Y-95740857D01*
X104136000Y-95764666D01*
X104540761Y-95812285D02*
X104612190Y-95836095D01*
X104636000Y-95859904D01*
X104659809Y-95907523D01*
X104659809Y-95978952D01*
X104636000Y-96026571D01*
X104612190Y-96050380D01*
X104564571Y-96074190D01*
X104374095Y-96074190D01*
X104374095Y-95574190D01*
X104540761Y-95574190D01*
X104588380Y-95598000D01*
X104612190Y-95621809D01*
X104636000Y-95669428D01*
X104636000Y-95717047D01*
X104612190Y-95764666D01*
X104588380Y-95788476D01*
X104540761Y-95812285D01*
X104374095Y-95812285D01*
D11*
X101354000Y-97626000D02*
X105164000Y-97626000D01*
X101354000Y-96356000D02*
X105164000Y-96356000D01*
D10*
X103163761Y-96717190D02*
X102925666Y-96717190D01*
X102901857Y-96955285D01*
X102925666Y-96931476D01*
X102973285Y-96907666D01*
X103092333Y-96907666D01*
X103139952Y-96931476D01*
X103163761Y-96955285D01*
X103187571Y-97002904D01*
X103187571Y-97121952D01*
X103163761Y-97169571D01*
X103139952Y-97193380D01*
X103092333Y-97217190D01*
X102973285Y-97217190D01*
X102925666Y-97193380D01*
X102901857Y-97169571D01*
X103330428Y-96717190D02*
X103497095Y-97217190D01*
X103663761Y-96717190D01*
D11*
X105164000Y-97626000D02*
X105164000Y-96356000D01*
D10*
X93483952Y-96741000D02*
X93436333Y-96717190D01*
X93364904Y-96717190D01*
X93293476Y-96741000D01*
X93245857Y-96788619D01*
X93222047Y-96836238D01*
X93198238Y-96931476D01*
X93198238Y-97002904D01*
X93222047Y-97098142D01*
X93245857Y-97145761D01*
X93293476Y-97193380D01*
X93364904Y-97217190D01*
X93412523Y-97217190D01*
X93483952Y-97193380D01*
X93507761Y-97169571D01*
X93507761Y-97002904D01*
X93412523Y-97002904D01*
D11*
X93988000Y-97626000D02*
X93988000Y-96356000D01*
X90178000Y-97626000D02*
X93988000Y-97626000D01*
X90178000Y-97626000D02*
X90178000Y-96356000D01*
D10*
X90670142Y-97193380D02*
X90741571Y-97217190D01*
X90860619Y-97217190D01*
X90908238Y-97193380D01*
X90932047Y-97169571D01*
X90955857Y-97121952D01*
X90955857Y-97074333D01*
X90932047Y-97026714D01*
X90908238Y-97002904D01*
X90860619Y-96979095D01*
X90765380Y-96955285D01*
X90717761Y-96931476D01*
X90693952Y-96907666D01*
X90670142Y-96860047D01*
X90670142Y-96812428D01*
X90693952Y-96764809D01*
X90717761Y-96741000D01*
X90765380Y-96717190D01*
X90884428Y-96717190D01*
X90955857Y-96741000D01*
D11*
X90178000Y-96356000D02*
X93988000Y-96356000D01*
X91448000Y-97626000D02*
X91448000Y-96356000D01*
D10*
X90868714Y-95812285D02*
X91035380Y-95812285D01*
X91106809Y-96074190D02*
X90868714Y-96074190D01*
X90868714Y-95574190D01*
X91106809Y-95574190D01*
X91321095Y-95740857D02*
X91321095Y-96074190D01*
X91321095Y-95788476D02*
X91344904Y-95764666D01*
X91392523Y-95740857D01*
X91463952Y-95740857D01*
X91511571Y-95764666D01*
X91535380Y-95812285D01*
X91535380Y-96074190D01*
X91987761Y-96050380D02*
X91940142Y-96074190D01*
X91844904Y-96074190D01*
X91797285Y-96050380D01*
X91773476Y-96026571D01*
X91749666Y-95978952D01*
X91749666Y-95836095D01*
X91773476Y-95788476D01*
X91797285Y-95764666D01*
X91844904Y-95740857D01*
X91940142Y-95740857D01*
X91987761Y-95764666D01*
X92273476Y-96074190D02*
X92225857Y-96050380D01*
X92202047Y-96026571D01*
X92178238Y-95978952D01*
X92178238Y-95836095D01*
X92202047Y-95788476D01*
X92225857Y-95764666D01*
X92273476Y-95740857D01*
X92344904Y-95740857D01*
X92392523Y-95764666D01*
X92416333Y-95788476D01*
X92440142Y-95836095D01*
X92440142Y-95978952D01*
X92416333Y-96026571D01*
X92392523Y-96050380D01*
X92344904Y-96074190D01*
X92273476Y-96074190D01*
X92868714Y-96074190D02*
X92868714Y-95574190D01*
X92868714Y-96050380D02*
X92821095Y-96074190D01*
X92725857Y-96074190D01*
X92678238Y-96050380D01*
X92654428Y-96026571D01*
X92630619Y-95978952D01*
X92630619Y-95836095D01*
X92654428Y-95788476D01*
X92678238Y-95764666D01*
X92725857Y-95740857D01*
X92821095Y-95740857D01*
X92868714Y-95764666D01*
X93083000Y-95931333D02*
X93321095Y-95931333D01*
X93035380Y-96074190D02*
X93202047Y-95574190D01*
X93368714Y-96074190D01*
X91987761Y-96717190D02*
X91749666Y-96717190D01*
X91725857Y-96955285D01*
X91749666Y-96931476D01*
X91797285Y-96907666D01*
X91916333Y-96907666D01*
X91963952Y-96931476D01*
X91987761Y-96955285D01*
X92011571Y-97002904D01*
X92011571Y-97121952D01*
X91987761Y-97169571D01*
X91963952Y-97193380D01*
X91916333Y-97217190D01*
X91797285Y-97217190D01*
X91749666Y-97193380D01*
X91725857Y-97169571D01*
X92154428Y-96717190D02*
X92321095Y-97217190D01*
X92487761Y-96717190D01*
D11*
X92718000Y-97626000D02*
X92718000Y-96356000D01*
X106688000Y-97499000D02*
X109228000Y-97499000D01*
X106688000Y-97499000D02*
X106688000Y-96229000D01*
D10*
X107120619Y-96828285D02*
X107192047Y-96852095D01*
X107215857Y-96875904D01*
X107239666Y-96923523D01*
X107239666Y-96994952D01*
X107215857Y-97042571D01*
X107192047Y-97066380D01*
X107144428Y-97090190D01*
X106953952Y-97090190D01*
X106953952Y-96590190D01*
X107120619Y-96590190D01*
X107168238Y-96614000D01*
X107192047Y-96637809D01*
X107215857Y-96685428D01*
X107215857Y-96733047D01*
X107192047Y-96780666D01*
X107168238Y-96804476D01*
X107120619Y-96828285D01*
X106953952Y-96828285D01*
X107430142Y-96637809D02*
X107453952Y-96614000D01*
X107501571Y-96590190D01*
X107620619Y-96590190D01*
X107668238Y-96614000D01*
X107692047Y-96637809D01*
X107715857Y-96685428D01*
X107715857Y-96733047D01*
X107692047Y-96804476D01*
X107406333Y-97090190D01*
X107715857Y-97090190D01*
D11*
X106688000Y-96229000D02*
X109228000Y-96229000D01*
X107958000Y-97499000D02*
X107958000Y-96229000D01*
D10*
X106791333Y-95947190D02*
X106791333Y-95447190D01*
X106958000Y-95804333D01*
X107124666Y-95447190D01*
X107124666Y-95947190D01*
X107434190Y-95947190D02*
X107386571Y-95923380D01*
X107362761Y-95899571D01*
X107338952Y-95851952D01*
X107338952Y-95709095D01*
X107362761Y-95661476D01*
X107386571Y-95637666D01*
X107434190Y-95613857D01*
X107505619Y-95613857D01*
X107553238Y-95637666D01*
X107577047Y-95661476D01*
X107600857Y-95709095D01*
X107600857Y-95851952D01*
X107577047Y-95899571D01*
X107553238Y-95923380D01*
X107505619Y-95947190D01*
X107434190Y-95947190D01*
X107743714Y-95613857D02*
X107934190Y-95613857D01*
X107815142Y-95447190D02*
X107815142Y-95875761D01*
X107838952Y-95923380D01*
X107886571Y-95947190D01*
X107934190Y-95947190D01*
X108172285Y-95947190D02*
X108124666Y-95923380D01*
X108100857Y-95899571D01*
X108077047Y-95851952D01*
X108077047Y-95709095D01*
X108100857Y-95661476D01*
X108124666Y-95637666D01*
X108172285Y-95613857D01*
X108243714Y-95613857D01*
X108291333Y-95637666D01*
X108315142Y-95661476D01*
X108338952Y-95709095D01*
X108338952Y-95851952D01*
X108315142Y-95899571D01*
X108291333Y-95923380D01*
X108243714Y-95947190D01*
X108172285Y-95947190D01*
X108553238Y-95947190D02*
X108553238Y-95613857D01*
X108553238Y-95709095D02*
X108577047Y-95661476D01*
X108600857Y-95637666D01*
X108648476Y-95613857D01*
X108696095Y-95613857D01*
X109029428Y-95685285D02*
X109100857Y-95709095D01*
X109124666Y-95732904D01*
X109148476Y-95780523D01*
X109148476Y-95851952D01*
X109124666Y-95899571D01*
X109100857Y-95923380D01*
X109053238Y-95947190D01*
X108862761Y-95947190D01*
X108862761Y-95447190D01*
X109029428Y-95447190D01*
X109077047Y-95471000D01*
X109100857Y-95494809D01*
X109124666Y-95542428D01*
X109124666Y-95590047D01*
X109100857Y-95637666D01*
X109077047Y-95661476D01*
X109029428Y-95685285D01*
X108862761Y-95685285D01*
X108390619Y-96828285D02*
X108462047Y-96852095D01*
X108485857Y-96875904D01*
X108509666Y-96923523D01*
X108509666Y-96994952D01*
X108485857Y-97042571D01*
X108462047Y-97066380D01*
X108414428Y-97090190D01*
X108223952Y-97090190D01*
X108223952Y-96590190D01*
X108390619Y-96590190D01*
X108438238Y-96614000D01*
X108462047Y-96637809D01*
X108485857Y-96685428D01*
X108485857Y-96733047D01*
X108462047Y-96780666D01*
X108438238Y-96804476D01*
X108390619Y-96828285D01*
X108223952Y-96828285D01*
X108985857Y-97090190D02*
X108700142Y-97090190D01*
X108843000Y-97090190D02*
X108843000Y-96590190D01*
X108795380Y-96661619D01*
X108747761Y-96709238D01*
X108700142Y-96733047D01*
D11*
X109228000Y-97499000D02*
X109228000Y-96229000D01*
D10*
X77871047Y-96074190D02*
X77871047Y-95574190D01*
X78037714Y-95931333D01*
X78204380Y-95574190D01*
X78204380Y-96074190D01*
X78513904Y-96074190D02*
X78466285Y-96050380D01*
X78442476Y-96026571D01*
X78418666Y-95978952D01*
X78418666Y-95836095D01*
X78442476Y-95788476D01*
X78466285Y-95764666D01*
X78513904Y-95740857D01*
X78585333Y-95740857D01*
X78632952Y-95764666D01*
X78656761Y-95788476D01*
X78680571Y-95836095D01*
X78680571Y-95978952D01*
X78656761Y-96026571D01*
X78632952Y-96050380D01*
X78585333Y-96074190D01*
X78513904Y-96074190D01*
X78823428Y-95740857D02*
X79013904Y-95740857D01*
X78894857Y-95574190D02*
X78894857Y-96002761D01*
X78918666Y-96050380D01*
X78966285Y-96074190D01*
X79013904Y-96074190D01*
X79252000Y-96074190D02*
X79204380Y-96050380D01*
X79180571Y-96026571D01*
X79156761Y-95978952D01*
X79156761Y-95836095D01*
X79180571Y-95788476D01*
X79204380Y-95764666D01*
X79252000Y-95740857D01*
X79323428Y-95740857D01*
X79371047Y-95764666D01*
X79394857Y-95788476D01*
X79418666Y-95836095D01*
X79418666Y-95978952D01*
X79394857Y-96026571D01*
X79371047Y-96050380D01*
X79323428Y-96074190D01*
X79252000Y-96074190D01*
X79632952Y-96074190D02*
X79632952Y-95740857D01*
X79632952Y-95836095D02*
X79656761Y-95788476D01*
X79680571Y-95764666D01*
X79728190Y-95740857D01*
X79775809Y-95740857D01*
X79918666Y-95931333D02*
X80156761Y-95931333D01*
X79871047Y-96074190D02*
X80037714Y-95574190D01*
X80204380Y-96074190D01*
D11*
X80272000Y-97626000D02*
X80272000Y-96356000D01*
X79002000Y-97626000D02*
X79002000Y-96356000D01*
D10*
X78009857Y-97074333D02*
X78247952Y-97074333D01*
X77962238Y-97217190D02*
X78128904Y-96717190D01*
X78295571Y-97217190D01*
X78724142Y-97217190D02*
X78438428Y-97217190D01*
X78581285Y-97217190D02*
X78581285Y-96717190D01*
X78533666Y-96788619D01*
X78486047Y-96836238D01*
X78438428Y-96860047D01*
D11*
X77732000Y-97626000D02*
X77732000Y-96356000D01*
X77732000Y-97626000D02*
X80272000Y-97626000D01*
D10*
X79279857Y-97074333D02*
X79517952Y-97074333D01*
X79232238Y-97217190D02*
X79398904Y-96717190D01*
X79565571Y-97217190D01*
X79708428Y-96764809D02*
X79732238Y-96741000D01*
X79779857Y-96717190D01*
X79898904Y-96717190D01*
X79946523Y-96741000D01*
X79970333Y-96764809D01*
X79994142Y-96812428D01*
X79994142Y-96860047D01*
X79970333Y-96931476D01*
X79684619Y-97217190D01*
X79994142Y-97217190D01*
D11*
X77732000Y-96356000D02*
X80272000Y-96356000D01*
X62365000Y-104484000D02*
X62365000Y-103214000D01*
X61095000Y-103214000D02*
X63635000Y-103214000D01*
X61095000Y-104484000D02*
X61095000Y-103214000D01*
X63635000Y-104484000D02*
X63635000Y-103214000D01*
D10*
X61420476Y-104075190D02*
X61515714Y-104075190D01*
X61563333Y-104051380D01*
X61587142Y-104027571D01*
X61634761Y-103956142D01*
X61658571Y-103860904D01*
X61658571Y-103670428D01*
X61634761Y-103622809D01*
X61610952Y-103599000D01*
X61563333Y-103575190D01*
X61468095Y-103575190D01*
X61420476Y-103599000D01*
X61396666Y-103622809D01*
X61372857Y-103670428D01*
X61372857Y-103789476D01*
X61396666Y-103837095D01*
X61420476Y-103860904D01*
X61468095Y-103884714D01*
X61563333Y-103884714D01*
X61610952Y-103860904D01*
X61634761Y-103837095D01*
X61658571Y-103789476D01*
X61801428Y-103575190D02*
X61968095Y-104075190D01*
X62134761Y-103575190D01*
X63130952Y-103599000D02*
X63083333Y-103575190D01*
X63011904Y-103575190D01*
X62940476Y-103599000D01*
X62892857Y-103646619D01*
X62869047Y-103694238D01*
X62845238Y-103789476D01*
X62845238Y-103860904D01*
X62869047Y-103956142D01*
X62892857Y-104003761D01*
X62940476Y-104051380D01*
X63011904Y-104075190D01*
X63059523Y-104075190D01*
X63130952Y-104051380D01*
X63154761Y-104027571D01*
X63154761Y-103860904D01*
X63059523Y-103860904D01*
D11*
X61095000Y-104484000D02*
X63635000Y-104484000D01*
X51062000Y-84672000D02*
X52332000Y-84672000D01*
X51062000Y-83402000D02*
X51062000Y-85942000D01*
X51062000Y-85942000D02*
X52332000Y-85942000D01*
D10*
X51827952Y-85057000D02*
X51780333Y-85033190D01*
X51708904Y-85033190D01*
X51637476Y-85057000D01*
X51589857Y-85104619D01*
X51566047Y-85152238D01*
X51542238Y-85247476D01*
X51542238Y-85318904D01*
X51566047Y-85414142D01*
X51589857Y-85461761D01*
X51637476Y-85509380D01*
X51708904Y-85533190D01*
X51756523Y-85533190D01*
X51827952Y-85509380D01*
X51851761Y-85485571D01*
X51851761Y-85318904D01*
X51756523Y-85318904D01*
D11*
X52332000Y-83402000D02*
X52332000Y-85942000D01*
D10*
X51601761Y-83763190D02*
X51363666Y-83763190D01*
X51339857Y-84001285D01*
X51363666Y-83977476D01*
X51411285Y-83953666D01*
X51530333Y-83953666D01*
X51577952Y-83977476D01*
X51601761Y-84001285D01*
X51625571Y-84048904D01*
X51625571Y-84167952D01*
X51601761Y-84215571D01*
X51577952Y-84239380D01*
X51530333Y-84263190D01*
X51411285Y-84263190D01*
X51363666Y-84239380D01*
X51339857Y-84215571D01*
X51768428Y-83763190D02*
X51935095Y-84263190D01*
X52101761Y-83763190D01*
D11*
X51062000Y-83402000D02*
X52332000Y-83402000D01*
D10*
X63254047Y-58609190D02*
X63254047Y-58109190D01*
X63373095Y-58109190D01*
X63444523Y-58133000D01*
X63492142Y-58180619D01*
X63515952Y-58228238D01*
X63539761Y-58323476D01*
X63539761Y-58394904D01*
X63515952Y-58490142D01*
X63492142Y-58537761D01*
X63444523Y-58585380D01*
X63373095Y-58609190D01*
X63254047Y-58609190D01*
X64039761Y-58609190D02*
X63873095Y-58371095D01*
X63754047Y-58609190D02*
X63754047Y-58109190D01*
X63944523Y-58109190D01*
X63992142Y-58133000D01*
X64015952Y-58156809D01*
X64039761Y-58204428D01*
X64039761Y-58275857D01*
X64015952Y-58323476D01*
X63992142Y-58347285D01*
X63944523Y-58371095D01*
X63754047Y-58371095D01*
X63254047Y-59379190D02*
X63539761Y-59379190D01*
X63396904Y-59879190D02*
X63396904Y-59379190D01*
X63658809Y-59379190D02*
X63992142Y-59879190D01*
X63992142Y-59379190D02*
X63658809Y-59879190D01*
X63551666Y-61149190D02*
X63385000Y-60911095D01*
X63265952Y-61149190D02*
X63265952Y-60649190D01*
X63456428Y-60649190D01*
X63504047Y-60673000D01*
X63527857Y-60696809D01*
X63551666Y-60744428D01*
X63551666Y-60815857D01*
X63527857Y-60863476D01*
X63504047Y-60887285D01*
X63456428Y-60911095D01*
X63265952Y-60911095D01*
X63718333Y-60649190D02*
X64051666Y-61149190D01*
X64051666Y-60649190D02*
X63718333Y-61149190D01*
X63539761Y-61919190D02*
X63301666Y-61919190D01*
X63277857Y-62157285D01*
X63301666Y-62133476D01*
X63349285Y-62109666D01*
X63468333Y-62109666D01*
X63515952Y-62133476D01*
X63539761Y-62157285D01*
X63563571Y-62204904D01*
X63563571Y-62323952D01*
X63539761Y-62371571D01*
X63515952Y-62395380D01*
X63468333Y-62419190D01*
X63349285Y-62419190D01*
X63301666Y-62395380D01*
X63277857Y-62371571D01*
X63706428Y-61919190D02*
X63873095Y-62419190D01*
X64039761Y-61919190D01*
X63765952Y-63213000D02*
X63718333Y-63189190D01*
X63646904Y-63189190D01*
X63575476Y-63213000D01*
X63527857Y-63260619D01*
X63504047Y-63308238D01*
X63480238Y-63403476D01*
X63480238Y-63474904D01*
X63504047Y-63570142D01*
X63527857Y-63617761D01*
X63575476Y-63665380D01*
X63646904Y-63689190D01*
X63694523Y-63689190D01*
X63765952Y-63665380D01*
X63789761Y-63641571D01*
X63789761Y-63474904D01*
X63694523Y-63474904D01*
D11*
X63000000Y-65241000D02*
X64270000Y-65241000D01*
X63000000Y-62828000D02*
X64270000Y-62828000D01*
X63000000Y-59018000D02*
X64270000Y-59018000D01*
X63000000Y-61558000D02*
X64270000Y-61558000D01*
D10*
X63765952Y-64356000D02*
X63718333Y-64332190D01*
X63646904Y-64332190D01*
X63575476Y-64356000D01*
X63527857Y-64403619D01*
X63504047Y-64451238D01*
X63480238Y-64546476D01*
X63480238Y-64617904D01*
X63504047Y-64713142D01*
X63527857Y-64760761D01*
X63575476Y-64808380D01*
X63646904Y-64832190D01*
X63694523Y-64832190D01*
X63765952Y-64808380D01*
X63789761Y-64784571D01*
X63789761Y-64617904D01*
X63694523Y-64617904D01*
D11*
X63000000Y-64098000D02*
X64270000Y-64098000D01*
X63000000Y-57748000D02*
X64270000Y-57748000D01*
X64270000Y-57748000D02*
X64270000Y-65241000D01*
X63000000Y-60288000D02*
X64270000Y-60288000D01*
X63000000Y-57748000D02*
X63000000Y-65241000D01*
D10*
X98964857Y-54656333D02*
X99202952Y-54656333D01*
X98917238Y-54799190D02*
X99083904Y-54299190D01*
X99250571Y-54799190D01*
X99369619Y-54299190D02*
X99702952Y-54299190D01*
X99488666Y-54799190D01*
X97694857Y-54656333D02*
X97932952Y-54656333D01*
X97647238Y-54799190D02*
X97813904Y-54299190D01*
X97980571Y-54799190D01*
X98361523Y-54299190D02*
X98266285Y-54299190D01*
X98218666Y-54323000D01*
X98194857Y-54346809D01*
X98147238Y-54418238D01*
X98123428Y-54513476D01*
X98123428Y-54703952D01*
X98147238Y-54751571D01*
X98171047Y-54775380D01*
X98218666Y-54799190D01*
X98313904Y-54799190D01*
X98361523Y-54775380D01*
X98385333Y-54751571D01*
X98409142Y-54703952D01*
X98409142Y-54584904D01*
X98385333Y-54537285D01*
X98361523Y-54513476D01*
X98313904Y-54489666D01*
X98218666Y-54489666D01*
X98171047Y-54513476D01*
X98147238Y-54537285D01*
X98123428Y-54584904D01*
X98964857Y-55926333D02*
X99202952Y-55926333D01*
X98917238Y-56069190D02*
X99083904Y-55569190D01*
X99250571Y-56069190D01*
X99369619Y-55569190D02*
X99679142Y-55569190D01*
X99512476Y-55759666D01*
X99583904Y-55759666D01*
X99631523Y-55783476D01*
X99655333Y-55807285D01*
X99679142Y-55854904D01*
X99679142Y-55973952D01*
X99655333Y-56021571D01*
X99631523Y-56045380D01*
X99583904Y-56069190D01*
X99441047Y-56069190D01*
X99393428Y-56045380D01*
X99369619Y-56021571D01*
X97694857Y-55926333D02*
X97932952Y-55926333D01*
X97647238Y-56069190D02*
X97813904Y-55569190D01*
X97980571Y-56069190D01*
X98123428Y-55616809D02*
X98147238Y-55593000D01*
X98194857Y-55569190D01*
X98313904Y-55569190D01*
X98361523Y-55593000D01*
X98385333Y-55616809D01*
X98409142Y-55664428D01*
X98409142Y-55712047D01*
X98385333Y-55783476D01*
X98099619Y-56069190D01*
X98409142Y-56069190D01*
X98964857Y-57196333D02*
X99202952Y-57196333D01*
X98917238Y-57339190D02*
X99083904Y-56839190D01*
X99250571Y-57339190D01*
X99679142Y-57339190D02*
X99393428Y-57339190D01*
X99536285Y-57339190D02*
X99536285Y-56839190D01*
X99488666Y-56910619D01*
X99441047Y-56958238D01*
X99393428Y-56982047D01*
D11*
X97417000Y-55208000D02*
X99957000Y-55208000D01*
D10*
X97694857Y-57196333D02*
X97932952Y-57196333D01*
X97647238Y-57339190D02*
X97813904Y-56839190D01*
X97980571Y-57339190D01*
X98242476Y-56839190D02*
X98290095Y-56839190D01*
X98337714Y-56863000D01*
X98361523Y-56886809D01*
X98385333Y-56934428D01*
X98409142Y-57029666D01*
X98409142Y-57148714D01*
X98385333Y-57243952D01*
X98361523Y-57291571D01*
X98337714Y-57315380D01*
X98290095Y-57339190D01*
X98242476Y-57339190D01*
X98194857Y-57315380D01*
X98171047Y-57291571D01*
X98147238Y-57243952D01*
X98123428Y-57148714D01*
X98123428Y-57029666D01*
X98147238Y-56934428D01*
X98171047Y-56886809D01*
X98194857Y-56863000D01*
X98242476Y-56839190D01*
D11*
X97417000Y-57748000D02*
X99957000Y-57748000D01*
X97417000Y-53938000D02*
X99957000Y-53938000D01*
X98687000Y-53938000D02*
X98687000Y-57748000D01*
X99957000Y-53938000D02*
X99957000Y-57748000D01*
X97417000Y-56478000D02*
X99957000Y-56478000D01*
X97417000Y-53938000D02*
X97417000Y-57748000D01*
D10*
X106529285Y-67499190D02*
X106529285Y-66999190D01*
X106695952Y-67356333D01*
X106862619Y-66999190D01*
X106862619Y-67499190D01*
X107100714Y-67499190D02*
X107100714Y-66999190D01*
X105497380Y-67451571D02*
X105473571Y-67475380D01*
X105402142Y-67499190D01*
X105354523Y-67499190D01*
X105283095Y-67475380D01*
X105235476Y-67427761D01*
X105211666Y-67380142D01*
X105187857Y-67284904D01*
X105187857Y-67213476D01*
X105211666Y-67118238D01*
X105235476Y-67070619D01*
X105283095Y-67023000D01*
X105354523Y-66999190D01*
X105402142Y-66999190D01*
X105473571Y-67023000D01*
X105497380Y-67046809D01*
X105949761Y-67499190D02*
X105711666Y-67499190D01*
X105711666Y-66999190D01*
X103894047Y-67499190D02*
X103894047Y-66999190D01*
X104013095Y-66999190D01*
X104084523Y-67023000D01*
X104132142Y-67070619D01*
X104155952Y-67118238D01*
X104179761Y-67213476D01*
X104179761Y-67284904D01*
X104155952Y-67380142D01*
X104132142Y-67427761D01*
X104084523Y-67475380D01*
X104013095Y-67499190D01*
X103894047Y-67499190D01*
X104679761Y-67451571D02*
X104655952Y-67475380D01*
X104584523Y-67499190D01*
X104536904Y-67499190D01*
X104465476Y-67475380D01*
X104417857Y-67427761D01*
X104394047Y-67380142D01*
X104370238Y-67284904D01*
X104370238Y-67213476D01*
X104394047Y-67118238D01*
X104417857Y-67070619D01*
X104465476Y-67023000D01*
X104536904Y-66999190D01*
X104584523Y-66999190D01*
X104655952Y-67023000D01*
X104679761Y-67046809D01*
X102921666Y-67451571D02*
X102897857Y-67475380D01*
X102826428Y-67499190D01*
X102778809Y-67499190D01*
X102707380Y-67475380D01*
X102659761Y-67427761D01*
X102635952Y-67380142D01*
X102612142Y-67284904D01*
X102612142Y-67213476D01*
X102635952Y-67118238D01*
X102659761Y-67070619D01*
X102707380Y-67023000D01*
X102778809Y-66999190D01*
X102826428Y-66999190D01*
X102897857Y-67023000D01*
X102921666Y-67046809D01*
X103112142Y-67475380D02*
X103183571Y-67499190D01*
X103302619Y-67499190D01*
X103350238Y-67475380D01*
X103374047Y-67451571D01*
X103397857Y-67403952D01*
X103397857Y-67356333D01*
X103374047Y-67308714D01*
X103350238Y-67284904D01*
X103302619Y-67261095D01*
X103207380Y-67237285D01*
X103159761Y-67213476D01*
X103135952Y-67189666D01*
X103112142Y-67142047D01*
X103112142Y-67094428D01*
X103135952Y-67046809D01*
X103159761Y-67023000D01*
X103207380Y-66999190D01*
X103326428Y-66999190D01*
X103397857Y-67023000D01*
X105449761Y-66229190D02*
X105211666Y-66229190D01*
X105211666Y-65729190D01*
X105616428Y-66229190D02*
X105616428Y-65729190D01*
X105735476Y-65729190D01*
X105806904Y-65753000D01*
X105854523Y-65800619D01*
X105878333Y-65848238D01*
X105902142Y-65943476D01*
X105902142Y-66014904D01*
X105878333Y-66110142D01*
X105854523Y-66157761D01*
X105806904Y-66205380D01*
X105735476Y-66229190D01*
X105616428Y-66229190D01*
X103846428Y-66229190D02*
X103846428Y-65729190D01*
X104013095Y-66086333D01*
X104179761Y-65729190D01*
X104179761Y-66229190D01*
X104513095Y-65729190D02*
X104608333Y-65729190D01*
X104655952Y-65753000D01*
X104703571Y-65800619D01*
X104727380Y-65895857D01*
X104727380Y-66062523D01*
X104703571Y-66157761D01*
X104655952Y-66205380D01*
X104608333Y-66229190D01*
X104513095Y-66229190D01*
X104465476Y-66205380D01*
X104417857Y-66157761D01*
X104394047Y-66062523D01*
X104394047Y-65895857D01*
X104417857Y-65800619D01*
X104465476Y-65753000D01*
X104513095Y-65729190D01*
X103159761Y-66229190D02*
X102993095Y-65991095D01*
X102874047Y-66229190D02*
X102874047Y-65729190D01*
X103064523Y-65729190D01*
X103112142Y-65753000D01*
X103135952Y-65776809D01*
X103159761Y-65824428D01*
X103159761Y-65895857D01*
X103135952Y-65943476D01*
X103112142Y-65967285D01*
X103064523Y-65991095D01*
X102874047Y-65991095D01*
X101354047Y-66999190D02*
X101663571Y-66999190D01*
X101496904Y-67189666D01*
X101568333Y-67189666D01*
X101615952Y-67213476D01*
X101639761Y-67237285D01*
X101663571Y-67284904D01*
X101663571Y-67403952D01*
X101639761Y-67451571D01*
X101615952Y-67475380D01*
X101568333Y-67499190D01*
X101425476Y-67499190D01*
X101377857Y-67475380D01*
X101354047Y-67451571D01*
X101806428Y-66999190D02*
X101973095Y-67499190D01*
X102139761Y-66999190D01*
X101865952Y-65753000D02*
X101818333Y-65729190D01*
X101746904Y-65729190D01*
X101675476Y-65753000D01*
X101627857Y-65800619D01*
X101604047Y-65848238D01*
X101580238Y-65943476D01*
X101580238Y-66014904D01*
X101604047Y-66110142D01*
X101627857Y-66157761D01*
X101675476Y-66205380D01*
X101746904Y-66229190D01*
X101794523Y-66229190D01*
X101865952Y-66205380D01*
X101889761Y-66181571D01*
X101889761Y-66014904D01*
X101794523Y-66014904D01*
D11*
X107450000Y-65368000D02*
X107450000Y-67908000D01*
X106180000Y-65368000D02*
X106180000Y-67908000D01*
X104910000Y-65368000D02*
X104910000Y-67908000D01*
X103640000Y-65368000D02*
X103640000Y-67908000D01*
X102370000Y-65368000D02*
X102370000Y-67908000D01*
X107450000Y-65368000D02*
X101100000Y-65368000D01*
X101100000Y-65368000D02*
X101100000Y-67908000D01*
X107450000Y-66638000D02*
X101100000Y-66638000D01*
X107450000Y-67908000D02*
X101100000Y-67908000D01*
%TO.C,Y1*%
X66775000Y-68240000D02*
G75*
G03*
X71825000Y-68240000I2525000J0D01*
G01*
X66775000Y-61840000D02*
G75*
G02*
X71825000Y-61840000I2525000J0D01*
G01*
X71825000Y-61840000D02*
X71825000Y-68240000D01*
X66775000Y-61840000D02*
X66775000Y-68240000D01*
%TO.C,C4*%
X66335000Y-70420000D02*
X66335000Y-68135000D01*
X66335000Y-68135000D02*
X64865000Y-68135000D01*
X64865000Y-68135000D02*
X64865000Y-70420000D01*
%TO.C,C2*%
X64865000Y-59700000D02*
X64865000Y-61985000D01*
X64865000Y-61985000D02*
X66335000Y-61985000D01*
X66335000Y-61985000D02*
X66335000Y-59700000D01*
%TO.C,J5*%
X114510000Y-72790000D02*
X108540000Y-72790000D01*
X108540000Y-72790000D02*
X108540000Y-85410000D01*
X108540000Y-85410000D02*
X114510000Y-85410000D01*
X114510000Y-85410000D02*
X114510000Y-72790000D01*
X114500000Y-76100000D02*
X113750000Y-76100000D01*
X113750000Y-76100000D02*
X113750000Y-82100000D01*
X113750000Y-82100000D02*
X114500000Y-82100000D01*
X114500000Y-82100000D02*
X114500000Y-76100000D01*
X114500000Y-72800000D02*
X113750000Y-72800000D01*
X113750000Y-72800000D02*
X113750000Y-74600000D01*
X113750000Y-74600000D02*
X114500000Y-74600000D01*
X114500000Y-74600000D02*
X114500000Y-72800000D01*
X114500000Y-83600000D02*
X113750000Y-83600000D01*
X113750000Y-83600000D02*
X113750000Y-85400000D01*
X113750000Y-85400000D02*
X114500000Y-85400000D01*
X114500000Y-85400000D02*
X114500000Y-83600000D01*
X112250000Y-72800000D02*
X112250000Y-73550000D01*
X112250000Y-73550000D02*
X109300000Y-73550000D01*
X109300000Y-73550000D02*
X109300000Y-79100000D01*
X112250000Y-85400000D02*
X112250000Y-84650000D01*
X112250000Y-84650000D02*
X109300000Y-84650000D01*
X109300000Y-84650000D02*
X109300000Y-79100000D01*
X114800000Y-73750000D02*
X114800000Y-72500000D01*
X114800000Y-72500000D02*
X113550000Y-72500000D01*
%TO.C,D4*%
X99500000Y-89365000D02*
X97215000Y-89365000D01*
X97215000Y-89365000D02*
X97215000Y-90835000D01*
X97215000Y-90835000D02*
X99500000Y-90835000D01*
%TO.C,R1*%
X77662742Y-54127500D02*
X78137258Y-54127500D01*
X77662742Y-55172500D02*
X78137258Y-55172500D01*
%TO.C,R6*%
X66722500Y-50162742D02*
X66722500Y-50637258D01*
X65677500Y-50162742D02*
X65677500Y-50637258D01*
%TO.C,R5*%
X76922500Y-49962742D02*
X76922500Y-50437258D01*
X75877500Y-49962742D02*
X75877500Y-50437258D01*
%TO.C,R8*%
X72322500Y-50062742D02*
X72322500Y-50537258D01*
X71277500Y-50062742D02*
X71277500Y-50537258D01*
%TO.C,R7*%
X82322500Y-50162742D02*
X82322500Y-50637258D01*
X81277500Y-50162742D02*
X81277500Y-50637258D01*
%TO.C,R4*%
X98937258Y-88922500D02*
X98462742Y-88922500D01*
X98937258Y-87877500D02*
X98462742Y-87877500D01*
%TO.C,R3*%
X56537258Y-82722500D02*
X56062742Y-82722500D01*
X56537258Y-81677500D02*
X56062742Y-81677500D01*
%TO.C,R2*%
X102062742Y-86777500D02*
X102537258Y-86777500D01*
X102062742Y-87822500D02*
X102537258Y-87822500D01*
%TO.C,D3*%
X53300000Y-81465000D02*
X51015000Y-81465000D01*
X51015000Y-81465000D02*
X51015000Y-82935000D01*
X51015000Y-82935000D02*
X53300000Y-82935000D01*
%TO.C,D2*%
X104800000Y-88035000D02*
X107085000Y-88035000D01*
X107085000Y-88035000D02*
X107085000Y-86565000D01*
X107085000Y-86565000D02*
X104800000Y-86565000D01*
%TO.C,J12*%
X101570000Y-64330000D02*
X101570000Y-63000000D01*
X102900000Y-64330000D02*
X101570000Y-64330000D01*
X101570000Y-61730000D02*
X101570000Y-59130000D01*
X104170000Y-61730000D02*
X101570000Y-61730000D01*
X104170000Y-64330000D02*
X104170000Y-61730000D01*
X101570000Y-59130000D02*
X114390000Y-59130000D01*
X104170000Y-64330000D02*
X114390000Y-64330000D01*
X114390000Y-64330000D02*
X114390000Y-59130000D01*
%TO.C,SW1*%
X112229563Y-89000000D02*
G75*
G03*
X112229563Y-89000000I-1029563J0D01*
G01*
X112700000Y-89000000D02*
G75*
G03*
X112700000Y-89000000I-1500000J0D01*
G01*
X114900000Y-91600000D02*
X107500000Y-91600000D01*
X107500000Y-91600000D02*
X107500000Y-86400000D01*
X107500000Y-86400000D02*
X114900000Y-86400000D01*
X114900000Y-86400000D02*
X114900000Y-91600000D01*
%TO.C,C6*%
X87688748Y-62810000D02*
X89111252Y-62810000D01*
X87688748Y-60990000D02*
X89111252Y-60990000D01*
%TO.C,C3*%
X72688748Y-54410000D02*
X74111252Y-54410000D01*
X72688748Y-52590000D02*
X74111252Y-52590000D01*
%TO.C,Q3*%
X69860000Y-51880000D02*
X69860000Y-50950000D01*
X69860000Y-48720000D02*
X69860000Y-49650000D01*
X69860000Y-48720000D02*
X67700000Y-48720000D01*
X69860000Y-51880000D02*
X68400000Y-51880000D01*
%TO.C,C8*%
X84810000Y-85990000D02*
X83610000Y-85990000D01*
X80290000Y-85990000D02*
X81490000Y-85990000D01*
X80290000Y-89445563D02*
X80290000Y-85990000D01*
X84810000Y-89445563D02*
X84810000Y-85990000D01*
X83745563Y-90510000D02*
X83610000Y-90510000D01*
X81354437Y-90510000D02*
X81490000Y-90510000D01*
X81354437Y-90510000D02*
X80290000Y-89445563D01*
X83745563Y-90510000D02*
X84810000Y-89445563D01*
X80990000Y-91250000D02*
X80990000Y-90750000D01*
X80740000Y-91000000D02*
X81240000Y-91000000D01*
%TO.C,C5*%
X58790000Y-84160000D02*
X61140000Y-84160000D01*
X65610000Y-84160000D02*
X63260000Y-84160000D01*
X65610000Y-78404437D02*
X65610000Y-84160000D01*
X58790000Y-78404437D02*
X58790000Y-84160000D01*
X59854437Y-77340000D02*
X61140000Y-77340000D01*
X64545563Y-77340000D02*
X63260000Y-77340000D01*
X64545563Y-77340000D02*
X65610000Y-78404437D01*
X59854437Y-77340000D02*
X58790000Y-78404437D01*
X64047500Y-76312500D02*
X64047500Y-77100000D01*
X64441250Y-76706250D02*
X63653750Y-76706250D01*
%TO.C,C1*%
X66290000Y-97540000D02*
X66290000Y-99890000D01*
X66290000Y-104360000D02*
X66290000Y-102010000D01*
X72045563Y-104360000D02*
X66290000Y-104360000D01*
X72045563Y-97540000D02*
X66290000Y-97540000D01*
X73110000Y-98604437D02*
X73110000Y-99890000D01*
X73110000Y-103295563D02*
X73110000Y-102010000D01*
X73110000Y-103295563D02*
X72045563Y-104360000D01*
X73110000Y-98604437D02*
X72045563Y-97540000D01*
X74137500Y-102797500D02*
X73350000Y-102797500D01*
X73743750Y-103191250D02*
X73743750Y-102403750D01*
%TO.C,L1*%
X78550000Y-84900000D02*
X66550000Y-84900000D01*
X78550000Y-72900000D02*
X78550000Y-84900000D01*
X66550000Y-72900000D02*
X78550000Y-72900000D01*
X66550000Y-84900000D02*
X66550000Y-72900000D01*
%TO.C,Q2*%
X79760000Y-51830000D02*
X79760000Y-50900000D01*
X79760000Y-48670000D02*
X79760000Y-49600000D01*
X79760000Y-48670000D02*
X77600000Y-48670000D01*
X79760000Y-51830000D02*
X78300000Y-51830000D01*
%TO.C,J3*%
X106630000Y-85780000D02*
X105300000Y-85780000D01*
X106630000Y-84450000D02*
X106630000Y-85780000D01*
X104030000Y-85780000D02*
X101430000Y-85780000D01*
X104030000Y-83180000D02*
X104030000Y-85780000D01*
X106630000Y-83180000D02*
X104030000Y-83180000D01*
X101430000Y-85780000D02*
X101430000Y-78040000D01*
X106630000Y-83180000D02*
X106630000Y-78040000D01*
X106630000Y-78040000D02*
X101430000Y-78040000D01*
%TO.C,J4*%
X62120000Y-64720000D02*
X60850000Y-64720000D01*
X62120000Y-63450000D02*
X62120000Y-64720000D01*
X59807071Y-50370000D02*
X59410000Y-50370000D01*
X59807071Y-51130000D02*
X59410000Y-51130000D01*
X50750000Y-50370000D02*
X56750000Y-50370000D01*
X50750000Y-51130000D02*
X50750000Y-50370000D01*
X56750000Y-51130000D02*
X50750000Y-51130000D01*
X59410000Y-52020000D02*
X56750000Y-52020000D01*
X59807071Y-52910000D02*
X59410000Y-52910000D01*
X59807071Y-53670000D02*
X59410000Y-53670000D01*
X50750000Y-52910000D02*
X56750000Y-52910000D01*
X50750000Y-53670000D02*
X50750000Y-52910000D01*
X56750000Y-53670000D02*
X50750000Y-53670000D01*
X59410000Y-54560000D02*
X56750000Y-54560000D01*
X59807071Y-55450000D02*
X59410000Y-55450000D01*
X59807071Y-56210000D02*
X59410000Y-56210000D01*
X50750000Y-55450000D02*
X56750000Y-55450000D01*
X50750000Y-56210000D02*
X50750000Y-55450000D01*
X56750000Y-56210000D02*
X50750000Y-56210000D01*
X59410000Y-57100000D02*
X56750000Y-57100000D01*
X59807071Y-57990000D02*
X59410000Y-57990000D01*
X59807071Y-58750000D02*
X59410000Y-58750000D01*
X50750000Y-57990000D02*
X56750000Y-57990000D01*
X50750000Y-58750000D02*
X50750000Y-57990000D01*
X56750000Y-58750000D02*
X50750000Y-58750000D01*
X59410000Y-59640000D02*
X56750000Y-59640000D01*
X59807071Y-60530000D02*
X59410000Y-60530000D01*
X59807071Y-61290000D02*
X59410000Y-61290000D01*
X50750000Y-60530000D02*
X56750000Y-60530000D01*
X50750000Y-61290000D02*
X50750000Y-60530000D01*
X56750000Y-61290000D02*
X50750000Y-61290000D01*
X59410000Y-62180000D02*
X56750000Y-62180000D01*
X59740000Y-63070000D02*
X59410000Y-63070000D01*
X59740000Y-63830000D02*
X59410000Y-63830000D01*
X56750000Y-63170000D02*
X50750000Y-63170000D01*
X56750000Y-63290000D02*
X50750000Y-63290000D01*
X56750000Y-63410000D02*
X50750000Y-63410000D01*
X56750000Y-63530000D02*
X50750000Y-63530000D01*
X56750000Y-63650000D02*
X50750000Y-63650000D01*
X56750000Y-63770000D02*
X50750000Y-63770000D01*
X50750000Y-63070000D02*
X56750000Y-63070000D01*
X50750000Y-63830000D02*
X50750000Y-63070000D01*
X56750000Y-63830000D02*
X50750000Y-63830000D01*
X56750000Y-64780000D02*
X59410000Y-64780000D01*
X56750000Y-49420000D02*
X56750000Y-64780000D01*
X59410000Y-49420000D02*
X56750000Y-49420000D01*
X59410000Y-64780000D02*
X59410000Y-49420000D01*
D12*
%TO.C,U1*%
X75925000Y-59050000D02*
X74500000Y-59050000D01*
X83175000Y-58825000D02*
X82850000Y-58825000D01*
X83175000Y-66075000D02*
X82850000Y-66075000D01*
X75925000Y-66075000D02*
X76250000Y-66075000D01*
X75925000Y-58825000D02*
X76250000Y-58825000D01*
X75925000Y-66075000D02*
X75925000Y-65750000D01*
X83175000Y-66075000D02*
X83175000Y-65750000D01*
X83175000Y-58825000D02*
X83175000Y-59150000D01*
X75925000Y-58825000D02*
X75925000Y-59050000D01*
D11*
%TO.C,Q1*%
X62140000Y-97670000D02*
X62140000Y-98600000D01*
X62140000Y-100830000D02*
X62140000Y-99900000D01*
X62140000Y-100830000D02*
X64300000Y-100830000D01*
X62140000Y-97670000D02*
X63600000Y-97670000D01*
%TO.C,D1*%
X77750000Y-92000000D02*
X77650000Y-92000000D01*
X77750000Y-91800000D02*
X77750000Y-92000000D01*
X76750000Y-91600000D02*
X76850000Y-91600000D01*
X76750000Y-91800000D02*
X76750000Y-91600000D01*
X77750000Y-91100000D02*
X77250000Y-91800000D01*
X76750000Y-91100000D02*
X77650000Y-91100000D01*
X77750000Y-91100000D02*
X76750000Y-91100000D01*
X77250000Y-91800000D02*
X76750000Y-91100000D01*
X76750000Y-91800000D02*
X77750000Y-91800000D01*
X77250000Y-90400000D02*
X77250000Y-92200000D01*
D13*
X77391421Y-95000000D02*
G75*
G03*
X77391421Y-95000000I-141421J0D01*
G01*
D11*
%TO.C,C11*%
X86010000Y-83911252D02*
X86010000Y-82488748D01*
X84190000Y-83911252D02*
X84190000Y-82488748D01*
%TO.C,C10*%
X95390000Y-93788748D02*
X95390000Y-95211252D01*
X97210000Y-93788748D02*
X97210000Y-95211252D01*
%TO.C,C9*%
X86988748Y-95910000D02*
X88411252Y-95910000D01*
X86988748Y-94090000D02*
X88411252Y-94090000D01*
%TO.C,C7*%
X95990000Y-83988748D02*
X95990000Y-85411252D01*
X97810000Y-83988748D02*
X97810000Y-85411252D01*
%TO.C,J10*%
X114855000Y-57160000D02*
X106225000Y-57160000D01*
X114855000Y-57041905D02*
X106225000Y-57041905D01*
X114855000Y-56923810D02*
X106225000Y-56923810D01*
X114855000Y-56805715D02*
X106225000Y-56805715D01*
X114855000Y-56687620D02*
X106225000Y-56687620D01*
X114855000Y-56569525D02*
X106225000Y-56569525D01*
X114855000Y-56451430D02*
X106225000Y-56451430D01*
X114855000Y-56333335D02*
X106225000Y-56333335D01*
X114855000Y-56215240D02*
X106225000Y-56215240D01*
X114855000Y-56097145D02*
X106225000Y-56097145D01*
X114855000Y-55979050D02*
X106225000Y-55979050D01*
X114855000Y-55860955D02*
X106225000Y-55860955D01*
X114855000Y-55742860D02*
X106225000Y-55742860D01*
X114855000Y-55624765D02*
X106225000Y-55624765D01*
X114855000Y-55506670D02*
X106225000Y-55506670D01*
X114855000Y-55388575D02*
X106225000Y-55388575D01*
X114855000Y-55270480D02*
X106225000Y-55270480D01*
X114855000Y-55152385D02*
X106225000Y-55152385D01*
X114855000Y-55034290D02*
X106225000Y-55034290D01*
X114855000Y-54916195D02*
X106225000Y-54916195D01*
X114855000Y-54798100D02*
X106225000Y-54798100D01*
X106225000Y-56310000D02*
X105815000Y-56310000D01*
X103715000Y-56310000D02*
X103335000Y-56310000D01*
X106225000Y-55590000D02*
X105815000Y-55590000D01*
X103715000Y-55590000D02*
X103335000Y-55590000D01*
X106225000Y-53770000D02*
X105815000Y-53770000D01*
X103715000Y-53770000D02*
X103275000Y-53770000D01*
X106225000Y-53050000D02*
X105815000Y-53050000D01*
X103715000Y-53050000D02*
X103275000Y-53050000D01*
X106225000Y-51230000D02*
X105815000Y-51230000D01*
X103715000Y-51230000D02*
X103275000Y-51230000D01*
X106225000Y-50510000D02*
X105815000Y-50510000D01*
X103715000Y-50510000D02*
X103275000Y-50510000D01*
X114855000Y-54680000D02*
X106225000Y-54680000D01*
X114855000Y-52140000D02*
X106225000Y-52140000D01*
X114855000Y-57280000D02*
X106225000Y-57280000D01*
X106225000Y-57280000D02*
X106225000Y-49540000D01*
X114855000Y-49540000D02*
X106225000Y-49540000D01*
X114855000Y-57280000D02*
X114855000Y-49540000D01*
X101115000Y-57280000D02*
X101115000Y-55950000D01*
X102225000Y-57280000D02*
X101115000Y-57280000D01*
%TO.C,J2*%
X51340000Y-80460000D02*
X57310000Y-80460000D01*
X57310000Y-80460000D02*
X57310000Y-72840000D01*
X57310000Y-72840000D02*
X51340000Y-72840000D01*
X51340000Y-72840000D02*
X51340000Y-80460000D01*
X51350000Y-77150000D02*
X52100000Y-77150000D01*
X52100000Y-77150000D02*
X52100000Y-76150000D01*
X52100000Y-76150000D02*
X51350000Y-76150000D01*
X51350000Y-76150000D02*
X51350000Y-77150000D01*
X51350000Y-80450000D02*
X52100000Y-80450000D01*
X52100000Y-80450000D02*
X52100000Y-78650000D01*
X52100000Y-78650000D02*
X51350000Y-78650000D01*
X51350000Y-78650000D02*
X51350000Y-80450000D01*
X51350000Y-74650000D02*
X52100000Y-74650000D01*
X52100000Y-74650000D02*
X52100000Y-72850000D01*
X52100000Y-72850000D02*
X51350000Y-72850000D01*
X51350000Y-72850000D02*
X51350000Y-74650000D01*
X53600000Y-80450000D02*
X53600000Y-79700000D01*
X53600000Y-79700000D02*
X56550000Y-79700000D01*
X56550000Y-79700000D02*
X56550000Y-76650000D01*
X53600000Y-72850000D02*
X53600000Y-73600000D01*
X53600000Y-73600000D02*
X56550000Y-73600000D01*
X56550000Y-73600000D02*
X56550000Y-76650000D01*
X51050000Y-79500000D02*
X51050000Y-80750000D01*
X51050000Y-80750000D02*
X52300000Y-80750000D01*
%TO.C,U2*%
X68350000Y-87250000D02*
X69450000Y-87250000D01*
X68350000Y-86300000D02*
X68350000Y-87250000D01*
X66850000Y-86300000D02*
X68350000Y-86300000D01*
X68350000Y-95750000D02*
X73475000Y-95750000D01*
X68350000Y-96700000D02*
X68350000Y-95750000D01*
X66850000Y-96700000D02*
X68350000Y-96700000D01*
D12*
%TO.C,U3*%
X86900000Y-90075000D02*
X86900000Y-91675000D01*
X95325000Y-90075000D02*
X95325000Y-84325000D01*
X86675000Y-90075000D02*
X86675000Y-84325000D01*
X95325000Y-90075000D02*
X95025000Y-90075000D01*
X95325000Y-84325000D02*
X95025000Y-84325000D01*
X86675000Y-84325000D02*
X86975000Y-84325000D01*
X86675000Y-90075000D02*
X86900000Y-90075000D01*
D11*
%TO.C,J9*%
X113700000Y-104500000D02*
X113700000Y-103250000D01*
X112450000Y-104500000D02*
X113700000Y-104500000D01*
X106550000Y-99000000D02*
X109600000Y-99000000D01*
X106550000Y-101950000D02*
X106550000Y-99000000D01*
X105800000Y-101950000D02*
X106550000Y-101950000D01*
X112650000Y-99000000D02*
X109600000Y-99000000D01*
X112650000Y-101950000D02*
X112650000Y-99000000D01*
X113400000Y-101950000D02*
X112650000Y-101950000D01*
X105800000Y-104200000D02*
X107600000Y-104200000D01*
X105800000Y-103450000D02*
X105800000Y-104200000D01*
X107600000Y-103450000D02*
X105800000Y-103450000D01*
X107600000Y-104200000D02*
X107600000Y-103450000D01*
X111600000Y-104200000D02*
X113400000Y-104200000D01*
X111600000Y-103450000D02*
X111600000Y-104200000D01*
X113400000Y-103450000D02*
X111600000Y-103450000D01*
X113400000Y-104200000D02*
X113400000Y-103450000D01*
X109100000Y-104200000D02*
X110100000Y-104200000D01*
X109100000Y-103450000D02*
X109100000Y-104200000D01*
X110100000Y-103450000D02*
X109100000Y-103450000D01*
X110100000Y-104200000D02*
X110100000Y-103450000D01*
X105790000Y-104210000D02*
X113410000Y-104210000D01*
X105790000Y-98240000D02*
X105790000Y-104210000D01*
X113410000Y-98240000D02*
X105790000Y-98240000D01*
X113410000Y-104210000D02*
X113410000Y-98240000D01*
%TO.C,J8*%
X83050000Y-104500000D02*
X83050000Y-103250000D01*
X81800000Y-104500000D02*
X83050000Y-104500000D01*
X75900000Y-99000000D02*
X78950000Y-99000000D01*
X75900000Y-101950000D02*
X75900000Y-99000000D01*
X75150000Y-101950000D02*
X75900000Y-101950000D01*
X82000000Y-99000000D02*
X78950000Y-99000000D01*
X82000000Y-101950000D02*
X82000000Y-99000000D01*
X82750000Y-101950000D02*
X82000000Y-101950000D01*
X75150000Y-104200000D02*
X76950000Y-104200000D01*
X75150000Y-103450000D02*
X75150000Y-104200000D01*
X76950000Y-103450000D02*
X75150000Y-103450000D01*
X76950000Y-104200000D02*
X76950000Y-103450000D01*
X80950000Y-104200000D02*
X82750000Y-104200000D01*
X80950000Y-103450000D02*
X80950000Y-104200000D01*
X82750000Y-103450000D02*
X80950000Y-103450000D01*
X82750000Y-104200000D02*
X82750000Y-103450000D01*
X78450000Y-104200000D02*
X79450000Y-104200000D01*
X78450000Y-103450000D02*
X78450000Y-104200000D01*
X79450000Y-103450000D02*
X78450000Y-103450000D01*
X79450000Y-104200000D02*
X79450000Y-103450000D01*
X75140000Y-104210000D02*
X82760000Y-104210000D01*
X75140000Y-98240000D02*
X75140000Y-104210000D01*
X82760000Y-98240000D02*
X75140000Y-98240000D01*
X82760000Y-104210000D02*
X82760000Y-98240000D01*
%TO.C,J7*%
X105150000Y-104500000D02*
X105150000Y-103250000D01*
X103900000Y-104500000D02*
X105150000Y-104500000D01*
X95500000Y-99000000D02*
X99800000Y-99000000D01*
X95500000Y-101950000D02*
X95500000Y-99000000D01*
X94750000Y-101950000D02*
X95500000Y-101950000D01*
X104100000Y-99000000D02*
X99800000Y-99000000D01*
X104100000Y-101950000D02*
X104100000Y-99000000D01*
X104850000Y-101950000D02*
X104100000Y-101950000D01*
X94750000Y-104200000D02*
X96550000Y-104200000D01*
X94750000Y-103450000D02*
X94750000Y-104200000D01*
X96550000Y-103450000D02*
X94750000Y-103450000D01*
X96550000Y-104200000D02*
X96550000Y-103450000D01*
X103050000Y-104200000D02*
X104850000Y-104200000D01*
X103050000Y-103450000D02*
X103050000Y-104200000D01*
X104850000Y-103450000D02*
X103050000Y-103450000D01*
X104850000Y-104200000D02*
X104850000Y-103450000D01*
X98050000Y-104200000D02*
X101550000Y-104200000D01*
X98050000Y-103450000D02*
X98050000Y-104200000D01*
X101550000Y-103450000D02*
X98050000Y-103450000D01*
X101550000Y-104200000D02*
X101550000Y-103450000D01*
X94740000Y-104210000D02*
X104860000Y-104210000D01*
X94740000Y-98240000D02*
X94740000Y-104210000D01*
X104860000Y-98240000D02*
X94740000Y-98240000D01*
X104860000Y-104210000D02*
X104860000Y-98240000D01*
%TO.C,J6*%
X94100000Y-104500000D02*
X94100000Y-103250000D01*
X92850000Y-104500000D02*
X94100000Y-104500000D01*
X84450000Y-99000000D02*
X88750000Y-99000000D01*
X84450000Y-101950000D02*
X84450000Y-99000000D01*
X83700000Y-101950000D02*
X84450000Y-101950000D01*
X93050000Y-99000000D02*
X88750000Y-99000000D01*
X93050000Y-101950000D02*
X93050000Y-99000000D01*
X93800000Y-101950000D02*
X93050000Y-101950000D01*
X83700000Y-104200000D02*
X85500000Y-104200000D01*
X83700000Y-103450000D02*
X83700000Y-104200000D01*
X85500000Y-103450000D02*
X83700000Y-103450000D01*
X85500000Y-104200000D02*
X85500000Y-103450000D01*
X92000000Y-104200000D02*
X93800000Y-104200000D01*
X92000000Y-103450000D02*
X92000000Y-104200000D01*
X93800000Y-103450000D02*
X92000000Y-103450000D01*
X93800000Y-104200000D02*
X93800000Y-103450000D01*
X87000000Y-104200000D02*
X90500000Y-104200000D01*
X87000000Y-103450000D02*
X87000000Y-104200000D01*
X90500000Y-103450000D02*
X87000000Y-103450000D01*
X90500000Y-104200000D02*
X90500000Y-103450000D01*
X83690000Y-104210000D02*
X93810000Y-104210000D01*
X83690000Y-98240000D02*
X83690000Y-104210000D01*
X93810000Y-98240000D02*
X83690000Y-98240000D01*
X93810000Y-104210000D02*
X93810000Y-98240000D01*
%TO.C,J1*%
X60550000Y-104450000D02*
X60550000Y-103200000D01*
X59300000Y-104450000D02*
X60550000Y-104450000D01*
X53400000Y-98950000D02*
X56450000Y-98950000D01*
X53400000Y-101900000D02*
X53400000Y-98950000D01*
X52650000Y-101900000D02*
X53400000Y-101900000D01*
X59500000Y-98950000D02*
X56450000Y-98950000D01*
X59500000Y-101900000D02*
X59500000Y-98950000D01*
X60250000Y-101900000D02*
X59500000Y-101900000D01*
X52650000Y-104150000D02*
X54450000Y-104150000D01*
X52650000Y-103400000D02*
X52650000Y-104150000D01*
X54450000Y-103400000D02*
X52650000Y-103400000D01*
X54450000Y-104150000D02*
X54450000Y-103400000D01*
X58450000Y-104150000D02*
X60250000Y-104150000D01*
X58450000Y-103400000D02*
X58450000Y-104150000D01*
X60250000Y-103400000D02*
X58450000Y-103400000D01*
X60250000Y-104150000D02*
X60250000Y-103400000D01*
X55950000Y-104150000D02*
X56950000Y-104150000D01*
X55950000Y-103400000D02*
X55950000Y-104150000D01*
X56950000Y-103400000D02*
X55950000Y-103400000D01*
X56950000Y-104150000D02*
X56950000Y-103400000D01*
X52640000Y-104160000D02*
X60260000Y-104160000D01*
X52640000Y-98190000D02*
X52640000Y-104160000D01*
X60260000Y-98190000D02*
X52640000Y-98190000D01*
X60260000Y-104160000D02*
X60260000Y-98190000D01*
%TD*%
M02*
