%FSLAX45Y45*%
G04 Gerber Fmt 4.5, Leading zero omitted, Abs format (unit mm)*
G04 Created by KiCad (PCBNEW 5.1.10) date 2021-11-02 21:36:12*
%MOMM*%
%LPD*%
G01*
G04 APERTURE LIST*
%TA.AperFunction,Profile*%
%ADD10C,0.050000*%
%TD*%
%ADD11C,0.200000*%
%ADD12C,0.300000*%
G04 APERTURE END LIST*
D10*
X11530000Y-6850000D02*
X11530000Y-10200000D01*
X5030000Y-6850000D02*
X5030000Y-10200000D01*
X11530000Y-10200000D02*
G75*
G02*
X11180000Y-10550000I-350000J0D01*
G01*
X5380000Y-10550000D02*
G75*
G02*
X5030000Y-10200000I0J350000D01*
G01*
X5030000Y-4550000D02*
G75*
G02*
X5380000Y-4200000I350000J0D01*
G01*
X11180000Y-4200000D02*
G75*
G02*
X11530000Y-4550000I0J-350000D01*
G01*
X11530000Y-6850000D02*
X11530000Y-4550000D01*
X5380000Y-10550000D02*
X11180000Y-10550000D01*
X5030000Y-4550000D02*
X5030000Y-6850000D01*
X5380000Y-4200000D02*
X11180000Y-4200000D01*
D11*
X5490000Y-8615000D02*
X5530000Y-8655000D01*
X5530000Y-8615000D02*
X5490000Y-8655000D01*
X5490000Y-8955000D02*
X5530000Y-8995000D01*
X5530000Y-8955000D02*
X5490000Y-8995000D01*
X6425000Y-4815000D02*
X6465000Y-4855000D01*
X6465000Y-4815000D02*
X6425000Y-4855000D01*
X6650000Y-5475000D02*
X6690000Y-5515000D01*
X6690000Y-5475000D02*
X6650000Y-5515000D01*
X7265000Y-5735000D02*
X7305000Y-5775000D01*
X7305000Y-5735000D02*
X7265000Y-5775000D01*
X7265000Y-5880000D02*
X7305000Y-5920000D01*
X7305000Y-5880000D02*
X7265000Y-5920000D01*
X7265000Y-6025000D02*
X7305000Y-6065000D01*
X7305000Y-6025000D02*
X7265000Y-6065000D01*
X7355000Y-4925000D02*
X7395000Y-4965000D01*
X7395000Y-4925000D02*
X7355000Y-4965000D01*
X7692499Y-6265000D02*
X7732499Y-6305000D01*
X7732499Y-6265000D02*
X7692499Y-6305000D01*
X7695000Y-6105000D02*
X7735000Y-6145000D01*
X7735000Y-6105000D02*
X7695000Y-6145000D01*
X7805000Y-6425000D02*
X7845000Y-6465000D01*
X7845000Y-6425000D02*
X7805000Y-6465000D01*
X7895000Y-5625000D02*
X7935000Y-5665000D01*
X7935000Y-5625000D02*
X7895000Y-5665000D01*
X8060000Y-6345000D02*
X8100000Y-6385000D01*
X8100000Y-6345000D02*
X8060000Y-6385000D01*
X8100000Y-5275000D02*
X8140000Y-5315000D01*
X8140000Y-5275000D02*
X8100000Y-5315000D01*
X8155000Y-5990000D02*
X8195000Y-6030000D01*
X8195000Y-5990000D02*
X8155000Y-6030000D01*
X8345000Y-4925000D02*
X8385000Y-4965000D01*
X8385000Y-4925000D02*
X8345000Y-4965000D01*
X8420000Y-5390000D02*
X8460000Y-5430000D01*
X8460000Y-5390000D02*
X8420000Y-5430000D01*
X8471234Y-5803766D02*
X8511234Y-5843766D01*
X8511234Y-5803766D02*
X8471234Y-5843766D01*
X8540001Y-6025000D02*
X8580001Y-6065000D01*
X8580001Y-6025000D02*
X8540001Y-6065000D01*
X8592500Y-5792500D02*
X8632500Y-5832500D01*
X8632500Y-5792500D02*
X8592500Y-5832500D01*
X8730000Y-5950000D02*
X8770000Y-5990000D01*
X8770000Y-5950000D02*
X8730000Y-5990000D01*
X8935000Y-7730000D02*
X8975000Y-7770000D01*
X8975000Y-7730000D02*
X8935000Y-7770000D01*
X8995000Y-8062500D02*
X9035000Y-8102500D01*
X9035000Y-8062500D02*
X8995000Y-8102500D01*
X9085000Y-7945000D02*
X9125000Y-7985000D01*
X9125000Y-7945000D02*
X9085000Y-7985000D01*
X9112500Y-8532500D02*
X9152500Y-8572500D01*
X9152500Y-8532500D02*
X9112500Y-8572500D01*
X9440000Y-8060000D02*
X9480000Y-8100000D01*
X9480000Y-8060000D02*
X9440000Y-8100000D01*
X9530000Y-8847500D02*
X9570000Y-8887500D01*
X9570000Y-8847500D02*
X9530000Y-8887500D01*
X10335000Y-7250000D02*
X10375000Y-7290000D01*
X10375000Y-7250000D02*
X10335000Y-7290000D01*
X8672500Y-10175000D02*
G75*
G03*
X8672500Y-10175000I-47500J0D01*
G01*
X8922500Y-10175000D02*
G75*
G03*
X8922500Y-10175000I-47500J0D01*
G01*
X9172500Y-10175000D02*
G75*
G03*
X9172500Y-10175000I-47500J0D01*
G01*
X9777500Y-10175000D02*
G75*
G03*
X9777500Y-10175000I-47500J0D01*
G01*
X10027500Y-10175000D02*
G75*
G03*
X10027500Y-10175000I-47500J0D01*
G01*
X10277500Y-10175000D02*
G75*
G03*
X10277500Y-10175000I-47500J0D01*
G01*
X11252500Y-7535000D02*
G75*
G03*
X11252500Y-7535000I-47500J0D01*
G01*
X11252500Y-7785000D02*
G75*
G03*
X11252500Y-7785000I-47500J0D01*
G01*
X11252500Y-8035000D02*
G75*
G03*
X11252500Y-8035000I-47500J0D01*
G01*
X11252500Y-8285000D02*
G75*
G03*
X11252500Y-8285000I-47500J0D01*
G01*
X5380000Y-7490000D02*
X5380000Y-7590000D01*
X5330000Y-7540000D02*
X5430000Y-7540000D01*
X5380000Y-7740000D02*
X5380000Y-7840000D01*
X5330000Y-7790000D02*
X5430000Y-7790000D01*
X5520000Y-10120000D02*
X5520000Y-10220000D01*
X5470000Y-10170000D02*
X5570000Y-10170000D01*
X5770000Y-10120000D02*
X5770000Y-10220000D01*
X5720000Y-10170000D02*
X5820000Y-10170000D01*
X5870000Y-4376000D02*
X5870000Y-4476000D01*
X5820000Y-4426000D02*
X5920000Y-4426000D01*
X5870000Y-4630000D02*
X5870000Y-4730000D01*
X5820000Y-4680000D02*
X5920000Y-4680000D01*
X6085000Y-5025000D02*
X6085000Y-5125000D01*
X6035000Y-5075000D02*
X6135000Y-5075000D01*
X6085000Y-5279000D02*
X6085000Y-5379000D01*
X6035000Y-5329000D02*
X6135000Y-5329000D01*
X6085000Y-5533000D02*
X6085000Y-5633000D01*
X6035000Y-5583000D02*
X6135000Y-5583000D01*
X6085000Y-5787000D02*
X6085000Y-5887000D01*
X6035000Y-5837000D02*
X6135000Y-5837000D01*
X6085000Y-6041000D02*
X6085000Y-6141000D01*
X6035000Y-6091000D02*
X6135000Y-6091000D01*
X6085000Y-6295000D02*
X6085000Y-6395000D01*
X6035000Y-6345000D02*
X6135000Y-6345000D01*
X6124000Y-4376000D02*
X6124000Y-4476000D01*
X6074000Y-4426000D02*
X6174000Y-4426000D01*
X6124000Y-4630000D02*
X6124000Y-4730000D01*
X6074000Y-4680000D02*
X6174000Y-4680000D01*
X6378000Y-4376000D02*
X6378000Y-4476000D01*
X6328000Y-4426000D02*
X6428000Y-4426000D01*
X6378000Y-4630000D02*
X6378000Y-4730000D01*
X6328000Y-4680000D02*
X6428000Y-4680000D01*
X6632000Y-4376000D02*
X6632000Y-4476000D01*
X6582000Y-4426000D02*
X6682000Y-4426000D01*
X6632000Y-4630000D02*
X6632000Y-4730000D01*
X6582000Y-4680000D02*
X6682000Y-4680000D01*
X6886000Y-4376000D02*
X6886000Y-4476000D01*
X6836000Y-4426000D02*
X6936000Y-4426000D01*
X6886000Y-4630000D02*
X6886000Y-4730000D01*
X6836000Y-4680000D02*
X6936000Y-4680000D01*
X7140000Y-4376000D02*
X7140000Y-4476000D01*
X7090000Y-4426000D02*
X7190000Y-4426000D01*
X7140000Y-4630000D02*
X7140000Y-4730000D01*
X7090000Y-4680000D02*
X7190000Y-4680000D01*
X7394000Y-4376000D02*
X7394000Y-4476000D01*
X7344000Y-4426000D02*
X7444000Y-4426000D01*
X7394000Y-4630000D02*
X7394000Y-4730000D01*
X7344000Y-4680000D02*
X7444000Y-4680000D01*
X7648000Y-4376000D02*
X7648000Y-4476000D01*
X7598000Y-4426000D02*
X7698000Y-4426000D01*
X7648000Y-4630000D02*
X7648000Y-4730000D01*
X7598000Y-4680000D02*
X7698000Y-4680000D01*
X7770000Y-10125000D02*
X7770000Y-10225000D01*
X7720000Y-10175000D02*
X7820000Y-10175000D01*
X7902000Y-4376000D02*
X7902000Y-4476000D01*
X7852000Y-4426000D02*
X7952000Y-4426000D01*
X7902000Y-4630000D02*
X7902000Y-4730000D01*
X7852000Y-4680000D02*
X7952000Y-4680000D01*
X8020000Y-10125000D02*
X8020000Y-10225000D01*
X7970000Y-10175000D02*
X8070000Y-10175000D01*
X8156000Y-4376000D02*
X8156000Y-4476000D01*
X8106000Y-4426000D02*
X8206000Y-4426000D01*
X8156000Y-4630000D02*
X8156000Y-4730000D01*
X8106000Y-4680000D02*
X8206000Y-4680000D01*
X8410000Y-4376000D02*
X8410000Y-4476000D01*
X8360000Y-4426000D02*
X8460000Y-4426000D01*
X8410000Y-4630000D02*
X8410000Y-4730000D01*
X8360000Y-4680000D02*
X8460000Y-4680000D01*
X8664000Y-4376000D02*
X8664000Y-4476000D01*
X8614000Y-4426000D02*
X8714000Y-4426000D01*
X8664000Y-4630000D02*
X8664000Y-4730000D01*
X8614000Y-4680000D02*
X8714000Y-4680000D01*
X8918000Y-4376000D02*
X8918000Y-4476000D01*
X8868000Y-4426000D02*
X8968000Y-4426000D01*
X8918000Y-4630000D02*
X8918000Y-4730000D01*
X8868000Y-4680000D02*
X8968000Y-4680000D01*
X9172000Y-4376000D02*
X9172000Y-4476000D01*
X9122000Y-4426000D02*
X9222000Y-4426000D01*
X9172000Y-4630000D02*
X9172000Y-4730000D01*
X9122000Y-4680000D02*
X9222000Y-4680000D01*
X9426000Y-4376000D02*
X9426000Y-4476000D01*
X9376000Y-4426000D02*
X9476000Y-4426000D01*
X9426000Y-4630000D02*
X9426000Y-4730000D01*
X9376000Y-4680000D02*
X9476000Y-4680000D01*
X9680000Y-4376000D02*
X9680000Y-4476000D01*
X9630000Y-4426000D02*
X9730000Y-4426000D01*
X9680000Y-4630000D02*
X9680000Y-4730000D01*
X9630000Y-4680000D02*
X9730000Y-4680000D01*
X9934000Y-4376000D02*
X9934000Y-4476000D01*
X9884000Y-4426000D02*
X9984000Y-4426000D01*
X9934000Y-4630000D02*
X9934000Y-4730000D01*
X9884000Y-4680000D02*
X9984000Y-4680000D01*
X10188000Y-4376000D02*
X10188000Y-4476000D01*
X10138000Y-4426000D02*
X10238000Y-4426000D01*
X10188000Y-4630000D02*
X10188000Y-4730000D01*
X10138000Y-4680000D02*
X10238000Y-4680000D01*
X10222500Y-5037000D02*
X10222500Y-5137000D01*
X10172500Y-5087000D02*
X10272500Y-5087000D01*
X10222500Y-5291000D02*
X10222500Y-5391000D01*
X10172500Y-5341000D02*
X10272500Y-5341000D01*
X10222500Y-5545000D02*
X10222500Y-5645000D01*
X10172500Y-5595000D02*
X10272500Y-5595000D01*
X10276000Y-7887000D02*
X10276000Y-7987000D01*
X10226000Y-7937000D02*
X10326000Y-7937000D01*
X10276000Y-8141000D02*
X10276000Y-8241000D01*
X10226000Y-8191000D02*
X10326000Y-8191000D01*
X10276000Y-8395000D02*
X10276000Y-8495000D01*
X10226000Y-8445000D02*
X10326000Y-8445000D01*
X10442000Y-4376000D02*
X10442000Y-4476000D01*
X10392000Y-4426000D02*
X10492000Y-4426000D01*
X10442000Y-4630000D02*
X10442000Y-4730000D01*
X10392000Y-4680000D02*
X10492000Y-4680000D01*
X10476500Y-5037000D02*
X10476500Y-5137000D01*
X10426500Y-5087000D02*
X10526500Y-5087000D01*
X10476500Y-5291000D02*
X10476500Y-5391000D01*
X10426500Y-5341000D02*
X10526500Y-5341000D01*
X10476500Y-5545000D02*
X10476500Y-5645000D01*
X10426500Y-5595000D02*
X10526500Y-5595000D01*
X10530000Y-7887000D02*
X10530000Y-7987000D01*
X10480000Y-7937000D02*
X10580000Y-7937000D01*
X10530000Y-8141000D02*
X10530000Y-8241000D01*
X10480000Y-8191000D02*
X10580000Y-8191000D01*
X10530000Y-8395000D02*
X10530000Y-8495000D01*
X10480000Y-8445000D02*
X10580000Y-8445000D01*
X10696000Y-4376000D02*
X10696000Y-4476000D01*
X10646000Y-4426000D02*
X10746000Y-4426000D01*
X10696000Y-4630000D02*
X10696000Y-4730000D01*
X10646000Y-4680000D02*
X10746000Y-4680000D01*
X10835000Y-10125000D02*
X10835000Y-10225000D01*
X10785000Y-10175000D02*
X10885000Y-10175000D01*
X11085000Y-10125000D02*
X11085000Y-10225000D01*
X11035000Y-10175000D02*
X11135000Y-10175000D01*
X5475460Y-4645460D02*
X5475460Y-4454540D01*
X5284540Y-4454540D01*
X5284540Y-4645460D01*
X5475460Y-4645460D01*
X5475460Y-6945460D02*
X5475460Y-6754540D01*
X5284540Y-6754540D01*
X5284540Y-6945460D01*
X5475460Y-6945460D01*
X5475460Y-9545460D02*
X5475460Y-9354540D01*
X5284540Y-9354540D01*
X5284540Y-9545460D01*
X5475460Y-9545460D01*
X11275460Y-4645460D02*
X11275460Y-4454540D01*
X11084540Y-4454540D01*
X11084540Y-4645460D01*
X11275460Y-4645460D01*
X11275460Y-6945460D02*
X11275460Y-6754540D01*
X11084540Y-6754540D01*
X11084540Y-6945460D01*
X11275460Y-6945460D01*
X11275460Y-9545460D02*
X11275460Y-9354540D01*
X11084540Y-9354540D01*
X11084540Y-9545460D01*
X11275460Y-9545460D01*
D12*
X5313928Y-11018214D02*
X5313928Y-10718214D01*
X5385357Y-10718214D01*
X5428214Y-10732500D01*
X5456786Y-10761072D01*
X5471071Y-10789643D01*
X5485357Y-10846786D01*
X5485357Y-10889643D01*
X5471071Y-10946786D01*
X5456786Y-10975357D01*
X5428214Y-11003929D01*
X5385357Y-11018214D01*
X5313928Y-11018214D01*
X5613928Y-11018214D02*
X5613928Y-10818214D01*
X5613928Y-10875357D02*
X5628214Y-10846786D01*
X5642500Y-10832500D01*
X5671071Y-10818214D01*
X5699643Y-10818214D01*
X5799643Y-11018214D02*
X5799643Y-10818214D01*
X5799643Y-10718214D02*
X5785357Y-10732500D01*
X5799643Y-10746786D01*
X5813928Y-10732500D01*
X5799643Y-10718214D01*
X5799643Y-10746786D01*
X5985357Y-11018214D02*
X5956786Y-11003929D01*
X5942500Y-10975357D01*
X5942500Y-10718214D01*
X6142500Y-11018214D02*
X6113928Y-11003929D01*
X6099643Y-10975357D01*
X6099643Y-10718214D01*
X6485357Y-11018214D02*
X6485357Y-10718214D01*
X6585357Y-10932500D01*
X6685357Y-10718214D01*
X6685357Y-11018214D01*
X6956786Y-11018214D02*
X6956786Y-10861072D01*
X6942500Y-10832500D01*
X6913928Y-10818214D01*
X6856786Y-10818214D01*
X6828214Y-10832500D01*
X6956786Y-11003929D02*
X6928214Y-11018214D01*
X6856786Y-11018214D01*
X6828214Y-11003929D01*
X6813928Y-10975357D01*
X6813928Y-10946786D01*
X6828214Y-10918214D01*
X6856786Y-10903929D01*
X6928214Y-10903929D01*
X6956786Y-10889643D01*
X7099643Y-10818214D02*
X7099643Y-11118214D01*
X7099643Y-10832500D02*
X7128214Y-10818214D01*
X7185357Y-10818214D01*
X7213928Y-10832500D01*
X7228214Y-10846786D01*
X7242500Y-10875357D01*
X7242500Y-10961072D01*
X7228214Y-10989643D01*
X7213928Y-11003929D01*
X7185357Y-11018214D01*
X7128214Y-11018214D01*
X7099643Y-11003929D01*
X7371071Y-10989643D02*
X7385357Y-11003929D01*
X7371071Y-11018214D01*
X7356786Y-11003929D01*
X7371071Y-10989643D01*
X7371071Y-11018214D01*
X7371071Y-10832500D02*
X7385357Y-10846786D01*
X7371071Y-10861072D01*
X7356786Y-10846786D01*
X7371071Y-10832500D01*
X7371071Y-10861072D01*
X4987500Y-11492500D02*
X5027500Y-11532500D01*
X5027500Y-11492500D02*
X4987500Y-11532500D01*
X5371071Y-11348214D02*
X5399643Y-11348214D01*
X5428214Y-11362500D01*
X5442500Y-11376786D01*
X5456786Y-11405357D01*
X5471071Y-11462500D01*
X5471071Y-11533929D01*
X5456786Y-11591071D01*
X5442500Y-11619643D01*
X5428214Y-11633929D01*
X5399643Y-11648214D01*
X5371071Y-11648214D01*
X5342500Y-11633929D01*
X5328214Y-11619643D01*
X5313928Y-11591071D01*
X5299643Y-11533929D01*
X5299643Y-11462500D01*
X5313928Y-11405357D01*
X5328214Y-11376786D01*
X5342500Y-11362500D01*
X5371071Y-11348214D01*
X5599643Y-11619643D02*
X5613928Y-11633929D01*
X5599643Y-11648214D01*
X5585357Y-11633929D01*
X5599643Y-11619643D01*
X5599643Y-11648214D01*
X5871071Y-11448214D02*
X5871071Y-11648214D01*
X5799643Y-11333929D02*
X5728214Y-11548214D01*
X5913928Y-11548214D01*
X6085357Y-11348214D02*
X6113928Y-11348214D01*
X6142500Y-11362500D01*
X6156786Y-11376786D01*
X6171071Y-11405357D01*
X6185357Y-11462500D01*
X6185357Y-11533929D01*
X6171071Y-11591071D01*
X6156786Y-11619643D01*
X6142500Y-11633929D01*
X6113928Y-11648214D01*
X6085357Y-11648214D01*
X6056786Y-11633929D01*
X6042500Y-11619643D01*
X6028214Y-11591071D01*
X6013928Y-11533929D01*
X6013928Y-11462500D01*
X6028214Y-11405357D01*
X6042500Y-11376786D01*
X6056786Y-11362500D01*
X6085357Y-11348214D01*
X6371071Y-11348214D02*
X6399643Y-11348214D01*
X6428214Y-11362500D01*
X6442500Y-11376786D01*
X6456786Y-11405357D01*
X6471071Y-11462500D01*
X6471071Y-11533929D01*
X6456786Y-11591071D01*
X6442500Y-11619643D01*
X6428214Y-11633929D01*
X6399643Y-11648214D01*
X6371071Y-11648214D01*
X6342500Y-11633929D01*
X6328214Y-11619643D01*
X6313928Y-11591071D01*
X6299643Y-11533929D01*
X6299643Y-11462500D01*
X6313928Y-11405357D01*
X6328214Y-11376786D01*
X6342500Y-11362500D01*
X6371071Y-11348214D01*
X6599643Y-11648214D02*
X6599643Y-11448214D01*
X6599643Y-11476786D02*
X6613928Y-11462500D01*
X6642500Y-11448214D01*
X6685357Y-11448214D01*
X6713928Y-11462500D01*
X6728214Y-11491071D01*
X6728214Y-11648214D01*
X6728214Y-11491071D02*
X6742500Y-11462500D01*
X6771071Y-11448214D01*
X6813928Y-11448214D01*
X6842500Y-11462500D01*
X6856786Y-11491071D01*
X6856786Y-11648214D01*
X6999643Y-11648214D02*
X6999643Y-11448214D01*
X6999643Y-11476786D02*
X7013928Y-11462500D01*
X7042500Y-11448214D01*
X7085357Y-11448214D01*
X7113928Y-11462500D01*
X7128214Y-11491071D01*
X7128214Y-11648214D01*
X7128214Y-11491071D02*
X7142500Y-11462500D01*
X7171071Y-11448214D01*
X7213928Y-11448214D01*
X7242500Y-11462500D01*
X7256786Y-11491071D01*
X7256786Y-11648214D01*
X7842500Y-11333929D02*
X7585357Y-11719643D01*
X8228214Y-11348214D02*
X8256786Y-11348214D01*
X8285357Y-11362500D01*
X8299643Y-11376786D01*
X8313928Y-11405357D01*
X8328214Y-11462500D01*
X8328214Y-11533929D01*
X8313928Y-11591071D01*
X8299643Y-11619643D01*
X8285357Y-11633929D01*
X8256786Y-11648214D01*
X8228214Y-11648214D01*
X8199643Y-11633929D01*
X8185357Y-11619643D01*
X8171071Y-11591071D01*
X8156786Y-11533929D01*
X8156786Y-11462500D01*
X8171071Y-11405357D01*
X8185357Y-11376786D01*
X8199643Y-11362500D01*
X8228214Y-11348214D01*
X8456786Y-11619643D02*
X8471071Y-11633929D01*
X8456786Y-11648214D01*
X8442500Y-11633929D01*
X8456786Y-11619643D01*
X8456786Y-11648214D01*
X8656786Y-11348214D02*
X8685357Y-11348214D01*
X8713928Y-11362500D01*
X8728214Y-11376786D01*
X8742500Y-11405357D01*
X8756786Y-11462500D01*
X8756786Y-11533929D01*
X8742500Y-11591071D01*
X8728214Y-11619643D01*
X8713928Y-11633929D01*
X8685357Y-11648214D01*
X8656786Y-11648214D01*
X8628214Y-11633929D01*
X8613928Y-11619643D01*
X8599643Y-11591071D01*
X8585357Y-11533929D01*
X8585357Y-11462500D01*
X8599643Y-11405357D01*
X8613928Y-11376786D01*
X8628214Y-11362500D01*
X8656786Y-11348214D01*
X9042500Y-11648214D02*
X8871071Y-11648214D01*
X8956786Y-11648214D02*
X8956786Y-11348214D01*
X8928214Y-11391071D01*
X8899643Y-11419643D01*
X8871071Y-11433929D01*
X9313928Y-11348214D02*
X9171071Y-11348214D01*
X9156786Y-11491071D01*
X9171071Y-11476786D01*
X9199643Y-11462500D01*
X9271071Y-11462500D01*
X9299643Y-11476786D01*
X9313928Y-11491071D01*
X9328214Y-11519643D01*
X9328214Y-11591071D01*
X9313928Y-11619643D01*
X9299643Y-11633929D01*
X9271071Y-11648214D01*
X9199643Y-11648214D01*
X9171071Y-11633929D01*
X9156786Y-11619643D01*
X9428214Y-11348214D02*
X9628214Y-11348214D01*
X9499643Y-11648214D01*
X9728214Y-11348214D02*
X9728214Y-11405357D01*
X9842500Y-11348214D02*
X9842500Y-11405357D01*
X10285357Y-11762500D02*
X10271071Y-11748214D01*
X10242500Y-11705357D01*
X10228214Y-11676786D01*
X10213928Y-11633929D01*
X10199643Y-11562500D01*
X10199643Y-11505357D01*
X10213928Y-11433929D01*
X10228214Y-11391071D01*
X10242500Y-11362500D01*
X10271071Y-11319643D01*
X10285357Y-11305357D01*
X10385357Y-11376786D02*
X10399643Y-11362500D01*
X10428214Y-11348214D01*
X10499643Y-11348214D01*
X10528214Y-11362500D01*
X10542500Y-11376786D01*
X10556786Y-11405357D01*
X10556786Y-11433929D01*
X10542500Y-11476786D01*
X10371071Y-11648214D01*
X10556786Y-11648214D01*
X10728214Y-11476786D02*
X10699643Y-11462500D01*
X10685357Y-11448214D01*
X10671071Y-11419643D01*
X10671071Y-11405357D01*
X10685357Y-11376786D01*
X10699643Y-11362500D01*
X10728214Y-11348214D01*
X10785357Y-11348214D01*
X10813928Y-11362500D01*
X10828214Y-11376786D01*
X10842500Y-11405357D01*
X10842500Y-11419643D01*
X10828214Y-11448214D01*
X10813928Y-11462500D01*
X10785357Y-11476786D01*
X10728214Y-11476786D01*
X10699643Y-11491071D01*
X10685357Y-11505357D01*
X10671071Y-11533929D01*
X10671071Y-11591071D01*
X10685357Y-11619643D01*
X10699643Y-11633929D01*
X10728214Y-11648214D01*
X10785357Y-11648214D01*
X10813928Y-11633929D01*
X10828214Y-11619643D01*
X10842500Y-11591071D01*
X10842500Y-11533929D01*
X10828214Y-11505357D01*
X10813928Y-11491071D01*
X10785357Y-11476786D01*
X11199643Y-11648214D02*
X11199643Y-11348214D01*
X11328214Y-11648214D02*
X11328214Y-11491071D01*
X11313928Y-11462500D01*
X11285357Y-11448214D01*
X11242500Y-11448214D01*
X11213928Y-11462500D01*
X11199643Y-11476786D01*
X11513928Y-11648214D02*
X11485357Y-11633929D01*
X11471071Y-11619643D01*
X11456786Y-11591071D01*
X11456786Y-11505357D01*
X11471071Y-11476786D01*
X11485357Y-11462500D01*
X11513928Y-11448214D01*
X11556786Y-11448214D01*
X11585357Y-11462500D01*
X11599643Y-11476786D01*
X11613928Y-11505357D01*
X11613928Y-11591071D01*
X11599643Y-11619643D01*
X11585357Y-11633929D01*
X11556786Y-11648214D01*
X11513928Y-11648214D01*
X11785357Y-11648214D02*
X11756786Y-11633929D01*
X11742500Y-11605357D01*
X11742500Y-11348214D01*
X12013928Y-11633929D02*
X11985357Y-11648214D01*
X11928214Y-11648214D01*
X11899643Y-11633929D01*
X11885357Y-11605357D01*
X11885357Y-11491071D01*
X11899643Y-11462500D01*
X11928214Y-11448214D01*
X11985357Y-11448214D01*
X12013928Y-11462500D01*
X12028214Y-11491071D01*
X12028214Y-11519643D01*
X11885357Y-11548214D01*
X12142500Y-11633929D02*
X12171071Y-11648214D01*
X12228214Y-11648214D01*
X12256786Y-11633929D01*
X12271071Y-11605357D01*
X12271071Y-11591071D01*
X12256786Y-11562500D01*
X12228214Y-11548214D01*
X12185357Y-11548214D01*
X12156786Y-11533929D01*
X12142500Y-11505357D01*
X12142500Y-11491071D01*
X12156786Y-11462500D01*
X12185357Y-11448214D01*
X12228214Y-11448214D01*
X12256786Y-11462500D01*
X12371071Y-11762500D02*
X12385357Y-11748214D01*
X12413928Y-11705357D01*
X12428214Y-11676786D01*
X12442500Y-11633929D01*
X12456786Y-11562500D01*
X12456786Y-11505357D01*
X12442500Y-11433929D01*
X12428214Y-11391071D01*
X12413928Y-11362500D01*
X12385357Y-11319643D01*
X12371071Y-11305357D01*
X5027500Y-11908500D02*
G75*
G03*
X5027500Y-11908500I-47500J0D01*
G01*
X5371071Y-11744214D02*
X5399643Y-11744214D01*
X5428214Y-11758500D01*
X5442500Y-11772786D01*
X5456786Y-11801357D01*
X5471071Y-11858500D01*
X5471071Y-11929929D01*
X5456786Y-11987071D01*
X5442500Y-12015643D01*
X5428214Y-12029929D01*
X5399643Y-12044214D01*
X5371071Y-12044214D01*
X5342500Y-12029929D01*
X5328214Y-12015643D01*
X5313928Y-11987071D01*
X5299643Y-11929929D01*
X5299643Y-11858500D01*
X5313928Y-11801357D01*
X5328214Y-11772786D01*
X5342500Y-11758500D01*
X5371071Y-11744214D01*
X5599643Y-12015643D02*
X5613928Y-12029929D01*
X5599643Y-12044214D01*
X5585357Y-12029929D01*
X5599643Y-12015643D01*
X5599643Y-12044214D01*
X5756786Y-12044214D02*
X5813928Y-12044214D01*
X5842500Y-12029929D01*
X5856786Y-12015643D01*
X5885357Y-11972786D01*
X5899643Y-11915643D01*
X5899643Y-11801357D01*
X5885357Y-11772786D01*
X5871071Y-11758500D01*
X5842500Y-11744214D01*
X5785357Y-11744214D01*
X5756786Y-11758500D01*
X5742500Y-11772786D01*
X5728214Y-11801357D01*
X5728214Y-11872786D01*
X5742500Y-11901357D01*
X5756786Y-11915643D01*
X5785357Y-11929929D01*
X5842500Y-11929929D01*
X5871071Y-11915643D01*
X5885357Y-11901357D01*
X5899643Y-11872786D01*
X6171071Y-11744214D02*
X6028214Y-11744214D01*
X6013928Y-11887071D01*
X6028214Y-11872786D01*
X6056786Y-11858500D01*
X6128214Y-11858500D01*
X6156786Y-11872786D01*
X6171071Y-11887071D01*
X6185357Y-11915643D01*
X6185357Y-11987071D01*
X6171071Y-12015643D01*
X6156786Y-12029929D01*
X6128214Y-12044214D01*
X6056786Y-12044214D01*
X6028214Y-12029929D01*
X6013928Y-12015643D01*
X6371071Y-11744214D02*
X6399643Y-11744214D01*
X6428214Y-11758500D01*
X6442500Y-11772786D01*
X6456786Y-11801357D01*
X6471071Y-11858500D01*
X6471071Y-11929929D01*
X6456786Y-11987071D01*
X6442500Y-12015643D01*
X6428214Y-12029929D01*
X6399643Y-12044214D01*
X6371071Y-12044214D01*
X6342500Y-12029929D01*
X6328214Y-12015643D01*
X6313928Y-11987071D01*
X6299643Y-11929929D01*
X6299643Y-11858500D01*
X6313928Y-11801357D01*
X6328214Y-11772786D01*
X6342500Y-11758500D01*
X6371071Y-11744214D01*
X6599643Y-12044214D02*
X6599643Y-11844214D01*
X6599643Y-11872786D02*
X6613928Y-11858500D01*
X6642500Y-11844214D01*
X6685357Y-11844214D01*
X6713928Y-11858500D01*
X6728214Y-11887071D01*
X6728214Y-12044214D01*
X6728214Y-11887071D02*
X6742500Y-11858500D01*
X6771071Y-11844214D01*
X6813928Y-11844214D01*
X6842500Y-11858500D01*
X6856786Y-11887071D01*
X6856786Y-12044214D01*
X6999643Y-12044214D02*
X6999643Y-11844214D01*
X6999643Y-11872786D02*
X7013928Y-11858500D01*
X7042500Y-11844214D01*
X7085357Y-11844214D01*
X7113928Y-11858500D01*
X7128214Y-11887071D01*
X7128214Y-12044214D01*
X7128214Y-11887071D02*
X7142500Y-11858500D01*
X7171071Y-11844214D01*
X7213928Y-11844214D01*
X7242500Y-11858500D01*
X7256786Y-11887071D01*
X7256786Y-12044214D01*
X7842500Y-11729929D02*
X7585357Y-12115643D01*
X8228214Y-11744214D02*
X8256786Y-11744214D01*
X8285357Y-11758500D01*
X8299643Y-11772786D01*
X8313928Y-11801357D01*
X8328214Y-11858500D01*
X8328214Y-11929929D01*
X8313928Y-11987071D01*
X8299643Y-12015643D01*
X8285357Y-12029929D01*
X8256786Y-12044214D01*
X8228214Y-12044214D01*
X8199643Y-12029929D01*
X8185357Y-12015643D01*
X8171071Y-11987071D01*
X8156786Y-11929929D01*
X8156786Y-11858500D01*
X8171071Y-11801357D01*
X8185357Y-11772786D01*
X8199643Y-11758500D01*
X8228214Y-11744214D01*
X8456786Y-12015643D02*
X8471071Y-12029929D01*
X8456786Y-12044214D01*
X8442500Y-12029929D01*
X8456786Y-12015643D01*
X8456786Y-12044214D01*
X8656786Y-11744214D02*
X8685357Y-11744214D01*
X8713928Y-11758500D01*
X8728214Y-11772786D01*
X8742500Y-11801357D01*
X8756786Y-11858500D01*
X8756786Y-11929929D01*
X8742500Y-11987071D01*
X8728214Y-12015643D01*
X8713928Y-12029929D01*
X8685357Y-12044214D01*
X8656786Y-12044214D01*
X8628214Y-12029929D01*
X8613928Y-12015643D01*
X8599643Y-11987071D01*
X8585357Y-11929929D01*
X8585357Y-11858500D01*
X8599643Y-11801357D01*
X8613928Y-11772786D01*
X8628214Y-11758500D01*
X8656786Y-11744214D01*
X8856786Y-11744214D02*
X9042500Y-11744214D01*
X8942500Y-11858500D01*
X8985357Y-11858500D01*
X9013928Y-11872786D01*
X9028214Y-11887071D01*
X9042500Y-11915643D01*
X9042500Y-11987071D01*
X9028214Y-12015643D01*
X9013928Y-12029929D01*
X8985357Y-12044214D01*
X8899643Y-12044214D01*
X8871071Y-12029929D01*
X8856786Y-12015643D01*
X9142500Y-11744214D02*
X9342500Y-11744214D01*
X9213928Y-12044214D01*
X9585357Y-11844214D02*
X9585357Y-12044214D01*
X9513928Y-11729929D02*
X9442500Y-11944214D01*
X9628214Y-11944214D01*
X9728214Y-11744214D02*
X9728214Y-11801357D01*
X9842500Y-11744214D02*
X9842500Y-11801357D01*
X10285357Y-12158500D02*
X10271071Y-12144214D01*
X10242500Y-12101357D01*
X10228214Y-12072786D01*
X10213928Y-12029929D01*
X10199643Y-11958500D01*
X10199643Y-11901357D01*
X10213928Y-11829929D01*
X10228214Y-11787071D01*
X10242500Y-11758500D01*
X10271071Y-11715643D01*
X10285357Y-11701357D01*
X10556786Y-12044214D02*
X10385357Y-12044214D01*
X10471071Y-12044214D02*
X10471071Y-11744214D01*
X10442500Y-11787071D01*
X10413928Y-11815643D01*
X10385357Y-11829929D01*
X10742500Y-11744214D02*
X10771071Y-11744214D01*
X10799643Y-11758500D01*
X10813928Y-11772786D01*
X10828214Y-11801357D01*
X10842500Y-11858500D01*
X10842500Y-11929929D01*
X10828214Y-11987071D01*
X10813928Y-12015643D01*
X10799643Y-12029929D01*
X10771071Y-12044214D01*
X10742500Y-12044214D01*
X10713928Y-12029929D01*
X10699643Y-12015643D01*
X10685357Y-11987071D01*
X10671071Y-11929929D01*
X10671071Y-11858500D01*
X10685357Y-11801357D01*
X10699643Y-11772786D01*
X10713928Y-11758500D01*
X10742500Y-11744214D01*
X11199643Y-12044214D02*
X11199643Y-11744214D01*
X11328214Y-12044214D02*
X11328214Y-11887071D01*
X11313928Y-11858500D01*
X11285357Y-11844214D01*
X11242500Y-11844214D01*
X11213928Y-11858500D01*
X11199643Y-11872786D01*
X11513928Y-12044214D02*
X11485357Y-12029929D01*
X11471071Y-12015643D01*
X11456786Y-11987071D01*
X11456786Y-11901357D01*
X11471071Y-11872786D01*
X11485357Y-11858500D01*
X11513928Y-11844214D01*
X11556786Y-11844214D01*
X11585357Y-11858500D01*
X11599643Y-11872786D01*
X11613928Y-11901357D01*
X11613928Y-11987071D01*
X11599643Y-12015643D01*
X11585357Y-12029929D01*
X11556786Y-12044214D01*
X11513928Y-12044214D01*
X11785357Y-12044214D02*
X11756786Y-12029929D01*
X11742500Y-12001357D01*
X11742500Y-11744214D01*
X12013928Y-12029929D02*
X11985357Y-12044214D01*
X11928214Y-12044214D01*
X11899643Y-12029929D01*
X11885357Y-12001357D01*
X11885357Y-11887071D01*
X11899643Y-11858500D01*
X11928214Y-11844214D01*
X11985357Y-11844214D01*
X12013928Y-11858500D01*
X12028214Y-11887071D01*
X12028214Y-11915643D01*
X11885357Y-11944214D01*
X12142500Y-12029929D02*
X12171071Y-12044214D01*
X12228214Y-12044214D01*
X12256786Y-12029929D01*
X12271071Y-12001357D01*
X12271071Y-11987071D01*
X12256786Y-11958500D01*
X12228214Y-11944214D01*
X12185357Y-11944214D01*
X12156786Y-11929929D01*
X12142500Y-11901357D01*
X12142500Y-11887071D01*
X12156786Y-11858500D01*
X12185357Y-11844214D01*
X12228214Y-11844214D01*
X12256786Y-11858500D01*
X12371071Y-12158500D02*
X12385357Y-12144214D01*
X12413928Y-12101357D01*
X12428214Y-12072786D01*
X12442500Y-12029929D01*
X12456786Y-11958500D01*
X12456786Y-11901357D01*
X12442500Y-11829929D01*
X12428214Y-11787071D01*
X12413928Y-11758500D01*
X12385357Y-11715643D01*
X12371071Y-11701357D01*
X4977500Y-12254500D02*
X4977500Y-12354500D01*
X4927500Y-12304500D02*
X5027500Y-12304500D01*
X5471071Y-12440214D02*
X5299643Y-12440214D01*
X5385357Y-12440214D02*
X5385357Y-12140214D01*
X5356786Y-12183071D01*
X5328214Y-12211643D01*
X5299643Y-12225929D01*
X5599643Y-12411643D02*
X5613928Y-12425929D01*
X5599643Y-12440214D01*
X5585357Y-12425929D01*
X5599643Y-12411643D01*
X5599643Y-12440214D01*
X5799643Y-12140214D02*
X5828214Y-12140214D01*
X5856786Y-12154500D01*
X5871071Y-12168786D01*
X5885357Y-12197357D01*
X5899643Y-12254500D01*
X5899643Y-12325929D01*
X5885357Y-12383071D01*
X5871071Y-12411643D01*
X5856786Y-12425929D01*
X5828214Y-12440214D01*
X5799643Y-12440214D01*
X5771071Y-12425929D01*
X5756786Y-12411643D01*
X5742500Y-12383071D01*
X5728214Y-12325929D01*
X5728214Y-12254500D01*
X5742500Y-12197357D01*
X5756786Y-12168786D01*
X5771071Y-12154500D01*
X5799643Y-12140214D01*
X6085357Y-12140214D02*
X6113928Y-12140214D01*
X6142500Y-12154500D01*
X6156786Y-12168786D01*
X6171071Y-12197357D01*
X6185357Y-12254500D01*
X6185357Y-12325929D01*
X6171071Y-12383071D01*
X6156786Y-12411643D01*
X6142500Y-12425929D01*
X6113928Y-12440214D01*
X6085357Y-12440214D01*
X6056786Y-12425929D01*
X6042500Y-12411643D01*
X6028214Y-12383071D01*
X6013928Y-12325929D01*
X6013928Y-12254500D01*
X6028214Y-12197357D01*
X6042500Y-12168786D01*
X6056786Y-12154500D01*
X6085357Y-12140214D01*
X6371071Y-12140214D02*
X6399643Y-12140214D01*
X6428214Y-12154500D01*
X6442500Y-12168786D01*
X6456786Y-12197357D01*
X6471071Y-12254500D01*
X6471071Y-12325929D01*
X6456786Y-12383071D01*
X6442500Y-12411643D01*
X6428214Y-12425929D01*
X6399643Y-12440214D01*
X6371071Y-12440214D01*
X6342500Y-12425929D01*
X6328214Y-12411643D01*
X6313928Y-12383071D01*
X6299643Y-12325929D01*
X6299643Y-12254500D01*
X6313928Y-12197357D01*
X6328214Y-12168786D01*
X6342500Y-12154500D01*
X6371071Y-12140214D01*
X6599643Y-12440214D02*
X6599643Y-12240214D01*
X6599643Y-12268786D02*
X6613928Y-12254500D01*
X6642500Y-12240214D01*
X6685357Y-12240214D01*
X6713928Y-12254500D01*
X6728214Y-12283071D01*
X6728214Y-12440214D01*
X6728214Y-12283071D02*
X6742500Y-12254500D01*
X6771071Y-12240214D01*
X6813928Y-12240214D01*
X6842500Y-12254500D01*
X6856786Y-12283071D01*
X6856786Y-12440214D01*
X6999643Y-12440214D02*
X6999643Y-12240214D01*
X6999643Y-12268786D02*
X7013928Y-12254500D01*
X7042500Y-12240214D01*
X7085357Y-12240214D01*
X7113928Y-12254500D01*
X7128214Y-12283071D01*
X7128214Y-12440214D01*
X7128214Y-12283071D02*
X7142500Y-12254500D01*
X7171071Y-12240214D01*
X7213928Y-12240214D01*
X7242500Y-12254500D01*
X7256786Y-12283071D01*
X7256786Y-12440214D01*
X7842500Y-12125929D02*
X7585357Y-12511643D01*
X8228214Y-12140214D02*
X8256786Y-12140214D01*
X8285357Y-12154500D01*
X8299643Y-12168786D01*
X8313928Y-12197357D01*
X8328214Y-12254500D01*
X8328214Y-12325929D01*
X8313928Y-12383071D01*
X8299643Y-12411643D01*
X8285357Y-12425929D01*
X8256786Y-12440214D01*
X8228214Y-12440214D01*
X8199643Y-12425929D01*
X8185357Y-12411643D01*
X8171071Y-12383071D01*
X8156786Y-12325929D01*
X8156786Y-12254500D01*
X8171071Y-12197357D01*
X8185357Y-12168786D01*
X8199643Y-12154500D01*
X8228214Y-12140214D01*
X8456786Y-12411643D02*
X8471071Y-12425929D01*
X8456786Y-12440214D01*
X8442500Y-12425929D01*
X8456786Y-12411643D01*
X8456786Y-12440214D01*
X8656786Y-12140214D02*
X8685357Y-12140214D01*
X8713928Y-12154500D01*
X8728214Y-12168786D01*
X8742500Y-12197357D01*
X8756786Y-12254500D01*
X8756786Y-12325929D01*
X8742500Y-12383071D01*
X8728214Y-12411643D01*
X8713928Y-12425929D01*
X8685357Y-12440214D01*
X8656786Y-12440214D01*
X8628214Y-12425929D01*
X8613928Y-12411643D01*
X8599643Y-12383071D01*
X8585357Y-12325929D01*
X8585357Y-12254500D01*
X8599643Y-12197357D01*
X8613928Y-12168786D01*
X8628214Y-12154500D01*
X8656786Y-12140214D01*
X8856786Y-12140214D02*
X9042500Y-12140214D01*
X8942500Y-12254500D01*
X8985357Y-12254500D01*
X9013928Y-12268786D01*
X9028214Y-12283071D01*
X9042500Y-12311643D01*
X9042500Y-12383071D01*
X9028214Y-12411643D01*
X9013928Y-12425929D01*
X8985357Y-12440214D01*
X8899643Y-12440214D01*
X8871071Y-12425929D01*
X8856786Y-12411643D01*
X9185357Y-12440214D02*
X9242500Y-12440214D01*
X9271071Y-12425929D01*
X9285357Y-12411643D01*
X9313928Y-12368786D01*
X9328214Y-12311643D01*
X9328214Y-12197357D01*
X9313928Y-12168786D01*
X9299643Y-12154500D01*
X9271071Y-12140214D01*
X9213928Y-12140214D01*
X9185357Y-12154500D01*
X9171071Y-12168786D01*
X9156786Y-12197357D01*
X9156786Y-12268786D01*
X9171071Y-12297357D01*
X9185357Y-12311643D01*
X9213928Y-12325929D01*
X9271071Y-12325929D01*
X9299643Y-12311643D01*
X9313928Y-12297357D01*
X9328214Y-12268786D01*
X9585357Y-12240214D02*
X9585357Y-12440214D01*
X9513928Y-12125929D02*
X9442500Y-12340214D01*
X9628214Y-12340214D01*
X9728214Y-12140214D02*
X9728214Y-12197357D01*
X9842500Y-12140214D02*
X9842500Y-12197357D01*
X10285357Y-12554500D02*
X10271071Y-12540214D01*
X10242500Y-12497357D01*
X10228214Y-12468786D01*
X10213928Y-12425929D01*
X10199643Y-12354500D01*
X10199643Y-12297357D01*
X10213928Y-12225929D01*
X10228214Y-12183071D01*
X10242500Y-12154500D01*
X10271071Y-12111643D01*
X10285357Y-12097357D01*
X10528214Y-12140214D02*
X10471071Y-12140214D01*
X10442500Y-12154500D01*
X10428214Y-12168786D01*
X10399643Y-12211643D01*
X10385357Y-12268786D01*
X10385357Y-12383071D01*
X10399643Y-12411643D01*
X10413928Y-12425929D01*
X10442500Y-12440214D01*
X10499643Y-12440214D01*
X10528214Y-12425929D01*
X10542500Y-12411643D01*
X10556786Y-12383071D01*
X10556786Y-12311643D01*
X10542500Y-12283071D01*
X10528214Y-12268786D01*
X10499643Y-12254500D01*
X10442500Y-12254500D01*
X10413928Y-12268786D01*
X10399643Y-12283071D01*
X10385357Y-12311643D01*
X10813928Y-12140214D02*
X10756786Y-12140214D01*
X10728214Y-12154500D01*
X10713928Y-12168786D01*
X10685357Y-12211643D01*
X10671071Y-12268786D01*
X10671071Y-12383071D01*
X10685357Y-12411643D01*
X10699643Y-12425929D01*
X10728214Y-12440214D01*
X10785357Y-12440214D01*
X10813928Y-12425929D01*
X10828214Y-12411643D01*
X10842500Y-12383071D01*
X10842500Y-12311643D01*
X10828214Y-12283071D01*
X10813928Y-12268786D01*
X10785357Y-12254500D01*
X10728214Y-12254500D01*
X10699643Y-12268786D01*
X10685357Y-12283071D01*
X10671071Y-12311643D01*
X11199643Y-12440214D02*
X11199643Y-12140214D01*
X11328214Y-12440214D02*
X11328214Y-12283071D01*
X11313928Y-12254500D01*
X11285357Y-12240214D01*
X11242500Y-12240214D01*
X11213928Y-12254500D01*
X11199643Y-12268786D01*
X11513928Y-12440214D02*
X11485357Y-12425929D01*
X11471071Y-12411643D01*
X11456786Y-12383071D01*
X11456786Y-12297357D01*
X11471071Y-12268786D01*
X11485357Y-12254500D01*
X11513928Y-12240214D01*
X11556786Y-12240214D01*
X11585357Y-12254500D01*
X11599643Y-12268786D01*
X11613928Y-12297357D01*
X11613928Y-12383071D01*
X11599643Y-12411643D01*
X11585357Y-12425929D01*
X11556786Y-12440214D01*
X11513928Y-12440214D01*
X11785357Y-12440214D02*
X11756786Y-12425929D01*
X11742500Y-12397357D01*
X11742500Y-12140214D01*
X12013928Y-12425929D02*
X11985357Y-12440214D01*
X11928214Y-12440214D01*
X11899643Y-12425929D01*
X11885357Y-12397357D01*
X11885357Y-12283071D01*
X11899643Y-12254500D01*
X11928214Y-12240214D01*
X11985357Y-12240214D01*
X12013928Y-12254500D01*
X12028214Y-12283071D01*
X12028214Y-12311643D01*
X11885357Y-12340214D01*
X12142500Y-12425929D02*
X12171071Y-12440214D01*
X12228214Y-12440214D01*
X12256786Y-12425929D01*
X12271071Y-12397357D01*
X12271071Y-12383071D01*
X12256786Y-12354500D01*
X12228214Y-12340214D01*
X12185357Y-12340214D01*
X12156786Y-12325929D01*
X12142500Y-12297357D01*
X12142500Y-12283071D01*
X12156786Y-12254500D01*
X12185357Y-12240214D01*
X12228214Y-12240214D01*
X12256786Y-12254500D01*
X12371071Y-12554500D02*
X12385357Y-12540214D01*
X12413928Y-12497357D01*
X12428214Y-12468786D01*
X12442500Y-12425929D01*
X12456786Y-12354500D01*
X12456786Y-12297357D01*
X12442500Y-12225929D01*
X12428214Y-12183071D01*
X12413928Y-12154500D01*
X12385357Y-12111643D01*
X12371071Y-12097357D01*
X4987960Y-12795960D02*
X4987960Y-12605040D01*
X4797040Y-12605040D01*
X4797040Y-12795960D01*
X4987960Y-12795960D01*
X5299643Y-12564786D02*
X5313928Y-12550500D01*
X5342500Y-12536214D01*
X5413928Y-12536214D01*
X5442500Y-12550500D01*
X5456786Y-12564786D01*
X5471071Y-12593357D01*
X5471071Y-12621929D01*
X5456786Y-12664786D01*
X5285357Y-12836214D01*
X5471071Y-12836214D01*
X5599643Y-12807643D02*
X5613928Y-12821929D01*
X5599643Y-12836214D01*
X5585357Y-12821929D01*
X5599643Y-12807643D01*
X5599643Y-12836214D01*
X5713928Y-12536214D02*
X5913928Y-12536214D01*
X5785357Y-12836214D01*
X6085357Y-12536214D02*
X6113928Y-12536214D01*
X6142500Y-12550500D01*
X6156786Y-12564786D01*
X6171071Y-12593357D01*
X6185357Y-12650500D01*
X6185357Y-12721929D01*
X6171071Y-12779071D01*
X6156786Y-12807643D01*
X6142500Y-12821929D01*
X6113928Y-12836214D01*
X6085357Y-12836214D01*
X6056786Y-12821929D01*
X6042500Y-12807643D01*
X6028214Y-12779071D01*
X6013928Y-12721929D01*
X6013928Y-12650500D01*
X6028214Y-12593357D01*
X6042500Y-12564786D01*
X6056786Y-12550500D01*
X6085357Y-12536214D01*
X6371071Y-12536214D02*
X6399643Y-12536214D01*
X6428214Y-12550500D01*
X6442500Y-12564786D01*
X6456786Y-12593357D01*
X6471071Y-12650500D01*
X6471071Y-12721929D01*
X6456786Y-12779071D01*
X6442500Y-12807643D01*
X6428214Y-12821929D01*
X6399643Y-12836214D01*
X6371071Y-12836214D01*
X6342500Y-12821929D01*
X6328214Y-12807643D01*
X6313928Y-12779071D01*
X6299643Y-12721929D01*
X6299643Y-12650500D01*
X6313928Y-12593357D01*
X6328214Y-12564786D01*
X6342500Y-12550500D01*
X6371071Y-12536214D01*
X6599643Y-12836214D02*
X6599643Y-12636214D01*
X6599643Y-12664786D02*
X6613928Y-12650500D01*
X6642500Y-12636214D01*
X6685357Y-12636214D01*
X6713928Y-12650500D01*
X6728214Y-12679071D01*
X6728214Y-12836214D01*
X6728214Y-12679071D02*
X6742500Y-12650500D01*
X6771071Y-12636214D01*
X6813928Y-12636214D01*
X6842500Y-12650500D01*
X6856786Y-12679071D01*
X6856786Y-12836214D01*
X6999643Y-12836214D02*
X6999643Y-12636214D01*
X6999643Y-12664786D02*
X7013928Y-12650500D01*
X7042500Y-12636214D01*
X7085357Y-12636214D01*
X7113928Y-12650500D01*
X7128214Y-12679071D01*
X7128214Y-12836214D01*
X7128214Y-12679071D02*
X7142500Y-12650500D01*
X7171071Y-12636214D01*
X7213928Y-12636214D01*
X7242500Y-12650500D01*
X7256786Y-12679071D01*
X7256786Y-12836214D01*
X7842500Y-12521929D02*
X7585357Y-12907643D01*
X8228214Y-12536214D02*
X8256786Y-12536214D01*
X8285357Y-12550500D01*
X8299643Y-12564786D01*
X8313928Y-12593357D01*
X8328214Y-12650500D01*
X8328214Y-12721929D01*
X8313928Y-12779071D01*
X8299643Y-12807643D01*
X8285357Y-12821929D01*
X8256786Y-12836214D01*
X8228214Y-12836214D01*
X8199643Y-12821929D01*
X8185357Y-12807643D01*
X8171071Y-12779071D01*
X8156786Y-12721929D01*
X8156786Y-12650500D01*
X8171071Y-12593357D01*
X8185357Y-12564786D01*
X8199643Y-12550500D01*
X8228214Y-12536214D01*
X8456786Y-12807643D02*
X8471071Y-12821929D01*
X8456786Y-12836214D01*
X8442500Y-12821929D01*
X8456786Y-12807643D01*
X8456786Y-12836214D01*
X8756786Y-12836214D02*
X8585357Y-12836214D01*
X8671071Y-12836214D02*
X8671071Y-12536214D01*
X8642500Y-12579071D01*
X8613928Y-12607643D01*
X8585357Y-12621929D01*
X8942500Y-12536214D02*
X8971071Y-12536214D01*
X8999643Y-12550500D01*
X9013928Y-12564786D01*
X9028214Y-12593357D01*
X9042500Y-12650500D01*
X9042500Y-12721929D01*
X9028214Y-12779071D01*
X9013928Y-12807643D01*
X8999643Y-12821929D01*
X8971071Y-12836214D01*
X8942500Y-12836214D01*
X8913928Y-12821929D01*
X8899643Y-12807643D01*
X8885357Y-12779071D01*
X8871071Y-12721929D01*
X8871071Y-12650500D01*
X8885357Y-12593357D01*
X8899643Y-12564786D01*
X8913928Y-12550500D01*
X8942500Y-12536214D01*
X9299643Y-12536214D02*
X9242500Y-12536214D01*
X9213928Y-12550500D01*
X9199643Y-12564786D01*
X9171071Y-12607643D01*
X9156786Y-12664786D01*
X9156786Y-12779071D01*
X9171071Y-12807643D01*
X9185357Y-12821929D01*
X9213928Y-12836214D01*
X9271071Y-12836214D01*
X9299643Y-12821929D01*
X9313928Y-12807643D01*
X9328214Y-12779071D01*
X9328214Y-12707643D01*
X9313928Y-12679071D01*
X9299643Y-12664786D01*
X9271071Y-12650500D01*
X9213928Y-12650500D01*
X9185357Y-12664786D01*
X9171071Y-12679071D01*
X9156786Y-12707643D01*
X9428214Y-12536214D02*
X9613928Y-12536214D01*
X9513928Y-12650500D01*
X9556786Y-12650500D01*
X9585357Y-12664786D01*
X9599643Y-12679071D01*
X9613928Y-12707643D01*
X9613928Y-12779071D01*
X9599643Y-12807643D01*
X9585357Y-12821929D01*
X9556786Y-12836214D01*
X9471071Y-12836214D01*
X9442500Y-12821929D01*
X9428214Y-12807643D01*
X9728214Y-12536214D02*
X9728214Y-12593357D01*
X9842500Y-12536214D02*
X9842500Y-12593357D01*
X10285357Y-12950500D02*
X10271071Y-12936214D01*
X10242500Y-12893357D01*
X10228214Y-12864786D01*
X10213928Y-12821929D01*
X10199643Y-12750500D01*
X10199643Y-12693357D01*
X10213928Y-12621929D01*
X10228214Y-12579071D01*
X10242500Y-12550500D01*
X10271071Y-12507643D01*
X10285357Y-12493357D01*
X10528214Y-12536214D02*
X10471071Y-12536214D01*
X10442500Y-12550500D01*
X10428214Y-12564786D01*
X10399643Y-12607643D01*
X10385357Y-12664786D01*
X10385357Y-12779071D01*
X10399643Y-12807643D01*
X10413928Y-12821929D01*
X10442500Y-12836214D01*
X10499643Y-12836214D01*
X10528214Y-12821929D01*
X10542500Y-12807643D01*
X10556786Y-12779071D01*
X10556786Y-12707643D01*
X10542500Y-12679071D01*
X10528214Y-12664786D01*
X10499643Y-12650500D01*
X10442500Y-12650500D01*
X10413928Y-12664786D01*
X10399643Y-12679071D01*
X10385357Y-12707643D01*
X10913928Y-12836214D02*
X10913928Y-12536214D01*
X11042500Y-12836214D02*
X11042500Y-12679071D01*
X11028214Y-12650500D01*
X10999643Y-12636214D01*
X10956786Y-12636214D01*
X10928214Y-12650500D01*
X10913928Y-12664786D01*
X11228214Y-12836214D02*
X11199643Y-12821929D01*
X11185357Y-12807643D01*
X11171071Y-12779071D01*
X11171071Y-12693357D01*
X11185357Y-12664786D01*
X11199643Y-12650500D01*
X11228214Y-12636214D01*
X11271071Y-12636214D01*
X11299643Y-12650500D01*
X11313928Y-12664786D01*
X11328214Y-12693357D01*
X11328214Y-12779071D01*
X11313928Y-12807643D01*
X11299643Y-12821929D01*
X11271071Y-12836214D01*
X11228214Y-12836214D01*
X11499643Y-12836214D02*
X11471071Y-12821929D01*
X11456786Y-12793357D01*
X11456786Y-12536214D01*
X11728214Y-12821929D02*
X11699643Y-12836214D01*
X11642500Y-12836214D01*
X11613928Y-12821929D01*
X11599643Y-12793357D01*
X11599643Y-12679071D01*
X11613928Y-12650500D01*
X11642500Y-12636214D01*
X11699643Y-12636214D01*
X11728214Y-12650500D01*
X11742500Y-12679071D01*
X11742500Y-12707643D01*
X11599643Y-12736214D01*
X11856786Y-12821929D02*
X11885357Y-12836214D01*
X11942500Y-12836214D01*
X11971071Y-12821929D01*
X11985357Y-12793357D01*
X11985357Y-12779071D01*
X11971071Y-12750500D01*
X11942500Y-12736214D01*
X11899643Y-12736214D01*
X11871071Y-12721929D01*
X11856786Y-12693357D01*
X11856786Y-12679071D01*
X11871071Y-12650500D01*
X11899643Y-12636214D01*
X11942500Y-12636214D01*
X11971071Y-12650500D01*
X12085357Y-12950500D02*
X12099643Y-12936214D01*
X12128214Y-12893357D01*
X12142500Y-12864786D01*
X12156786Y-12821929D01*
X12171071Y-12750500D01*
X12171071Y-12693357D01*
X12156786Y-12621929D01*
X12142500Y-12579071D01*
X12128214Y-12550500D01*
X12099643Y-12507643D01*
X12085357Y-12493357D01*
M02*
