%TF.GenerationSoftware,KiCad,Pcbnew,5.1.10*%
%TF.CreationDate,2021-11-02T21:36:03+05:45*%
%TF.ProjectId,RobotHat,526f626f-7448-4617-942e-6b696361645f,rev?*%
%TF.SameCoordinates,Original*%
%TF.FileFunction,Soldermask,Bot*%
%TF.FilePolarity,Negative*%
%FSLAX46Y46*%
G04 Gerber Fmt 4.6, Leading zero omitted, Abs format (unit mm)*
G04 Created by KiCad (PCBNEW 5.1.10) date 2021-11-02 21:36:03*
%MOMM*%
%LPD*%
G01*
G04 APERTURE LIST*
%ADD10O,1.950000X1.700000*%
%ADD11O,1.700000X1.700000*%
%ADD12R,1.700000X1.700000*%
%ADD13C,4.700000*%
%ADD14O,2.000000X1.700000*%
%ADD15O,1.700000X2.000000*%
%ADD16O,1.700000X1.950000*%
G04 APERTURE END LIST*
D10*
%TO.C,J6*%
X112050000Y-82850000D03*
X112050000Y-80350000D03*
X112050000Y-77850000D03*
G36*
G01*
X111325000Y-74500000D02*
X112775000Y-74500000D01*
G75*
G02*
X113025000Y-74750000I0J-250000D01*
G01*
X113025000Y-75950000D01*
G75*
G02*
X112775000Y-76200000I-250000J0D01*
G01*
X111325000Y-76200000D01*
G75*
G02*
X111075000Y-75950000I0J250000D01*
G01*
X111075000Y-74750000D01*
G75*
G02*
X111325000Y-74500000I250000J0D01*
G01*
G37*
%TD*%
D11*
%TO.C,J4*%
X102760000Y-79370000D03*
X105300000Y-79370000D03*
X102760000Y-81910000D03*
X105300000Y-81910000D03*
X102760000Y-84450000D03*
D12*
X105300000Y-84450000D03*
%TD*%
D11*
%TO.C,J5*%
X60850000Y-50750000D03*
X60850000Y-53290000D03*
X60850000Y-55830000D03*
X60850000Y-58370000D03*
X60850000Y-60910000D03*
D12*
X60850000Y-63450000D03*
%TD*%
D13*
%TO.C,H6*%
X111800000Y-94500000D03*
%TD*%
%TO.C,H5*%
X53800000Y-94500000D03*
%TD*%
D11*
%TO.C,J7*%
X104765000Y-50870000D03*
X102225000Y-50870000D03*
X104765000Y-53410000D03*
X102225000Y-53410000D03*
X104765000Y-55950000D03*
D12*
X102225000Y-55950000D03*
%TD*%
D14*
%TO.C,J2*%
X53800000Y-75400000D03*
G36*
G01*
X54550000Y-78750000D02*
X53050000Y-78750000D01*
G75*
G02*
X52800000Y-78500000I0J250000D01*
G01*
X52800000Y-77300000D01*
G75*
G02*
X53050000Y-77050000I250000J0D01*
G01*
X54550000Y-77050000D01*
G75*
G02*
X54800000Y-77300000I0J-250000D01*
G01*
X54800000Y-78500000D01*
G75*
G02*
X54550000Y-78750000I-250000J0D01*
G01*
G37*
%TD*%
D13*
%TO.C,H4*%
X111800000Y-68500000D03*
%TD*%
%TO.C,H3*%
X111800000Y-45500000D03*
%TD*%
%TO.C,H2*%
X53800000Y-68500000D03*
%TD*%
%TO.C,H1*%
X53800000Y-45500000D03*
%TD*%
D15*
%TO.C,J11*%
X108350000Y-101750000D03*
G36*
G01*
X111700000Y-101000000D02*
X111700000Y-102500000D01*
G75*
G02*
X111450000Y-102750000I-250000J0D01*
G01*
X110250000Y-102750000D01*
G75*
G02*
X110000000Y-102500000I0J250000D01*
G01*
X110000000Y-101000000D01*
G75*
G02*
X110250000Y-100750000I250000J0D01*
G01*
X111450000Y-100750000D01*
G75*
G02*
X111700000Y-101000000I0J-250000D01*
G01*
G37*
%TD*%
%TO.C,J10*%
X77700000Y-101750000D03*
G36*
G01*
X81050000Y-101000000D02*
X81050000Y-102500000D01*
G75*
G02*
X80800000Y-102750000I-250000J0D01*
G01*
X79600000Y-102750000D01*
G75*
G02*
X79350000Y-102500000I0J250000D01*
G01*
X79350000Y-101000000D01*
G75*
G02*
X79600000Y-100750000I250000J0D01*
G01*
X80800000Y-100750000D01*
G75*
G02*
X81050000Y-101000000I0J-250000D01*
G01*
G37*
%TD*%
D16*
%TO.C,J9*%
X97300000Y-101750000D03*
X99800000Y-101750000D03*
G36*
G01*
X103150000Y-101025000D02*
X103150000Y-102475000D01*
G75*
G02*
X102900000Y-102725000I-250000J0D01*
G01*
X101700000Y-102725000D01*
G75*
G02*
X101450000Y-102475000I0J250000D01*
G01*
X101450000Y-101025000D01*
G75*
G02*
X101700000Y-100775000I250000J0D01*
G01*
X102900000Y-100775000D01*
G75*
G02*
X103150000Y-101025000I0J-250000D01*
G01*
G37*
%TD*%
%TO.C,J8*%
X86250000Y-101750000D03*
X88750000Y-101750000D03*
G36*
G01*
X92100000Y-101025000D02*
X92100000Y-102475000D01*
G75*
G02*
X91850000Y-102725000I-250000J0D01*
G01*
X90650000Y-102725000D01*
G75*
G02*
X90400000Y-102475000I0J250000D01*
G01*
X90400000Y-101025000D01*
G75*
G02*
X90650000Y-100775000I250000J0D01*
G01*
X91850000Y-100775000D01*
G75*
G02*
X92100000Y-101025000I0J-250000D01*
G01*
G37*
%TD*%
D11*
%TO.C,J12*%
X106960000Y-44260000D03*
X106960000Y-46800000D03*
X104420000Y-44260000D03*
X104420000Y-46800000D03*
X101880000Y-44260000D03*
X101880000Y-46800000D03*
X99340000Y-44260000D03*
X99340000Y-46800000D03*
X96800000Y-44260000D03*
X96800000Y-46800000D03*
X94260000Y-44260000D03*
X94260000Y-46800000D03*
X91720000Y-44260000D03*
X91720000Y-46800000D03*
X89180000Y-44260000D03*
X89180000Y-46800000D03*
X86640000Y-44260000D03*
X86640000Y-46800000D03*
X84100000Y-44260000D03*
X84100000Y-46800000D03*
X81560000Y-44260000D03*
X81560000Y-46800000D03*
X79020000Y-44260000D03*
X79020000Y-46800000D03*
X76480000Y-44260000D03*
X76480000Y-46800000D03*
X73940000Y-44260000D03*
X73940000Y-46800000D03*
X71400000Y-44260000D03*
X71400000Y-46800000D03*
X68860000Y-44260000D03*
X68860000Y-46800000D03*
X66320000Y-44260000D03*
X66320000Y-46800000D03*
X63780000Y-44260000D03*
X63780000Y-46800000D03*
X61240000Y-44260000D03*
X61240000Y-46800000D03*
X58700000Y-44260000D03*
D12*
X58700000Y-46800000D03*
%TD*%
D15*
%TO.C,J1*%
X55200000Y-101700000D03*
G36*
G01*
X58550000Y-100950000D02*
X58550000Y-102450000D01*
G75*
G02*
X58300000Y-102700000I-250000J0D01*
G01*
X57100000Y-102700000D01*
G75*
G02*
X56850000Y-102450000I0J250000D01*
G01*
X56850000Y-100950000D01*
G75*
G02*
X57100000Y-100700000I250000J0D01*
G01*
X58300000Y-100700000D01*
G75*
G02*
X58550000Y-100950000I0J-250000D01*
G01*
G37*
%TD*%
M02*
