%TF.GenerationSoftware,KiCad,Pcbnew,5.1.10*%
%TF.CreationDate,2021-11-02T21:36:03+05:45*%
%TF.ProjectId,RobotHat,526f626f-7448-4617-942e-6b696361645f,rev?*%
%TF.SameCoordinates,Original*%
%TF.FileFunction,Legend,Bot*%
%TF.FilePolarity,Positive*%
%FSLAX46Y46*%
G04 Gerber Fmt 4.6, Leading zero omitted, Abs format (unit mm)*
G04 Created by KiCad (PCBNEW 5.1.10) date 2021-11-02 21:36:03*
%MOMM*%
%LPD*%
G01*
G04 APERTURE LIST*
%ADD10C,0.120000*%
%ADD11C,0.150000*%
G04 APERTURE END LIST*
D10*
%TO.C,J12*%
X57370000Y-46800000D02*
X57370000Y-48130000D01*
X57370000Y-48130000D02*
X58700000Y-48130000D01*
X57370000Y-45530000D02*
X59970000Y-45530000D01*
X59970000Y-45530000D02*
X59970000Y-48130000D01*
X59970000Y-48130000D02*
X108290000Y-48130000D01*
X108290000Y-42930000D02*
X108290000Y-48130000D01*
X57370000Y-42930000D02*
X108290000Y-42930000D01*
X57370000Y-42930000D02*
X57370000Y-45530000D01*
D11*
X108209523Y-49202380D02*
X108209523Y-49916666D01*
X108257142Y-50059523D01*
X108352380Y-50154761D01*
X108495238Y-50202380D01*
X108590476Y-50202380D01*
X107209523Y-50202380D02*
X107780952Y-50202380D01*
X107495238Y-50202380D02*
X107495238Y-49202380D01*
X107590476Y-49345238D01*
X107685714Y-49440476D01*
X107780952Y-49488095D01*
X106828571Y-49297619D02*
X106780952Y-49250000D01*
X106685714Y-49202380D01*
X106447619Y-49202380D01*
X106352380Y-49250000D01*
X106304761Y-49297619D01*
X106257142Y-49392857D01*
X106257142Y-49488095D01*
X106304761Y-49630952D01*
X106876190Y-50202380D01*
X106257142Y-50202380D01*
%TD*%
M02*
