%TF.GenerationSoftware,KiCad,Pcbnew,5.1.10*%
%TF.CreationDate,2021-11-07T20:18:02+05:45*%
%TF.ProjectId,RobotHat,526f626f-7448-4617-942e-6b696361645f,rev?*%
%TF.SameCoordinates,Original*%
%TF.FileFunction,Paste,Top*%
%TF.FilePolarity,Positive*%
%FSLAX46Y46*%
G04 Gerber Fmt 4.6, Leading zero omitted, Abs format (unit mm)*
G04 Created by KiCad (PCBNEW 5.1.10) date 2021-11-07 20:18:02*
%MOMM*%
%LPD*%
G01*
G04 APERTURE LIST*
%ADD10R,1.000000X0.750000*%
%ADD11R,0.900000X0.800000*%
%ADD12R,2.800000X5.400000*%
%ADD13R,0.550000X1.600000*%
%ADD14R,1.600000X0.550000*%
%ADD15R,4.550000X5.250000*%
%ADD16R,4.600000X1.100000*%
%ADD17R,0.450000X1.750000*%
G04 APERTURE END LIST*
%TO.C,C4*%
G36*
G01*
X65343750Y-69970000D02*
X65856250Y-69970000D01*
G75*
G02*
X66075000Y-70188750I0J-218750D01*
G01*
X66075000Y-70626250D01*
G75*
G02*
X65856250Y-70845000I-218750J0D01*
G01*
X65343750Y-70845000D01*
G75*
G02*
X65125000Y-70626250I0J218750D01*
G01*
X65125000Y-70188750D01*
G75*
G02*
X65343750Y-69970000I218750J0D01*
G01*
G37*
G36*
G01*
X65343750Y-68395000D02*
X65856250Y-68395000D01*
G75*
G02*
X66075000Y-68613750I0J-218750D01*
G01*
X66075000Y-69051250D01*
G75*
G02*
X65856250Y-69270000I-218750J0D01*
G01*
X65343750Y-69270000D01*
G75*
G02*
X65125000Y-69051250I0J218750D01*
G01*
X65125000Y-68613750D01*
G75*
G02*
X65343750Y-68395000I218750J0D01*
G01*
G37*
%TD*%
%TO.C,C2*%
G36*
G01*
X65856250Y-60150000D02*
X65343750Y-60150000D01*
G75*
G02*
X65125000Y-59931250I0J218750D01*
G01*
X65125000Y-59493750D01*
G75*
G02*
X65343750Y-59275000I218750J0D01*
G01*
X65856250Y-59275000D01*
G75*
G02*
X66075000Y-59493750I0J-218750D01*
G01*
X66075000Y-59931250D01*
G75*
G02*
X65856250Y-60150000I-218750J0D01*
G01*
G37*
G36*
G01*
X65856250Y-61725000D02*
X65343750Y-61725000D01*
G75*
G02*
X65125000Y-61506250I0J218750D01*
G01*
X65125000Y-61068750D01*
G75*
G02*
X65343750Y-60850000I218750J0D01*
G01*
X65856250Y-60850000D01*
G75*
G02*
X66075000Y-61068750I0J-218750D01*
G01*
X66075000Y-61506250D01*
G75*
G02*
X65856250Y-61725000I-218750J0D01*
G01*
G37*
%TD*%
%TO.C,D4*%
G36*
G01*
X99050000Y-90356250D02*
X99050000Y-89843750D01*
G75*
G02*
X99268750Y-89625000I218750J0D01*
G01*
X99706250Y-89625000D01*
G75*
G02*
X99925000Y-89843750I0J-218750D01*
G01*
X99925000Y-90356250D01*
G75*
G02*
X99706250Y-90575000I-218750J0D01*
G01*
X99268750Y-90575000D01*
G75*
G02*
X99050000Y-90356250I0J218750D01*
G01*
G37*
G36*
G01*
X97475000Y-90356250D02*
X97475000Y-89843750D01*
G75*
G02*
X97693750Y-89625000I218750J0D01*
G01*
X98131250Y-89625000D01*
G75*
G02*
X98350000Y-89843750I0J-218750D01*
G01*
X98350000Y-90356250D01*
G75*
G02*
X98131250Y-90575000I-218750J0D01*
G01*
X97693750Y-90575000D01*
G75*
G02*
X97475000Y-90356250I0J218750D01*
G01*
G37*
%TD*%
%TO.C,R1*%
G36*
G01*
X78325000Y-54925000D02*
X78325000Y-54375000D01*
G75*
G02*
X78525000Y-54175000I200000J0D01*
G01*
X78925000Y-54175000D01*
G75*
G02*
X79125000Y-54375000I0J-200000D01*
G01*
X79125000Y-54925000D01*
G75*
G02*
X78925000Y-55125000I-200000J0D01*
G01*
X78525000Y-55125000D01*
G75*
G02*
X78325000Y-54925000I0J200000D01*
G01*
G37*
G36*
G01*
X76675000Y-54925000D02*
X76675000Y-54375000D01*
G75*
G02*
X76875000Y-54175000I200000J0D01*
G01*
X77275000Y-54175000D01*
G75*
G02*
X77475000Y-54375000I0J-200000D01*
G01*
X77475000Y-54925000D01*
G75*
G02*
X77275000Y-55125000I-200000J0D01*
G01*
X76875000Y-55125000D01*
G75*
G02*
X76675000Y-54925000I0J200000D01*
G01*
G37*
%TD*%
%TO.C,R6*%
G36*
G01*
X65925000Y-50825000D02*
X66475000Y-50825000D01*
G75*
G02*
X66675000Y-51025000I0J-200000D01*
G01*
X66675000Y-51425000D01*
G75*
G02*
X66475000Y-51625000I-200000J0D01*
G01*
X65925000Y-51625000D01*
G75*
G02*
X65725000Y-51425000I0J200000D01*
G01*
X65725000Y-51025000D01*
G75*
G02*
X65925000Y-50825000I200000J0D01*
G01*
G37*
G36*
G01*
X65925000Y-49175000D02*
X66475000Y-49175000D01*
G75*
G02*
X66675000Y-49375000I0J-200000D01*
G01*
X66675000Y-49775000D01*
G75*
G02*
X66475000Y-49975000I-200000J0D01*
G01*
X65925000Y-49975000D01*
G75*
G02*
X65725000Y-49775000I0J200000D01*
G01*
X65725000Y-49375000D01*
G75*
G02*
X65925000Y-49175000I200000J0D01*
G01*
G37*
%TD*%
%TO.C,R5*%
G36*
G01*
X76125000Y-50625000D02*
X76675000Y-50625000D01*
G75*
G02*
X76875000Y-50825000I0J-200000D01*
G01*
X76875000Y-51225000D01*
G75*
G02*
X76675000Y-51425000I-200000J0D01*
G01*
X76125000Y-51425000D01*
G75*
G02*
X75925000Y-51225000I0J200000D01*
G01*
X75925000Y-50825000D01*
G75*
G02*
X76125000Y-50625000I200000J0D01*
G01*
G37*
G36*
G01*
X76125000Y-48975000D02*
X76675000Y-48975000D01*
G75*
G02*
X76875000Y-49175000I0J-200000D01*
G01*
X76875000Y-49575000D01*
G75*
G02*
X76675000Y-49775000I-200000J0D01*
G01*
X76125000Y-49775000D01*
G75*
G02*
X75925000Y-49575000I0J200000D01*
G01*
X75925000Y-49175000D01*
G75*
G02*
X76125000Y-48975000I200000J0D01*
G01*
G37*
%TD*%
%TO.C,R8*%
G36*
G01*
X71525000Y-50725000D02*
X72075000Y-50725000D01*
G75*
G02*
X72275000Y-50925000I0J-200000D01*
G01*
X72275000Y-51325000D01*
G75*
G02*
X72075000Y-51525000I-200000J0D01*
G01*
X71525000Y-51525000D01*
G75*
G02*
X71325000Y-51325000I0J200000D01*
G01*
X71325000Y-50925000D01*
G75*
G02*
X71525000Y-50725000I200000J0D01*
G01*
G37*
G36*
G01*
X71525000Y-49075000D02*
X72075000Y-49075000D01*
G75*
G02*
X72275000Y-49275000I0J-200000D01*
G01*
X72275000Y-49675000D01*
G75*
G02*
X72075000Y-49875000I-200000J0D01*
G01*
X71525000Y-49875000D01*
G75*
G02*
X71325000Y-49675000I0J200000D01*
G01*
X71325000Y-49275000D01*
G75*
G02*
X71525000Y-49075000I200000J0D01*
G01*
G37*
%TD*%
%TO.C,R7*%
G36*
G01*
X81525000Y-50825000D02*
X82075000Y-50825000D01*
G75*
G02*
X82275000Y-51025000I0J-200000D01*
G01*
X82275000Y-51425000D01*
G75*
G02*
X82075000Y-51625000I-200000J0D01*
G01*
X81525000Y-51625000D01*
G75*
G02*
X81325000Y-51425000I0J200000D01*
G01*
X81325000Y-51025000D01*
G75*
G02*
X81525000Y-50825000I200000J0D01*
G01*
G37*
G36*
G01*
X81525000Y-49175000D02*
X82075000Y-49175000D01*
G75*
G02*
X82275000Y-49375000I0J-200000D01*
G01*
X82275000Y-49775000D01*
G75*
G02*
X82075000Y-49975000I-200000J0D01*
G01*
X81525000Y-49975000D01*
G75*
G02*
X81325000Y-49775000I0J200000D01*
G01*
X81325000Y-49375000D01*
G75*
G02*
X81525000Y-49175000I200000J0D01*
G01*
G37*
%TD*%
%TO.C,R4*%
G36*
G01*
X98275000Y-88125000D02*
X98275000Y-88675000D01*
G75*
G02*
X98075000Y-88875000I-200000J0D01*
G01*
X97675000Y-88875000D01*
G75*
G02*
X97475000Y-88675000I0J200000D01*
G01*
X97475000Y-88125000D01*
G75*
G02*
X97675000Y-87925000I200000J0D01*
G01*
X98075000Y-87925000D01*
G75*
G02*
X98275000Y-88125000I0J-200000D01*
G01*
G37*
G36*
G01*
X99925000Y-88125000D02*
X99925000Y-88675000D01*
G75*
G02*
X99725000Y-88875000I-200000J0D01*
G01*
X99325000Y-88875000D01*
G75*
G02*
X99125000Y-88675000I0J200000D01*
G01*
X99125000Y-88125000D01*
G75*
G02*
X99325000Y-87925000I200000J0D01*
G01*
X99725000Y-87925000D01*
G75*
G02*
X99925000Y-88125000I0J-200000D01*
G01*
G37*
%TD*%
%TO.C,R3*%
G36*
G01*
X55875000Y-81925000D02*
X55875000Y-82475000D01*
G75*
G02*
X55675000Y-82675000I-200000J0D01*
G01*
X55275000Y-82675000D01*
G75*
G02*
X55075000Y-82475000I0J200000D01*
G01*
X55075000Y-81925000D01*
G75*
G02*
X55275000Y-81725000I200000J0D01*
G01*
X55675000Y-81725000D01*
G75*
G02*
X55875000Y-81925000I0J-200000D01*
G01*
G37*
G36*
G01*
X57525000Y-81925000D02*
X57525000Y-82475000D01*
G75*
G02*
X57325000Y-82675000I-200000J0D01*
G01*
X56925000Y-82675000D01*
G75*
G02*
X56725000Y-82475000I0J200000D01*
G01*
X56725000Y-81925000D01*
G75*
G02*
X56925000Y-81725000I200000J0D01*
G01*
X57325000Y-81725000D01*
G75*
G02*
X57525000Y-81925000I0J-200000D01*
G01*
G37*
%TD*%
%TO.C,R2*%
G36*
G01*
X102725000Y-87575000D02*
X102725000Y-87025000D01*
G75*
G02*
X102925000Y-86825000I200000J0D01*
G01*
X103325000Y-86825000D01*
G75*
G02*
X103525000Y-87025000I0J-200000D01*
G01*
X103525000Y-87575000D01*
G75*
G02*
X103325000Y-87775000I-200000J0D01*
G01*
X102925000Y-87775000D01*
G75*
G02*
X102725000Y-87575000I0J200000D01*
G01*
G37*
G36*
G01*
X101075000Y-87575000D02*
X101075000Y-87025000D01*
G75*
G02*
X101275000Y-86825000I200000J0D01*
G01*
X101675000Y-86825000D01*
G75*
G02*
X101875000Y-87025000I0J-200000D01*
G01*
X101875000Y-87575000D01*
G75*
G02*
X101675000Y-87775000I-200000J0D01*
G01*
X101275000Y-87775000D01*
G75*
G02*
X101075000Y-87575000I0J200000D01*
G01*
G37*
%TD*%
%TO.C,D3*%
G36*
G01*
X52850000Y-82456250D02*
X52850000Y-81943750D01*
G75*
G02*
X53068750Y-81725000I218750J0D01*
G01*
X53506250Y-81725000D01*
G75*
G02*
X53725000Y-81943750I0J-218750D01*
G01*
X53725000Y-82456250D01*
G75*
G02*
X53506250Y-82675000I-218750J0D01*
G01*
X53068750Y-82675000D01*
G75*
G02*
X52850000Y-82456250I0J218750D01*
G01*
G37*
G36*
G01*
X51275000Y-82456250D02*
X51275000Y-81943750D01*
G75*
G02*
X51493750Y-81725000I218750J0D01*
G01*
X51931250Y-81725000D01*
G75*
G02*
X52150000Y-81943750I0J-218750D01*
G01*
X52150000Y-82456250D01*
G75*
G02*
X51931250Y-82675000I-218750J0D01*
G01*
X51493750Y-82675000D01*
G75*
G02*
X51275000Y-82456250I0J218750D01*
G01*
G37*
%TD*%
%TO.C,D2*%
G36*
G01*
X105250000Y-87043750D02*
X105250000Y-87556250D01*
G75*
G02*
X105031250Y-87775000I-218750J0D01*
G01*
X104593750Y-87775000D01*
G75*
G02*
X104375000Y-87556250I0J218750D01*
G01*
X104375000Y-87043750D01*
G75*
G02*
X104593750Y-86825000I218750J0D01*
G01*
X105031250Y-86825000D01*
G75*
G02*
X105250000Y-87043750I0J-218750D01*
G01*
G37*
G36*
G01*
X106825000Y-87043750D02*
X106825000Y-87556250D01*
G75*
G02*
X106606250Y-87775000I-218750J0D01*
G01*
X106168750Y-87775000D01*
G75*
G02*
X105950000Y-87556250I0J218750D01*
G01*
X105950000Y-87043750D01*
G75*
G02*
X106168750Y-86825000I218750J0D01*
G01*
X106606250Y-86825000D01*
G75*
G02*
X106825000Y-87043750I0J-218750D01*
G01*
G37*
%TD*%
D10*
%TO.C,SW1*%
X108200000Y-90875000D03*
X114200000Y-90875000D03*
X108200000Y-87125000D03*
X114200000Y-87125000D03*
%TD*%
%TO.C,C6*%
G36*
G01*
X89300000Y-62550001D02*
X89300000Y-61249999D01*
G75*
G02*
X89549999Y-61000000I249999J0D01*
G01*
X90200001Y-61000000D01*
G75*
G02*
X90450000Y-61249999I0J-249999D01*
G01*
X90450000Y-62550001D01*
G75*
G02*
X90200001Y-62800000I-249999J0D01*
G01*
X89549999Y-62800000D01*
G75*
G02*
X89300000Y-62550001I0J249999D01*
G01*
G37*
G36*
G01*
X86350000Y-62550001D02*
X86350000Y-61249999D01*
G75*
G02*
X86599999Y-61000000I249999J0D01*
G01*
X87250001Y-61000000D01*
G75*
G02*
X87500000Y-61249999I0J-249999D01*
G01*
X87500000Y-62550001D01*
G75*
G02*
X87250001Y-62800000I-249999J0D01*
G01*
X86599999Y-62800000D01*
G75*
G02*
X86350000Y-62550001I0J249999D01*
G01*
G37*
%TD*%
%TO.C,C3*%
G36*
G01*
X74300000Y-54150001D02*
X74300000Y-52849999D01*
G75*
G02*
X74549999Y-52600000I249999J0D01*
G01*
X75200001Y-52600000D01*
G75*
G02*
X75450000Y-52849999I0J-249999D01*
G01*
X75450000Y-54150001D01*
G75*
G02*
X75200001Y-54400000I-249999J0D01*
G01*
X74549999Y-54400000D01*
G75*
G02*
X74300000Y-54150001I0J249999D01*
G01*
G37*
G36*
G01*
X71350000Y-54150001D02*
X71350000Y-52849999D01*
G75*
G02*
X71599999Y-52600000I249999J0D01*
G01*
X72250001Y-52600000D01*
G75*
G02*
X72500000Y-52849999I0J-249999D01*
G01*
X72500000Y-54150001D01*
G75*
G02*
X72250001Y-54400000I-249999J0D01*
G01*
X71599999Y-54400000D01*
G75*
G02*
X71350000Y-54150001I0J249999D01*
G01*
G37*
%TD*%
D11*
%TO.C,Q3*%
X70100000Y-50300000D03*
X68100000Y-51250000D03*
X68100000Y-49350000D03*
%TD*%
%TO.C,C8*%
G36*
G01*
X83100000Y-87750000D02*
X82000000Y-87750000D01*
G75*
G02*
X81750000Y-87500000I0J250000D01*
G01*
X81750000Y-85400000D01*
G75*
G02*
X82000000Y-85150000I250000J0D01*
G01*
X83100000Y-85150000D01*
G75*
G02*
X83350000Y-85400000I0J-250000D01*
G01*
X83350000Y-87500000D01*
G75*
G02*
X83100000Y-87750000I-250000J0D01*
G01*
G37*
G36*
G01*
X83100000Y-91350000D02*
X82000000Y-91350000D01*
G75*
G02*
X81750000Y-91100000I0J250000D01*
G01*
X81750000Y-89000000D01*
G75*
G02*
X82000000Y-88750000I250000J0D01*
G01*
X83100000Y-88750000D01*
G75*
G02*
X83350000Y-89000000I0J-250000D01*
G01*
X83350000Y-91100000D01*
G75*
G02*
X83100000Y-91350000I-250000J0D01*
G01*
G37*
%TD*%
%TO.C,C5*%
G36*
G01*
X61650000Y-81700000D02*
X62750000Y-81700000D01*
G75*
G02*
X63000000Y-81950000I0J-250000D01*
G01*
X63000000Y-84950000D01*
G75*
G02*
X62750000Y-85200000I-250000J0D01*
G01*
X61650000Y-85200000D01*
G75*
G02*
X61400000Y-84950000I0J250000D01*
G01*
X61400000Y-81950000D01*
G75*
G02*
X61650000Y-81700000I250000J0D01*
G01*
G37*
G36*
G01*
X61650000Y-76300000D02*
X62750000Y-76300000D01*
G75*
G02*
X63000000Y-76550000I0J-250000D01*
G01*
X63000000Y-79550000D01*
G75*
G02*
X62750000Y-79800000I-250000J0D01*
G01*
X61650000Y-79800000D01*
G75*
G02*
X61400000Y-79550000I0J250000D01*
G01*
X61400000Y-76550000D01*
G75*
G02*
X61650000Y-76300000I250000J0D01*
G01*
G37*
%TD*%
%TO.C,C1*%
G36*
G01*
X68750000Y-100400000D02*
X68750000Y-101500000D01*
G75*
G02*
X68500000Y-101750000I-250000J0D01*
G01*
X65500000Y-101750000D01*
G75*
G02*
X65250000Y-101500000I0J250000D01*
G01*
X65250000Y-100400000D01*
G75*
G02*
X65500000Y-100150000I250000J0D01*
G01*
X68500000Y-100150000D01*
G75*
G02*
X68750000Y-100400000I0J-250000D01*
G01*
G37*
G36*
G01*
X74150000Y-100400000D02*
X74150000Y-101500000D01*
G75*
G02*
X73900000Y-101750000I-250000J0D01*
G01*
X70900000Y-101750000D01*
G75*
G02*
X70650000Y-101500000I0J250000D01*
G01*
X70650000Y-100400000D01*
G75*
G02*
X70900000Y-100150000I250000J0D01*
G01*
X73900000Y-100150000D01*
G75*
G02*
X74150000Y-100400000I0J-250000D01*
G01*
G37*
%TD*%
D12*
%TO.C,L1*%
X77450000Y-78900000D03*
X67650000Y-78900000D03*
%TD*%
D11*
%TO.C,Q2*%
X80000000Y-50250000D03*
X78000000Y-51200000D03*
X78000000Y-49300000D03*
%TD*%
D13*
%TO.C,U1*%
X76750000Y-58200000D03*
X77550000Y-58200000D03*
X78350000Y-58200000D03*
X79150000Y-58200000D03*
X79950000Y-58200000D03*
X80750000Y-58200000D03*
X81550000Y-58200000D03*
X82350000Y-58200000D03*
D14*
X83800000Y-59650000D03*
X83800000Y-60450000D03*
X83800000Y-61250000D03*
X83800000Y-62050000D03*
X83800000Y-62850000D03*
X83800000Y-63650000D03*
X83800000Y-64450000D03*
X83800000Y-65250000D03*
D13*
X82350000Y-66700000D03*
X81550000Y-66700000D03*
X80750000Y-66700000D03*
X79950000Y-66700000D03*
X79150000Y-66700000D03*
X78350000Y-66700000D03*
X77550000Y-66700000D03*
X76750000Y-66700000D03*
D14*
X75300000Y-65250000D03*
X75300000Y-64450000D03*
X75300000Y-63650000D03*
X75300000Y-62850000D03*
X75300000Y-62050000D03*
X75300000Y-61250000D03*
X75300000Y-60450000D03*
X75300000Y-59650000D03*
%TD*%
D11*
%TO.C,Q1*%
X61900000Y-99250000D03*
X63900000Y-98300000D03*
X63900000Y-100200000D03*
%TD*%
%TO.C,D1*%
G36*
G01*
X77630000Y-90190000D02*
X76870000Y-90190000D01*
G75*
G02*
X76490000Y-89810000I0J380000D01*
G01*
X76490000Y-88890000D01*
G75*
G02*
X76870000Y-88510000I380000J0D01*
G01*
X77630000Y-88510000D01*
G75*
G02*
X78010000Y-88890000I0J-380000D01*
G01*
X78010000Y-89810000D01*
G75*
G02*
X77630000Y-90190000I-380000J0D01*
G01*
G37*
G36*
G01*
X77630000Y-94090000D02*
X76870000Y-94090000D01*
G75*
G02*
X76490000Y-93710000I0J380000D01*
G01*
X76490000Y-92790000D01*
G75*
G02*
X76870000Y-92410000I380000J0D01*
G01*
X77630000Y-92410000D01*
G75*
G02*
X78010000Y-92790000I0J-380000D01*
G01*
X78010000Y-93710000D01*
G75*
G02*
X77630000Y-94090000I-380000J0D01*
G01*
G37*
%TD*%
%TO.C,C11*%
G36*
G01*
X85750001Y-82300000D02*
X84449999Y-82300000D01*
G75*
G02*
X84200000Y-82050001I0J249999D01*
G01*
X84200000Y-81399999D01*
G75*
G02*
X84449999Y-81150000I249999J0D01*
G01*
X85750001Y-81150000D01*
G75*
G02*
X86000000Y-81399999I0J-249999D01*
G01*
X86000000Y-82050001D01*
G75*
G02*
X85750001Y-82300000I-249999J0D01*
G01*
G37*
G36*
G01*
X85750001Y-85250000D02*
X84449999Y-85250000D01*
G75*
G02*
X84200000Y-85000001I0J249999D01*
G01*
X84200000Y-84349999D01*
G75*
G02*
X84449999Y-84100000I249999J0D01*
G01*
X85750001Y-84100000D01*
G75*
G02*
X86000000Y-84349999I0J-249999D01*
G01*
X86000000Y-85000001D01*
G75*
G02*
X85750001Y-85250000I-249999J0D01*
G01*
G37*
%TD*%
%TO.C,C10*%
G36*
G01*
X95649999Y-95400000D02*
X96950001Y-95400000D01*
G75*
G02*
X97200000Y-95649999I0J-249999D01*
G01*
X97200000Y-96300001D01*
G75*
G02*
X96950001Y-96550000I-249999J0D01*
G01*
X95649999Y-96550000D01*
G75*
G02*
X95400000Y-96300001I0J249999D01*
G01*
X95400000Y-95649999D01*
G75*
G02*
X95649999Y-95400000I249999J0D01*
G01*
G37*
G36*
G01*
X95649999Y-92450000D02*
X96950001Y-92450000D01*
G75*
G02*
X97200000Y-92699999I0J-249999D01*
G01*
X97200000Y-93350001D01*
G75*
G02*
X96950001Y-93600000I-249999J0D01*
G01*
X95649999Y-93600000D01*
G75*
G02*
X95400000Y-93350001I0J249999D01*
G01*
X95400000Y-92699999D01*
G75*
G02*
X95649999Y-92450000I249999J0D01*
G01*
G37*
%TD*%
%TO.C,C9*%
G36*
G01*
X88600000Y-95650001D02*
X88600000Y-94349999D01*
G75*
G02*
X88849999Y-94100000I249999J0D01*
G01*
X89500001Y-94100000D01*
G75*
G02*
X89750000Y-94349999I0J-249999D01*
G01*
X89750000Y-95650001D01*
G75*
G02*
X89500001Y-95900000I-249999J0D01*
G01*
X88849999Y-95900000D01*
G75*
G02*
X88600000Y-95650001I0J249999D01*
G01*
G37*
G36*
G01*
X85650000Y-95650001D02*
X85650000Y-94349999D01*
G75*
G02*
X85899999Y-94100000I249999J0D01*
G01*
X86550001Y-94100000D01*
G75*
G02*
X86800000Y-94349999I0J-249999D01*
G01*
X86800000Y-95650001D01*
G75*
G02*
X86550001Y-95900000I-249999J0D01*
G01*
X85899999Y-95900000D01*
G75*
G02*
X85650000Y-95650001I0J249999D01*
G01*
G37*
%TD*%
%TO.C,C7*%
G36*
G01*
X96249999Y-85600000D02*
X97550001Y-85600000D01*
G75*
G02*
X97800000Y-85849999I0J-249999D01*
G01*
X97800000Y-86500001D01*
G75*
G02*
X97550001Y-86750000I-249999J0D01*
G01*
X96249999Y-86750000D01*
G75*
G02*
X96000000Y-86500001I0J249999D01*
G01*
X96000000Y-85849999D01*
G75*
G02*
X96249999Y-85600000I249999J0D01*
G01*
G37*
G36*
G01*
X96249999Y-82650000D02*
X97550001Y-82650000D01*
G75*
G02*
X97800000Y-82899999I0J-249999D01*
G01*
X97800000Y-83550001D01*
G75*
G02*
X97550001Y-83800000I-249999J0D01*
G01*
X96249999Y-83800000D01*
G75*
G02*
X96000000Y-83550001I0J249999D01*
G01*
X96000000Y-82899999D01*
G75*
G02*
X96249999Y-82650000I249999J0D01*
G01*
G37*
%TD*%
D15*
%TO.C,U2*%
X64450000Y-88725000D03*
X59600000Y-94275000D03*
X64450000Y-94275000D03*
X59600000Y-88725000D03*
D16*
X71175000Y-88100000D03*
X71175000Y-89800000D03*
X71175000Y-91500000D03*
X71175000Y-93200000D03*
X71175000Y-94900000D03*
%TD*%
D17*
%TO.C,U3*%
X87425000Y-83600000D03*
X88075000Y-83600000D03*
X88725000Y-83600000D03*
X89375000Y-83600000D03*
X90025000Y-83600000D03*
X90675000Y-83600000D03*
X91325000Y-83600000D03*
X91975000Y-83600000D03*
X92625000Y-83600000D03*
X93275000Y-83600000D03*
X93925000Y-83600000D03*
X94575000Y-83600000D03*
X94575000Y-90800000D03*
X93925000Y-90800000D03*
X93275000Y-90800000D03*
X92625000Y-90800000D03*
X91975000Y-90800000D03*
X91325000Y-90800000D03*
X90675000Y-90800000D03*
X90025000Y-90800000D03*
X89375000Y-90800000D03*
X88725000Y-90800000D03*
X88075000Y-90800000D03*
X87425000Y-90800000D03*
%TD*%
M02*
