%TF.GenerationSoftware,KiCad,Pcbnew,5.1.10*%
%TF.CreationDate,2021-11-02T21:36:03+05:45*%
%TF.ProjectId,RobotHat,526f626f-7448-4617-942e-6b696361645f,rev?*%
%TF.SameCoordinates,Original*%
%TF.FileFunction,Copper,L1,Top*%
%TF.FilePolarity,Positive*%
%FSLAX46Y46*%
G04 Gerber Fmt 4.6, Leading zero omitted, Abs format (unit mm)*
G04 Created by KiCad (PCBNEW 5.1.10) date 2021-11-02 21:36:03*
%MOMM*%
%LPD*%
G01*
G04 APERTURE LIST*
%TA.AperFunction,SMDPad,CuDef*%
%ADD10R,1.600000X0.300000*%
%TD*%
%TA.AperFunction,SMDPad,CuDef*%
%ADD11R,0.900000X0.800000*%
%TD*%
%TA.AperFunction,ComponentPad*%
%ADD12O,1.950000X1.700000*%
%TD*%
%TA.AperFunction,SMDPad,CuDef*%
%ADD13R,2.800000X5.400000*%
%TD*%
%TA.AperFunction,SMDPad,CuDef*%
%ADD14R,1.050000X0.650000*%
%TD*%
%TA.AperFunction,ComponentPad*%
%ADD15O,1.700000X1.700000*%
%TD*%
%TA.AperFunction,ComponentPad*%
%ADD16R,1.700000X1.700000*%
%TD*%
%TA.AperFunction,SMDPad,CuDef*%
%ADD17R,0.550000X1.600000*%
%TD*%
%TA.AperFunction,SMDPad,CuDef*%
%ADD18R,1.600000X0.550000*%
%TD*%
%TA.AperFunction,ComponentPad*%
%ADD19C,4.700000*%
%TD*%
%TA.AperFunction,ComponentPad*%
%ADD20O,2.000000X1.700000*%
%TD*%
%TA.AperFunction,SMDPad,CuDef*%
%ADD21R,9.400000X10.800000*%
%TD*%
%TA.AperFunction,SMDPad,CuDef*%
%ADD22R,4.600000X1.100000*%
%TD*%
%TA.AperFunction,SMDPad,CuDef*%
%ADD23R,0.450000X1.750000*%
%TD*%
%TA.AperFunction,ComponentPad*%
%ADD24O,1.700000X2.000000*%
%TD*%
%TA.AperFunction,ComponentPad*%
%ADD25O,1.700000X1.950000*%
%TD*%
%TA.AperFunction,ViaPad*%
%ADD26C,0.800000*%
%TD*%
%TA.AperFunction,Conductor*%
%ADD27C,1.000000*%
%TD*%
%TA.AperFunction,Conductor*%
%ADD28C,0.250000*%
%TD*%
%TA.AperFunction,Conductor*%
%ADD29C,0.300000*%
%TD*%
%TA.AperFunction,Conductor*%
%ADD30C,0.400000*%
%TD*%
%TA.AperFunction,Conductor*%
%ADD31C,0.254000*%
%TD*%
%TA.AperFunction,Conductor*%
%ADD32C,0.100000*%
%TD*%
G04 APERTURE END LIST*
D10*
%TO.P,Y1,2*%
%TO.N,XTAL2*%
X71400000Y-65600000D03*
%TO.P,Y1,3*%
%TO.N,GND*%
X71400000Y-64650000D03*
%TO.P,Y1,1*%
%TO.N,XTAL1*%
X71400000Y-63700000D03*
%TD*%
D11*
%TO.P,Q3,3*%
%TO.N,SCL*%
X70100000Y-50300000D03*
%TO.P,Q3,2*%
%TO.N,3v3_SCL*%
X68100000Y-51250000D03*
%TO.P,Q3,1*%
%TO.N,+3V3*%
X68100000Y-49350000D03*
%TD*%
%TO.P,R10,2*%
%TO.N,3v3_SCL*%
%TA.AperFunction,SMDPad,CuDef*%
G36*
G01*
X65799999Y-50700000D02*
X66700001Y-50700000D01*
G75*
G02*
X66950000Y-50949999I0J-249999D01*
G01*
X66950000Y-51475001D01*
G75*
G02*
X66700001Y-51725000I-249999J0D01*
G01*
X65799999Y-51725000D01*
G75*
G02*
X65550000Y-51475001I0J249999D01*
G01*
X65550000Y-50949999D01*
G75*
G02*
X65799999Y-50700000I249999J0D01*
G01*
G37*
%TD.AperFunction*%
%TO.P,R10,1*%
%TO.N,+3V3*%
%TA.AperFunction,SMDPad,CuDef*%
G36*
G01*
X65799999Y-48875000D02*
X66700001Y-48875000D01*
G75*
G02*
X66950000Y-49124999I0J-249999D01*
G01*
X66950000Y-49650001D01*
G75*
G02*
X66700001Y-49900000I-249999J0D01*
G01*
X65799999Y-49900000D01*
G75*
G02*
X65550000Y-49650001I0J249999D01*
G01*
X65550000Y-49124999D01*
G75*
G02*
X65799999Y-48875000I249999J0D01*
G01*
G37*
%TD.AperFunction*%
%TD*%
%TO.P,R9,2*%
%TO.N,3v3_SDA*%
%TA.AperFunction,SMDPad,CuDef*%
G36*
G01*
X75749999Y-50650000D02*
X76650001Y-50650000D01*
G75*
G02*
X76900000Y-50899999I0J-249999D01*
G01*
X76900000Y-51425001D01*
G75*
G02*
X76650001Y-51675000I-249999J0D01*
G01*
X75749999Y-51675000D01*
G75*
G02*
X75500000Y-51425001I0J249999D01*
G01*
X75500000Y-50899999D01*
G75*
G02*
X75749999Y-50650000I249999J0D01*
G01*
G37*
%TD.AperFunction*%
%TO.P,R9,1*%
%TO.N,+3V3*%
%TA.AperFunction,SMDPad,CuDef*%
G36*
G01*
X75749999Y-48825000D02*
X76650001Y-48825000D01*
G75*
G02*
X76900000Y-49074999I0J-249999D01*
G01*
X76900000Y-49600001D01*
G75*
G02*
X76650001Y-49850000I-249999J0D01*
G01*
X75749999Y-49850000D01*
G75*
G02*
X75500000Y-49600001I0J249999D01*
G01*
X75500000Y-49074999D01*
G75*
G02*
X75749999Y-48825000I249999J0D01*
G01*
G37*
%TD.AperFunction*%
%TD*%
%TO.P,R8,2*%
%TO.N,SCL*%
%TA.AperFunction,SMDPad,CuDef*%
G36*
G01*
X71549999Y-50700000D02*
X72450001Y-50700000D01*
G75*
G02*
X72700000Y-50949999I0J-249999D01*
G01*
X72700000Y-51475001D01*
G75*
G02*
X72450001Y-51725000I-249999J0D01*
G01*
X71549999Y-51725000D01*
G75*
G02*
X71300000Y-51475001I0J249999D01*
G01*
X71300000Y-50949999D01*
G75*
G02*
X71549999Y-50700000I249999J0D01*
G01*
G37*
%TD.AperFunction*%
%TO.P,R8,1*%
%TO.N,+5V*%
%TA.AperFunction,SMDPad,CuDef*%
G36*
G01*
X71549999Y-48875000D02*
X72450001Y-48875000D01*
G75*
G02*
X72700000Y-49124999I0J-249999D01*
G01*
X72700000Y-49650001D01*
G75*
G02*
X72450001Y-49900000I-249999J0D01*
G01*
X71549999Y-49900000D01*
G75*
G02*
X71300000Y-49650001I0J249999D01*
G01*
X71300000Y-49124999D01*
G75*
G02*
X71549999Y-48875000I249999J0D01*
G01*
G37*
%TD.AperFunction*%
%TD*%
%TO.P,R7,2*%
%TO.N,SDA*%
%TA.AperFunction,SMDPad,CuDef*%
G36*
G01*
X81399999Y-50700000D02*
X82300001Y-50700000D01*
G75*
G02*
X82550000Y-50949999I0J-249999D01*
G01*
X82550000Y-51475001D01*
G75*
G02*
X82300001Y-51725000I-249999J0D01*
G01*
X81399999Y-51725000D01*
G75*
G02*
X81150000Y-51475001I0J249999D01*
G01*
X81150000Y-50949999D01*
G75*
G02*
X81399999Y-50700000I249999J0D01*
G01*
G37*
%TD.AperFunction*%
%TO.P,R7,1*%
%TO.N,+5V*%
%TA.AperFunction,SMDPad,CuDef*%
G36*
G01*
X81399999Y-48875000D02*
X82300001Y-48875000D01*
G75*
G02*
X82550000Y-49124999I0J-249999D01*
G01*
X82550000Y-49650001D01*
G75*
G02*
X82300001Y-49900000I-249999J0D01*
G01*
X81399999Y-49900000D01*
G75*
G02*
X81150000Y-49650001I0J249999D01*
G01*
X81150000Y-49124999D01*
G75*
G02*
X81399999Y-48875000I249999J0D01*
G01*
G37*
%TD.AperFunction*%
%TD*%
%TO.P,R3,2*%
%TO.N,RESET*%
%TA.AperFunction,SMDPad,CuDef*%
G36*
G01*
X78300000Y-55100001D02*
X78300000Y-54199999D01*
G75*
G02*
X78549999Y-53950000I249999J0D01*
G01*
X79075001Y-53950000D01*
G75*
G02*
X79325000Y-54199999I0J-249999D01*
G01*
X79325000Y-55100001D01*
G75*
G02*
X79075001Y-55350000I-249999J0D01*
G01*
X78549999Y-55350000D01*
G75*
G02*
X78300000Y-55100001I0J249999D01*
G01*
G37*
%TD.AperFunction*%
%TO.P,R3,1*%
%TO.N,+5V*%
%TA.AperFunction,SMDPad,CuDef*%
G36*
G01*
X76475000Y-55100001D02*
X76475000Y-54199999D01*
G75*
G02*
X76724999Y-53950000I249999J0D01*
G01*
X77250001Y-53950000D01*
G75*
G02*
X77500000Y-54199999I0J-249999D01*
G01*
X77500000Y-55100001D01*
G75*
G02*
X77250001Y-55350000I-249999J0D01*
G01*
X76724999Y-55350000D01*
G75*
G02*
X76475000Y-55100001I0J249999D01*
G01*
G37*
%TD.AperFunction*%
%TD*%
D12*
%TO.P,J6,4*%
%TO.N,SCL*%
X112050000Y-82850000D03*
%TO.P,J6,3*%
%TO.N,SDA*%
X112050000Y-80350000D03*
%TO.P,J6,2*%
%TO.N,+5V*%
X112050000Y-77850000D03*
%TO.P,J6,1*%
%TO.N,GND*%
%TA.AperFunction,ComponentPad*%
G36*
G01*
X111325000Y-74500000D02*
X112775000Y-74500000D01*
G75*
G02*
X113025000Y-74750000I0J-250000D01*
G01*
X113025000Y-75950000D01*
G75*
G02*
X112775000Y-76200000I-250000J0D01*
G01*
X111325000Y-76200000D01*
G75*
G02*
X111075000Y-75950000I0J250000D01*
G01*
X111075000Y-74750000D01*
G75*
G02*
X111325000Y-74500000I250000J0D01*
G01*
G37*
%TD.AperFunction*%
%TD*%
%TO.P,C8,2*%
%TO.N,GND*%
%TA.AperFunction,SMDPad,CuDef*%
G36*
G01*
X83100000Y-87750000D02*
X82000000Y-87750000D01*
G75*
G02*
X81750000Y-87500000I0J250000D01*
G01*
X81750000Y-85400000D01*
G75*
G02*
X82000000Y-85150000I250000J0D01*
G01*
X83100000Y-85150000D01*
G75*
G02*
X83350000Y-85400000I0J-250000D01*
G01*
X83350000Y-87500000D01*
G75*
G02*
X83100000Y-87750000I-250000J0D01*
G01*
G37*
%TD.AperFunction*%
%TO.P,C8,1*%
%TO.N,+9VA*%
%TA.AperFunction,SMDPad,CuDef*%
G36*
G01*
X83100000Y-91350000D02*
X82000000Y-91350000D01*
G75*
G02*
X81750000Y-91100000I0J250000D01*
G01*
X81750000Y-89000000D01*
G75*
G02*
X82000000Y-88750000I250000J0D01*
G01*
X83100000Y-88750000D01*
G75*
G02*
X83350000Y-89000000I0J-250000D01*
G01*
X83350000Y-91100000D01*
G75*
G02*
X83100000Y-91350000I-250000J0D01*
G01*
G37*
%TD.AperFunction*%
%TD*%
%TO.P,C5,2*%
%TO.N,GND*%
%TA.AperFunction,SMDPad,CuDef*%
G36*
G01*
X61650000Y-81700000D02*
X62750000Y-81700000D01*
G75*
G02*
X63000000Y-81950000I0J-250000D01*
G01*
X63000000Y-84950000D01*
G75*
G02*
X62750000Y-85200000I-250000J0D01*
G01*
X61650000Y-85200000D01*
G75*
G02*
X61400000Y-84950000I0J250000D01*
G01*
X61400000Y-81950000D01*
G75*
G02*
X61650000Y-81700000I250000J0D01*
G01*
G37*
%TD.AperFunction*%
%TO.P,C5,1*%
%TO.N,+5V*%
%TA.AperFunction,SMDPad,CuDef*%
G36*
G01*
X61650000Y-76300000D02*
X62750000Y-76300000D01*
G75*
G02*
X63000000Y-76550000I0J-250000D01*
G01*
X63000000Y-79550000D01*
G75*
G02*
X62750000Y-79800000I-250000J0D01*
G01*
X61650000Y-79800000D01*
G75*
G02*
X61400000Y-79550000I0J250000D01*
G01*
X61400000Y-76550000D01*
G75*
G02*
X61650000Y-76300000I250000J0D01*
G01*
G37*
%TD.AperFunction*%
%TD*%
%TO.P,C1,2*%
%TO.N,GND*%
%TA.AperFunction,SMDPad,CuDef*%
G36*
G01*
X68750000Y-100400000D02*
X68750000Y-101500000D01*
G75*
G02*
X68500000Y-101750000I-250000J0D01*
G01*
X65500000Y-101750000D01*
G75*
G02*
X65250000Y-101500000I0J250000D01*
G01*
X65250000Y-100400000D01*
G75*
G02*
X65500000Y-100150000I250000J0D01*
G01*
X68500000Y-100150000D01*
G75*
G02*
X68750000Y-100400000I0J-250000D01*
G01*
G37*
%TD.AperFunction*%
%TO.P,C1,1*%
%TO.N,+9VA*%
%TA.AperFunction,SMDPad,CuDef*%
G36*
G01*
X74150000Y-100400000D02*
X74150000Y-101500000D01*
G75*
G02*
X73900000Y-101750000I-250000J0D01*
G01*
X70900000Y-101750000D01*
G75*
G02*
X70650000Y-101500000I0J250000D01*
G01*
X70650000Y-100400000D01*
G75*
G02*
X70900000Y-100150000I250000J0D01*
G01*
X73900000Y-100150000D01*
G75*
G02*
X74150000Y-100400000I0J-250000D01*
G01*
G37*
%TD.AperFunction*%
%TD*%
D13*
%TO.P,L1,2*%
%TO.N,Net-(D1-Pad1)*%
X77450000Y-78900000D03*
%TO.P,L1,1*%
%TO.N,+5V*%
X67650000Y-78900000D03*
%TD*%
D11*
%TO.P,Q2,3*%
%TO.N,SDA*%
X80000000Y-50250000D03*
%TO.P,Q2,2*%
%TO.N,3v3_SDA*%
X78000000Y-51200000D03*
%TO.P,Q2,1*%
%TO.N,+3V3*%
X78000000Y-49300000D03*
%TD*%
D14*
%TO.P,SW1,2*%
%TO.N,GND*%
X113800000Y-90525000D03*
%TO.P,SW1,1*%
%TO.N,RESET*%
X113825000Y-88375000D03*
%TO.P,SW1,2*%
%TO.N,GND*%
X109675000Y-90525000D03*
%TO.P,SW1,1*%
%TO.N,RESET*%
X109675000Y-88375000D03*
%TD*%
%TO.P,R6,2*%
%TO.N,Net-(D4-Pad2)*%
%TA.AperFunction,SMDPad,CuDef*%
G36*
G01*
X89060000Y-78515000D02*
X89060000Y-78885000D01*
G75*
G02*
X88925000Y-79020000I-135000J0D01*
G01*
X88655000Y-79020000D01*
G75*
G02*
X88520000Y-78885000I0J135000D01*
G01*
X88520000Y-78515000D01*
G75*
G02*
X88655000Y-78380000I135000J0D01*
G01*
X88925000Y-78380000D01*
G75*
G02*
X89060000Y-78515000I0J-135000D01*
G01*
G37*
%TD.AperFunction*%
%TO.P,R6,1*%
%TO.N,D4*%
%TA.AperFunction,SMDPad,CuDef*%
G36*
G01*
X90080000Y-78515000D02*
X90080000Y-78885000D01*
G75*
G02*
X89945000Y-79020000I-135000J0D01*
G01*
X89675000Y-79020000D01*
G75*
G02*
X89540000Y-78885000I0J135000D01*
G01*
X89540000Y-78515000D01*
G75*
G02*
X89675000Y-78380000I135000J0D01*
G01*
X89945000Y-78380000D01*
G75*
G02*
X90080000Y-78515000I0J-135000D01*
G01*
G37*
%TD.AperFunction*%
%TD*%
%TO.P,D4,2*%
%TO.N,Net-(D4-Pad2)*%
%TA.AperFunction,SMDPad,CuDef*%
G36*
G01*
X87610000Y-77327500D02*
X87610000Y-77672500D01*
G75*
G02*
X87462500Y-77820000I-147500J0D01*
G01*
X87167500Y-77820000D01*
G75*
G02*
X87020000Y-77672500I0J147500D01*
G01*
X87020000Y-77327500D01*
G75*
G02*
X87167500Y-77180000I147500J0D01*
G01*
X87462500Y-77180000D01*
G75*
G02*
X87610000Y-77327500I0J-147500D01*
G01*
G37*
%TD.AperFunction*%
%TO.P,D4,1*%
%TO.N,GND*%
%TA.AperFunction,SMDPad,CuDef*%
G36*
G01*
X88580000Y-77327500D02*
X88580000Y-77672500D01*
G75*
G02*
X88432500Y-77820000I-147500J0D01*
G01*
X88137500Y-77820000D01*
G75*
G02*
X87990000Y-77672500I0J147500D01*
G01*
X87990000Y-77327500D01*
G75*
G02*
X88137500Y-77180000I147500J0D01*
G01*
X88432500Y-77180000D01*
G75*
G02*
X88580000Y-77327500I0J-147500D01*
G01*
G37*
%TD.AperFunction*%
%TD*%
D15*
%TO.P,J4,6*%
%TO.N,GND*%
X102760000Y-79370000D03*
%TO.P,J4,5*%
%TO.N,RESET*%
X105300000Y-79370000D03*
%TO.P,J4,4*%
%TO.N,MOSI*%
X102760000Y-81910000D03*
%TO.P,J4,3*%
%TO.N,SCK*%
X105300000Y-81910000D03*
%TO.P,J4,2*%
%TO.N,+5V*%
X102760000Y-84450000D03*
D16*
%TO.P,J4,1*%
%TO.N,MISO*%
X105300000Y-84450000D03*
%TD*%
D15*
%TO.P,J5,6*%
%TO.N,DTR*%
X60850000Y-50750000D03*
%TO.P,J5,5*%
%TO.N,TXO*%
X60850000Y-53290000D03*
%TO.P,J5,4*%
%TO.N,RXI*%
X60850000Y-55830000D03*
%TO.P,J5,3*%
%TO.N,+5V*%
X60850000Y-58370000D03*
%TO.P,J5,2*%
%TO.N,GND*%
X60850000Y-60910000D03*
D16*
%TO.P,J5,1*%
X60850000Y-63450000D03*
%TD*%
D17*
%TO.P,U1,32*%
%TO.N,D2*%
X76750000Y-58200000D03*
%TO.P,U1,31*%
%TO.N,TXO*%
X77550000Y-58200000D03*
%TO.P,U1,30*%
%TO.N,RXI*%
X78350000Y-58200000D03*
%TO.P,U1,29*%
%TO.N,RESET*%
X79150000Y-58200000D03*
%TO.P,U1,28*%
%TO.N,SCL*%
X79950000Y-58200000D03*
%TO.P,U1,27*%
%TO.N,SDA*%
X80750000Y-58200000D03*
%TO.P,U1,26*%
%TO.N,A3*%
X81550000Y-58200000D03*
%TO.P,U1,25*%
%TO.N,A2*%
X82350000Y-58200000D03*
D18*
%TO.P,U1,24*%
%TO.N,A1*%
X83800000Y-59650000D03*
%TO.P,U1,23*%
%TO.N,A0*%
X83800000Y-60450000D03*
%TO.P,U1,22*%
%TO.N,A7*%
X83800000Y-61250000D03*
%TO.P,U1,21*%
%TO.N,GND*%
X83800000Y-62050000D03*
%TO.P,U1,20*%
%TO.N,AREF*%
X83800000Y-62850000D03*
%TO.P,U1,19*%
%TO.N,A6*%
X83800000Y-63650000D03*
%TO.P,U1,18*%
%TO.N,+5V*%
X83800000Y-64450000D03*
%TO.P,U1,17*%
%TO.N,SCK*%
X83800000Y-65250000D03*
D17*
%TO.P,U1,16*%
%TO.N,MISO*%
X82350000Y-66700000D03*
%TO.P,U1,15*%
%TO.N,MOSI*%
X81550000Y-66700000D03*
%TO.P,U1,14*%
%TO.N,D10*%
X80750000Y-66700000D03*
%TO.P,U1,13*%
%TO.N,D9*%
X79950000Y-66700000D03*
%TO.P,U1,12*%
%TO.N,D8*%
X79150000Y-66700000D03*
%TO.P,U1,11*%
%TO.N,D7*%
X78350000Y-66700000D03*
%TO.P,U1,10*%
%TO.N,D6*%
X77550000Y-66700000D03*
%TO.P,U1,9*%
%TO.N,D5*%
X76750000Y-66700000D03*
D18*
%TO.P,U1,8*%
%TO.N,XTAL2*%
X75300000Y-65250000D03*
%TO.P,U1,7*%
%TO.N,XTAL1*%
X75300000Y-64450000D03*
%TO.P,U1,6*%
%TO.N,+5V*%
X75300000Y-63650000D03*
%TO.P,U1,5*%
%TO.N,GND*%
X75300000Y-62850000D03*
%TO.P,U1,4*%
%TO.N,+5V*%
X75300000Y-62050000D03*
%TO.P,U1,3*%
%TO.N,GND*%
X75300000Y-61250000D03*
%TO.P,U1,2*%
%TO.N,D4*%
X75300000Y-60450000D03*
%TO.P,U1,1*%
%TO.N,D3*%
X75300000Y-59650000D03*
%TD*%
D11*
%TO.P,Q1,3*%
%TO.N,+9V*%
X61900000Y-99250000D03*
%TO.P,Q1,2*%
%TO.N,+9VA*%
X63900000Y-98300000D03*
%TO.P,Q1,1*%
%TO.N,GND*%
X63900000Y-100200000D03*
%TD*%
%TO.P,D1,2*%
%TO.N,GND*%
%TA.AperFunction,SMDPad,CuDef*%
G36*
G01*
X77630000Y-90190000D02*
X76870000Y-90190000D01*
G75*
G02*
X76490000Y-89810000I0J380000D01*
G01*
X76490000Y-88890000D01*
G75*
G02*
X76870000Y-88510000I380000J0D01*
G01*
X77630000Y-88510000D01*
G75*
G02*
X78010000Y-88890000I0J-380000D01*
G01*
X78010000Y-89810000D01*
G75*
G02*
X77630000Y-90190000I-380000J0D01*
G01*
G37*
%TD.AperFunction*%
%TO.P,D1,1*%
%TO.N,Net-(D1-Pad1)*%
%TA.AperFunction,SMDPad,CuDef*%
G36*
G01*
X77630000Y-94090000D02*
X76870000Y-94090000D01*
G75*
G02*
X76490000Y-93710000I0J380000D01*
G01*
X76490000Y-92790000D01*
G75*
G02*
X76870000Y-92410000I380000J0D01*
G01*
X77630000Y-92410000D01*
G75*
G02*
X78010000Y-92790000I0J-380000D01*
G01*
X78010000Y-93710000D01*
G75*
G02*
X77630000Y-94090000I-380000J0D01*
G01*
G37*
%TD.AperFunction*%
%TD*%
%TO.P,R5,2*%
%TO.N,Net-(D3-Pad2)*%
%TA.AperFunction,SMDPad,CuDef*%
G36*
G01*
X55560000Y-82015000D02*
X55560000Y-82385000D01*
G75*
G02*
X55425000Y-82520000I-135000J0D01*
G01*
X55155000Y-82520000D01*
G75*
G02*
X55020000Y-82385000I0J135000D01*
G01*
X55020000Y-82015000D01*
G75*
G02*
X55155000Y-81880000I135000J0D01*
G01*
X55425000Y-81880000D01*
G75*
G02*
X55560000Y-82015000I0J-135000D01*
G01*
G37*
%TD.AperFunction*%
%TO.P,R5,1*%
%TO.N,+5V*%
%TA.AperFunction,SMDPad,CuDef*%
G36*
G01*
X56580000Y-82015000D02*
X56580000Y-82385000D01*
G75*
G02*
X56445000Y-82520000I-135000J0D01*
G01*
X56175000Y-82520000D01*
G75*
G02*
X56040000Y-82385000I0J135000D01*
G01*
X56040000Y-82015000D01*
G75*
G02*
X56175000Y-81880000I135000J0D01*
G01*
X56445000Y-81880000D01*
G75*
G02*
X56580000Y-82015000I0J-135000D01*
G01*
G37*
%TD.AperFunction*%
%TD*%
%TO.P,D3,2*%
%TO.N,Net-(D3-Pad2)*%
%TA.AperFunction,SMDPad,CuDef*%
G36*
G01*
X53255000Y-82372500D02*
X53255000Y-82027500D01*
G75*
G02*
X53402500Y-81880000I147500J0D01*
G01*
X53697500Y-81880000D01*
G75*
G02*
X53845000Y-82027500I0J-147500D01*
G01*
X53845000Y-82372500D01*
G75*
G02*
X53697500Y-82520000I-147500J0D01*
G01*
X53402500Y-82520000D01*
G75*
G02*
X53255000Y-82372500I0J147500D01*
G01*
G37*
%TD.AperFunction*%
%TO.P,D3,1*%
%TO.N,GND*%
%TA.AperFunction,SMDPad,CuDef*%
G36*
G01*
X52285000Y-82372500D02*
X52285000Y-82027500D01*
G75*
G02*
X52432500Y-81880000I147500J0D01*
G01*
X52727500Y-81880000D01*
G75*
G02*
X52875000Y-82027500I0J-147500D01*
G01*
X52875000Y-82372500D01*
G75*
G02*
X52727500Y-82520000I-147500J0D01*
G01*
X52432500Y-82520000D01*
G75*
G02*
X52285000Y-82372500I0J147500D01*
G01*
G37*
%TD.AperFunction*%
%TD*%
%TO.P,C11,2*%
%TO.N,GND*%
%TA.AperFunction,SMDPad,CuDef*%
G36*
G01*
X85750001Y-82300000D02*
X84449999Y-82300000D01*
G75*
G02*
X84200000Y-82050001I0J249999D01*
G01*
X84200000Y-81399999D01*
G75*
G02*
X84449999Y-81150000I249999J0D01*
G01*
X85750001Y-81150000D01*
G75*
G02*
X86000000Y-81399999I0J-249999D01*
G01*
X86000000Y-82050001D01*
G75*
G02*
X85750001Y-82300000I-249999J0D01*
G01*
G37*
%TD.AperFunction*%
%TO.P,C11,1*%
%TO.N,+9VA*%
%TA.AperFunction,SMDPad,CuDef*%
G36*
G01*
X85750001Y-85250000D02*
X84449999Y-85250000D01*
G75*
G02*
X84200000Y-85000001I0J249999D01*
G01*
X84200000Y-84349999D01*
G75*
G02*
X84449999Y-84100000I249999J0D01*
G01*
X85750001Y-84100000D01*
G75*
G02*
X86000000Y-84349999I0J-249999D01*
G01*
X86000000Y-85000001D01*
G75*
G02*
X85750001Y-85250000I-249999J0D01*
G01*
G37*
%TD.AperFunction*%
%TD*%
%TO.P,C10,2*%
%TO.N,MOTORB2*%
%TA.AperFunction,SMDPad,CuDef*%
G36*
G01*
X95649999Y-95400000D02*
X96950001Y-95400000D01*
G75*
G02*
X97200000Y-95649999I0J-249999D01*
G01*
X97200000Y-96300001D01*
G75*
G02*
X96950001Y-96550000I-249999J0D01*
G01*
X95649999Y-96550000D01*
G75*
G02*
X95400000Y-96300001I0J249999D01*
G01*
X95400000Y-95649999D01*
G75*
G02*
X95649999Y-95400000I249999J0D01*
G01*
G37*
%TD.AperFunction*%
%TO.P,C10,1*%
%TO.N,MOTORB1*%
%TA.AperFunction,SMDPad,CuDef*%
G36*
G01*
X95649999Y-92450000D02*
X96950001Y-92450000D01*
G75*
G02*
X97200000Y-92699999I0J-249999D01*
G01*
X97200000Y-93350001D01*
G75*
G02*
X96950001Y-93600000I-249999J0D01*
G01*
X95649999Y-93600000D01*
G75*
G02*
X95400000Y-93350001I0J249999D01*
G01*
X95400000Y-92699999D01*
G75*
G02*
X95649999Y-92450000I249999J0D01*
G01*
G37*
%TD.AperFunction*%
%TD*%
%TO.P,C9,2*%
%TO.N,MOTORA2*%
%TA.AperFunction,SMDPad,CuDef*%
G36*
G01*
X88600000Y-95650001D02*
X88600000Y-94349999D01*
G75*
G02*
X88849999Y-94100000I249999J0D01*
G01*
X89500001Y-94100000D01*
G75*
G02*
X89750000Y-94349999I0J-249999D01*
G01*
X89750000Y-95650001D01*
G75*
G02*
X89500001Y-95900000I-249999J0D01*
G01*
X88849999Y-95900000D01*
G75*
G02*
X88600000Y-95650001I0J249999D01*
G01*
G37*
%TD.AperFunction*%
%TO.P,C9,1*%
%TO.N,MOTORA1*%
%TA.AperFunction,SMDPad,CuDef*%
G36*
G01*
X85650000Y-95650001D02*
X85650000Y-94349999D01*
G75*
G02*
X85899999Y-94100000I249999J0D01*
G01*
X86550001Y-94100000D01*
G75*
G02*
X86800000Y-94349999I0J-249999D01*
G01*
X86800000Y-95650001D01*
G75*
G02*
X86550001Y-95900000I-249999J0D01*
G01*
X85899999Y-95900000D01*
G75*
G02*
X85650000Y-95650001I0J249999D01*
G01*
G37*
%TD.AperFunction*%
%TD*%
%TO.P,C7,2*%
%TO.N,GND*%
%TA.AperFunction,SMDPad,CuDef*%
G36*
G01*
X96249999Y-85600000D02*
X97550001Y-85600000D01*
G75*
G02*
X97800000Y-85849999I0J-249999D01*
G01*
X97800000Y-86500001D01*
G75*
G02*
X97550001Y-86750000I-249999J0D01*
G01*
X96249999Y-86750000D01*
G75*
G02*
X96000000Y-86500001I0J249999D01*
G01*
X96000000Y-85849999D01*
G75*
G02*
X96249999Y-85600000I249999J0D01*
G01*
G37*
%TD.AperFunction*%
%TO.P,C7,1*%
%TO.N,+5V*%
%TA.AperFunction,SMDPad,CuDef*%
G36*
G01*
X96249999Y-82650000D02*
X97550001Y-82650000D01*
G75*
G02*
X97800000Y-82899999I0J-249999D01*
G01*
X97800000Y-83550001D01*
G75*
G02*
X97550001Y-83800000I-249999J0D01*
G01*
X96249999Y-83800000D01*
G75*
G02*
X96000000Y-83550001I0J249999D01*
G01*
X96000000Y-82899999D01*
G75*
G02*
X96249999Y-82650000I249999J0D01*
G01*
G37*
%TD.AperFunction*%
%TD*%
%TO.P,C3,2*%
%TO.N,RESET*%
%TA.AperFunction,SMDPad,CuDef*%
G36*
G01*
X78900000Y-53170000D02*
X78900000Y-52830000D01*
G75*
G02*
X79040000Y-52690000I140000J0D01*
G01*
X79320000Y-52690000D01*
G75*
G02*
X79460000Y-52830000I0J-140000D01*
G01*
X79460000Y-53170000D01*
G75*
G02*
X79320000Y-53310000I-140000J0D01*
G01*
X79040000Y-53310000D01*
G75*
G02*
X78900000Y-53170000I0J140000D01*
G01*
G37*
%TD.AperFunction*%
%TO.P,C3,1*%
%TO.N,DTR*%
%TA.AperFunction,SMDPad,CuDef*%
G36*
G01*
X77940000Y-53170000D02*
X77940000Y-52830000D01*
G75*
G02*
X78080000Y-52690000I140000J0D01*
G01*
X78360000Y-52690000D01*
G75*
G02*
X78500000Y-52830000I0J-140000D01*
G01*
X78500000Y-53170000D01*
G75*
G02*
X78360000Y-53310000I-140000J0D01*
G01*
X78080000Y-53310000D01*
G75*
G02*
X77940000Y-53170000I0J140000D01*
G01*
G37*
%TD.AperFunction*%
%TD*%
%TO.P,C6,2*%
%TO.N,AREF*%
%TA.AperFunction,SMDPad,CuDef*%
G36*
G01*
X86730000Y-62550000D02*
X87070000Y-62550000D01*
G75*
G02*
X87210000Y-62690000I0J-140000D01*
G01*
X87210000Y-62970000D01*
G75*
G02*
X87070000Y-63110000I-140000J0D01*
G01*
X86730000Y-63110000D01*
G75*
G02*
X86590000Y-62970000I0J140000D01*
G01*
X86590000Y-62690000D01*
G75*
G02*
X86730000Y-62550000I140000J0D01*
G01*
G37*
%TD.AperFunction*%
%TO.P,C6,1*%
%TO.N,GND*%
%TA.AperFunction,SMDPad,CuDef*%
G36*
G01*
X86730000Y-61590000D02*
X87070000Y-61590000D01*
G75*
G02*
X87210000Y-61730000I0J-140000D01*
G01*
X87210000Y-62010000D01*
G75*
G02*
X87070000Y-62150000I-140000J0D01*
G01*
X86730000Y-62150000D01*
G75*
G02*
X86590000Y-62010000I0J140000D01*
G01*
X86590000Y-61730000D01*
G75*
G02*
X86730000Y-61590000I140000J0D01*
G01*
G37*
%TD.AperFunction*%
%TD*%
D19*
%TO.P,H6,1*%
%TO.N,N/C*%
X111800000Y-94500000D03*
%TD*%
%TO.P,H5,1*%
%TO.N,N/C*%
X53800000Y-94500000D03*
%TD*%
D15*
%TO.P,J7,6*%
%TO.N,A7*%
X104765000Y-50870000D03*
%TO.P,J7,5*%
%TO.N,A6*%
X102225000Y-50870000D03*
%TO.P,J7,4*%
%TO.N,A3*%
X104765000Y-53410000D03*
%TO.P,J7,3*%
%TO.N,A2*%
X102225000Y-53410000D03*
%TO.P,J7,2*%
%TO.N,A1*%
X104765000Y-55950000D03*
D16*
%TO.P,J7,1*%
%TO.N,A0*%
X102225000Y-55950000D03*
%TD*%
%TO.P,R2,2*%
%TO.N,SDA*%
%TA.AperFunction,SMDPad,CuDef*%
G36*
G01*
X102874999Y-63300000D02*
X104125001Y-63300000D01*
G75*
G02*
X104375000Y-63549999I0J-249999D01*
G01*
X104375000Y-64175001D01*
G75*
G02*
X104125001Y-64425000I-249999J0D01*
G01*
X102874999Y-64425000D01*
G75*
G02*
X102625000Y-64175001I0J249999D01*
G01*
X102625000Y-63549999D01*
G75*
G02*
X102874999Y-63300000I249999J0D01*
G01*
G37*
%TD.AperFunction*%
%TO.P,R2,1*%
%TO.N,+5V*%
%TA.AperFunction,SMDPad,CuDef*%
G36*
G01*
X102874999Y-60375000D02*
X104125001Y-60375000D01*
G75*
G02*
X104375000Y-60624999I0J-249999D01*
G01*
X104375000Y-61250001D01*
G75*
G02*
X104125001Y-61500000I-249999J0D01*
G01*
X102874999Y-61500000D01*
G75*
G02*
X102625000Y-61250001I0J249999D01*
G01*
X102625000Y-60624999D01*
G75*
G02*
X102874999Y-60375000I249999J0D01*
G01*
G37*
%TD.AperFunction*%
%TD*%
%TO.P,R1,2*%
%TO.N,SCL*%
%TA.AperFunction,SMDPad,CuDef*%
G36*
G01*
X104125001Y-67650000D02*
X102874999Y-67650000D01*
G75*
G02*
X102625000Y-67400001I0J249999D01*
G01*
X102625000Y-66774999D01*
G75*
G02*
X102874999Y-66525000I249999J0D01*
G01*
X104125001Y-66525000D01*
G75*
G02*
X104375000Y-66774999I0J-249999D01*
G01*
X104375000Y-67400001D01*
G75*
G02*
X104125001Y-67650000I-249999J0D01*
G01*
G37*
%TD.AperFunction*%
%TO.P,R1,1*%
%TO.N,+5V*%
%TA.AperFunction,SMDPad,CuDef*%
G36*
G01*
X104125001Y-70575000D02*
X102874999Y-70575000D01*
G75*
G02*
X102625000Y-70325001I0J249999D01*
G01*
X102625000Y-69699999D01*
G75*
G02*
X102874999Y-69450000I249999J0D01*
G01*
X104125001Y-69450000D01*
G75*
G02*
X104375000Y-69699999I0J-249999D01*
G01*
X104375000Y-70325001D01*
G75*
G02*
X104125001Y-70575000I-249999J0D01*
G01*
G37*
%TD.AperFunction*%
%TD*%
D20*
%TO.P,J2,2*%
%TO.N,+5V*%
X53800000Y-75400000D03*
%TO.P,J2,1*%
%TO.N,GND*%
%TA.AperFunction,ComponentPad*%
G36*
G01*
X54550000Y-78750000D02*
X53050000Y-78750000D01*
G75*
G02*
X52800000Y-78500000I0J250000D01*
G01*
X52800000Y-77300000D01*
G75*
G02*
X53050000Y-77050000I250000J0D01*
G01*
X54550000Y-77050000D01*
G75*
G02*
X54800000Y-77300000I0J-250000D01*
G01*
X54800000Y-78500000D01*
G75*
G02*
X54550000Y-78750000I-250000J0D01*
G01*
G37*
%TD.AperFunction*%
%TD*%
D21*
%TO.P,U2,3*%
%TO.N,GND*%
X62025000Y-91500000D03*
D22*
%TO.P,U2,5*%
X71175000Y-88100000D03*
%TO.P,U2,4*%
%TO.N,+5V*%
X71175000Y-89800000D03*
%TO.P,U2,3*%
%TO.N,GND*%
X71175000Y-91500000D03*
%TO.P,U2,2*%
%TO.N,Net-(D1-Pad1)*%
X71175000Y-93200000D03*
%TO.P,U2,1*%
%TO.N,+9VA*%
X71175000Y-94900000D03*
%TD*%
D19*
%TO.P,H4,1*%
%TO.N,N/C*%
X111800000Y-68500000D03*
%TD*%
%TO.P,H3,1*%
%TO.N,N/C*%
X111800000Y-45500000D03*
%TD*%
%TO.P,H2,1*%
%TO.N,N/C*%
X53800000Y-68500000D03*
%TD*%
%TO.P,H1,1*%
%TO.N,N/C*%
X53800000Y-45500000D03*
%TD*%
D23*
%TO.P,U3,24*%
%TO.N,+9VA*%
X87425000Y-83600000D03*
%TO.P,U3,23*%
%TO.N,D5*%
X88075000Y-83600000D03*
%TO.P,U3,22*%
%TO.N,D6*%
X88725000Y-83600000D03*
%TO.P,U3,21*%
%TO.N,D7*%
X89375000Y-83600000D03*
%TO.P,U3,20*%
%TO.N,+5V*%
X90025000Y-83600000D03*
%TO.P,U3,19*%
%TO.N,D4*%
X90675000Y-83600000D03*
%TO.P,U3,18*%
%TO.N,GND*%
X91325000Y-83600000D03*
%TO.P,U3,17*%
%TO.N,D8*%
X91975000Y-83600000D03*
%TO.P,U3,16*%
%TO.N,D9*%
X92625000Y-83600000D03*
%TO.P,U3,15*%
%TO.N,D10*%
X93275000Y-83600000D03*
%TO.P,U3,14*%
%TO.N,+9VA*%
X93925000Y-83600000D03*
%TO.P,U3,13*%
X94575000Y-83600000D03*
%TO.P,U3,12*%
%TO.N,MOTORB1*%
X94575000Y-90800000D03*
%TO.P,U3,11*%
X93925000Y-90800000D03*
%TO.P,U3,10*%
%TO.N,GND*%
X93275000Y-90800000D03*
%TO.P,U3,9*%
X92625000Y-90800000D03*
%TO.P,U3,8*%
%TO.N,MOTORB2*%
X91975000Y-90800000D03*
%TO.P,U3,7*%
X91325000Y-90800000D03*
%TO.P,U3,6*%
%TO.N,MOTORA2*%
X90675000Y-90800000D03*
%TO.P,U3,5*%
X90025000Y-90800000D03*
%TO.P,U3,4*%
%TO.N,GND*%
X89375000Y-90800000D03*
%TO.P,U3,3*%
X88725000Y-90800000D03*
%TO.P,U3,2*%
%TO.N,MOTORA1*%
X88075000Y-90800000D03*
%TO.P,U3,1*%
X87425000Y-90800000D03*
%TD*%
%TO.P,R4,2*%
%TO.N,Net-(D2-Pad2)*%
%TA.AperFunction,SMDPad,CuDef*%
G36*
G01*
X104340000Y-87135000D02*
X104340000Y-86765000D01*
G75*
G02*
X104475000Y-86630000I135000J0D01*
G01*
X104745000Y-86630000D01*
G75*
G02*
X104880000Y-86765000I0J-135000D01*
G01*
X104880000Y-87135000D01*
G75*
G02*
X104745000Y-87270000I-135000J0D01*
G01*
X104475000Y-87270000D01*
G75*
G02*
X104340000Y-87135000I0J135000D01*
G01*
G37*
%TD.AperFunction*%
%TO.P,R4,1*%
%TO.N,SCK*%
%TA.AperFunction,SMDPad,CuDef*%
G36*
G01*
X103320000Y-87135000D02*
X103320000Y-86765000D01*
G75*
G02*
X103455000Y-86630000I135000J0D01*
G01*
X103725000Y-86630000D01*
G75*
G02*
X103860000Y-86765000I0J-135000D01*
G01*
X103860000Y-87135000D01*
G75*
G02*
X103725000Y-87270000I-135000J0D01*
G01*
X103455000Y-87270000D01*
G75*
G02*
X103320000Y-87135000I0J135000D01*
G01*
G37*
%TD.AperFunction*%
%TD*%
D24*
%TO.P,J11,2*%
%TO.N,MOTORB2*%
X108350000Y-101750000D03*
%TO.P,J11,1*%
%TO.N,MOTORB1*%
%TA.AperFunction,ComponentPad*%
G36*
G01*
X111700000Y-101000000D02*
X111700000Y-102500000D01*
G75*
G02*
X111450000Y-102750000I-250000J0D01*
G01*
X110250000Y-102750000D01*
G75*
G02*
X110000000Y-102500000I0J250000D01*
G01*
X110000000Y-101000000D01*
G75*
G02*
X110250000Y-100750000I250000J0D01*
G01*
X111450000Y-100750000D01*
G75*
G02*
X111700000Y-101000000I0J-250000D01*
G01*
G37*
%TD.AperFunction*%
%TD*%
%TO.P,J10,2*%
%TO.N,MOTORA1*%
X77700000Y-101750000D03*
%TO.P,J10,1*%
%TO.N,MOTORA2*%
%TA.AperFunction,ComponentPad*%
G36*
G01*
X81050000Y-101000000D02*
X81050000Y-102500000D01*
G75*
G02*
X80800000Y-102750000I-250000J0D01*
G01*
X79600000Y-102750000D01*
G75*
G02*
X79350000Y-102500000I0J250000D01*
G01*
X79350000Y-101000000D01*
G75*
G02*
X79600000Y-100750000I250000J0D01*
G01*
X80800000Y-100750000D01*
G75*
G02*
X81050000Y-101000000I0J-250000D01*
G01*
G37*
%TD.AperFunction*%
%TD*%
D25*
%TO.P,J9,3*%
%TO.N,D3*%
X97300000Y-101750000D03*
%TO.P,J9,2*%
%TO.N,+5V*%
X99800000Y-101750000D03*
%TO.P,J9,1*%
%TO.N,GND*%
%TA.AperFunction,ComponentPad*%
G36*
G01*
X103150000Y-101025000D02*
X103150000Y-102475000D01*
G75*
G02*
X102900000Y-102725000I-250000J0D01*
G01*
X101700000Y-102725000D01*
G75*
G02*
X101450000Y-102475000I0J250000D01*
G01*
X101450000Y-101025000D01*
G75*
G02*
X101700000Y-100775000I250000J0D01*
G01*
X102900000Y-100775000D01*
G75*
G02*
X103150000Y-101025000I0J-250000D01*
G01*
G37*
%TD.AperFunction*%
%TD*%
%TO.P,J8,3*%
%TO.N,D2*%
X86250000Y-101750000D03*
%TO.P,J8,2*%
%TO.N,+5V*%
X88750000Y-101750000D03*
%TO.P,J8,1*%
%TO.N,GND*%
%TA.AperFunction,ComponentPad*%
G36*
G01*
X92100000Y-101025000D02*
X92100000Y-102475000D01*
G75*
G02*
X91850000Y-102725000I-250000J0D01*
G01*
X90650000Y-102725000D01*
G75*
G02*
X90400000Y-102475000I0J250000D01*
G01*
X90400000Y-101025000D01*
G75*
G02*
X90650000Y-100775000I250000J0D01*
G01*
X91850000Y-100775000D01*
G75*
G02*
X92100000Y-101025000I0J-250000D01*
G01*
G37*
%TD.AperFunction*%
%TD*%
D15*
%TO.P,J12,40*%
%TO.N,N/C*%
X106960000Y-44260000D03*
%TO.P,J12,39*%
%TO.N,GND*%
X106960000Y-46800000D03*
%TO.P,J12,38*%
%TO.N,N/C*%
X104420000Y-44260000D03*
%TO.P,J12,37*%
X104420000Y-46800000D03*
%TO.P,J12,36*%
X101880000Y-44260000D03*
%TO.P,J12,35*%
X101880000Y-46800000D03*
%TO.P,J12,34*%
%TO.N,GND*%
X99340000Y-44260000D03*
%TO.P,J12,33*%
%TO.N,N/C*%
X99340000Y-46800000D03*
%TO.P,J12,32*%
X96800000Y-44260000D03*
%TO.P,J12,31*%
X96800000Y-46800000D03*
%TO.P,J12,30*%
%TO.N,GND*%
X94260000Y-44260000D03*
%TO.P,J12,29*%
%TO.N,N/C*%
X94260000Y-46800000D03*
%TO.P,J12,28*%
X91720000Y-44260000D03*
%TO.P,J12,27*%
X91720000Y-46800000D03*
%TO.P,J12,26*%
X89180000Y-44260000D03*
%TO.P,J12,25*%
%TO.N,GND*%
X89180000Y-46800000D03*
%TO.P,J12,24*%
%TO.N,N/C*%
X86640000Y-44260000D03*
%TO.P,J12,23*%
X86640000Y-46800000D03*
%TO.P,J12,22*%
X84100000Y-44260000D03*
%TO.P,J12,21*%
X84100000Y-46800000D03*
%TO.P,J12,20*%
%TO.N,GND*%
X81560000Y-44260000D03*
%TO.P,J12,19*%
%TO.N,N/C*%
X81560000Y-46800000D03*
%TO.P,J12,18*%
X79020000Y-44260000D03*
%TO.P,J12,17*%
%TO.N,+3V3*%
X79020000Y-46800000D03*
%TO.P,J12,16*%
%TO.N,N/C*%
X76480000Y-44260000D03*
%TO.P,J12,15*%
X76480000Y-46800000D03*
%TO.P,J12,14*%
%TO.N,GND*%
X73940000Y-44260000D03*
%TO.P,J12,13*%
%TO.N,N/C*%
X73940000Y-46800000D03*
%TO.P,J12,12*%
X71400000Y-44260000D03*
%TO.P,J12,11*%
X71400000Y-46800000D03*
%TO.P,J12,10*%
X68860000Y-44260000D03*
%TO.P,J12,9*%
%TO.N,GND*%
X68860000Y-46800000D03*
%TO.P,J12,8*%
%TO.N,N/C*%
X66320000Y-44260000D03*
%TO.P,J12,7*%
X66320000Y-46800000D03*
%TO.P,J12,6*%
%TO.N,GND*%
X63780000Y-44260000D03*
%TO.P,J12,5*%
%TO.N,3v3_SCL*%
X63780000Y-46800000D03*
%TO.P,J12,4*%
%TO.N,+5V*%
X61240000Y-44260000D03*
%TO.P,J12,3*%
%TO.N,3v3_SDA*%
X61240000Y-46800000D03*
%TO.P,J12,2*%
%TO.N,+5V*%
X58700000Y-44260000D03*
D16*
%TO.P,J12,1*%
%TO.N,+3V3*%
X58700000Y-46800000D03*
%TD*%
D24*
%TO.P,J1,2*%
%TO.N,+9V*%
X55200000Y-101700000D03*
%TO.P,J1,1*%
%TO.N,GND*%
%TA.AperFunction,ComponentPad*%
G36*
G01*
X58550000Y-100950000D02*
X58550000Y-102450000D01*
G75*
G02*
X58300000Y-102700000I-250000J0D01*
G01*
X57100000Y-102700000D01*
G75*
G02*
X56850000Y-102450000I0J250000D01*
G01*
X56850000Y-100950000D01*
G75*
G02*
X57100000Y-100700000I250000J0D01*
G01*
X58300000Y-100700000D01*
G75*
G02*
X58550000Y-100950000I0J-250000D01*
G01*
G37*
%TD.AperFunction*%
%TD*%
%TO.P,D2,2*%
%TO.N,Net-(D2-Pad2)*%
%TA.AperFunction,SMDPad,CuDef*%
G36*
G01*
X106045000Y-86777500D02*
X106045000Y-87122500D01*
G75*
G02*
X105897500Y-87270000I-147500J0D01*
G01*
X105602500Y-87270000D01*
G75*
G02*
X105455000Y-87122500I0J147500D01*
G01*
X105455000Y-86777500D01*
G75*
G02*
X105602500Y-86630000I147500J0D01*
G01*
X105897500Y-86630000D01*
G75*
G02*
X106045000Y-86777500I0J-147500D01*
G01*
G37*
%TD.AperFunction*%
%TO.P,D2,1*%
%TO.N,GND*%
%TA.AperFunction,SMDPad,CuDef*%
G36*
G01*
X107015000Y-86777500D02*
X107015000Y-87122500D01*
G75*
G02*
X106867500Y-87270000I-147500J0D01*
G01*
X106572500Y-87270000D01*
G75*
G02*
X106425000Y-87122500I0J147500D01*
G01*
X106425000Y-86777500D01*
G75*
G02*
X106572500Y-86630000I147500J0D01*
G01*
X106867500Y-86630000D01*
G75*
G02*
X107015000Y-86777500I0J-147500D01*
G01*
G37*
%TD.AperFunction*%
%TD*%
D26*
%TO.N,GND*%
X91325000Y-85525000D03*
X95500000Y-88675000D03*
X55100000Y-86350000D03*
X55100000Y-89750000D03*
X77124990Y-62850000D03*
X77150000Y-61250000D03*
X89550000Y-77500000D03*
%TO.N,RESET*%
X79150000Y-56450000D03*
%TO.N,+5V*%
X90150000Y-80825000D03*
X78250004Y-64450000D03*
X94600000Y-80799998D03*
X66700000Y-54950000D03*
X103550000Y-72700000D03*
X73750000Y-49450000D03*
X83650000Y-49450000D03*
%TO.N,+3V3*%
X64449996Y-48350000D03*
%TO.N,SCL*%
X81200000Y-52950000D03*
X84400000Y-54100000D03*
%TO.N,A7*%
X81749999Y-60100001D03*
%TO.N,A6*%
X80800000Y-63649998D03*
%TO.N,A3*%
X86125000Y-58125000D03*
%TO.N,A2*%
X84912337Y-58237657D03*
%TO.N,A1*%
X87500000Y-59700000D03*
%TO.N,A0*%
X85600008Y-60450000D03*
%TO.N,D2*%
X72850000Y-57550000D03*
%TO.N,D3*%
X72850000Y-58999996D03*
%TO.N,D4*%
X91050000Y-79650000D03*
X72850000Y-60450000D03*
%TD*%
D27*
%TO.N,GND*%
X60000000Y-89475000D02*
X62025000Y-91500000D01*
X60000000Y-93525000D02*
X62025000Y-91500000D01*
D28*
X65425000Y-88100000D02*
X62025000Y-91500000D01*
X71175000Y-88100000D02*
X65425000Y-88100000D01*
X71175000Y-91500000D02*
X62025000Y-91500000D01*
D29*
X91325000Y-83600000D02*
X91325000Y-85525000D01*
X92625000Y-88850000D02*
X92625000Y-90800000D01*
X93275000Y-88850000D02*
X92625000Y-88850000D01*
X93275000Y-90800000D02*
X93275000Y-88850000D01*
X91325000Y-85525000D02*
X91325000Y-85525000D01*
X88725000Y-90800000D02*
X88725000Y-88825000D01*
X88725000Y-88825000D02*
X89375000Y-88825000D01*
X89375000Y-88825000D02*
X89375000Y-90800000D01*
D27*
X93275000Y-88850000D02*
X86750000Y-88850000D01*
X95325000Y-88850000D02*
X95500000Y-88675000D01*
X93275000Y-88850000D02*
X95325000Y-88850000D01*
X62025000Y-91500000D02*
X62025000Y-92625000D01*
X62025000Y-92625000D02*
X59500000Y-95150000D01*
X62025000Y-91500000D02*
X62025000Y-91425000D01*
X62025000Y-91425000D02*
X59050000Y-88450000D01*
X62025000Y-91500000D02*
X62025000Y-92075000D01*
X62025000Y-91500000D02*
X62025000Y-91225000D01*
X63650000Y-93125000D02*
X62500000Y-91975000D01*
D28*
X85330000Y-61870000D02*
X86900000Y-61870000D01*
X85150000Y-62050000D02*
X85330000Y-61870000D01*
X83800000Y-62050000D02*
X85150000Y-62050000D01*
D29*
X80000000Y-62050000D02*
X83800000Y-62050000D01*
X79200000Y-61250000D02*
X80000000Y-62050000D01*
D28*
X75300000Y-62850000D02*
X77124990Y-62850000D01*
D29*
X77150000Y-61250000D02*
X79200000Y-61250000D01*
X75300000Y-61250000D02*
X77150000Y-61250000D01*
D28*
X88285000Y-77500000D02*
X89550000Y-77500000D01*
D29*
X106720000Y-86950000D02*
X106720000Y-87270000D01*
D28*
X71200000Y-64650000D02*
X69700000Y-64650000D01*
X69700000Y-64650000D02*
X68950000Y-63900000D01*
X68950000Y-63900000D02*
X68950000Y-62500000D01*
X68950000Y-62500000D02*
X69300000Y-62150000D01*
X69300000Y-62150000D02*
X72000000Y-62150000D01*
X72700000Y-62850000D02*
X73700000Y-62850000D01*
X72000000Y-62150000D02*
X72700000Y-62850000D01*
X73700000Y-62850000D02*
X73500000Y-62850000D01*
X75300000Y-62850000D02*
X73700000Y-62850000D01*
D27*
X82550000Y-84275000D02*
X85100000Y-81725000D01*
X82550000Y-86450000D02*
X82550000Y-84275000D01*
D28*
X95500000Y-88675000D02*
X102025000Y-88675000D01*
X103875000Y-90525000D02*
X109675000Y-90525000D01*
X102025000Y-88675000D02*
X103875000Y-90525000D01*
X109675000Y-90525000D02*
X113800000Y-90525000D01*
D27*
%TO.N,+9V*%
X55200000Y-99700000D02*
X55200000Y-101700000D01*
X55650000Y-99250000D02*
X55200000Y-99700000D01*
X61900000Y-99250000D02*
X55650000Y-99250000D01*
D28*
%TO.N,XTAL1*%
X74439998Y-64450000D02*
X75300000Y-64450000D01*
X73689998Y-63700000D02*
X74439998Y-64450000D01*
X71200000Y-63700000D02*
X73689998Y-63700000D01*
%TO.N,RESET*%
X79150000Y-58200000D02*
X79150000Y-56450000D01*
X79180000Y-55130000D02*
X79160000Y-55150000D01*
X79160000Y-56440000D02*
X79150000Y-56450000D01*
X107650000Y-86350000D02*
X109675000Y-88375000D01*
X107650000Y-81720000D02*
X107650000Y-86350000D01*
X105300000Y-79370000D02*
X107650000Y-81720000D01*
X109675000Y-88375000D02*
X113825000Y-88375000D01*
X79180000Y-54282500D02*
X78812500Y-54650000D01*
X79180000Y-53000000D02*
X79180000Y-54282500D01*
X79150000Y-54987500D02*
X79150000Y-56450000D01*
X78812500Y-54650000D02*
X79150000Y-54987500D01*
%TO.N,DTR*%
X62750000Y-50750000D02*
X60850000Y-50750000D01*
X65400000Y-53400000D02*
X62750000Y-50750000D01*
X76711810Y-53400000D02*
X65400000Y-53400000D01*
X77061810Y-53050000D02*
X76711810Y-53400000D01*
X77970000Y-53050000D02*
X77061810Y-53050000D01*
X78020000Y-53000000D02*
X77970000Y-53050000D01*
%TO.N,XTAL2*%
X71200000Y-65600000D02*
X73200000Y-65600000D01*
X73550000Y-65250000D02*
X75300000Y-65250000D01*
X73200000Y-65600000D02*
X73550000Y-65250000D01*
%TO.N,+5V*%
X90025000Y-83600000D02*
X90025000Y-80950000D01*
X90025000Y-80950000D02*
X90150000Y-80825000D01*
D29*
X73100000Y-62050000D02*
X69420000Y-58370000D01*
X75300000Y-62050000D02*
X73100000Y-62050000D01*
D28*
X77500000Y-62050000D02*
X78250004Y-62800004D01*
X75300000Y-62050000D02*
X77500000Y-62050000D01*
D30*
X96900000Y-83225000D02*
X94525000Y-80850000D01*
X94525000Y-80850000D02*
X94525000Y-80849974D01*
D28*
X77450004Y-63650000D02*
X77200000Y-63650000D01*
X78250004Y-64450000D02*
X77450004Y-63650000D01*
D29*
X75300000Y-63650000D02*
X77200000Y-63650000D01*
D28*
X78250004Y-64450000D02*
X78250004Y-62800004D01*
X78250004Y-64450000D02*
X83800000Y-64450000D01*
D29*
X69420000Y-58370000D02*
X60850000Y-58370000D01*
D28*
X66900000Y-55150000D02*
X66700000Y-54950000D01*
X103550000Y-70062500D02*
X103500000Y-70012500D01*
X103550000Y-72700000D02*
X103550000Y-70062500D01*
X95300000Y-64450000D02*
X83800000Y-64450000D01*
X103550000Y-72700000D02*
X95300000Y-64450000D01*
X108500000Y-74300000D02*
X112050000Y-77850000D01*
X108500000Y-61750000D02*
X108500000Y-74300000D01*
X107687500Y-60937500D02*
X108500000Y-61750000D01*
X103500000Y-60937500D02*
X107687500Y-60937500D01*
D27*
X62200000Y-78050000D02*
X59550000Y-75400000D01*
X63050000Y-78900000D02*
X62200000Y-78050000D01*
X67650000Y-78900000D02*
X63050000Y-78900000D01*
D29*
X57050000Y-81460000D02*
X56310000Y-82200000D01*
X57050000Y-75400000D02*
X57050000Y-81460000D01*
D27*
X59550000Y-75400000D02*
X57050000Y-75400000D01*
X57050000Y-75400000D02*
X53800000Y-75400000D01*
X74475000Y-89800000D02*
X74550000Y-89725000D01*
X71175000Y-89800000D02*
X74475000Y-89800000D01*
X74550000Y-89725000D02*
X74550000Y-85400000D01*
X68050000Y-78900000D02*
X67650000Y-78900000D01*
X74550000Y-85400000D02*
X68050000Y-78900000D01*
D28*
X76687500Y-54950000D02*
X76987500Y-54650000D01*
X66700000Y-54950000D02*
X76687500Y-54950000D01*
X73687500Y-49387500D02*
X73750000Y-49450000D01*
X72000000Y-49387500D02*
X73687500Y-49387500D01*
X82012500Y-49450000D02*
X81850000Y-49287500D01*
X83650000Y-49450000D02*
X82012500Y-49450000D01*
%TO.N,AREF*%
X83910078Y-62739922D02*
X86759922Y-62739922D01*
X86759922Y-62739922D02*
X86900000Y-62880000D01*
X83800000Y-62850000D02*
X83910078Y-62739922D01*
%TO.N,+3V3*%
X76400000Y-49420000D02*
X76400000Y-49500000D01*
X76400000Y-49500000D02*
X75940000Y-49500000D01*
X77962500Y-49337500D02*
X78000000Y-49300000D01*
X76200000Y-49337500D02*
X77962500Y-49337500D01*
X78000000Y-47820000D02*
X79020000Y-46800000D01*
X78000000Y-49300000D02*
X78000000Y-47820000D01*
X65212500Y-48350000D02*
X66250000Y-49387500D01*
X64449996Y-48350000D02*
X65212500Y-48350000D01*
X68062500Y-49387500D02*
X68100000Y-49350000D01*
X66250000Y-49387500D02*
X68062500Y-49387500D01*
%TO.N,Net-(D2-Pad2)*%
X104610000Y-86950000D02*
X105750000Y-86950000D01*
%TO.N,MOSI*%
X82300000Y-68500000D02*
X81550000Y-67750000D01*
X81550000Y-67750000D02*
X81550000Y-66700000D01*
X85850000Y-68500000D02*
X82300000Y-68500000D01*
X99260000Y-81910000D02*
X85850000Y-68500000D01*
X102760000Y-81910000D02*
X99260000Y-81910000D01*
%TO.N,SCK*%
X104590000Y-85950000D02*
X103590000Y-86950000D01*
X106550000Y-85950000D02*
X104590000Y-85950000D01*
X106750000Y-85750000D02*
X106550000Y-85950000D01*
X106750000Y-83360000D02*
X106750000Y-85750000D01*
X105300000Y-81910000D02*
X106750000Y-83360000D01*
X91150000Y-65250000D02*
X83800000Y-65250000D01*
X104050000Y-78150000D02*
X91150000Y-65250000D01*
X104050000Y-80250000D02*
X104050000Y-78150000D01*
X105300000Y-81500000D02*
X104050000Y-80250000D01*
X105300000Y-81910000D02*
X105300000Y-81500000D01*
%TO.N,MISO*%
X104050000Y-83200000D02*
X105300000Y-84450000D01*
X104050000Y-81250000D02*
X104050000Y-83200000D01*
X103450000Y-80650000D02*
X104050000Y-81250000D01*
X99500000Y-80650000D02*
X103450000Y-80650000D01*
X85550000Y-66700000D02*
X99500000Y-80650000D01*
X82350000Y-66700000D02*
X85550000Y-66700000D01*
%TO.N,TXO*%
X64210000Y-56650000D02*
X60850000Y-53290000D01*
X77300000Y-56650000D02*
X64210000Y-56650000D01*
X77550000Y-56900000D02*
X77300000Y-56650000D01*
X77550000Y-58200000D02*
X77550000Y-56900000D01*
%TO.N,RXI*%
X59550000Y-52600000D02*
X59550000Y-54530000D01*
X60100000Y-52050000D02*
X59550000Y-52600000D01*
X62150000Y-52050000D02*
X60100000Y-52050000D01*
X65950000Y-55850000D02*
X62150000Y-52050000D01*
X59550000Y-54530000D02*
X60850000Y-55830000D01*
X77900000Y-55850000D02*
X65950000Y-55850000D01*
X78350000Y-56300000D02*
X77900000Y-55850000D01*
X78350000Y-58200000D02*
X78350000Y-56300000D01*
%TO.N,SCL*%
X84400000Y-54100000D02*
X86500000Y-54100000D01*
X86500000Y-54100000D02*
X99500000Y-67100000D01*
X103487500Y-67100000D02*
X103500000Y-67087500D01*
X99500000Y-67100000D02*
X103487500Y-67100000D01*
X111850000Y-82850000D02*
X112050000Y-82850000D01*
X105400000Y-76400000D02*
X111850000Y-82850000D01*
X105400000Y-68050000D02*
X105400000Y-76400000D01*
X104437500Y-67087500D02*
X105400000Y-68050000D01*
X103500000Y-67087500D02*
X104437500Y-67087500D01*
X81200000Y-53150000D02*
X81200000Y-52950000D01*
X79950000Y-54400000D02*
X81200000Y-53150000D01*
X79950000Y-58200000D02*
X79950000Y-54400000D01*
X71087500Y-50300000D02*
X72000000Y-51212500D01*
X70100000Y-50300000D02*
X71087500Y-50300000D01*
X80450000Y-52200000D02*
X81200000Y-52950000D01*
X72987500Y-52200000D02*
X80450000Y-52200000D01*
X72000000Y-51212500D02*
X72987500Y-52200000D01*
%TO.N,SDA*%
X100012500Y-63862500D02*
X99600000Y-63450000D01*
X103500000Y-63862500D02*
X100012500Y-63862500D01*
X99600000Y-63450000D02*
X100050000Y-63900000D01*
X103500000Y-63862500D02*
X103500000Y-64403232D01*
X111700000Y-80350000D02*
X112050000Y-80350000D01*
X107000000Y-67925000D02*
X107000000Y-75650000D01*
X103500000Y-64425000D02*
X107000000Y-67925000D01*
X107000000Y-75650000D02*
X111700000Y-80350000D01*
X103500000Y-63862500D02*
X103500000Y-64425000D01*
X80750000Y-56400000D02*
X80750000Y-58200000D01*
X82350000Y-54800000D02*
X80750000Y-56400000D01*
X82350000Y-52550000D02*
X82350000Y-54800000D01*
X88700000Y-52550000D02*
X82350000Y-52550000D01*
X99600000Y-63450000D02*
X88700000Y-52550000D01*
X80987500Y-50250000D02*
X81850000Y-51112500D01*
X80000000Y-50250000D02*
X80987500Y-50250000D01*
X81850000Y-52050000D02*
X82350000Y-52550000D01*
X81850000Y-51112500D02*
X81850000Y-52050000D01*
%TO.N,A7*%
X83800000Y-61250000D02*
X82899998Y-61250000D01*
X82899998Y-61250000D02*
X81749999Y-60100001D01*
%TO.N,A6*%
X83800000Y-63650000D02*
X80800002Y-63650000D01*
X80800002Y-63650000D02*
X80800000Y-63649998D01*
%TO.N,A3*%
X85074999Y-57074999D02*
X86125000Y-58125000D01*
X81625001Y-57074999D02*
X85074999Y-57074999D01*
X81550000Y-58200000D02*
X81550000Y-57150000D01*
X81550000Y-57150000D02*
X81625001Y-57074999D01*
%TO.N,A2*%
X84874680Y-58200000D02*
X84912337Y-58237657D01*
X82350000Y-58200000D02*
X84874680Y-58200000D01*
%TO.N,A1*%
X87450000Y-59650000D02*
X87500000Y-59700000D01*
X83800000Y-59650000D02*
X87450000Y-59650000D01*
%TO.N,A0*%
X83800000Y-60450000D02*
X85600008Y-60450000D01*
%TO.N,D2*%
X72850000Y-57550000D02*
X73550000Y-58250000D01*
X76700000Y-58250000D02*
X76750000Y-58200000D01*
X73550000Y-58250000D02*
X76700000Y-58250000D01*
%TO.N,D3*%
X73500004Y-59650000D02*
X72850000Y-58999996D01*
X75300000Y-59650000D02*
X73500004Y-59650000D01*
D30*
%TO.N,MOTORA1*%
X87425000Y-92725000D02*
X87700000Y-93000000D01*
X87425000Y-90800000D02*
X87425000Y-92725000D01*
X88075000Y-92625000D02*
X87700000Y-93000000D01*
X88075000Y-90800000D02*
X88075000Y-92625000D01*
D27*
X86225000Y-94475000D02*
X87700000Y-93000000D01*
X86225000Y-95000000D02*
X86225000Y-94475000D01*
X77450000Y-101700000D02*
X77500000Y-101750000D01*
X83800000Y-95000000D02*
X86225000Y-95000000D01*
X77700000Y-101100000D02*
X83800000Y-95000000D01*
X77700000Y-101750000D02*
X77700000Y-101100000D01*
D30*
%TO.N,MOTORA2*%
X90025000Y-92425000D02*
X90300000Y-92700000D01*
X90025000Y-90800000D02*
X90025000Y-92425000D01*
X90675000Y-92325000D02*
X90300000Y-92700000D01*
X90675000Y-90800000D02*
X90675000Y-92325000D01*
D27*
X89175000Y-93825000D02*
X90300000Y-92700000D01*
X89175000Y-95025000D02*
X89175000Y-93825000D01*
X82450000Y-101750000D02*
X83200000Y-101000000D01*
X80200000Y-101750000D02*
X82450000Y-101750000D01*
X83200000Y-101000000D02*
X89175000Y-95025000D01*
X82500000Y-101700000D02*
X83200000Y-101000000D01*
D30*
%TO.N,MOTORB2*%
X91325000Y-92225000D02*
X91800000Y-92700000D01*
X91325000Y-90800000D02*
X91325000Y-92225000D01*
X91975000Y-92525000D02*
X91800000Y-92700000D01*
X91975000Y-90800000D02*
X91975000Y-92525000D01*
D27*
X95075000Y-95975000D02*
X91800000Y-92700000D01*
X108350000Y-100750000D02*
X103575000Y-95975000D01*
X103575000Y-95975000D02*
X95075000Y-95975000D01*
X108350000Y-101750000D02*
X108350000Y-100750000D01*
D30*
%TO.N,MOTORB1*%
X93925000Y-92625000D02*
X94300000Y-93000000D01*
X93925000Y-90800000D02*
X93925000Y-92625000D01*
X94575000Y-92725000D02*
X94300000Y-93000000D01*
X94575000Y-90800000D02*
X94575000Y-92725000D01*
D27*
X110850000Y-101052930D02*
X102797070Y-93000000D01*
X102797070Y-93000000D02*
X94300000Y-93000000D01*
X110850000Y-101750000D02*
X110850000Y-101052930D01*
D28*
%TO.N,D10*%
X86700000Y-74800000D02*
X80750000Y-68850000D01*
X90700000Y-74800000D02*
X86700000Y-74800000D01*
X80750000Y-68850000D02*
X80750000Y-66700000D01*
X93275000Y-77375000D02*
X90700000Y-74800000D01*
X93275000Y-83600000D02*
X93275000Y-77375000D01*
%TO.N,D9*%
X79950000Y-69000000D02*
X79950000Y-66700000D01*
X86500000Y-75550000D02*
X79950000Y-69000000D01*
X92625000Y-78025000D02*
X90150000Y-75550000D01*
X90150000Y-75550000D02*
X86500000Y-75550000D01*
X92625000Y-83600000D02*
X92625000Y-78025000D01*
%TO.N,D8*%
X86050000Y-76250000D02*
X79150000Y-69350000D01*
X79150000Y-69350000D02*
X79150000Y-66700000D01*
X89750000Y-76250000D02*
X86050000Y-76250000D01*
X91975000Y-78475000D02*
X89750000Y-76250000D01*
X91975000Y-83600000D02*
X91975000Y-78475000D01*
%TO.N,D7*%
X78350000Y-69700000D02*
X78350000Y-66700000D01*
X89375000Y-80725000D02*
X78350000Y-69700000D01*
X89375000Y-83600000D02*
X89375000Y-80725000D01*
%TO.N,D6*%
X77550000Y-70000000D02*
X77550000Y-66700000D01*
X88725000Y-81175000D02*
X77550000Y-70000000D01*
X88725000Y-83600000D02*
X88725000Y-81175000D01*
%TO.N,D5*%
X76750000Y-70350000D02*
X76750000Y-66700000D01*
X88075000Y-81675000D02*
X76750000Y-70350000D01*
X88075000Y-83600000D02*
X88075000Y-81675000D01*
%TO.N,D4*%
X91050000Y-81650000D02*
X91050000Y-79700000D01*
X90675000Y-82025000D02*
X91050000Y-81650000D01*
X90675000Y-83600000D02*
X90675000Y-82025000D01*
X91050000Y-79700000D02*
X91050000Y-79650000D01*
X72850000Y-60450000D02*
X75300000Y-60450000D01*
X90700000Y-78700000D02*
X89810000Y-78700000D01*
X91050000Y-79050000D02*
X90700000Y-78700000D01*
X91050000Y-79650000D02*
X91050000Y-79050000D01*
D27*
%TO.N,Net-(D1-Pad1)*%
X71175000Y-93200000D02*
X76850000Y-93200000D01*
X77300000Y-93450000D02*
X77387500Y-93450000D01*
X77250000Y-93250000D02*
X77550000Y-93250000D01*
X77550000Y-93250000D02*
X79450000Y-91350000D01*
X79450000Y-80900000D02*
X77450000Y-78900000D01*
X79450000Y-91350000D02*
X79450000Y-80900000D01*
D29*
%TO.N,Net-(D3-Pad2)*%
X55290000Y-82200000D02*
X53550000Y-82200000D01*
%TO.N,+9VA*%
X93925000Y-87000000D02*
X94250000Y-87325000D01*
X93925000Y-83600000D02*
X93925000Y-87000000D01*
X94575000Y-87000000D02*
X94250000Y-87325000D01*
X94575000Y-83600000D02*
X94575000Y-87000000D01*
X87425000Y-87200000D02*
X87550000Y-87325000D01*
X87425000Y-83600000D02*
X87425000Y-87200000D01*
D27*
X87550000Y-87325000D02*
X94250000Y-87325000D01*
X85100000Y-84675000D02*
X86425000Y-86000000D01*
X86425000Y-86925000D02*
X86825000Y-87325000D01*
X86425000Y-86000000D02*
X86425000Y-86925000D01*
X86825000Y-87325000D02*
X87550000Y-87325000D01*
X71175000Y-94900000D02*
X71100000Y-94975000D01*
X85675000Y-87325000D02*
X86825000Y-87325000D01*
X82950000Y-90050000D02*
X85675000Y-87325000D01*
X82550000Y-90050000D02*
X82950000Y-90050000D01*
X82550000Y-91750000D02*
X82550000Y-90050000D01*
X73350000Y-100950000D02*
X82550000Y-91750000D01*
X72400000Y-100950000D02*
X73350000Y-100950000D01*
X69050000Y-98300000D02*
X71700000Y-100950000D01*
X71700000Y-100950000D02*
X72400000Y-100950000D01*
X63900000Y-98300000D02*
X69050000Y-98300000D01*
X72400000Y-96125000D02*
X71175000Y-94900000D01*
X72400000Y-100950000D02*
X72400000Y-96125000D01*
D28*
%TO.N,Net-(D4-Pad2)*%
X87315000Y-77665000D02*
X87315000Y-77500000D01*
X88350000Y-78700000D02*
X87315000Y-77665000D01*
X88790000Y-78700000D02*
X88350000Y-78700000D01*
%TO.N,3v3_SCL*%
X64762500Y-51212500D02*
X66250000Y-51212500D01*
X62930001Y-49380001D02*
X64762500Y-51212500D01*
X62930001Y-47649999D02*
X62930001Y-49380001D01*
X63780000Y-46800000D02*
X62930001Y-47649999D01*
X68062500Y-51212500D02*
X68100000Y-51250000D01*
X66250000Y-51212500D02*
X68062500Y-51212500D01*
%TO.N,3v3_SDA*%
X76390000Y-51410000D02*
X76400000Y-51400000D01*
X77962500Y-51162500D02*
X78000000Y-51200000D01*
X76200000Y-51162500D02*
X77962500Y-51162500D01*
X75174990Y-50137490D02*
X76200000Y-51162500D01*
X75174990Y-46105990D02*
X75174990Y-50137490D01*
X74693999Y-45624999D02*
X75174990Y-46105990D01*
X62415001Y-45624999D02*
X74693999Y-45624999D01*
X61240000Y-46800000D02*
X62415001Y-45624999D01*
%TD*%
D31*
%TO.N,GND*%
X110386072Y-42854727D02*
X109897174Y-43181399D01*
X109481399Y-43597174D01*
X109154727Y-44086072D01*
X108929712Y-44629308D01*
X108815000Y-45206003D01*
X108815000Y-45793997D01*
X108929712Y-46370692D01*
X109154727Y-46913928D01*
X109481399Y-47402826D01*
X109897174Y-47818601D01*
X110386072Y-48145273D01*
X110929308Y-48370288D01*
X111506003Y-48485000D01*
X112093997Y-48485000D01*
X112670692Y-48370288D01*
X113213928Y-48145273D01*
X113702826Y-47818601D01*
X114118601Y-47402826D01*
X114445273Y-46913928D01*
X114640001Y-46443812D01*
X114640000Y-67556186D01*
X114445273Y-67086072D01*
X114118601Y-66597174D01*
X113702826Y-66181399D01*
X113213928Y-65854727D01*
X112670692Y-65629712D01*
X112093997Y-65515000D01*
X111506003Y-65515000D01*
X110929308Y-65629712D01*
X110386072Y-65854727D01*
X109897174Y-66181399D01*
X109481399Y-66597174D01*
X109260000Y-66928520D01*
X109260000Y-61787333D01*
X109263677Y-61750000D01*
X109249003Y-61601014D01*
X109205546Y-61457753D01*
X109134974Y-61325724D01*
X109063799Y-61238997D01*
X109040001Y-61209999D01*
X109011004Y-61186202D01*
X108251303Y-60426502D01*
X108227501Y-60397499D01*
X108111776Y-60302526D01*
X107979747Y-60231954D01*
X107836486Y-60188497D01*
X107724833Y-60177500D01*
X107724822Y-60177500D01*
X107687500Y-60173824D01*
X107650178Y-60177500D01*
X104887932Y-60177500D01*
X104863405Y-60131613D01*
X104752962Y-59997038D01*
X104618387Y-59886595D01*
X104464851Y-59804528D01*
X104298255Y-59753992D01*
X104125001Y-59736928D01*
X102874999Y-59736928D01*
X102701745Y-59753992D01*
X102535149Y-59804528D01*
X102381613Y-59886595D01*
X102247038Y-59997038D01*
X102136595Y-60131613D01*
X102054528Y-60285149D01*
X102003992Y-60451745D01*
X101986928Y-60624999D01*
X101986928Y-61250001D01*
X102003992Y-61423255D01*
X102054528Y-61589851D01*
X102136595Y-61743387D01*
X102247038Y-61877962D01*
X102381613Y-61988405D01*
X102535149Y-62070472D01*
X102701745Y-62121008D01*
X102874999Y-62138072D01*
X104125001Y-62138072D01*
X104298255Y-62121008D01*
X104464851Y-62070472D01*
X104618387Y-61988405D01*
X104752962Y-61877962D01*
X104863405Y-61743387D01*
X104887932Y-61697500D01*
X107372699Y-61697500D01*
X107740000Y-62064802D01*
X107740000Y-67746336D01*
X107705546Y-67632753D01*
X107634974Y-67500724D01*
X107601553Y-67460000D01*
X107563799Y-67413996D01*
X107563795Y-67413992D01*
X107540001Y-67384999D01*
X107511009Y-67361206D01*
X104843023Y-64693222D01*
X104863405Y-64668387D01*
X104945472Y-64514851D01*
X104996008Y-64348255D01*
X105013072Y-64175001D01*
X105013072Y-63549999D01*
X104996008Y-63376745D01*
X104945472Y-63210149D01*
X104863405Y-63056613D01*
X104752962Y-62922038D01*
X104618387Y-62811595D01*
X104464851Y-62729528D01*
X104298255Y-62678992D01*
X104125001Y-62661928D01*
X102874999Y-62661928D01*
X102701745Y-62678992D01*
X102535149Y-62729528D01*
X102381613Y-62811595D01*
X102247038Y-62922038D01*
X102136595Y-63056613D01*
X102112068Y-63102500D01*
X100327301Y-63102500D01*
X100163804Y-62939003D01*
X100163799Y-62938997D01*
X92324802Y-55100000D01*
X100736928Y-55100000D01*
X100736928Y-56800000D01*
X100749188Y-56924482D01*
X100785498Y-57044180D01*
X100844463Y-57154494D01*
X100923815Y-57251185D01*
X101020506Y-57330537D01*
X101130820Y-57389502D01*
X101250518Y-57425812D01*
X101375000Y-57438072D01*
X103075000Y-57438072D01*
X103199482Y-57425812D01*
X103319180Y-57389502D01*
X103429494Y-57330537D01*
X103526185Y-57251185D01*
X103605537Y-57154494D01*
X103664502Y-57044180D01*
X103686513Y-56971620D01*
X103818368Y-57103475D01*
X104061589Y-57265990D01*
X104331842Y-57377932D01*
X104618740Y-57435000D01*
X104911260Y-57435000D01*
X105198158Y-57377932D01*
X105468411Y-57265990D01*
X105711632Y-57103475D01*
X105918475Y-56896632D01*
X106080990Y-56653411D01*
X106192932Y-56383158D01*
X106250000Y-56096260D01*
X106250000Y-55803740D01*
X106192932Y-55516842D01*
X106080990Y-55246589D01*
X105918475Y-55003368D01*
X105711632Y-54796525D01*
X105537240Y-54680000D01*
X105711632Y-54563475D01*
X105918475Y-54356632D01*
X106080990Y-54113411D01*
X106192932Y-53843158D01*
X106250000Y-53556260D01*
X106250000Y-53263740D01*
X106192932Y-52976842D01*
X106080990Y-52706589D01*
X105918475Y-52463368D01*
X105711632Y-52256525D01*
X105537240Y-52140000D01*
X105711632Y-52023475D01*
X105918475Y-51816632D01*
X106080990Y-51573411D01*
X106192932Y-51303158D01*
X106250000Y-51016260D01*
X106250000Y-50723740D01*
X106192932Y-50436842D01*
X106080990Y-50166589D01*
X105918475Y-49923368D01*
X105711632Y-49716525D01*
X105468411Y-49554010D01*
X105198158Y-49442068D01*
X104911260Y-49385000D01*
X104618740Y-49385000D01*
X104331842Y-49442068D01*
X104061589Y-49554010D01*
X103818368Y-49716525D01*
X103611525Y-49923368D01*
X103495000Y-50097760D01*
X103378475Y-49923368D01*
X103171632Y-49716525D01*
X102928411Y-49554010D01*
X102658158Y-49442068D01*
X102371260Y-49385000D01*
X102078740Y-49385000D01*
X101791842Y-49442068D01*
X101521589Y-49554010D01*
X101278368Y-49716525D01*
X101071525Y-49923368D01*
X100909010Y-50166589D01*
X100797068Y-50436842D01*
X100740000Y-50723740D01*
X100740000Y-51016260D01*
X100797068Y-51303158D01*
X100909010Y-51573411D01*
X101071525Y-51816632D01*
X101278368Y-52023475D01*
X101452760Y-52140000D01*
X101278368Y-52256525D01*
X101071525Y-52463368D01*
X100909010Y-52706589D01*
X100797068Y-52976842D01*
X100740000Y-53263740D01*
X100740000Y-53556260D01*
X100797068Y-53843158D01*
X100909010Y-54113411D01*
X101071525Y-54356632D01*
X101203380Y-54488487D01*
X101130820Y-54510498D01*
X101020506Y-54569463D01*
X100923815Y-54648815D01*
X100844463Y-54745506D01*
X100785498Y-54855820D01*
X100749188Y-54975518D01*
X100736928Y-55100000D01*
X92324802Y-55100000D01*
X89263804Y-52039003D01*
X89240001Y-52009999D01*
X89124276Y-51915026D01*
X88992247Y-51844454D01*
X88848986Y-51800997D01*
X88737333Y-51790000D01*
X88737322Y-51790000D01*
X88700000Y-51786324D01*
X88662678Y-51790000D01*
X83128010Y-51790000D01*
X83171008Y-51648255D01*
X83188072Y-51475001D01*
X83188072Y-50949999D01*
X83171008Y-50776745D01*
X83120472Y-50610149D01*
X83038405Y-50456613D01*
X82927962Y-50322038D01*
X82901109Y-50300000D01*
X82927962Y-50277962D01*
X82966857Y-50230568D01*
X82990226Y-50253937D01*
X83159744Y-50367205D01*
X83348102Y-50445226D01*
X83548061Y-50485000D01*
X83751939Y-50485000D01*
X83951898Y-50445226D01*
X84140256Y-50367205D01*
X84309774Y-50253937D01*
X84453937Y-50109774D01*
X84567205Y-49940256D01*
X84645226Y-49751898D01*
X84685000Y-49551939D01*
X84685000Y-49348061D01*
X84645226Y-49148102D01*
X84567205Y-48959744D01*
X84453937Y-48790226D01*
X84309774Y-48646063D01*
X84140256Y-48532795D01*
X83951898Y-48454774D01*
X83751939Y-48415000D01*
X83548061Y-48415000D01*
X83348102Y-48454774D01*
X83159744Y-48532795D01*
X83029001Y-48620154D01*
X82927962Y-48497038D01*
X82793387Y-48386595D01*
X82639851Y-48304528D01*
X82473255Y-48253992D01*
X82300001Y-48236928D01*
X81947932Y-48236928D01*
X81993158Y-48227932D01*
X82263411Y-48115990D01*
X82506632Y-47953475D01*
X82713475Y-47746632D01*
X82830000Y-47572240D01*
X82946525Y-47746632D01*
X83153368Y-47953475D01*
X83396589Y-48115990D01*
X83666842Y-48227932D01*
X83953740Y-48285000D01*
X84246260Y-48285000D01*
X84533158Y-48227932D01*
X84803411Y-48115990D01*
X85046632Y-47953475D01*
X85253475Y-47746632D01*
X85370000Y-47572240D01*
X85486525Y-47746632D01*
X85693368Y-47953475D01*
X85936589Y-48115990D01*
X86206842Y-48227932D01*
X86493740Y-48285000D01*
X86786260Y-48285000D01*
X87073158Y-48227932D01*
X87343411Y-48115990D01*
X87586632Y-47953475D01*
X87793475Y-47746632D01*
X87955990Y-47503411D01*
X88067932Y-47233158D01*
X88125000Y-46946260D01*
X88125000Y-46653740D01*
X88067932Y-46366842D01*
X87955990Y-46096589D01*
X87793475Y-45853368D01*
X87586632Y-45646525D01*
X87412240Y-45530000D01*
X87586632Y-45413475D01*
X87793475Y-45206632D01*
X87910000Y-45032240D01*
X88026525Y-45206632D01*
X88233368Y-45413475D01*
X88476589Y-45575990D01*
X88746842Y-45687932D01*
X89033740Y-45745000D01*
X89326260Y-45745000D01*
X89613158Y-45687932D01*
X89883411Y-45575990D01*
X90126632Y-45413475D01*
X90333475Y-45206632D01*
X90450000Y-45032240D01*
X90566525Y-45206632D01*
X90773368Y-45413475D01*
X90947760Y-45530000D01*
X90773368Y-45646525D01*
X90566525Y-45853368D01*
X90404010Y-46096589D01*
X90292068Y-46366842D01*
X90235000Y-46653740D01*
X90235000Y-46946260D01*
X90292068Y-47233158D01*
X90404010Y-47503411D01*
X90566525Y-47746632D01*
X90773368Y-47953475D01*
X91016589Y-48115990D01*
X91286842Y-48227932D01*
X91573740Y-48285000D01*
X91866260Y-48285000D01*
X92153158Y-48227932D01*
X92423411Y-48115990D01*
X92666632Y-47953475D01*
X92873475Y-47746632D01*
X92990000Y-47572240D01*
X93106525Y-47746632D01*
X93313368Y-47953475D01*
X93556589Y-48115990D01*
X93826842Y-48227932D01*
X94113740Y-48285000D01*
X94406260Y-48285000D01*
X94693158Y-48227932D01*
X94963411Y-48115990D01*
X95206632Y-47953475D01*
X95413475Y-47746632D01*
X95530000Y-47572240D01*
X95646525Y-47746632D01*
X95853368Y-47953475D01*
X96096589Y-48115990D01*
X96366842Y-48227932D01*
X96653740Y-48285000D01*
X96946260Y-48285000D01*
X97233158Y-48227932D01*
X97503411Y-48115990D01*
X97746632Y-47953475D01*
X97953475Y-47746632D01*
X98070000Y-47572240D01*
X98186525Y-47746632D01*
X98393368Y-47953475D01*
X98636589Y-48115990D01*
X98906842Y-48227932D01*
X99193740Y-48285000D01*
X99486260Y-48285000D01*
X99773158Y-48227932D01*
X100043411Y-48115990D01*
X100286632Y-47953475D01*
X100493475Y-47746632D01*
X100610000Y-47572240D01*
X100726525Y-47746632D01*
X100933368Y-47953475D01*
X101176589Y-48115990D01*
X101446842Y-48227932D01*
X101733740Y-48285000D01*
X102026260Y-48285000D01*
X102313158Y-48227932D01*
X102583411Y-48115990D01*
X102826632Y-47953475D01*
X103033475Y-47746632D01*
X103150000Y-47572240D01*
X103266525Y-47746632D01*
X103473368Y-47953475D01*
X103716589Y-48115990D01*
X103986842Y-48227932D01*
X104273740Y-48285000D01*
X104566260Y-48285000D01*
X104853158Y-48227932D01*
X105123411Y-48115990D01*
X105366632Y-47953475D01*
X105573475Y-47746632D01*
X105735990Y-47503411D01*
X105847932Y-47233158D01*
X105905000Y-46946260D01*
X105905000Y-46653740D01*
X105847932Y-46366842D01*
X105735990Y-46096589D01*
X105573475Y-45853368D01*
X105366632Y-45646525D01*
X105192240Y-45530000D01*
X105366632Y-45413475D01*
X105573475Y-45206632D01*
X105690000Y-45032240D01*
X105806525Y-45206632D01*
X106013368Y-45413475D01*
X106256589Y-45575990D01*
X106526842Y-45687932D01*
X106813740Y-45745000D01*
X107106260Y-45745000D01*
X107393158Y-45687932D01*
X107663411Y-45575990D01*
X107906632Y-45413475D01*
X108113475Y-45206632D01*
X108275990Y-44963411D01*
X108387932Y-44693158D01*
X108445000Y-44406260D01*
X108445000Y-44113740D01*
X108387932Y-43826842D01*
X108275990Y-43556589D01*
X108113475Y-43313368D01*
X107906632Y-43106525D01*
X107663411Y-42944010D01*
X107393158Y-42832068D01*
X107106260Y-42775000D01*
X106813740Y-42775000D01*
X106526842Y-42832068D01*
X106256589Y-42944010D01*
X106013368Y-43106525D01*
X105806525Y-43313368D01*
X105690000Y-43487760D01*
X105573475Y-43313368D01*
X105366632Y-43106525D01*
X105123411Y-42944010D01*
X104853158Y-42832068D01*
X104566260Y-42775000D01*
X104273740Y-42775000D01*
X103986842Y-42832068D01*
X103716589Y-42944010D01*
X103473368Y-43106525D01*
X103266525Y-43313368D01*
X103150000Y-43487760D01*
X103033475Y-43313368D01*
X102826632Y-43106525D01*
X102583411Y-42944010D01*
X102313158Y-42832068D01*
X102026260Y-42775000D01*
X101733740Y-42775000D01*
X101446842Y-42832068D01*
X101176589Y-42944010D01*
X100933368Y-43106525D01*
X100726525Y-43313368D01*
X100564010Y-43556589D01*
X100452068Y-43826842D01*
X100395000Y-44113740D01*
X100395000Y-44406260D01*
X100452068Y-44693158D01*
X100564010Y-44963411D01*
X100726525Y-45206632D01*
X100933368Y-45413475D01*
X101107760Y-45530000D01*
X100933368Y-45646525D01*
X100726525Y-45853368D01*
X100610000Y-46027760D01*
X100493475Y-45853368D01*
X100286632Y-45646525D01*
X100043411Y-45484010D01*
X99773158Y-45372068D01*
X99486260Y-45315000D01*
X99193740Y-45315000D01*
X98906842Y-45372068D01*
X98636589Y-45484010D01*
X98393368Y-45646525D01*
X98186525Y-45853368D01*
X98070000Y-46027760D01*
X97953475Y-45853368D01*
X97746632Y-45646525D01*
X97572240Y-45530000D01*
X97746632Y-45413475D01*
X97953475Y-45206632D01*
X98115990Y-44963411D01*
X98227932Y-44693158D01*
X98285000Y-44406260D01*
X98285000Y-44113740D01*
X98227932Y-43826842D01*
X98115990Y-43556589D01*
X97953475Y-43313368D01*
X97746632Y-43106525D01*
X97503411Y-42944010D01*
X97233158Y-42832068D01*
X96946260Y-42775000D01*
X96653740Y-42775000D01*
X96366842Y-42832068D01*
X96096589Y-42944010D01*
X95853368Y-43106525D01*
X95646525Y-43313368D01*
X95484010Y-43556589D01*
X95372068Y-43826842D01*
X95315000Y-44113740D01*
X95315000Y-44406260D01*
X95372068Y-44693158D01*
X95484010Y-44963411D01*
X95646525Y-45206632D01*
X95853368Y-45413475D01*
X96027760Y-45530000D01*
X95853368Y-45646525D01*
X95646525Y-45853368D01*
X95530000Y-46027760D01*
X95413475Y-45853368D01*
X95206632Y-45646525D01*
X94963411Y-45484010D01*
X94693158Y-45372068D01*
X94406260Y-45315000D01*
X94113740Y-45315000D01*
X93826842Y-45372068D01*
X93556589Y-45484010D01*
X93313368Y-45646525D01*
X93106525Y-45853368D01*
X92990000Y-46027760D01*
X92873475Y-45853368D01*
X92666632Y-45646525D01*
X92492240Y-45530000D01*
X92666632Y-45413475D01*
X92873475Y-45206632D01*
X93035990Y-44963411D01*
X93147932Y-44693158D01*
X93205000Y-44406260D01*
X93205000Y-44113740D01*
X93147932Y-43826842D01*
X93035990Y-43556589D01*
X92873475Y-43313368D01*
X92666632Y-43106525D01*
X92423411Y-42944010D01*
X92153158Y-42832068D01*
X91866260Y-42775000D01*
X91573740Y-42775000D01*
X91286842Y-42832068D01*
X91016589Y-42944010D01*
X90773368Y-43106525D01*
X90566525Y-43313368D01*
X90450000Y-43487760D01*
X90333475Y-43313368D01*
X90126632Y-43106525D01*
X89883411Y-42944010D01*
X89613158Y-42832068D01*
X89326260Y-42775000D01*
X89033740Y-42775000D01*
X88746842Y-42832068D01*
X88476589Y-42944010D01*
X88233368Y-43106525D01*
X88026525Y-43313368D01*
X87910000Y-43487760D01*
X87793475Y-43313368D01*
X87586632Y-43106525D01*
X87343411Y-42944010D01*
X87073158Y-42832068D01*
X86786260Y-42775000D01*
X86493740Y-42775000D01*
X86206842Y-42832068D01*
X85936589Y-42944010D01*
X85693368Y-43106525D01*
X85486525Y-43313368D01*
X85370000Y-43487760D01*
X85253475Y-43313368D01*
X85046632Y-43106525D01*
X84803411Y-42944010D01*
X84533158Y-42832068D01*
X84246260Y-42775000D01*
X83953740Y-42775000D01*
X83666842Y-42832068D01*
X83396589Y-42944010D01*
X83153368Y-43106525D01*
X82946525Y-43313368D01*
X82784010Y-43556589D01*
X82672068Y-43826842D01*
X82615000Y-44113740D01*
X82615000Y-44406260D01*
X82672068Y-44693158D01*
X82784010Y-44963411D01*
X82946525Y-45206632D01*
X83153368Y-45413475D01*
X83327760Y-45530000D01*
X83153368Y-45646525D01*
X82946525Y-45853368D01*
X82830000Y-46027760D01*
X82713475Y-45853368D01*
X82506632Y-45646525D01*
X82263411Y-45484010D01*
X81993158Y-45372068D01*
X81706260Y-45315000D01*
X81413740Y-45315000D01*
X81126842Y-45372068D01*
X80856589Y-45484010D01*
X80613368Y-45646525D01*
X80406525Y-45853368D01*
X80290000Y-46027760D01*
X80173475Y-45853368D01*
X79966632Y-45646525D01*
X79792240Y-45530000D01*
X79966632Y-45413475D01*
X80173475Y-45206632D01*
X80335990Y-44963411D01*
X80447932Y-44693158D01*
X80505000Y-44406260D01*
X80505000Y-44113740D01*
X80447932Y-43826842D01*
X80335990Y-43556589D01*
X80173475Y-43313368D01*
X79966632Y-43106525D01*
X79723411Y-42944010D01*
X79453158Y-42832068D01*
X79166260Y-42775000D01*
X78873740Y-42775000D01*
X78586842Y-42832068D01*
X78316589Y-42944010D01*
X78073368Y-43106525D01*
X77866525Y-43313368D01*
X77750000Y-43487760D01*
X77633475Y-43313368D01*
X77426632Y-43106525D01*
X77183411Y-42944010D01*
X76913158Y-42832068D01*
X76626260Y-42775000D01*
X76333740Y-42775000D01*
X76046842Y-42832068D01*
X75776589Y-42944010D01*
X75533368Y-43106525D01*
X75326525Y-43313368D01*
X75164010Y-43556589D01*
X75052068Y-43826842D01*
X74995000Y-44113740D01*
X74995000Y-44406260D01*
X75052068Y-44693158D01*
X75164010Y-44963411D01*
X75278382Y-45134581D01*
X75257803Y-45114002D01*
X75234000Y-45084998D01*
X75118275Y-44990025D01*
X74986246Y-44919453D01*
X74842985Y-44875996D01*
X74731332Y-44864999D01*
X74731321Y-44864999D01*
X74693999Y-44861323D01*
X74656677Y-44864999D01*
X72756753Y-44864999D01*
X72827932Y-44693158D01*
X72885000Y-44406260D01*
X72885000Y-44113740D01*
X72827932Y-43826842D01*
X72715990Y-43556589D01*
X72553475Y-43313368D01*
X72346632Y-43106525D01*
X72103411Y-42944010D01*
X71833158Y-42832068D01*
X71546260Y-42775000D01*
X71253740Y-42775000D01*
X70966842Y-42832068D01*
X70696589Y-42944010D01*
X70453368Y-43106525D01*
X70246525Y-43313368D01*
X70130000Y-43487760D01*
X70013475Y-43313368D01*
X69806632Y-43106525D01*
X69563411Y-42944010D01*
X69293158Y-42832068D01*
X69006260Y-42775000D01*
X68713740Y-42775000D01*
X68426842Y-42832068D01*
X68156589Y-42944010D01*
X67913368Y-43106525D01*
X67706525Y-43313368D01*
X67590000Y-43487760D01*
X67473475Y-43313368D01*
X67266632Y-43106525D01*
X67023411Y-42944010D01*
X66753158Y-42832068D01*
X66466260Y-42775000D01*
X66173740Y-42775000D01*
X65886842Y-42832068D01*
X65616589Y-42944010D01*
X65373368Y-43106525D01*
X65166525Y-43313368D01*
X65004010Y-43556589D01*
X64892068Y-43826842D01*
X64835000Y-44113740D01*
X64835000Y-44406260D01*
X64892068Y-44693158D01*
X64963247Y-44864999D01*
X62596753Y-44864999D01*
X62667932Y-44693158D01*
X62725000Y-44406260D01*
X62725000Y-44113740D01*
X62667932Y-43826842D01*
X62555990Y-43556589D01*
X62393475Y-43313368D01*
X62186632Y-43106525D01*
X61943411Y-42944010D01*
X61673158Y-42832068D01*
X61386260Y-42775000D01*
X61093740Y-42775000D01*
X60806842Y-42832068D01*
X60536589Y-42944010D01*
X60293368Y-43106525D01*
X60086525Y-43313368D01*
X59970000Y-43487760D01*
X59853475Y-43313368D01*
X59646632Y-43106525D01*
X59403411Y-42944010D01*
X59133158Y-42832068D01*
X58846260Y-42775000D01*
X58553740Y-42775000D01*
X58266842Y-42832068D01*
X57996589Y-42944010D01*
X57753368Y-43106525D01*
X57546525Y-43313368D01*
X57384010Y-43556589D01*
X57272068Y-43826842D01*
X57215000Y-44113740D01*
X57215000Y-44406260D01*
X57272068Y-44693158D01*
X57384010Y-44963411D01*
X57546525Y-45206632D01*
X57678380Y-45338487D01*
X57605820Y-45360498D01*
X57495506Y-45419463D01*
X57398815Y-45498815D01*
X57319463Y-45595506D01*
X57260498Y-45705820D01*
X57224188Y-45825518D01*
X57211928Y-45950000D01*
X57211928Y-47650000D01*
X57224188Y-47774482D01*
X57260498Y-47894180D01*
X57319463Y-48004494D01*
X57398815Y-48101185D01*
X57495506Y-48180537D01*
X57605820Y-48239502D01*
X57725518Y-48275812D01*
X57850000Y-48288072D01*
X59550000Y-48288072D01*
X59674482Y-48275812D01*
X59794180Y-48239502D01*
X59904494Y-48180537D01*
X60001185Y-48101185D01*
X60080537Y-48004494D01*
X60139502Y-47894180D01*
X60161513Y-47821620D01*
X60293368Y-47953475D01*
X60536589Y-48115990D01*
X60806842Y-48227932D01*
X61093740Y-48285000D01*
X61386260Y-48285000D01*
X61673158Y-48227932D01*
X61943411Y-48115990D01*
X62170001Y-47964587D01*
X62170002Y-49342669D01*
X62166325Y-49380001D01*
X62170002Y-49417334D01*
X62180999Y-49528987D01*
X62183531Y-49537333D01*
X62224455Y-49672247D01*
X62295027Y-49804277D01*
X62353663Y-49875724D01*
X62390001Y-49920002D01*
X62418999Y-49943800D01*
X62465199Y-49990000D01*
X62128178Y-49990000D01*
X62003475Y-49803368D01*
X61796632Y-49596525D01*
X61553411Y-49434010D01*
X61283158Y-49322068D01*
X60996260Y-49265000D01*
X60703740Y-49265000D01*
X60416842Y-49322068D01*
X60146589Y-49434010D01*
X59903368Y-49596525D01*
X59696525Y-49803368D01*
X59534010Y-50046589D01*
X59422068Y-50316842D01*
X59365000Y-50603740D01*
X59365000Y-50896260D01*
X59422068Y-51183158D01*
X59534010Y-51453411D01*
X59567634Y-51503733D01*
X59559999Y-51509999D01*
X59536205Y-51538993D01*
X59039002Y-52036197D01*
X59009999Y-52059999D01*
X58976199Y-52101185D01*
X58915026Y-52175724D01*
X58859385Y-52279820D01*
X58844454Y-52307754D01*
X58800997Y-52451015D01*
X58790000Y-52562668D01*
X58790000Y-52562678D01*
X58786324Y-52600000D01*
X58790000Y-52637323D01*
X58790001Y-54492668D01*
X58786324Y-54530000D01*
X58790001Y-54567333D01*
X58800998Y-54678986D01*
X58805933Y-54695254D01*
X58844454Y-54822246D01*
X58915026Y-54954276D01*
X58981254Y-55034974D01*
X59010000Y-55070001D01*
X59038998Y-55093799D01*
X59408791Y-55463592D01*
X59365000Y-55683740D01*
X59365000Y-55976260D01*
X59422068Y-56263158D01*
X59534010Y-56533411D01*
X59696525Y-56776632D01*
X59903368Y-56983475D01*
X60077760Y-57100000D01*
X59903368Y-57216525D01*
X59696525Y-57423368D01*
X59534010Y-57666589D01*
X59422068Y-57936842D01*
X59365000Y-58223740D01*
X59365000Y-58516260D01*
X59422068Y-58803158D01*
X59534010Y-59073411D01*
X59696525Y-59316632D01*
X59903368Y-59523475D01*
X60146589Y-59685990D01*
X60416842Y-59797932D01*
X60703740Y-59855000D01*
X60996260Y-59855000D01*
X61283158Y-59797932D01*
X61553411Y-59685990D01*
X61796632Y-59523475D01*
X62003475Y-59316632D01*
X62111474Y-59155000D01*
X69094843Y-59155000D01*
X72517658Y-62577816D01*
X72542236Y-62607764D01*
X72572184Y-62632342D01*
X72572187Y-62632345D01*
X72594940Y-62651018D01*
X72661767Y-62705862D01*
X72793334Y-62776185D01*
X72798140Y-62778754D01*
X72946113Y-62823642D01*
X73021026Y-62831020D01*
X73061439Y-62835000D01*
X73061444Y-62835000D01*
X73100000Y-62838797D01*
X73138556Y-62835000D01*
X74120482Y-62835000D01*
X74138759Y-62850000D01*
X74048815Y-62923815D01*
X73988222Y-62997649D01*
X73982245Y-62994454D01*
X73838984Y-62950997D01*
X73727331Y-62940000D01*
X73727320Y-62940000D01*
X73689998Y-62936324D01*
X73652676Y-62940000D01*
X72376607Y-62940000D01*
X72324482Y-62924188D01*
X72200000Y-62911928D01*
X70600000Y-62911928D01*
X70475518Y-62924188D01*
X70355820Y-62960498D01*
X70245506Y-63019463D01*
X70148815Y-63098815D01*
X70069463Y-63195506D01*
X70010498Y-63305820D01*
X69974188Y-63425518D01*
X69961928Y-63550000D01*
X69961928Y-63850000D01*
X69974188Y-63974482D01*
X70010498Y-64094180D01*
X70069463Y-64204494D01*
X70148815Y-64301185D01*
X70245506Y-64380537D01*
X70355820Y-64439502D01*
X70475518Y-64475812D01*
X70600000Y-64488072D01*
X72200000Y-64488072D01*
X72324482Y-64475812D01*
X72376607Y-64460000D01*
X73375197Y-64460000D01*
X73414833Y-64499636D01*
X73401014Y-64500997D01*
X73257753Y-64544454D01*
X73125724Y-64615026D01*
X73009999Y-64709999D01*
X72986196Y-64739003D01*
X72885199Y-64840000D01*
X72376607Y-64840000D01*
X72324482Y-64824188D01*
X72200000Y-64811928D01*
X70600000Y-64811928D01*
X70475518Y-64824188D01*
X70355820Y-64860498D01*
X70245506Y-64919463D01*
X70148815Y-64998815D01*
X70069463Y-65095506D01*
X70010498Y-65205820D01*
X69974188Y-65325518D01*
X69961928Y-65450000D01*
X69961928Y-65750000D01*
X69974188Y-65874482D01*
X70010498Y-65994180D01*
X70069463Y-66104494D01*
X70148815Y-66201185D01*
X70245506Y-66280537D01*
X70355820Y-66339502D01*
X70475518Y-66375812D01*
X70600000Y-66388072D01*
X72200000Y-66388072D01*
X72324482Y-66375812D01*
X72376607Y-66360000D01*
X73162678Y-66360000D01*
X73200000Y-66363676D01*
X73237322Y-66360000D01*
X73237333Y-66360000D01*
X73348986Y-66349003D01*
X73492247Y-66305546D01*
X73624276Y-66234974D01*
X73740001Y-66140001D01*
X73763804Y-66110997D01*
X73864801Y-66010000D01*
X74090019Y-66010000D01*
X74145506Y-66055537D01*
X74255820Y-66114502D01*
X74375518Y-66150812D01*
X74500000Y-66163072D01*
X75836928Y-66163072D01*
X75836928Y-67500000D01*
X75849188Y-67624482D01*
X75885498Y-67744180D01*
X75944463Y-67854494D01*
X75990001Y-67909982D01*
X75990000Y-70312677D01*
X75986324Y-70350000D01*
X75990000Y-70387322D01*
X75990000Y-70387332D01*
X76000997Y-70498985D01*
X76032398Y-70602501D01*
X76044454Y-70642246D01*
X76115026Y-70774276D01*
X76145578Y-70811503D01*
X76209999Y-70890001D01*
X76239003Y-70913804D01*
X87315001Y-81989803D01*
X87315001Y-82086928D01*
X87200000Y-82086928D01*
X87075518Y-82099188D01*
X86955820Y-82135498D01*
X86845506Y-82194463D01*
X86748815Y-82273815D01*
X86669463Y-82370506D01*
X86610498Y-82480820D01*
X86574188Y-82600518D01*
X86561928Y-82725000D01*
X86561928Y-83994164D01*
X86488405Y-83856613D01*
X86377962Y-83722038D01*
X86243387Y-83611595D01*
X86089851Y-83529528D01*
X85923255Y-83478992D01*
X85750001Y-83461928D01*
X84449999Y-83461928D01*
X84276745Y-83478992D01*
X84110149Y-83529528D01*
X83956613Y-83611595D01*
X83822038Y-83722038D01*
X83711595Y-83856613D01*
X83629528Y-84010149D01*
X83578992Y-84176745D01*
X83561928Y-84349999D01*
X83561928Y-85000001D01*
X83578992Y-85173255D01*
X83629528Y-85339851D01*
X83711595Y-85493387D01*
X83822038Y-85627962D01*
X83956613Y-85738405D01*
X84110149Y-85820472D01*
X84276745Y-85871008D01*
X84449999Y-85888072D01*
X84707941Y-85888072D01*
X85142522Y-86322653D01*
X85041377Y-86376716D01*
X84868551Y-86518551D01*
X84833011Y-86561857D01*
X83266538Y-88128331D01*
X83100000Y-88111928D01*
X82000000Y-88111928D01*
X81826746Y-88128992D01*
X81660150Y-88179528D01*
X81506614Y-88261595D01*
X81372038Y-88372038D01*
X81261595Y-88506614D01*
X81179528Y-88660150D01*
X81128992Y-88826746D01*
X81111928Y-89000000D01*
X81111928Y-91100000D01*
X81128992Y-91273254D01*
X81179528Y-91439850D01*
X81205823Y-91489045D01*
X78542221Y-94152647D01*
X78570576Y-94099599D01*
X78628510Y-93908616D01*
X78642931Y-93762200D01*
X80213141Y-92191991D01*
X80256449Y-92156449D01*
X80398284Y-91983623D01*
X80503676Y-91786447D01*
X80568577Y-91572499D01*
X80585000Y-91405752D01*
X80585000Y-91405751D01*
X80590491Y-91350000D01*
X80585000Y-91294248D01*
X80585000Y-80955751D01*
X80590491Y-80899999D01*
X80568577Y-80677500D01*
X80537791Y-80576014D01*
X80503676Y-80463553D01*
X80398284Y-80266377D01*
X80256449Y-80093551D01*
X80213141Y-80058009D01*
X79488072Y-79332940D01*
X79488072Y-76200000D01*
X79475812Y-76075518D01*
X79439502Y-75955820D01*
X79380537Y-75845506D01*
X79301185Y-75748815D01*
X79204494Y-75669463D01*
X79094180Y-75610498D01*
X78974482Y-75574188D01*
X78850000Y-75561928D01*
X76050000Y-75561928D01*
X75925518Y-75574188D01*
X75805820Y-75610498D01*
X75695506Y-75669463D01*
X75598815Y-75748815D01*
X75519463Y-75845506D01*
X75460498Y-75955820D01*
X75424188Y-76075518D01*
X75411928Y-76200000D01*
X75411928Y-81600000D01*
X75424188Y-81724482D01*
X75460498Y-81844180D01*
X75519463Y-81954494D01*
X75598815Y-82051185D01*
X75695506Y-82130537D01*
X75805820Y-82189502D01*
X75925518Y-82225812D01*
X76050000Y-82238072D01*
X78315001Y-82238072D01*
X78315000Y-90879868D01*
X77422941Y-91771928D01*
X76870000Y-91771928D01*
X76671384Y-91791490D01*
X76480401Y-91849424D01*
X76304390Y-91943504D01*
X76156345Y-92065000D01*
X73727603Y-92065000D01*
X73719180Y-92060498D01*
X73599482Y-92024188D01*
X73475000Y-92011928D01*
X68875000Y-92011928D01*
X68750518Y-92024188D01*
X68630820Y-92060498D01*
X68520506Y-92119463D01*
X68423815Y-92198815D01*
X68344463Y-92295506D01*
X68285498Y-92405820D01*
X68249188Y-92525518D01*
X68236928Y-92650000D01*
X68236928Y-93750000D01*
X68249188Y-93874482D01*
X68285498Y-93994180D01*
X68315335Y-94050000D01*
X68285498Y-94105820D01*
X68249188Y-94225518D01*
X68236928Y-94350000D01*
X68236928Y-95450000D01*
X68249188Y-95574482D01*
X68285498Y-95694180D01*
X68344463Y-95804494D01*
X68423815Y-95901185D01*
X68520506Y-95980537D01*
X68630820Y-96039502D01*
X68750518Y-96075812D01*
X68875000Y-96088072D01*
X70757940Y-96088072D01*
X71265001Y-96595133D01*
X71265000Y-98909869D01*
X69891996Y-97536865D01*
X69856449Y-97493551D01*
X69683623Y-97351716D01*
X69486447Y-97246324D01*
X69272499Y-97181423D01*
X69105752Y-97165000D01*
X69105751Y-97165000D01*
X69050000Y-97159509D01*
X68994249Y-97165000D01*
X63844248Y-97165000D01*
X63677501Y-97181423D01*
X63463553Y-97246324D01*
X63430827Y-97263816D01*
X63325518Y-97274188D01*
X63205820Y-97310498D01*
X63095506Y-97369463D01*
X62998815Y-97448815D01*
X62919463Y-97545506D01*
X62860498Y-97655820D01*
X62824188Y-97775518D01*
X62811928Y-97900000D01*
X62811928Y-97976940D01*
X62781423Y-98077501D01*
X62759509Y-98300000D01*
X62766432Y-98370294D01*
X62704494Y-98319463D01*
X62594180Y-98260498D01*
X62474482Y-98224188D01*
X62369173Y-98213816D01*
X62336447Y-98196324D01*
X62122499Y-98131423D01*
X61955752Y-98115000D01*
X55705751Y-98115000D01*
X55649999Y-98109509D01*
X55594248Y-98115000D01*
X55427501Y-98131423D01*
X55213553Y-98196324D01*
X55016377Y-98301716D01*
X54843551Y-98443551D01*
X54808004Y-98486865D01*
X54436865Y-98858004D01*
X54393551Y-98893551D01*
X54251716Y-99066377D01*
X54163972Y-99230537D01*
X54146324Y-99263554D01*
X54081423Y-99477502D01*
X54059509Y-99700000D01*
X54065000Y-99755752D01*
X54065000Y-100592182D01*
X53959294Y-100720986D01*
X53821401Y-100978966D01*
X53736487Y-101258889D01*
X53715000Y-101477050D01*
X53715000Y-101922949D01*
X53736487Y-102141110D01*
X53821401Y-102421033D01*
X53959294Y-102679013D01*
X54144866Y-102905134D01*
X54370986Y-103090706D01*
X54628966Y-103228599D01*
X54908889Y-103313513D01*
X55200000Y-103342185D01*
X55491110Y-103313513D01*
X55771033Y-103228599D01*
X56029013Y-103090706D01*
X56255134Y-102905134D01*
X56440706Y-102679014D01*
X56578599Y-102421034D01*
X56663513Y-102141111D01*
X56685000Y-101922950D01*
X56685000Y-101477051D01*
X56663513Y-101258890D01*
X56578599Y-100978967D01*
X56440706Y-100720986D01*
X56335000Y-100592183D01*
X56335000Y-100385000D01*
X61955752Y-100385000D01*
X62122499Y-100368577D01*
X62336447Y-100303676D01*
X62369173Y-100286184D01*
X62474482Y-100275812D01*
X62594180Y-100239502D01*
X62704494Y-100180537D01*
X62801185Y-100101185D01*
X62880537Y-100004494D01*
X62939502Y-99894180D01*
X62975812Y-99774482D01*
X62988072Y-99650000D01*
X62988072Y-99573060D01*
X63018577Y-99472499D01*
X63040491Y-99250000D01*
X63033568Y-99179706D01*
X63095506Y-99230537D01*
X63205820Y-99289502D01*
X63325518Y-99325812D01*
X63430827Y-99336184D01*
X63463553Y-99353676D01*
X63677501Y-99418577D01*
X63844248Y-99435000D01*
X68579869Y-99435000D01*
X70011928Y-100867060D01*
X70011928Y-101500000D01*
X70028992Y-101673254D01*
X70079528Y-101839850D01*
X70161595Y-101993386D01*
X70272038Y-102127962D01*
X70406614Y-102238405D01*
X70560150Y-102320472D01*
X70726746Y-102371008D01*
X70900000Y-102388072D01*
X73900000Y-102388072D01*
X74073254Y-102371008D01*
X74239850Y-102320472D01*
X74393386Y-102238405D01*
X74527962Y-102127962D01*
X74638405Y-101993386D01*
X74720472Y-101839850D01*
X74771008Y-101673254D01*
X74785407Y-101527050D01*
X76215000Y-101527050D01*
X76215000Y-101972949D01*
X76236487Y-102191110D01*
X76321401Y-102471033D01*
X76459294Y-102729013D01*
X76644866Y-102955134D01*
X76870986Y-103140706D01*
X77128966Y-103278599D01*
X77408889Y-103363513D01*
X77700000Y-103392185D01*
X77991110Y-103363513D01*
X78271033Y-103278599D01*
X78529013Y-103140706D01*
X78755134Y-102955134D01*
X78807223Y-102891663D01*
X78861595Y-102993386D01*
X78972038Y-103127962D01*
X79106614Y-103238405D01*
X79260150Y-103320472D01*
X79426746Y-103371008D01*
X79600000Y-103388072D01*
X80800000Y-103388072D01*
X80973254Y-103371008D01*
X81139850Y-103320472D01*
X81293386Y-103238405D01*
X81427962Y-103127962D01*
X81538405Y-102993386D01*
X81596339Y-102885000D01*
X82394249Y-102885000D01*
X82450000Y-102890491D01*
X82505751Y-102885000D01*
X82505752Y-102885000D01*
X82672499Y-102868577D01*
X82886447Y-102803676D01*
X83083623Y-102698284D01*
X83256449Y-102556449D01*
X83291996Y-102513135D01*
X85009975Y-100795156D01*
X85009294Y-100795986D01*
X84871401Y-101053966D01*
X84786487Y-101333889D01*
X84765000Y-101552050D01*
X84765000Y-101947949D01*
X84786487Y-102166110D01*
X84871401Y-102446033D01*
X85009294Y-102704013D01*
X85194866Y-102930134D01*
X85420986Y-103115706D01*
X85678966Y-103253599D01*
X85958889Y-103338513D01*
X86250000Y-103367185D01*
X86541110Y-103338513D01*
X86821033Y-103253599D01*
X87079013Y-103115706D01*
X87305134Y-102930134D01*
X87490706Y-102704014D01*
X87500000Y-102686626D01*
X87509294Y-102704013D01*
X87694866Y-102930134D01*
X87920986Y-103115706D01*
X88178966Y-103253599D01*
X88458889Y-103338513D01*
X88750000Y-103367185D01*
X89041110Y-103338513D01*
X89321033Y-103253599D01*
X89579013Y-103115706D01*
X89805134Y-102930134D01*
X89990706Y-102704014D01*
X90128599Y-102446034D01*
X90213513Y-102166111D01*
X90235000Y-101947950D01*
X90235000Y-101552051D01*
X90235000Y-101552050D01*
X95815000Y-101552050D01*
X95815000Y-101947949D01*
X95836487Y-102166110D01*
X95921401Y-102446033D01*
X96059294Y-102704013D01*
X96244866Y-102930134D01*
X96470986Y-103115706D01*
X96728966Y-103253599D01*
X97008889Y-103338513D01*
X97300000Y-103367185D01*
X97591110Y-103338513D01*
X97871033Y-103253599D01*
X98129013Y-103115706D01*
X98355134Y-102930134D01*
X98540706Y-102704014D01*
X98550000Y-102686626D01*
X98559294Y-102704013D01*
X98744866Y-102930134D01*
X98970986Y-103115706D01*
X99228966Y-103253599D01*
X99508889Y-103338513D01*
X99800000Y-103367185D01*
X100091110Y-103338513D01*
X100371033Y-103253599D01*
X100629013Y-103115706D01*
X100855134Y-102930134D01*
X101040706Y-102704014D01*
X101178599Y-102446034D01*
X101263513Y-102166111D01*
X101285000Y-101947950D01*
X101285000Y-101552051D01*
X101263513Y-101333890D01*
X101178599Y-101053967D01*
X101040706Y-100795986D01*
X100855134Y-100569866D01*
X100629014Y-100384294D01*
X100371034Y-100246401D01*
X100091111Y-100161487D01*
X99800000Y-100132815D01*
X99508890Y-100161487D01*
X99228967Y-100246401D01*
X98970987Y-100384294D01*
X98744866Y-100569866D01*
X98559294Y-100795986D01*
X98550000Y-100813374D01*
X98540706Y-100795986D01*
X98355134Y-100569866D01*
X98129014Y-100384294D01*
X97871034Y-100246401D01*
X97591111Y-100161487D01*
X97300000Y-100132815D01*
X97008890Y-100161487D01*
X96728967Y-100246401D01*
X96470987Y-100384294D01*
X96244866Y-100569866D01*
X96059294Y-100795986D01*
X95921401Y-101053966D01*
X95836487Y-101333889D01*
X95815000Y-101552050D01*
X90235000Y-101552050D01*
X90213513Y-101333890D01*
X90128599Y-101053967D01*
X89990706Y-100795986D01*
X89805134Y-100569866D01*
X89579014Y-100384294D01*
X89321034Y-100246401D01*
X89041111Y-100161487D01*
X88750000Y-100132815D01*
X88458890Y-100161487D01*
X88178967Y-100246401D01*
X87920987Y-100384294D01*
X87694866Y-100569866D01*
X87509294Y-100795986D01*
X87500000Y-100813374D01*
X87490706Y-100795986D01*
X87305134Y-100569866D01*
X87079014Y-100384294D01*
X86821034Y-100246401D01*
X86541111Y-100161487D01*
X86250000Y-100132815D01*
X85958890Y-100161487D01*
X85678967Y-100246401D01*
X85420987Y-100384294D01*
X85420152Y-100384979D01*
X89267060Y-96538072D01*
X89500001Y-96538072D01*
X89673255Y-96521008D01*
X89839851Y-96470472D01*
X89993387Y-96388405D01*
X90127962Y-96277962D01*
X90238405Y-96143387D01*
X90320472Y-95989851D01*
X90371008Y-95823255D01*
X90388072Y-95650001D01*
X90388072Y-94349999D01*
X90376153Y-94228979D01*
X91050000Y-93555131D01*
X94233009Y-96738141D01*
X94268551Y-96781449D01*
X94441377Y-96923284D01*
X94638553Y-97028676D01*
X94852501Y-97093577D01*
X95019248Y-97110000D01*
X95019257Y-97110000D01*
X95074999Y-97115490D01*
X95130741Y-97110000D01*
X95290557Y-97110000D01*
X95310149Y-97120472D01*
X95476745Y-97171008D01*
X95649999Y-97188072D01*
X96950001Y-97188072D01*
X97123255Y-97171008D01*
X97289851Y-97120472D01*
X97309443Y-97110000D01*
X103104869Y-97110000D01*
X106989665Y-100994797D01*
X106971401Y-101028966D01*
X106886487Y-101308889D01*
X106865000Y-101527050D01*
X106865000Y-101972949D01*
X106886487Y-102191110D01*
X106971401Y-102471033D01*
X107109294Y-102729013D01*
X107294866Y-102955134D01*
X107520986Y-103140706D01*
X107778966Y-103278599D01*
X108058889Y-103363513D01*
X108350000Y-103392185D01*
X108641110Y-103363513D01*
X108921033Y-103278599D01*
X109179013Y-103140706D01*
X109405134Y-102955134D01*
X109457223Y-102891663D01*
X109511595Y-102993386D01*
X109622038Y-103127962D01*
X109756614Y-103238405D01*
X109910150Y-103320472D01*
X110076746Y-103371008D01*
X110250000Y-103388072D01*
X111450000Y-103388072D01*
X111623254Y-103371008D01*
X111789850Y-103320472D01*
X111943386Y-103238405D01*
X112077962Y-103127962D01*
X112188405Y-102993386D01*
X112270472Y-102839850D01*
X112321008Y-102673254D01*
X112338072Y-102500000D01*
X112338072Y-101000000D01*
X112321008Y-100826746D01*
X112270472Y-100660150D01*
X112188405Y-100506614D01*
X112077962Y-100372038D01*
X111943386Y-100261595D01*
X111789850Y-100179528D01*
X111623254Y-100128992D01*
X111521136Y-100118934D01*
X103639066Y-92236865D01*
X103603519Y-92193551D01*
X103430693Y-92051716D01*
X103233517Y-91946324D01*
X103019569Y-91881423D01*
X102852822Y-91865000D01*
X102852821Y-91865000D01*
X102797070Y-91859509D01*
X102741319Y-91865000D01*
X97241958Y-91865000D01*
X97123255Y-91828992D01*
X96950001Y-91811928D01*
X95649999Y-91811928D01*
X95476745Y-91828992D01*
X95410791Y-91848999D01*
X95425812Y-91799482D01*
X95438072Y-91675000D01*
X95438072Y-89925000D01*
X95425812Y-89800518D01*
X95389502Y-89680820D01*
X95330537Y-89570506D01*
X95251185Y-89473815D01*
X95154494Y-89394463D01*
X95044180Y-89335498D01*
X94924482Y-89299188D01*
X94800000Y-89286928D01*
X94350000Y-89286928D01*
X94250000Y-89296777D01*
X94150000Y-89286928D01*
X93700000Y-89286928D01*
X93575518Y-89299188D01*
X93455820Y-89335498D01*
X93345506Y-89394463D01*
X93248815Y-89473815D01*
X93169463Y-89570506D01*
X93110498Y-89680820D01*
X93074188Y-89800518D01*
X93061928Y-89925000D01*
X93061928Y-91675000D01*
X93074188Y-91799482D01*
X93090001Y-91851609D01*
X93090001Y-92384870D01*
X92810000Y-92104869D01*
X92810000Y-91851607D01*
X92825812Y-91799482D01*
X92838072Y-91675000D01*
X92838072Y-89925000D01*
X92825812Y-89800518D01*
X92789502Y-89680820D01*
X92730537Y-89570506D01*
X92651185Y-89473815D01*
X92554494Y-89394463D01*
X92444180Y-89335498D01*
X92324482Y-89299188D01*
X92200000Y-89286928D01*
X91750000Y-89286928D01*
X91650000Y-89296777D01*
X91550000Y-89286928D01*
X91100000Y-89286928D01*
X91000000Y-89296777D01*
X90900000Y-89286928D01*
X90450000Y-89286928D01*
X90350000Y-89296777D01*
X90250000Y-89286928D01*
X89800000Y-89286928D01*
X89675518Y-89299188D01*
X89555820Y-89335498D01*
X89445506Y-89394463D01*
X89348815Y-89473815D01*
X89269463Y-89570506D01*
X89210498Y-89680820D01*
X89174188Y-89800518D01*
X89161928Y-89925000D01*
X89161928Y-91675000D01*
X89174188Y-91799482D01*
X89190001Y-91851609D01*
X89190001Y-92204867D01*
X88910000Y-92484869D01*
X88910000Y-91851607D01*
X88925812Y-91799482D01*
X88938072Y-91675000D01*
X88938072Y-89925000D01*
X88925812Y-89800518D01*
X88889502Y-89680820D01*
X88830537Y-89570506D01*
X88751185Y-89473815D01*
X88654494Y-89394463D01*
X88544180Y-89335498D01*
X88424482Y-89299188D01*
X88300000Y-89286928D01*
X87850000Y-89286928D01*
X87750000Y-89296777D01*
X87650000Y-89286928D01*
X87200000Y-89286928D01*
X87075518Y-89299188D01*
X86955820Y-89335498D01*
X86845506Y-89394463D01*
X86748815Y-89473815D01*
X86669463Y-89570506D01*
X86610498Y-89680820D01*
X86574188Y-89800518D01*
X86561928Y-89925000D01*
X86561928Y-91675000D01*
X86574188Y-91799482D01*
X86590001Y-91851609D01*
X86590001Y-92504867D01*
X85567602Y-93527267D01*
X85560149Y-93529528D01*
X85406613Y-93611595D01*
X85272038Y-93722038D01*
X85161595Y-93856613D01*
X85157112Y-93865000D01*
X83855752Y-93865000D01*
X83800000Y-93859509D01*
X83577501Y-93881423D01*
X83363553Y-93946324D01*
X83166377Y-94051716D01*
X83036856Y-94158011D01*
X83036854Y-94158013D01*
X82993551Y-94193551D01*
X82958013Y-94236854D01*
X76936860Y-100258009D01*
X76893552Y-100293551D01*
X76774845Y-100438195D01*
X76644866Y-100544866D01*
X76459294Y-100770986D01*
X76321401Y-101028966D01*
X76236487Y-101308889D01*
X76215000Y-101527050D01*
X74785407Y-101527050D01*
X74788072Y-101500000D01*
X74788072Y-101117059D01*
X83313141Y-92591991D01*
X83356449Y-92556449D01*
X83498284Y-92383623D01*
X83603676Y-92186447D01*
X83668577Y-91972499D01*
X83685000Y-91805752D01*
X83685000Y-91805751D01*
X83689557Y-91759480D01*
X83727962Y-91727962D01*
X83838405Y-91593386D01*
X83920472Y-91439850D01*
X83971008Y-91273254D01*
X83988072Y-91100000D01*
X83988072Y-90617059D01*
X86145132Y-88460000D01*
X86769257Y-88460000D01*
X86824999Y-88465490D01*
X86880741Y-88460000D01*
X94305752Y-88460000D01*
X94472499Y-88443577D01*
X94686447Y-88378676D01*
X94883623Y-88273284D01*
X95056449Y-88131449D01*
X95198284Y-87958623D01*
X95303676Y-87761447D01*
X95368577Y-87547499D01*
X95390491Y-87325000D01*
X95368577Y-87102501D01*
X95357348Y-87065485D01*
X95360000Y-87038561D01*
X95360000Y-87038554D01*
X95363797Y-87000001D01*
X95360000Y-86961448D01*
X95360000Y-84774373D01*
X95389502Y-84719180D01*
X95425812Y-84599482D01*
X95438072Y-84475000D01*
X95438072Y-83905836D01*
X95511595Y-84043387D01*
X95622038Y-84177962D01*
X95756613Y-84288405D01*
X95910149Y-84370472D01*
X96076745Y-84421008D01*
X96249999Y-84438072D01*
X97550001Y-84438072D01*
X97723255Y-84421008D01*
X97889851Y-84370472D01*
X98043387Y-84288405D01*
X98177962Y-84177962D01*
X98288405Y-84043387D01*
X98370472Y-83889851D01*
X98421008Y-83723255D01*
X98438072Y-83550001D01*
X98438072Y-82899999D01*
X98421008Y-82726745D01*
X98370472Y-82560149D01*
X98288405Y-82406613D01*
X98177962Y-82272038D01*
X98043387Y-82161595D01*
X97889851Y-82079528D01*
X97723255Y-82028992D01*
X97550001Y-82011928D01*
X96867796Y-82011928D01*
X95635000Y-80779133D01*
X95635000Y-80698059D01*
X95595226Y-80498100D01*
X95517205Y-80309742D01*
X95403937Y-80140224D01*
X95259774Y-79996061D01*
X95090256Y-79882793D01*
X94901898Y-79804772D01*
X94701939Y-79764998D01*
X94498061Y-79764998D01*
X94298102Y-79804772D01*
X94109744Y-79882793D01*
X94035000Y-79932735D01*
X94035000Y-77759802D01*
X98696200Y-82421002D01*
X98719999Y-82450001D01*
X98835724Y-82544974D01*
X98967753Y-82615546D01*
X99111014Y-82659003D01*
X99222667Y-82670000D01*
X99222677Y-82670000D01*
X99260000Y-82673676D01*
X99297323Y-82670000D01*
X101481822Y-82670000D01*
X101606525Y-82856632D01*
X101813368Y-83063475D01*
X101987760Y-83180000D01*
X101813368Y-83296525D01*
X101606525Y-83503368D01*
X101444010Y-83746589D01*
X101332068Y-84016842D01*
X101275000Y-84303740D01*
X101275000Y-84596260D01*
X101332068Y-84883158D01*
X101444010Y-85153411D01*
X101606525Y-85396632D01*
X101813368Y-85603475D01*
X102056589Y-85765990D01*
X102326842Y-85877932D01*
X102613740Y-85935000D01*
X102906260Y-85935000D01*
X103193158Y-85877932D01*
X103463411Y-85765990D01*
X103706632Y-85603475D01*
X103838487Y-85471620D01*
X103860498Y-85544180D01*
X103881579Y-85583619D01*
X103473271Y-85991928D01*
X103455000Y-85991928D01*
X103304181Y-86006782D01*
X103159158Y-86050775D01*
X103025504Y-86122214D01*
X102908356Y-86218356D01*
X102812214Y-86335504D01*
X102740775Y-86469158D01*
X102696782Y-86614181D01*
X102681928Y-86765000D01*
X102681928Y-87135000D01*
X102696782Y-87285819D01*
X102740775Y-87430842D01*
X102812214Y-87564496D01*
X102908356Y-87681644D01*
X103025504Y-87777786D01*
X103159158Y-87849225D01*
X103304181Y-87893218D01*
X103455000Y-87908072D01*
X103725000Y-87908072D01*
X103875819Y-87893218D01*
X104020842Y-87849225D01*
X104100000Y-87806914D01*
X104179158Y-87849225D01*
X104324181Y-87893218D01*
X104475000Y-87908072D01*
X104745000Y-87908072D01*
X104895819Y-87893218D01*
X105040842Y-87849225D01*
X105172249Y-87778987D01*
X105301875Y-87848274D01*
X105449243Y-87892977D01*
X105602500Y-87908072D01*
X105897500Y-87908072D01*
X106050757Y-87892977D01*
X106198125Y-87848274D01*
X106333940Y-87775679D01*
X106452983Y-87677983D01*
X106550679Y-87558940D01*
X106623274Y-87423125D01*
X106667977Y-87275757D01*
X106683072Y-87122500D01*
X106683072Y-86777500D01*
X106675568Y-86701310D01*
X106698986Y-86699003D01*
X106842247Y-86655546D01*
X106933666Y-86606681D01*
X106944454Y-86642246D01*
X107015026Y-86774276D01*
X107073983Y-86846114D01*
X107110000Y-86890001D01*
X107138998Y-86913799D01*
X108511928Y-88286730D01*
X108511928Y-88700000D01*
X108524188Y-88824482D01*
X108560498Y-88944180D01*
X108619463Y-89054494D01*
X108698815Y-89151185D01*
X108795506Y-89230537D01*
X108905820Y-89289502D01*
X109025518Y-89325812D01*
X109150000Y-89338072D01*
X110200000Y-89338072D01*
X110324482Y-89325812D01*
X110444180Y-89289502D01*
X110554494Y-89230537D01*
X110651185Y-89151185D01*
X110664468Y-89135000D01*
X112835532Y-89135000D01*
X112848815Y-89151185D01*
X112945506Y-89230537D01*
X113055820Y-89289502D01*
X113175518Y-89325812D01*
X113300000Y-89338072D01*
X114350000Y-89338072D01*
X114474482Y-89325812D01*
X114594180Y-89289502D01*
X114640001Y-89265010D01*
X114640001Y-93556188D01*
X114445273Y-93086072D01*
X114118601Y-92597174D01*
X113702826Y-92181399D01*
X113213928Y-91854727D01*
X112670692Y-91629712D01*
X112093997Y-91515000D01*
X111506003Y-91515000D01*
X110929308Y-91629712D01*
X110386072Y-91854727D01*
X109897174Y-92181399D01*
X109481399Y-92597174D01*
X109154727Y-93086072D01*
X108929712Y-93629308D01*
X108815000Y-94206003D01*
X108815000Y-94793997D01*
X108929712Y-95370692D01*
X109154727Y-95913928D01*
X109481399Y-96402826D01*
X109897174Y-96818601D01*
X110386072Y-97145273D01*
X110929308Y-97370288D01*
X111506003Y-97485000D01*
X112093997Y-97485000D01*
X112670692Y-97370288D01*
X113213928Y-97145273D01*
X113702826Y-96818601D01*
X114118601Y-96402826D01*
X114445273Y-95913928D01*
X114640001Y-95443812D01*
X114640001Y-101967711D01*
X114582808Y-102551010D01*
X114422783Y-103081036D01*
X114162860Y-103569880D01*
X113812935Y-103998931D01*
X113386335Y-104351845D01*
X112899320Y-104615173D01*
X112370422Y-104778894D01*
X111789040Y-104840000D01*
X53832279Y-104840000D01*
X53248990Y-104782808D01*
X52718964Y-104622783D01*
X52230120Y-104362860D01*
X51801069Y-104012935D01*
X51448155Y-103586335D01*
X51184827Y-103099320D01*
X51021106Y-102570422D01*
X50960000Y-101989040D01*
X50960000Y-95443814D01*
X51154727Y-95913928D01*
X51481399Y-96402826D01*
X51897174Y-96818601D01*
X52386072Y-97145273D01*
X52929308Y-97370288D01*
X53506003Y-97485000D01*
X54093997Y-97485000D01*
X54670692Y-97370288D01*
X55213928Y-97145273D01*
X55702826Y-96818601D01*
X56118601Y-96402826D01*
X56445273Y-95913928D01*
X56670288Y-95370692D01*
X56785000Y-94793997D01*
X56785000Y-94206003D01*
X56670288Y-93629308D01*
X56445273Y-93086072D01*
X56118601Y-92597174D01*
X55702826Y-92181399D01*
X55213928Y-91854727D01*
X54670692Y-91629712D01*
X54093997Y-91515000D01*
X53506003Y-91515000D01*
X52929308Y-91629712D01*
X52386072Y-91854727D01*
X51897174Y-92181399D01*
X51481399Y-92597174D01*
X51154727Y-93086072D01*
X50960000Y-93556186D01*
X50960000Y-75400000D01*
X52157815Y-75400000D01*
X52186487Y-75691111D01*
X52271401Y-75971034D01*
X52409294Y-76229014D01*
X52594866Y-76455134D01*
X52820986Y-76640706D01*
X53078966Y-76778599D01*
X53358889Y-76863513D01*
X53577050Y-76885000D01*
X54022950Y-76885000D01*
X54241111Y-76863513D01*
X54521034Y-76778599D01*
X54779014Y-76640706D01*
X54907817Y-76535000D01*
X56265000Y-76535000D01*
X56265001Y-81134841D01*
X56156048Y-81243795D01*
X56024181Y-81256782D01*
X55879158Y-81300775D01*
X55800000Y-81343086D01*
X55720842Y-81300775D01*
X55575819Y-81256782D01*
X55425000Y-81241928D01*
X55155000Y-81241928D01*
X55004181Y-81256782D01*
X54859158Y-81300775D01*
X54725504Y-81372214D01*
X54673370Y-81415000D01*
X54183508Y-81415000D01*
X54133940Y-81374321D01*
X53998125Y-81301726D01*
X53850757Y-81257023D01*
X53697500Y-81241928D01*
X53402500Y-81241928D01*
X53249243Y-81257023D01*
X53101875Y-81301726D01*
X52966060Y-81374321D01*
X52847017Y-81472017D01*
X52749321Y-81591060D01*
X52676726Y-81726875D01*
X52632023Y-81874243D01*
X52616928Y-82027500D01*
X52616928Y-82372500D01*
X52632023Y-82525757D01*
X52676726Y-82673125D01*
X52749321Y-82808940D01*
X52847017Y-82927983D01*
X52966060Y-83025679D01*
X53101875Y-83098274D01*
X53249243Y-83142977D01*
X53402500Y-83158072D01*
X53697500Y-83158072D01*
X53850757Y-83142977D01*
X53998125Y-83098274D01*
X54133940Y-83025679D01*
X54183508Y-82985000D01*
X54673370Y-82985000D01*
X54725504Y-83027786D01*
X54859158Y-83099225D01*
X55004181Y-83143218D01*
X55155000Y-83158072D01*
X55425000Y-83158072D01*
X55575819Y-83143218D01*
X55720842Y-83099225D01*
X55800000Y-83056914D01*
X55879158Y-83099225D01*
X56024181Y-83143218D01*
X56175000Y-83158072D01*
X56445000Y-83158072D01*
X56595819Y-83143218D01*
X56740842Y-83099225D01*
X56874496Y-83027786D01*
X56991644Y-82931644D01*
X57087786Y-82814496D01*
X57159225Y-82680842D01*
X57203218Y-82535819D01*
X57216205Y-82403952D01*
X57577815Y-82042343D01*
X57607764Y-82017764D01*
X57632465Y-81987667D01*
X57672670Y-81938677D01*
X57705862Y-81898233D01*
X57778754Y-81761860D01*
X57823641Y-81613887D01*
X57835000Y-81498561D01*
X57835000Y-81498554D01*
X57838797Y-81460001D01*
X57835000Y-81421448D01*
X57835000Y-76535000D01*
X59079869Y-76535000D01*
X60761928Y-78217060D01*
X60761928Y-79550000D01*
X60778992Y-79723254D01*
X60829528Y-79889850D01*
X60911595Y-80043386D01*
X61022038Y-80177962D01*
X61156614Y-80288405D01*
X61310150Y-80370472D01*
X61476746Y-80421008D01*
X61650000Y-80438072D01*
X62750000Y-80438072D01*
X62923254Y-80421008D01*
X63089850Y-80370472D01*
X63243386Y-80288405D01*
X63377962Y-80177962D01*
X63488405Y-80043386D01*
X63492887Y-80035000D01*
X65611928Y-80035000D01*
X65611928Y-81600000D01*
X65624188Y-81724482D01*
X65660498Y-81844180D01*
X65719463Y-81954494D01*
X65798815Y-82051185D01*
X65895506Y-82130537D01*
X66005820Y-82189502D01*
X66125518Y-82225812D01*
X66250000Y-82238072D01*
X69050000Y-82238072D01*
X69174482Y-82225812D01*
X69294180Y-82189502D01*
X69404494Y-82130537D01*
X69501185Y-82051185D01*
X69543947Y-81999079D01*
X73415001Y-85870133D01*
X73415000Y-88611928D01*
X68875000Y-88611928D01*
X68750518Y-88624188D01*
X68630820Y-88660498D01*
X68520506Y-88719463D01*
X68423815Y-88798815D01*
X68344463Y-88895506D01*
X68285498Y-89005820D01*
X68249188Y-89125518D01*
X68236928Y-89250000D01*
X68236928Y-90350000D01*
X68249188Y-90474482D01*
X68285498Y-90594180D01*
X68344463Y-90704494D01*
X68423815Y-90801185D01*
X68520506Y-90880537D01*
X68630820Y-90939502D01*
X68750518Y-90975812D01*
X68875000Y-90988072D01*
X73475000Y-90988072D01*
X73599482Y-90975812D01*
X73719180Y-90939502D01*
X73727603Y-90935000D01*
X74419249Y-90935000D01*
X74475000Y-90940491D01*
X74530751Y-90935000D01*
X74530752Y-90935000D01*
X74697499Y-90918577D01*
X74911447Y-90853676D01*
X75108623Y-90748284D01*
X75281449Y-90606449D01*
X75315256Y-90565256D01*
X75356449Y-90531449D01*
X75498284Y-90358623D01*
X75603676Y-90161447D01*
X75668577Y-89947499D01*
X75685000Y-89780752D01*
X75685000Y-89780751D01*
X75690491Y-89725001D01*
X75685000Y-89669249D01*
X75685000Y-85455751D01*
X75690491Y-85399999D01*
X75668577Y-85177500D01*
X75649625Y-85115026D01*
X75603676Y-84963553D01*
X75498284Y-84766377D01*
X75356449Y-84593551D01*
X75313141Y-84558009D01*
X69688072Y-78932941D01*
X69688072Y-76200000D01*
X69675812Y-76075518D01*
X69639502Y-75955820D01*
X69580537Y-75845506D01*
X69501185Y-75748815D01*
X69404494Y-75669463D01*
X69294180Y-75610498D01*
X69174482Y-75574188D01*
X69050000Y-75561928D01*
X66250000Y-75561928D01*
X66125518Y-75574188D01*
X66005820Y-75610498D01*
X65895506Y-75669463D01*
X65798815Y-75748815D01*
X65719463Y-75845506D01*
X65660498Y-75955820D01*
X65624188Y-76075518D01*
X65611928Y-76200000D01*
X65611928Y-77765000D01*
X63638072Y-77765000D01*
X63638072Y-76550000D01*
X63621008Y-76376746D01*
X63570472Y-76210150D01*
X63488405Y-76056614D01*
X63377962Y-75922038D01*
X63243386Y-75811595D01*
X63089850Y-75729528D01*
X62923254Y-75678992D01*
X62750000Y-75661928D01*
X61650000Y-75661928D01*
X61476746Y-75678992D01*
X61444044Y-75688912D01*
X60391996Y-74636865D01*
X60356449Y-74593551D01*
X60183623Y-74451716D01*
X59986447Y-74346324D01*
X59772499Y-74281423D01*
X59605752Y-74265000D01*
X59605751Y-74265000D01*
X59550000Y-74259509D01*
X59494249Y-74265000D01*
X54907817Y-74265000D01*
X54779014Y-74159294D01*
X54521034Y-74021401D01*
X54241111Y-73936487D01*
X54022950Y-73915000D01*
X53577050Y-73915000D01*
X53358889Y-73936487D01*
X53078966Y-74021401D01*
X52820986Y-74159294D01*
X52594866Y-74344866D01*
X52409294Y-74570986D01*
X52271401Y-74828966D01*
X52186487Y-75108889D01*
X52157815Y-75400000D01*
X50960000Y-75400000D01*
X50960000Y-69443814D01*
X51154727Y-69913928D01*
X51481399Y-70402826D01*
X51897174Y-70818601D01*
X52386072Y-71145273D01*
X52929308Y-71370288D01*
X53506003Y-71485000D01*
X54093997Y-71485000D01*
X54670692Y-71370288D01*
X55213928Y-71145273D01*
X55702826Y-70818601D01*
X56118601Y-70402826D01*
X56445273Y-69913928D01*
X56670288Y-69370692D01*
X56785000Y-68793997D01*
X56785000Y-68206003D01*
X56670288Y-67629308D01*
X56445273Y-67086072D01*
X56118601Y-66597174D01*
X55702826Y-66181399D01*
X55213928Y-65854727D01*
X54670692Y-65629712D01*
X54093997Y-65515000D01*
X53506003Y-65515000D01*
X52929308Y-65629712D01*
X52386072Y-65854727D01*
X51897174Y-66181399D01*
X51481399Y-66597174D01*
X51154727Y-67086072D01*
X50960000Y-67556186D01*
X50960000Y-46443814D01*
X51154727Y-46913928D01*
X51481399Y-47402826D01*
X51897174Y-47818601D01*
X52386072Y-48145273D01*
X52929308Y-48370288D01*
X53506003Y-48485000D01*
X54093997Y-48485000D01*
X54670692Y-48370288D01*
X55213928Y-48145273D01*
X55702826Y-47818601D01*
X56118601Y-47402826D01*
X56445273Y-46913928D01*
X56670288Y-46370692D01*
X56785000Y-45793997D01*
X56785000Y-45206003D01*
X56670288Y-44629308D01*
X56445273Y-44086072D01*
X56118601Y-43597174D01*
X55702826Y-43181399D01*
X55213928Y-42854727D01*
X54743814Y-42660000D01*
X110856186Y-42660000D01*
X110386072Y-42854727D01*
%TA.AperFunction,Conductor*%
D32*
G36*
X110386072Y-42854727D02*
G01*
X109897174Y-43181399D01*
X109481399Y-43597174D01*
X109154727Y-44086072D01*
X108929712Y-44629308D01*
X108815000Y-45206003D01*
X108815000Y-45793997D01*
X108929712Y-46370692D01*
X109154727Y-46913928D01*
X109481399Y-47402826D01*
X109897174Y-47818601D01*
X110386072Y-48145273D01*
X110929308Y-48370288D01*
X111506003Y-48485000D01*
X112093997Y-48485000D01*
X112670692Y-48370288D01*
X113213928Y-48145273D01*
X113702826Y-47818601D01*
X114118601Y-47402826D01*
X114445273Y-46913928D01*
X114640001Y-46443812D01*
X114640000Y-67556186D01*
X114445273Y-67086072D01*
X114118601Y-66597174D01*
X113702826Y-66181399D01*
X113213928Y-65854727D01*
X112670692Y-65629712D01*
X112093997Y-65515000D01*
X111506003Y-65515000D01*
X110929308Y-65629712D01*
X110386072Y-65854727D01*
X109897174Y-66181399D01*
X109481399Y-66597174D01*
X109260000Y-66928520D01*
X109260000Y-61787333D01*
X109263677Y-61750000D01*
X109249003Y-61601014D01*
X109205546Y-61457753D01*
X109134974Y-61325724D01*
X109063799Y-61238997D01*
X109040001Y-61209999D01*
X109011004Y-61186202D01*
X108251303Y-60426502D01*
X108227501Y-60397499D01*
X108111776Y-60302526D01*
X107979747Y-60231954D01*
X107836486Y-60188497D01*
X107724833Y-60177500D01*
X107724822Y-60177500D01*
X107687500Y-60173824D01*
X107650178Y-60177500D01*
X104887932Y-60177500D01*
X104863405Y-60131613D01*
X104752962Y-59997038D01*
X104618387Y-59886595D01*
X104464851Y-59804528D01*
X104298255Y-59753992D01*
X104125001Y-59736928D01*
X102874999Y-59736928D01*
X102701745Y-59753992D01*
X102535149Y-59804528D01*
X102381613Y-59886595D01*
X102247038Y-59997038D01*
X102136595Y-60131613D01*
X102054528Y-60285149D01*
X102003992Y-60451745D01*
X101986928Y-60624999D01*
X101986928Y-61250001D01*
X102003992Y-61423255D01*
X102054528Y-61589851D01*
X102136595Y-61743387D01*
X102247038Y-61877962D01*
X102381613Y-61988405D01*
X102535149Y-62070472D01*
X102701745Y-62121008D01*
X102874999Y-62138072D01*
X104125001Y-62138072D01*
X104298255Y-62121008D01*
X104464851Y-62070472D01*
X104618387Y-61988405D01*
X104752962Y-61877962D01*
X104863405Y-61743387D01*
X104887932Y-61697500D01*
X107372699Y-61697500D01*
X107740000Y-62064802D01*
X107740000Y-67746336D01*
X107705546Y-67632753D01*
X107634974Y-67500724D01*
X107601553Y-67460000D01*
X107563799Y-67413996D01*
X107563795Y-67413992D01*
X107540001Y-67384999D01*
X107511009Y-67361206D01*
X104843023Y-64693222D01*
X104863405Y-64668387D01*
X104945472Y-64514851D01*
X104996008Y-64348255D01*
X105013072Y-64175001D01*
X105013072Y-63549999D01*
X104996008Y-63376745D01*
X104945472Y-63210149D01*
X104863405Y-63056613D01*
X104752962Y-62922038D01*
X104618387Y-62811595D01*
X104464851Y-62729528D01*
X104298255Y-62678992D01*
X104125001Y-62661928D01*
X102874999Y-62661928D01*
X102701745Y-62678992D01*
X102535149Y-62729528D01*
X102381613Y-62811595D01*
X102247038Y-62922038D01*
X102136595Y-63056613D01*
X102112068Y-63102500D01*
X100327301Y-63102500D01*
X100163804Y-62939003D01*
X100163799Y-62938997D01*
X92324802Y-55100000D01*
X100736928Y-55100000D01*
X100736928Y-56800000D01*
X100749188Y-56924482D01*
X100785498Y-57044180D01*
X100844463Y-57154494D01*
X100923815Y-57251185D01*
X101020506Y-57330537D01*
X101130820Y-57389502D01*
X101250518Y-57425812D01*
X101375000Y-57438072D01*
X103075000Y-57438072D01*
X103199482Y-57425812D01*
X103319180Y-57389502D01*
X103429494Y-57330537D01*
X103526185Y-57251185D01*
X103605537Y-57154494D01*
X103664502Y-57044180D01*
X103686513Y-56971620D01*
X103818368Y-57103475D01*
X104061589Y-57265990D01*
X104331842Y-57377932D01*
X104618740Y-57435000D01*
X104911260Y-57435000D01*
X105198158Y-57377932D01*
X105468411Y-57265990D01*
X105711632Y-57103475D01*
X105918475Y-56896632D01*
X106080990Y-56653411D01*
X106192932Y-56383158D01*
X106250000Y-56096260D01*
X106250000Y-55803740D01*
X106192932Y-55516842D01*
X106080990Y-55246589D01*
X105918475Y-55003368D01*
X105711632Y-54796525D01*
X105537240Y-54680000D01*
X105711632Y-54563475D01*
X105918475Y-54356632D01*
X106080990Y-54113411D01*
X106192932Y-53843158D01*
X106250000Y-53556260D01*
X106250000Y-53263740D01*
X106192932Y-52976842D01*
X106080990Y-52706589D01*
X105918475Y-52463368D01*
X105711632Y-52256525D01*
X105537240Y-52140000D01*
X105711632Y-52023475D01*
X105918475Y-51816632D01*
X106080990Y-51573411D01*
X106192932Y-51303158D01*
X106250000Y-51016260D01*
X106250000Y-50723740D01*
X106192932Y-50436842D01*
X106080990Y-50166589D01*
X105918475Y-49923368D01*
X105711632Y-49716525D01*
X105468411Y-49554010D01*
X105198158Y-49442068D01*
X104911260Y-49385000D01*
X104618740Y-49385000D01*
X104331842Y-49442068D01*
X104061589Y-49554010D01*
X103818368Y-49716525D01*
X103611525Y-49923368D01*
X103495000Y-50097760D01*
X103378475Y-49923368D01*
X103171632Y-49716525D01*
X102928411Y-49554010D01*
X102658158Y-49442068D01*
X102371260Y-49385000D01*
X102078740Y-49385000D01*
X101791842Y-49442068D01*
X101521589Y-49554010D01*
X101278368Y-49716525D01*
X101071525Y-49923368D01*
X100909010Y-50166589D01*
X100797068Y-50436842D01*
X100740000Y-50723740D01*
X100740000Y-51016260D01*
X100797068Y-51303158D01*
X100909010Y-51573411D01*
X101071525Y-51816632D01*
X101278368Y-52023475D01*
X101452760Y-52140000D01*
X101278368Y-52256525D01*
X101071525Y-52463368D01*
X100909010Y-52706589D01*
X100797068Y-52976842D01*
X100740000Y-53263740D01*
X100740000Y-53556260D01*
X100797068Y-53843158D01*
X100909010Y-54113411D01*
X101071525Y-54356632D01*
X101203380Y-54488487D01*
X101130820Y-54510498D01*
X101020506Y-54569463D01*
X100923815Y-54648815D01*
X100844463Y-54745506D01*
X100785498Y-54855820D01*
X100749188Y-54975518D01*
X100736928Y-55100000D01*
X92324802Y-55100000D01*
X89263804Y-52039003D01*
X89240001Y-52009999D01*
X89124276Y-51915026D01*
X88992247Y-51844454D01*
X88848986Y-51800997D01*
X88737333Y-51790000D01*
X88737322Y-51790000D01*
X88700000Y-51786324D01*
X88662678Y-51790000D01*
X83128010Y-51790000D01*
X83171008Y-51648255D01*
X83188072Y-51475001D01*
X83188072Y-50949999D01*
X83171008Y-50776745D01*
X83120472Y-50610149D01*
X83038405Y-50456613D01*
X82927962Y-50322038D01*
X82901109Y-50300000D01*
X82927962Y-50277962D01*
X82966857Y-50230568D01*
X82990226Y-50253937D01*
X83159744Y-50367205D01*
X83348102Y-50445226D01*
X83548061Y-50485000D01*
X83751939Y-50485000D01*
X83951898Y-50445226D01*
X84140256Y-50367205D01*
X84309774Y-50253937D01*
X84453937Y-50109774D01*
X84567205Y-49940256D01*
X84645226Y-49751898D01*
X84685000Y-49551939D01*
X84685000Y-49348061D01*
X84645226Y-49148102D01*
X84567205Y-48959744D01*
X84453937Y-48790226D01*
X84309774Y-48646063D01*
X84140256Y-48532795D01*
X83951898Y-48454774D01*
X83751939Y-48415000D01*
X83548061Y-48415000D01*
X83348102Y-48454774D01*
X83159744Y-48532795D01*
X83029001Y-48620154D01*
X82927962Y-48497038D01*
X82793387Y-48386595D01*
X82639851Y-48304528D01*
X82473255Y-48253992D01*
X82300001Y-48236928D01*
X81947932Y-48236928D01*
X81993158Y-48227932D01*
X82263411Y-48115990D01*
X82506632Y-47953475D01*
X82713475Y-47746632D01*
X82830000Y-47572240D01*
X82946525Y-47746632D01*
X83153368Y-47953475D01*
X83396589Y-48115990D01*
X83666842Y-48227932D01*
X83953740Y-48285000D01*
X84246260Y-48285000D01*
X84533158Y-48227932D01*
X84803411Y-48115990D01*
X85046632Y-47953475D01*
X85253475Y-47746632D01*
X85370000Y-47572240D01*
X85486525Y-47746632D01*
X85693368Y-47953475D01*
X85936589Y-48115990D01*
X86206842Y-48227932D01*
X86493740Y-48285000D01*
X86786260Y-48285000D01*
X87073158Y-48227932D01*
X87343411Y-48115990D01*
X87586632Y-47953475D01*
X87793475Y-47746632D01*
X87955990Y-47503411D01*
X88067932Y-47233158D01*
X88125000Y-46946260D01*
X88125000Y-46653740D01*
X88067932Y-46366842D01*
X87955990Y-46096589D01*
X87793475Y-45853368D01*
X87586632Y-45646525D01*
X87412240Y-45530000D01*
X87586632Y-45413475D01*
X87793475Y-45206632D01*
X87910000Y-45032240D01*
X88026525Y-45206632D01*
X88233368Y-45413475D01*
X88476589Y-45575990D01*
X88746842Y-45687932D01*
X89033740Y-45745000D01*
X89326260Y-45745000D01*
X89613158Y-45687932D01*
X89883411Y-45575990D01*
X90126632Y-45413475D01*
X90333475Y-45206632D01*
X90450000Y-45032240D01*
X90566525Y-45206632D01*
X90773368Y-45413475D01*
X90947760Y-45530000D01*
X90773368Y-45646525D01*
X90566525Y-45853368D01*
X90404010Y-46096589D01*
X90292068Y-46366842D01*
X90235000Y-46653740D01*
X90235000Y-46946260D01*
X90292068Y-47233158D01*
X90404010Y-47503411D01*
X90566525Y-47746632D01*
X90773368Y-47953475D01*
X91016589Y-48115990D01*
X91286842Y-48227932D01*
X91573740Y-48285000D01*
X91866260Y-48285000D01*
X92153158Y-48227932D01*
X92423411Y-48115990D01*
X92666632Y-47953475D01*
X92873475Y-47746632D01*
X92990000Y-47572240D01*
X93106525Y-47746632D01*
X93313368Y-47953475D01*
X93556589Y-48115990D01*
X93826842Y-48227932D01*
X94113740Y-48285000D01*
X94406260Y-48285000D01*
X94693158Y-48227932D01*
X94963411Y-48115990D01*
X95206632Y-47953475D01*
X95413475Y-47746632D01*
X95530000Y-47572240D01*
X95646525Y-47746632D01*
X95853368Y-47953475D01*
X96096589Y-48115990D01*
X96366842Y-48227932D01*
X96653740Y-48285000D01*
X96946260Y-48285000D01*
X97233158Y-48227932D01*
X97503411Y-48115990D01*
X97746632Y-47953475D01*
X97953475Y-47746632D01*
X98070000Y-47572240D01*
X98186525Y-47746632D01*
X98393368Y-47953475D01*
X98636589Y-48115990D01*
X98906842Y-48227932D01*
X99193740Y-48285000D01*
X99486260Y-48285000D01*
X99773158Y-48227932D01*
X100043411Y-48115990D01*
X100286632Y-47953475D01*
X100493475Y-47746632D01*
X100610000Y-47572240D01*
X100726525Y-47746632D01*
X100933368Y-47953475D01*
X101176589Y-48115990D01*
X101446842Y-48227932D01*
X101733740Y-48285000D01*
X102026260Y-48285000D01*
X102313158Y-48227932D01*
X102583411Y-48115990D01*
X102826632Y-47953475D01*
X103033475Y-47746632D01*
X103150000Y-47572240D01*
X103266525Y-47746632D01*
X103473368Y-47953475D01*
X103716589Y-48115990D01*
X103986842Y-48227932D01*
X104273740Y-48285000D01*
X104566260Y-48285000D01*
X104853158Y-48227932D01*
X105123411Y-48115990D01*
X105366632Y-47953475D01*
X105573475Y-47746632D01*
X105735990Y-47503411D01*
X105847932Y-47233158D01*
X105905000Y-46946260D01*
X105905000Y-46653740D01*
X105847932Y-46366842D01*
X105735990Y-46096589D01*
X105573475Y-45853368D01*
X105366632Y-45646525D01*
X105192240Y-45530000D01*
X105366632Y-45413475D01*
X105573475Y-45206632D01*
X105690000Y-45032240D01*
X105806525Y-45206632D01*
X106013368Y-45413475D01*
X106256589Y-45575990D01*
X106526842Y-45687932D01*
X106813740Y-45745000D01*
X107106260Y-45745000D01*
X107393158Y-45687932D01*
X107663411Y-45575990D01*
X107906632Y-45413475D01*
X108113475Y-45206632D01*
X108275990Y-44963411D01*
X108387932Y-44693158D01*
X108445000Y-44406260D01*
X108445000Y-44113740D01*
X108387932Y-43826842D01*
X108275990Y-43556589D01*
X108113475Y-43313368D01*
X107906632Y-43106525D01*
X107663411Y-42944010D01*
X107393158Y-42832068D01*
X107106260Y-42775000D01*
X106813740Y-42775000D01*
X106526842Y-42832068D01*
X106256589Y-42944010D01*
X106013368Y-43106525D01*
X105806525Y-43313368D01*
X105690000Y-43487760D01*
X105573475Y-43313368D01*
X105366632Y-43106525D01*
X105123411Y-42944010D01*
X104853158Y-42832068D01*
X104566260Y-42775000D01*
X104273740Y-42775000D01*
X103986842Y-42832068D01*
X103716589Y-42944010D01*
X103473368Y-43106525D01*
X103266525Y-43313368D01*
X103150000Y-43487760D01*
X103033475Y-43313368D01*
X102826632Y-43106525D01*
X102583411Y-42944010D01*
X102313158Y-42832068D01*
X102026260Y-42775000D01*
X101733740Y-42775000D01*
X101446842Y-42832068D01*
X101176589Y-42944010D01*
X100933368Y-43106525D01*
X100726525Y-43313368D01*
X100564010Y-43556589D01*
X100452068Y-43826842D01*
X100395000Y-44113740D01*
X100395000Y-44406260D01*
X100452068Y-44693158D01*
X100564010Y-44963411D01*
X100726525Y-45206632D01*
X100933368Y-45413475D01*
X101107760Y-45530000D01*
X100933368Y-45646525D01*
X100726525Y-45853368D01*
X100610000Y-46027760D01*
X100493475Y-45853368D01*
X100286632Y-45646525D01*
X100043411Y-45484010D01*
X99773158Y-45372068D01*
X99486260Y-45315000D01*
X99193740Y-45315000D01*
X98906842Y-45372068D01*
X98636589Y-45484010D01*
X98393368Y-45646525D01*
X98186525Y-45853368D01*
X98070000Y-46027760D01*
X97953475Y-45853368D01*
X97746632Y-45646525D01*
X97572240Y-45530000D01*
X97746632Y-45413475D01*
X97953475Y-45206632D01*
X98115990Y-44963411D01*
X98227932Y-44693158D01*
X98285000Y-44406260D01*
X98285000Y-44113740D01*
X98227932Y-43826842D01*
X98115990Y-43556589D01*
X97953475Y-43313368D01*
X97746632Y-43106525D01*
X97503411Y-42944010D01*
X97233158Y-42832068D01*
X96946260Y-42775000D01*
X96653740Y-42775000D01*
X96366842Y-42832068D01*
X96096589Y-42944010D01*
X95853368Y-43106525D01*
X95646525Y-43313368D01*
X95484010Y-43556589D01*
X95372068Y-43826842D01*
X95315000Y-44113740D01*
X95315000Y-44406260D01*
X95372068Y-44693158D01*
X95484010Y-44963411D01*
X95646525Y-45206632D01*
X95853368Y-45413475D01*
X96027760Y-45530000D01*
X95853368Y-45646525D01*
X95646525Y-45853368D01*
X95530000Y-46027760D01*
X95413475Y-45853368D01*
X95206632Y-45646525D01*
X94963411Y-45484010D01*
X94693158Y-45372068D01*
X94406260Y-45315000D01*
X94113740Y-45315000D01*
X93826842Y-45372068D01*
X93556589Y-45484010D01*
X93313368Y-45646525D01*
X93106525Y-45853368D01*
X92990000Y-46027760D01*
X92873475Y-45853368D01*
X92666632Y-45646525D01*
X92492240Y-45530000D01*
X92666632Y-45413475D01*
X92873475Y-45206632D01*
X93035990Y-44963411D01*
X93147932Y-44693158D01*
X93205000Y-44406260D01*
X93205000Y-44113740D01*
X93147932Y-43826842D01*
X93035990Y-43556589D01*
X92873475Y-43313368D01*
X92666632Y-43106525D01*
X92423411Y-42944010D01*
X92153158Y-42832068D01*
X91866260Y-42775000D01*
X91573740Y-42775000D01*
X91286842Y-42832068D01*
X91016589Y-42944010D01*
X90773368Y-43106525D01*
X90566525Y-43313368D01*
X90450000Y-43487760D01*
X90333475Y-43313368D01*
X90126632Y-43106525D01*
X89883411Y-42944010D01*
X89613158Y-42832068D01*
X89326260Y-42775000D01*
X89033740Y-42775000D01*
X88746842Y-42832068D01*
X88476589Y-42944010D01*
X88233368Y-43106525D01*
X88026525Y-43313368D01*
X87910000Y-43487760D01*
X87793475Y-43313368D01*
X87586632Y-43106525D01*
X87343411Y-42944010D01*
X87073158Y-42832068D01*
X86786260Y-42775000D01*
X86493740Y-42775000D01*
X86206842Y-42832068D01*
X85936589Y-42944010D01*
X85693368Y-43106525D01*
X85486525Y-43313368D01*
X85370000Y-43487760D01*
X85253475Y-43313368D01*
X85046632Y-43106525D01*
X84803411Y-42944010D01*
X84533158Y-42832068D01*
X84246260Y-42775000D01*
X83953740Y-42775000D01*
X83666842Y-42832068D01*
X83396589Y-42944010D01*
X83153368Y-43106525D01*
X82946525Y-43313368D01*
X82784010Y-43556589D01*
X82672068Y-43826842D01*
X82615000Y-44113740D01*
X82615000Y-44406260D01*
X82672068Y-44693158D01*
X82784010Y-44963411D01*
X82946525Y-45206632D01*
X83153368Y-45413475D01*
X83327760Y-45530000D01*
X83153368Y-45646525D01*
X82946525Y-45853368D01*
X82830000Y-46027760D01*
X82713475Y-45853368D01*
X82506632Y-45646525D01*
X82263411Y-45484010D01*
X81993158Y-45372068D01*
X81706260Y-45315000D01*
X81413740Y-45315000D01*
X81126842Y-45372068D01*
X80856589Y-45484010D01*
X80613368Y-45646525D01*
X80406525Y-45853368D01*
X80290000Y-46027760D01*
X80173475Y-45853368D01*
X79966632Y-45646525D01*
X79792240Y-45530000D01*
X79966632Y-45413475D01*
X80173475Y-45206632D01*
X80335990Y-44963411D01*
X80447932Y-44693158D01*
X80505000Y-44406260D01*
X80505000Y-44113740D01*
X80447932Y-43826842D01*
X80335990Y-43556589D01*
X80173475Y-43313368D01*
X79966632Y-43106525D01*
X79723411Y-42944010D01*
X79453158Y-42832068D01*
X79166260Y-42775000D01*
X78873740Y-42775000D01*
X78586842Y-42832068D01*
X78316589Y-42944010D01*
X78073368Y-43106525D01*
X77866525Y-43313368D01*
X77750000Y-43487760D01*
X77633475Y-43313368D01*
X77426632Y-43106525D01*
X77183411Y-42944010D01*
X76913158Y-42832068D01*
X76626260Y-42775000D01*
X76333740Y-42775000D01*
X76046842Y-42832068D01*
X75776589Y-42944010D01*
X75533368Y-43106525D01*
X75326525Y-43313368D01*
X75164010Y-43556589D01*
X75052068Y-43826842D01*
X74995000Y-44113740D01*
X74995000Y-44406260D01*
X75052068Y-44693158D01*
X75164010Y-44963411D01*
X75278382Y-45134581D01*
X75257803Y-45114002D01*
X75234000Y-45084998D01*
X75118275Y-44990025D01*
X74986246Y-44919453D01*
X74842985Y-44875996D01*
X74731332Y-44864999D01*
X74731321Y-44864999D01*
X74693999Y-44861323D01*
X74656677Y-44864999D01*
X72756753Y-44864999D01*
X72827932Y-44693158D01*
X72885000Y-44406260D01*
X72885000Y-44113740D01*
X72827932Y-43826842D01*
X72715990Y-43556589D01*
X72553475Y-43313368D01*
X72346632Y-43106525D01*
X72103411Y-42944010D01*
X71833158Y-42832068D01*
X71546260Y-42775000D01*
X71253740Y-42775000D01*
X70966842Y-42832068D01*
X70696589Y-42944010D01*
X70453368Y-43106525D01*
X70246525Y-43313368D01*
X70130000Y-43487760D01*
X70013475Y-43313368D01*
X69806632Y-43106525D01*
X69563411Y-42944010D01*
X69293158Y-42832068D01*
X69006260Y-42775000D01*
X68713740Y-42775000D01*
X68426842Y-42832068D01*
X68156589Y-42944010D01*
X67913368Y-43106525D01*
X67706525Y-43313368D01*
X67590000Y-43487760D01*
X67473475Y-43313368D01*
X67266632Y-43106525D01*
X67023411Y-42944010D01*
X66753158Y-42832068D01*
X66466260Y-42775000D01*
X66173740Y-42775000D01*
X65886842Y-42832068D01*
X65616589Y-42944010D01*
X65373368Y-43106525D01*
X65166525Y-43313368D01*
X65004010Y-43556589D01*
X64892068Y-43826842D01*
X64835000Y-44113740D01*
X64835000Y-44406260D01*
X64892068Y-44693158D01*
X64963247Y-44864999D01*
X62596753Y-44864999D01*
X62667932Y-44693158D01*
X62725000Y-44406260D01*
X62725000Y-44113740D01*
X62667932Y-43826842D01*
X62555990Y-43556589D01*
X62393475Y-43313368D01*
X62186632Y-43106525D01*
X61943411Y-42944010D01*
X61673158Y-42832068D01*
X61386260Y-42775000D01*
X61093740Y-42775000D01*
X60806842Y-42832068D01*
X60536589Y-42944010D01*
X60293368Y-43106525D01*
X60086525Y-43313368D01*
X59970000Y-43487760D01*
X59853475Y-43313368D01*
X59646632Y-43106525D01*
X59403411Y-42944010D01*
X59133158Y-42832068D01*
X58846260Y-42775000D01*
X58553740Y-42775000D01*
X58266842Y-42832068D01*
X57996589Y-42944010D01*
X57753368Y-43106525D01*
X57546525Y-43313368D01*
X57384010Y-43556589D01*
X57272068Y-43826842D01*
X57215000Y-44113740D01*
X57215000Y-44406260D01*
X57272068Y-44693158D01*
X57384010Y-44963411D01*
X57546525Y-45206632D01*
X57678380Y-45338487D01*
X57605820Y-45360498D01*
X57495506Y-45419463D01*
X57398815Y-45498815D01*
X57319463Y-45595506D01*
X57260498Y-45705820D01*
X57224188Y-45825518D01*
X57211928Y-45950000D01*
X57211928Y-47650000D01*
X57224188Y-47774482D01*
X57260498Y-47894180D01*
X57319463Y-48004494D01*
X57398815Y-48101185D01*
X57495506Y-48180537D01*
X57605820Y-48239502D01*
X57725518Y-48275812D01*
X57850000Y-48288072D01*
X59550000Y-48288072D01*
X59674482Y-48275812D01*
X59794180Y-48239502D01*
X59904494Y-48180537D01*
X60001185Y-48101185D01*
X60080537Y-48004494D01*
X60139502Y-47894180D01*
X60161513Y-47821620D01*
X60293368Y-47953475D01*
X60536589Y-48115990D01*
X60806842Y-48227932D01*
X61093740Y-48285000D01*
X61386260Y-48285000D01*
X61673158Y-48227932D01*
X61943411Y-48115990D01*
X62170001Y-47964587D01*
X62170002Y-49342669D01*
X62166325Y-49380001D01*
X62170002Y-49417334D01*
X62180999Y-49528987D01*
X62183531Y-49537333D01*
X62224455Y-49672247D01*
X62295027Y-49804277D01*
X62353663Y-49875724D01*
X62390001Y-49920002D01*
X62418999Y-49943800D01*
X62465199Y-49990000D01*
X62128178Y-49990000D01*
X62003475Y-49803368D01*
X61796632Y-49596525D01*
X61553411Y-49434010D01*
X61283158Y-49322068D01*
X60996260Y-49265000D01*
X60703740Y-49265000D01*
X60416842Y-49322068D01*
X60146589Y-49434010D01*
X59903368Y-49596525D01*
X59696525Y-49803368D01*
X59534010Y-50046589D01*
X59422068Y-50316842D01*
X59365000Y-50603740D01*
X59365000Y-50896260D01*
X59422068Y-51183158D01*
X59534010Y-51453411D01*
X59567634Y-51503733D01*
X59559999Y-51509999D01*
X59536205Y-51538993D01*
X59039002Y-52036197D01*
X59009999Y-52059999D01*
X58976199Y-52101185D01*
X58915026Y-52175724D01*
X58859385Y-52279820D01*
X58844454Y-52307754D01*
X58800997Y-52451015D01*
X58790000Y-52562668D01*
X58790000Y-52562678D01*
X58786324Y-52600000D01*
X58790000Y-52637323D01*
X58790001Y-54492668D01*
X58786324Y-54530000D01*
X58790001Y-54567333D01*
X58800998Y-54678986D01*
X58805933Y-54695254D01*
X58844454Y-54822246D01*
X58915026Y-54954276D01*
X58981254Y-55034974D01*
X59010000Y-55070001D01*
X59038998Y-55093799D01*
X59408791Y-55463592D01*
X59365000Y-55683740D01*
X59365000Y-55976260D01*
X59422068Y-56263158D01*
X59534010Y-56533411D01*
X59696525Y-56776632D01*
X59903368Y-56983475D01*
X60077760Y-57100000D01*
X59903368Y-57216525D01*
X59696525Y-57423368D01*
X59534010Y-57666589D01*
X59422068Y-57936842D01*
X59365000Y-58223740D01*
X59365000Y-58516260D01*
X59422068Y-58803158D01*
X59534010Y-59073411D01*
X59696525Y-59316632D01*
X59903368Y-59523475D01*
X60146589Y-59685990D01*
X60416842Y-59797932D01*
X60703740Y-59855000D01*
X60996260Y-59855000D01*
X61283158Y-59797932D01*
X61553411Y-59685990D01*
X61796632Y-59523475D01*
X62003475Y-59316632D01*
X62111474Y-59155000D01*
X69094843Y-59155000D01*
X72517658Y-62577816D01*
X72542236Y-62607764D01*
X72572184Y-62632342D01*
X72572187Y-62632345D01*
X72594940Y-62651018D01*
X72661767Y-62705862D01*
X72793334Y-62776185D01*
X72798140Y-62778754D01*
X72946113Y-62823642D01*
X73021026Y-62831020D01*
X73061439Y-62835000D01*
X73061444Y-62835000D01*
X73100000Y-62838797D01*
X73138556Y-62835000D01*
X74120482Y-62835000D01*
X74138759Y-62850000D01*
X74048815Y-62923815D01*
X73988222Y-62997649D01*
X73982245Y-62994454D01*
X73838984Y-62950997D01*
X73727331Y-62940000D01*
X73727320Y-62940000D01*
X73689998Y-62936324D01*
X73652676Y-62940000D01*
X72376607Y-62940000D01*
X72324482Y-62924188D01*
X72200000Y-62911928D01*
X70600000Y-62911928D01*
X70475518Y-62924188D01*
X70355820Y-62960498D01*
X70245506Y-63019463D01*
X70148815Y-63098815D01*
X70069463Y-63195506D01*
X70010498Y-63305820D01*
X69974188Y-63425518D01*
X69961928Y-63550000D01*
X69961928Y-63850000D01*
X69974188Y-63974482D01*
X70010498Y-64094180D01*
X70069463Y-64204494D01*
X70148815Y-64301185D01*
X70245506Y-64380537D01*
X70355820Y-64439502D01*
X70475518Y-64475812D01*
X70600000Y-64488072D01*
X72200000Y-64488072D01*
X72324482Y-64475812D01*
X72376607Y-64460000D01*
X73375197Y-64460000D01*
X73414833Y-64499636D01*
X73401014Y-64500997D01*
X73257753Y-64544454D01*
X73125724Y-64615026D01*
X73009999Y-64709999D01*
X72986196Y-64739003D01*
X72885199Y-64840000D01*
X72376607Y-64840000D01*
X72324482Y-64824188D01*
X72200000Y-64811928D01*
X70600000Y-64811928D01*
X70475518Y-64824188D01*
X70355820Y-64860498D01*
X70245506Y-64919463D01*
X70148815Y-64998815D01*
X70069463Y-65095506D01*
X70010498Y-65205820D01*
X69974188Y-65325518D01*
X69961928Y-65450000D01*
X69961928Y-65750000D01*
X69974188Y-65874482D01*
X70010498Y-65994180D01*
X70069463Y-66104494D01*
X70148815Y-66201185D01*
X70245506Y-66280537D01*
X70355820Y-66339502D01*
X70475518Y-66375812D01*
X70600000Y-66388072D01*
X72200000Y-66388072D01*
X72324482Y-66375812D01*
X72376607Y-66360000D01*
X73162678Y-66360000D01*
X73200000Y-66363676D01*
X73237322Y-66360000D01*
X73237333Y-66360000D01*
X73348986Y-66349003D01*
X73492247Y-66305546D01*
X73624276Y-66234974D01*
X73740001Y-66140001D01*
X73763804Y-66110997D01*
X73864801Y-66010000D01*
X74090019Y-66010000D01*
X74145506Y-66055537D01*
X74255820Y-66114502D01*
X74375518Y-66150812D01*
X74500000Y-66163072D01*
X75836928Y-66163072D01*
X75836928Y-67500000D01*
X75849188Y-67624482D01*
X75885498Y-67744180D01*
X75944463Y-67854494D01*
X75990001Y-67909982D01*
X75990000Y-70312677D01*
X75986324Y-70350000D01*
X75990000Y-70387322D01*
X75990000Y-70387332D01*
X76000997Y-70498985D01*
X76032398Y-70602501D01*
X76044454Y-70642246D01*
X76115026Y-70774276D01*
X76145578Y-70811503D01*
X76209999Y-70890001D01*
X76239003Y-70913804D01*
X87315001Y-81989803D01*
X87315001Y-82086928D01*
X87200000Y-82086928D01*
X87075518Y-82099188D01*
X86955820Y-82135498D01*
X86845506Y-82194463D01*
X86748815Y-82273815D01*
X86669463Y-82370506D01*
X86610498Y-82480820D01*
X86574188Y-82600518D01*
X86561928Y-82725000D01*
X86561928Y-83994164D01*
X86488405Y-83856613D01*
X86377962Y-83722038D01*
X86243387Y-83611595D01*
X86089851Y-83529528D01*
X85923255Y-83478992D01*
X85750001Y-83461928D01*
X84449999Y-83461928D01*
X84276745Y-83478992D01*
X84110149Y-83529528D01*
X83956613Y-83611595D01*
X83822038Y-83722038D01*
X83711595Y-83856613D01*
X83629528Y-84010149D01*
X83578992Y-84176745D01*
X83561928Y-84349999D01*
X83561928Y-85000001D01*
X83578992Y-85173255D01*
X83629528Y-85339851D01*
X83711595Y-85493387D01*
X83822038Y-85627962D01*
X83956613Y-85738405D01*
X84110149Y-85820472D01*
X84276745Y-85871008D01*
X84449999Y-85888072D01*
X84707941Y-85888072D01*
X85142522Y-86322653D01*
X85041377Y-86376716D01*
X84868551Y-86518551D01*
X84833011Y-86561857D01*
X83266538Y-88128331D01*
X83100000Y-88111928D01*
X82000000Y-88111928D01*
X81826746Y-88128992D01*
X81660150Y-88179528D01*
X81506614Y-88261595D01*
X81372038Y-88372038D01*
X81261595Y-88506614D01*
X81179528Y-88660150D01*
X81128992Y-88826746D01*
X81111928Y-89000000D01*
X81111928Y-91100000D01*
X81128992Y-91273254D01*
X81179528Y-91439850D01*
X81205823Y-91489045D01*
X78542221Y-94152647D01*
X78570576Y-94099599D01*
X78628510Y-93908616D01*
X78642931Y-93762200D01*
X80213141Y-92191991D01*
X80256449Y-92156449D01*
X80398284Y-91983623D01*
X80503676Y-91786447D01*
X80568577Y-91572499D01*
X80585000Y-91405752D01*
X80585000Y-91405751D01*
X80590491Y-91350000D01*
X80585000Y-91294248D01*
X80585000Y-80955751D01*
X80590491Y-80899999D01*
X80568577Y-80677500D01*
X80537791Y-80576014D01*
X80503676Y-80463553D01*
X80398284Y-80266377D01*
X80256449Y-80093551D01*
X80213141Y-80058009D01*
X79488072Y-79332940D01*
X79488072Y-76200000D01*
X79475812Y-76075518D01*
X79439502Y-75955820D01*
X79380537Y-75845506D01*
X79301185Y-75748815D01*
X79204494Y-75669463D01*
X79094180Y-75610498D01*
X78974482Y-75574188D01*
X78850000Y-75561928D01*
X76050000Y-75561928D01*
X75925518Y-75574188D01*
X75805820Y-75610498D01*
X75695506Y-75669463D01*
X75598815Y-75748815D01*
X75519463Y-75845506D01*
X75460498Y-75955820D01*
X75424188Y-76075518D01*
X75411928Y-76200000D01*
X75411928Y-81600000D01*
X75424188Y-81724482D01*
X75460498Y-81844180D01*
X75519463Y-81954494D01*
X75598815Y-82051185D01*
X75695506Y-82130537D01*
X75805820Y-82189502D01*
X75925518Y-82225812D01*
X76050000Y-82238072D01*
X78315001Y-82238072D01*
X78315000Y-90879868D01*
X77422941Y-91771928D01*
X76870000Y-91771928D01*
X76671384Y-91791490D01*
X76480401Y-91849424D01*
X76304390Y-91943504D01*
X76156345Y-92065000D01*
X73727603Y-92065000D01*
X73719180Y-92060498D01*
X73599482Y-92024188D01*
X73475000Y-92011928D01*
X68875000Y-92011928D01*
X68750518Y-92024188D01*
X68630820Y-92060498D01*
X68520506Y-92119463D01*
X68423815Y-92198815D01*
X68344463Y-92295506D01*
X68285498Y-92405820D01*
X68249188Y-92525518D01*
X68236928Y-92650000D01*
X68236928Y-93750000D01*
X68249188Y-93874482D01*
X68285498Y-93994180D01*
X68315335Y-94050000D01*
X68285498Y-94105820D01*
X68249188Y-94225518D01*
X68236928Y-94350000D01*
X68236928Y-95450000D01*
X68249188Y-95574482D01*
X68285498Y-95694180D01*
X68344463Y-95804494D01*
X68423815Y-95901185D01*
X68520506Y-95980537D01*
X68630820Y-96039502D01*
X68750518Y-96075812D01*
X68875000Y-96088072D01*
X70757940Y-96088072D01*
X71265001Y-96595133D01*
X71265000Y-98909869D01*
X69891996Y-97536865D01*
X69856449Y-97493551D01*
X69683623Y-97351716D01*
X69486447Y-97246324D01*
X69272499Y-97181423D01*
X69105752Y-97165000D01*
X69105751Y-97165000D01*
X69050000Y-97159509D01*
X68994249Y-97165000D01*
X63844248Y-97165000D01*
X63677501Y-97181423D01*
X63463553Y-97246324D01*
X63430827Y-97263816D01*
X63325518Y-97274188D01*
X63205820Y-97310498D01*
X63095506Y-97369463D01*
X62998815Y-97448815D01*
X62919463Y-97545506D01*
X62860498Y-97655820D01*
X62824188Y-97775518D01*
X62811928Y-97900000D01*
X62811928Y-97976940D01*
X62781423Y-98077501D01*
X62759509Y-98300000D01*
X62766432Y-98370294D01*
X62704494Y-98319463D01*
X62594180Y-98260498D01*
X62474482Y-98224188D01*
X62369173Y-98213816D01*
X62336447Y-98196324D01*
X62122499Y-98131423D01*
X61955752Y-98115000D01*
X55705751Y-98115000D01*
X55649999Y-98109509D01*
X55594248Y-98115000D01*
X55427501Y-98131423D01*
X55213553Y-98196324D01*
X55016377Y-98301716D01*
X54843551Y-98443551D01*
X54808004Y-98486865D01*
X54436865Y-98858004D01*
X54393551Y-98893551D01*
X54251716Y-99066377D01*
X54163972Y-99230537D01*
X54146324Y-99263554D01*
X54081423Y-99477502D01*
X54059509Y-99700000D01*
X54065000Y-99755752D01*
X54065000Y-100592182D01*
X53959294Y-100720986D01*
X53821401Y-100978966D01*
X53736487Y-101258889D01*
X53715000Y-101477050D01*
X53715000Y-101922949D01*
X53736487Y-102141110D01*
X53821401Y-102421033D01*
X53959294Y-102679013D01*
X54144866Y-102905134D01*
X54370986Y-103090706D01*
X54628966Y-103228599D01*
X54908889Y-103313513D01*
X55200000Y-103342185D01*
X55491110Y-103313513D01*
X55771033Y-103228599D01*
X56029013Y-103090706D01*
X56255134Y-102905134D01*
X56440706Y-102679014D01*
X56578599Y-102421034D01*
X56663513Y-102141111D01*
X56685000Y-101922950D01*
X56685000Y-101477051D01*
X56663513Y-101258890D01*
X56578599Y-100978967D01*
X56440706Y-100720986D01*
X56335000Y-100592183D01*
X56335000Y-100385000D01*
X61955752Y-100385000D01*
X62122499Y-100368577D01*
X62336447Y-100303676D01*
X62369173Y-100286184D01*
X62474482Y-100275812D01*
X62594180Y-100239502D01*
X62704494Y-100180537D01*
X62801185Y-100101185D01*
X62880537Y-100004494D01*
X62939502Y-99894180D01*
X62975812Y-99774482D01*
X62988072Y-99650000D01*
X62988072Y-99573060D01*
X63018577Y-99472499D01*
X63040491Y-99250000D01*
X63033568Y-99179706D01*
X63095506Y-99230537D01*
X63205820Y-99289502D01*
X63325518Y-99325812D01*
X63430827Y-99336184D01*
X63463553Y-99353676D01*
X63677501Y-99418577D01*
X63844248Y-99435000D01*
X68579869Y-99435000D01*
X70011928Y-100867060D01*
X70011928Y-101500000D01*
X70028992Y-101673254D01*
X70079528Y-101839850D01*
X70161595Y-101993386D01*
X70272038Y-102127962D01*
X70406614Y-102238405D01*
X70560150Y-102320472D01*
X70726746Y-102371008D01*
X70900000Y-102388072D01*
X73900000Y-102388072D01*
X74073254Y-102371008D01*
X74239850Y-102320472D01*
X74393386Y-102238405D01*
X74527962Y-102127962D01*
X74638405Y-101993386D01*
X74720472Y-101839850D01*
X74771008Y-101673254D01*
X74785407Y-101527050D01*
X76215000Y-101527050D01*
X76215000Y-101972949D01*
X76236487Y-102191110D01*
X76321401Y-102471033D01*
X76459294Y-102729013D01*
X76644866Y-102955134D01*
X76870986Y-103140706D01*
X77128966Y-103278599D01*
X77408889Y-103363513D01*
X77700000Y-103392185D01*
X77991110Y-103363513D01*
X78271033Y-103278599D01*
X78529013Y-103140706D01*
X78755134Y-102955134D01*
X78807223Y-102891663D01*
X78861595Y-102993386D01*
X78972038Y-103127962D01*
X79106614Y-103238405D01*
X79260150Y-103320472D01*
X79426746Y-103371008D01*
X79600000Y-103388072D01*
X80800000Y-103388072D01*
X80973254Y-103371008D01*
X81139850Y-103320472D01*
X81293386Y-103238405D01*
X81427962Y-103127962D01*
X81538405Y-102993386D01*
X81596339Y-102885000D01*
X82394249Y-102885000D01*
X82450000Y-102890491D01*
X82505751Y-102885000D01*
X82505752Y-102885000D01*
X82672499Y-102868577D01*
X82886447Y-102803676D01*
X83083623Y-102698284D01*
X83256449Y-102556449D01*
X83291996Y-102513135D01*
X85009975Y-100795156D01*
X85009294Y-100795986D01*
X84871401Y-101053966D01*
X84786487Y-101333889D01*
X84765000Y-101552050D01*
X84765000Y-101947949D01*
X84786487Y-102166110D01*
X84871401Y-102446033D01*
X85009294Y-102704013D01*
X85194866Y-102930134D01*
X85420986Y-103115706D01*
X85678966Y-103253599D01*
X85958889Y-103338513D01*
X86250000Y-103367185D01*
X86541110Y-103338513D01*
X86821033Y-103253599D01*
X87079013Y-103115706D01*
X87305134Y-102930134D01*
X87490706Y-102704014D01*
X87500000Y-102686626D01*
X87509294Y-102704013D01*
X87694866Y-102930134D01*
X87920986Y-103115706D01*
X88178966Y-103253599D01*
X88458889Y-103338513D01*
X88750000Y-103367185D01*
X89041110Y-103338513D01*
X89321033Y-103253599D01*
X89579013Y-103115706D01*
X89805134Y-102930134D01*
X89990706Y-102704014D01*
X90128599Y-102446034D01*
X90213513Y-102166111D01*
X90235000Y-101947950D01*
X90235000Y-101552051D01*
X90235000Y-101552050D01*
X95815000Y-101552050D01*
X95815000Y-101947949D01*
X95836487Y-102166110D01*
X95921401Y-102446033D01*
X96059294Y-102704013D01*
X96244866Y-102930134D01*
X96470986Y-103115706D01*
X96728966Y-103253599D01*
X97008889Y-103338513D01*
X97300000Y-103367185D01*
X97591110Y-103338513D01*
X97871033Y-103253599D01*
X98129013Y-103115706D01*
X98355134Y-102930134D01*
X98540706Y-102704014D01*
X98550000Y-102686626D01*
X98559294Y-102704013D01*
X98744866Y-102930134D01*
X98970986Y-103115706D01*
X99228966Y-103253599D01*
X99508889Y-103338513D01*
X99800000Y-103367185D01*
X100091110Y-103338513D01*
X100371033Y-103253599D01*
X100629013Y-103115706D01*
X100855134Y-102930134D01*
X101040706Y-102704014D01*
X101178599Y-102446034D01*
X101263513Y-102166111D01*
X101285000Y-101947950D01*
X101285000Y-101552051D01*
X101263513Y-101333890D01*
X101178599Y-101053967D01*
X101040706Y-100795986D01*
X100855134Y-100569866D01*
X100629014Y-100384294D01*
X100371034Y-100246401D01*
X100091111Y-100161487D01*
X99800000Y-100132815D01*
X99508890Y-100161487D01*
X99228967Y-100246401D01*
X98970987Y-100384294D01*
X98744866Y-100569866D01*
X98559294Y-100795986D01*
X98550000Y-100813374D01*
X98540706Y-100795986D01*
X98355134Y-100569866D01*
X98129014Y-100384294D01*
X97871034Y-100246401D01*
X97591111Y-100161487D01*
X97300000Y-100132815D01*
X97008890Y-100161487D01*
X96728967Y-100246401D01*
X96470987Y-100384294D01*
X96244866Y-100569866D01*
X96059294Y-100795986D01*
X95921401Y-101053966D01*
X95836487Y-101333889D01*
X95815000Y-101552050D01*
X90235000Y-101552050D01*
X90213513Y-101333890D01*
X90128599Y-101053967D01*
X89990706Y-100795986D01*
X89805134Y-100569866D01*
X89579014Y-100384294D01*
X89321034Y-100246401D01*
X89041111Y-100161487D01*
X88750000Y-100132815D01*
X88458890Y-100161487D01*
X88178967Y-100246401D01*
X87920987Y-100384294D01*
X87694866Y-100569866D01*
X87509294Y-100795986D01*
X87500000Y-100813374D01*
X87490706Y-100795986D01*
X87305134Y-100569866D01*
X87079014Y-100384294D01*
X86821034Y-100246401D01*
X86541111Y-100161487D01*
X86250000Y-100132815D01*
X85958890Y-100161487D01*
X85678967Y-100246401D01*
X85420987Y-100384294D01*
X85420152Y-100384979D01*
X89267060Y-96538072D01*
X89500001Y-96538072D01*
X89673255Y-96521008D01*
X89839851Y-96470472D01*
X89993387Y-96388405D01*
X90127962Y-96277962D01*
X90238405Y-96143387D01*
X90320472Y-95989851D01*
X90371008Y-95823255D01*
X90388072Y-95650001D01*
X90388072Y-94349999D01*
X90376153Y-94228979D01*
X91050000Y-93555131D01*
X94233009Y-96738141D01*
X94268551Y-96781449D01*
X94441377Y-96923284D01*
X94638553Y-97028676D01*
X94852501Y-97093577D01*
X95019248Y-97110000D01*
X95019257Y-97110000D01*
X95074999Y-97115490D01*
X95130741Y-97110000D01*
X95290557Y-97110000D01*
X95310149Y-97120472D01*
X95476745Y-97171008D01*
X95649999Y-97188072D01*
X96950001Y-97188072D01*
X97123255Y-97171008D01*
X97289851Y-97120472D01*
X97309443Y-97110000D01*
X103104869Y-97110000D01*
X106989665Y-100994797D01*
X106971401Y-101028966D01*
X106886487Y-101308889D01*
X106865000Y-101527050D01*
X106865000Y-101972949D01*
X106886487Y-102191110D01*
X106971401Y-102471033D01*
X107109294Y-102729013D01*
X107294866Y-102955134D01*
X107520986Y-103140706D01*
X107778966Y-103278599D01*
X108058889Y-103363513D01*
X108350000Y-103392185D01*
X108641110Y-103363513D01*
X108921033Y-103278599D01*
X109179013Y-103140706D01*
X109405134Y-102955134D01*
X109457223Y-102891663D01*
X109511595Y-102993386D01*
X109622038Y-103127962D01*
X109756614Y-103238405D01*
X109910150Y-103320472D01*
X110076746Y-103371008D01*
X110250000Y-103388072D01*
X111450000Y-103388072D01*
X111623254Y-103371008D01*
X111789850Y-103320472D01*
X111943386Y-103238405D01*
X112077962Y-103127962D01*
X112188405Y-102993386D01*
X112270472Y-102839850D01*
X112321008Y-102673254D01*
X112338072Y-102500000D01*
X112338072Y-101000000D01*
X112321008Y-100826746D01*
X112270472Y-100660150D01*
X112188405Y-100506614D01*
X112077962Y-100372038D01*
X111943386Y-100261595D01*
X111789850Y-100179528D01*
X111623254Y-100128992D01*
X111521136Y-100118934D01*
X103639066Y-92236865D01*
X103603519Y-92193551D01*
X103430693Y-92051716D01*
X103233517Y-91946324D01*
X103019569Y-91881423D01*
X102852822Y-91865000D01*
X102852821Y-91865000D01*
X102797070Y-91859509D01*
X102741319Y-91865000D01*
X97241958Y-91865000D01*
X97123255Y-91828992D01*
X96950001Y-91811928D01*
X95649999Y-91811928D01*
X95476745Y-91828992D01*
X95410791Y-91848999D01*
X95425812Y-91799482D01*
X95438072Y-91675000D01*
X95438072Y-89925000D01*
X95425812Y-89800518D01*
X95389502Y-89680820D01*
X95330537Y-89570506D01*
X95251185Y-89473815D01*
X95154494Y-89394463D01*
X95044180Y-89335498D01*
X94924482Y-89299188D01*
X94800000Y-89286928D01*
X94350000Y-89286928D01*
X94250000Y-89296777D01*
X94150000Y-89286928D01*
X93700000Y-89286928D01*
X93575518Y-89299188D01*
X93455820Y-89335498D01*
X93345506Y-89394463D01*
X93248815Y-89473815D01*
X93169463Y-89570506D01*
X93110498Y-89680820D01*
X93074188Y-89800518D01*
X93061928Y-89925000D01*
X93061928Y-91675000D01*
X93074188Y-91799482D01*
X93090001Y-91851609D01*
X93090001Y-92384870D01*
X92810000Y-92104869D01*
X92810000Y-91851607D01*
X92825812Y-91799482D01*
X92838072Y-91675000D01*
X92838072Y-89925000D01*
X92825812Y-89800518D01*
X92789502Y-89680820D01*
X92730537Y-89570506D01*
X92651185Y-89473815D01*
X92554494Y-89394463D01*
X92444180Y-89335498D01*
X92324482Y-89299188D01*
X92200000Y-89286928D01*
X91750000Y-89286928D01*
X91650000Y-89296777D01*
X91550000Y-89286928D01*
X91100000Y-89286928D01*
X91000000Y-89296777D01*
X90900000Y-89286928D01*
X90450000Y-89286928D01*
X90350000Y-89296777D01*
X90250000Y-89286928D01*
X89800000Y-89286928D01*
X89675518Y-89299188D01*
X89555820Y-89335498D01*
X89445506Y-89394463D01*
X89348815Y-89473815D01*
X89269463Y-89570506D01*
X89210498Y-89680820D01*
X89174188Y-89800518D01*
X89161928Y-89925000D01*
X89161928Y-91675000D01*
X89174188Y-91799482D01*
X89190001Y-91851609D01*
X89190001Y-92204867D01*
X88910000Y-92484869D01*
X88910000Y-91851607D01*
X88925812Y-91799482D01*
X88938072Y-91675000D01*
X88938072Y-89925000D01*
X88925812Y-89800518D01*
X88889502Y-89680820D01*
X88830537Y-89570506D01*
X88751185Y-89473815D01*
X88654494Y-89394463D01*
X88544180Y-89335498D01*
X88424482Y-89299188D01*
X88300000Y-89286928D01*
X87850000Y-89286928D01*
X87750000Y-89296777D01*
X87650000Y-89286928D01*
X87200000Y-89286928D01*
X87075518Y-89299188D01*
X86955820Y-89335498D01*
X86845506Y-89394463D01*
X86748815Y-89473815D01*
X86669463Y-89570506D01*
X86610498Y-89680820D01*
X86574188Y-89800518D01*
X86561928Y-89925000D01*
X86561928Y-91675000D01*
X86574188Y-91799482D01*
X86590001Y-91851609D01*
X86590001Y-92504867D01*
X85567602Y-93527267D01*
X85560149Y-93529528D01*
X85406613Y-93611595D01*
X85272038Y-93722038D01*
X85161595Y-93856613D01*
X85157112Y-93865000D01*
X83855752Y-93865000D01*
X83800000Y-93859509D01*
X83577501Y-93881423D01*
X83363553Y-93946324D01*
X83166377Y-94051716D01*
X83036856Y-94158011D01*
X83036854Y-94158013D01*
X82993551Y-94193551D01*
X82958013Y-94236854D01*
X76936860Y-100258009D01*
X76893552Y-100293551D01*
X76774845Y-100438195D01*
X76644866Y-100544866D01*
X76459294Y-100770986D01*
X76321401Y-101028966D01*
X76236487Y-101308889D01*
X76215000Y-101527050D01*
X74785407Y-101527050D01*
X74788072Y-101500000D01*
X74788072Y-101117059D01*
X83313141Y-92591991D01*
X83356449Y-92556449D01*
X83498284Y-92383623D01*
X83603676Y-92186447D01*
X83668577Y-91972499D01*
X83685000Y-91805752D01*
X83685000Y-91805751D01*
X83689557Y-91759480D01*
X83727962Y-91727962D01*
X83838405Y-91593386D01*
X83920472Y-91439850D01*
X83971008Y-91273254D01*
X83988072Y-91100000D01*
X83988072Y-90617059D01*
X86145132Y-88460000D01*
X86769257Y-88460000D01*
X86824999Y-88465490D01*
X86880741Y-88460000D01*
X94305752Y-88460000D01*
X94472499Y-88443577D01*
X94686447Y-88378676D01*
X94883623Y-88273284D01*
X95056449Y-88131449D01*
X95198284Y-87958623D01*
X95303676Y-87761447D01*
X95368577Y-87547499D01*
X95390491Y-87325000D01*
X95368577Y-87102501D01*
X95357348Y-87065485D01*
X95360000Y-87038561D01*
X95360000Y-87038554D01*
X95363797Y-87000001D01*
X95360000Y-86961448D01*
X95360000Y-84774373D01*
X95389502Y-84719180D01*
X95425812Y-84599482D01*
X95438072Y-84475000D01*
X95438072Y-83905836D01*
X95511595Y-84043387D01*
X95622038Y-84177962D01*
X95756613Y-84288405D01*
X95910149Y-84370472D01*
X96076745Y-84421008D01*
X96249999Y-84438072D01*
X97550001Y-84438072D01*
X97723255Y-84421008D01*
X97889851Y-84370472D01*
X98043387Y-84288405D01*
X98177962Y-84177962D01*
X98288405Y-84043387D01*
X98370472Y-83889851D01*
X98421008Y-83723255D01*
X98438072Y-83550001D01*
X98438072Y-82899999D01*
X98421008Y-82726745D01*
X98370472Y-82560149D01*
X98288405Y-82406613D01*
X98177962Y-82272038D01*
X98043387Y-82161595D01*
X97889851Y-82079528D01*
X97723255Y-82028992D01*
X97550001Y-82011928D01*
X96867796Y-82011928D01*
X95635000Y-80779133D01*
X95635000Y-80698059D01*
X95595226Y-80498100D01*
X95517205Y-80309742D01*
X95403937Y-80140224D01*
X95259774Y-79996061D01*
X95090256Y-79882793D01*
X94901898Y-79804772D01*
X94701939Y-79764998D01*
X94498061Y-79764998D01*
X94298102Y-79804772D01*
X94109744Y-79882793D01*
X94035000Y-79932735D01*
X94035000Y-77759802D01*
X98696200Y-82421002D01*
X98719999Y-82450001D01*
X98835724Y-82544974D01*
X98967753Y-82615546D01*
X99111014Y-82659003D01*
X99222667Y-82670000D01*
X99222677Y-82670000D01*
X99260000Y-82673676D01*
X99297323Y-82670000D01*
X101481822Y-82670000D01*
X101606525Y-82856632D01*
X101813368Y-83063475D01*
X101987760Y-83180000D01*
X101813368Y-83296525D01*
X101606525Y-83503368D01*
X101444010Y-83746589D01*
X101332068Y-84016842D01*
X101275000Y-84303740D01*
X101275000Y-84596260D01*
X101332068Y-84883158D01*
X101444010Y-85153411D01*
X101606525Y-85396632D01*
X101813368Y-85603475D01*
X102056589Y-85765990D01*
X102326842Y-85877932D01*
X102613740Y-85935000D01*
X102906260Y-85935000D01*
X103193158Y-85877932D01*
X103463411Y-85765990D01*
X103706632Y-85603475D01*
X103838487Y-85471620D01*
X103860498Y-85544180D01*
X103881579Y-85583619D01*
X103473271Y-85991928D01*
X103455000Y-85991928D01*
X103304181Y-86006782D01*
X103159158Y-86050775D01*
X103025504Y-86122214D01*
X102908356Y-86218356D01*
X102812214Y-86335504D01*
X102740775Y-86469158D01*
X102696782Y-86614181D01*
X102681928Y-86765000D01*
X102681928Y-87135000D01*
X102696782Y-87285819D01*
X102740775Y-87430842D01*
X102812214Y-87564496D01*
X102908356Y-87681644D01*
X103025504Y-87777786D01*
X103159158Y-87849225D01*
X103304181Y-87893218D01*
X103455000Y-87908072D01*
X103725000Y-87908072D01*
X103875819Y-87893218D01*
X104020842Y-87849225D01*
X104100000Y-87806914D01*
X104179158Y-87849225D01*
X104324181Y-87893218D01*
X104475000Y-87908072D01*
X104745000Y-87908072D01*
X104895819Y-87893218D01*
X105040842Y-87849225D01*
X105172249Y-87778987D01*
X105301875Y-87848274D01*
X105449243Y-87892977D01*
X105602500Y-87908072D01*
X105897500Y-87908072D01*
X106050757Y-87892977D01*
X106198125Y-87848274D01*
X106333940Y-87775679D01*
X106452983Y-87677983D01*
X106550679Y-87558940D01*
X106623274Y-87423125D01*
X106667977Y-87275757D01*
X106683072Y-87122500D01*
X106683072Y-86777500D01*
X106675568Y-86701310D01*
X106698986Y-86699003D01*
X106842247Y-86655546D01*
X106933666Y-86606681D01*
X106944454Y-86642246D01*
X107015026Y-86774276D01*
X107073983Y-86846114D01*
X107110000Y-86890001D01*
X107138998Y-86913799D01*
X108511928Y-88286730D01*
X108511928Y-88700000D01*
X108524188Y-88824482D01*
X108560498Y-88944180D01*
X108619463Y-89054494D01*
X108698815Y-89151185D01*
X108795506Y-89230537D01*
X108905820Y-89289502D01*
X109025518Y-89325812D01*
X109150000Y-89338072D01*
X110200000Y-89338072D01*
X110324482Y-89325812D01*
X110444180Y-89289502D01*
X110554494Y-89230537D01*
X110651185Y-89151185D01*
X110664468Y-89135000D01*
X112835532Y-89135000D01*
X112848815Y-89151185D01*
X112945506Y-89230537D01*
X113055820Y-89289502D01*
X113175518Y-89325812D01*
X113300000Y-89338072D01*
X114350000Y-89338072D01*
X114474482Y-89325812D01*
X114594180Y-89289502D01*
X114640001Y-89265010D01*
X114640001Y-93556188D01*
X114445273Y-93086072D01*
X114118601Y-92597174D01*
X113702826Y-92181399D01*
X113213928Y-91854727D01*
X112670692Y-91629712D01*
X112093997Y-91515000D01*
X111506003Y-91515000D01*
X110929308Y-91629712D01*
X110386072Y-91854727D01*
X109897174Y-92181399D01*
X109481399Y-92597174D01*
X109154727Y-93086072D01*
X108929712Y-93629308D01*
X108815000Y-94206003D01*
X108815000Y-94793997D01*
X108929712Y-95370692D01*
X109154727Y-95913928D01*
X109481399Y-96402826D01*
X109897174Y-96818601D01*
X110386072Y-97145273D01*
X110929308Y-97370288D01*
X111506003Y-97485000D01*
X112093997Y-97485000D01*
X112670692Y-97370288D01*
X113213928Y-97145273D01*
X113702826Y-96818601D01*
X114118601Y-96402826D01*
X114445273Y-95913928D01*
X114640001Y-95443812D01*
X114640001Y-101967711D01*
X114582808Y-102551010D01*
X114422783Y-103081036D01*
X114162860Y-103569880D01*
X113812935Y-103998931D01*
X113386335Y-104351845D01*
X112899320Y-104615173D01*
X112370422Y-104778894D01*
X111789040Y-104840000D01*
X53832279Y-104840000D01*
X53248990Y-104782808D01*
X52718964Y-104622783D01*
X52230120Y-104362860D01*
X51801069Y-104012935D01*
X51448155Y-103586335D01*
X51184827Y-103099320D01*
X51021106Y-102570422D01*
X50960000Y-101989040D01*
X50960000Y-95443814D01*
X51154727Y-95913928D01*
X51481399Y-96402826D01*
X51897174Y-96818601D01*
X52386072Y-97145273D01*
X52929308Y-97370288D01*
X53506003Y-97485000D01*
X54093997Y-97485000D01*
X54670692Y-97370288D01*
X55213928Y-97145273D01*
X55702826Y-96818601D01*
X56118601Y-96402826D01*
X56445273Y-95913928D01*
X56670288Y-95370692D01*
X56785000Y-94793997D01*
X56785000Y-94206003D01*
X56670288Y-93629308D01*
X56445273Y-93086072D01*
X56118601Y-92597174D01*
X55702826Y-92181399D01*
X55213928Y-91854727D01*
X54670692Y-91629712D01*
X54093997Y-91515000D01*
X53506003Y-91515000D01*
X52929308Y-91629712D01*
X52386072Y-91854727D01*
X51897174Y-92181399D01*
X51481399Y-92597174D01*
X51154727Y-93086072D01*
X50960000Y-93556186D01*
X50960000Y-75400000D01*
X52157815Y-75400000D01*
X52186487Y-75691111D01*
X52271401Y-75971034D01*
X52409294Y-76229014D01*
X52594866Y-76455134D01*
X52820986Y-76640706D01*
X53078966Y-76778599D01*
X53358889Y-76863513D01*
X53577050Y-76885000D01*
X54022950Y-76885000D01*
X54241111Y-76863513D01*
X54521034Y-76778599D01*
X54779014Y-76640706D01*
X54907817Y-76535000D01*
X56265000Y-76535000D01*
X56265001Y-81134841D01*
X56156048Y-81243795D01*
X56024181Y-81256782D01*
X55879158Y-81300775D01*
X55800000Y-81343086D01*
X55720842Y-81300775D01*
X55575819Y-81256782D01*
X55425000Y-81241928D01*
X55155000Y-81241928D01*
X55004181Y-81256782D01*
X54859158Y-81300775D01*
X54725504Y-81372214D01*
X54673370Y-81415000D01*
X54183508Y-81415000D01*
X54133940Y-81374321D01*
X53998125Y-81301726D01*
X53850757Y-81257023D01*
X53697500Y-81241928D01*
X53402500Y-81241928D01*
X53249243Y-81257023D01*
X53101875Y-81301726D01*
X52966060Y-81374321D01*
X52847017Y-81472017D01*
X52749321Y-81591060D01*
X52676726Y-81726875D01*
X52632023Y-81874243D01*
X52616928Y-82027500D01*
X52616928Y-82372500D01*
X52632023Y-82525757D01*
X52676726Y-82673125D01*
X52749321Y-82808940D01*
X52847017Y-82927983D01*
X52966060Y-83025679D01*
X53101875Y-83098274D01*
X53249243Y-83142977D01*
X53402500Y-83158072D01*
X53697500Y-83158072D01*
X53850757Y-83142977D01*
X53998125Y-83098274D01*
X54133940Y-83025679D01*
X54183508Y-82985000D01*
X54673370Y-82985000D01*
X54725504Y-83027786D01*
X54859158Y-83099225D01*
X55004181Y-83143218D01*
X55155000Y-83158072D01*
X55425000Y-83158072D01*
X55575819Y-83143218D01*
X55720842Y-83099225D01*
X55800000Y-83056914D01*
X55879158Y-83099225D01*
X56024181Y-83143218D01*
X56175000Y-83158072D01*
X56445000Y-83158072D01*
X56595819Y-83143218D01*
X56740842Y-83099225D01*
X56874496Y-83027786D01*
X56991644Y-82931644D01*
X57087786Y-82814496D01*
X57159225Y-82680842D01*
X57203218Y-82535819D01*
X57216205Y-82403952D01*
X57577815Y-82042343D01*
X57607764Y-82017764D01*
X57632465Y-81987667D01*
X57672670Y-81938677D01*
X57705862Y-81898233D01*
X57778754Y-81761860D01*
X57823641Y-81613887D01*
X57835000Y-81498561D01*
X57835000Y-81498554D01*
X57838797Y-81460001D01*
X57835000Y-81421448D01*
X57835000Y-76535000D01*
X59079869Y-76535000D01*
X60761928Y-78217060D01*
X60761928Y-79550000D01*
X60778992Y-79723254D01*
X60829528Y-79889850D01*
X60911595Y-80043386D01*
X61022038Y-80177962D01*
X61156614Y-80288405D01*
X61310150Y-80370472D01*
X61476746Y-80421008D01*
X61650000Y-80438072D01*
X62750000Y-80438072D01*
X62923254Y-80421008D01*
X63089850Y-80370472D01*
X63243386Y-80288405D01*
X63377962Y-80177962D01*
X63488405Y-80043386D01*
X63492887Y-80035000D01*
X65611928Y-80035000D01*
X65611928Y-81600000D01*
X65624188Y-81724482D01*
X65660498Y-81844180D01*
X65719463Y-81954494D01*
X65798815Y-82051185D01*
X65895506Y-82130537D01*
X66005820Y-82189502D01*
X66125518Y-82225812D01*
X66250000Y-82238072D01*
X69050000Y-82238072D01*
X69174482Y-82225812D01*
X69294180Y-82189502D01*
X69404494Y-82130537D01*
X69501185Y-82051185D01*
X69543947Y-81999079D01*
X73415001Y-85870133D01*
X73415000Y-88611928D01*
X68875000Y-88611928D01*
X68750518Y-88624188D01*
X68630820Y-88660498D01*
X68520506Y-88719463D01*
X68423815Y-88798815D01*
X68344463Y-88895506D01*
X68285498Y-89005820D01*
X68249188Y-89125518D01*
X68236928Y-89250000D01*
X68236928Y-90350000D01*
X68249188Y-90474482D01*
X68285498Y-90594180D01*
X68344463Y-90704494D01*
X68423815Y-90801185D01*
X68520506Y-90880537D01*
X68630820Y-90939502D01*
X68750518Y-90975812D01*
X68875000Y-90988072D01*
X73475000Y-90988072D01*
X73599482Y-90975812D01*
X73719180Y-90939502D01*
X73727603Y-90935000D01*
X74419249Y-90935000D01*
X74475000Y-90940491D01*
X74530751Y-90935000D01*
X74530752Y-90935000D01*
X74697499Y-90918577D01*
X74911447Y-90853676D01*
X75108623Y-90748284D01*
X75281449Y-90606449D01*
X75315256Y-90565256D01*
X75356449Y-90531449D01*
X75498284Y-90358623D01*
X75603676Y-90161447D01*
X75668577Y-89947499D01*
X75685000Y-89780752D01*
X75685000Y-89780751D01*
X75690491Y-89725001D01*
X75685000Y-89669249D01*
X75685000Y-85455751D01*
X75690491Y-85399999D01*
X75668577Y-85177500D01*
X75649625Y-85115026D01*
X75603676Y-84963553D01*
X75498284Y-84766377D01*
X75356449Y-84593551D01*
X75313141Y-84558009D01*
X69688072Y-78932941D01*
X69688072Y-76200000D01*
X69675812Y-76075518D01*
X69639502Y-75955820D01*
X69580537Y-75845506D01*
X69501185Y-75748815D01*
X69404494Y-75669463D01*
X69294180Y-75610498D01*
X69174482Y-75574188D01*
X69050000Y-75561928D01*
X66250000Y-75561928D01*
X66125518Y-75574188D01*
X66005820Y-75610498D01*
X65895506Y-75669463D01*
X65798815Y-75748815D01*
X65719463Y-75845506D01*
X65660498Y-75955820D01*
X65624188Y-76075518D01*
X65611928Y-76200000D01*
X65611928Y-77765000D01*
X63638072Y-77765000D01*
X63638072Y-76550000D01*
X63621008Y-76376746D01*
X63570472Y-76210150D01*
X63488405Y-76056614D01*
X63377962Y-75922038D01*
X63243386Y-75811595D01*
X63089850Y-75729528D01*
X62923254Y-75678992D01*
X62750000Y-75661928D01*
X61650000Y-75661928D01*
X61476746Y-75678992D01*
X61444044Y-75688912D01*
X60391996Y-74636865D01*
X60356449Y-74593551D01*
X60183623Y-74451716D01*
X59986447Y-74346324D01*
X59772499Y-74281423D01*
X59605752Y-74265000D01*
X59605751Y-74265000D01*
X59550000Y-74259509D01*
X59494249Y-74265000D01*
X54907817Y-74265000D01*
X54779014Y-74159294D01*
X54521034Y-74021401D01*
X54241111Y-73936487D01*
X54022950Y-73915000D01*
X53577050Y-73915000D01*
X53358889Y-73936487D01*
X53078966Y-74021401D01*
X52820986Y-74159294D01*
X52594866Y-74344866D01*
X52409294Y-74570986D01*
X52271401Y-74828966D01*
X52186487Y-75108889D01*
X52157815Y-75400000D01*
X50960000Y-75400000D01*
X50960000Y-69443814D01*
X51154727Y-69913928D01*
X51481399Y-70402826D01*
X51897174Y-70818601D01*
X52386072Y-71145273D01*
X52929308Y-71370288D01*
X53506003Y-71485000D01*
X54093997Y-71485000D01*
X54670692Y-71370288D01*
X55213928Y-71145273D01*
X55702826Y-70818601D01*
X56118601Y-70402826D01*
X56445273Y-69913928D01*
X56670288Y-69370692D01*
X56785000Y-68793997D01*
X56785000Y-68206003D01*
X56670288Y-67629308D01*
X56445273Y-67086072D01*
X56118601Y-66597174D01*
X55702826Y-66181399D01*
X55213928Y-65854727D01*
X54670692Y-65629712D01*
X54093997Y-65515000D01*
X53506003Y-65515000D01*
X52929308Y-65629712D01*
X52386072Y-65854727D01*
X51897174Y-66181399D01*
X51481399Y-66597174D01*
X51154727Y-67086072D01*
X50960000Y-67556186D01*
X50960000Y-46443814D01*
X51154727Y-46913928D01*
X51481399Y-47402826D01*
X51897174Y-47818601D01*
X52386072Y-48145273D01*
X52929308Y-48370288D01*
X53506003Y-48485000D01*
X54093997Y-48485000D01*
X54670692Y-48370288D01*
X55213928Y-48145273D01*
X55702826Y-47818601D01*
X56118601Y-47402826D01*
X56445273Y-46913928D01*
X56670288Y-46370692D01*
X56785000Y-45793997D01*
X56785000Y-45206003D01*
X56670288Y-44629308D01*
X56445273Y-44086072D01*
X56118601Y-43597174D01*
X55702826Y-43181399D01*
X55213928Y-42854727D01*
X54743814Y-42660000D01*
X110856186Y-42660000D01*
X110386072Y-42854727D01*
G37*
%TD.AperFunction*%
D31*
X114640001Y-87484990D02*
X114594180Y-87460498D01*
X114474482Y-87424188D01*
X114350000Y-87411928D01*
X113300000Y-87411928D01*
X113175518Y-87424188D01*
X113055820Y-87460498D01*
X112945506Y-87519463D01*
X112848815Y-87598815D01*
X112835532Y-87615000D01*
X110664468Y-87615000D01*
X110651185Y-87598815D01*
X110554494Y-87519463D01*
X110444180Y-87460498D01*
X110324482Y-87424188D01*
X110200000Y-87411928D01*
X109786731Y-87411928D01*
X108410000Y-86035199D01*
X108410000Y-81757323D01*
X108413676Y-81720000D01*
X108410000Y-81682677D01*
X108410000Y-81682667D01*
X108399003Y-81571014D01*
X108355546Y-81427753D01*
X108284974Y-81295724D01*
X108190001Y-81179999D01*
X108161004Y-81156202D01*
X106741209Y-79736408D01*
X106785000Y-79516260D01*
X106785000Y-79223740D01*
X106727932Y-78936842D01*
X106633104Y-78707905D01*
X110466747Y-82541550D01*
X110461487Y-82558889D01*
X110432815Y-82850000D01*
X110461487Y-83141111D01*
X110546401Y-83421034D01*
X110684294Y-83679014D01*
X110869866Y-83905134D01*
X111095986Y-84090706D01*
X111353966Y-84228599D01*
X111633889Y-84313513D01*
X111852050Y-84335000D01*
X112247950Y-84335000D01*
X112466111Y-84313513D01*
X112746034Y-84228599D01*
X113004014Y-84090706D01*
X113230134Y-83905134D01*
X113415706Y-83679014D01*
X113553599Y-83421034D01*
X113638513Y-83141111D01*
X113667185Y-82850000D01*
X113638513Y-82558889D01*
X113553599Y-82278966D01*
X113415706Y-82020986D01*
X113230134Y-81794866D01*
X113004014Y-81609294D01*
X112986626Y-81600000D01*
X113004014Y-81590706D01*
X113230134Y-81405134D01*
X113415706Y-81179014D01*
X113553599Y-80921034D01*
X113638513Y-80641111D01*
X113667185Y-80350000D01*
X113638513Y-80058889D01*
X113553599Y-79778966D01*
X113415706Y-79520986D01*
X113230134Y-79294866D01*
X113004014Y-79109294D01*
X112986626Y-79100000D01*
X113004014Y-79090706D01*
X113230134Y-78905134D01*
X113415706Y-78679014D01*
X113553599Y-78421034D01*
X113638513Y-78141111D01*
X113667185Y-77850000D01*
X113638513Y-77558889D01*
X113553599Y-77278966D01*
X113415706Y-77020986D01*
X113230134Y-76794866D01*
X113004014Y-76609294D01*
X112746034Y-76471401D01*
X112466111Y-76386487D01*
X112247950Y-76365000D01*
X111852050Y-76365000D01*
X111658832Y-76384030D01*
X109260000Y-73985199D01*
X109260000Y-70071480D01*
X109481399Y-70402826D01*
X109897174Y-70818601D01*
X110386072Y-71145273D01*
X110929308Y-71370288D01*
X111506003Y-71485000D01*
X112093997Y-71485000D01*
X112670692Y-71370288D01*
X113213928Y-71145273D01*
X113702826Y-70818601D01*
X114118601Y-70402826D01*
X114445273Y-69913928D01*
X114640000Y-69443814D01*
X114640001Y-87484990D01*
%TA.AperFunction,Conductor*%
D32*
G36*
X114640001Y-87484990D02*
G01*
X114594180Y-87460498D01*
X114474482Y-87424188D01*
X114350000Y-87411928D01*
X113300000Y-87411928D01*
X113175518Y-87424188D01*
X113055820Y-87460498D01*
X112945506Y-87519463D01*
X112848815Y-87598815D01*
X112835532Y-87615000D01*
X110664468Y-87615000D01*
X110651185Y-87598815D01*
X110554494Y-87519463D01*
X110444180Y-87460498D01*
X110324482Y-87424188D01*
X110200000Y-87411928D01*
X109786731Y-87411928D01*
X108410000Y-86035199D01*
X108410000Y-81757323D01*
X108413676Y-81720000D01*
X108410000Y-81682677D01*
X108410000Y-81682667D01*
X108399003Y-81571014D01*
X108355546Y-81427753D01*
X108284974Y-81295724D01*
X108190001Y-81179999D01*
X108161004Y-81156202D01*
X106741209Y-79736408D01*
X106785000Y-79516260D01*
X106785000Y-79223740D01*
X106727932Y-78936842D01*
X106633104Y-78707905D01*
X110466747Y-82541550D01*
X110461487Y-82558889D01*
X110432815Y-82850000D01*
X110461487Y-83141111D01*
X110546401Y-83421034D01*
X110684294Y-83679014D01*
X110869866Y-83905134D01*
X111095986Y-84090706D01*
X111353966Y-84228599D01*
X111633889Y-84313513D01*
X111852050Y-84335000D01*
X112247950Y-84335000D01*
X112466111Y-84313513D01*
X112746034Y-84228599D01*
X113004014Y-84090706D01*
X113230134Y-83905134D01*
X113415706Y-83679014D01*
X113553599Y-83421034D01*
X113638513Y-83141111D01*
X113667185Y-82850000D01*
X113638513Y-82558889D01*
X113553599Y-82278966D01*
X113415706Y-82020986D01*
X113230134Y-81794866D01*
X113004014Y-81609294D01*
X112986626Y-81600000D01*
X113004014Y-81590706D01*
X113230134Y-81405134D01*
X113415706Y-81179014D01*
X113553599Y-80921034D01*
X113638513Y-80641111D01*
X113667185Y-80350000D01*
X113638513Y-80058889D01*
X113553599Y-79778966D01*
X113415706Y-79520986D01*
X113230134Y-79294866D01*
X113004014Y-79109294D01*
X112986626Y-79100000D01*
X113004014Y-79090706D01*
X113230134Y-78905134D01*
X113415706Y-78679014D01*
X113553599Y-78421034D01*
X113638513Y-78141111D01*
X113667185Y-77850000D01*
X113638513Y-77558889D01*
X113553599Y-77278966D01*
X113415706Y-77020986D01*
X113230134Y-76794866D01*
X113004014Y-76609294D01*
X112746034Y-76471401D01*
X112466111Y-76386487D01*
X112247950Y-76365000D01*
X111852050Y-76365000D01*
X111658832Y-76384030D01*
X109260000Y-73985199D01*
X109260000Y-70071480D01*
X109481399Y-70402826D01*
X109897174Y-70818601D01*
X110386072Y-71145273D01*
X110929308Y-71370288D01*
X111506003Y-71485000D01*
X112093997Y-71485000D01*
X112670692Y-71370288D01*
X113213928Y-71145273D01*
X113702826Y-70818601D01*
X114118601Y-70402826D01*
X114445273Y-69913928D01*
X114640000Y-69443814D01*
X114640001Y-87484990D01*
G37*
%TD.AperFunction*%
D31*
X91395506Y-85005537D02*
X91505820Y-85064502D01*
X91625518Y-85100812D01*
X91750000Y-85113072D01*
X92200000Y-85113072D01*
X92300000Y-85103223D01*
X92400000Y-85113072D01*
X92850000Y-85113072D01*
X92950000Y-85103223D01*
X93050000Y-85113072D01*
X93140000Y-85113072D01*
X93140001Y-86190000D01*
X88210000Y-86190000D01*
X88210000Y-85113072D01*
X88300000Y-85113072D01*
X88400000Y-85103223D01*
X88500000Y-85113072D01*
X88950000Y-85113072D01*
X89050000Y-85103223D01*
X89150000Y-85113072D01*
X89600000Y-85113072D01*
X89700000Y-85103223D01*
X89800000Y-85113072D01*
X90250000Y-85113072D01*
X90350000Y-85103223D01*
X90450000Y-85113072D01*
X90900000Y-85113072D01*
X91024482Y-85100812D01*
X91144180Y-85064502D01*
X91254494Y-85005537D01*
X91325000Y-84947674D01*
X91395506Y-85005537D01*
%TA.AperFunction,Conductor*%
D32*
G36*
X91395506Y-85005537D02*
G01*
X91505820Y-85064502D01*
X91625518Y-85100812D01*
X91750000Y-85113072D01*
X92200000Y-85113072D01*
X92300000Y-85103223D01*
X92400000Y-85113072D01*
X92850000Y-85113072D01*
X92950000Y-85103223D01*
X93050000Y-85113072D01*
X93140000Y-85113072D01*
X93140001Y-86190000D01*
X88210000Y-86190000D01*
X88210000Y-85113072D01*
X88300000Y-85113072D01*
X88400000Y-85103223D01*
X88500000Y-85113072D01*
X88950000Y-85113072D01*
X89050000Y-85103223D01*
X89150000Y-85113072D01*
X89600000Y-85113072D01*
X89700000Y-85103223D01*
X89800000Y-85113072D01*
X90250000Y-85113072D01*
X90350000Y-85103223D01*
X90450000Y-85113072D01*
X90900000Y-85113072D01*
X91024482Y-85100812D01*
X91144180Y-85064502D01*
X91254494Y-85005537D01*
X91325000Y-84947674D01*
X91395506Y-85005537D01*
G37*
%TD.AperFunction*%
D31*
X103290001Y-78464803D02*
X103290000Y-79890000D01*
X99814802Y-79890000D01*
X86113804Y-66189003D01*
X86090001Y-66159999D01*
X85974276Y-66065026D01*
X85871331Y-66010000D01*
X90835199Y-66010000D01*
X103290001Y-78464803D01*
%TA.AperFunction,Conductor*%
D32*
G36*
X103290001Y-78464803D02*
G01*
X103290000Y-79890000D01*
X99814802Y-79890000D01*
X86113804Y-66189003D01*
X86090001Y-66159999D01*
X85974276Y-66065026D01*
X85871331Y-66010000D01*
X90835199Y-66010000D01*
X103290001Y-78464803D01*
G37*
%TD.AperFunction*%
D31*
X90219499Y-77794301D02*
X90095819Y-77756782D01*
X89945000Y-77741928D01*
X89675000Y-77741928D01*
X89524181Y-77756782D01*
X89379158Y-77800775D01*
X89300000Y-77843086D01*
X89220842Y-77800775D01*
X89075819Y-77756782D01*
X88925000Y-77741928D01*
X88655000Y-77741928D01*
X88504181Y-77756782D01*
X88486843Y-77762041D01*
X88248072Y-77523271D01*
X88248072Y-77327500D01*
X88232977Y-77174243D01*
X88188274Y-77026875D01*
X88179254Y-77010000D01*
X89435199Y-77010000D01*
X90219499Y-77794301D01*
%TA.AperFunction,Conductor*%
D32*
G36*
X90219499Y-77794301D02*
G01*
X90095819Y-77756782D01*
X89945000Y-77741928D01*
X89675000Y-77741928D01*
X89524181Y-77756782D01*
X89379158Y-77800775D01*
X89300000Y-77843086D01*
X89220842Y-77800775D01*
X89075819Y-77756782D01*
X88925000Y-77741928D01*
X88655000Y-77741928D01*
X88504181Y-77756782D01*
X88486843Y-77762041D01*
X88248072Y-77523271D01*
X88248072Y-77327500D01*
X88232977Y-77174243D01*
X88188274Y-77026875D01*
X88179254Y-77010000D01*
X89435199Y-77010000D01*
X90219499Y-77794301D01*
G37*
%TD.AperFunction*%
D31*
X80350518Y-59625812D02*
X80475000Y-59638072D01*
X80821060Y-59638072D01*
X80754773Y-59798103D01*
X80714999Y-59998062D01*
X80714999Y-60201940D01*
X80754773Y-60401899D01*
X80832794Y-60590257D01*
X80946062Y-60759775D01*
X81090225Y-60903938D01*
X81259743Y-61017206D01*
X81448101Y-61095227D01*
X81648060Y-61135001D01*
X81710198Y-61135001D01*
X82336199Y-61761003D01*
X82359997Y-61790001D01*
X82470326Y-61880546D01*
X82548815Y-61976185D01*
X82638759Y-62050000D01*
X82548815Y-62123815D01*
X82469463Y-62220506D01*
X82410498Y-62330820D01*
X82374188Y-62450518D01*
X82361928Y-62575000D01*
X82361928Y-62890000D01*
X81503713Y-62890000D01*
X81459774Y-62846061D01*
X81290256Y-62732793D01*
X81101898Y-62654772D01*
X80901939Y-62614998D01*
X80698061Y-62614998D01*
X80498102Y-62654772D01*
X80309744Y-62732793D01*
X80140226Y-62846061D01*
X79996063Y-62990224D01*
X79882795Y-63159742D01*
X79804774Y-63348100D01*
X79765000Y-63548059D01*
X79765000Y-63690000D01*
X79010004Y-63690000D01*
X79010004Y-62837327D01*
X79013680Y-62800004D01*
X79010004Y-62762681D01*
X79010004Y-62762671D01*
X78999007Y-62651018D01*
X78955550Y-62507757D01*
X78884978Y-62375728D01*
X78790005Y-62260003D01*
X78761006Y-62236205D01*
X78063803Y-61539002D01*
X78040001Y-61509999D01*
X77924276Y-61415026D01*
X77792247Y-61344454D01*
X77648986Y-61300997D01*
X77537333Y-61290000D01*
X77537322Y-61290000D01*
X77500000Y-61286324D01*
X77462678Y-61290000D01*
X76509981Y-61290000D01*
X76461241Y-61250000D01*
X76551185Y-61176185D01*
X76630537Y-61079494D01*
X76689502Y-60969180D01*
X76725812Y-60849482D01*
X76738072Y-60725000D01*
X76738072Y-60175000D01*
X76725812Y-60050518D01*
X76725655Y-60050000D01*
X76725812Y-60049482D01*
X76738072Y-59925000D01*
X76738072Y-59638072D01*
X77025000Y-59638072D01*
X77149482Y-59625812D01*
X77150000Y-59625655D01*
X77150518Y-59625812D01*
X77275000Y-59638072D01*
X77825000Y-59638072D01*
X77949482Y-59625812D01*
X77950000Y-59625655D01*
X77950518Y-59625812D01*
X78075000Y-59638072D01*
X78625000Y-59638072D01*
X78749482Y-59625812D01*
X78750000Y-59625655D01*
X78750518Y-59625812D01*
X78875000Y-59638072D01*
X79425000Y-59638072D01*
X79549482Y-59625812D01*
X79550000Y-59625655D01*
X79550518Y-59625812D01*
X79675000Y-59638072D01*
X80225000Y-59638072D01*
X80349482Y-59625812D01*
X80350000Y-59625655D01*
X80350518Y-59625812D01*
%TA.AperFunction,Conductor*%
D32*
G36*
X80350518Y-59625812D02*
G01*
X80475000Y-59638072D01*
X80821060Y-59638072D01*
X80754773Y-59798103D01*
X80714999Y-59998062D01*
X80714999Y-60201940D01*
X80754773Y-60401899D01*
X80832794Y-60590257D01*
X80946062Y-60759775D01*
X81090225Y-60903938D01*
X81259743Y-61017206D01*
X81448101Y-61095227D01*
X81648060Y-61135001D01*
X81710198Y-61135001D01*
X82336199Y-61761003D01*
X82359997Y-61790001D01*
X82470326Y-61880546D01*
X82548815Y-61976185D01*
X82638759Y-62050000D01*
X82548815Y-62123815D01*
X82469463Y-62220506D01*
X82410498Y-62330820D01*
X82374188Y-62450518D01*
X82361928Y-62575000D01*
X82361928Y-62890000D01*
X81503713Y-62890000D01*
X81459774Y-62846061D01*
X81290256Y-62732793D01*
X81101898Y-62654772D01*
X80901939Y-62614998D01*
X80698061Y-62614998D01*
X80498102Y-62654772D01*
X80309744Y-62732793D01*
X80140226Y-62846061D01*
X79996063Y-62990224D01*
X79882795Y-63159742D01*
X79804774Y-63348100D01*
X79765000Y-63548059D01*
X79765000Y-63690000D01*
X79010004Y-63690000D01*
X79010004Y-62837327D01*
X79013680Y-62800004D01*
X79010004Y-62762681D01*
X79010004Y-62762671D01*
X78999007Y-62651018D01*
X78955550Y-62507757D01*
X78884978Y-62375728D01*
X78790005Y-62260003D01*
X78761006Y-62236205D01*
X78063803Y-61539002D01*
X78040001Y-61509999D01*
X77924276Y-61415026D01*
X77792247Y-61344454D01*
X77648986Y-61300997D01*
X77537333Y-61290000D01*
X77537322Y-61290000D01*
X77500000Y-61286324D01*
X77462678Y-61290000D01*
X76509981Y-61290000D01*
X76461241Y-61250000D01*
X76551185Y-61176185D01*
X76630537Y-61079494D01*
X76689502Y-60969180D01*
X76725812Y-60849482D01*
X76738072Y-60725000D01*
X76738072Y-60175000D01*
X76725812Y-60050518D01*
X76725655Y-60050000D01*
X76725812Y-60049482D01*
X76738072Y-59925000D01*
X76738072Y-59638072D01*
X77025000Y-59638072D01*
X77149482Y-59625812D01*
X77150000Y-59625655D01*
X77150518Y-59625812D01*
X77275000Y-59638072D01*
X77825000Y-59638072D01*
X77949482Y-59625812D01*
X77950000Y-59625655D01*
X77950518Y-59625812D01*
X78075000Y-59638072D01*
X78625000Y-59638072D01*
X78749482Y-59625812D01*
X78750000Y-59625655D01*
X78750518Y-59625812D01*
X78875000Y-59638072D01*
X79425000Y-59638072D01*
X79549482Y-59625812D01*
X79550000Y-59625655D01*
X79550518Y-59625812D01*
X79675000Y-59638072D01*
X80225000Y-59638072D01*
X80349482Y-59625812D01*
X80350000Y-59625655D01*
X80350518Y-59625812D01*
G37*
%TD.AperFunction*%
D31*
X83596063Y-53440226D02*
X83482795Y-53609744D01*
X83404774Y-53798102D01*
X83365000Y-53998061D01*
X83365000Y-54201939D01*
X83404774Y-54401898D01*
X83482795Y-54590256D01*
X83596063Y-54759774D01*
X83740226Y-54903937D01*
X83909744Y-55017205D01*
X84098102Y-55095226D01*
X84298061Y-55135000D01*
X84501939Y-55135000D01*
X84701898Y-55095226D01*
X84890256Y-55017205D01*
X85059774Y-54903937D01*
X85103711Y-54860000D01*
X86185199Y-54860000D01*
X95015198Y-63690000D01*
X87363947Y-63690000D01*
X87367755Y-63688845D01*
X87502274Y-63616943D01*
X87620180Y-63520180D01*
X87716943Y-63402274D01*
X87788845Y-63267755D01*
X87833122Y-63121794D01*
X87848072Y-62970000D01*
X87848072Y-62690000D01*
X87833122Y-62538206D01*
X87788845Y-62392245D01*
X87716943Y-62257726D01*
X87620180Y-62139820D01*
X87502274Y-62043057D01*
X87367755Y-61971155D01*
X87221794Y-61926878D01*
X87070000Y-61911928D01*
X86730000Y-61911928D01*
X86578206Y-61926878D01*
X86432245Y-61971155D01*
X86415843Y-61979922D01*
X85046631Y-61979922D01*
X85051185Y-61976185D01*
X85130537Y-61879494D01*
X85189502Y-61769180D01*
X85225812Y-61649482D01*
X85238072Y-61525000D01*
X85238072Y-61420357D01*
X85298110Y-61445226D01*
X85498069Y-61485000D01*
X85701947Y-61485000D01*
X85901906Y-61445226D01*
X86090264Y-61367205D01*
X86259782Y-61253937D01*
X86403945Y-61109774D01*
X86517213Y-60940256D01*
X86595234Y-60751898D01*
X86635008Y-60551939D01*
X86635008Y-60410000D01*
X86746289Y-60410000D01*
X86840226Y-60503937D01*
X87009744Y-60617205D01*
X87198102Y-60695226D01*
X87398061Y-60735000D01*
X87601939Y-60735000D01*
X87801898Y-60695226D01*
X87990256Y-60617205D01*
X88159774Y-60503937D01*
X88303937Y-60359774D01*
X88417205Y-60190256D01*
X88495226Y-60001898D01*
X88535000Y-59801939D01*
X88535000Y-59598061D01*
X88495226Y-59398102D01*
X88417205Y-59209744D01*
X88303937Y-59040226D01*
X88159774Y-58896063D01*
X87990256Y-58782795D01*
X87801898Y-58704774D01*
X87601939Y-58665000D01*
X87398061Y-58665000D01*
X87198102Y-58704774D01*
X87009744Y-58782795D01*
X86849300Y-58890000D01*
X86823711Y-58890000D01*
X86928937Y-58784774D01*
X87042205Y-58615256D01*
X87120226Y-58426898D01*
X87160000Y-58226939D01*
X87160000Y-58023061D01*
X87120226Y-57823102D01*
X87042205Y-57634744D01*
X86928937Y-57465226D01*
X86784774Y-57321063D01*
X86615256Y-57207795D01*
X86426898Y-57129774D01*
X86226939Y-57090000D01*
X86164802Y-57090000D01*
X85638803Y-56564001D01*
X85615000Y-56534998D01*
X85499275Y-56440025D01*
X85367246Y-56369453D01*
X85223985Y-56325996D01*
X85112332Y-56314999D01*
X85112321Y-56314999D01*
X85074999Y-56311323D01*
X85037677Y-56314999D01*
X81909802Y-56314999D01*
X82861003Y-55363799D01*
X82890001Y-55340001D01*
X82984974Y-55224276D01*
X83055546Y-55092247D01*
X83099003Y-54948986D01*
X83110000Y-54837333D01*
X83110000Y-54837325D01*
X83113676Y-54800000D01*
X83110000Y-54762675D01*
X83110000Y-53310000D01*
X83726289Y-53310000D01*
X83596063Y-53440226D01*
%TA.AperFunction,Conductor*%
D32*
G36*
X83596063Y-53440226D02*
G01*
X83482795Y-53609744D01*
X83404774Y-53798102D01*
X83365000Y-53998061D01*
X83365000Y-54201939D01*
X83404774Y-54401898D01*
X83482795Y-54590256D01*
X83596063Y-54759774D01*
X83740226Y-54903937D01*
X83909744Y-55017205D01*
X84098102Y-55095226D01*
X84298061Y-55135000D01*
X84501939Y-55135000D01*
X84701898Y-55095226D01*
X84890256Y-55017205D01*
X85059774Y-54903937D01*
X85103711Y-54860000D01*
X86185199Y-54860000D01*
X95015198Y-63690000D01*
X87363947Y-63690000D01*
X87367755Y-63688845D01*
X87502274Y-63616943D01*
X87620180Y-63520180D01*
X87716943Y-63402274D01*
X87788845Y-63267755D01*
X87833122Y-63121794D01*
X87848072Y-62970000D01*
X87848072Y-62690000D01*
X87833122Y-62538206D01*
X87788845Y-62392245D01*
X87716943Y-62257726D01*
X87620180Y-62139820D01*
X87502274Y-62043057D01*
X87367755Y-61971155D01*
X87221794Y-61926878D01*
X87070000Y-61911928D01*
X86730000Y-61911928D01*
X86578206Y-61926878D01*
X86432245Y-61971155D01*
X86415843Y-61979922D01*
X85046631Y-61979922D01*
X85051185Y-61976185D01*
X85130537Y-61879494D01*
X85189502Y-61769180D01*
X85225812Y-61649482D01*
X85238072Y-61525000D01*
X85238072Y-61420357D01*
X85298110Y-61445226D01*
X85498069Y-61485000D01*
X85701947Y-61485000D01*
X85901906Y-61445226D01*
X86090264Y-61367205D01*
X86259782Y-61253937D01*
X86403945Y-61109774D01*
X86517213Y-60940256D01*
X86595234Y-60751898D01*
X86635008Y-60551939D01*
X86635008Y-60410000D01*
X86746289Y-60410000D01*
X86840226Y-60503937D01*
X87009744Y-60617205D01*
X87198102Y-60695226D01*
X87398061Y-60735000D01*
X87601939Y-60735000D01*
X87801898Y-60695226D01*
X87990256Y-60617205D01*
X88159774Y-60503937D01*
X88303937Y-60359774D01*
X88417205Y-60190256D01*
X88495226Y-60001898D01*
X88535000Y-59801939D01*
X88535000Y-59598061D01*
X88495226Y-59398102D01*
X88417205Y-59209744D01*
X88303937Y-59040226D01*
X88159774Y-58896063D01*
X87990256Y-58782795D01*
X87801898Y-58704774D01*
X87601939Y-58665000D01*
X87398061Y-58665000D01*
X87198102Y-58704774D01*
X87009744Y-58782795D01*
X86849300Y-58890000D01*
X86823711Y-58890000D01*
X86928937Y-58784774D01*
X87042205Y-58615256D01*
X87120226Y-58426898D01*
X87160000Y-58226939D01*
X87160000Y-58023061D01*
X87120226Y-57823102D01*
X87042205Y-57634744D01*
X86928937Y-57465226D01*
X86784774Y-57321063D01*
X86615256Y-57207795D01*
X86426898Y-57129774D01*
X86226939Y-57090000D01*
X86164802Y-57090000D01*
X85638803Y-56564001D01*
X85615000Y-56534998D01*
X85499275Y-56440025D01*
X85367246Y-56369453D01*
X85223985Y-56325996D01*
X85112332Y-56314999D01*
X85112321Y-56314999D01*
X85074999Y-56311323D01*
X85037677Y-56314999D01*
X81909802Y-56314999D01*
X82861003Y-55363799D01*
X82890001Y-55340001D01*
X82984974Y-55224276D01*
X83055546Y-55092247D01*
X83099003Y-54948986D01*
X83110000Y-54837333D01*
X83110000Y-54837325D01*
X83113676Y-54800000D01*
X83110000Y-54762675D01*
X83110000Y-53310000D01*
X83726289Y-53310000D01*
X83596063Y-53440226D01*
G37*
%TD.AperFunction*%
D31*
X77240378Y-62865179D02*
X77238561Y-62865000D01*
X76479518Y-62865000D01*
X76461241Y-62850000D01*
X76509981Y-62810000D01*
X77185199Y-62810000D01*
X77240378Y-62865179D01*
%TA.AperFunction,Conductor*%
D32*
G36*
X77240378Y-62865179D02*
G01*
X77238561Y-62865000D01*
X76479518Y-62865000D01*
X76461241Y-62850000D01*
X76509981Y-62810000D01*
X77185199Y-62810000D01*
X77240378Y-62865179D01*
G37*
%TD.AperFunction*%
D31*
X69915000Y-46653740D02*
X69915000Y-46946260D01*
X69972068Y-47233158D01*
X70084010Y-47503411D01*
X70246525Y-47746632D01*
X70453368Y-47953475D01*
X70696589Y-48115990D01*
X70966842Y-48227932D01*
X71253740Y-48285000D01*
X71274525Y-48285000D01*
X71210149Y-48304528D01*
X71056613Y-48386595D01*
X70922038Y-48497038D01*
X70811595Y-48631613D01*
X70729528Y-48785149D01*
X70678992Y-48951745D01*
X70661928Y-49124999D01*
X70661928Y-49272952D01*
X70550000Y-49261928D01*
X69650000Y-49261928D01*
X69525518Y-49274188D01*
X69405820Y-49310498D01*
X69295506Y-49369463D01*
X69198815Y-49448815D01*
X69188072Y-49461905D01*
X69188072Y-48950000D01*
X69175812Y-48825518D01*
X69139502Y-48705820D01*
X69080537Y-48595506D01*
X69001185Y-48498815D01*
X68904494Y-48419463D01*
X68794180Y-48360498D01*
X68674482Y-48324188D01*
X68550000Y-48311928D01*
X67650000Y-48311928D01*
X67525518Y-48324188D01*
X67405820Y-48360498D01*
X67295506Y-48419463D01*
X67264471Y-48444932D01*
X67193387Y-48386595D01*
X67039851Y-48304528D01*
X66873255Y-48253992D01*
X66705306Y-48237450D01*
X66753158Y-48227932D01*
X67023411Y-48115990D01*
X67266632Y-47953475D01*
X67473475Y-47746632D01*
X67635990Y-47503411D01*
X67747932Y-47233158D01*
X67805000Y-46946260D01*
X67805000Y-46653740D01*
X67751544Y-46384999D01*
X69968456Y-46384999D01*
X69915000Y-46653740D01*
%TA.AperFunction,Conductor*%
D32*
G36*
X69915000Y-46653740D02*
G01*
X69915000Y-46946260D01*
X69972068Y-47233158D01*
X70084010Y-47503411D01*
X70246525Y-47746632D01*
X70453368Y-47953475D01*
X70696589Y-48115990D01*
X70966842Y-48227932D01*
X71253740Y-48285000D01*
X71274525Y-48285000D01*
X71210149Y-48304528D01*
X71056613Y-48386595D01*
X70922038Y-48497038D01*
X70811595Y-48631613D01*
X70729528Y-48785149D01*
X70678992Y-48951745D01*
X70661928Y-49124999D01*
X70661928Y-49272952D01*
X70550000Y-49261928D01*
X69650000Y-49261928D01*
X69525518Y-49274188D01*
X69405820Y-49310498D01*
X69295506Y-49369463D01*
X69198815Y-49448815D01*
X69188072Y-49461905D01*
X69188072Y-48950000D01*
X69175812Y-48825518D01*
X69139502Y-48705820D01*
X69080537Y-48595506D01*
X69001185Y-48498815D01*
X68904494Y-48419463D01*
X68794180Y-48360498D01*
X68674482Y-48324188D01*
X68550000Y-48311928D01*
X67650000Y-48311928D01*
X67525518Y-48324188D01*
X67405820Y-48360498D01*
X67295506Y-48419463D01*
X67264471Y-48444932D01*
X67193387Y-48386595D01*
X67039851Y-48304528D01*
X66873255Y-48253992D01*
X66705306Y-48237450D01*
X66753158Y-48227932D01*
X67023411Y-48115990D01*
X67266632Y-47953475D01*
X67473475Y-47746632D01*
X67635990Y-47503411D01*
X67747932Y-47233158D01*
X67805000Y-46946260D01*
X67805000Y-46653740D01*
X67751544Y-46384999D01*
X69968456Y-46384999D01*
X69915000Y-46653740D01*
G37*
%TD.AperFunction*%
%TD*%
M02*
