%TF.GenerationSoftware,KiCad,Pcbnew,5.1.10*%
%TF.CreationDate,2021-11-07T20:18:02+05:45*%
%TF.ProjectId,RobotHat,526f626f-7448-4617-942e-6b696361645f,rev?*%
%TF.SameCoordinates,Original*%
%TF.FileFunction,Copper,L2,Bot*%
%TF.FilePolarity,Positive*%
%FSLAX46Y46*%
G04 Gerber Fmt 4.6, Leading zero omitted, Abs format (unit mm)*
G04 Created by KiCad (PCBNEW 5.1.10) date 2021-11-07 20:18:02*
%MOMM*%
%LPD*%
G01*
G04 APERTURE LIST*
%TA.AperFunction,ComponentPad*%
%ADD10C,1.500000*%
%TD*%
%TA.AperFunction,ComponentPad*%
%ADD11O,1.950000X1.700000*%
%TD*%
%TA.AperFunction,ComponentPad*%
%ADD12O,1.700000X1.700000*%
%TD*%
%TA.AperFunction,ComponentPad*%
%ADD13R,1.700000X1.700000*%
%TD*%
%TA.AperFunction,ComponentPad*%
%ADD14C,4.700000*%
%TD*%
%TA.AperFunction,ComponentPad*%
%ADD15O,2.000000X1.700000*%
%TD*%
%TA.AperFunction,ComponentPad*%
%ADD16O,1.700000X2.000000*%
%TD*%
%TA.AperFunction,ComponentPad*%
%ADD17O,1.700000X1.950000*%
%TD*%
%TA.AperFunction,ViaPad*%
%ADD18C,0.800000*%
%TD*%
%TA.AperFunction,Conductor*%
%ADD19C,1.000000*%
%TD*%
%TA.AperFunction,Conductor*%
%ADD20C,0.250000*%
%TD*%
%TA.AperFunction,Conductor*%
%ADD21C,0.300000*%
%TD*%
%TA.AperFunction,Conductor*%
%ADD22C,0.254000*%
%TD*%
%TA.AperFunction,Conductor*%
%ADD23C,0.100000*%
%TD*%
G04 APERTURE END LIST*
D10*
%TO.P,Y1,2*%
%TO.N,XTAL2*%
X69300000Y-67480000D03*
%TO.P,Y1,1*%
%TO.N,XTAL1*%
X69300000Y-62600000D03*
%TD*%
D11*
%TO.P,J5,4*%
%TO.N,SCL*%
X112050000Y-82850000D03*
%TO.P,J5,3*%
%TO.N,SDA*%
X112050000Y-80350000D03*
%TO.P,J5,2*%
%TO.N,+5V*%
X112050000Y-77850000D03*
%TO.P,J5,1*%
%TO.N,GND*%
%TA.AperFunction,ComponentPad*%
G36*
G01*
X111325000Y-74500000D02*
X112775000Y-74500000D01*
G75*
G02*
X113025000Y-74750000I0J-250000D01*
G01*
X113025000Y-75950000D01*
G75*
G02*
X112775000Y-76200000I-250000J0D01*
G01*
X111325000Y-76200000D01*
G75*
G02*
X111075000Y-75950000I0J250000D01*
G01*
X111075000Y-74750000D01*
G75*
G02*
X111325000Y-74500000I250000J0D01*
G01*
G37*
%TD.AperFunction*%
%TD*%
D12*
%TO.P,J12,10*%
%TO.N,N/C*%
X113060000Y-60460000D03*
%TO.P,J12,9*%
%TO.N,RPI_MISO*%
X113060000Y-63000000D03*
%TO.P,J12,8*%
%TO.N,TFT_LED*%
X110520000Y-60460000D03*
%TO.P,J12,7*%
%TO.N,RPI_SCLK*%
X110520000Y-63000000D03*
%TO.P,J12,6*%
%TO.N,RPI_MOSI*%
X107980000Y-60460000D03*
%TO.P,J12,5*%
%TO.N,TFT_DCRS*%
X107980000Y-63000000D03*
%TO.P,J12,4*%
%TO.N,TFT_RESET*%
X105440000Y-60460000D03*
%TO.P,J12,3*%
%TO.N,TFT_CS*%
X105440000Y-63000000D03*
%TO.P,J12,2*%
%TO.N,GND*%
X102900000Y-60460000D03*
D13*
%TO.P,J12,1*%
%TO.N,+3V3*%
X102900000Y-63000000D03*
%TD*%
D12*
%TO.P,J3,6*%
%TO.N,GND*%
X102760000Y-79370000D03*
%TO.P,J3,5*%
%TO.N,RESET*%
X105300000Y-79370000D03*
%TO.P,J3,4*%
%TO.N,MOSI*%
X102760000Y-81910000D03*
%TO.P,J3,3*%
%TO.N,SCK*%
X105300000Y-81910000D03*
%TO.P,J3,2*%
%TO.N,+5V*%
X102760000Y-84450000D03*
D13*
%TO.P,J3,1*%
%TO.N,MISO*%
X105300000Y-84450000D03*
%TD*%
D12*
%TO.P,J4,6*%
%TO.N,DTR*%
X60850000Y-50750000D03*
%TO.P,J4,5*%
%TO.N,TXO*%
X60850000Y-53290000D03*
%TO.P,J4,4*%
%TO.N,RXI*%
X60850000Y-55830000D03*
%TO.P,J4,3*%
%TO.N,+5V*%
X60850000Y-58370000D03*
%TO.P,J4,2*%
%TO.N,GND*%
X60850000Y-60910000D03*
D13*
%TO.P,J4,1*%
X60850000Y-63450000D03*
%TD*%
D14*
%TO.P,H6,1*%
%TO.N,N/C*%
X111800000Y-94500000D03*
%TD*%
%TO.P,H5,1*%
%TO.N,N/C*%
X53800000Y-94500000D03*
%TD*%
D12*
%TO.P,J10,6*%
%TO.N,A7*%
X104765000Y-50870000D03*
%TO.P,J10,5*%
%TO.N,A6*%
X102225000Y-50870000D03*
%TO.P,J10,4*%
%TO.N,A3*%
X104765000Y-53410000D03*
%TO.P,J10,3*%
%TO.N,A2*%
X102225000Y-53410000D03*
%TO.P,J10,2*%
%TO.N,A1*%
X104765000Y-55950000D03*
D13*
%TO.P,J10,1*%
%TO.N,A0*%
X102225000Y-55950000D03*
%TD*%
D15*
%TO.P,J2,2*%
%TO.N,+5V*%
X53800000Y-75400000D03*
%TO.P,J2,1*%
%TO.N,GND*%
%TA.AperFunction,ComponentPad*%
G36*
G01*
X54550000Y-78750000D02*
X53050000Y-78750000D01*
G75*
G02*
X52800000Y-78500000I0J250000D01*
G01*
X52800000Y-77300000D01*
G75*
G02*
X53050000Y-77050000I250000J0D01*
G01*
X54550000Y-77050000D01*
G75*
G02*
X54800000Y-77300000I0J-250000D01*
G01*
X54800000Y-78500000D01*
G75*
G02*
X54550000Y-78750000I-250000J0D01*
G01*
G37*
%TD.AperFunction*%
%TD*%
D14*
%TO.P,H4,1*%
%TO.N,N/C*%
X111800000Y-68500000D03*
%TD*%
%TO.P,H3,1*%
%TO.N,N/C*%
X111800000Y-45500000D03*
%TD*%
%TO.P,H2,1*%
%TO.N,N/C*%
X53800000Y-68500000D03*
%TD*%
%TO.P,H1,1*%
%TO.N,N/C*%
X53800000Y-45500000D03*
%TD*%
D16*
%TO.P,J9,2*%
%TO.N,MOTORB2*%
X108350000Y-101750000D03*
%TO.P,J9,1*%
%TO.N,MOTORB1*%
%TA.AperFunction,ComponentPad*%
G36*
G01*
X111700000Y-101000000D02*
X111700000Y-102500000D01*
G75*
G02*
X111450000Y-102750000I-250000J0D01*
G01*
X110250000Y-102750000D01*
G75*
G02*
X110000000Y-102500000I0J250000D01*
G01*
X110000000Y-101000000D01*
G75*
G02*
X110250000Y-100750000I250000J0D01*
G01*
X111450000Y-100750000D01*
G75*
G02*
X111700000Y-101000000I0J-250000D01*
G01*
G37*
%TD.AperFunction*%
%TD*%
%TO.P,J8,2*%
%TO.N,MOTORA1*%
X77700000Y-101750000D03*
%TO.P,J8,1*%
%TO.N,MOTORA2*%
%TA.AperFunction,ComponentPad*%
G36*
G01*
X81050000Y-101000000D02*
X81050000Y-102500000D01*
G75*
G02*
X80800000Y-102750000I-250000J0D01*
G01*
X79600000Y-102750000D01*
G75*
G02*
X79350000Y-102500000I0J250000D01*
G01*
X79350000Y-101000000D01*
G75*
G02*
X79600000Y-100750000I250000J0D01*
G01*
X80800000Y-100750000D01*
G75*
G02*
X81050000Y-101000000I0J-250000D01*
G01*
G37*
%TD.AperFunction*%
%TD*%
D17*
%TO.P,J7,3*%
%TO.N,D3*%
X97300000Y-101750000D03*
%TO.P,J7,2*%
%TO.N,+5V*%
X99800000Y-101750000D03*
%TO.P,J7,1*%
%TO.N,GND*%
%TA.AperFunction,ComponentPad*%
G36*
G01*
X103150000Y-101025000D02*
X103150000Y-102475000D01*
G75*
G02*
X102900000Y-102725000I-250000J0D01*
G01*
X101700000Y-102725000D01*
G75*
G02*
X101450000Y-102475000I0J250000D01*
G01*
X101450000Y-101025000D01*
G75*
G02*
X101700000Y-100775000I250000J0D01*
G01*
X102900000Y-100775000D01*
G75*
G02*
X103150000Y-101025000I0J-250000D01*
G01*
G37*
%TD.AperFunction*%
%TD*%
%TO.P,J6,3*%
%TO.N,D2*%
X86250000Y-101750000D03*
%TO.P,J6,2*%
%TO.N,+5V*%
X88750000Y-101750000D03*
%TO.P,J6,1*%
%TO.N,GND*%
%TA.AperFunction,ComponentPad*%
G36*
G01*
X92100000Y-101025000D02*
X92100000Y-102475000D01*
G75*
G02*
X91850000Y-102725000I-250000J0D01*
G01*
X90650000Y-102725000D01*
G75*
G02*
X90400000Y-102475000I0J250000D01*
G01*
X90400000Y-101025000D01*
G75*
G02*
X90650000Y-100775000I250000J0D01*
G01*
X91850000Y-100775000D01*
G75*
G02*
X92100000Y-101025000I0J-250000D01*
G01*
G37*
%TD.AperFunction*%
%TD*%
D12*
%TO.P,J11,40*%
%TO.N,RPI_SCLK*%
X106960000Y-44260000D03*
%TO.P,J11,39*%
%TO.N,GND*%
X106960000Y-46800000D03*
%TO.P,J11,38*%
%TO.N,RPI_MISO*%
X104420000Y-44260000D03*
%TO.P,J11,37*%
%TO.N,N/C*%
X104420000Y-46800000D03*
%TO.P,J11,36*%
X101880000Y-44260000D03*
%TO.P,J11,35*%
%TO.N,RPI_MOSI*%
X101880000Y-46800000D03*
%TO.P,J11,34*%
%TO.N,GND*%
X99340000Y-44260000D03*
%TO.P,J11,33*%
%TO.N,N/C*%
X99340000Y-46800000D03*
%TO.P,J11,32*%
X96800000Y-44260000D03*
%TO.P,J11,31*%
X96800000Y-46800000D03*
%TO.P,J11,30*%
%TO.N,GND*%
X94260000Y-44260000D03*
%TO.P,J11,29*%
%TO.N,N/C*%
X94260000Y-46800000D03*
%TO.P,J11,28*%
X91720000Y-44260000D03*
%TO.P,J11,27*%
X91720000Y-46800000D03*
%TO.P,J11,26*%
X89180000Y-44260000D03*
%TO.P,J11,25*%
%TO.N,GND*%
X89180000Y-46800000D03*
%TO.P,J11,24*%
%TO.N,TFT_CS*%
X86640000Y-44260000D03*
%TO.P,J11,23*%
%TO.N,N/C*%
X86640000Y-46800000D03*
%TO.P,J11,22*%
%TO.N,TFT_RESET*%
X84100000Y-44260000D03*
%TO.P,J11,21*%
%TO.N,N/C*%
X84100000Y-46800000D03*
%TO.P,J11,20*%
%TO.N,GND*%
X81560000Y-44260000D03*
%TO.P,J11,19*%
%TO.N,N/C*%
X81560000Y-46800000D03*
%TO.P,J11,18*%
%TO.N,TFT_DCRS*%
X79020000Y-44260000D03*
%TO.P,J11,17*%
%TO.N,+3V3*%
X79020000Y-46800000D03*
%TO.P,J11,16*%
%TO.N,N/C*%
X76480000Y-44260000D03*
%TO.P,J11,15*%
X76480000Y-46800000D03*
%TO.P,J11,14*%
%TO.N,GND*%
X73940000Y-44260000D03*
%TO.P,J11,13*%
%TO.N,N/C*%
X73940000Y-46800000D03*
%TO.P,J11,12*%
%TO.N,TFT_LED*%
X71400000Y-44260000D03*
%TO.P,J11,11*%
%TO.N,N/C*%
X71400000Y-46800000D03*
%TO.P,J11,10*%
X68860000Y-44260000D03*
%TO.P,J11,9*%
%TO.N,GND*%
X68860000Y-46800000D03*
%TO.P,J11,8*%
%TO.N,N/C*%
X66320000Y-44260000D03*
%TO.P,J11,7*%
X66320000Y-46800000D03*
%TO.P,J11,6*%
%TO.N,GND*%
X63780000Y-44260000D03*
%TO.P,J11,5*%
%TO.N,3v3_SCL*%
X63780000Y-46800000D03*
%TO.P,J11,4*%
%TO.N,+5V*%
X61240000Y-44260000D03*
%TO.P,J11,3*%
%TO.N,3v3_SDA*%
X61240000Y-46800000D03*
%TO.P,J11,2*%
%TO.N,+5V*%
X58700000Y-44260000D03*
D13*
%TO.P,J11,1*%
%TO.N,+3V3*%
X58700000Y-46800000D03*
%TD*%
D16*
%TO.P,J1,2*%
%TO.N,+9V*%
X55200000Y-101700000D03*
%TO.P,J1,1*%
%TO.N,GND*%
%TA.AperFunction,ComponentPad*%
G36*
G01*
X58550000Y-100950000D02*
X58550000Y-102450000D01*
G75*
G02*
X58300000Y-102700000I-250000J0D01*
G01*
X57100000Y-102700000D01*
G75*
G02*
X56850000Y-102450000I0J250000D01*
G01*
X56850000Y-100950000D01*
G75*
G02*
X57100000Y-100700000I250000J0D01*
G01*
X58300000Y-100700000D01*
G75*
G02*
X58550000Y-100950000I0J-250000D01*
G01*
G37*
%TD.AperFunction*%
%TD*%
D18*
%TO.N,GND*%
X91325000Y-85525000D03*
X95500000Y-88675000D03*
X55100000Y-86350000D03*
X55100000Y-89750000D03*
X77124990Y-62850000D03*
X77150000Y-61250000D03*
%TO.N,RESET*%
X79150000Y-56450000D03*
%TO.N,+5V*%
X90150000Y-80825000D03*
X78250004Y-64450000D03*
X94600000Y-80799998D03*
X66700000Y-54950000D03*
X73750000Y-49450000D03*
X83650000Y-49450000D03*
X103800000Y-76600000D03*
%TO.N,+3V3*%
X64449996Y-48350000D03*
%TO.N,SCL*%
X81200000Y-52950000D03*
X84400000Y-54100000D03*
%TO.N,A7*%
X81749999Y-60100001D03*
%TO.N,A6*%
X80800000Y-63649998D03*
%TO.N,A3*%
X86125000Y-58125000D03*
%TO.N,A2*%
X84912337Y-58237657D03*
%TO.N,A1*%
X87500000Y-59700000D03*
%TO.N,A0*%
X85600008Y-60450000D03*
%TO.N,D2*%
X72850000Y-57550000D03*
%TO.N,D3*%
X72850000Y-58999996D03*
%TO.N,D4*%
X91050000Y-79650000D03*
X99500000Y-86800000D03*
X72850000Y-60450000D03*
%TD*%
D19*
%TO.N,GND*%
X92350000Y-85525000D02*
X95500000Y-88675000D01*
X91325000Y-85525000D02*
X92350000Y-85525000D01*
D20*
X77124990Y-61275010D02*
X77150000Y-61250000D01*
X77124990Y-62850000D02*
X77124990Y-61275010D01*
X72764999Y-45435001D02*
X73940000Y-44260000D01*
X70224999Y-45435001D02*
X72764999Y-45435001D01*
X68860000Y-46800000D02*
X70224999Y-45435001D01*
D19*
X99600000Y-61500000D02*
X100640000Y-60460000D01*
X100640000Y-60460000D02*
X102900000Y-60460000D01*
X112050000Y-75350000D02*
X110750000Y-75350000D01*
X106960000Y-56400000D02*
X106960000Y-46800000D01*
X102900000Y-60460000D02*
X106960000Y-56400000D01*
X99600000Y-64200000D02*
X99600000Y-61500000D01*
X101910001Y-78520001D02*
X101910001Y-75689999D01*
X102760000Y-79370000D02*
X101910001Y-78520001D01*
X101910001Y-75689999D02*
X106500000Y-71100000D01*
X106500000Y-71100000D02*
X99600000Y-64200000D01*
X110750000Y-75350000D02*
X106500000Y-71100000D01*
D20*
%TO.N,RESET*%
X79150000Y-63100000D02*
X79150000Y-56450000D01*
X96595001Y-80545001D02*
X79150000Y-63100000D01*
X104124999Y-80545001D02*
X96595001Y-80545001D01*
X105300000Y-79370000D02*
X104124999Y-80545001D01*
D19*
%TO.N,+5V*%
X57497919Y-44260000D02*
X58700000Y-44260000D01*
X57050000Y-44707919D02*
X57497919Y-44260000D01*
X61240000Y-44260000D02*
X58700000Y-44260000D01*
D21*
X92250000Y-80825000D02*
X90150000Y-80825000D01*
X78200000Y-64450000D02*
X78250004Y-64450000D01*
X94525000Y-80775000D02*
X94525000Y-80825000D01*
D19*
X90150000Y-80825000D02*
X94525000Y-80825000D01*
D21*
X94525000Y-80825000D02*
X94525000Y-80849974D01*
D19*
X102760000Y-84450000D02*
X98250002Y-84450000D01*
X78250004Y-64450000D02*
X78650003Y-64850001D01*
X98250002Y-84450000D02*
X94600000Y-80799998D01*
X78650003Y-64850001D02*
X94600000Y-80799998D01*
X60880000Y-58400000D02*
X60850000Y-58370000D01*
X57080000Y-58370000D02*
X57050000Y-58400000D01*
X60850000Y-58370000D02*
X57080000Y-58370000D01*
X57050000Y-75250000D02*
X57050000Y-58400000D01*
X57050000Y-58400000D02*
X57050000Y-44707919D01*
X60850000Y-58370000D02*
X64270000Y-54950000D01*
X64270000Y-54950000D02*
X66700000Y-54950000D01*
D20*
X68250000Y-54950000D02*
X66700000Y-54950000D01*
D19*
X102760000Y-84450000D02*
X102760000Y-87690000D01*
X98400000Y-103650000D02*
X88750000Y-103650000D01*
X99750000Y-102300000D02*
X98400000Y-103650000D01*
X99750000Y-97000000D02*
X99750000Y-102300000D01*
X102760000Y-93990000D02*
X99750000Y-97000000D01*
X102760000Y-87690000D02*
X102760000Y-93990000D01*
X88750000Y-101750000D02*
X88750000Y-103650000D01*
X82350000Y-83050000D02*
X74650000Y-75350000D01*
X82350000Y-101200000D02*
X82350000Y-83050000D01*
X84800000Y-103650000D02*
X82350000Y-101200000D01*
X88750000Y-103650000D02*
X84800000Y-103650000D01*
X53850000Y-75350000D02*
X53800000Y-75400000D01*
X74650000Y-75350000D02*
X53850000Y-75350000D01*
D20*
X73750000Y-49450000D02*
X68250000Y-54950000D01*
X73950000Y-49250000D02*
X73750000Y-49450000D01*
X73750000Y-49450000D02*
X83650000Y-49450000D01*
D19*
X108100000Y-87690000D02*
X108150000Y-87640000D01*
X102760000Y-87690000D02*
X108100000Y-87690000D01*
X108150000Y-77850000D02*
X108100000Y-77900000D01*
X112050000Y-77850000D02*
X108150000Y-77850000D01*
X108100000Y-87690000D02*
X108100000Y-77900000D01*
X106800000Y-76600000D02*
X103800000Y-76600000D01*
X108100000Y-77900000D02*
X106800000Y-76600000D01*
D20*
%TO.N,+3V3*%
X79020000Y-46800000D02*
X77470000Y-48350000D01*
X77470000Y-48350000D02*
X64449996Y-48350000D01*
X60250000Y-48350000D02*
X64449996Y-48350000D01*
X58700000Y-46800000D02*
X60250000Y-48350000D01*
%TO.N,SCL*%
X82350000Y-54100000D02*
X84400000Y-54100000D01*
X81200000Y-52950000D02*
X82350000Y-54100000D01*
%TO.N,A7*%
X81749999Y-59900001D02*
X81749999Y-60100001D01*
X89604999Y-52045001D02*
X81749999Y-59900001D01*
X103589999Y-52045001D02*
X89604999Y-52045001D01*
X104765000Y-50870000D02*
X103589999Y-52045001D01*
%TO.N,A6*%
X102225000Y-50639998D02*
X102225000Y-50870000D01*
X80800000Y-59650000D02*
X80800000Y-63649998D01*
X89580000Y-50870000D02*
X80800000Y-59650000D01*
X102225000Y-50870000D02*
X89580000Y-50870000D01*
%TO.N,A3*%
X89664999Y-54585001D02*
X86125000Y-58125000D01*
X104765000Y-53410000D02*
X103589999Y-54585001D01*
X103589999Y-54585001D02*
X89664999Y-54585001D01*
%TO.N,A2*%
X84912337Y-58037663D02*
X84912337Y-58237657D01*
X89540000Y-53410000D02*
X84912337Y-58037663D01*
X102225000Y-53410000D02*
X89540000Y-53410000D01*
%TO.N,A1*%
X87850000Y-59700000D02*
X87500000Y-59700000D01*
X90150000Y-57400000D02*
X87850000Y-59700000D01*
X103315000Y-57400000D02*
X90150000Y-57400000D01*
X104765000Y-55950000D02*
X103315000Y-57400000D01*
%TO.N,A0*%
X85600008Y-60349992D02*
X85600008Y-60450000D01*
X90000000Y-55950000D02*
X85600008Y-60349992D01*
X102225000Y-55950000D02*
X90000000Y-55950000D01*
%TO.N,D2*%
X70800000Y-59600000D02*
X72850000Y-57550000D01*
X70800000Y-68000000D02*
X70800000Y-59600000D01*
X86250000Y-83450000D02*
X70800000Y-68000000D01*
X86250000Y-101750000D02*
X86250000Y-83450000D01*
%TO.N,D3*%
X85450000Y-81300000D02*
X85050000Y-80900000D01*
X85050000Y-80900000D02*
X71600000Y-67450000D01*
X71600000Y-67450000D02*
X71600000Y-60249996D01*
X71600000Y-60249996D02*
X72850000Y-58999996D01*
X90700000Y-86550000D02*
X85050000Y-80900000D01*
X90700000Y-97700000D02*
X90700000Y-86550000D01*
X94750000Y-101750000D02*
X90700000Y-97700000D01*
X97300000Y-101750000D02*
X94750000Y-101750000D01*
%TO.N,D4*%
X91050000Y-79650000D02*
X88150000Y-79650000D01*
X94958260Y-86800000D02*
X88150000Y-79991740D01*
X88150000Y-79991740D02*
X88150000Y-79650000D01*
X99500000Y-86800000D02*
X94958260Y-86800000D01*
X85100000Y-79650000D02*
X72850000Y-67400000D01*
X72850000Y-67400000D02*
X72850000Y-60450000D01*
X88150000Y-79650000D02*
X85100000Y-79650000D01*
%TO.N,RPI_SCLK*%
X106960000Y-44619002D02*
X106960000Y-44260000D01*
X111884999Y-49544001D02*
X106960000Y-44619002D01*
X111884999Y-61635001D02*
X111884999Y-49544001D01*
X110520000Y-63000000D02*
X111884999Y-61635001D01*
%TD*%
D22*
%TO.N,GND*%
X114640000Y-67556186D02*
X114445273Y-67086072D01*
X114118601Y-66597174D01*
X113702826Y-66181399D01*
X113213928Y-65854727D01*
X112670692Y-65629712D01*
X112093997Y-65515000D01*
X111506003Y-65515000D01*
X110929308Y-65629712D01*
X110386072Y-65854727D01*
X109897174Y-66181399D01*
X109481399Y-66597174D01*
X109154727Y-67086072D01*
X108929712Y-67629308D01*
X108815000Y-68206003D01*
X108815000Y-68793997D01*
X108929712Y-69370692D01*
X109154727Y-69913928D01*
X109481399Y-70402826D01*
X109897174Y-70818601D01*
X110386072Y-71145273D01*
X110929308Y-71370288D01*
X111506003Y-71485000D01*
X112093997Y-71485000D01*
X112670692Y-71370288D01*
X113213928Y-71145273D01*
X113702826Y-70818601D01*
X114118601Y-70402826D01*
X114445273Y-69913928D01*
X114640000Y-69443814D01*
X114640001Y-93556188D01*
X114445273Y-93086072D01*
X114118601Y-92597174D01*
X113702826Y-92181399D01*
X113213928Y-91854727D01*
X112670692Y-91629712D01*
X112093997Y-91515000D01*
X111506003Y-91515000D01*
X110929308Y-91629712D01*
X110386072Y-91854727D01*
X109897174Y-92181399D01*
X109481399Y-92597174D01*
X109154727Y-93086072D01*
X108929712Y-93629308D01*
X108815000Y-94206003D01*
X108815000Y-94793997D01*
X108929712Y-95370692D01*
X109154727Y-95913928D01*
X109481399Y-96402826D01*
X109897174Y-96818601D01*
X110386072Y-97145273D01*
X110929308Y-97370288D01*
X111506003Y-97485000D01*
X112093997Y-97485000D01*
X112670692Y-97370288D01*
X113213928Y-97145273D01*
X113702826Y-96818601D01*
X114118601Y-96402826D01*
X114445273Y-95913928D01*
X114640001Y-95443812D01*
X114640001Y-101967711D01*
X114582808Y-102551010D01*
X114422783Y-103081036D01*
X114162860Y-103569880D01*
X113812935Y-103998931D01*
X113386335Y-104351845D01*
X112899320Y-104615173D01*
X112370422Y-104778894D01*
X111789040Y-104840000D01*
X53832279Y-104840000D01*
X53248990Y-104782808D01*
X52718964Y-104622783D01*
X52230120Y-104362860D01*
X51801069Y-104012935D01*
X51448155Y-103586335D01*
X51184827Y-103099320D01*
X51021106Y-102570422D01*
X50960000Y-101989040D01*
X50960000Y-101477050D01*
X53715000Y-101477050D01*
X53715000Y-101922949D01*
X53736487Y-102141110D01*
X53821401Y-102421033D01*
X53959294Y-102679013D01*
X54144866Y-102905134D01*
X54370986Y-103090706D01*
X54628966Y-103228599D01*
X54908889Y-103313513D01*
X55200000Y-103342185D01*
X55491110Y-103313513D01*
X55771033Y-103228599D01*
X56029013Y-103090706D01*
X56249945Y-102909392D01*
X56260498Y-102944180D01*
X56319463Y-103054494D01*
X56398815Y-103151185D01*
X56495506Y-103230537D01*
X56605820Y-103289502D01*
X56725518Y-103325812D01*
X56850000Y-103338072D01*
X57414250Y-103335000D01*
X57573000Y-103176250D01*
X57573000Y-101827000D01*
X57827000Y-101827000D01*
X57827000Y-103176250D01*
X57985750Y-103335000D01*
X58550000Y-103338072D01*
X58674482Y-103325812D01*
X58794180Y-103289502D01*
X58904494Y-103230537D01*
X59001185Y-103151185D01*
X59080537Y-103054494D01*
X59139502Y-102944180D01*
X59175812Y-102824482D01*
X59188072Y-102700000D01*
X59185000Y-101985750D01*
X59026250Y-101827000D01*
X57827000Y-101827000D01*
X57573000Y-101827000D01*
X57553000Y-101827000D01*
X57553000Y-101573000D01*
X57573000Y-101573000D01*
X57573000Y-100223750D01*
X57827000Y-100223750D01*
X57827000Y-101573000D01*
X59026250Y-101573000D01*
X59185000Y-101414250D01*
X59188072Y-100700000D01*
X59175812Y-100575518D01*
X59139502Y-100455820D01*
X59080537Y-100345506D01*
X59001185Y-100248815D01*
X58904494Y-100169463D01*
X58794180Y-100110498D01*
X58674482Y-100074188D01*
X58550000Y-100061928D01*
X57985750Y-100065000D01*
X57827000Y-100223750D01*
X57573000Y-100223750D01*
X57414250Y-100065000D01*
X56850000Y-100061928D01*
X56725518Y-100074188D01*
X56605820Y-100110498D01*
X56495506Y-100169463D01*
X56398815Y-100248815D01*
X56319463Y-100345506D01*
X56260498Y-100455820D01*
X56249945Y-100490608D01*
X56029014Y-100309294D01*
X55771034Y-100171401D01*
X55491111Y-100086487D01*
X55200000Y-100057815D01*
X54908890Y-100086487D01*
X54628967Y-100171401D01*
X54370987Y-100309294D01*
X54144866Y-100494866D01*
X53959294Y-100720986D01*
X53821401Y-100978966D01*
X53736487Y-101258889D01*
X53715000Y-101477050D01*
X50960000Y-101477050D01*
X50960000Y-95443814D01*
X51154727Y-95913928D01*
X51481399Y-96402826D01*
X51897174Y-96818601D01*
X52386072Y-97145273D01*
X52929308Y-97370288D01*
X53506003Y-97485000D01*
X54093997Y-97485000D01*
X54670692Y-97370288D01*
X55213928Y-97145273D01*
X55702826Y-96818601D01*
X56118601Y-96402826D01*
X56445273Y-95913928D01*
X56670288Y-95370692D01*
X56785000Y-94793997D01*
X56785000Y-94206003D01*
X56670288Y-93629308D01*
X56445273Y-93086072D01*
X56118601Y-92597174D01*
X55702826Y-92181399D01*
X55213928Y-91854727D01*
X54670692Y-91629712D01*
X54093997Y-91515000D01*
X53506003Y-91515000D01*
X52929308Y-91629712D01*
X52386072Y-91854727D01*
X51897174Y-92181399D01*
X51481399Y-92597174D01*
X51154727Y-93086072D01*
X50960000Y-93556186D01*
X50960000Y-78750000D01*
X52161928Y-78750000D01*
X52174188Y-78874482D01*
X52210498Y-78994180D01*
X52269463Y-79104494D01*
X52348815Y-79201185D01*
X52445506Y-79280537D01*
X52555820Y-79339502D01*
X52675518Y-79375812D01*
X52800000Y-79388072D01*
X53514250Y-79385000D01*
X53673000Y-79226250D01*
X53673000Y-78027000D01*
X53927000Y-78027000D01*
X53927000Y-79226250D01*
X54085750Y-79385000D01*
X54800000Y-79388072D01*
X54924482Y-79375812D01*
X55044180Y-79339502D01*
X55154494Y-79280537D01*
X55251185Y-79201185D01*
X55330537Y-79104494D01*
X55389502Y-78994180D01*
X55425812Y-78874482D01*
X55438072Y-78750000D01*
X55435000Y-78185750D01*
X55276250Y-78027000D01*
X53927000Y-78027000D01*
X53673000Y-78027000D01*
X52323750Y-78027000D01*
X52165000Y-78185750D01*
X52161928Y-78750000D01*
X50960000Y-78750000D01*
X50960000Y-69443814D01*
X51154727Y-69913928D01*
X51481399Y-70402826D01*
X51897174Y-70818601D01*
X52386072Y-71145273D01*
X52929308Y-71370288D01*
X53506003Y-71485000D01*
X54093997Y-71485000D01*
X54670692Y-71370288D01*
X55213928Y-71145273D01*
X55702826Y-70818601D01*
X55915000Y-70606427D01*
X55915000Y-74215000D01*
X54846892Y-74215000D01*
X54779014Y-74159294D01*
X54521034Y-74021401D01*
X54241111Y-73936487D01*
X54022950Y-73915000D01*
X53577050Y-73915000D01*
X53358889Y-73936487D01*
X53078966Y-74021401D01*
X52820986Y-74159294D01*
X52594866Y-74344866D01*
X52409294Y-74570986D01*
X52271401Y-74828966D01*
X52186487Y-75108889D01*
X52157815Y-75400000D01*
X52186487Y-75691111D01*
X52271401Y-75971034D01*
X52409294Y-76229014D01*
X52590608Y-76449945D01*
X52555820Y-76460498D01*
X52445506Y-76519463D01*
X52348815Y-76598815D01*
X52269463Y-76695506D01*
X52210498Y-76805820D01*
X52174188Y-76925518D01*
X52161928Y-77050000D01*
X52165000Y-77614250D01*
X52323750Y-77773000D01*
X53673000Y-77773000D01*
X53673000Y-77753000D01*
X53927000Y-77753000D01*
X53927000Y-77773000D01*
X55276250Y-77773000D01*
X55435000Y-77614250D01*
X55438072Y-77050000D01*
X55425812Y-76925518D01*
X55389502Y-76805820D01*
X55330537Y-76695506D01*
X55251185Y-76598815D01*
X55154494Y-76519463D01*
X55090019Y-76485000D01*
X74179869Y-76485000D01*
X81215001Y-83520133D01*
X81215000Y-100219697D01*
X81139850Y-100179528D01*
X80973254Y-100128992D01*
X80800000Y-100111928D01*
X79600000Y-100111928D01*
X79426746Y-100128992D01*
X79260150Y-100179528D01*
X79106614Y-100261595D01*
X78972038Y-100372038D01*
X78861595Y-100506614D01*
X78807223Y-100608337D01*
X78755134Y-100544866D01*
X78529014Y-100359294D01*
X78271034Y-100221401D01*
X77991111Y-100136487D01*
X77700000Y-100107815D01*
X77408890Y-100136487D01*
X77128967Y-100221401D01*
X76870987Y-100359294D01*
X76644866Y-100544866D01*
X76459294Y-100770986D01*
X76321401Y-101028966D01*
X76236487Y-101308889D01*
X76215000Y-101527050D01*
X76215000Y-101972949D01*
X76236487Y-102191110D01*
X76321401Y-102471033D01*
X76459294Y-102729013D01*
X76644866Y-102955134D01*
X76870986Y-103140706D01*
X77128966Y-103278599D01*
X77408889Y-103363513D01*
X77700000Y-103392185D01*
X77991110Y-103363513D01*
X78271033Y-103278599D01*
X78529013Y-103140706D01*
X78755134Y-102955134D01*
X78807223Y-102891663D01*
X78861595Y-102993386D01*
X78972038Y-103127962D01*
X79106614Y-103238405D01*
X79260150Y-103320472D01*
X79426746Y-103371008D01*
X79600000Y-103388072D01*
X80800000Y-103388072D01*
X80973254Y-103371008D01*
X81139850Y-103320472D01*
X81293386Y-103238405D01*
X81427962Y-103127962D01*
X81538405Y-102993386D01*
X81620472Y-102839850D01*
X81671008Y-102673254D01*
X81688072Y-102500000D01*
X81688072Y-102143203D01*
X83958009Y-104413141D01*
X83993551Y-104456449D01*
X84166377Y-104598284D01*
X84363553Y-104703676D01*
X84527705Y-104753471D01*
X84577500Y-104768577D01*
X84598493Y-104770644D01*
X84744248Y-104785000D01*
X84744255Y-104785000D01*
X84799999Y-104790490D01*
X84855743Y-104785000D01*
X88694249Y-104785000D01*
X88750000Y-104790491D01*
X88805752Y-104785000D01*
X98344249Y-104785000D01*
X98400000Y-104790491D01*
X98455751Y-104785000D01*
X98455752Y-104785000D01*
X98622499Y-104768577D01*
X98836447Y-104703676D01*
X99033623Y-104598284D01*
X99206449Y-104456449D01*
X99241996Y-104413135D01*
X100436555Y-103218577D01*
X100629013Y-103115706D01*
X100849945Y-102934392D01*
X100860498Y-102969180D01*
X100919463Y-103079494D01*
X100998815Y-103176185D01*
X101095506Y-103255537D01*
X101205820Y-103314502D01*
X101325518Y-103350812D01*
X101450000Y-103363072D01*
X102014250Y-103360000D01*
X102173000Y-103201250D01*
X102173000Y-101877000D01*
X102427000Y-101877000D01*
X102427000Y-103201250D01*
X102585750Y-103360000D01*
X103150000Y-103363072D01*
X103274482Y-103350812D01*
X103394180Y-103314502D01*
X103504494Y-103255537D01*
X103601185Y-103176185D01*
X103680537Y-103079494D01*
X103739502Y-102969180D01*
X103775812Y-102849482D01*
X103788072Y-102725000D01*
X103785000Y-102035750D01*
X103626250Y-101877000D01*
X102427000Y-101877000D01*
X102173000Y-101877000D01*
X102153000Y-101877000D01*
X102153000Y-101623000D01*
X102173000Y-101623000D01*
X102173000Y-100298750D01*
X102427000Y-100298750D01*
X102427000Y-101623000D01*
X103626250Y-101623000D01*
X103722200Y-101527050D01*
X106865000Y-101527050D01*
X106865000Y-101972949D01*
X106886487Y-102191110D01*
X106971401Y-102471033D01*
X107109294Y-102729013D01*
X107294866Y-102955134D01*
X107520986Y-103140706D01*
X107778966Y-103278599D01*
X108058889Y-103363513D01*
X108350000Y-103392185D01*
X108641110Y-103363513D01*
X108921033Y-103278599D01*
X109179013Y-103140706D01*
X109405134Y-102955134D01*
X109457223Y-102891663D01*
X109511595Y-102993386D01*
X109622038Y-103127962D01*
X109756614Y-103238405D01*
X109910150Y-103320472D01*
X110076746Y-103371008D01*
X110250000Y-103388072D01*
X111450000Y-103388072D01*
X111623254Y-103371008D01*
X111789850Y-103320472D01*
X111943386Y-103238405D01*
X112077962Y-103127962D01*
X112188405Y-102993386D01*
X112270472Y-102839850D01*
X112321008Y-102673254D01*
X112338072Y-102500000D01*
X112338072Y-101000000D01*
X112321008Y-100826746D01*
X112270472Y-100660150D01*
X112188405Y-100506614D01*
X112077962Y-100372038D01*
X111943386Y-100261595D01*
X111789850Y-100179528D01*
X111623254Y-100128992D01*
X111450000Y-100111928D01*
X110250000Y-100111928D01*
X110076746Y-100128992D01*
X109910150Y-100179528D01*
X109756614Y-100261595D01*
X109622038Y-100372038D01*
X109511595Y-100506614D01*
X109457223Y-100608337D01*
X109405134Y-100544866D01*
X109179014Y-100359294D01*
X108921034Y-100221401D01*
X108641111Y-100136487D01*
X108350000Y-100107815D01*
X108058890Y-100136487D01*
X107778967Y-100221401D01*
X107520987Y-100359294D01*
X107294866Y-100544866D01*
X107109294Y-100770986D01*
X106971401Y-101028966D01*
X106886487Y-101308889D01*
X106865000Y-101527050D01*
X103722200Y-101527050D01*
X103785000Y-101464250D01*
X103788072Y-100775000D01*
X103775812Y-100650518D01*
X103739502Y-100530820D01*
X103680537Y-100420506D01*
X103601185Y-100323815D01*
X103504494Y-100244463D01*
X103394180Y-100185498D01*
X103274482Y-100149188D01*
X103150000Y-100136928D01*
X102585750Y-100140000D01*
X102427000Y-100298750D01*
X102173000Y-100298750D01*
X102014250Y-100140000D01*
X101450000Y-100136928D01*
X101325518Y-100149188D01*
X101205820Y-100185498D01*
X101095506Y-100244463D01*
X100998815Y-100323815D01*
X100919463Y-100420506D01*
X100885000Y-100484981D01*
X100885000Y-97470131D01*
X103523141Y-94831991D01*
X103566449Y-94796449D01*
X103708284Y-94623623D01*
X103813676Y-94426447D01*
X103878577Y-94212499D01*
X103895000Y-94045752D01*
X103900491Y-93990000D01*
X103895000Y-93934248D01*
X103895000Y-88825000D01*
X108044248Y-88825000D01*
X108100000Y-88830491D01*
X108155751Y-88825000D01*
X108155752Y-88825000D01*
X108322499Y-88808577D01*
X108536447Y-88743676D01*
X108733623Y-88638284D01*
X108906449Y-88496449D01*
X108941993Y-88453139D01*
X108991989Y-88403143D01*
X109098284Y-88273622D01*
X109203676Y-88076446D01*
X109268577Y-87862498D01*
X109290491Y-87640000D01*
X109268577Y-87417501D01*
X109235000Y-87306813D01*
X109235000Y-78985000D01*
X110967183Y-78985000D01*
X111095986Y-79090706D01*
X111113374Y-79100000D01*
X111095986Y-79109294D01*
X110869866Y-79294866D01*
X110684294Y-79520986D01*
X110546401Y-79778966D01*
X110461487Y-80058889D01*
X110432815Y-80350000D01*
X110461487Y-80641111D01*
X110546401Y-80921034D01*
X110684294Y-81179014D01*
X110869866Y-81405134D01*
X111095986Y-81590706D01*
X111113374Y-81600000D01*
X111095986Y-81609294D01*
X110869866Y-81794866D01*
X110684294Y-82020986D01*
X110546401Y-82278966D01*
X110461487Y-82558889D01*
X110432815Y-82850000D01*
X110461487Y-83141111D01*
X110546401Y-83421034D01*
X110684294Y-83679014D01*
X110869866Y-83905134D01*
X111095986Y-84090706D01*
X111353966Y-84228599D01*
X111633889Y-84313513D01*
X111852050Y-84335000D01*
X112247950Y-84335000D01*
X112466111Y-84313513D01*
X112746034Y-84228599D01*
X113004014Y-84090706D01*
X113230134Y-83905134D01*
X113415706Y-83679014D01*
X113553599Y-83421034D01*
X113638513Y-83141111D01*
X113667185Y-82850000D01*
X113638513Y-82558889D01*
X113553599Y-82278966D01*
X113415706Y-82020986D01*
X113230134Y-81794866D01*
X113004014Y-81609294D01*
X112986626Y-81600000D01*
X113004014Y-81590706D01*
X113230134Y-81405134D01*
X113415706Y-81179014D01*
X113553599Y-80921034D01*
X113638513Y-80641111D01*
X113667185Y-80350000D01*
X113638513Y-80058889D01*
X113553599Y-79778966D01*
X113415706Y-79520986D01*
X113230134Y-79294866D01*
X113004014Y-79109294D01*
X112986626Y-79100000D01*
X113004014Y-79090706D01*
X113230134Y-78905134D01*
X113415706Y-78679014D01*
X113553599Y-78421034D01*
X113638513Y-78141111D01*
X113667185Y-77850000D01*
X113638513Y-77558889D01*
X113553599Y-77278966D01*
X113415706Y-77020986D01*
X113234392Y-76800055D01*
X113269180Y-76789502D01*
X113379494Y-76730537D01*
X113476185Y-76651185D01*
X113555537Y-76554494D01*
X113614502Y-76444180D01*
X113650812Y-76324482D01*
X113663072Y-76200000D01*
X113660000Y-75635750D01*
X113501250Y-75477000D01*
X112177000Y-75477000D01*
X112177000Y-75497000D01*
X111923000Y-75497000D01*
X111923000Y-75477000D01*
X110598750Y-75477000D01*
X110440000Y-75635750D01*
X110436928Y-76200000D01*
X110449188Y-76324482D01*
X110485498Y-76444180D01*
X110544463Y-76554494D01*
X110623815Y-76651185D01*
X110701574Y-76715000D01*
X108520132Y-76715000D01*
X107641995Y-75836864D01*
X107606449Y-75793551D01*
X107433623Y-75651716D01*
X107236447Y-75546324D01*
X107022499Y-75481423D01*
X106855752Y-75465000D01*
X106855751Y-75465000D01*
X106800000Y-75459509D01*
X106744249Y-75465000D01*
X103744248Y-75465000D01*
X103577501Y-75481423D01*
X103363553Y-75546324D01*
X103166377Y-75651716D01*
X102993551Y-75793551D01*
X102851716Y-75966377D01*
X102746324Y-76163553D01*
X102681423Y-76377501D01*
X102659509Y-76600000D01*
X102681423Y-76822499D01*
X102746324Y-77036447D01*
X102851716Y-77233623D01*
X102993551Y-77406449D01*
X103166377Y-77548284D01*
X103363553Y-77653676D01*
X103577501Y-77718577D01*
X103744248Y-77735000D01*
X106329868Y-77735000D01*
X106965001Y-78370133D01*
X106965000Y-86555000D01*
X103895000Y-86555000D01*
X103895000Y-85608728D01*
X103919463Y-85654494D01*
X103998815Y-85751185D01*
X104095506Y-85830537D01*
X104205820Y-85889502D01*
X104325518Y-85925812D01*
X104450000Y-85938072D01*
X106150000Y-85938072D01*
X106274482Y-85925812D01*
X106394180Y-85889502D01*
X106504494Y-85830537D01*
X106601185Y-85751185D01*
X106680537Y-85654494D01*
X106739502Y-85544180D01*
X106775812Y-85424482D01*
X106788072Y-85300000D01*
X106788072Y-83600000D01*
X106775812Y-83475518D01*
X106739502Y-83355820D01*
X106680537Y-83245506D01*
X106601185Y-83148815D01*
X106504494Y-83069463D01*
X106394180Y-83010498D01*
X106321620Y-82988487D01*
X106453475Y-82856632D01*
X106615990Y-82613411D01*
X106727932Y-82343158D01*
X106785000Y-82056260D01*
X106785000Y-81763740D01*
X106727932Y-81476842D01*
X106615990Y-81206589D01*
X106453475Y-80963368D01*
X106246632Y-80756525D01*
X106072240Y-80640000D01*
X106246632Y-80523475D01*
X106453475Y-80316632D01*
X106615990Y-80073411D01*
X106727932Y-79803158D01*
X106785000Y-79516260D01*
X106785000Y-79223740D01*
X106727932Y-78936842D01*
X106615990Y-78666589D01*
X106453475Y-78423368D01*
X106246632Y-78216525D01*
X106003411Y-78054010D01*
X105733158Y-77942068D01*
X105446260Y-77885000D01*
X105153740Y-77885000D01*
X104866842Y-77942068D01*
X104596589Y-78054010D01*
X104353368Y-78216525D01*
X104146525Y-78423368D01*
X104028900Y-78599406D01*
X103857588Y-78369731D01*
X103641355Y-78174822D01*
X103391252Y-78025843D01*
X103116891Y-77928519D01*
X102887000Y-78049186D01*
X102887000Y-79243000D01*
X102907000Y-79243000D01*
X102907000Y-79497000D01*
X102887000Y-79497000D01*
X102887000Y-79517000D01*
X102633000Y-79517000D01*
X102633000Y-79497000D01*
X101439845Y-79497000D01*
X101318524Y-79726890D01*
X101336150Y-79785001D01*
X96909803Y-79785001D01*
X96137912Y-79013110D01*
X101318524Y-79013110D01*
X101439845Y-79243000D01*
X102633000Y-79243000D01*
X102633000Y-78049186D01*
X102403109Y-77928519D01*
X102128748Y-78025843D01*
X101878645Y-78174822D01*
X101662412Y-78369731D01*
X101488359Y-78603080D01*
X101363175Y-78865901D01*
X101318524Y-79013110D01*
X96137912Y-79013110D01*
X91624802Y-74500000D01*
X110436928Y-74500000D01*
X110440000Y-75064250D01*
X110598750Y-75223000D01*
X111923000Y-75223000D01*
X111923000Y-74023750D01*
X112177000Y-74023750D01*
X112177000Y-75223000D01*
X113501250Y-75223000D01*
X113660000Y-75064250D01*
X113663072Y-74500000D01*
X113650812Y-74375518D01*
X113614502Y-74255820D01*
X113555537Y-74145506D01*
X113476185Y-74048815D01*
X113379494Y-73969463D01*
X113269180Y-73910498D01*
X113149482Y-73874188D01*
X113025000Y-73861928D01*
X112335750Y-73865000D01*
X112177000Y-74023750D01*
X111923000Y-74023750D01*
X111764250Y-73865000D01*
X111075000Y-73861928D01*
X110950518Y-73874188D01*
X110830820Y-73910498D01*
X110720506Y-73969463D01*
X110623815Y-74048815D01*
X110544463Y-74145506D01*
X110485498Y-74255820D01*
X110449188Y-74375518D01*
X110436928Y-74500000D01*
X91624802Y-74500000D01*
X81519255Y-64394454D01*
X81603937Y-64309772D01*
X81717205Y-64140254D01*
X81795226Y-63951896D01*
X81835000Y-63751937D01*
X81835000Y-63548059D01*
X81795226Y-63348100D01*
X81717205Y-63159742D01*
X81603937Y-62990224D01*
X81560000Y-62946287D01*
X81560000Y-61117485D01*
X81648060Y-61135001D01*
X81851938Y-61135001D01*
X82051897Y-61095227D01*
X82240255Y-61017206D01*
X82409773Y-60903938D01*
X82553936Y-60759775D01*
X82667204Y-60590257D01*
X82745225Y-60401899D01*
X82784999Y-60201940D01*
X82784999Y-59998062D01*
X82775333Y-59949468D01*
X83995835Y-58728966D01*
X84108400Y-58897431D01*
X84252563Y-59041594D01*
X84422081Y-59154862D01*
X84610439Y-59232883D01*
X84810398Y-59272657D01*
X85014276Y-59272657D01*
X85214235Y-59232883D01*
X85402593Y-59154862D01*
X85572111Y-59041594D01*
X85596832Y-59016873D01*
X85634744Y-59042205D01*
X85774928Y-59100271D01*
X85450796Y-59424403D01*
X85298110Y-59454774D01*
X85109752Y-59532795D01*
X84940234Y-59646063D01*
X84796071Y-59790226D01*
X84682803Y-59959744D01*
X84604782Y-60148102D01*
X84565008Y-60348061D01*
X84565008Y-60551939D01*
X84604782Y-60751898D01*
X84682803Y-60940256D01*
X84796071Y-61109774D01*
X84940234Y-61253937D01*
X85109752Y-61367205D01*
X85298110Y-61445226D01*
X85498069Y-61485000D01*
X85701947Y-61485000D01*
X85901906Y-61445226D01*
X86090264Y-61367205D01*
X86259782Y-61253937D01*
X86403945Y-61109774D01*
X86517213Y-60940256D01*
X86595234Y-60751898D01*
X86635008Y-60551939D01*
X86635008Y-60389793D01*
X86683632Y-60341169D01*
X86696063Y-60359774D01*
X86840226Y-60503937D01*
X87009744Y-60617205D01*
X87198102Y-60695226D01*
X87398061Y-60735000D01*
X87601939Y-60735000D01*
X87801898Y-60695226D01*
X87990256Y-60617205D01*
X88159774Y-60503937D01*
X88303937Y-60359774D01*
X88376640Y-60250966D01*
X88390001Y-60240001D01*
X88413804Y-60210997D01*
X88521692Y-60103109D01*
X101458519Y-60103109D01*
X101579186Y-60333000D01*
X102773000Y-60333000D01*
X102773000Y-59139845D01*
X102543110Y-59018524D01*
X102395901Y-59063175D01*
X102133080Y-59188359D01*
X101899731Y-59362412D01*
X101704822Y-59578645D01*
X101555843Y-59828748D01*
X101458519Y-60103109D01*
X88521692Y-60103109D01*
X90464802Y-58160000D01*
X103277678Y-58160000D01*
X103315000Y-58163676D01*
X103352322Y-58160000D01*
X103352333Y-58160000D01*
X103463986Y-58149003D01*
X103607247Y-58105546D01*
X103739276Y-58034974D01*
X103855001Y-57940001D01*
X103878804Y-57910997D01*
X104398592Y-57391209D01*
X104618740Y-57435000D01*
X104911260Y-57435000D01*
X105198158Y-57377932D01*
X105468411Y-57265990D01*
X105711632Y-57103475D01*
X105918475Y-56896632D01*
X106080990Y-56653411D01*
X106192932Y-56383158D01*
X106250000Y-56096260D01*
X106250000Y-55803740D01*
X106192932Y-55516842D01*
X106080990Y-55246589D01*
X105918475Y-55003368D01*
X105711632Y-54796525D01*
X105537240Y-54680000D01*
X105711632Y-54563475D01*
X105918475Y-54356632D01*
X106080990Y-54113411D01*
X106192932Y-53843158D01*
X106250000Y-53556260D01*
X106250000Y-53263740D01*
X106192932Y-52976842D01*
X106080990Y-52706589D01*
X105918475Y-52463368D01*
X105711632Y-52256525D01*
X105537240Y-52140000D01*
X105711632Y-52023475D01*
X105918475Y-51816632D01*
X106080990Y-51573411D01*
X106192932Y-51303158D01*
X106250000Y-51016260D01*
X106250000Y-50723740D01*
X106192932Y-50436842D01*
X106080990Y-50166589D01*
X105918475Y-49923368D01*
X105711632Y-49716525D01*
X105468411Y-49554010D01*
X105198158Y-49442068D01*
X104911260Y-49385000D01*
X104618740Y-49385000D01*
X104331842Y-49442068D01*
X104061589Y-49554010D01*
X103818368Y-49716525D01*
X103611525Y-49923368D01*
X103495000Y-50097760D01*
X103378475Y-49923368D01*
X103171632Y-49716525D01*
X102928411Y-49554010D01*
X102658158Y-49442068D01*
X102371260Y-49385000D01*
X102078740Y-49385000D01*
X101791842Y-49442068D01*
X101521589Y-49554010D01*
X101278368Y-49716525D01*
X101071525Y-49923368D01*
X100946822Y-50110000D01*
X89617322Y-50110000D01*
X89579999Y-50106324D01*
X89542676Y-50110000D01*
X89542667Y-50110000D01*
X89431014Y-50120997D01*
X89287753Y-50164454D01*
X89155723Y-50235026D01*
X89085079Y-50293003D01*
X89039999Y-50329999D01*
X89016201Y-50358997D01*
X85425400Y-53949798D01*
X85395226Y-53798102D01*
X85317205Y-53609744D01*
X85203937Y-53440226D01*
X85059774Y-53296063D01*
X84890256Y-53182795D01*
X84701898Y-53104774D01*
X84501939Y-53065000D01*
X84298061Y-53065000D01*
X84098102Y-53104774D01*
X83909744Y-53182795D01*
X83740226Y-53296063D01*
X83696289Y-53340000D01*
X82664802Y-53340000D01*
X82235000Y-52910199D01*
X82235000Y-52848061D01*
X82195226Y-52648102D01*
X82117205Y-52459744D01*
X82003937Y-52290226D01*
X81859774Y-52146063D01*
X81690256Y-52032795D01*
X81501898Y-51954774D01*
X81301939Y-51915000D01*
X81098061Y-51915000D01*
X80898102Y-51954774D01*
X80709744Y-52032795D01*
X80540226Y-52146063D01*
X80396063Y-52290226D01*
X80282795Y-52459744D01*
X80204774Y-52648102D01*
X80165000Y-52848061D01*
X80165000Y-53051939D01*
X80204774Y-53251898D01*
X80282795Y-53440256D01*
X80396063Y-53609774D01*
X80540226Y-53753937D01*
X80709744Y-53867205D01*
X80898102Y-53945226D01*
X81098061Y-53985000D01*
X81160199Y-53985000D01*
X81786201Y-54611003D01*
X81809999Y-54640001D01*
X81838997Y-54663799D01*
X81925724Y-54734974D01*
X82057753Y-54805546D01*
X82201014Y-54849003D01*
X82350000Y-54863677D01*
X82387333Y-54860000D01*
X83696289Y-54860000D01*
X83740226Y-54903937D01*
X83909744Y-55017205D01*
X84098102Y-55095226D01*
X84249798Y-55125400D01*
X80289003Y-59086196D01*
X80259999Y-59109999D01*
X80218965Y-59160000D01*
X80165026Y-59225724D01*
X80129471Y-59292243D01*
X80094454Y-59357754D01*
X80050997Y-59501015D01*
X80040000Y-59612668D01*
X80040000Y-59612678D01*
X80036324Y-59650000D01*
X80040000Y-59687323D01*
X80040001Y-62915200D01*
X79910000Y-62785199D01*
X79910000Y-57153711D01*
X79953937Y-57109774D01*
X80067205Y-56940256D01*
X80145226Y-56751898D01*
X80185000Y-56551939D01*
X80185000Y-56348061D01*
X80145226Y-56148102D01*
X80067205Y-55959744D01*
X79953937Y-55790226D01*
X79809774Y-55646063D01*
X79640256Y-55532795D01*
X79451898Y-55454774D01*
X79251939Y-55415000D01*
X79048061Y-55415000D01*
X78848102Y-55454774D01*
X78659744Y-55532795D01*
X78490226Y-55646063D01*
X78346063Y-55790226D01*
X78232795Y-55959744D01*
X78154774Y-56148102D01*
X78115000Y-56348061D01*
X78115000Y-56551939D01*
X78154774Y-56751898D01*
X78232795Y-56940256D01*
X78346063Y-57109774D01*
X78390001Y-57153712D01*
X78390000Y-63062677D01*
X78386324Y-63100000D01*
X78390000Y-63137322D01*
X78390000Y-63137332D01*
X78400997Y-63248985D01*
X78424572Y-63326703D01*
X78250006Y-63309509D01*
X78027508Y-63331423D01*
X77813560Y-63396323D01*
X77616384Y-63501715D01*
X77443558Y-63643550D01*
X77301722Y-63816375D01*
X77196330Y-64013551D01*
X77131428Y-64227499D01*
X77109513Y-64449998D01*
X77131427Y-64672496D01*
X77196327Y-64886444D01*
X77301719Y-65083620D01*
X77408014Y-65213141D01*
X77808013Y-65613142D01*
X77808015Y-65613144D01*
X90832797Y-78637927D01*
X90748102Y-78654774D01*
X90559744Y-78732795D01*
X90390226Y-78846063D01*
X90346289Y-78890000D01*
X88187333Y-78890000D01*
X88150000Y-78886323D01*
X88112667Y-78890000D01*
X85414802Y-78890000D01*
X73610000Y-67085199D01*
X73610000Y-61153711D01*
X73653937Y-61109774D01*
X73767205Y-60940256D01*
X73845226Y-60751898D01*
X73885000Y-60551939D01*
X73885000Y-60348061D01*
X73845226Y-60148102D01*
X73767205Y-59959744D01*
X73653937Y-59790226D01*
X73588709Y-59724998D01*
X73653937Y-59659770D01*
X73767205Y-59490252D01*
X73845226Y-59301894D01*
X73885000Y-59101935D01*
X73885000Y-58898057D01*
X73845226Y-58698098D01*
X73767205Y-58509740D01*
X73653937Y-58340222D01*
X73588713Y-58274998D01*
X73653937Y-58209774D01*
X73767205Y-58040256D01*
X73845226Y-57851898D01*
X73885000Y-57651939D01*
X73885000Y-57448061D01*
X73845226Y-57248102D01*
X73767205Y-57059744D01*
X73653937Y-56890226D01*
X73509774Y-56746063D01*
X73340256Y-56632795D01*
X73151898Y-56554774D01*
X72951939Y-56515000D01*
X72748061Y-56515000D01*
X72548102Y-56554774D01*
X72359744Y-56632795D01*
X72190226Y-56746063D01*
X72046063Y-56890226D01*
X71932795Y-57059744D01*
X71854774Y-57248102D01*
X71815000Y-57448061D01*
X71815000Y-57510198D01*
X70288998Y-59036201D01*
X70260000Y-59059999D01*
X70236202Y-59088997D01*
X70236201Y-59088998D01*
X70165026Y-59175724D01*
X70094454Y-59307754D01*
X70069810Y-59388999D01*
X70050998Y-59451014D01*
X70046073Y-59501014D01*
X70036324Y-59600000D01*
X70040001Y-59637332D01*
X70040001Y-61428728D01*
X69956043Y-61372629D01*
X69703989Y-61268225D01*
X69436411Y-61215000D01*
X69163589Y-61215000D01*
X68896011Y-61268225D01*
X68643957Y-61372629D01*
X68417114Y-61524201D01*
X68224201Y-61717114D01*
X68072629Y-61943957D01*
X67968225Y-62196011D01*
X67915000Y-62463589D01*
X67915000Y-62736411D01*
X67968225Y-63003989D01*
X68072629Y-63256043D01*
X68224201Y-63482886D01*
X68417114Y-63675799D01*
X68643957Y-63827371D01*
X68896011Y-63931775D01*
X69163589Y-63985000D01*
X69436411Y-63985000D01*
X69703989Y-63931775D01*
X69956043Y-63827371D01*
X70040001Y-63771272D01*
X70040000Y-66308728D01*
X69956043Y-66252629D01*
X69703989Y-66148225D01*
X69436411Y-66095000D01*
X69163589Y-66095000D01*
X68896011Y-66148225D01*
X68643957Y-66252629D01*
X68417114Y-66404201D01*
X68224201Y-66597114D01*
X68072629Y-66823957D01*
X67968225Y-67076011D01*
X67915000Y-67343589D01*
X67915000Y-67616411D01*
X67968225Y-67883989D01*
X68072629Y-68136043D01*
X68224201Y-68362886D01*
X68417114Y-68555799D01*
X68643957Y-68707371D01*
X68896011Y-68811775D01*
X69163589Y-68865000D01*
X69436411Y-68865000D01*
X69703989Y-68811775D01*
X69956043Y-68707371D01*
X70182886Y-68555799D01*
X70232361Y-68506324D01*
X70259999Y-68540001D01*
X70289003Y-68563804D01*
X85490001Y-83764803D01*
X85490000Y-100347406D01*
X85420987Y-100384294D01*
X85194866Y-100569866D01*
X85009294Y-100795986D01*
X84871401Y-101053966D01*
X84786487Y-101333889D01*
X84765000Y-101552050D01*
X84765000Y-101947949D01*
X84771765Y-102016633D01*
X83485000Y-100729869D01*
X83485000Y-83105741D01*
X83490490Y-83049999D01*
X83485000Y-82994257D01*
X83485000Y-82994248D01*
X83468577Y-82827501D01*
X83403676Y-82613553D01*
X83298284Y-82416377D01*
X83156449Y-82243551D01*
X83113141Y-82208009D01*
X75491996Y-74586865D01*
X75456449Y-74543551D01*
X75283623Y-74401716D01*
X75086447Y-74296324D01*
X74872499Y-74231423D01*
X74705752Y-74215000D01*
X74705751Y-74215000D01*
X74650000Y-74209509D01*
X74594249Y-74215000D01*
X58185000Y-74215000D01*
X58185000Y-64300000D01*
X59361928Y-64300000D01*
X59374188Y-64424482D01*
X59410498Y-64544180D01*
X59469463Y-64654494D01*
X59548815Y-64751185D01*
X59645506Y-64830537D01*
X59755820Y-64889502D01*
X59875518Y-64925812D01*
X60000000Y-64938072D01*
X60564250Y-64935000D01*
X60723000Y-64776250D01*
X60723000Y-63577000D01*
X60977000Y-63577000D01*
X60977000Y-64776250D01*
X61135750Y-64935000D01*
X61700000Y-64938072D01*
X61824482Y-64925812D01*
X61944180Y-64889502D01*
X62054494Y-64830537D01*
X62151185Y-64751185D01*
X62230537Y-64654494D01*
X62289502Y-64544180D01*
X62325812Y-64424482D01*
X62338072Y-64300000D01*
X62335000Y-63735750D01*
X62176250Y-63577000D01*
X60977000Y-63577000D01*
X60723000Y-63577000D01*
X59523750Y-63577000D01*
X59365000Y-63735750D01*
X59361928Y-64300000D01*
X58185000Y-64300000D01*
X58185000Y-62600000D01*
X59361928Y-62600000D01*
X59365000Y-63164250D01*
X59523750Y-63323000D01*
X60723000Y-63323000D01*
X60723000Y-61037000D01*
X60977000Y-61037000D01*
X60977000Y-63323000D01*
X62176250Y-63323000D01*
X62335000Y-63164250D01*
X62338072Y-62600000D01*
X62325812Y-62475518D01*
X62289502Y-62355820D01*
X62230537Y-62245506D01*
X62151185Y-62148815D01*
X62054494Y-62069463D01*
X61944180Y-62010498D01*
X61863534Y-61986034D01*
X61947588Y-61910269D01*
X62121641Y-61676920D01*
X62246825Y-61414099D01*
X62291476Y-61266890D01*
X62170155Y-61037000D01*
X60977000Y-61037000D01*
X60723000Y-61037000D01*
X59529845Y-61037000D01*
X59408524Y-61266890D01*
X59453175Y-61414099D01*
X59578359Y-61676920D01*
X59752412Y-61910269D01*
X59836466Y-61986034D01*
X59755820Y-62010498D01*
X59645506Y-62069463D01*
X59548815Y-62148815D01*
X59469463Y-62245506D01*
X59410498Y-62355820D01*
X59374188Y-62475518D01*
X59361928Y-62600000D01*
X58185000Y-62600000D01*
X58185000Y-59505000D01*
X59884893Y-59505000D01*
X59903368Y-59523475D01*
X60085534Y-59645195D01*
X59968645Y-59714822D01*
X59752412Y-59909731D01*
X59578359Y-60143080D01*
X59453175Y-60405901D01*
X59408524Y-60553110D01*
X59529845Y-60783000D01*
X60723000Y-60783000D01*
X60723000Y-60763000D01*
X60977000Y-60763000D01*
X60977000Y-60783000D01*
X62170155Y-60783000D01*
X62291476Y-60553110D01*
X62246825Y-60405901D01*
X62121641Y-60143080D01*
X61947588Y-59909731D01*
X61731355Y-59714822D01*
X61614466Y-59645195D01*
X61796632Y-59523475D01*
X62003475Y-59316632D01*
X62165990Y-59073411D01*
X62277932Y-58803158D01*
X62335000Y-58516260D01*
X62335000Y-58490131D01*
X64740132Y-56085000D01*
X66755752Y-56085000D01*
X66922499Y-56068577D01*
X67136447Y-56003676D01*
X67333623Y-55898284D01*
X67506449Y-55756449D01*
X67544569Y-55710000D01*
X68212678Y-55710000D01*
X68250000Y-55713676D01*
X68287322Y-55710000D01*
X68287333Y-55710000D01*
X68398986Y-55699003D01*
X68542247Y-55655546D01*
X68674276Y-55584974D01*
X68790001Y-55490001D01*
X68813804Y-55460997D01*
X73789802Y-50485000D01*
X73851939Y-50485000D01*
X74051898Y-50445226D01*
X74240256Y-50367205D01*
X74409774Y-50253937D01*
X74453711Y-50210000D01*
X82946289Y-50210000D01*
X82990226Y-50253937D01*
X83159744Y-50367205D01*
X83348102Y-50445226D01*
X83548061Y-50485000D01*
X83751939Y-50485000D01*
X83951898Y-50445226D01*
X84140256Y-50367205D01*
X84309774Y-50253937D01*
X84453937Y-50109774D01*
X84567205Y-49940256D01*
X84645226Y-49751898D01*
X84685000Y-49551939D01*
X84685000Y-49348061D01*
X84645226Y-49148102D01*
X84567205Y-48959744D01*
X84453937Y-48790226D01*
X84309774Y-48646063D01*
X84140256Y-48532795D01*
X83951898Y-48454774D01*
X83751939Y-48415000D01*
X83548061Y-48415000D01*
X83348102Y-48454774D01*
X83159744Y-48532795D01*
X82990226Y-48646063D01*
X82946289Y-48690000D01*
X78204801Y-48690000D01*
X78653592Y-48241209D01*
X78873740Y-48285000D01*
X79166260Y-48285000D01*
X79453158Y-48227932D01*
X79723411Y-48115990D01*
X79966632Y-47953475D01*
X80173475Y-47746632D01*
X80290000Y-47572240D01*
X80406525Y-47746632D01*
X80613368Y-47953475D01*
X80856589Y-48115990D01*
X81126842Y-48227932D01*
X81413740Y-48285000D01*
X81706260Y-48285000D01*
X81993158Y-48227932D01*
X82263411Y-48115990D01*
X82506632Y-47953475D01*
X82713475Y-47746632D01*
X82830000Y-47572240D01*
X82946525Y-47746632D01*
X83153368Y-47953475D01*
X83396589Y-48115990D01*
X83666842Y-48227932D01*
X83953740Y-48285000D01*
X84246260Y-48285000D01*
X84533158Y-48227932D01*
X84803411Y-48115990D01*
X85046632Y-47953475D01*
X85253475Y-47746632D01*
X85370000Y-47572240D01*
X85486525Y-47746632D01*
X85693368Y-47953475D01*
X85936589Y-48115990D01*
X86206842Y-48227932D01*
X86493740Y-48285000D01*
X86786260Y-48285000D01*
X87073158Y-48227932D01*
X87343411Y-48115990D01*
X87586632Y-47953475D01*
X87793475Y-47746632D01*
X87915195Y-47564466D01*
X87984822Y-47681355D01*
X88179731Y-47897588D01*
X88413080Y-48071641D01*
X88675901Y-48196825D01*
X88823110Y-48241476D01*
X89053000Y-48120155D01*
X89053000Y-46927000D01*
X89033000Y-46927000D01*
X89033000Y-46673000D01*
X89053000Y-46673000D01*
X89053000Y-46653000D01*
X89307000Y-46653000D01*
X89307000Y-46673000D01*
X89327000Y-46673000D01*
X89327000Y-46927000D01*
X89307000Y-46927000D01*
X89307000Y-48120155D01*
X89536890Y-48241476D01*
X89684099Y-48196825D01*
X89946920Y-48071641D01*
X90180269Y-47897588D01*
X90375178Y-47681355D01*
X90444805Y-47564466D01*
X90566525Y-47746632D01*
X90773368Y-47953475D01*
X91016589Y-48115990D01*
X91286842Y-48227932D01*
X91573740Y-48285000D01*
X91866260Y-48285000D01*
X92153158Y-48227932D01*
X92423411Y-48115990D01*
X92666632Y-47953475D01*
X92873475Y-47746632D01*
X92990000Y-47572240D01*
X93106525Y-47746632D01*
X93313368Y-47953475D01*
X93556589Y-48115990D01*
X93826842Y-48227932D01*
X94113740Y-48285000D01*
X94406260Y-48285000D01*
X94693158Y-48227932D01*
X94963411Y-48115990D01*
X95206632Y-47953475D01*
X95413475Y-47746632D01*
X95530000Y-47572240D01*
X95646525Y-47746632D01*
X95853368Y-47953475D01*
X96096589Y-48115990D01*
X96366842Y-48227932D01*
X96653740Y-48285000D01*
X96946260Y-48285000D01*
X97233158Y-48227932D01*
X97503411Y-48115990D01*
X97746632Y-47953475D01*
X97953475Y-47746632D01*
X98070000Y-47572240D01*
X98186525Y-47746632D01*
X98393368Y-47953475D01*
X98636589Y-48115990D01*
X98906842Y-48227932D01*
X99193740Y-48285000D01*
X99486260Y-48285000D01*
X99773158Y-48227932D01*
X100043411Y-48115990D01*
X100286632Y-47953475D01*
X100493475Y-47746632D01*
X100610000Y-47572240D01*
X100726525Y-47746632D01*
X100933368Y-47953475D01*
X101176589Y-48115990D01*
X101446842Y-48227932D01*
X101733740Y-48285000D01*
X102026260Y-48285000D01*
X102313158Y-48227932D01*
X102583411Y-48115990D01*
X102826632Y-47953475D01*
X103033475Y-47746632D01*
X103150000Y-47572240D01*
X103266525Y-47746632D01*
X103473368Y-47953475D01*
X103716589Y-48115990D01*
X103986842Y-48227932D01*
X104273740Y-48285000D01*
X104566260Y-48285000D01*
X104853158Y-48227932D01*
X105123411Y-48115990D01*
X105366632Y-47953475D01*
X105573475Y-47746632D01*
X105695195Y-47564466D01*
X105764822Y-47681355D01*
X105959731Y-47897588D01*
X106193080Y-48071641D01*
X106455901Y-48196825D01*
X106603110Y-48241476D01*
X106833000Y-48120155D01*
X106833000Y-46927000D01*
X106813000Y-46927000D01*
X106813000Y-46673000D01*
X106833000Y-46673000D01*
X106833000Y-46653000D01*
X107087000Y-46653000D01*
X107087000Y-46673000D01*
X107107000Y-46673000D01*
X107107000Y-46927000D01*
X107087000Y-46927000D01*
X107087000Y-48120155D01*
X107316890Y-48241476D01*
X107464099Y-48196825D01*
X107726920Y-48071641D01*
X107960269Y-47897588D01*
X108155178Y-47681355D01*
X108304157Y-47431252D01*
X108401481Y-47156891D01*
X108377611Y-47111415D01*
X111125000Y-49858805D01*
X111124999Y-59103247D01*
X110953158Y-59032068D01*
X110666260Y-58975000D01*
X110373740Y-58975000D01*
X110086842Y-59032068D01*
X109816589Y-59144010D01*
X109573368Y-59306525D01*
X109366525Y-59513368D01*
X109250000Y-59687760D01*
X109133475Y-59513368D01*
X108926632Y-59306525D01*
X108683411Y-59144010D01*
X108413158Y-59032068D01*
X108126260Y-58975000D01*
X107833740Y-58975000D01*
X107546842Y-59032068D01*
X107276589Y-59144010D01*
X107033368Y-59306525D01*
X106826525Y-59513368D01*
X106710000Y-59687760D01*
X106593475Y-59513368D01*
X106386632Y-59306525D01*
X106143411Y-59144010D01*
X105873158Y-59032068D01*
X105586260Y-58975000D01*
X105293740Y-58975000D01*
X105006842Y-59032068D01*
X104736589Y-59144010D01*
X104493368Y-59306525D01*
X104286525Y-59513368D01*
X104164805Y-59695534D01*
X104095178Y-59578645D01*
X103900269Y-59362412D01*
X103666920Y-59188359D01*
X103404099Y-59063175D01*
X103256890Y-59018524D01*
X103027000Y-59139845D01*
X103027000Y-60333000D01*
X103047000Y-60333000D01*
X103047000Y-60587000D01*
X103027000Y-60587000D01*
X103027000Y-60607000D01*
X102773000Y-60607000D01*
X102773000Y-60587000D01*
X101579186Y-60587000D01*
X101458519Y-60816891D01*
X101555843Y-61091252D01*
X101704822Y-61341355D01*
X101881626Y-61537502D01*
X101805820Y-61560498D01*
X101695506Y-61619463D01*
X101598815Y-61698815D01*
X101519463Y-61795506D01*
X101460498Y-61905820D01*
X101424188Y-62025518D01*
X101411928Y-62150000D01*
X101411928Y-63850000D01*
X101424188Y-63974482D01*
X101460498Y-64094180D01*
X101519463Y-64204494D01*
X101598815Y-64301185D01*
X101695506Y-64380537D01*
X101805820Y-64439502D01*
X101925518Y-64475812D01*
X102050000Y-64488072D01*
X103750000Y-64488072D01*
X103874482Y-64475812D01*
X103994180Y-64439502D01*
X104104494Y-64380537D01*
X104201185Y-64301185D01*
X104280537Y-64204494D01*
X104339502Y-64094180D01*
X104361513Y-64021620D01*
X104493368Y-64153475D01*
X104736589Y-64315990D01*
X105006842Y-64427932D01*
X105293740Y-64485000D01*
X105586260Y-64485000D01*
X105873158Y-64427932D01*
X106143411Y-64315990D01*
X106386632Y-64153475D01*
X106593475Y-63946632D01*
X106710000Y-63772240D01*
X106826525Y-63946632D01*
X107033368Y-64153475D01*
X107276589Y-64315990D01*
X107546842Y-64427932D01*
X107833740Y-64485000D01*
X108126260Y-64485000D01*
X108413158Y-64427932D01*
X108683411Y-64315990D01*
X108926632Y-64153475D01*
X109133475Y-63946632D01*
X109250000Y-63772240D01*
X109366525Y-63946632D01*
X109573368Y-64153475D01*
X109816589Y-64315990D01*
X110086842Y-64427932D01*
X110373740Y-64485000D01*
X110666260Y-64485000D01*
X110953158Y-64427932D01*
X111223411Y-64315990D01*
X111466632Y-64153475D01*
X111673475Y-63946632D01*
X111790000Y-63772240D01*
X111906525Y-63946632D01*
X112113368Y-64153475D01*
X112356589Y-64315990D01*
X112626842Y-64427932D01*
X112913740Y-64485000D01*
X113206260Y-64485000D01*
X113493158Y-64427932D01*
X113763411Y-64315990D01*
X114006632Y-64153475D01*
X114213475Y-63946632D01*
X114375990Y-63703411D01*
X114487932Y-63433158D01*
X114545000Y-63146260D01*
X114545000Y-62853740D01*
X114487932Y-62566842D01*
X114375990Y-62296589D01*
X114213475Y-62053368D01*
X114006632Y-61846525D01*
X113832240Y-61730000D01*
X114006632Y-61613475D01*
X114213475Y-61406632D01*
X114375990Y-61163411D01*
X114487932Y-60893158D01*
X114545000Y-60606260D01*
X114545000Y-60313740D01*
X114487932Y-60026842D01*
X114375990Y-59756589D01*
X114213475Y-59513368D01*
X114006632Y-59306525D01*
X113763411Y-59144010D01*
X113493158Y-59032068D01*
X113206260Y-58975000D01*
X112913740Y-58975000D01*
X112644999Y-59028456D01*
X112644999Y-49581323D01*
X112648675Y-49544000D01*
X112644999Y-49506677D01*
X112644999Y-49506668D01*
X112634002Y-49395015D01*
X112590545Y-49251754D01*
X112519973Y-49119725D01*
X112467303Y-49055546D01*
X112448798Y-49032997D01*
X112448794Y-49032993D01*
X112425000Y-49004000D01*
X112396007Y-48980206D01*
X111900801Y-48485000D01*
X112093997Y-48485000D01*
X112670692Y-48370288D01*
X113213928Y-48145273D01*
X113702826Y-47818601D01*
X114118601Y-47402826D01*
X114445273Y-46913928D01*
X114640001Y-46443812D01*
X114640000Y-67556186D01*
%TA.AperFunction,Conductor*%
D23*
G36*
X114640000Y-67556186D02*
G01*
X114445273Y-67086072D01*
X114118601Y-66597174D01*
X113702826Y-66181399D01*
X113213928Y-65854727D01*
X112670692Y-65629712D01*
X112093997Y-65515000D01*
X111506003Y-65515000D01*
X110929308Y-65629712D01*
X110386072Y-65854727D01*
X109897174Y-66181399D01*
X109481399Y-66597174D01*
X109154727Y-67086072D01*
X108929712Y-67629308D01*
X108815000Y-68206003D01*
X108815000Y-68793997D01*
X108929712Y-69370692D01*
X109154727Y-69913928D01*
X109481399Y-70402826D01*
X109897174Y-70818601D01*
X110386072Y-71145273D01*
X110929308Y-71370288D01*
X111506003Y-71485000D01*
X112093997Y-71485000D01*
X112670692Y-71370288D01*
X113213928Y-71145273D01*
X113702826Y-70818601D01*
X114118601Y-70402826D01*
X114445273Y-69913928D01*
X114640000Y-69443814D01*
X114640001Y-93556188D01*
X114445273Y-93086072D01*
X114118601Y-92597174D01*
X113702826Y-92181399D01*
X113213928Y-91854727D01*
X112670692Y-91629712D01*
X112093997Y-91515000D01*
X111506003Y-91515000D01*
X110929308Y-91629712D01*
X110386072Y-91854727D01*
X109897174Y-92181399D01*
X109481399Y-92597174D01*
X109154727Y-93086072D01*
X108929712Y-93629308D01*
X108815000Y-94206003D01*
X108815000Y-94793997D01*
X108929712Y-95370692D01*
X109154727Y-95913928D01*
X109481399Y-96402826D01*
X109897174Y-96818601D01*
X110386072Y-97145273D01*
X110929308Y-97370288D01*
X111506003Y-97485000D01*
X112093997Y-97485000D01*
X112670692Y-97370288D01*
X113213928Y-97145273D01*
X113702826Y-96818601D01*
X114118601Y-96402826D01*
X114445273Y-95913928D01*
X114640001Y-95443812D01*
X114640001Y-101967711D01*
X114582808Y-102551010D01*
X114422783Y-103081036D01*
X114162860Y-103569880D01*
X113812935Y-103998931D01*
X113386335Y-104351845D01*
X112899320Y-104615173D01*
X112370422Y-104778894D01*
X111789040Y-104840000D01*
X53832279Y-104840000D01*
X53248990Y-104782808D01*
X52718964Y-104622783D01*
X52230120Y-104362860D01*
X51801069Y-104012935D01*
X51448155Y-103586335D01*
X51184827Y-103099320D01*
X51021106Y-102570422D01*
X50960000Y-101989040D01*
X50960000Y-101477050D01*
X53715000Y-101477050D01*
X53715000Y-101922949D01*
X53736487Y-102141110D01*
X53821401Y-102421033D01*
X53959294Y-102679013D01*
X54144866Y-102905134D01*
X54370986Y-103090706D01*
X54628966Y-103228599D01*
X54908889Y-103313513D01*
X55200000Y-103342185D01*
X55491110Y-103313513D01*
X55771033Y-103228599D01*
X56029013Y-103090706D01*
X56249945Y-102909392D01*
X56260498Y-102944180D01*
X56319463Y-103054494D01*
X56398815Y-103151185D01*
X56495506Y-103230537D01*
X56605820Y-103289502D01*
X56725518Y-103325812D01*
X56850000Y-103338072D01*
X57414250Y-103335000D01*
X57573000Y-103176250D01*
X57573000Y-101827000D01*
X57827000Y-101827000D01*
X57827000Y-103176250D01*
X57985750Y-103335000D01*
X58550000Y-103338072D01*
X58674482Y-103325812D01*
X58794180Y-103289502D01*
X58904494Y-103230537D01*
X59001185Y-103151185D01*
X59080537Y-103054494D01*
X59139502Y-102944180D01*
X59175812Y-102824482D01*
X59188072Y-102700000D01*
X59185000Y-101985750D01*
X59026250Y-101827000D01*
X57827000Y-101827000D01*
X57573000Y-101827000D01*
X57553000Y-101827000D01*
X57553000Y-101573000D01*
X57573000Y-101573000D01*
X57573000Y-100223750D01*
X57827000Y-100223750D01*
X57827000Y-101573000D01*
X59026250Y-101573000D01*
X59185000Y-101414250D01*
X59188072Y-100700000D01*
X59175812Y-100575518D01*
X59139502Y-100455820D01*
X59080537Y-100345506D01*
X59001185Y-100248815D01*
X58904494Y-100169463D01*
X58794180Y-100110498D01*
X58674482Y-100074188D01*
X58550000Y-100061928D01*
X57985750Y-100065000D01*
X57827000Y-100223750D01*
X57573000Y-100223750D01*
X57414250Y-100065000D01*
X56850000Y-100061928D01*
X56725518Y-100074188D01*
X56605820Y-100110498D01*
X56495506Y-100169463D01*
X56398815Y-100248815D01*
X56319463Y-100345506D01*
X56260498Y-100455820D01*
X56249945Y-100490608D01*
X56029014Y-100309294D01*
X55771034Y-100171401D01*
X55491111Y-100086487D01*
X55200000Y-100057815D01*
X54908890Y-100086487D01*
X54628967Y-100171401D01*
X54370987Y-100309294D01*
X54144866Y-100494866D01*
X53959294Y-100720986D01*
X53821401Y-100978966D01*
X53736487Y-101258889D01*
X53715000Y-101477050D01*
X50960000Y-101477050D01*
X50960000Y-95443814D01*
X51154727Y-95913928D01*
X51481399Y-96402826D01*
X51897174Y-96818601D01*
X52386072Y-97145273D01*
X52929308Y-97370288D01*
X53506003Y-97485000D01*
X54093997Y-97485000D01*
X54670692Y-97370288D01*
X55213928Y-97145273D01*
X55702826Y-96818601D01*
X56118601Y-96402826D01*
X56445273Y-95913928D01*
X56670288Y-95370692D01*
X56785000Y-94793997D01*
X56785000Y-94206003D01*
X56670288Y-93629308D01*
X56445273Y-93086072D01*
X56118601Y-92597174D01*
X55702826Y-92181399D01*
X55213928Y-91854727D01*
X54670692Y-91629712D01*
X54093997Y-91515000D01*
X53506003Y-91515000D01*
X52929308Y-91629712D01*
X52386072Y-91854727D01*
X51897174Y-92181399D01*
X51481399Y-92597174D01*
X51154727Y-93086072D01*
X50960000Y-93556186D01*
X50960000Y-78750000D01*
X52161928Y-78750000D01*
X52174188Y-78874482D01*
X52210498Y-78994180D01*
X52269463Y-79104494D01*
X52348815Y-79201185D01*
X52445506Y-79280537D01*
X52555820Y-79339502D01*
X52675518Y-79375812D01*
X52800000Y-79388072D01*
X53514250Y-79385000D01*
X53673000Y-79226250D01*
X53673000Y-78027000D01*
X53927000Y-78027000D01*
X53927000Y-79226250D01*
X54085750Y-79385000D01*
X54800000Y-79388072D01*
X54924482Y-79375812D01*
X55044180Y-79339502D01*
X55154494Y-79280537D01*
X55251185Y-79201185D01*
X55330537Y-79104494D01*
X55389502Y-78994180D01*
X55425812Y-78874482D01*
X55438072Y-78750000D01*
X55435000Y-78185750D01*
X55276250Y-78027000D01*
X53927000Y-78027000D01*
X53673000Y-78027000D01*
X52323750Y-78027000D01*
X52165000Y-78185750D01*
X52161928Y-78750000D01*
X50960000Y-78750000D01*
X50960000Y-69443814D01*
X51154727Y-69913928D01*
X51481399Y-70402826D01*
X51897174Y-70818601D01*
X52386072Y-71145273D01*
X52929308Y-71370288D01*
X53506003Y-71485000D01*
X54093997Y-71485000D01*
X54670692Y-71370288D01*
X55213928Y-71145273D01*
X55702826Y-70818601D01*
X55915000Y-70606427D01*
X55915000Y-74215000D01*
X54846892Y-74215000D01*
X54779014Y-74159294D01*
X54521034Y-74021401D01*
X54241111Y-73936487D01*
X54022950Y-73915000D01*
X53577050Y-73915000D01*
X53358889Y-73936487D01*
X53078966Y-74021401D01*
X52820986Y-74159294D01*
X52594866Y-74344866D01*
X52409294Y-74570986D01*
X52271401Y-74828966D01*
X52186487Y-75108889D01*
X52157815Y-75400000D01*
X52186487Y-75691111D01*
X52271401Y-75971034D01*
X52409294Y-76229014D01*
X52590608Y-76449945D01*
X52555820Y-76460498D01*
X52445506Y-76519463D01*
X52348815Y-76598815D01*
X52269463Y-76695506D01*
X52210498Y-76805820D01*
X52174188Y-76925518D01*
X52161928Y-77050000D01*
X52165000Y-77614250D01*
X52323750Y-77773000D01*
X53673000Y-77773000D01*
X53673000Y-77753000D01*
X53927000Y-77753000D01*
X53927000Y-77773000D01*
X55276250Y-77773000D01*
X55435000Y-77614250D01*
X55438072Y-77050000D01*
X55425812Y-76925518D01*
X55389502Y-76805820D01*
X55330537Y-76695506D01*
X55251185Y-76598815D01*
X55154494Y-76519463D01*
X55090019Y-76485000D01*
X74179869Y-76485000D01*
X81215001Y-83520133D01*
X81215000Y-100219697D01*
X81139850Y-100179528D01*
X80973254Y-100128992D01*
X80800000Y-100111928D01*
X79600000Y-100111928D01*
X79426746Y-100128992D01*
X79260150Y-100179528D01*
X79106614Y-100261595D01*
X78972038Y-100372038D01*
X78861595Y-100506614D01*
X78807223Y-100608337D01*
X78755134Y-100544866D01*
X78529014Y-100359294D01*
X78271034Y-100221401D01*
X77991111Y-100136487D01*
X77700000Y-100107815D01*
X77408890Y-100136487D01*
X77128967Y-100221401D01*
X76870987Y-100359294D01*
X76644866Y-100544866D01*
X76459294Y-100770986D01*
X76321401Y-101028966D01*
X76236487Y-101308889D01*
X76215000Y-101527050D01*
X76215000Y-101972949D01*
X76236487Y-102191110D01*
X76321401Y-102471033D01*
X76459294Y-102729013D01*
X76644866Y-102955134D01*
X76870986Y-103140706D01*
X77128966Y-103278599D01*
X77408889Y-103363513D01*
X77700000Y-103392185D01*
X77991110Y-103363513D01*
X78271033Y-103278599D01*
X78529013Y-103140706D01*
X78755134Y-102955134D01*
X78807223Y-102891663D01*
X78861595Y-102993386D01*
X78972038Y-103127962D01*
X79106614Y-103238405D01*
X79260150Y-103320472D01*
X79426746Y-103371008D01*
X79600000Y-103388072D01*
X80800000Y-103388072D01*
X80973254Y-103371008D01*
X81139850Y-103320472D01*
X81293386Y-103238405D01*
X81427962Y-103127962D01*
X81538405Y-102993386D01*
X81620472Y-102839850D01*
X81671008Y-102673254D01*
X81688072Y-102500000D01*
X81688072Y-102143203D01*
X83958009Y-104413141D01*
X83993551Y-104456449D01*
X84166377Y-104598284D01*
X84363553Y-104703676D01*
X84527705Y-104753471D01*
X84577500Y-104768577D01*
X84598493Y-104770644D01*
X84744248Y-104785000D01*
X84744255Y-104785000D01*
X84799999Y-104790490D01*
X84855743Y-104785000D01*
X88694249Y-104785000D01*
X88750000Y-104790491D01*
X88805752Y-104785000D01*
X98344249Y-104785000D01*
X98400000Y-104790491D01*
X98455751Y-104785000D01*
X98455752Y-104785000D01*
X98622499Y-104768577D01*
X98836447Y-104703676D01*
X99033623Y-104598284D01*
X99206449Y-104456449D01*
X99241996Y-104413135D01*
X100436555Y-103218577D01*
X100629013Y-103115706D01*
X100849945Y-102934392D01*
X100860498Y-102969180D01*
X100919463Y-103079494D01*
X100998815Y-103176185D01*
X101095506Y-103255537D01*
X101205820Y-103314502D01*
X101325518Y-103350812D01*
X101450000Y-103363072D01*
X102014250Y-103360000D01*
X102173000Y-103201250D01*
X102173000Y-101877000D01*
X102427000Y-101877000D01*
X102427000Y-103201250D01*
X102585750Y-103360000D01*
X103150000Y-103363072D01*
X103274482Y-103350812D01*
X103394180Y-103314502D01*
X103504494Y-103255537D01*
X103601185Y-103176185D01*
X103680537Y-103079494D01*
X103739502Y-102969180D01*
X103775812Y-102849482D01*
X103788072Y-102725000D01*
X103785000Y-102035750D01*
X103626250Y-101877000D01*
X102427000Y-101877000D01*
X102173000Y-101877000D01*
X102153000Y-101877000D01*
X102153000Y-101623000D01*
X102173000Y-101623000D01*
X102173000Y-100298750D01*
X102427000Y-100298750D01*
X102427000Y-101623000D01*
X103626250Y-101623000D01*
X103722200Y-101527050D01*
X106865000Y-101527050D01*
X106865000Y-101972949D01*
X106886487Y-102191110D01*
X106971401Y-102471033D01*
X107109294Y-102729013D01*
X107294866Y-102955134D01*
X107520986Y-103140706D01*
X107778966Y-103278599D01*
X108058889Y-103363513D01*
X108350000Y-103392185D01*
X108641110Y-103363513D01*
X108921033Y-103278599D01*
X109179013Y-103140706D01*
X109405134Y-102955134D01*
X109457223Y-102891663D01*
X109511595Y-102993386D01*
X109622038Y-103127962D01*
X109756614Y-103238405D01*
X109910150Y-103320472D01*
X110076746Y-103371008D01*
X110250000Y-103388072D01*
X111450000Y-103388072D01*
X111623254Y-103371008D01*
X111789850Y-103320472D01*
X111943386Y-103238405D01*
X112077962Y-103127962D01*
X112188405Y-102993386D01*
X112270472Y-102839850D01*
X112321008Y-102673254D01*
X112338072Y-102500000D01*
X112338072Y-101000000D01*
X112321008Y-100826746D01*
X112270472Y-100660150D01*
X112188405Y-100506614D01*
X112077962Y-100372038D01*
X111943386Y-100261595D01*
X111789850Y-100179528D01*
X111623254Y-100128992D01*
X111450000Y-100111928D01*
X110250000Y-100111928D01*
X110076746Y-100128992D01*
X109910150Y-100179528D01*
X109756614Y-100261595D01*
X109622038Y-100372038D01*
X109511595Y-100506614D01*
X109457223Y-100608337D01*
X109405134Y-100544866D01*
X109179014Y-100359294D01*
X108921034Y-100221401D01*
X108641111Y-100136487D01*
X108350000Y-100107815D01*
X108058890Y-100136487D01*
X107778967Y-100221401D01*
X107520987Y-100359294D01*
X107294866Y-100544866D01*
X107109294Y-100770986D01*
X106971401Y-101028966D01*
X106886487Y-101308889D01*
X106865000Y-101527050D01*
X103722200Y-101527050D01*
X103785000Y-101464250D01*
X103788072Y-100775000D01*
X103775812Y-100650518D01*
X103739502Y-100530820D01*
X103680537Y-100420506D01*
X103601185Y-100323815D01*
X103504494Y-100244463D01*
X103394180Y-100185498D01*
X103274482Y-100149188D01*
X103150000Y-100136928D01*
X102585750Y-100140000D01*
X102427000Y-100298750D01*
X102173000Y-100298750D01*
X102014250Y-100140000D01*
X101450000Y-100136928D01*
X101325518Y-100149188D01*
X101205820Y-100185498D01*
X101095506Y-100244463D01*
X100998815Y-100323815D01*
X100919463Y-100420506D01*
X100885000Y-100484981D01*
X100885000Y-97470131D01*
X103523141Y-94831991D01*
X103566449Y-94796449D01*
X103708284Y-94623623D01*
X103813676Y-94426447D01*
X103878577Y-94212499D01*
X103895000Y-94045752D01*
X103900491Y-93990000D01*
X103895000Y-93934248D01*
X103895000Y-88825000D01*
X108044248Y-88825000D01*
X108100000Y-88830491D01*
X108155751Y-88825000D01*
X108155752Y-88825000D01*
X108322499Y-88808577D01*
X108536447Y-88743676D01*
X108733623Y-88638284D01*
X108906449Y-88496449D01*
X108941993Y-88453139D01*
X108991989Y-88403143D01*
X109098284Y-88273622D01*
X109203676Y-88076446D01*
X109268577Y-87862498D01*
X109290491Y-87640000D01*
X109268577Y-87417501D01*
X109235000Y-87306813D01*
X109235000Y-78985000D01*
X110967183Y-78985000D01*
X111095986Y-79090706D01*
X111113374Y-79100000D01*
X111095986Y-79109294D01*
X110869866Y-79294866D01*
X110684294Y-79520986D01*
X110546401Y-79778966D01*
X110461487Y-80058889D01*
X110432815Y-80350000D01*
X110461487Y-80641111D01*
X110546401Y-80921034D01*
X110684294Y-81179014D01*
X110869866Y-81405134D01*
X111095986Y-81590706D01*
X111113374Y-81600000D01*
X111095986Y-81609294D01*
X110869866Y-81794866D01*
X110684294Y-82020986D01*
X110546401Y-82278966D01*
X110461487Y-82558889D01*
X110432815Y-82850000D01*
X110461487Y-83141111D01*
X110546401Y-83421034D01*
X110684294Y-83679014D01*
X110869866Y-83905134D01*
X111095986Y-84090706D01*
X111353966Y-84228599D01*
X111633889Y-84313513D01*
X111852050Y-84335000D01*
X112247950Y-84335000D01*
X112466111Y-84313513D01*
X112746034Y-84228599D01*
X113004014Y-84090706D01*
X113230134Y-83905134D01*
X113415706Y-83679014D01*
X113553599Y-83421034D01*
X113638513Y-83141111D01*
X113667185Y-82850000D01*
X113638513Y-82558889D01*
X113553599Y-82278966D01*
X113415706Y-82020986D01*
X113230134Y-81794866D01*
X113004014Y-81609294D01*
X112986626Y-81600000D01*
X113004014Y-81590706D01*
X113230134Y-81405134D01*
X113415706Y-81179014D01*
X113553599Y-80921034D01*
X113638513Y-80641111D01*
X113667185Y-80350000D01*
X113638513Y-80058889D01*
X113553599Y-79778966D01*
X113415706Y-79520986D01*
X113230134Y-79294866D01*
X113004014Y-79109294D01*
X112986626Y-79100000D01*
X113004014Y-79090706D01*
X113230134Y-78905134D01*
X113415706Y-78679014D01*
X113553599Y-78421034D01*
X113638513Y-78141111D01*
X113667185Y-77850000D01*
X113638513Y-77558889D01*
X113553599Y-77278966D01*
X113415706Y-77020986D01*
X113234392Y-76800055D01*
X113269180Y-76789502D01*
X113379494Y-76730537D01*
X113476185Y-76651185D01*
X113555537Y-76554494D01*
X113614502Y-76444180D01*
X113650812Y-76324482D01*
X113663072Y-76200000D01*
X113660000Y-75635750D01*
X113501250Y-75477000D01*
X112177000Y-75477000D01*
X112177000Y-75497000D01*
X111923000Y-75497000D01*
X111923000Y-75477000D01*
X110598750Y-75477000D01*
X110440000Y-75635750D01*
X110436928Y-76200000D01*
X110449188Y-76324482D01*
X110485498Y-76444180D01*
X110544463Y-76554494D01*
X110623815Y-76651185D01*
X110701574Y-76715000D01*
X108520132Y-76715000D01*
X107641995Y-75836864D01*
X107606449Y-75793551D01*
X107433623Y-75651716D01*
X107236447Y-75546324D01*
X107022499Y-75481423D01*
X106855752Y-75465000D01*
X106855751Y-75465000D01*
X106800000Y-75459509D01*
X106744249Y-75465000D01*
X103744248Y-75465000D01*
X103577501Y-75481423D01*
X103363553Y-75546324D01*
X103166377Y-75651716D01*
X102993551Y-75793551D01*
X102851716Y-75966377D01*
X102746324Y-76163553D01*
X102681423Y-76377501D01*
X102659509Y-76600000D01*
X102681423Y-76822499D01*
X102746324Y-77036447D01*
X102851716Y-77233623D01*
X102993551Y-77406449D01*
X103166377Y-77548284D01*
X103363553Y-77653676D01*
X103577501Y-77718577D01*
X103744248Y-77735000D01*
X106329868Y-77735000D01*
X106965001Y-78370133D01*
X106965000Y-86555000D01*
X103895000Y-86555000D01*
X103895000Y-85608728D01*
X103919463Y-85654494D01*
X103998815Y-85751185D01*
X104095506Y-85830537D01*
X104205820Y-85889502D01*
X104325518Y-85925812D01*
X104450000Y-85938072D01*
X106150000Y-85938072D01*
X106274482Y-85925812D01*
X106394180Y-85889502D01*
X106504494Y-85830537D01*
X106601185Y-85751185D01*
X106680537Y-85654494D01*
X106739502Y-85544180D01*
X106775812Y-85424482D01*
X106788072Y-85300000D01*
X106788072Y-83600000D01*
X106775812Y-83475518D01*
X106739502Y-83355820D01*
X106680537Y-83245506D01*
X106601185Y-83148815D01*
X106504494Y-83069463D01*
X106394180Y-83010498D01*
X106321620Y-82988487D01*
X106453475Y-82856632D01*
X106615990Y-82613411D01*
X106727932Y-82343158D01*
X106785000Y-82056260D01*
X106785000Y-81763740D01*
X106727932Y-81476842D01*
X106615990Y-81206589D01*
X106453475Y-80963368D01*
X106246632Y-80756525D01*
X106072240Y-80640000D01*
X106246632Y-80523475D01*
X106453475Y-80316632D01*
X106615990Y-80073411D01*
X106727932Y-79803158D01*
X106785000Y-79516260D01*
X106785000Y-79223740D01*
X106727932Y-78936842D01*
X106615990Y-78666589D01*
X106453475Y-78423368D01*
X106246632Y-78216525D01*
X106003411Y-78054010D01*
X105733158Y-77942068D01*
X105446260Y-77885000D01*
X105153740Y-77885000D01*
X104866842Y-77942068D01*
X104596589Y-78054010D01*
X104353368Y-78216525D01*
X104146525Y-78423368D01*
X104028900Y-78599406D01*
X103857588Y-78369731D01*
X103641355Y-78174822D01*
X103391252Y-78025843D01*
X103116891Y-77928519D01*
X102887000Y-78049186D01*
X102887000Y-79243000D01*
X102907000Y-79243000D01*
X102907000Y-79497000D01*
X102887000Y-79497000D01*
X102887000Y-79517000D01*
X102633000Y-79517000D01*
X102633000Y-79497000D01*
X101439845Y-79497000D01*
X101318524Y-79726890D01*
X101336150Y-79785001D01*
X96909803Y-79785001D01*
X96137912Y-79013110D01*
X101318524Y-79013110D01*
X101439845Y-79243000D01*
X102633000Y-79243000D01*
X102633000Y-78049186D01*
X102403109Y-77928519D01*
X102128748Y-78025843D01*
X101878645Y-78174822D01*
X101662412Y-78369731D01*
X101488359Y-78603080D01*
X101363175Y-78865901D01*
X101318524Y-79013110D01*
X96137912Y-79013110D01*
X91624802Y-74500000D01*
X110436928Y-74500000D01*
X110440000Y-75064250D01*
X110598750Y-75223000D01*
X111923000Y-75223000D01*
X111923000Y-74023750D01*
X112177000Y-74023750D01*
X112177000Y-75223000D01*
X113501250Y-75223000D01*
X113660000Y-75064250D01*
X113663072Y-74500000D01*
X113650812Y-74375518D01*
X113614502Y-74255820D01*
X113555537Y-74145506D01*
X113476185Y-74048815D01*
X113379494Y-73969463D01*
X113269180Y-73910498D01*
X113149482Y-73874188D01*
X113025000Y-73861928D01*
X112335750Y-73865000D01*
X112177000Y-74023750D01*
X111923000Y-74023750D01*
X111764250Y-73865000D01*
X111075000Y-73861928D01*
X110950518Y-73874188D01*
X110830820Y-73910498D01*
X110720506Y-73969463D01*
X110623815Y-74048815D01*
X110544463Y-74145506D01*
X110485498Y-74255820D01*
X110449188Y-74375518D01*
X110436928Y-74500000D01*
X91624802Y-74500000D01*
X81519255Y-64394454D01*
X81603937Y-64309772D01*
X81717205Y-64140254D01*
X81795226Y-63951896D01*
X81835000Y-63751937D01*
X81835000Y-63548059D01*
X81795226Y-63348100D01*
X81717205Y-63159742D01*
X81603937Y-62990224D01*
X81560000Y-62946287D01*
X81560000Y-61117485D01*
X81648060Y-61135001D01*
X81851938Y-61135001D01*
X82051897Y-61095227D01*
X82240255Y-61017206D01*
X82409773Y-60903938D01*
X82553936Y-60759775D01*
X82667204Y-60590257D01*
X82745225Y-60401899D01*
X82784999Y-60201940D01*
X82784999Y-59998062D01*
X82775333Y-59949468D01*
X83995835Y-58728966D01*
X84108400Y-58897431D01*
X84252563Y-59041594D01*
X84422081Y-59154862D01*
X84610439Y-59232883D01*
X84810398Y-59272657D01*
X85014276Y-59272657D01*
X85214235Y-59232883D01*
X85402593Y-59154862D01*
X85572111Y-59041594D01*
X85596832Y-59016873D01*
X85634744Y-59042205D01*
X85774928Y-59100271D01*
X85450796Y-59424403D01*
X85298110Y-59454774D01*
X85109752Y-59532795D01*
X84940234Y-59646063D01*
X84796071Y-59790226D01*
X84682803Y-59959744D01*
X84604782Y-60148102D01*
X84565008Y-60348061D01*
X84565008Y-60551939D01*
X84604782Y-60751898D01*
X84682803Y-60940256D01*
X84796071Y-61109774D01*
X84940234Y-61253937D01*
X85109752Y-61367205D01*
X85298110Y-61445226D01*
X85498069Y-61485000D01*
X85701947Y-61485000D01*
X85901906Y-61445226D01*
X86090264Y-61367205D01*
X86259782Y-61253937D01*
X86403945Y-61109774D01*
X86517213Y-60940256D01*
X86595234Y-60751898D01*
X86635008Y-60551939D01*
X86635008Y-60389793D01*
X86683632Y-60341169D01*
X86696063Y-60359774D01*
X86840226Y-60503937D01*
X87009744Y-60617205D01*
X87198102Y-60695226D01*
X87398061Y-60735000D01*
X87601939Y-60735000D01*
X87801898Y-60695226D01*
X87990256Y-60617205D01*
X88159774Y-60503937D01*
X88303937Y-60359774D01*
X88376640Y-60250966D01*
X88390001Y-60240001D01*
X88413804Y-60210997D01*
X88521692Y-60103109D01*
X101458519Y-60103109D01*
X101579186Y-60333000D01*
X102773000Y-60333000D01*
X102773000Y-59139845D01*
X102543110Y-59018524D01*
X102395901Y-59063175D01*
X102133080Y-59188359D01*
X101899731Y-59362412D01*
X101704822Y-59578645D01*
X101555843Y-59828748D01*
X101458519Y-60103109D01*
X88521692Y-60103109D01*
X90464802Y-58160000D01*
X103277678Y-58160000D01*
X103315000Y-58163676D01*
X103352322Y-58160000D01*
X103352333Y-58160000D01*
X103463986Y-58149003D01*
X103607247Y-58105546D01*
X103739276Y-58034974D01*
X103855001Y-57940001D01*
X103878804Y-57910997D01*
X104398592Y-57391209D01*
X104618740Y-57435000D01*
X104911260Y-57435000D01*
X105198158Y-57377932D01*
X105468411Y-57265990D01*
X105711632Y-57103475D01*
X105918475Y-56896632D01*
X106080990Y-56653411D01*
X106192932Y-56383158D01*
X106250000Y-56096260D01*
X106250000Y-55803740D01*
X106192932Y-55516842D01*
X106080990Y-55246589D01*
X105918475Y-55003368D01*
X105711632Y-54796525D01*
X105537240Y-54680000D01*
X105711632Y-54563475D01*
X105918475Y-54356632D01*
X106080990Y-54113411D01*
X106192932Y-53843158D01*
X106250000Y-53556260D01*
X106250000Y-53263740D01*
X106192932Y-52976842D01*
X106080990Y-52706589D01*
X105918475Y-52463368D01*
X105711632Y-52256525D01*
X105537240Y-52140000D01*
X105711632Y-52023475D01*
X105918475Y-51816632D01*
X106080990Y-51573411D01*
X106192932Y-51303158D01*
X106250000Y-51016260D01*
X106250000Y-50723740D01*
X106192932Y-50436842D01*
X106080990Y-50166589D01*
X105918475Y-49923368D01*
X105711632Y-49716525D01*
X105468411Y-49554010D01*
X105198158Y-49442068D01*
X104911260Y-49385000D01*
X104618740Y-49385000D01*
X104331842Y-49442068D01*
X104061589Y-49554010D01*
X103818368Y-49716525D01*
X103611525Y-49923368D01*
X103495000Y-50097760D01*
X103378475Y-49923368D01*
X103171632Y-49716525D01*
X102928411Y-49554010D01*
X102658158Y-49442068D01*
X102371260Y-49385000D01*
X102078740Y-49385000D01*
X101791842Y-49442068D01*
X101521589Y-49554010D01*
X101278368Y-49716525D01*
X101071525Y-49923368D01*
X100946822Y-50110000D01*
X89617322Y-50110000D01*
X89579999Y-50106324D01*
X89542676Y-50110000D01*
X89542667Y-50110000D01*
X89431014Y-50120997D01*
X89287753Y-50164454D01*
X89155723Y-50235026D01*
X89085079Y-50293003D01*
X89039999Y-50329999D01*
X89016201Y-50358997D01*
X85425400Y-53949798D01*
X85395226Y-53798102D01*
X85317205Y-53609744D01*
X85203937Y-53440226D01*
X85059774Y-53296063D01*
X84890256Y-53182795D01*
X84701898Y-53104774D01*
X84501939Y-53065000D01*
X84298061Y-53065000D01*
X84098102Y-53104774D01*
X83909744Y-53182795D01*
X83740226Y-53296063D01*
X83696289Y-53340000D01*
X82664802Y-53340000D01*
X82235000Y-52910199D01*
X82235000Y-52848061D01*
X82195226Y-52648102D01*
X82117205Y-52459744D01*
X82003937Y-52290226D01*
X81859774Y-52146063D01*
X81690256Y-52032795D01*
X81501898Y-51954774D01*
X81301939Y-51915000D01*
X81098061Y-51915000D01*
X80898102Y-51954774D01*
X80709744Y-52032795D01*
X80540226Y-52146063D01*
X80396063Y-52290226D01*
X80282795Y-52459744D01*
X80204774Y-52648102D01*
X80165000Y-52848061D01*
X80165000Y-53051939D01*
X80204774Y-53251898D01*
X80282795Y-53440256D01*
X80396063Y-53609774D01*
X80540226Y-53753937D01*
X80709744Y-53867205D01*
X80898102Y-53945226D01*
X81098061Y-53985000D01*
X81160199Y-53985000D01*
X81786201Y-54611003D01*
X81809999Y-54640001D01*
X81838997Y-54663799D01*
X81925724Y-54734974D01*
X82057753Y-54805546D01*
X82201014Y-54849003D01*
X82350000Y-54863677D01*
X82387333Y-54860000D01*
X83696289Y-54860000D01*
X83740226Y-54903937D01*
X83909744Y-55017205D01*
X84098102Y-55095226D01*
X84249798Y-55125400D01*
X80289003Y-59086196D01*
X80259999Y-59109999D01*
X80218965Y-59160000D01*
X80165026Y-59225724D01*
X80129471Y-59292243D01*
X80094454Y-59357754D01*
X80050997Y-59501015D01*
X80040000Y-59612668D01*
X80040000Y-59612678D01*
X80036324Y-59650000D01*
X80040000Y-59687323D01*
X80040001Y-62915200D01*
X79910000Y-62785199D01*
X79910000Y-57153711D01*
X79953937Y-57109774D01*
X80067205Y-56940256D01*
X80145226Y-56751898D01*
X80185000Y-56551939D01*
X80185000Y-56348061D01*
X80145226Y-56148102D01*
X80067205Y-55959744D01*
X79953937Y-55790226D01*
X79809774Y-55646063D01*
X79640256Y-55532795D01*
X79451898Y-55454774D01*
X79251939Y-55415000D01*
X79048061Y-55415000D01*
X78848102Y-55454774D01*
X78659744Y-55532795D01*
X78490226Y-55646063D01*
X78346063Y-55790226D01*
X78232795Y-55959744D01*
X78154774Y-56148102D01*
X78115000Y-56348061D01*
X78115000Y-56551939D01*
X78154774Y-56751898D01*
X78232795Y-56940256D01*
X78346063Y-57109774D01*
X78390001Y-57153712D01*
X78390000Y-63062677D01*
X78386324Y-63100000D01*
X78390000Y-63137322D01*
X78390000Y-63137332D01*
X78400997Y-63248985D01*
X78424572Y-63326703D01*
X78250006Y-63309509D01*
X78027508Y-63331423D01*
X77813560Y-63396323D01*
X77616384Y-63501715D01*
X77443558Y-63643550D01*
X77301722Y-63816375D01*
X77196330Y-64013551D01*
X77131428Y-64227499D01*
X77109513Y-64449998D01*
X77131427Y-64672496D01*
X77196327Y-64886444D01*
X77301719Y-65083620D01*
X77408014Y-65213141D01*
X77808013Y-65613142D01*
X77808015Y-65613144D01*
X90832797Y-78637927D01*
X90748102Y-78654774D01*
X90559744Y-78732795D01*
X90390226Y-78846063D01*
X90346289Y-78890000D01*
X88187333Y-78890000D01*
X88150000Y-78886323D01*
X88112667Y-78890000D01*
X85414802Y-78890000D01*
X73610000Y-67085199D01*
X73610000Y-61153711D01*
X73653937Y-61109774D01*
X73767205Y-60940256D01*
X73845226Y-60751898D01*
X73885000Y-60551939D01*
X73885000Y-60348061D01*
X73845226Y-60148102D01*
X73767205Y-59959744D01*
X73653937Y-59790226D01*
X73588709Y-59724998D01*
X73653937Y-59659770D01*
X73767205Y-59490252D01*
X73845226Y-59301894D01*
X73885000Y-59101935D01*
X73885000Y-58898057D01*
X73845226Y-58698098D01*
X73767205Y-58509740D01*
X73653937Y-58340222D01*
X73588713Y-58274998D01*
X73653937Y-58209774D01*
X73767205Y-58040256D01*
X73845226Y-57851898D01*
X73885000Y-57651939D01*
X73885000Y-57448061D01*
X73845226Y-57248102D01*
X73767205Y-57059744D01*
X73653937Y-56890226D01*
X73509774Y-56746063D01*
X73340256Y-56632795D01*
X73151898Y-56554774D01*
X72951939Y-56515000D01*
X72748061Y-56515000D01*
X72548102Y-56554774D01*
X72359744Y-56632795D01*
X72190226Y-56746063D01*
X72046063Y-56890226D01*
X71932795Y-57059744D01*
X71854774Y-57248102D01*
X71815000Y-57448061D01*
X71815000Y-57510198D01*
X70288998Y-59036201D01*
X70260000Y-59059999D01*
X70236202Y-59088997D01*
X70236201Y-59088998D01*
X70165026Y-59175724D01*
X70094454Y-59307754D01*
X70069810Y-59388999D01*
X70050998Y-59451014D01*
X70046073Y-59501014D01*
X70036324Y-59600000D01*
X70040001Y-59637332D01*
X70040001Y-61428728D01*
X69956043Y-61372629D01*
X69703989Y-61268225D01*
X69436411Y-61215000D01*
X69163589Y-61215000D01*
X68896011Y-61268225D01*
X68643957Y-61372629D01*
X68417114Y-61524201D01*
X68224201Y-61717114D01*
X68072629Y-61943957D01*
X67968225Y-62196011D01*
X67915000Y-62463589D01*
X67915000Y-62736411D01*
X67968225Y-63003989D01*
X68072629Y-63256043D01*
X68224201Y-63482886D01*
X68417114Y-63675799D01*
X68643957Y-63827371D01*
X68896011Y-63931775D01*
X69163589Y-63985000D01*
X69436411Y-63985000D01*
X69703989Y-63931775D01*
X69956043Y-63827371D01*
X70040001Y-63771272D01*
X70040000Y-66308728D01*
X69956043Y-66252629D01*
X69703989Y-66148225D01*
X69436411Y-66095000D01*
X69163589Y-66095000D01*
X68896011Y-66148225D01*
X68643957Y-66252629D01*
X68417114Y-66404201D01*
X68224201Y-66597114D01*
X68072629Y-66823957D01*
X67968225Y-67076011D01*
X67915000Y-67343589D01*
X67915000Y-67616411D01*
X67968225Y-67883989D01*
X68072629Y-68136043D01*
X68224201Y-68362886D01*
X68417114Y-68555799D01*
X68643957Y-68707371D01*
X68896011Y-68811775D01*
X69163589Y-68865000D01*
X69436411Y-68865000D01*
X69703989Y-68811775D01*
X69956043Y-68707371D01*
X70182886Y-68555799D01*
X70232361Y-68506324D01*
X70259999Y-68540001D01*
X70289003Y-68563804D01*
X85490001Y-83764803D01*
X85490000Y-100347406D01*
X85420987Y-100384294D01*
X85194866Y-100569866D01*
X85009294Y-100795986D01*
X84871401Y-101053966D01*
X84786487Y-101333889D01*
X84765000Y-101552050D01*
X84765000Y-101947949D01*
X84771765Y-102016633D01*
X83485000Y-100729869D01*
X83485000Y-83105741D01*
X83490490Y-83049999D01*
X83485000Y-82994257D01*
X83485000Y-82994248D01*
X83468577Y-82827501D01*
X83403676Y-82613553D01*
X83298284Y-82416377D01*
X83156449Y-82243551D01*
X83113141Y-82208009D01*
X75491996Y-74586865D01*
X75456449Y-74543551D01*
X75283623Y-74401716D01*
X75086447Y-74296324D01*
X74872499Y-74231423D01*
X74705752Y-74215000D01*
X74705751Y-74215000D01*
X74650000Y-74209509D01*
X74594249Y-74215000D01*
X58185000Y-74215000D01*
X58185000Y-64300000D01*
X59361928Y-64300000D01*
X59374188Y-64424482D01*
X59410498Y-64544180D01*
X59469463Y-64654494D01*
X59548815Y-64751185D01*
X59645506Y-64830537D01*
X59755820Y-64889502D01*
X59875518Y-64925812D01*
X60000000Y-64938072D01*
X60564250Y-64935000D01*
X60723000Y-64776250D01*
X60723000Y-63577000D01*
X60977000Y-63577000D01*
X60977000Y-64776250D01*
X61135750Y-64935000D01*
X61700000Y-64938072D01*
X61824482Y-64925812D01*
X61944180Y-64889502D01*
X62054494Y-64830537D01*
X62151185Y-64751185D01*
X62230537Y-64654494D01*
X62289502Y-64544180D01*
X62325812Y-64424482D01*
X62338072Y-64300000D01*
X62335000Y-63735750D01*
X62176250Y-63577000D01*
X60977000Y-63577000D01*
X60723000Y-63577000D01*
X59523750Y-63577000D01*
X59365000Y-63735750D01*
X59361928Y-64300000D01*
X58185000Y-64300000D01*
X58185000Y-62600000D01*
X59361928Y-62600000D01*
X59365000Y-63164250D01*
X59523750Y-63323000D01*
X60723000Y-63323000D01*
X60723000Y-61037000D01*
X60977000Y-61037000D01*
X60977000Y-63323000D01*
X62176250Y-63323000D01*
X62335000Y-63164250D01*
X62338072Y-62600000D01*
X62325812Y-62475518D01*
X62289502Y-62355820D01*
X62230537Y-62245506D01*
X62151185Y-62148815D01*
X62054494Y-62069463D01*
X61944180Y-62010498D01*
X61863534Y-61986034D01*
X61947588Y-61910269D01*
X62121641Y-61676920D01*
X62246825Y-61414099D01*
X62291476Y-61266890D01*
X62170155Y-61037000D01*
X60977000Y-61037000D01*
X60723000Y-61037000D01*
X59529845Y-61037000D01*
X59408524Y-61266890D01*
X59453175Y-61414099D01*
X59578359Y-61676920D01*
X59752412Y-61910269D01*
X59836466Y-61986034D01*
X59755820Y-62010498D01*
X59645506Y-62069463D01*
X59548815Y-62148815D01*
X59469463Y-62245506D01*
X59410498Y-62355820D01*
X59374188Y-62475518D01*
X59361928Y-62600000D01*
X58185000Y-62600000D01*
X58185000Y-59505000D01*
X59884893Y-59505000D01*
X59903368Y-59523475D01*
X60085534Y-59645195D01*
X59968645Y-59714822D01*
X59752412Y-59909731D01*
X59578359Y-60143080D01*
X59453175Y-60405901D01*
X59408524Y-60553110D01*
X59529845Y-60783000D01*
X60723000Y-60783000D01*
X60723000Y-60763000D01*
X60977000Y-60763000D01*
X60977000Y-60783000D01*
X62170155Y-60783000D01*
X62291476Y-60553110D01*
X62246825Y-60405901D01*
X62121641Y-60143080D01*
X61947588Y-59909731D01*
X61731355Y-59714822D01*
X61614466Y-59645195D01*
X61796632Y-59523475D01*
X62003475Y-59316632D01*
X62165990Y-59073411D01*
X62277932Y-58803158D01*
X62335000Y-58516260D01*
X62335000Y-58490131D01*
X64740132Y-56085000D01*
X66755752Y-56085000D01*
X66922499Y-56068577D01*
X67136447Y-56003676D01*
X67333623Y-55898284D01*
X67506449Y-55756449D01*
X67544569Y-55710000D01*
X68212678Y-55710000D01*
X68250000Y-55713676D01*
X68287322Y-55710000D01*
X68287333Y-55710000D01*
X68398986Y-55699003D01*
X68542247Y-55655546D01*
X68674276Y-55584974D01*
X68790001Y-55490001D01*
X68813804Y-55460997D01*
X73789802Y-50485000D01*
X73851939Y-50485000D01*
X74051898Y-50445226D01*
X74240256Y-50367205D01*
X74409774Y-50253937D01*
X74453711Y-50210000D01*
X82946289Y-50210000D01*
X82990226Y-50253937D01*
X83159744Y-50367205D01*
X83348102Y-50445226D01*
X83548061Y-50485000D01*
X83751939Y-50485000D01*
X83951898Y-50445226D01*
X84140256Y-50367205D01*
X84309774Y-50253937D01*
X84453937Y-50109774D01*
X84567205Y-49940256D01*
X84645226Y-49751898D01*
X84685000Y-49551939D01*
X84685000Y-49348061D01*
X84645226Y-49148102D01*
X84567205Y-48959744D01*
X84453937Y-48790226D01*
X84309774Y-48646063D01*
X84140256Y-48532795D01*
X83951898Y-48454774D01*
X83751939Y-48415000D01*
X83548061Y-48415000D01*
X83348102Y-48454774D01*
X83159744Y-48532795D01*
X82990226Y-48646063D01*
X82946289Y-48690000D01*
X78204801Y-48690000D01*
X78653592Y-48241209D01*
X78873740Y-48285000D01*
X79166260Y-48285000D01*
X79453158Y-48227932D01*
X79723411Y-48115990D01*
X79966632Y-47953475D01*
X80173475Y-47746632D01*
X80290000Y-47572240D01*
X80406525Y-47746632D01*
X80613368Y-47953475D01*
X80856589Y-48115990D01*
X81126842Y-48227932D01*
X81413740Y-48285000D01*
X81706260Y-48285000D01*
X81993158Y-48227932D01*
X82263411Y-48115990D01*
X82506632Y-47953475D01*
X82713475Y-47746632D01*
X82830000Y-47572240D01*
X82946525Y-47746632D01*
X83153368Y-47953475D01*
X83396589Y-48115990D01*
X83666842Y-48227932D01*
X83953740Y-48285000D01*
X84246260Y-48285000D01*
X84533158Y-48227932D01*
X84803411Y-48115990D01*
X85046632Y-47953475D01*
X85253475Y-47746632D01*
X85370000Y-47572240D01*
X85486525Y-47746632D01*
X85693368Y-47953475D01*
X85936589Y-48115990D01*
X86206842Y-48227932D01*
X86493740Y-48285000D01*
X86786260Y-48285000D01*
X87073158Y-48227932D01*
X87343411Y-48115990D01*
X87586632Y-47953475D01*
X87793475Y-47746632D01*
X87915195Y-47564466D01*
X87984822Y-47681355D01*
X88179731Y-47897588D01*
X88413080Y-48071641D01*
X88675901Y-48196825D01*
X88823110Y-48241476D01*
X89053000Y-48120155D01*
X89053000Y-46927000D01*
X89033000Y-46927000D01*
X89033000Y-46673000D01*
X89053000Y-46673000D01*
X89053000Y-46653000D01*
X89307000Y-46653000D01*
X89307000Y-46673000D01*
X89327000Y-46673000D01*
X89327000Y-46927000D01*
X89307000Y-46927000D01*
X89307000Y-48120155D01*
X89536890Y-48241476D01*
X89684099Y-48196825D01*
X89946920Y-48071641D01*
X90180269Y-47897588D01*
X90375178Y-47681355D01*
X90444805Y-47564466D01*
X90566525Y-47746632D01*
X90773368Y-47953475D01*
X91016589Y-48115990D01*
X91286842Y-48227932D01*
X91573740Y-48285000D01*
X91866260Y-48285000D01*
X92153158Y-48227932D01*
X92423411Y-48115990D01*
X92666632Y-47953475D01*
X92873475Y-47746632D01*
X92990000Y-47572240D01*
X93106525Y-47746632D01*
X93313368Y-47953475D01*
X93556589Y-48115990D01*
X93826842Y-48227932D01*
X94113740Y-48285000D01*
X94406260Y-48285000D01*
X94693158Y-48227932D01*
X94963411Y-48115990D01*
X95206632Y-47953475D01*
X95413475Y-47746632D01*
X95530000Y-47572240D01*
X95646525Y-47746632D01*
X95853368Y-47953475D01*
X96096589Y-48115990D01*
X96366842Y-48227932D01*
X96653740Y-48285000D01*
X96946260Y-48285000D01*
X97233158Y-48227932D01*
X97503411Y-48115990D01*
X97746632Y-47953475D01*
X97953475Y-47746632D01*
X98070000Y-47572240D01*
X98186525Y-47746632D01*
X98393368Y-47953475D01*
X98636589Y-48115990D01*
X98906842Y-48227932D01*
X99193740Y-48285000D01*
X99486260Y-48285000D01*
X99773158Y-48227932D01*
X100043411Y-48115990D01*
X100286632Y-47953475D01*
X100493475Y-47746632D01*
X100610000Y-47572240D01*
X100726525Y-47746632D01*
X100933368Y-47953475D01*
X101176589Y-48115990D01*
X101446842Y-48227932D01*
X101733740Y-48285000D01*
X102026260Y-48285000D01*
X102313158Y-48227932D01*
X102583411Y-48115990D01*
X102826632Y-47953475D01*
X103033475Y-47746632D01*
X103150000Y-47572240D01*
X103266525Y-47746632D01*
X103473368Y-47953475D01*
X103716589Y-48115990D01*
X103986842Y-48227932D01*
X104273740Y-48285000D01*
X104566260Y-48285000D01*
X104853158Y-48227932D01*
X105123411Y-48115990D01*
X105366632Y-47953475D01*
X105573475Y-47746632D01*
X105695195Y-47564466D01*
X105764822Y-47681355D01*
X105959731Y-47897588D01*
X106193080Y-48071641D01*
X106455901Y-48196825D01*
X106603110Y-48241476D01*
X106833000Y-48120155D01*
X106833000Y-46927000D01*
X106813000Y-46927000D01*
X106813000Y-46673000D01*
X106833000Y-46673000D01*
X106833000Y-46653000D01*
X107087000Y-46653000D01*
X107087000Y-46673000D01*
X107107000Y-46673000D01*
X107107000Y-46927000D01*
X107087000Y-46927000D01*
X107087000Y-48120155D01*
X107316890Y-48241476D01*
X107464099Y-48196825D01*
X107726920Y-48071641D01*
X107960269Y-47897588D01*
X108155178Y-47681355D01*
X108304157Y-47431252D01*
X108401481Y-47156891D01*
X108377611Y-47111415D01*
X111125000Y-49858805D01*
X111124999Y-59103247D01*
X110953158Y-59032068D01*
X110666260Y-58975000D01*
X110373740Y-58975000D01*
X110086842Y-59032068D01*
X109816589Y-59144010D01*
X109573368Y-59306525D01*
X109366525Y-59513368D01*
X109250000Y-59687760D01*
X109133475Y-59513368D01*
X108926632Y-59306525D01*
X108683411Y-59144010D01*
X108413158Y-59032068D01*
X108126260Y-58975000D01*
X107833740Y-58975000D01*
X107546842Y-59032068D01*
X107276589Y-59144010D01*
X107033368Y-59306525D01*
X106826525Y-59513368D01*
X106710000Y-59687760D01*
X106593475Y-59513368D01*
X106386632Y-59306525D01*
X106143411Y-59144010D01*
X105873158Y-59032068D01*
X105586260Y-58975000D01*
X105293740Y-58975000D01*
X105006842Y-59032068D01*
X104736589Y-59144010D01*
X104493368Y-59306525D01*
X104286525Y-59513368D01*
X104164805Y-59695534D01*
X104095178Y-59578645D01*
X103900269Y-59362412D01*
X103666920Y-59188359D01*
X103404099Y-59063175D01*
X103256890Y-59018524D01*
X103027000Y-59139845D01*
X103027000Y-60333000D01*
X103047000Y-60333000D01*
X103047000Y-60587000D01*
X103027000Y-60587000D01*
X103027000Y-60607000D01*
X102773000Y-60607000D01*
X102773000Y-60587000D01*
X101579186Y-60587000D01*
X101458519Y-60816891D01*
X101555843Y-61091252D01*
X101704822Y-61341355D01*
X101881626Y-61537502D01*
X101805820Y-61560498D01*
X101695506Y-61619463D01*
X101598815Y-61698815D01*
X101519463Y-61795506D01*
X101460498Y-61905820D01*
X101424188Y-62025518D01*
X101411928Y-62150000D01*
X101411928Y-63850000D01*
X101424188Y-63974482D01*
X101460498Y-64094180D01*
X101519463Y-64204494D01*
X101598815Y-64301185D01*
X101695506Y-64380537D01*
X101805820Y-64439502D01*
X101925518Y-64475812D01*
X102050000Y-64488072D01*
X103750000Y-64488072D01*
X103874482Y-64475812D01*
X103994180Y-64439502D01*
X104104494Y-64380537D01*
X104201185Y-64301185D01*
X104280537Y-64204494D01*
X104339502Y-64094180D01*
X104361513Y-64021620D01*
X104493368Y-64153475D01*
X104736589Y-64315990D01*
X105006842Y-64427932D01*
X105293740Y-64485000D01*
X105586260Y-64485000D01*
X105873158Y-64427932D01*
X106143411Y-64315990D01*
X106386632Y-64153475D01*
X106593475Y-63946632D01*
X106710000Y-63772240D01*
X106826525Y-63946632D01*
X107033368Y-64153475D01*
X107276589Y-64315990D01*
X107546842Y-64427932D01*
X107833740Y-64485000D01*
X108126260Y-64485000D01*
X108413158Y-64427932D01*
X108683411Y-64315990D01*
X108926632Y-64153475D01*
X109133475Y-63946632D01*
X109250000Y-63772240D01*
X109366525Y-63946632D01*
X109573368Y-64153475D01*
X109816589Y-64315990D01*
X110086842Y-64427932D01*
X110373740Y-64485000D01*
X110666260Y-64485000D01*
X110953158Y-64427932D01*
X111223411Y-64315990D01*
X111466632Y-64153475D01*
X111673475Y-63946632D01*
X111790000Y-63772240D01*
X111906525Y-63946632D01*
X112113368Y-64153475D01*
X112356589Y-64315990D01*
X112626842Y-64427932D01*
X112913740Y-64485000D01*
X113206260Y-64485000D01*
X113493158Y-64427932D01*
X113763411Y-64315990D01*
X114006632Y-64153475D01*
X114213475Y-63946632D01*
X114375990Y-63703411D01*
X114487932Y-63433158D01*
X114545000Y-63146260D01*
X114545000Y-62853740D01*
X114487932Y-62566842D01*
X114375990Y-62296589D01*
X114213475Y-62053368D01*
X114006632Y-61846525D01*
X113832240Y-61730000D01*
X114006632Y-61613475D01*
X114213475Y-61406632D01*
X114375990Y-61163411D01*
X114487932Y-60893158D01*
X114545000Y-60606260D01*
X114545000Y-60313740D01*
X114487932Y-60026842D01*
X114375990Y-59756589D01*
X114213475Y-59513368D01*
X114006632Y-59306525D01*
X113763411Y-59144010D01*
X113493158Y-59032068D01*
X113206260Y-58975000D01*
X112913740Y-58975000D01*
X112644999Y-59028456D01*
X112644999Y-49581323D01*
X112648675Y-49544000D01*
X112644999Y-49506677D01*
X112644999Y-49506668D01*
X112634002Y-49395015D01*
X112590545Y-49251754D01*
X112519973Y-49119725D01*
X112467303Y-49055546D01*
X112448798Y-49032997D01*
X112448794Y-49032993D01*
X112425000Y-49004000D01*
X112396007Y-48980206D01*
X111900801Y-48485000D01*
X112093997Y-48485000D01*
X112670692Y-48370288D01*
X113213928Y-48145273D01*
X113702826Y-47818601D01*
X114118601Y-47402826D01*
X114445273Y-46913928D01*
X114640001Y-46443812D01*
X114640000Y-67556186D01*
G37*
%TD.AperFunction*%
D22*
X89940001Y-86864803D02*
X89940000Y-97662678D01*
X89936324Y-97700000D01*
X89940000Y-97737322D01*
X89940000Y-97737332D01*
X89950997Y-97848985D01*
X89994454Y-97992246D01*
X90065026Y-98124276D01*
X90104871Y-98172826D01*
X90159999Y-98240001D01*
X90189003Y-98263804D01*
X92062332Y-100137133D01*
X91535750Y-100140000D01*
X91377000Y-100298750D01*
X91377000Y-101623000D01*
X92576250Y-101623000D01*
X92735000Y-101464250D01*
X92737904Y-100812706D01*
X94186201Y-102261003D01*
X94209999Y-102290001D01*
X94238997Y-102313799D01*
X94325723Y-102384974D01*
X94457753Y-102455546D01*
X94601014Y-102499003D01*
X94712667Y-102510000D01*
X94712677Y-102510000D01*
X94750000Y-102513676D01*
X94787323Y-102510000D01*
X95955592Y-102510000D01*
X95958265Y-102515000D01*
X92737136Y-102515000D01*
X92735000Y-102035750D01*
X92576250Y-101877000D01*
X91377000Y-101877000D01*
X91377000Y-101897000D01*
X91123000Y-101897000D01*
X91123000Y-101877000D01*
X91103000Y-101877000D01*
X91103000Y-101623000D01*
X91123000Y-101623000D01*
X91123000Y-100298750D01*
X90964250Y-100140000D01*
X90400000Y-100136928D01*
X90275518Y-100149188D01*
X90155820Y-100185498D01*
X90045506Y-100244463D01*
X89948815Y-100323815D01*
X89869463Y-100420506D01*
X89810498Y-100530820D01*
X89799945Y-100565608D01*
X89579014Y-100384294D01*
X89321034Y-100246401D01*
X89041111Y-100161487D01*
X88750000Y-100132815D01*
X88458890Y-100161487D01*
X88178967Y-100246401D01*
X87920987Y-100384294D01*
X87694866Y-100569866D01*
X87509294Y-100795986D01*
X87500000Y-100813374D01*
X87490706Y-100795986D01*
X87305134Y-100569866D01*
X87079014Y-100384294D01*
X87010000Y-100347405D01*
X87010000Y-83934801D01*
X89940001Y-86864803D01*
%TA.AperFunction,Conductor*%
D23*
G36*
X89940001Y-86864803D02*
G01*
X89940000Y-97662678D01*
X89936324Y-97700000D01*
X89940000Y-97737322D01*
X89940000Y-97737332D01*
X89950997Y-97848985D01*
X89994454Y-97992246D01*
X90065026Y-98124276D01*
X90104871Y-98172826D01*
X90159999Y-98240001D01*
X90189003Y-98263804D01*
X92062332Y-100137133D01*
X91535750Y-100140000D01*
X91377000Y-100298750D01*
X91377000Y-101623000D01*
X92576250Y-101623000D01*
X92735000Y-101464250D01*
X92737904Y-100812706D01*
X94186201Y-102261003D01*
X94209999Y-102290001D01*
X94238997Y-102313799D01*
X94325723Y-102384974D01*
X94457753Y-102455546D01*
X94601014Y-102499003D01*
X94712667Y-102510000D01*
X94712677Y-102510000D01*
X94750000Y-102513676D01*
X94787323Y-102510000D01*
X95955592Y-102510000D01*
X95958265Y-102515000D01*
X92737136Y-102515000D01*
X92735000Y-102035750D01*
X92576250Y-101877000D01*
X91377000Y-101877000D01*
X91377000Y-101897000D01*
X91123000Y-101897000D01*
X91123000Y-101877000D01*
X91103000Y-101877000D01*
X91103000Y-101623000D01*
X91123000Y-101623000D01*
X91123000Y-100298750D01*
X90964250Y-100140000D01*
X90400000Y-100136928D01*
X90275518Y-100149188D01*
X90155820Y-100185498D01*
X90045506Y-100244463D01*
X89948815Y-100323815D01*
X89869463Y-100420506D01*
X89810498Y-100530820D01*
X89799945Y-100565608D01*
X89579014Y-100384294D01*
X89321034Y-100246401D01*
X89041111Y-100161487D01*
X88750000Y-100132815D01*
X88458890Y-100161487D01*
X88178967Y-100246401D01*
X87920987Y-100384294D01*
X87694866Y-100569866D01*
X87509294Y-100795986D01*
X87500000Y-100813374D01*
X87490706Y-100795986D01*
X87305134Y-100569866D01*
X87079014Y-100384294D01*
X87010000Y-100347405D01*
X87010000Y-83934801D01*
X89940001Y-86864803D01*
G37*
%TD.AperFunction*%
D22*
X87515026Y-80416016D02*
X87546147Y-80453937D01*
X87609999Y-80531741D01*
X87639003Y-80555544D01*
X94394461Y-87311003D01*
X94418259Y-87340001D01*
X94447257Y-87363799D01*
X94533984Y-87434974D01*
X94666013Y-87505546D01*
X94809274Y-87549003D01*
X94958260Y-87563677D01*
X94995593Y-87560000D01*
X98796289Y-87560000D01*
X98840226Y-87603937D01*
X99009744Y-87717205D01*
X99198102Y-87795226D01*
X99398061Y-87835000D01*
X99601939Y-87835000D01*
X99801898Y-87795226D01*
X99990256Y-87717205D01*
X100159774Y-87603937D01*
X100303937Y-87459774D01*
X100417205Y-87290256D01*
X100495226Y-87101898D01*
X100535000Y-86901939D01*
X100535000Y-86698061D01*
X100495226Y-86498102D01*
X100417205Y-86309744D01*
X100303937Y-86140226D01*
X100159774Y-85996063D01*
X99990256Y-85882795D01*
X99801898Y-85804774D01*
X99601939Y-85765000D01*
X99398061Y-85765000D01*
X99198102Y-85804774D01*
X99009744Y-85882795D01*
X98840226Y-85996063D01*
X98796289Y-86040000D01*
X95273062Y-86040000D01*
X91193061Y-81960000D01*
X94154871Y-81960000D01*
X97408011Y-85213141D01*
X97443553Y-85256449D01*
X97616379Y-85398284D01*
X97813555Y-85503676D01*
X98027503Y-85568577D01*
X98194250Y-85585000D01*
X98194259Y-85585000D01*
X98250001Y-85590490D01*
X98305743Y-85585000D01*
X101625000Y-85585000D01*
X101625001Y-87634239D01*
X101619509Y-87690000D01*
X101625000Y-87745751D01*
X101625001Y-93519867D01*
X98986865Y-96158004D01*
X98943551Y-96193551D01*
X98801716Y-96366377D01*
X98696325Y-96563553D01*
X98696324Y-96563554D01*
X98631423Y-96777502D01*
X98609509Y-97000000D01*
X98615000Y-97055752D01*
X98615001Y-100728107D01*
X98559294Y-100795986D01*
X98550000Y-100813374D01*
X98540706Y-100795986D01*
X98355134Y-100569866D01*
X98129014Y-100384294D01*
X97871034Y-100246401D01*
X97591111Y-100161487D01*
X97300000Y-100132815D01*
X97008890Y-100161487D01*
X96728967Y-100246401D01*
X96470987Y-100384294D01*
X96244866Y-100569866D01*
X96059294Y-100795986D01*
X95955591Y-100990000D01*
X95064802Y-100990000D01*
X91460000Y-97385199D01*
X91460000Y-86587333D01*
X91463677Y-86550000D01*
X91449003Y-86401014D01*
X91405546Y-86257753D01*
X91334974Y-86125724D01*
X91263799Y-86038997D01*
X91240001Y-86009999D01*
X91211003Y-85986201D01*
X86013803Y-80789002D01*
X86013799Y-80788997D01*
X85634801Y-80410000D01*
X87511810Y-80410000D01*
X87515026Y-80416016D01*
%TA.AperFunction,Conductor*%
D23*
G36*
X87515026Y-80416016D02*
G01*
X87546147Y-80453937D01*
X87609999Y-80531741D01*
X87639003Y-80555544D01*
X94394461Y-87311003D01*
X94418259Y-87340001D01*
X94447257Y-87363799D01*
X94533984Y-87434974D01*
X94666013Y-87505546D01*
X94809274Y-87549003D01*
X94958260Y-87563677D01*
X94995593Y-87560000D01*
X98796289Y-87560000D01*
X98840226Y-87603937D01*
X99009744Y-87717205D01*
X99198102Y-87795226D01*
X99398061Y-87835000D01*
X99601939Y-87835000D01*
X99801898Y-87795226D01*
X99990256Y-87717205D01*
X100159774Y-87603937D01*
X100303937Y-87459774D01*
X100417205Y-87290256D01*
X100495226Y-87101898D01*
X100535000Y-86901939D01*
X100535000Y-86698061D01*
X100495226Y-86498102D01*
X100417205Y-86309744D01*
X100303937Y-86140226D01*
X100159774Y-85996063D01*
X99990256Y-85882795D01*
X99801898Y-85804774D01*
X99601939Y-85765000D01*
X99398061Y-85765000D01*
X99198102Y-85804774D01*
X99009744Y-85882795D01*
X98840226Y-85996063D01*
X98796289Y-86040000D01*
X95273062Y-86040000D01*
X91193061Y-81960000D01*
X94154871Y-81960000D01*
X97408011Y-85213141D01*
X97443553Y-85256449D01*
X97616379Y-85398284D01*
X97813555Y-85503676D01*
X98027503Y-85568577D01*
X98194250Y-85585000D01*
X98194259Y-85585000D01*
X98250001Y-85590490D01*
X98305743Y-85585000D01*
X101625000Y-85585000D01*
X101625001Y-87634239D01*
X101619509Y-87690000D01*
X101625000Y-87745751D01*
X101625001Y-93519867D01*
X98986865Y-96158004D01*
X98943551Y-96193551D01*
X98801716Y-96366377D01*
X98696325Y-96563553D01*
X98696324Y-96563554D01*
X98631423Y-96777502D01*
X98609509Y-97000000D01*
X98615000Y-97055752D01*
X98615001Y-100728107D01*
X98559294Y-100795986D01*
X98550000Y-100813374D01*
X98540706Y-100795986D01*
X98355134Y-100569866D01*
X98129014Y-100384294D01*
X97871034Y-100246401D01*
X97591111Y-100161487D01*
X97300000Y-100132815D01*
X97008890Y-100161487D01*
X96728967Y-100246401D01*
X96470987Y-100384294D01*
X96244866Y-100569866D01*
X96059294Y-100795986D01*
X95955591Y-100990000D01*
X95064802Y-100990000D01*
X91460000Y-97385199D01*
X91460000Y-86587333D01*
X91463677Y-86550000D01*
X91449003Y-86401014D01*
X91405546Y-86257753D01*
X91334974Y-86125724D01*
X91263799Y-86038997D01*
X91240001Y-86009999D01*
X91211003Y-85986201D01*
X86013803Y-80789002D01*
X86013799Y-80788997D01*
X85634801Y-80410000D01*
X87511810Y-80410000D01*
X87515026Y-80416016D01*
G37*
%TD.AperFunction*%
D22*
X68987000Y-46673000D02*
X69007000Y-46673000D01*
X69007000Y-46927000D01*
X68987000Y-46927000D01*
X68987000Y-46947000D01*
X68733000Y-46947000D01*
X68733000Y-46927000D01*
X68713000Y-46927000D01*
X68713000Y-46673000D01*
X68733000Y-46673000D01*
X68733000Y-46653000D01*
X68987000Y-46653000D01*
X68987000Y-46673000D01*
%TA.AperFunction,Conductor*%
D23*
G36*
X68987000Y-46673000D02*
G01*
X69007000Y-46673000D01*
X69007000Y-46927000D01*
X68987000Y-46927000D01*
X68987000Y-46947000D01*
X68733000Y-46947000D01*
X68733000Y-46927000D01*
X68713000Y-46927000D01*
X68713000Y-46673000D01*
X68733000Y-46673000D01*
X68733000Y-46653000D01*
X68987000Y-46653000D01*
X68987000Y-46673000D01*
G37*
%TD.AperFunction*%
D22*
X70246525Y-45206632D02*
X70453368Y-45413475D01*
X70627760Y-45530000D01*
X70453368Y-45646525D01*
X70246525Y-45853368D01*
X70124805Y-46035534D01*
X70055178Y-45918645D01*
X69860269Y-45702412D01*
X69630594Y-45531100D01*
X69806632Y-45413475D01*
X70013475Y-45206632D01*
X70130000Y-45032240D01*
X70246525Y-45206632D01*
%TA.AperFunction,Conductor*%
D23*
G36*
X70246525Y-45206632D02*
G01*
X70453368Y-45413475D01*
X70627760Y-45530000D01*
X70453368Y-45646525D01*
X70246525Y-45853368D01*
X70124805Y-46035534D01*
X70055178Y-45918645D01*
X69860269Y-45702412D01*
X69630594Y-45531100D01*
X69806632Y-45413475D01*
X70013475Y-45206632D01*
X70130000Y-45032240D01*
X70246525Y-45206632D01*
G37*
%TD.AperFunction*%
D22*
X72744822Y-45141355D02*
X72939731Y-45357588D01*
X73169406Y-45528900D01*
X72993368Y-45646525D01*
X72786525Y-45853368D01*
X72670000Y-46027760D01*
X72553475Y-45853368D01*
X72346632Y-45646525D01*
X72172240Y-45530000D01*
X72346632Y-45413475D01*
X72553475Y-45206632D01*
X72675195Y-45024466D01*
X72744822Y-45141355D01*
%TA.AperFunction,Conductor*%
D23*
G36*
X72744822Y-45141355D02*
G01*
X72939731Y-45357588D01*
X73169406Y-45528900D01*
X72993368Y-45646525D01*
X72786525Y-45853368D01*
X72670000Y-46027760D01*
X72553475Y-45853368D01*
X72346632Y-45646525D01*
X72172240Y-45530000D01*
X72346632Y-45413475D01*
X72553475Y-45206632D01*
X72675195Y-45024466D01*
X72744822Y-45141355D01*
G37*
%TD.AperFunction*%
D22*
X110386072Y-42854727D02*
X109897174Y-43181399D01*
X109481399Y-43597174D01*
X109154727Y-44086072D01*
X108929712Y-44629308D01*
X108815000Y-45206003D01*
X108815000Y-45399200D01*
X108306222Y-44890423D01*
X108387932Y-44693158D01*
X108445000Y-44406260D01*
X108445000Y-44113740D01*
X108387932Y-43826842D01*
X108275990Y-43556589D01*
X108113475Y-43313368D01*
X107906632Y-43106525D01*
X107663411Y-42944010D01*
X107393158Y-42832068D01*
X107106260Y-42775000D01*
X106813740Y-42775000D01*
X106526842Y-42832068D01*
X106256589Y-42944010D01*
X106013368Y-43106525D01*
X105806525Y-43313368D01*
X105690000Y-43487760D01*
X105573475Y-43313368D01*
X105366632Y-43106525D01*
X105123411Y-42944010D01*
X104853158Y-42832068D01*
X104566260Y-42775000D01*
X104273740Y-42775000D01*
X103986842Y-42832068D01*
X103716589Y-42944010D01*
X103473368Y-43106525D01*
X103266525Y-43313368D01*
X103150000Y-43487760D01*
X103033475Y-43313368D01*
X102826632Y-43106525D01*
X102583411Y-42944010D01*
X102313158Y-42832068D01*
X102026260Y-42775000D01*
X101733740Y-42775000D01*
X101446842Y-42832068D01*
X101176589Y-42944010D01*
X100933368Y-43106525D01*
X100726525Y-43313368D01*
X100604805Y-43495534D01*
X100535178Y-43378645D01*
X100340269Y-43162412D01*
X100106920Y-42988359D01*
X99844099Y-42863175D01*
X99696890Y-42818524D01*
X99467000Y-42939845D01*
X99467000Y-44133000D01*
X99487000Y-44133000D01*
X99487000Y-44387000D01*
X99467000Y-44387000D01*
X99467000Y-44407000D01*
X99213000Y-44407000D01*
X99213000Y-44387000D01*
X99193000Y-44387000D01*
X99193000Y-44133000D01*
X99213000Y-44133000D01*
X99213000Y-42939845D01*
X98983110Y-42818524D01*
X98835901Y-42863175D01*
X98573080Y-42988359D01*
X98339731Y-43162412D01*
X98144822Y-43378645D01*
X98075195Y-43495534D01*
X97953475Y-43313368D01*
X97746632Y-43106525D01*
X97503411Y-42944010D01*
X97233158Y-42832068D01*
X96946260Y-42775000D01*
X96653740Y-42775000D01*
X96366842Y-42832068D01*
X96096589Y-42944010D01*
X95853368Y-43106525D01*
X95646525Y-43313368D01*
X95524805Y-43495534D01*
X95455178Y-43378645D01*
X95260269Y-43162412D01*
X95026920Y-42988359D01*
X94764099Y-42863175D01*
X94616890Y-42818524D01*
X94387000Y-42939845D01*
X94387000Y-44133000D01*
X94407000Y-44133000D01*
X94407000Y-44387000D01*
X94387000Y-44387000D01*
X94387000Y-44407000D01*
X94133000Y-44407000D01*
X94133000Y-44387000D01*
X94113000Y-44387000D01*
X94113000Y-44133000D01*
X94133000Y-44133000D01*
X94133000Y-42939845D01*
X93903110Y-42818524D01*
X93755901Y-42863175D01*
X93493080Y-42988359D01*
X93259731Y-43162412D01*
X93064822Y-43378645D01*
X92995195Y-43495534D01*
X92873475Y-43313368D01*
X92666632Y-43106525D01*
X92423411Y-42944010D01*
X92153158Y-42832068D01*
X91866260Y-42775000D01*
X91573740Y-42775000D01*
X91286842Y-42832068D01*
X91016589Y-42944010D01*
X90773368Y-43106525D01*
X90566525Y-43313368D01*
X90450000Y-43487760D01*
X90333475Y-43313368D01*
X90126632Y-43106525D01*
X89883411Y-42944010D01*
X89613158Y-42832068D01*
X89326260Y-42775000D01*
X89033740Y-42775000D01*
X88746842Y-42832068D01*
X88476589Y-42944010D01*
X88233368Y-43106525D01*
X88026525Y-43313368D01*
X87910000Y-43487760D01*
X87793475Y-43313368D01*
X87586632Y-43106525D01*
X87343411Y-42944010D01*
X87073158Y-42832068D01*
X86786260Y-42775000D01*
X86493740Y-42775000D01*
X86206842Y-42832068D01*
X85936589Y-42944010D01*
X85693368Y-43106525D01*
X85486525Y-43313368D01*
X85370000Y-43487760D01*
X85253475Y-43313368D01*
X85046632Y-43106525D01*
X84803411Y-42944010D01*
X84533158Y-42832068D01*
X84246260Y-42775000D01*
X83953740Y-42775000D01*
X83666842Y-42832068D01*
X83396589Y-42944010D01*
X83153368Y-43106525D01*
X82946525Y-43313368D01*
X82824805Y-43495534D01*
X82755178Y-43378645D01*
X82560269Y-43162412D01*
X82326920Y-42988359D01*
X82064099Y-42863175D01*
X81916890Y-42818524D01*
X81687000Y-42939845D01*
X81687000Y-44133000D01*
X81707000Y-44133000D01*
X81707000Y-44387000D01*
X81687000Y-44387000D01*
X81687000Y-44407000D01*
X81433000Y-44407000D01*
X81433000Y-44387000D01*
X81413000Y-44387000D01*
X81413000Y-44133000D01*
X81433000Y-44133000D01*
X81433000Y-42939845D01*
X81203110Y-42818524D01*
X81055901Y-42863175D01*
X80793080Y-42988359D01*
X80559731Y-43162412D01*
X80364822Y-43378645D01*
X80295195Y-43495534D01*
X80173475Y-43313368D01*
X79966632Y-43106525D01*
X79723411Y-42944010D01*
X79453158Y-42832068D01*
X79166260Y-42775000D01*
X78873740Y-42775000D01*
X78586842Y-42832068D01*
X78316589Y-42944010D01*
X78073368Y-43106525D01*
X77866525Y-43313368D01*
X77750000Y-43487760D01*
X77633475Y-43313368D01*
X77426632Y-43106525D01*
X77183411Y-42944010D01*
X76913158Y-42832068D01*
X76626260Y-42775000D01*
X76333740Y-42775000D01*
X76046842Y-42832068D01*
X75776589Y-42944010D01*
X75533368Y-43106525D01*
X75326525Y-43313368D01*
X75204805Y-43495534D01*
X75135178Y-43378645D01*
X74940269Y-43162412D01*
X74706920Y-42988359D01*
X74444099Y-42863175D01*
X74296890Y-42818524D01*
X74067000Y-42939845D01*
X74067000Y-44133000D01*
X74087000Y-44133000D01*
X74087000Y-44387000D01*
X74067000Y-44387000D01*
X74067000Y-44407000D01*
X73813000Y-44407000D01*
X73813000Y-44387000D01*
X73793000Y-44387000D01*
X73793000Y-44133000D01*
X73813000Y-44133000D01*
X73813000Y-42939845D01*
X73583110Y-42818524D01*
X73435901Y-42863175D01*
X73173080Y-42988359D01*
X72939731Y-43162412D01*
X72744822Y-43378645D01*
X72675195Y-43495534D01*
X72553475Y-43313368D01*
X72346632Y-43106525D01*
X72103411Y-42944010D01*
X71833158Y-42832068D01*
X71546260Y-42775000D01*
X71253740Y-42775000D01*
X70966842Y-42832068D01*
X70696589Y-42944010D01*
X70453368Y-43106525D01*
X70246525Y-43313368D01*
X70130000Y-43487760D01*
X70013475Y-43313368D01*
X69806632Y-43106525D01*
X69563411Y-42944010D01*
X69293158Y-42832068D01*
X69006260Y-42775000D01*
X68713740Y-42775000D01*
X68426842Y-42832068D01*
X68156589Y-42944010D01*
X67913368Y-43106525D01*
X67706525Y-43313368D01*
X67590000Y-43487760D01*
X67473475Y-43313368D01*
X67266632Y-43106525D01*
X67023411Y-42944010D01*
X66753158Y-42832068D01*
X66466260Y-42775000D01*
X66173740Y-42775000D01*
X65886842Y-42832068D01*
X65616589Y-42944010D01*
X65373368Y-43106525D01*
X65166525Y-43313368D01*
X65044805Y-43495534D01*
X64975178Y-43378645D01*
X64780269Y-43162412D01*
X64546920Y-42988359D01*
X64284099Y-42863175D01*
X64136890Y-42818524D01*
X63907000Y-42939845D01*
X63907000Y-44133000D01*
X63927000Y-44133000D01*
X63927000Y-44387000D01*
X63907000Y-44387000D01*
X63907000Y-44407000D01*
X63653000Y-44407000D01*
X63653000Y-44387000D01*
X63633000Y-44387000D01*
X63633000Y-44133000D01*
X63653000Y-44133000D01*
X63653000Y-42939845D01*
X63423110Y-42818524D01*
X63275901Y-42863175D01*
X63013080Y-42988359D01*
X62779731Y-43162412D01*
X62584822Y-43378645D01*
X62515195Y-43495534D01*
X62393475Y-43313368D01*
X62186632Y-43106525D01*
X61943411Y-42944010D01*
X61673158Y-42832068D01*
X61386260Y-42775000D01*
X61093740Y-42775000D01*
X60806842Y-42832068D01*
X60536589Y-42944010D01*
X60293368Y-43106525D01*
X60274893Y-43125000D01*
X59665107Y-43125000D01*
X59646632Y-43106525D01*
X59403411Y-42944010D01*
X59133158Y-42832068D01*
X58846260Y-42775000D01*
X58553740Y-42775000D01*
X58266842Y-42832068D01*
X57996589Y-42944010D01*
X57753368Y-43106525D01*
X57734893Y-43125000D01*
X57553670Y-43125000D01*
X57497918Y-43119509D01*
X57275419Y-43141423D01*
X57260361Y-43145991D01*
X57061472Y-43206324D01*
X56864296Y-43311716D01*
X56691470Y-43453551D01*
X56655923Y-43496865D01*
X56293644Y-43859144D01*
X56118601Y-43597174D01*
X55702826Y-43181399D01*
X55213928Y-42854727D01*
X54743814Y-42660000D01*
X110856186Y-42660000D01*
X110386072Y-42854727D01*
%TA.AperFunction,Conductor*%
D23*
G36*
X110386072Y-42854727D02*
G01*
X109897174Y-43181399D01*
X109481399Y-43597174D01*
X109154727Y-44086072D01*
X108929712Y-44629308D01*
X108815000Y-45206003D01*
X108815000Y-45399200D01*
X108306222Y-44890423D01*
X108387932Y-44693158D01*
X108445000Y-44406260D01*
X108445000Y-44113740D01*
X108387932Y-43826842D01*
X108275990Y-43556589D01*
X108113475Y-43313368D01*
X107906632Y-43106525D01*
X107663411Y-42944010D01*
X107393158Y-42832068D01*
X107106260Y-42775000D01*
X106813740Y-42775000D01*
X106526842Y-42832068D01*
X106256589Y-42944010D01*
X106013368Y-43106525D01*
X105806525Y-43313368D01*
X105690000Y-43487760D01*
X105573475Y-43313368D01*
X105366632Y-43106525D01*
X105123411Y-42944010D01*
X104853158Y-42832068D01*
X104566260Y-42775000D01*
X104273740Y-42775000D01*
X103986842Y-42832068D01*
X103716589Y-42944010D01*
X103473368Y-43106525D01*
X103266525Y-43313368D01*
X103150000Y-43487760D01*
X103033475Y-43313368D01*
X102826632Y-43106525D01*
X102583411Y-42944010D01*
X102313158Y-42832068D01*
X102026260Y-42775000D01*
X101733740Y-42775000D01*
X101446842Y-42832068D01*
X101176589Y-42944010D01*
X100933368Y-43106525D01*
X100726525Y-43313368D01*
X100604805Y-43495534D01*
X100535178Y-43378645D01*
X100340269Y-43162412D01*
X100106920Y-42988359D01*
X99844099Y-42863175D01*
X99696890Y-42818524D01*
X99467000Y-42939845D01*
X99467000Y-44133000D01*
X99487000Y-44133000D01*
X99487000Y-44387000D01*
X99467000Y-44387000D01*
X99467000Y-44407000D01*
X99213000Y-44407000D01*
X99213000Y-44387000D01*
X99193000Y-44387000D01*
X99193000Y-44133000D01*
X99213000Y-44133000D01*
X99213000Y-42939845D01*
X98983110Y-42818524D01*
X98835901Y-42863175D01*
X98573080Y-42988359D01*
X98339731Y-43162412D01*
X98144822Y-43378645D01*
X98075195Y-43495534D01*
X97953475Y-43313368D01*
X97746632Y-43106525D01*
X97503411Y-42944010D01*
X97233158Y-42832068D01*
X96946260Y-42775000D01*
X96653740Y-42775000D01*
X96366842Y-42832068D01*
X96096589Y-42944010D01*
X95853368Y-43106525D01*
X95646525Y-43313368D01*
X95524805Y-43495534D01*
X95455178Y-43378645D01*
X95260269Y-43162412D01*
X95026920Y-42988359D01*
X94764099Y-42863175D01*
X94616890Y-42818524D01*
X94387000Y-42939845D01*
X94387000Y-44133000D01*
X94407000Y-44133000D01*
X94407000Y-44387000D01*
X94387000Y-44387000D01*
X94387000Y-44407000D01*
X94133000Y-44407000D01*
X94133000Y-44387000D01*
X94113000Y-44387000D01*
X94113000Y-44133000D01*
X94133000Y-44133000D01*
X94133000Y-42939845D01*
X93903110Y-42818524D01*
X93755901Y-42863175D01*
X93493080Y-42988359D01*
X93259731Y-43162412D01*
X93064822Y-43378645D01*
X92995195Y-43495534D01*
X92873475Y-43313368D01*
X92666632Y-43106525D01*
X92423411Y-42944010D01*
X92153158Y-42832068D01*
X91866260Y-42775000D01*
X91573740Y-42775000D01*
X91286842Y-42832068D01*
X91016589Y-42944010D01*
X90773368Y-43106525D01*
X90566525Y-43313368D01*
X90450000Y-43487760D01*
X90333475Y-43313368D01*
X90126632Y-43106525D01*
X89883411Y-42944010D01*
X89613158Y-42832068D01*
X89326260Y-42775000D01*
X89033740Y-42775000D01*
X88746842Y-42832068D01*
X88476589Y-42944010D01*
X88233368Y-43106525D01*
X88026525Y-43313368D01*
X87910000Y-43487760D01*
X87793475Y-43313368D01*
X87586632Y-43106525D01*
X87343411Y-42944010D01*
X87073158Y-42832068D01*
X86786260Y-42775000D01*
X86493740Y-42775000D01*
X86206842Y-42832068D01*
X85936589Y-42944010D01*
X85693368Y-43106525D01*
X85486525Y-43313368D01*
X85370000Y-43487760D01*
X85253475Y-43313368D01*
X85046632Y-43106525D01*
X84803411Y-42944010D01*
X84533158Y-42832068D01*
X84246260Y-42775000D01*
X83953740Y-42775000D01*
X83666842Y-42832068D01*
X83396589Y-42944010D01*
X83153368Y-43106525D01*
X82946525Y-43313368D01*
X82824805Y-43495534D01*
X82755178Y-43378645D01*
X82560269Y-43162412D01*
X82326920Y-42988359D01*
X82064099Y-42863175D01*
X81916890Y-42818524D01*
X81687000Y-42939845D01*
X81687000Y-44133000D01*
X81707000Y-44133000D01*
X81707000Y-44387000D01*
X81687000Y-44387000D01*
X81687000Y-44407000D01*
X81433000Y-44407000D01*
X81433000Y-44387000D01*
X81413000Y-44387000D01*
X81413000Y-44133000D01*
X81433000Y-44133000D01*
X81433000Y-42939845D01*
X81203110Y-42818524D01*
X81055901Y-42863175D01*
X80793080Y-42988359D01*
X80559731Y-43162412D01*
X80364822Y-43378645D01*
X80295195Y-43495534D01*
X80173475Y-43313368D01*
X79966632Y-43106525D01*
X79723411Y-42944010D01*
X79453158Y-42832068D01*
X79166260Y-42775000D01*
X78873740Y-42775000D01*
X78586842Y-42832068D01*
X78316589Y-42944010D01*
X78073368Y-43106525D01*
X77866525Y-43313368D01*
X77750000Y-43487760D01*
X77633475Y-43313368D01*
X77426632Y-43106525D01*
X77183411Y-42944010D01*
X76913158Y-42832068D01*
X76626260Y-42775000D01*
X76333740Y-42775000D01*
X76046842Y-42832068D01*
X75776589Y-42944010D01*
X75533368Y-43106525D01*
X75326525Y-43313368D01*
X75204805Y-43495534D01*
X75135178Y-43378645D01*
X74940269Y-43162412D01*
X74706920Y-42988359D01*
X74444099Y-42863175D01*
X74296890Y-42818524D01*
X74067000Y-42939845D01*
X74067000Y-44133000D01*
X74087000Y-44133000D01*
X74087000Y-44387000D01*
X74067000Y-44387000D01*
X74067000Y-44407000D01*
X73813000Y-44407000D01*
X73813000Y-44387000D01*
X73793000Y-44387000D01*
X73793000Y-44133000D01*
X73813000Y-44133000D01*
X73813000Y-42939845D01*
X73583110Y-42818524D01*
X73435901Y-42863175D01*
X73173080Y-42988359D01*
X72939731Y-43162412D01*
X72744822Y-43378645D01*
X72675195Y-43495534D01*
X72553475Y-43313368D01*
X72346632Y-43106525D01*
X72103411Y-42944010D01*
X71833158Y-42832068D01*
X71546260Y-42775000D01*
X71253740Y-42775000D01*
X70966842Y-42832068D01*
X70696589Y-42944010D01*
X70453368Y-43106525D01*
X70246525Y-43313368D01*
X70130000Y-43487760D01*
X70013475Y-43313368D01*
X69806632Y-43106525D01*
X69563411Y-42944010D01*
X69293158Y-42832068D01*
X69006260Y-42775000D01*
X68713740Y-42775000D01*
X68426842Y-42832068D01*
X68156589Y-42944010D01*
X67913368Y-43106525D01*
X67706525Y-43313368D01*
X67590000Y-43487760D01*
X67473475Y-43313368D01*
X67266632Y-43106525D01*
X67023411Y-42944010D01*
X66753158Y-42832068D01*
X66466260Y-42775000D01*
X66173740Y-42775000D01*
X65886842Y-42832068D01*
X65616589Y-42944010D01*
X65373368Y-43106525D01*
X65166525Y-43313368D01*
X65044805Y-43495534D01*
X64975178Y-43378645D01*
X64780269Y-43162412D01*
X64546920Y-42988359D01*
X64284099Y-42863175D01*
X64136890Y-42818524D01*
X63907000Y-42939845D01*
X63907000Y-44133000D01*
X63927000Y-44133000D01*
X63927000Y-44387000D01*
X63907000Y-44387000D01*
X63907000Y-44407000D01*
X63653000Y-44407000D01*
X63653000Y-44387000D01*
X63633000Y-44387000D01*
X63633000Y-44133000D01*
X63653000Y-44133000D01*
X63653000Y-42939845D01*
X63423110Y-42818524D01*
X63275901Y-42863175D01*
X63013080Y-42988359D01*
X62779731Y-43162412D01*
X62584822Y-43378645D01*
X62515195Y-43495534D01*
X62393475Y-43313368D01*
X62186632Y-43106525D01*
X61943411Y-42944010D01*
X61673158Y-42832068D01*
X61386260Y-42775000D01*
X61093740Y-42775000D01*
X60806842Y-42832068D01*
X60536589Y-42944010D01*
X60293368Y-43106525D01*
X60274893Y-43125000D01*
X59665107Y-43125000D01*
X59646632Y-43106525D01*
X59403411Y-42944010D01*
X59133158Y-42832068D01*
X58846260Y-42775000D01*
X58553740Y-42775000D01*
X58266842Y-42832068D01*
X57996589Y-42944010D01*
X57753368Y-43106525D01*
X57734893Y-43125000D01*
X57553670Y-43125000D01*
X57497918Y-43119509D01*
X57275419Y-43141423D01*
X57260361Y-43145991D01*
X57061472Y-43206324D01*
X56864296Y-43311716D01*
X56691470Y-43453551D01*
X56655923Y-43496865D01*
X56293644Y-43859144D01*
X56118601Y-43597174D01*
X55702826Y-43181399D01*
X55213928Y-42854727D01*
X54743814Y-42660000D01*
X110856186Y-42660000D01*
X110386072Y-42854727D01*
G37*
%TD.AperFunction*%
%TD*%
M02*
