%TF.GenerationSoftware,KiCad,Pcbnew,5.1.10*%
%TF.CreationDate,2021-11-02T21:36:03+05:45*%
%TF.ProjectId,RobotHat,526f626f-7448-4617-942e-6b696361645f,rev?*%
%TF.SameCoordinates,Original*%
%TF.FileFunction,Legend,Top*%
%TF.FilePolarity,Positive*%
%FSLAX46Y46*%
G04 Gerber Fmt 4.6, Leading zero omitted, Abs format (unit mm)*
G04 Created by KiCad (PCBNEW 5.1.10) date 2021-11-02 21:36:03*
%MOMM*%
%LPD*%
G01*
G04 APERTURE LIST*
%ADD10C,0.120000*%
%ADD11C,0.100000*%
%ADD12C,0.150000*%
%ADD13C,0.300000*%
G04 APERTURE END LIST*
D10*
%TO.C,Y1*%
X72400000Y-62950000D02*
X72400000Y-66350000D01*
X72400000Y-66350000D02*
X70400000Y-66350000D01*
X70400000Y-66350000D02*
X70400000Y-62950000D01*
X70400000Y-62950000D02*
X72400000Y-62950000D01*
%TO.C,Q3*%
X69860000Y-51880000D02*
X69860000Y-50950000D01*
X69860000Y-48720000D02*
X69860000Y-49650000D01*
X69860000Y-48720000D02*
X67700000Y-48720000D01*
X69860000Y-51880000D02*
X68400000Y-51880000D01*
%TO.C,R10*%
X66985000Y-50072936D02*
X66985000Y-50527064D01*
X65515000Y-50072936D02*
X65515000Y-50527064D01*
%TO.C,R9*%
X76935000Y-50022936D02*
X76935000Y-50477064D01*
X75465000Y-50022936D02*
X75465000Y-50477064D01*
%TO.C,R8*%
X72735000Y-50072936D02*
X72735000Y-50527064D01*
X71265000Y-50072936D02*
X71265000Y-50527064D01*
%TO.C,R7*%
X82585000Y-50072936D02*
X82585000Y-50527064D01*
X81115000Y-50072936D02*
X81115000Y-50527064D01*
%TO.C,R3*%
X77672936Y-53915000D02*
X78127064Y-53915000D01*
X77672936Y-55385000D02*
X78127064Y-55385000D01*
%TO.C,J6*%
X114510000Y-72790000D02*
X108540000Y-72790000D01*
X108540000Y-72790000D02*
X108540000Y-85410000D01*
X108540000Y-85410000D02*
X114510000Y-85410000D01*
X114510000Y-85410000D02*
X114510000Y-72790000D01*
X114500000Y-76100000D02*
X113750000Y-76100000D01*
X113750000Y-76100000D02*
X113750000Y-82100000D01*
X113750000Y-82100000D02*
X114500000Y-82100000D01*
X114500000Y-82100000D02*
X114500000Y-76100000D01*
X114500000Y-72800000D02*
X113750000Y-72800000D01*
X113750000Y-72800000D02*
X113750000Y-74600000D01*
X113750000Y-74600000D02*
X114500000Y-74600000D01*
X114500000Y-74600000D02*
X114500000Y-72800000D01*
X114500000Y-83600000D02*
X113750000Y-83600000D01*
X113750000Y-83600000D02*
X113750000Y-85400000D01*
X113750000Y-85400000D02*
X114500000Y-85400000D01*
X114500000Y-85400000D02*
X114500000Y-83600000D01*
X112250000Y-72800000D02*
X112250000Y-73550000D01*
X112250000Y-73550000D02*
X109300000Y-73550000D01*
X109300000Y-73550000D02*
X109300000Y-79100000D01*
X112250000Y-85400000D02*
X112250000Y-84650000D01*
X112250000Y-84650000D02*
X109300000Y-84650000D01*
X109300000Y-84650000D02*
X109300000Y-79100000D01*
X114800000Y-73750000D02*
X114800000Y-72500000D01*
X114800000Y-72500000D02*
X113550000Y-72500000D01*
%TO.C,C8*%
X84810000Y-85990000D02*
X83610000Y-85990000D01*
X80290000Y-85990000D02*
X81490000Y-85990000D01*
X80290000Y-89445563D02*
X80290000Y-85990000D01*
X84810000Y-89445563D02*
X84810000Y-85990000D01*
X83745563Y-90510000D02*
X83610000Y-90510000D01*
X81354437Y-90510000D02*
X81490000Y-90510000D01*
X81354437Y-90510000D02*
X80290000Y-89445563D01*
X83745563Y-90510000D02*
X84810000Y-89445563D01*
X80990000Y-91250000D02*
X80990000Y-90750000D01*
X80740000Y-91000000D02*
X81240000Y-91000000D01*
%TO.C,C5*%
X58790000Y-84160000D02*
X61140000Y-84160000D01*
X65610000Y-84160000D02*
X63260000Y-84160000D01*
X65610000Y-78404437D02*
X65610000Y-84160000D01*
X58790000Y-78404437D02*
X58790000Y-84160000D01*
X59854437Y-77340000D02*
X61140000Y-77340000D01*
X64545563Y-77340000D02*
X63260000Y-77340000D01*
X64545563Y-77340000D02*
X65610000Y-78404437D01*
X59854437Y-77340000D02*
X58790000Y-78404437D01*
X64047500Y-76312500D02*
X64047500Y-77100000D01*
X64441250Y-76706250D02*
X63653750Y-76706250D01*
%TO.C,C1*%
X66290000Y-97540000D02*
X66290000Y-99890000D01*
X66290000Y-104360000D02*
X66290000Y-102010000D01*
X72045563Y-104360000D02*
X66290000Y-104360000D01*
X72045563Y-97540000D02*
X66290000Y-97540000D01*
X73110000Y-98604437D02*
X73110000Y-99890000D01*
X73110000Y-103295563D02*
X73110000Y-102010000D01*
X73110000Y-103295563D02*
X72045563Y-104360000D01*
X73110000Y-98604437D02*
X72045563Y-97540000D01*
X74137500Y-102797500D02*
X73350000Y-102797500D01*
X73743750Y-103191250D02*
X73743750Y-102403750D01*
%TO.C,L1*%
X78550000Y-84900000D02*
X66550000Y-84900000D01*
X78550000Y-72900000D02*
X78550000Y-84900000D01*
X66550000Y-72900000D02*
X78550000Y-72900000D01*
X66550000Y-84900000D02*
X66550000Y-72900000D01*
%TO.C,Q2*%
X79760000Y-51830000D02*
X79760000Y-50900000D01*
X79760000Y-48670000D02*
X79760000Y-49600000D01*
X79760000Y-48670000D02*
X77600000Y-48670000D01*
X79760000Y-51830000D02*
X78300000Y-51830000D01*
%TO.C,SW1*%
X113950000Y-89500000D02*
X113950000Y-89400000D01*
X109550000Y-91200000D02*
X113950000Y-91200000D01*
X113950000Y-87700000D02*
X109550000Y-87700000D01*
X109550000Y-89500000D02*
X109550000Y-89400000D01*
%TO.C,R6*%
X89453641Y-79080000D02*
X89146359Y-79080000D01*
X89453641Y-78320000D02*
X89146359Y-78320000D01*
D11*
%TO.C,D4*%
X88940000Y-77500000D02*
G75*
G03*
X88940000Y-77500000I-50000J0D01*
G01*
D10*
%TO.C,J4*%
X106630000Y-85780000D02*
X105300000Y-85780000D01*
X106630000Y-84450000D02*
X106630000Y-85780000D01*
X104030000Y-85780000D02*
X101430000Y-85780000D01*
X104030000Y-83180000D02*
X104030000Y-85780000D01*
X106630000Y-83180000D02*
X104030000Y-83180000D01*
X101430000Y-85780000D02*
X101430000Y-78040000D01*
X106630000Y-83180000D02*
X106630000Y-78040000D01*
X106630000Y-78040000D02*
X101430000Y-78040000D01*
%TO.C,J5*%
X62120000Y-64720000D02*
X60850000Y-64720000D01*
X62120000Y-63450000D02*
X62120000Y-64720000D01*
X59807071Y-50370000D02*
X59410000Y-50370000D01*
X59807071Y-51130000D02*
X59410000Y-51130000D01*
X50750000Y-50370000D02*
X56750000Y-50370000D01*
X50750000Y-51130000D02*
X50750000Y-50370000D01*
X56750000Y-51130000D02*
X50750000Y-51130000D01*
X59410000Y-52020000D02*
X56750000Y-52020000D01*
X59807071Y-52910000D02*
X59410000Y-52910000D01*
X59807071Y-53670000D02*
X59410000Y-53670000D01*
X50750000Y-52910000D02*
X56750000Y-52910000D01*
X50750000Y-53670000D02*
X50750000Y-52910000D01*
X56750000Y-53670000D02*
X50750000Y-53670000D01*
X59410000Y-54560000D02*
X56750000Y-54560000D01*
X59807071Y-55450000D02*
X59410000Y-55450000D01*
X59807071Y-56210000D02*
X59410000Y-56210000D01*
X50750000Y-55450000D02*
X56750000Y-55450000D01*
X50750000Y-56210000D02*
X50750000Y-55450000D01*
X56750000Y-56210000D02*
X50750000Y-56210000D01*
X59410000Y-57100000D02*
X56750000Y-57100000D01*
X59807071Y-57990000D02*
X59410000Y-57990000D01*
X59807071Y-58750000D02*
X59410000Y-58750000D01*
X50750000Y-57990000D02*
X56750000Y-57990000D01*
X50750000Y-58750000D02*
X50750000Y-57990000D01*
X56750000Y-58750000D02*
X50750000Y-58750000D01*
X59410000Y-59640000D02*
X56750000Y-59640000D01*
X59807071Y-60530000D02*
X59410000Y-60530000D01*
X59807071Y-61290000D02*
X59410000Y-61290000D01*
X50750000Y-60530000D02*
X56750000Y-60530000D01*
X50750000Y-61290000D02*
X50750000Y-60530000D01*
X56750000Y-61290000D02*
X50750000Y-61290000D01*
X59410000Y-62180000D02*
X56750000Y-62180000D01*
X59740000Y-63070000D02*
X59410000Y-63070000D01*
X59740000Y-63830000D02*
X59410000Y-63830000D01*
X56750000Y-63170000D02*
X50750000Y-63170000D01*
X56750000Y-63290000D02*
X50750000Y-63290000D01*
X56750000Y-63410000D02*
X50750000Y-63410000D01*
X56750000Y-63530000D02*
X50750000Y-63530000D01*
X56750000Y-63650000D02*
X50750000Y-63650000D01*
X56750000Y-63770000D02*
X50750000Y-63770000D01*
X50750000Y-63070000D02*
X56750000Y-63070000D01*
X50750000Y-63830000D02*
X50750000Y-63070000D01*
X56750000Y-63830000D02*
X50750000Y-63830000D01*
X56750000Y-64780000D02*
X59410000Y-64780000D01*
X56750000Y-49420000D02*
X56750000Y-64780000D01*
X59410000Y-49420000D02*
X56750000Y-49420000D01*
X59410000Y-64780000D02*
X59410000Y-49420000D01*
D12*
%TO.C,U1*%
X75925000Y-59050000D02*
X74500000Y-59050000D01*
X83175000Y-58825000D02*
X82850000Y-58825000D01*
X83175000Y-66075000D02*
X82850000Y-66075000D01*
X75925000Y-66075000D02*
X76250000Y-66075000D01*
X75925000Y-58825000D02*
X76250000Y-58825000D01*
X75925000Y-66075000D02*
X75925000Y-65750000D01*
X83175000Y-66075000D02*
X83175000Y-65750000D01*
X83175000Y-58825000D02*
X83175000Y-59150000D01*
X75925000Y-58825000D02*
X75925000Y-59050000D01*
D10*
%TO.C,Q1*%
X62140000Y-97670000D02*
X62140000Y-98600000D01*
X62140000Y-100830000D02*
X62140000Y-99900000D01*
X62140000Y-100830000D02*
X64300000Y-100830000D01*
X62140000Y-97670000D02*
X63600000Y-97670000D01*
%TO.C,D1*%
X77750000Y-92000000D02*
X77650000Y-92000000D01*
X77750000Y-91800000D02*
X77750000Y-92000000D01*
X76750000Y-91600000D02*
X76850000Y-91600000D01*
X76750000Y-91800000D02*
X76750000Y-91600000D01*
X77750000Y-91100000D02*
X77250000Y-91800000D01*
X76750000Y-91100000D02*
X77650000Y-91100000D01*
X77750000Y-91100000D02*
X76750000Y-91100000D01*
X77250000Y-91800000D02*
X76750000Y-91100000D01*
X76750000Y-91800000D02*
X77750000Y-91800000D01*
X77250000Y-90400000D02*
X77250000Y-92200000D01*
D13*
X77391421Y-95000000D02*
G75*
G03*
X77391421Y-95000000I-141421J0D01*
G01*
D10*
%TO.C,R5*%
X55953641Y-81820000D02*
X55646359Y-81820000D01*
X55953641Y-82580000D02*
X55646359Y-82580000D01*
D11*
%TO.C,D3*%
X52025000Y-82200000D02*
G75*
G03*
X52025000Y-82200000I-50000J0D01*
G01*
D10*
%TO.C,C11*%
X86010000Y-83911252D02*
X86010000Y-82488748D01*
X84190000Y-83911252D02*
X84190000Y-82488748D01*
%TO.C,C10*%
X95390000Y-93788748D02*
X95390000Y-95211252D01*
X97210000Y-93788748D02*
X97210000Y-95211252D01*
%TO.C,C9*%
X86988748Y-95910000D02*
X88411252Y-95910000D01*
X86988748Y-94090000D02*
X88411252Y-94090000D01*
%TO.C,C7*%
X95990000Y-83988748D02*
X95990000Y-85411252D01*
X97810000Y-83988748D02*
X97810000Y-85411252D01*
%TO.C,C3*%
X78592164Y-53360000D02*
X78807836Y-53360000D01*
X78592164Y-52640000D02*
X78807836Y-52640000D01*
%TO.C,C6*%
X86540000Y-62242164D02*
X86540000Y-62457836D01*
X87260000Y-62242164D02*
X87260000Y-62457836D01*
%TO.C,J7*%
X114855000Y-57160000D02*
X106225000Y-57160000D01*
X114855000Y-57041905D02*
X106225000Y-57041905D01*
X114855000Y-56923810D02*
X106225000Y-56923810D01*
X114855000Y-56805715D02*
X106225000Y-56805715D01*
X114855000Y-56687620D02*
X106225000Y-56687620D01*
X114855000Y-56569525D02*
X106225000Y-56569525D01*
X114855000Y-56451430D02*
X106225000Y-56451430D01*
X114855000Y-56333335D02*
X106225000Y-56333335D01*
X114855000Y-56215240D02*
X106225000Y-56215240D01*
X114855000Y-56097145D02*
X106225000Y-56097145D01*
X114855000Y-55979050D02*
X106225000Y-55979050D01*
X114855000Y-55860955D02*
X106225000Y-55860955D01*
X114855000Y-55742860D02*
X106225000Y-55742860D01*
X114855000Y-55624765D02*
X106225000Y-55624765D01*
X114855000Y-55506670D02*
X106225000Y-55506670D01*
X114855000Y-55388575D02*
X106225000Y-55388575D01*
X114855000Y-55270480D02*
X106225000Y-55270480D01*
X114855000Y-55152385D02*
X106225000Y-55152385D01*
X114855000Y-55034290D02*
X106225000Y-55034290D01*
X114855000Y-54916195D02*
X106225000Y-54916195D01*
X114855000Y-54798100D02*
X106225000Y-54798100D01*
X106225000Y-56310000D02*
X105815000Y-56310000D01*
X103715000Y-56310000D02*
X103335000Y-56310000D01*
X106225000Y-55590000D02*
X105815000Y-55590000D01*
X103715000Y-55590000D02*
X103335000Y-55590000D01*
X106225000Y-53770000D02*
X105815000Y-53770000D01*
X103715000Y-53770000D02*
X103275000Y-53770000D01*
X106225000Y-53050000D02*
X105815000Y-53050000D01*
X103715000Y-53050000D02*
X103275000Y-53050000D01*
X106225000Y-51230000D02*
X105815000Y-51230000D01*
X103715000Y-51230000D02*
X103275000Y-51230000D01*
X106225000Y-50510000D02*
X105815000Y-50510000D01*
X103715000Y-50510000D02*
X103275000Y-50510000D01*
X114855000Y-54680000D02*
X106225000Y-54680000D01*
X114855000Y-52140000D02*
X106225000Y-52140000D01*
X114855000Y-57280000D02*
X106225000Y-57280000D01*
X106225000Y-57280000D02*
X106225000Y-49540000D01*
X114855000Y-49540000D02*
X106225000Y-49540000D01*
X114855000Y-57280000D02*
X114855000Y-49540000D01*
X101115000Y-57280000D02*
X101115000Y-55950000D01*
X102225000Y-57280000D02*
X101115000Y-57280000D01*
%TO.C,R2*%
X104410000Y-61672936D02*
X104410000Y-63127064D01*
X102590000Y-61672936D02*
X102590000Y-63127064D01*
%TO.C,R1*%
X102590000Y-69277064D02*
X102590000Y-67822936D01*
X104410000Y-69277064D02*
X104410000Y-67822936D01*
%TO.C,J2*%
X51340000Y-80460000D02*
X57310000Y-80460000D01*
X57310000Y-80460000D02*
X57310000Y-72840000D01*
X57310000Y-72840000D02*
X51340000Y-72840000D01*
X51340000Y-72840000D02*
X51340000Y-80460000D01*
X51350000Y-77150000D02*
X52100000Y-77150000D01*
X52100000Y-77150000D02*
X52100000Y-76150000D01*
X52100000Y-76150000D02*
X51350000Y-76150000D01*
X51350000Y-76150000D02*
X51350000Y-77150000D01*
X51350000Y-80450000D02*
X52100000Y-80450000D01*
X52100000Y-80450000D02*
X52100000Y-78650000D01*
X52100000Y-78650000D02*
X51350000Y-78650000D01*
X51350000Y-78650000D02*
X51350000Y-80450000D01*
X51350000Y-74650000D02*
X52100000Y-74650000D01*
X52100000Y-74650000D02*
X52100000Y-72850000D01*
X52100000Y-72850000D02*
X51350000Y-72850000D01*
X51350000Y-72850000D02*
X51350000Y-74650000D01*
X53600000Y-80450000D02*
X53600000Y-79700000D01*
X53600000Y-79700000D02*
X56550000Y-79700000D01*
X56550000Y-79700000D02*
X56550000Y-76650000D01*
X53600000Y-72850000D02*
X53600000Y-73600000D01*
X53600000Y-73600000D02*
X56550000Y-73600000D01*
X56550000Y-73600000D02*
X56550000Y-76650000D01*
X51050000Y-79500000D02*
X51050000Y-80750000D01*
X51050000Y-80750000D02*
X52300000Y-80750000D01*
%TO.C,U2*%
X68350000Y-87250000D02*
X69450000Y-87250000D01*
X68350000Y-86300000D02*
X68350000Y-87250000D01*
X66850000Y-86300000D02*
X68350000Y-86300000D01*
X68350000Y-95750000D02*
X73475000Y-95750000D01*
X68350000Y-96700000D02*
X68350000Y-95750000D01*
X66850000Y-96700000D02*
X68350000Y-96700000D01*
D12*
%TO.C,U3*%
X86900000Y-90075000D02*
X86900000Y-91675000D01*
X95325000Y-90075000D02*
X95325000Y-84325000D01*
X86675000Y-90075000D02*
X86675000Y-84325000D01*
X95325000Y-90075000D02*
X95025000Y-90075000D01*
X95325000Y-84325000D02*
X95025000Y-84325000D01*
X86675000Y-84325000D02*
X86975000Y-84325000D01*
X86675000Y-90075000D02*
X86900000Y-90075000D01*
D10*
%TO.C,R4*%
X103946359Y-87330000D02*
X104253641Y-87330000D01*
X103946359Y-86570000D02*
X104253641Y-86570000D01*
%TO.C,J11*%
X113700000Y-104500000D02*
X113700000Y-103250000D01*
X112450000Y-104500000D02*
X113700000Y-104500000D01*
X106550000Y-99000000D02*
X109600000Y-99000000D01*
X106550000Y-101950000D02*
X106550000Y-99000000D01*
X105800000Y-101950000D02*
X106550000Y-101950000D01*
X112650000Y-99000000D02*
X109600000Y-99000000D01*
X112650000Y-101950000D02*
X112650000Y-99000000D01*
X113400000Y-101950000D02*
X112650000Y-101950000D01*
X105800000Y-104200000D02*
X107600000Y-104200000D01*
X105800000Y-103450000D02*
X105800000Y-104200000D01*
X107600000Y-103450000D02*
X105800000Y-103450000D01*
X107600000Y-104200000D02*
X107600000Y-103450000D01*
X111600000Y-104200000D02*
X113400000Y-104200000D01*
X111600000Y-103450000D02*
X111600000Y-104200000D01*
X113400000Y-103450000D02*
X111600000Y-103450000D01*
X113400000Y-104200000D02*
X113400000Y-103450000D01*
X109100000Y-104200000D02*
X110100000Y-104200000D01*
X109100000Y-103450000D02*
X109100000Y-104200000D01*
X110100000Y-103450000D02*
X109100000Y-103450000D01*
X110100000Y-104200000D02*
X110100000Y-103450000D01*
X105790000Y-104210000D02*
X113410000Y-104210000D01*
X105790000Y-98240000D02*
X105790000Y-104210000D01*
X113410000Y-98240000D02*
X105790000Y-98240000D01*
X113410000Y-104210000D02*
X113410000Y-98240000D01*
%TO.C,J10*%
X83050000Y-104500000D02*
X83050000Y-103250000D01*
X81800000Y-104500000D02*
X83050000Y-104500000D01*
X75900000Y-99000000D02*
X78950000Y-99000000D01*
X75900000Y-101950000D02*
X75900000Y-99000000D01*
X75150000Y-101950000D02*
X75900000Y-101950000D01*
X82000000Y-99000000D02*
X78950000Y-99000000D01*
X82000000Y-101950000D02*
X82000000Y-99000000D01*
X82750000Y-101950000D02*
X82000000Y-101950000D01*
X75150000Y-104200000D02*
X76950000Y-104200000D01*
X75150000Y-103450000D02*
X75150000Y-104200000D01*
X76950000Y-103450000D02*
X75150000Y-103450000D01*
X76950000Y-104200000D02*
X76950000Y-103450000D01*
X80950000Y-104200000D02*
X82750000Y-104200000D01*
X80950000Y-103450000D02*
X80950000Y-104200000D01*
X82750000Y-103450000D02*
X80950000Y-103450000D01*
X82750000Y-104200000D02*
X82750000Y-103450000D01*
X78450000Y-104200000D02*
X79450000Y-104200000D01*
X78450000Y-103450000D02*
X78450000Y-104200000D01*
X79450000Y-103450000D02*
X78450000Y-103450000D01*
X79450000Y-104200000D02*
X79450000Y-103450000D01*
X75140000Y-104210000D02*
X82760000Y-104210000D01*
X75140000Y-98240000D02*
X75140000Y-104210000D01*
X82760000Y-98240000D02*
X75140000Y-98240000D01*
X82760000Y-104210000D02*
X82760000Y-98240000D01*
%TO.C,J9*%
X105150000Y-104500000D02*
X105150000Y-103250000D01*
X103900000Y-104500000D02*
X105150000Y-104500000D01*
X95500000Y-99000000D02*
X99800000Y-99000000D01*
X95500000Y-101950000D02*
X95500000Y-99000000D01*
X94750000Y-101950000D02*
X95500000Y-101950000D01*
X104100000Y-99000000D02*
X99800000Y-99000000D01*
X104100000Y-101950000D02*
X104100000Y-99000000D01*
X104850000Y-101950000D02*
X104100000Y-101950000D01*
X94750000Y-104200000D02*
X96550000Y-104200000D01*
X94750000Y-103450000D02*
X94750000Y-104200000D01*
X96550000Y-103450000D02*
X94750000Y-103450000D01*
X96550000Y-104200000D02*
X96550000Y-103450000D01*
X103050000Y-104200000D02*
X104850000Y-104200000D01*
X103050000Y-103450000D02*
X103050000Y-104200000D01*
X104850000Y-103450000D02*
X103050000Y-103450000D01*
X104850000Y-104200000D02*
X104850000Y-103450000D01*
X98050000Y-104200000D02*
X101550000Y-104200000D01*
X98050000Y-103450000D02*
X98050000Y-104200000D01*
X101550000Y-103450000D02*
X98050000Y-103450000D01*
X101550000Y-104200000D02*
X101550000Y-103450000D01*
X94740000Y-104210000D02*
X104860000Y-104210000D01*
X94740000Y-98240000D02*
X94740000Y-104210000D01*
X104860000Y-98240000D02*
X94740000Y-98240000D01*
X104860000Y-104210000D02*
X104860000Y-98240000D01*
%TO.C,J8*%
X94100000Y-104500000D02*
X94100000Y-103250000D01*
X92850000Y-104500000D02*
X94100000Y-104500000D01*
X84450000Y-99000000D02*
X88750000Y-99000000D01*
X84450000Y-101950000D02*
X84450000Y-99000000D01*
X83700000Y-101950000D02*
X84450000Y-101950000D01*
X93050000Y-99000000D02*
X88750000Y-99000000D01*
X93050000Y-101950000D02*
X93050000Y-99000000D01*
X93800000Y-101950000D02*
X93050000Y-101950000D01*
X83700000Y-104200000D02*
X85500000Y-104200000D01*
X83700000Y-103450000D02*
X83700000Y-104200000D01*
X85500000Y-103450000D02*
X83700000Y-103450000D01*
X85500000Y-104200000D02*
X85500000Y-103450000D01*
X92000000Y-104200000D02*
X93800000Y-104200000D01*
X92000000Y-103450000D02*
X92000000Y-104200000D01*
X93800000Y-103450000D02*
X92000000Y-103450000D01*
X93800000Y-104200000D02*
X93800000Y-103450000D01*
X87000000Y-104200000D02*
X90500000Y-104200000D01*
X87000000Y-103450000D02*
X87000000Y-104200000D01*
X90500000Y-103450000D02*
X87000000Y-103450000D01*
X90500000Y-104200000D02*
X90500000Y-103450000D01*
X83690000Y-104210000D02*
X93810000Y-104210000D01*
X83690000Y-98240000D02*
X83690000Y-104210000D01*
X93810000Y-98240000D02*
X83690000Y-98240000D01*
X93810000Y-104210000D02*
X93810000Y-98240000D01*
%TO.C,J1*%
X60550000Y-104450000D02*
X60550000Y-103200000D01*
X59300000Y-104450000D02*
X60550000Y-104450000D01*
X53400000Y-98950000D02*
X56450000Y-98950000D01*
X53400000Y-101900000D02*
X53400000Y-98950000D01*
X52650000Y-101900000D02*
X53400000Y-101900000D01*
X59500000Y-98950000D02*
X56450000Y-98950000D01*
X59500000Y-101900000D02*
X59500000Y-98950000D01*
X60250000Y-101900000D02*
X59500000Y-101900000D01*
X52650000Y-104150000D02*
X54450000Y-104150000D01*
X52650000Y-103400000D02*
X52650000Y-104150000D01*
X54450000Y-103400000D02*
X52650000Y-103400000D01*
X54450000Y-104150000D02*
X54450000Y-103400000D01*
X58450000Y-104150000D02*
X60250000Y-104150000D01*
X58450000Y-103400000D02*
X58450000Y-104150000D01*
X60250000Y-103400000D02*
X58450000Y-103400000D01*
X60250000Y-104150000D02*
X60250000Y-103400000D01*
X55950000Y-104150000D02*
X56950000Y-104150000D01*
X55950000Y-103400000D02*
X55950000Y-104150000D01*
X56950000Y-103400000D02*
X55950000Y-103400000D01*
X56950000Y-104150000D02*
X56950000Y-103400000D01*
X52640000Y-104160000D02*
X60260000Y-104160000D01*
X52640000Y-98190000D02*
X52640000Y-104160000D01*
X60260000Y-98190000D02*
X52640000Y-98190000D01*
X60260000Y-104160000D02*
X60260000Y-98190000D01*
D11*
%TO.C,D2*%
X107375000Y-86950000D02*
G75*
G03*
X107375000Y-86950000I-50000J0D01*
G01*
%TO.C,Y1*%
D12*
X68876190Y-65126190D02*
X69352380Y-65126190D01*
X68352380Y-65459523D02*
X68876190Y-65126190D01*
X68352380Y-64792857D01*
X69352380Y-63935714D02*
X69352380Y-64507142D01*
X69352380Y-64221428D02*
X68352380Y-64221428D01*
X68495238Y-64316666D01*
X68590476Y-64411904D01*
X68638095Y-64507142D01*
%TO.C,Q3*%
X69054761Y-53347619D02*
X68959523Y-53300000D01*
X68864285Y-53204761D01*
X68721428Y-53061904D01*
X68626190Y-53014285D01*
X68530952Y-53014285D01*
X68578571Y-53252380D02*
X68483333Y-53204761D01*
X68388095Y-53109523D01*
X68340476Y-52919047D01*
X68340476Y-52585714D01*
X68388095Y-52395238D01*
X68483333Y-52300000D01*
X68578571Y-52252380D01*
X68769047Y-52252380D01*
X68864285Y-52300000D01*
X68959523Y-52395238D01*
X69007142Y-52585714D01*
X69007142Y-52919047D01*
X68959523Y-53109523D01*
X68864285Y-53204761D01*
X68769047Y-53252380D01*
X68578571Y-53252380D01*
X69340476Y-52252380D02*
X69959523Y-52252380D01*
X69626190Y-52633333D01*
X69769047Y-52633333D01*
X69864285Y-52680952D01*
X69911904Y-52728571D01*
X69959523Y-52823809D01*
X69959523Y-53061904D01*
X69911904Y-53157142D01*
X69864285Y-53204761D01*
X69769047Y-53252380D01*
X69483333Y-53252380D01*
X69388095Y-53204761D01*
X69340476Y-53157142D01*
%TO.C,R10*%
X65007142Y-53202380D02*
X64673809Y-52726190D01*
X64435714Y-53202380D02*
X64435714Y-52202380D01*
X64816666Y-52202380D01*
X64911904Y-52250000D01*
X64959523Y-52297619D01*
X65007142Y-52392857D01*
X65007142Y-52535714D01*
X64959523Y-52630952D01*
X64911904Y-52678571D01*
X64816666Y-52726190D01*
X64435714Y-52726190D01*
X65959523Y-53202380D02*
X65388095Y-53202380D01*
X65673809Y-53202380D02*
X65673809Y-52202380D01*
X65578571Y-52345238D01*
X65483333Y-52440476D01*
X65388095Y-52488095D01*
X66578571Y-52202380D02*
X66673809Y-52202380D01*
X66769047Y-52250000D01*
X66816666Y-52297619D01*
X66864285Y-52392857D01*
X66911904Y-52583333D01*
X66911904Y-52821428D01*
X66864285Y-53011904D01*
X66816666Y-53107142D01*
X66769047Y-53154761D01*
X66673809Y-53202380D01*
X66578571Y-53202380D01*
X66483333Y-53154761D01*
X66435714Y-53107142D01*
X66388095Y-53011904D01*
X66340476Y-52821428D01*
X66340476Y-52583333D01*
X66388095Y-52392857D01*
X66435714Y-52297619D01*
X66483333Y-52250000D01*
X66578571Y-52202380D01*
%TO.C,R9*%
X75833333Y-53102380D02*
X75500000Y-52626190D01*
X75261904Y-53102380D02*
X75261904Y-52102380D01*
X75642857Y-52102380D01*
X75738095Y-52150000D01*
X75785714Y-52197619D01*
X75833333Y-52292857D01*
X75833333Y-52435714D01*
X75785714Y-52530952D01*
X75738095Y-52578571D01*
X75642857Y-52626190D01*
X75261904Y-52626190D01*
X76309523Y-53102380D02*
X76500000Y-53102380D01*
X76595238Y-53054761D01*
X76642857Y-53007142D01*
X76738095Y-52864285D01*
X76785714Y-52673809D01*
X76785714Y-52292857D01*
X76738095Y-52197619D01*
X76690476Y-52150000D01*
X76595238Y-52102380D01*
X76404761Y-52102380D01*
X76309523Y-52150000D01*
X76261904Y-52197619D01*
X76214285Y-52292857D01*
X76214285Y-52530952D01*
X76261904Y-52626190D01*
X76309523Y-52673809D01*
X76404761Y-52721428D01*
X76595238Y-52721428D01*
X76690476Y-52673809D01*
X76738095Y-52626190D01*
X76785714Y-52530952D01*
%TO.C,R8*%
X71683333Y-53202380D02*
X71350000Y-52726190D01*
X71111904Y-53202380D02*
X71111904Y-52202380D01*
X71492857Y-52202380D01*
X71588095Y-52250000D01*
X71635714Y-52297619D01*
X71683333Y-52392857D01*
X71683333Y-52535714D01*
X71635714Y-52630952D01*
X71588095Y-52678571D01*
X71492857Y-52726190D01*
X71111904Y-52726190D01*
X72254761Y-52630952D02*
X72159523Y-52583333D01*
X72111904Y-52535714D01*
X72064285Y-52440476D01*
X72064285Y-52392857D01*
X72111904Y-52297619D01*
X72159523Y-52250000D01*
X72254761Y-52202380D01*
X72445238Y-52202380D01*
X72540476Y-52250000D01*
X72588095Y-52297619D01*
X72635714Y-52392857D01*
X72635714Y-52440476D01*
X72588095Y-52535714D01*
X72540476Y-52583333D01*
X72445238Y-52630952D01*
X72254761Y-52630952D01*
X72159523Y-52678571D01*
X72111904Y-52726190D01*
X72064285Y-52821428D01*
X72064285Y-53011904D01*
X72111904Y-53107142D01*
X72159523Y-53154761D01*
X72254761Y-53202380D01*
X72445238Y-53202380D01*
X72540476Y-53154761D01*
X72588095Y-53107142D01*
X72635714Y-53011904D01*
X72635714Y-52821428D01*
X72588095Y-52726190D01*
X72540476Y-52678571D01*
X72445238Y-52630952D01*
%TO.C,R7*%
X83883333Y-49852380D02*
X83550000Y-49376190D01*
X83311904Y-49852380D02*
X83311904Y-48852380D01*
X83692857Y-48852380D01*
X83788095Y-48900000D01*
X83835714Y-48947619D01*
X83883333Y-49042857D01*
X83883333Y-49185714D01*
X83835714Y-49280952D01*
X83788095Y-49328571D01*
X83692857Y-49376190D01*
X83311904Y-49376190D01*
X84216666Y-48852380D02*
X84883333Y-48852380D01*
X84454761Y-49852380D01*
%TO.C,R3*%
X75083333Y-55102380D02*
X74750000Y-54626190D01*
X74511904Y-55102380D02*
X74511904Y-54102380D01*
X74892857Y-54102380D01*
X74988095Y-54150000D01*
X75035714Y-54197619D01*
X75083333Y-54292857D01*
X75083333Y-54435714D01*
X75035714Y-54530952D01*
X74988095Y-54578571D01*
X74892857Y-54626190D01*
X74511904Y-54626190D01*
X75416666Y-54102380D02*
X76035714Y-54102380D01*
X75702380Y-54483333D01*
X75845238Y-54483333D01*
X75940476Y-54530952D01*
X75988095Y-54578571D01*
X76035714Y-54673809D01*
X76035714Y-54911904D01*
X75988095Y-55007142D01*
X75940476Y-55054761D01*
X75845238Y-55102380D01*
X75559523Y-55102380D01*
X75464285Y-55054761D01*
X75416666Y-55007142D01*
%TO.C,J6*%
X106552380Y-74233333D02*
X107266666Y-74233333D01*
X107409523Y-74280952D01*
X107504761Y-74376190D01*
X107552380Y-74519047D01*
X107552380Y-74614285D01*
X106552380Y-73328571D02*
X106552380Y-73519047D01*
X106600000Y-73614285D01*
X106647619Y-73661904D01*
X106790476Y-73757142D01*
X106980952Y-73804761D01*
X107361904Y-73804761D01*
X107457142Y-73757142D01*
X107504761Y-73709523D01*
X107552380Y-73614285D01*
X107552380Y-73423809D01*
X107504761Y-73328571D01*
X107457142Y-73280952D01*
X107361904Y-73233333D01*
X107123809Y-73233333D01*
X107028571Y-73280952D01*
X106980952Y-73328571D01*
X106933333Y-73423809D01*
X106933333Y-73614285D01*
X106980952Y-73709523D01*
X107028571Y-73757142D01*
X107123809Y-73804761D01*
%TO.C,C8*%
X79707142Y-88416666D02*
X79754761Y-88464285D01*
X79802380Y-88607142D01*
X79802380Y-88702380D01*
X79754761Y-88845238D01*
X79659523Y-88940476D01*
X79564285Y-88988095D01*
X79373809Y-89035714D01*
X79230952Y-89035714D01*
X79040476Y-88988095D01*
X78945238Y-88940476D01*
X78850000Y-88845238D01*
X78802380Y-88702380D01*
X78802380Y-88607142D01*
X78850000Y-88464285D01*
X78897619Y-88416666D01*
X79230952Y-87845238D02*
X79183333Y-87940476D01*
X79135714Y-87988095D01*
X79040476Y-88035714D01*
X78992857Y-88035714D01*
X78897619Y-87988095D01*
X78850000Y-87940476D01*
X78802380Y-87845238D01*
X78802380Y-87654761D01*
X78850000Y-87559523D01*
X78897619Y-87511904D01*
X78992857Y-87464285D01*
X79040476Y-87464285D01*
X79135714Y-87511904D01*
X79183333Y-87559523D01*
X79230952Y-87654761D01*
X79230952Y-87845238D01*
X79278571Y-87940476D01*
X79326190Y-87988095D01*
X79421428Y-88035714D01*
X79611904Y-88035714D01*
X79707142Y-87988095D01*
X79754761Y-87940476D01*
X79802380Y-87845238D01*
X79802380Y-87654761D01*
X79754761Y-87559523D01*
X79707142Y-87511904D01*
X79611904Y-87464285D01*
X79421428Y-87464285D01*
X79326190Y-87511904D01*
X79278571Y-87559523D01*
X79230952Y-87654761D01*
%TO.C,C5*%
X65333333Y-76657142D02*
X65285714Y-76704761D01*
X65142857Y-76752380D01*
X65047619Y-76752380D01*
X64904761Y-76704761D01*
X64809523Y-76609523D01*
X64761904Y-76514285D01*
X64714285Y-76323809D01*
X64714285Y-76180952D01*
X64761904Y-75990476D01*
X64809523Y-75895238D01*
X64904761Y-75800000D01*
X65047619Y-75752380D01*
X65142857Y-75752380D01*
X65285714Y-75800000D01*
X65333333Y-75847619D01*
X66238095Y-75752380D02*
X65761904Y-75752380D01*
X65714285Y-76228571D01*
X65761904Y-76180952D01*
X65857142Y-76133333D01*
X66095238Y-76133333D01*
X66190476Y-76180952D01*
X66238095Y-76228571D01*
X66285714Y-76323809D01*
X66285714Y-76561904D01*
X66238095Y-76657142D01*
X66190476Y-76704761D01*
X66095238Y-76752380D01*
X65857142Y-76752380D01*
X65761904Y-76704761D01*
X65714285Y-76657142D01*
%TO.C,C1*%
X69533333Y-105657142D02*
X69485714Y-105704761D01*
X69342857Y-105752380D01*
X69247619Y-105752380D01*
X69104761Y-105704761D01*
X69009523Y-105609523D01*
X68961904Y-105514285D01*
X68914285Y-105323809D01*
X68914285Y-105180952D01*
X68961904Y-104990476D01*
X69009523Y-104895238D01*
X69104761Y-104800000D01*
X69247619Y-104752380D01*
X69342857Y-104752380D01*
X69485714Y-104800000D01*
X69533333Y-104847619D01*
X70485714Y-105752380D02*
X69914285Y-105752380D01*
X70200000Y-105752380D02*
X70200000Y-104752380D01*
X70104761Y-104895238D01*
X70009523Y-104990476D01*
X69914285Y-105038095D01*
%TO.C,L1*%
X80483333Y-79352380D02*
X80007142Y-79352380D01*
X80007142Y-78352380D01*
X81340476Y-79352380D02*
X80769047Y-79352380D01*
X81054761Y-79352380D02*
X81054761Y-78352380D01*
X80959523Y-78495238D01*
X80864285Y-78590476D01*
X80769047Y-78638095D01*
%TO.C,Q2*%
X83904761Y-51897619D02*
X83809523Y-51850000D01*
X83714285Y-51754761D01*
X83571428Y-51611904D01*
X83476190Y-51564285D01*
X83380952Y-51564285D01*
X83428571Y-51802380D02*
X83333333Y-51754761D01*
X83238095Y-51659523D01*
X83190476Y-51469047D01*
X83190476Y-51135714D01*
X83238095Y-50945238D01*
X83333333Y-50850000D01*
X83428571Y-50802380D01*
X83619047Y-50802380D01*
X83714285Y-50850000D01*
X83809523Y-50945238D01*
X83857142Y-51135714D01*
X83857142Y-51469047D01*
X83809523Y-51659523D01*
X83714285Y-51754761D01*
X83619047Y-51802380D01*
X83428571Y-51802380D01*
X84238095Y-50897619D02*
X84285714Y-50850000D01*
X84380952Y-50802380D01*
X84619047Y-50802380D01*
X84714285Y-50850000D01*
X84761904Y-50897619D01*
X84809523Y-50992857D01*
X84809523Y-51088095D01*
X84761904Y-51230952D01*
X84190476Y-51802380D01*
X84809523Y-51802380D01*
%TO.C,SW1*%
X105666666Y-90804761D02*
X105809523Y-90852380D01*
X106047619Y-90852380D01*
X106142857Y-90804761D01*
X106190476Y-90757142D01*
X106238095Y-90661904D01*
X106238095Y-90566666D01*
X106190476Y-90471428D01*
X106142857Y-90423809D01*
X106047619Y-90376190D01*
X105857142Y-90328571D01*
X105761904Y-90280952D01*
X105714285Y-90233333D01*
X105666666Y-90138095D01*
X105666666Y-90042857D01*
X105714285Y-89947619D01*
X105761904Y-89900000D01*
X105857142Y-89852380D01*
X106095238Y-89852380D01*
X106238095Y-89900000D01*
X106571428Y-89852380D02*
X106809523Y-90852380D01*
X107000000Y-90138095D01*
X107190476Y-90852380D01*
X107428571Y-89852380D01*
X108333333Y-90852380D02*
X107761904Y-90852380D01*
X108047619Y-90852380D02*
X108047619Y-89852380D01*
X107952380Y-89995238D01*
X107857142Y-90090476D01*
X107761904Y-90138095D01*
%TO.C,R6*%
X89233333Y-80402380D02*
X88900000Y-79926190D01*
X88661904Y-80402380D02*
X88661904Y-79402380D01*
X89042857Y-79402380D01*
X89138095Y-79450000D01*
X89185714Y-79497619D01*
X89233333Y-79592857D01*
X89233333Y-79735714D01*
X89185714Y-79830952D01*
X89138095Y-79878571D01*
X89042857Y-79926190D01*
X88661904Y-79926190D01*
X90090476Y-79402380D02*
X89900000Y-79402380D01*
X89804761Y-79450000D01*
X89757142Y-79497619D01*
X89661904Y-79640476D01*
X89614285Y-79830952D01*
X89614285Y-80211904D01*
X89661904Y-80307142D01*
X89709523Y-80354761D01*
X89804761Y-80402380D01*
X89995238Y-80402380D01*
X90090476Y-80354761D01*
X90138095Y-80307142D01*
X90185714Y-80211904D01*
X90185714Y-79973809D01*
X90138095Y-79878571D01*
X90090476Y-79830952D01*
X89995238Y-79783333D01*
X89804761Y-79783333D01*
X89709523Y-79830952D01*
X89661904Y-79878571D01*
X89614285Y-79973809D01*
%TO.C,D4*%
X86811904Y-76652380D02*
X86811904Y-75652380D01*
X87050000Y-75652380D01*
X87192857Y-75700000D01*
X87288095Y-75795238D01*
X87335714Y-75890476D01*
X87383333Y-76080952D01*
X87383333Y-76223809D01*
X87335714Y-76414285D01*
X87288095Y-76509523D01*
X87192857Y-76604761D01*
X87050000Y-76652380D01*
X86811904Y-76652380D01*
X88240476Y-75985714D02*
X88240476Y-76652380D01*
X88002380Y-75604761D02*
X87764285Y-76319047D01*
X88383333Y-76319047D01*
%TO.C,J4*%
X100966666Y-86952380D02*
X100966666Y-87666666D01*
X100919047Y-87809523D01*
X100823809Y-87904761D01*
X100680952Y-87952380D01*
X100585714Y-87952380D01*
X101871428Y-87285714D02*
X101871428Y-87952380D01*
X101633333Y-86904761D02*
X101395238Y-87619047D01*
X102014285Y-87619047D01*
%TO.C,J5*%
X56131666Y-65172380D02*
X56131666Y-65886666D01*
X56084047Y-66029523D01*
X55988809Y-66124761D01*
X55845952Y-66172380D01*
X55750714Y-66172380D01*
X57084047Y-65172380D02*
X56607857Y-65172380D01*
X56560238Y-65648571D01*
X56607857Y-65600952D01*
X56703095Y-65553333D01*
X56941190Y-65553333D01*
X57036428Y-65600952D01*
X57084047Y-65648571D01*
X57131666Y-65743809D01*
X57131666Y-65981904D01*
X57084047Y-66077142D01*
X57036428Y-66124761D01*
X56941190Y-66172380D01*
X56703095Y-66172380D01*
X56607857Y-66124761D01*
X56560238Y-66077142D01*
%TO.C,U1*%
X73238095Y-55802380D02*
X73238095Y-56611904D01*
X73285714Y-56707142D01*
X73333333Y-56754761D01*
X73428571Y-56802380D01*
X73619047Y-56802380D01*
X73714285Y-56754761D01*
X73761904Y-56707142D01*
X73809523Y-56611904D01*
X73809523Y-55802380D01*
X74809523Y-56802380D02*
X74238095Y-56802380D01*
X74523809Y-56802380D02*
X74523809Y-55802380D01*
X74428571Y-55945238D01*
X74333333Y-56040476D01*
X74238095Y-56088095D01*
%TO.C,Q1*%
X62754761Y-102447619D02*
X62659523Y-102400000D01*
X62564285Y-102304761D01*
X62421428Y-102161904D01*
X62326190Y-102114285D01*
X62230952Y-102114285D01*
X62278571Y-102352380D02*
X62183333Y-102304761D01*
X62088095Y-102209523D01*
X62040476Y-102019047D01*
X62040476Y-101685714D01*
X62088095Y-101495238D01*
X62183333Y-101400000D01*
X62278571Y-101352380D01*
X62469047Y-101352380D01*
X62564285Y-101400000D01*
X62659523Y-101495238D01*
X62707142Y-101685714D01*
X62707142Y-102019047D01*
X62659523Y-102209523D01*
X62564285Y-102304761D01*
X62469047Y-102352380D01*
X62278571Y-102352380D01*
X63659523Y-102352380D02*
X63088095Y-102352380D01*
X63373809Y-102352380D02*
X63373809Y-101352380D01*
X63278571Y-101495238D01*
X63183333Y-101590476D01*
X63088095Y-101638095D01*
%TO.C,D1*%
X76461904Y-87702380D02*
X76461904Y-86702380D01*
X76700000Y-86702380D01*
X76842857Y-86750000D01*
X76938095Y-86845238D01*
X76985714Y-86940476D01*
X77033333Y-87130952D01*
X77033333Y-87273809D01*
X76985714Y-87464285D01*
X76938095Y-87559523D01*
X76842857Y-87654761D01*
X76700000Y-87702380D01*
X76461904Y-87702380D01*
X77985714Y-87702380D02*
X77414285Y-87702380D01*
X77700000Y-87702380D02*
X77700000Y-86702380D01*
X77604761Y-86845238D01*
X77509523Y-86940476D01*
X77414285Y-86988095D01*
%TO.C,R5*%
X55633333Y-84252380D02*
X55300000Y-83776190D01*
X55061904Y-84252380D02*
X55061904Y-83252380D01*
X55442857Y-83252380D01*
X55538095Y-83300000D01*
X55585714Y-83347619D01*
X55633333Y-83442857D01*
X55633333Y-83585714D01*
X55585714Y-83680952D01*
X55538095Y-83728571D01*
X55442857Y-83776190D01*
X55061904Y-83776190D01*
X56538095Y-83252380D02*
X56061904Y-83252380D01*
X56014285Y-83728571D01*
X56061904Y-83680952D01*
X56157142Y-83633333D01*
X56395238Y-83633333D01*
X56490476Y-83680952D01*
X56538095Y-83728571D01*
X56585714Y-83823809D01*
X56585714Y-84061904D01*
X56538095Y-84157142D01*
X56490476Y-84204761D01*
X56395238Y-84252380D01*
X56157142Y-84252380D01*
X56061904Y-84204761D01*
X56014285Y-84157142D01*
%TO.C,D3*%
X52361904Y-84252380D02*
X52361904Y-83252380D01*
X52600000Y-83252380D01*
X52742857Y-83300000D01*
X52838095Y-83395238D01*
X52885714Y-83490476D01*
X52933333Y-83680952D01*
X52933333Y-83823809D01*
X52885714Y-84014285D01*
X52838095Y-84109523D01*
X52742857Y-84204761D01*
X52600000Y-84252380D01*
X52361904Y-84252380D01*
X53266666Y-83252380D02*
X53885714Y-83252380D01*
X53552380Y-83633333D01*
X53695238Y-83633333D01*
X53790476Y-83680952D01*
X53838095Y-83728571D01*
X53885714Y-83823809D01*
X53885714Y-84061904D01*
X53838095Y-84157142D01*
X53790476Y-84204761D01*
X53695238Y-84252380D01*
X53409523Y-84252380D01*
X53314285Y-84204761D01*
X53266666Y-84157142D01*
%TO.C,C11*%
X81757142Y-83657142D02*
X81709523Y-83704761D01*
X81566666Y-83752380D01*
X81471428Y-83752380D01*
X81328571Y-83704761D01*
X81233333Y-83609523D01*
X81185714Y-83514285D01*
X81138095Y-83323809D01*
X81138095Y-83180952D01*
X81185714Y-82990476D01*
X81233333Y-82895238D01*
X81328571Y-82800000D01*
X81471428Y-82752380D01*
X81566666Y-82752380D01*
X81709523Y-82800000D01*
X81757142Y-82847619D01*
X82709523Y-83752380D02*
X82138095Y-83752380D01*
X82423809Y-83752380D02*
X82423809Y-82752380D01*
X82328571Y-82895238D01*
X82233333Y-82990476D01*
X82138095Y-83038095D01*
X83661904Y-83752380D02*
X83090476Y-83752380D01*
X83376190Y-83752380D02*
X83376190Y-82752380D01*
X83280952Y-82895238D01*
X83185714Y-82990476D01*
X83090476Y-83038095D01*
%TO.C,C10*%
X98357142Y-94857142D02*
X98309523Y-94904761D01*
X98166666Y-94952380D01*
X98071428Y-94952380D01*
X97928571Y-94904761D01*
X97833333Y-94809523D01*
X97785714Y-94714285D01*
X97738095Y-94523809D01*
X97738095Y-94380952D01*
X97785714Y-94190476D01*
X97833333Y-94095238D01*
X97928571Y-94000000D01*
X98071428Y-93952380D01*
X98166666Y-93952380D01*
X98309523Y-94000000D01*
X98357142Y-94047619D01*
X99309523Y-94952380D02*
X98738095Y-94952380D01*
X99023809Y-94952380D02*
X99023809Y-93952380D01*
X98928571Y-94095238D01*
X98833333Y-94190476D01*
X98738095Y-94238095D01*
X99928571Y-93952380D02*
X100023809Y-93952380D01*
X100119047Y-94000000D01*
X100166666Y-94047619D01*
X100214285Y-94142857D01*
X100261904Y-94333333D01*
X100261904Y-94571428D01*
X100214285Y-94761904D01*
X100166666Y-94857142D01*
X100119047Y-94904761D01*
X100023809Y-94952380D01*
X99928571Y-94952380D01*
X99833333Y-94904761D01*
X99785714Y-94857142D01*
X99738095Y-94761904D01*
X99690476Y-94571428D01*
X99690476Y-94333333D01*
X99738095Y-94142857D01*
X99785714Y-94047619D01*
X99833333Y-94000000D01*
X99928571Y-93952380D01*
%TO.C,C9*%
X87533333Y-93457142D02*
X87485714Y-93504761D01*
X87342857Y-93552380D01*
X87247619Y-93552380D01*
X87104761Y-93504761D01*
X87009523Y-93409523D01*
X86961904Y-93314285D01*
X86914285Y-93123809D01*
X86914285Y-92980952D01*
X86961904Y-92790476D01*
X87009523Y-92695238D01*
X87104761Y-92600000D01*
X87247619Y-92552380D01*
X87342857Y-92552380D01*
X87485714Y-92600000D01*
X87533333Y-92647619D01*
X88009523Y-93552380D02*
X88200000Y-93552380D01*
X88295238Y-93504761D01*
X88342857Y-93457142D01*
X88438095Y-93314285D01*
X88485714Y-93123809D01*
X88485714Y-92742857D01*
X88438095Y-92647619D01*
X88390476Y-92600000D01*
X88295238Y-92552380D01*
X88104761Y-92552380D01*
X88009523Y-92600000D01*
X87961904Y-92647619D01*
X87914285Y-92742857D01*
X87914285Y-92980952D01*
X87961904Y-93076190D01*
X88009523Y-93123809D01*
X88104761Y-93171428D01*
X88295238Y-93171428D01*
X88390476Y-93123809D01*
X88438095Y-93076190D01*
X88485714Y-92980952D01*
%TO.C,C7*%
X98933333Y-85157142D02*
X98885714Y-85204761D01*
X98742857Y-85252380D01*
X98647619Y-85252380D01*
X98504761Y-85204761D01*
X98409523Y-85109523D01*
X98361904Y-85014285D01*
X98314285Y-84823809D01*
X98314285Y-84680952D01*
X98361904Y-84490476D01*
X98409523Y-84395238D01*
X98504761Y-84300000D01*
X98647619Y-84252380D01*
X98742857Y-84252380D01*
X98885714Y-84300000D01*
X98933333Y-84347619D01*
X99266666Y-84252380D02*
X99933333Y-84252380D01*
X99504761Y-85252380D01*
%TO.C,C3*%
X80383333Y-54457142D02*
X80335714Y-54504761D01*
X80192857Y-54552380D01*
X80097619Y-54552380D01*
X79954761Y-54504761D01*
X79859523Y-54409523D01*
X79811904Y-54314285D01*
X79764285Y-54123809D01*
X79764285Y-53980952D01*
X79811904Y-53790476D01*
X79859523Y-53695238D01*
X79954761Y-53600000D01*
X80097619Y-53552380D01*
X80192857Y-53552380D01*
X80335714Y-53600000D01*
X80383333Y-53647619D01*
X80716666Y-53552380D02*
X81335714Y-53552380D01*
X81002380Y-53933333D01*
X81145238Y-53933333D01*
X81240476Y-53980952D01*
X81288095Y-54028571D01*
X81335714Y-54123809D01*
X81335714Y-54361904D01*
X81288095Y-54457142D01*
X81240476Y-54504761D01*
X81145238Y-54552380D01*
X80859523Y-54552380D01*
X80764285Y-54504761D01*
X80716666Y-54457142D01*
%TO.C,C6*%
X88183333Y-62757142D02*
X88135714Y-62804761D01*
X87992857Y-62852380D01*
X87897619Y-62852380D01*
X87754761Y-62804761D01*
X87659523Y-62709523D01*
X87611904Y-62614285D01*
X87564285Y-62423809D01*
X87564285Y-62280952D01*
X87611904Y-62090476D01*
X87659523Y-61995238D01*
X87754761Y-61900000D01*
X87897619Y-61852380D01*
X87992857Y-61852380D01*
X88135714Y-61900000D01*
X88183333Y-61947619D01*
X89040476Y-61852380D02*
X88850000Y-61852380D01*
X88754761Y-61900000D01*
X88707142Y-61947619D01*
X88611904Y-62090476D01*
X88564285Y-62280952D01*
X88564285Y-62661904D01*
X88611904Y-62757142D01*
X88659523Y-62804761D01*
X88754761Y-62852380D01*
X88945238Y-62852380D01*
X89040476Y-62804761D01*
X89088095Y-62757142D01*
X89135714Y-62661904D01*
X89135714Y-62423809D01*
X89088095Y-62328571D01*
X89040476Y-62280952D01*
X88945238Y-62233333D01*
X88754761Y-62233333D01*
X88659523Y-62280952D01*
X88611904Y-62328571D01*
X88564285Y-62423809D01*
%TO.C,J7*%
X98866666Y-53077380D02*
X98866666Y-53791666D01*
X98819047Y-53934523D01*
X98723809Y-54029761D01*
X98580952Y-54077380D01*
X98485714Y-54077380D01*
X99247619Y-53077380D02*
X99914285Y-53077380D01*
X99485714Y-54077380D01*
%TO.C,R2*%
X105883333Y-62752380D02*
X105550000Y-62276190D01*
X105311904Y-62752380D02*
X105311904Y-61752380D01*
X105692857Y-61752380D01*
X105788095Y-61800000D01*
X105835714Y-61847619D01*
X105883333Y-61942857D01*
X105883333Y-62085714D01*
X105835714Y-62180952D01*
X105788095Y-62228571D01*
X105692857Y-62276190D01*
X105311904Y-62276190D01*
X106264285Y-61847619D02*
X106311904Y-61800000D01*
X106407142Y-61752380D01*
X106645238Y-61752380D01*
X106740476Y-61800000D01*
X106788095Y-61847619D01*
X106835714Y-61942857D01*
X106835714Y-62038095D01*
X106788095Y-62180952D01*
X106216666Y-62752380D01*
X106835714Y-62752380D01*
%TO.C,R1*%
X105783333Y-68852380D02*
X105450000Y-68376190D01*
X105211904Y-68852380D02*
X105211904Y-67852380D01*
X105592857Y-67852380D01*
X105688095Y-67900000D01*
X105735714Y-67947619D01*
X105783333Y-68042857D01*
X105783333Y-68185714D01*
X105735714Y-68280952D01*
X105688095Y-68328571D01*
X105592857Y-68376190D01*
X105211904Y-68376190D01*
X106735714Y-68852380D02*
X106164285Y-68852380D01*
X106450000Y-68852380D02*
X106450000Y-67852380D01*
X106354761Y-67995238D01*
X106259523Y-68090476D01*
X106164285Y-68138095D01*
%TO.C,J2*%
X58616666Y-73052380D02*
X58616666Y-73766666D01*
X58569047Y-73909523D01*
X58473809Y-74004761D01*
X58330952Y-74052380D01*
X58235714Y-74052380D01*
X59045238Y-73147619D02*
X59092857Y-73100000D01*
X59188095Y-73052380D01*
X59426190Y-73052380D01*
X59521428Y-73100000D01*
X59569047Y-73147619D01*
X59616666Y-73242857D01*
X59616666Y-73338095D01*
X59569047Y-73480952D01*
X58997619Y-74052380D01*
X59616666Y-74052380D01*
%TO.C,U2*%
X74438095Y-95902380D02*
X74438095Y-96711904D01*
X74485714Y-96807142D01*
X74533333Y-96854761D01*
X74628571Y-96902380D01*
X74819047Y-96902380D01*
X74914285Y-96854761D01*
X74961904Y-96807142D01*
X75009523Y-96711904D01*
X75009523Y-95902380D01*
X75438095Y-95997619D02*
X75485714Y-95950000D01*
X75580952Y-95902380D01*
X75819047Y-95902380D01*
X75914285Y-95950000D01*
X75961904Y-95997619D01*
X76009523Y-96092857D01*
X76009523Y-96188095D01*
X75961904Y-96330952D01*
X75390476Y-96902380D01*
X76009523Y-96902380D01*
%TO.C,U3*%
X95938095Y-90752380D02*
X95938095Y-91561904D01*
X95985714Y-91657142D01*
X96033333Y-91704761D01*
X96128571Y-91752380D01*
X96319047Y-91752380D01*
X96414285Y-91704761D01*
X96461904Y-91657142D01*
X96509523Y-91561904D01*
X96509523Y-90752380D01*
X96890476Y-90752380D02*
X97509523Y-90752380D01*
X97176190Y-91133333D01*
X97319047Y-91133333D01*
X97414285Y-91180952D01*
X97461904Y-91228571D01*
X97509523Y-91323809D01*
X97509523Y-91561904D01*
X97461904Y-91657142D01*
X97414285Y-91704761D01*
X97319047Y-91752380D01*
X97033333Y-91752380D01*
X96938095Y-91704761D01*
X96890476Y-91657142D01*
%TO.C,R4*%
X104033333Y-88852380D02*
X103700000Y-88376190D01*
X103461904Y-88852380D02*
X103461904Y-87852380D01*
X103842857Y-87852380D01*
X103938095Y-87900000D01*
X103985714Y-87947619D01*
X104033333Y-88042857D01*
X104033333Y-88185714D01*
X103985714Y-88280952D01*
X103938095Y-88328571D01*
X103842857Y-88376190D01*
X103461904Y-88376190D01*
X104890476Y-88185714D02*
X104890476Y-88852380D01*
X104652380Y-87804761D02*
X104414285Y-88519047D01*
X105033333Y-88519047D01*
%TO.C,J11*%
X108490476Y-96127380D02*
X108490476Y-96841666D01*
X108442857Y-96984523D01*
X108347619Y-97079761D01*
X108204761Y-97127380D01*
X108109523Y-97127380D01*
X109490476Y-97127380D02*
X108919047Y-97127380D01*
X109204761Y-97127380D02*
X109204761Y-96127380D01*
X109109523Y-96270238D01*
X109014285Y-96365476D01*
X108919047Y-96413095D01*
X110442857Y-97127380D02*
X109871428Y-97127380D01*
X110157142Y-97127380D02*
X110157142Y-96127380D01*
X110061904Y-96270238D01*
X109966666Y-96365476D01*
X109871428Y-96413095D01*
%TO.C,J10*%
X80890476Y-96302380D02*
X80890476Y-97016666D01*
X80842857Y-97159523D01*
X80747619Y-97254761D01*
X80604761Y-97302380D01*
X80509523Y-97302380D01*
X81890476Y-97302380D02*
X81319047Y-97302380D01*
X81604761Y-97302380D02*
X81604761Y-96302380D01*
X81509523Y-96445238D01*
X81414285Y-96540476D01*
X81319047Y-96588095D01*
X82509523Y-96302380D02*
X82604761Y-96302380D01*
X82700000Y-96350000D01*
X82747619Y-96397619D01*
X82795238Y-96492857D01*
X82842857Y-96683333D01*
X82842857Y-96921428D01*
X82795238Y-97111904D01*
X82747619Y-97207142D01*
X82700000Y-97254761D01*
X82604761Y-97302380D01*
X82509523Y-97302380D01*
X82414285Y-97254761D01*
X82366666Y-97207142D01*
X82319047Y-97111904D01*
X82271428Y-96921428D01*
X82271428Y-96683333D01*
X82319047Y-96492857D01*
X82366666Y-96397619D01*
X82414285Y-96350000D01*
X82509523Y-96302380D01*
%TO.C,J9*%
X99500000Y-96602380D02*
X99500000Y-97316666D01*
X99452381Y-97459523D01*
X99357143Y-97554761D01*
X99214286Y-97602380D01*
X99119048Y-97602380D01*
X100023810Y-97602380D02*
X100214286Y-97602380D01*
X100309524Y-97554761D01*
X100357143Y-97507142D01*
X100452381Y-97364285D01*
X100500000Y-97173809D01*
X100500000Y-96792857D01*
X100452381Y-96697619D01*
X100404762Y-96650000D01*
X100309524Y-96602380D01*
X100119048Y-96602380D01*
X100023810Y-96650000D01*
X99976191Y-96697619D01*
X99928572Y-96792857D01*
X99928572Y-97030952D01*
X99976191Y-97126190D01*
X100023810Y-97173809D01*
X100119048Y-97221428D01*
X100309524Y-97221428D01*
X100404762Y-97173809D01*
X100452381Y-97126190D01*
X100500000Y-97030952D01*
%TO.C,J8*%
X88983333Y-96602380D02*
X88983333Y-97316666D01*
X88935714Y-97459523D01*
X88840476Y-97554761D01*
X88697619Y-97602380D01*
X88602381Y-97602380D01*
X89602381Y-97030952D02*
X89507143Y-96983333D01*
X89459524Y-96935714D01*
X89411905Y-96840476D01*
X89411905Y-96792857D01*
X89459524Y-96697619D01*
X89507143Y-96650000D01*
X89602381Y-96602380D01*
X89792857Y-96602380D01*
X89888095Y-96650000D01*
X89935714Y-96697619D01*
X89983333Y-96792857D01*
X89983333Y-96840476D01*
X89935714Y-96935714D01*
X89888095Y-96983333D01*
X89792857Y-97030952D01*
X89602381Y-97030952D01*
X89507143Y-97078571D01*
X89459524Y-97126190D01*
X89411905Y-97221428D01*
X89411905Y-97411904D01*
X89459524Y-97507142D01*
X89507143Y-97554761D01*
X89602381Y-97602380D01*
X89792857Y-97602380D01*
X89888095Y-97554761D01*
X89935714Y-97507142D01*
X89983333Y-97411904D01*
X89983333Y-97221428D01*
X89935714Y-97126190D01*
X89888095Y-97078571D01*
X89792857Y-97030952D01*
%TO.C,J1*%
X61366666Y-103402380D02*
X61366666Y-104116666D01*
X61319047Y-104259523D01*
X61223809Y-104354761D01*
X61080952Y-104402380D01*
X60985714Y-104402380D01*
X62366666Y-104402380D02*
X61795238Y-104402380D01*
X62080952Y-104402380D02*
X62080952Y-103402380D01*
X61985714Y-103545238D01*
X61890476Y-103640476D01*
X61795238Y-103688095D01*
%TO.C,D2*%
X105511904Y-88852380D02*
X105511904Y-87852380D01*
X105750000Y-87852380D01*
X105892857Y-87900000D01*
X105988095Y-87995238D01*
X106035714Y-88090476D01*
X106083333Y-88280952D01*
X106083333Y-88423809D01*
X106035714Y-88614285D01*
X105988095Y-88709523D01*
X105892857Y-88804761D01*
X105750000Y-88852380D01*
X105511904Y-88852380D01*
X106464285Y-87947619D02*
X106511904Y-87900000D01*
X106607142Y-87852380D01*
X106845238Y-87852380D01*
X106940476Y-87900000D01*
X106988095Y-87947619D01*
X107035714Y-88042857D01*
X107035714Y-88138095D01*
X106988095Y-88280952D01*
X106416666Y-88852380D01*
X107035714Y-88852380D01*
%TD*%
M02*
