M48
; DRILL file {KiCad 5.1.10} date Sun Nov  7 20:18:04 2021
; FORMAT={-:-/ absolute / metric / decimal}
; #@! TF.CreationDate,2021-11-07T20:18:04+05:45
; #@! TF.GenerationSoftware,Kicad,Pcbnew,5.1.10
; #@! TF.FileFunction,Plated,1,2,PTH
FMAT,2
METRIC
T1C0.400
T2C0.800
T3C0.950
T4C1.000
T5C2.700
%
G90
G05
T1
X55.1Y-86.35
X55.1Y-89.75
X64.45Y-48.35
X66.7Y-54.95
X72.85Y-57.55
X72.85Y-59.0
X72.85Y-60.45
X73.75Y-49.45
X77.125Y-62.85
X77.15Y-61.25
X78.25Y-64.45
X79.15Y-56.45
X80.8Y-63.65
X81.2Y-52.95
X81.75Y-60.1
X83.65Y-49.45
X84.4Y-54.1
X84.912Y-58.238
X85.6Y-60.45
X86.125Y-58.125
X87.5Y-59.7
X90.15Y-80.825
X91.05Y-79.65
X91.325Y-85.525
X94.6Y-80.8
X95.5Y-88.675
X99.5Y-86.8
X103.8Y-76.6
T2
X69.3Y-62.6
X69.3Y-67.48
T3
X86.25Y-101.75
X88.75Y-101.75
X91.25Y-101.75
X97.3Y-101.75
X99.8Y-101.75
X102.3Y-101.75
X112.05Y-75.35
X112.05Y-77.85
X112.05Y-80.35
X112.05Y-82.85
T4
X53.8Y-75.4
X53.8Y-77.9
X55.2Y-101.7
X57.7Y-101.7
X58.7Y-44.26
X58.7Y-46.8
X60.85Y-50.75
X60.85Y-53.29
X60.85Y-55.83
X60.85Y-58.37
X60.85Y-60.91
X60.85Y-63.45
X61.24Y-44.26
X61.24Y-46.8
X63.78Y-44.26
X63.78Y-46.8
X66.32Y-44.26
X66.32Y-46.8
X68.86Y-44.26
X68.86Y-46.8
X71.4Y-44.26
X71.4Y-46.8
X73.94Y-44.26
X73.94Y-46.8
X76.48Y-44.26
X76.48Y-46.8
X77.7Y-101.75
X79.02Y-44.26
X79.02Y-46.8
X80.2Y-101.75
X81.56Y-44.26
X81.56Y-46.8
X84.1Y-44.26
X84.1Y-46.8
X86.64Y-44.26
X86.64Y-46.8
X89.18Y-44.26
X89.18Y-46.8
X91.72Y-44.26
X91.72Y-46.8
X94.26Y-44.26
X94.26Y-46.8
X96.8Y-44.26
X96.8Y-46.8
X99.34Y-44.26
X99.34Y-46.8
X101.88Y-44.26
X101.88Y-46.8
X102.225Y-50.87
X102.225Y-53.41
X102.225Y-55.95
X102.76Y-79.37
X102.76Y-81.91
X102.76Y-84.45
X102.9Y-60.46
X102.9Y-63.0
X104.42Y-44.26
X104.42Y-46.8
X104.765Y-50.87
X104.765Y-53.41
X104.765Y-55.95
X105.3Y-79.37
X105.3Y-81.91
X105.3Y-84.45
X105.44Y-60.46
X105.44Y-63.0
X106.96Y-44.26
X106.96Y-46.8
X107.98Y-60.46
X107.98Y-63.0
X108.35Y-101.75
X110.52Y-60.46
X110.52Y-63.0
X110.85Y-101.75
X113.06Y-60.46
X113.06Y-63.0
T5
X53.8Y-45.5
X53.8Y-68.5
X53.8Y-94.5
X111.8Y-45.5
X111.8Y-68.5
X111.8Y-94.5
T0
M30
