%TF.GenerationSoftware,KiCad,Pcbnew,7.0.3*%
%TF.CreationDate,2023-08-28T19:15:28+05:00*%
%TF.ProjectId,MotorDriver3,4d6f746f-7244-4726-9976-6572332e6b69,rev?*%
%TF.SameCoordinates,Original*%
%TF.FileFunction,Legend,Bot*%
%TF.FilePolarity,Positive*%
%FSLAX46Y46*%
G04 Gerber Fmt 4.6, Leading zero omitted, Abs format (unit mm)*
G04 Created by KiCad (PCBNEW 7.0.3) date 2023-08-28 19:15:28*
%MOMM*%
%LPD*%
G01*
G04 APERTURE LIST*
%ADD10C,0.150000*%
%ADD11C,0.120000*%
G04 APERTURE END LIST*
D10*
%TO.C,R2*%
X116496554Y-95304819D02*
X117067982Y-95304819D01*
X116782268Y-95304819D02*
X116782268Y-94304819D01*
X116782268Y-94304819D02*
X116877506Y-94447676D01*
X116877506Y-94447676D02*
X116972744Y-94542914D01*
X116972744Y-94542914D02*
X117067982Y-94590533D01*
X115877506Y-94304819D02*
X115782268Y-94304819D01*
X115782268Y-94304819D02*
X115687030Y-94352438D01*
X115687030Y-94352438D02*
X115639411Y-94400057D01*
X115639411Y-94400057D02*
X115591792Y-94495295D01*
X115591792Y-94495295D02*
X115544173Y-94685771D01*
X115544173Y-94685771D02*
X115544173Y-94923866D01*
X115544173Y-94923866D02*
X115591792Y-95114342D01*
X115591792Y-95114342D02*
X115639411Y-95209580D01*
X115639411Y-95209580D02*
X115687030Y-95257200D01*
X115687030Y-95257200D02*
X115782268Y-95304819D01*
X115782268Y-95304819D02*
X115877506Y-95304819D01*
X115877506Y-95304819D02*
X115972744Y-95257200D01*
X115972744Y-95257200D02*
X116020363Y-95209580D01*
X116020363Y-95209580D02*
X116067982Y-95114342D01*
X116067982Y-95114342D02*
X116115601Y-94923866D01*
X116115601Y-94923866D02*
X116115601Y-94685771D01*
X116115601Y-94685771D02*
X116067982Y-94495295D01*
X116067982Y-94495295D02*
X116020363Y-94400057D01*
X116020363Y-94400057D02*
X115972744Y-94352438D01*
X115972744Y-94352438D02*
X115877506Y-94304819D01*
X115115601Y-95304819D02*
X115115601Y-94304819D01*
X115020363Y-94923866D02*
X114734649Y-95304819D01*
X114734649Y-94638152D02*
X115115601Y-95019104D01*
%TO.C,R1*%
X118971889Y-99703171D02*
X119543317Y-99703171D01*
X119257603Y-99703171D02*
X119257603Y-98703171D01*
X119257603Y-98703171D02*
X119352841Y-98846028D01*
X119352841Y-98846028D02*
X119448079Y-98941266D01*
X119448079Y-98941266D02*
X119543317Y-98988885D01*
X118352841Y-98703171D02*
X118257603Y-98703171D01*
X118257603Y-98703171D02*
X118162365Y-98750790D01*
X118162365Y-98750790D02*
X118114746Y-98798409D01*
X118114746Y-98798409D02*
X118067127Y-98893647D01*
X118067127Y-98893647D02*
X118019508Y-99084123D01*
X118019508Y-99084123D02*
X118019508Y-99322218D01*
X118019508Y-99322218D02*
X118067127Y-99512694D01*
X118067127Y-99512694D02*
X118114746Y-99607932D01*
X118114746Y-99607932D02*
X118162365Y-99655552D01*
X118162365Y-99655552D02*
X118257603Y-99703171D01*
X118257603Y-99703171D02*
X118352841Y-99703171D01*
X118352841Y-99703171D02*
X118448079Y-99655552D01*
X118448079Y-99655552D02*
X118495698Y-99607932D01*
X118495698Y-99607932D02*
X118543317Y-99512694D01*
X118543317Y-99512694D02*
X118590936Y-99322218D01*
X118590936Y-99322218D02*
X118590936Y-99084123D01*
X118590936Y-99084123D02*
X118543317Y-98893647D01*
X118543317Y-98893647D02*
X118495698Y-98798409D01*
X118495698Y-98798409D02*
X118448079Y-98750790D01*
X118448079Y-98750790D02*
X118352841Y-98703171D01*
X117590936Y-99703171D02*
X117590936Y-98703171D01*
X117495698Y-99322218D02*
X117209984Y-99703171D01*
X117209984Y-99036504D02*
X117590936Y-99417456D01*
D11*
%TO.C,R2*%
X105970000Y-93480000D02*
X112510000Y-93480000D01*
X105970000Y-93810000D02*
X105970000Y-93480000D01*
X105970000Y-95890000D02*
X105970000Y-96220000D01*
X105970000Y-96220000D02*
X112510000Y-96220000D01*
X112510000Y-93480000D02*
X112510000Y-93810000D01*
X112510000Y-96220000D02*
X112510000Y-95890000D01*
%TO.C,R1*%
X115010000Y-100620000D02*
X115010000Y-100290000D01*
X115010000Y-97880000D02*
X115010000Y-98210000D01*
X108470000Y-100620000D02*
X115010000Y-100620000D01*
X108470000Y-100290000D02*
X108470000Y-100620000D01*
X108470000Y-98210000D02*
X108470000Y-97880000D01*
X108470000Y-97880000D02*
X115010000Y-97880000D01*
%TD*%
M02*
