M48
; DRILL file {KiCad 7.0.3} date Mon 28 Aug 2023 19:15:32 +05
; FORMAT={-:-/ absolute / inch / decimal}
; #@! TF.CreationDate,2023-08-28T19:15:32+05:00
; #@! TF.GenerationSoftware,Kicad,Pcbnew,7.0.3
; #@! TF.FileFunction,Plated,1,2,PTH
FMAT,2
INCH
; #@! TA.AperFunction,Plated,PTH,ComponentDrill
T1C0.0315
; #@! TA.AperFunction,Plated,PTH,ComponentDrill
T2C0.0374
; #@! TA.AperFunction,Plated,PTH,ComponentDrill
T3C0.0394
; #@! TA.AperFunction,Plated,PTH,ComponentDrill
T4C0.0984
%
G90
G05
T1
X4.1508Y-3.7343
X4.2492Y-3.9075
X4.4508Y-3.7343
X4.5492Y-3.9075
T2
X3.4281Y-2.8839
X3.4281Y-2.9823
X3.4281Y-3.0807
X3.4281Y-3.1791
X3.4281Y-3.2776
X3.4281Y-3.376
X4.6555Y-4.4065
X4.7539Y-4.4065
X4.8524Y-4.4065
X4.9508Y-4.4065
X5.1742Y-2.8839
X5.1742Y-2.9823
X5.1742Y-3.0807
X5.1742Y-3.1791
X5.1742Y-3.2776
X5.1742Y-3.376
T3
X3.6043Y-4.3474
X3.6043Y-4.4474
X3.6992Y-3.5531
X3.6992Y-3.8531
X3.6992Y-3.9531
X3.6992Y-4.0531
X3.6992Y-4.1531
X3.7043Y-4.3474
X3.7043Y-4.4474
X3.7992Y-3.5531
X3.7992Y-4.1531
X3.8043Y-4.3474
X3.8043Y-4.4474
X3.8992Y-3.5531
X3.8992Y-4.1531
X3.9447Y-2.9035
X3.9447Y-3.4035
X3.9469Y-4.3474
X3.9961Y-2.6604
X3.9992Y-3.5531
X3.9992Y-4.1531
X4.0447Y-2.9035
X4.0447Y-3.4035
X4.0945Y-2.6604
X4.0992Y-3.5531
X4.0992Y-4.1531
X4.1447Y-2.9035
X4.1447Y-3.4035
X4.1992Y-3.5531
X4.1992Y-4.1531
X4.2447Y-2.9035
X4.2447Y-3.4035
X4.2992Y-3.5531
X4.2992Y-4.1531
X4.3447Y-2.9035
X4.3447Y-3.4035
X4.3992Y-3.5531
X4.3992Y-4.1531
X4.4447Y-2.9035
X4.4447Y-3.4035
X4.4492Y-4.0531
X4.4992Y-3.5531
X4.4992Y-4.1531
X4.5079Y-2.6604
X4.5447Y-2.9035
X4.5447Y-3.4035
X4.5492Y-4.0531
X4.5992Y-3.5531
X4.5992Y-4.1531
X4.6063Y-2.6604
X4.6447Y-2.9035
X4.6447Y-3.4035
X4.6992Y-3.5531
X4.6992Y-4.1531
X4.7992Y-3.5531
X4.7992Y-4.1531
T4
X3.4252Y-2.6575
X3.4252Y-4.4094
X5.1772Y-2.6575
X5.1772Y-4.4094
T0
M30
