%TF.GenerationSoftware,KiCad,Pcbnew,7.0.3*%
%TF.CreationDate,2023-08-28T19:15:28+05:00*%
%TF.ProjectId,MotorDriver3,4d6f746f-7244-4726-9976-6572332e6b69,rev?*%
%TF.SameCoordinates,Original*%
%TF.FileFunction,Copper,L2,Bot*%
%TF.FilePolarity,Positive*%
%FSLAX46Y46*%
G04 Gerber Fmt 4.6, Leading zero omitted, Abs format (unit mm)*
G04 Created by KiCad (PCBNEW 7.0.3) date 2023-08-28 19:15:28*
%MOMM*%
%LPD*%
G01*
G04 APERTURE LIST*
G04 Aperture macros list*
%AMRoundRect*
0 Rectangle with rounded corners*
0 $1 Rounding radius*
0 $2 $3 $4 $5 $6 $7 $8 $9 X,Y pos of 4 corners*
0 Add a 4 corners polygon primitive as box body*
4,1,4,$2,$3,$4,$5,$6,$7,$8,$9,$2,$3,0*
0 Add four circle primitives for the rounded corners*
1,1,$1+$1,$2,$3*
1,1,$1+$1,$4,$5*
1,1,$1+$1,$6,$7*
1,1,$1+$1,$8,$9*
0 Add four rect primitives between the rounded corners*
20,1,$1+$1,$2,$3,$4,$5,0*
20,1,$1+$1,$4,$5,$6,$7,0*
20,1,$1+$1,$6,$7,$8,$9,0*
20,1,$1+$1,$8,$9,$2,$3,0*%
G04 Aperture macros list end*
%TA.AperFunction,ComponentPad*%
%ADD10R,1.700000X1.700000*%
%TD*%
%TA.AperFunction,ComponentPad*%
%ADD11O,1.600000X1.600000*%
%TD*%
%TA.AperFunction,ComponentPad*%
%ADD12R,1.600000X1.600000*%
%TD*%
%TA.AperFunction,ComponentPad*%
%ADD13C,5.000000*%
%TD*%
%TA.AperFunction,ComponentPad*%
%ADD14RoundRect,0.250000X-0.725000X0.600000X-0.725000X-0.600000X0.725000X-0.600000X0.725000X0.600000X0*%
%TD*%
%TA.AperFunction,ComponentPad*%
%ADD15O,1.950000X1.700000*%
%TD*%
%TA.AperFunction,ComponentPad*%
%ADD16RoundRect,0.250000X-0.600000X-0.750000X0.600000X-0.750000X0.600000X0.750000X-0.600000X0.750000X0*%
%TD*%
%TA.AperFunction,ComponentPad*%
%ADD17O,1.700000X2.000000*%
%TD*%
%TA.AperFunction,ComponentPad*%
%ADD18RoundRect,0.250000X0.600000X0.725000X-0.600000X0.725000X-0.600000X-0.725000X0.600000X-0.725000X0*%
%TD*%
%TA.AperFunction,ComponentPad*%
%ADD19O,1.700000X1.950000*%
%TD*%
%TA.AperFunction,ComponentPad*%
%ADD20RoundRect,0.250000X0.725000X-0.600000X0.725000X0.600000X-0.725000X0.600000X-0.725000X-0.600000X0*%
%TD*%
%TA.AperFunction,ComponentPad*%
%ADD21O,1.700000X1.700000*%
%TD*%
%TA.AperFunction,ComponentPad*%
%ADD22C,1.600000*%
%TD*%
%TA.AperFunction,Conductor*%
%ADD23C,0.250000*%
%TD*%
%TA.AperFunction,Conductor*%
%ADD24C,1.500000*%
%TD*%
G04 APERTURE END LIST*
D10*
%TO.P,J7,1,Pin_1*%
%TO.N,D4*%
X100250000Y-110425000D03*
%TD*%
D11*
%TO.P,A2,29,VRAW*%
%TO.N,unconnected-(A2-VRAW-Pad29)*%
X121900000Y-105490000D03*
%TO.P,A2,28,GND*%
%TO.N,GND*%
X119360000Y-105490000D03*
%TO.P,A2,27,~{RESET}*%
%TO.N,unconnected-(A2-~{RESET}-Pad27)*%
X116820000Y-105490000D03*
%TO.P,A2,26,VCC*%
%TO.N,+3V3*%
X114280000Y-105490000D03*
%TO.P,A2,25,A5*%
%TO.N,SCL*%
X115550000Y-102950000D03*
%TO.P,A2,24,A4*%
%TO.N,SDA*%
X113010000Y-102950000D03*
%TO.P,A2,23,A3*%
%TO.N,A3*%
X111740000Y-105490000D03*
%TO.P,A2,22,A2*%
%TO.N,A2*%
X109200000Y-105490000D03*
%TO.P,A2,21,A1*%
%TO.N,A1*%
X106660000Y-105490000D03*
%TO.P,A2,20,A0*%
%TO.N,A0*%
X104120000Y-105490000D03*
%TO.P,A2,19,D13*%
%TO.N,BINT2*%
X101580000Y-105490000D03*
%TO.P,A2,18,D12*%
%TO.N,AINT2*%
X99040000Y-105490000D03*
%TO.P,A2,17,D11*%
%TO.N,PWMB*%
X96500000Y-105490000D03*
%TO.P,A2,16,D10*%
%TO.N,BIN2*%
X93960000Y-105490000D03*
%TO.P,A2,15,A7*%
%TO.N,A7*%
X93960000Y-102950000D03*
%TO.P,A2,14,A6*%
%TO.N,A6*%
X93960000Y-100410000D03*
%TO.P,A2,13,GND*%
%TO.N,GND*%
X93960000Y-97870000D03*
%TO.P,A2,12,D9*%
%TO.N,BIN1*%
X93960000Y-90250000D03*
%TO.P,A2,11,D8*%
%TO.N,STBY*%
X96500000Y-90250000D03*
%TO.P,A2,10,D7*%
%TO.N,AIN1*%
X99040000Y-90250000D03*
%TO.P,A2,9,D6*%
%TO.N,AIN2*%
X101580000Y-90250000D03*
%TO.P,A2,8,D5*%
%TO.N,PWMA*%
X104120000Y-90250000D03*
%TO.P,A2,7,D4*%
%TO.N,D4*%
X106660000Y-90250000D03*
%TO.P,A2,6,D3*%
%TO.N,BINT1*%
X109200000Y-90250000D03*
%TO.P,A2,5,D2*%
%TO.N,AINT1*%
X111740000Y-90250000D03*
%TO.P,A2,4,GND*%
%TO.N,GND*%
X114280000Y-90250000D03*
%TO.P,A2,3,~{RESET}*%
%TO.N,unconnected-(A2-~{RESET}-Pad3)*%
X116820000Y-90250000D03*
%TO.P,A2,2,RX1*%
%TO.N,unconnected-(A2-RX1-Pad2)*%
X119360000Y-90250000D03*
D12*
%TO.P,A2,1,TX0*%
%TO.N,unconnected-(A2-TX0-Pad1)*%
X121900000Y-90250000D03*
%TD*%
D13*
%TO.P,H1,1,1*%
%TO.N,unconnected-(H1-Pad1)*%
X87000000Y-67500000D03*
%TD*%
D11*
%TO.P,U1,16,PWMA*%
%TO.N,PWMA*%
X117975000Y-86450000D03*
%TO.P,U1,15,AIN2*%
%TO.N,AIN1*%
X115435000Y-86450000D03*
%TO.P,U1,14,AIN1*%
%TO.N,AIN2*%
X112895000Y-86450000D03*
%TO.P,U1,13,STBY*%
%TO.N,STBY*%
X110355000Y-86450000D03*
%TO.P,U1,12,BIN1*%
%TO.N,BIN1*%
X107815000Y-86450000D03*
%TO.P,U1,11,BIN2*%
%TO.N,BIN2*%
X105275000Y-86450000D03*
%TO.P,U1,10,PWMB*%
%TO.N,PWMB*%
X102735000Y-86450000D03*
%TO.P,U1,9,GND*%
%TO.N,GND*%
X100195000Y-86450000D03*
%TO.P,U1,8,GND*%
X100195000Y-73750000D03*
%TO.P,U1,7,VMOT*%
%TO.N,VMOT*%
X102735000Y-73750000D03*
%TO.P,U1,6,BO1*%
%TO.N,BO1*%
X105275000Y-73750000D03*
%TO.P,U1,5,BO2*%
%TO.N,BO2*%
X107815000Y-73750000D03*
%TO.P,U1,4,AO2*%
%TO.N,AO2*%
X110355000Y-73750000D03*
%TO.P,U1,3,AO1*%
%TO.N,AO1*%
X112895000Y-73750000D03*
%TO.P,U1,2,VCC*%
%TO.N,+3V3*%
X115435000Y-73750000D03*
D12*
%TO.P,U1,1,GND*%
%TO.N,GND*%
X117975000Y-73750000D03*
%TD*%
D14*
%TO.P,J1,1,Pin_1*%
%TO.N,AO1*%
X131425000Y-73250000D03*
D15*
%TO.P,J1,2,Pin_2*%
%TO.N,GND*%
X131425000Y-75750000D03*
%TO.P,J1,3,Pin_3*%
%TO.N,AINT1*%
X131425000Y-78250000D03*
%TO.P,J1,4,Pin_4*%
%TO.N,AINT2*%
X131425000Y-80750000D03*
%TO.P,J1,5,Pin_5*%
%TO.N,+3V3*%
X131425000Y-83250000D03*
%TO.P,J1,6,Pin_6*%
%TO.N,AO2*%
X131425000Y-85750000D03*
%TD*%
D16*
%TO.P,J5,1,Pin_1*%
%TO.N,GND*%
X101500000Y-67575000D03*
D17*
%TO.P,J5,2,Pin_2*%
%TO.N,VMOT*%
X104000000Y-67575000D03*
%TD*%
D16*
%TO.P,J6,1,Pin_1*%
%TO.N,GND*%
X114500000Y-67575000D03*
D17*
%TO.P,J6,2,Pin_2*%
%TO.N,+3V3*%
X117000000Y-67575000D03*
%TD*%
D18*
%TO.P,J3,1,Pin_1*%
%TO.N,GND*%
X125750000Y-111925000D03*
D19*
%TO.P,J3,2,Pin_2*%
%TO.N,+3V3*%
X123250000Y-111925000D03*
%TO.P,J3,3,Pin_3*%
%TO.N,SDA*%
X120750000Y-111925000D03*
%TO.P,J3,4,Pin_4*%
%TO.N,SCL*%
X118250000Y-111925000D03*
%TD*%
D13*
%TO.P,H2,1,1*%
%TO.N,unconnected-(H2-Pad1)*%
X131500000Y-67500000D03*
%TD*%
%TO.P,H3,1,1*%
%TO.N,unconnected-(H3-Pad1)*%
X131500000Y-112000000D03*
%TD*%
%TO.P,H4,1,1*%
%TO.N,unconnected-(H4-Pad1)*%
X87000000Y-112000000D03*
%TD*%
D20*
%TO.P,J2,1,Pin_1*%
%TO.N,BO1*%
X87075000Y-85750000D03*
D15*
%TO.P,J2,2,Pin_2*%
%TO.N,GND*%
X87075000Y-83250000D03*
%TO.P,J2,3,Pin_3*%
%TO.N,BINT1*%
X87075000Y-80750000D03*
%TO.P,J2,4,Pin_4*%
%TO.N,BINT2*%
X87075000Y-78250000D03*
%TO.P,J2,5,Pin_5*%
%TO.N,+3V3*%
X87075000Y-75750000D03*
%TO.P,J2,6,Pin_6*%
%TO.N,BO2*%
X87075000Y-73250000D03*
%TD*%
D10*
%TO.P,J4,1,Pin_1*%
%TO.N,A0*%
X96630000Y-110425000D03*
D21*
%TO.P,J4,2,Pin_2*%
%TO.N,A1*%
X96630000Y-112965000D03*
%TO.P,J4,3,Pin_3*%
%TO.N,A2*%
X94090000Y-110425000D03*
%TO.P,J4,4,Pin_4*%
%TO.N,A3*%
X94090000Y-112965000D03*
%TO.P,J4,5,Pin_5*%
%TO.N,A6*%
X91550000Y-110425000D03*
%TO.P,J4,6,Pin_6*%
%TO.N,A7*%
X91550000Y-112965000D03*
%TD*%
D22*
%TO.P,R2,1*%
%TO.N,+3V3*%
X105430000Y-94850000D03*
D11*
%TO.P,R2,2*%
%TO.N,SDA*%
X113050000Y-94850000D03*
%TD*%
%TO.P,R1,2*%
%TO.N,SCL*%
X115550000Y-99250000D03*
D22*
%TO.P,R1,1*%
%TO.N,+3V3*%
X107930000Y-99250000D03*
%TD*%
D23*
%TO.N,D4*%
X106660000Y-90250000D02*
X106660000Y-91440000D01*
X106660000Y-91440000D02*
X105600000Y-92500000D01*
X105600000Y-92500000D02*
X99100000Y-92500000D01*
X99100000Y-92500000D02*
X97750000Y-93850000D01*
X98750000Y-107950000D02*
X99300000Y-107950000D01*
X97750000Y-93850000D02*
X97750000Y-106950000D01*
X97750000Y-106950000D02*
X98750000Y-107950000D01*
X99300000Y-107950000D02*
X100250000Y-108900000D01*
X100250000Y-108900000D02*
X100250000Y-110425000D01*
%TO.N,A3*%
X111740000Y-105490000D02*
X110300000Y-106930000D01*
X110300000Y-106930000D02*
X110300000Y-110850000D01*
X110300000Y-110850000D02*
X106700000Y-114450000D01*
X106700000Y-114450000D02*
X94550000Y-114450000D01*
X94550000Y-114450000D02*
X94090000Y-113990000D01*
X94090000Y-113990000D02*
X94090000Y-112965000D01*
%TO.N,A2*%
X109200000Y-105490000D02*
X109200000Y-110500000D01*
X109200000Y-110500000D02*
X108000000Y-111700000D01*
X94090000Y-111390000D02*
X94090000Y-110425000D01*
X108000000Y-111700000D02*
X94400000Y-111700000D01*
X94400000Y-111700000D02*
X94090000Y-111390000D01*
%TO.N,AINT2*%
X131425000Y-80750000D02*
X129950000Y-80750000D01*
X129950000Y-80750000D02*
X129350000Y-80150000D01*
X129350000Y-77750000D02*
X130100000Y-77000000D01*
X132700000Y-77000000D02*
X133750000Y-78050000D01*
X129350000Y-80150000D02*
X129350000Y-77750000D01*
X130100000Y-77000000D02*
X132700000Y-77000000D01*
X133750000Y-78050000D02*
X133750000Y-91950000D01*
X133750000Y-91950000D02*
X132350000Y-93350000D01*
X132350000Y-93350000D02*
X100150000Y-93350000D01*
X99040000Y-94460000D02*
X99040000Y-105490000D01*
X100150000Y-93350000D02*
X99040000Y-94460000D01*
%TO.N,PWMB*%
X102735000Y-86450000D02*
X102735000Y-85235000D01*
X95750000Y-107350000D02*
X96500000Y-106600000D01*
X102735000Y-85235000D02*
X101350000Y-83850000D01*
X101350000Y-83850000D02*
X95450000Y-83850000D01*
X95450000Y-83850000D02*
X91050000Y-88250000D01*
X91050000Y-88250000D02*
X91050000Y-105050000D01*
X91050000Y-105050000D02*
X93350000Y-107350000D01*
X96500000Y-106600000D02*
X96500000Y-105490000D01*
X93350000Y-107350000D02*
X95750000Y-107350000D01*
%TO.N,AINT1*%
X111740000Y-90250000D02*
X111740000Y-92040000D01*
X111740000Y-92040000D02*
X112350000Y-92650000D01*
X132550000Y-78250000D02*
X131425000Y-78250000D01*
X112350000Y-92650000D02*
X131850000Y-92650000D01*
X131850000Y-92650000D02*
X133050000Y-91450000D01*
X133050000Y-91450000D02*
X133050000Y-78750000D01*
X133050000Y-78750000D02*
X132550000Y-78250000D01*
D24*
%TO.N,BO1*%
X105275000Y-73750000D02*
X105275000Y-76075000D01*
X103350000Y-78000000D02*
X95000000Y-78000000D01*
X105275000Y-76075000D02*
X103350000Y-78000000D01*
X95000000Y-78000000D02*
X92650000Y-80350000D01*
X92650000Y-84275000D02*
X91175000Y-85750000D01*
X91175000Y-85750000D02*
X87075000Y-85750000D01*
X92650000Y-80350000D02*
X92650000Y-84275000D01*
D23*
%TO.N,SDA*%
X113010000Y-102950000D02*
X113010000Y-94890000D01*
X113010000Y-94890000D02*
X113050000Y-94850000D01*
%TO.N,SCL*%
X115550000Y-102950000D02*
X115550000Y-99250000D01*
X115550000Y-102950000D02*
X115550000Y-110750000D01*
X116725000Y-111925000D02*
X118250000Y-111925000D01*
X115550000Y-110750000D02*
X116725000Y-111925000D01*
%TO.N,BIN2*%
X105275000Y-86450000D02*
X105275000Y-87625000D01*
X105275000Y-87625000D02*
X104750000Y-88150000D01*
X91750000Y-89650000D02*
X91750000Y-104550000D01*
X104750000Y-88150000D02*
X93250000Y-88150000D01*
X92690000Y-105490000D02*
X93960000Y-105490000D01*
X93250000Y-88150000D02*
X91750000Y-89650000D01*
X91750000Y-104550000D02*
X92690000Y-105490000D01*
%TO.N,BIN1*%
X107815000Y-86450000D02*
X107815000Y-87685000D01*
X107815000Y-87685000D02*
X106750000Y-88750000D01*
X106750000Y-88750000D02*
X94550000Y-88750000D01*
X94550000Y-88750000D02*
X93960000Y-89340000D01*
X93960000Y-89340000D02*
X93960000Y-90250000D01*
D24*
%TO.N,AO2*%
X110355000Y-73750000D02*
X110355000Y-76105000D01*
X112250000Y-78000000D02*
X123500000Y-78000000D01*
X110355000Y-76105000D02*
X112250000Y-78000000D01*
X123500000Y-78000000D02*
X125500000Y-80000000D01*
X125500000Y-80000000D02*
X125500000Y-83500000D01*
X127750000Y-85750000D02*
X131425000Y-85750000D01*
X125500000Y-83500000D02*
X127750000Y-85750000D01*
%TO.N,AO1*%
X112895000Y-73750000D02*
X112895000Y-71855000D01*
X124000000Y-71000000D02*
X126250000Y-73250000D01*
X112895000Y-71855000D02*
X113750000Y-71000000D01*
X126250000Y-73250000D02*
X131425000Y-73250000D01*
X113750000Y-71000000D02*
X124000000Y-71000000D01*
%TO.N,BO2*%
X107815000Y-73750000D02*
X107815000Y-71815000D01*
X92000000Y-73250000D02*
X87075000Y-73250000D01*
X107815000Y-71815000D02*
X107000000Y-71000000D01*
X107000000Y-71000000D02*
X94250000Y-71000000D01*
X94250000Y-71000000D02*
X92000000Y-73250000D01*
%TD*%
%TA.AperFunction,Conductor*%
%TO.N,GND*%
G36*
X130518565Y-64770185D02*
G01*
X130564320Y-64822989D01*
X130574264Y-64892147D01*
X130545239Y-64955703D01*
X130502419Y-64987574D01*
X130302012Y-65077770D01*
X130242725Y-65104453D01*
X130242723Y-65104454D01*
X129963131Y-65273473D01*
X129705960Y-65474954D01*
X129474954Y-65705960D01*
X129273473Y-65963131D01*
X129104454Y-66242723D01*
X129104453Y-66242725D01*
X128970372Y-66540642D01*
X128970366Y-66540657D01*
X128873178Y-66852547D01*
X128814289Y-67173900D01*
X128794564Y-67500000D01*
X128814289Y-67826099D01*
X128873178Y-68147452D01*
X128970366Y-68459342D01*
X128970370Y-68459354D01*
X128970373Y-68459361D01*
X129104455Y-68757279D01*
X129256841Y-69009356D01*
X129273473Y-69036868D01*
X129474954Y-69294039D01*
X129705960Y-69525045D01*
X129963131Y-69726526D01*
X129963134Y-69726528D01*
X129963137Y-69726530D01*
X130242721Y-69895545D01*
X130540639Y-70029627D01*
X130540652Y-70029631D01*
X130540657Y-70029633D01*
X130776221Y-70103037D01*
X130852547Y-70126821D01*
X131173896Y-70185710D01*
X131500000Y-70205436D01*
X131826104Y-70185710D01*
X132147453Y-70126821D01*
X132459361Y-70029627D01*
X132757279Y-69895545D01*
X133036863Y-69726530D01*
X133294036Y-69525048D01*
X133525048Y-69294036D01*
X133726530Y-69036863D01*
X133895545Y-68757279D01*
X134012426Y-68497579D01*
X134057888Y-68444528D01*
X134124819Y-68424475D01*
X134191965Y-68443791D01*
X134238010Y-68496342D01*
X134249500Y-68548473D01*
X134249500Y-77801385D01*
X134229815Y-77868424D01*
X134177011Y-77914179D01*
X134107853Y-77924123D01*
X134044297Y-77895098D01*
X134018113Y-77863385D01*
X134003193Y-77837544D01*
X133995973Y-77831485D01*
X133972182Y-77811522D01*
X133968210Y-77807883D01*
X132942119Y-76781793D01*
X132938474Y-76777814D01*
X132912456Y-76746807D01*
X132912455Y-76746806D01*
X132901058Y-76740226D01*
X132877392Y-76726561D01*
X132872831Y-76723655D01*
X132851556Y-76708759D01*
X132839684Y-76700446D01*
X132839681Y-76700445D01*
X132834861Y-76698197D01*
X132818055Y-76691235D01*
X132813043Y-76689411D01*
X132773190Y-76682383D01*
X132767912Y-76681213D01*
X132752120Y-76676982D01*
X132692458Y-76640620D01*
X132661927Y-76577774D01*
X132670219Y-76508398D01*
X132682635Y-76486081D01*
X132723599Y-76427579D01*
X132823429Y-76213492D01*
X132823432Y-76213486D01*
X132880636Y-76000000D01*
X131828969Y-76000000D01*
X131861519Y-75949351D01*
X131900000Y-75818295D01*
X131900000Y-75681705D01*
X131861519Y-75550649D01*
X131828969Y-75500000D01*
X132880636Y-75500000D01*
X132880635Y-75499999D01*
X132823432Y-75286513D01*
X132823429Y-75286507D01*
X132723600Y-75072422D01*
X132723599Y-75072420D01*
X132588113Y-74878926D01*
X132588108Y-74878920D01*
X132421079Y-74711891D01*
X132421073Y-74711886D01*
X132227579Y-74576400D01*
X132227577Y-74576399D01*
X132142832Y-74536882D01*
X132090393Y-74490710D01*
X132071241Y-74423516D01*
X132091457Y-74356635D01*
X132144622Y-74311300D01*
X132195237Y-74300500D01*
X132204270Y-74300500D01*
X132234699Y-74297646D01*
X132234701Y-74297646D01*
X132298790Y-74275219D01*
X132362882Y-74252793D01*
X132472150Y-74172150D01*
X132552793Y-74062882D01*
X132578138Y-73990449D01*
X132597646Y-73934701D01*
X132597646Y-73934699D01*
X132600500Y-73904269D01*
X132600500Y-72595730D01*
X132597646Y-72565300D01*
X132597646Y-72565298D01*
X132559540Y-72456401D01*
X132552793Y-72437118D01*
X132472150Y-72327850D01*
X132362882Y-72247207D01*
X132362880Y-72247206D01*
X132234700Y-72202353D01*
X132204270Y-72199500D01*
X132204266Y-72199500D01*
X130645734Y-72199500D01*
X130645730Y-72199500D01*
X130615300Y-72202353D01*
X130615298Y-72202353D01*
X130487119Y-72247206D01*
X130487113Y-72247209D01*
X130449093Y-72275270D01*
X130383464Y-72299241D01*
X130375460Y-72299500D01*
X126695072Y-72299500D01*
X126628033Y-72279815D01*
X126607391Y-72263181D01*
X125664273Y-71320063D01*
X124681149Y-70336939D01*
X124680091Y-70335853D01*
X124622324Y-70275082D01*
X124622320Y-70275079D01*
X124574567Y-70241841D01*
X124570833Y-70239025D01*
X124525751Y-70202266D01*
X124525747Y-70202264D01*
X124525746Y-70202263D01*
X124525745Y-70202262D01*
X124496997Y-70187246D01*
X124490277Y-70183174D01*
X124463659Y-70164647D01*
X124410209Y-70141710D01*
X124405952Y-70139688D01*
X124354409Y-70112764D01*
X124354407Y-70112763D01*
X124354406Y-70112763D01*
X124337689Y-70107979D01*
X124323221Y-70103839D01*
X124315822Y-70101205D01*
X124286011Y-70088412D01*
X124286012Y-70088412D01*
X124229038Y-70076703D01*
X124224463Y-70075580D01*
X124168556Y-70059583D01*
X124168545Y-70059582D01*
X124136208Y-70057120D01*
X124128428Y-70056029D01*
X124096657Y-70049500D01*
X124096656Y-70049500D01*
X124038497Y-70049500D01*
X124033790Y-70049321D01*
X124028850Y-70048944D01*
X123975798Y-70044904D01*
X123958176Y-70047149D01*
X123943614Y-70049003D01*
X123935785Y-70049500D01*
X113762840Y-70049500D01*
X113761278Y-70049480D01*
X113692064Y-70047726D01*
X113677455Y-70047356D01*
X113677450Y-70047356D01*
X113620212Y-70057614D01*
X113615548Y-70058268D01*
X113557685Y-70064154D01*
X113557681Y-70064154D01*
X113557679Y-70064155D01*
X113557676Y-70064155D01*
X113557671Y-70064157D01*
X113526733Y-70073864D01*
X113519106Y-70075735D01*
X113487176Y-70081458D01*
X113487171Y-70081460D01*
X113433149Y-70103037D01*
X113428714Y-70104616D01*
X113373229Y-70122027D01*
X113344874Y-70137763D01*
X113337785Y-70141130D01*
X113307648Y-70153170D01*
X113259084Y-70185177D01*
X113255055Y-70187618D01*
X113204207Y-70215841D01*
X113204202Y-70215845D01*
X113179596Y-70236969D01*
X113173326Y-70241697D01*
X113146242Y-70259547D01*
X113146241Y-70259548D01*
X113105120Y-70300668D01*
X113101666Y-70303869D01*
X113057529Y-70341762D01*
X113037675Y-70367410D01*
X113032484Y-70373304D01*
X112231996Y-71173792D01*
X112230872Y-71174888D01*
X112170085Y-71232671D01*
X112170082Y-71232675D01*
X112136855Y-71280411D01*
X112134020Y-71284172D01*
X112097265Y-71329250D01*
X112082248Y-71357998D01*
X112078179Y-71364714D01*
X112059646Y-71391342D01*
X112059646Y-71391343D01*
X112047109Y-71420556D01*
X112039525Y-71438232D01*
X112036711Y-71444789D01*
X112034689Y-71449046D01*
X112007764Y-71500591D01*
X112007762Y-71500595D01*
X111998839Y-71531776D01*
X111996206Y-71539172D01*
X111983412Y-71568987D01*
X111983412Y-71568988D01*
X111971703Y-71625960D01*
X111970580Y-71630534D01*
X111954583Y-71686448D01*
X111954581Y-71686454D01*
X111952120Y-71718791D01*
X111951029Y-71726572D01*
X111944500Y-71758343D01*
X111944500Y-71816502D01*
X111944321Y-71821211D01*
X111939904Y-71879201D01*
X111941804Y-71894120D01*
X111944003Y-71911385D01*
X111944500Y-71919214D01*
X111944500Y-73418366D01*
X111939161Y-73454361D01*
X111908975Y-73553869D01*
X111889659Y-73750000D01*
X111908975Y-73946129D01*
X111917708Y-73974917D01*
X111964137Y-74127974D01*
X111966188Y-74134733D01*
X112059086Y-74308532D01*
X112059090Y-74308539D01*
X112184116Y-74460883D01*
X112336460Y-74585909D01*
X112336467Y-74585913D01*
X112510266Y-74678811D01*
X112510269Y-74678811D01*
X112510273Y-74678814D01*
X112698868Y-74736024D01*
X112895000Y-74755341D01*
X113091132Y-74736024D01*
X113279727Y-74678814D01*
X113453538Y-74585910D01*
X113605883Y-74460883D01*
X113730910Y-74308538D01*
X113780831Y-74215142D01*
X113823811Y-74134733D01*
X113823811Y-74134732D01*
X113823814Y-74134727D01*
X113881024Y-73946132D01*
X113900341Y-73750000D01*
X114429659Y-73750000D01*
X114448975Y-73946129D01*
X114457708Y-73974917D01*
X114504137Y-74127974D01*
X114506188Y-74134733D01*
X114599086Y-74308532D01*
X114599090Y-74308539D01*
X114724116Y-74460883D01*
X114876460Y-74585909D01*
X114876467Y-74585913D01*
X115050266Y-74678811D01*
X115050269Y-74678811D01*
X115050273Y-74678814D01*
X115238868Y-74736024D01*
X115435000Y-74755341D01*
X115631132Y-74736024D01*
X115819727Y-74678814D01*
X115993538Y-74585910D01*
X116145883Y-74460883D01*
X116270910Y-74308538D01*
X116320831Y-74215142D01*
X116363811Y-74134733D01*
X116363811Y-74134732D01*
X116363814Y-74134727D01*
X116421024Y-73946132D01*
X116427597Y-73879393D01*
X116453758Y-73814607D01*
X116510792Y-73774248D01*
X116580592Y-73771131D01*
X116640997Y-73806245D01*
X116672828Y-73868443D01*
X116675000Y-73891548D01*
X116675000Y-74597844D01*
X116681401Y-74657372D01*
X116681403Y-74657379D01*
X116731645Y-74792086D01*
X116731649Y-74792093D01*
X116817809Y-74907187D01*
X116817812Y-74907190D01*
X116932906Y-74993350D01*
X116932913Y-74993354D01*
X117067620Y-75043596D01*
X117067627Y-75043598D01*
X117127155Y-75049999D01*
X117127172Y-75050000D01*
X117724999Y-75050000D01*
X117724999Y-74185501D01*
X117832685Y-74234680D01*
X117939237Y-74250000D01*
X118010763Y-74250000D01*
X118117315Y-74234680D01*
X118224999Y-74185501D01*
X118224999Y-75049999D01*
X118225000Y-75050000D01*
X118822828Y-75050000D01*
X118822844Y-75049999D01*
X118882372Y-75043598D01*
X118882379Y-75043596D01*
X119017086Y-74993354D01*
X119017093Y-74993350D01*
X119132187Y-74907190D01*
X119132190Y-74907187D01*
X119218350Y-74792093D01*
X119218354Y-74792086D01*
X119268596Y-74657379D01*
X119268598Y-74657372D01*
X119274999Y-74597844D01*
X119275000Y-74597827D01*
X119275000Y-74000000D01*
X118408686Y-74000000D01*
X118434493Y-73959844D01*
X118475000Y-73821889D01*
X118475000Y-73678111D01*
X118434493Y-73540156D01*
X118408686Y-73500000D01*
X119275000Y-73500000D01*
X119275000Y-72902172D01*
X119274999Y-72902155D01*
X119268598Y-72842627D01*
X119268596Y-72842620D01*
X119218354Y-72707913D01*
X119218350Y-72707906D01*
X119132190Y-72592812D01*
X119132187Y-72592809D01*
X119017093Y-72506649D01*
X119017086Y-72506645D01*
X118882379Y-72456403D01*
X118882372Y-72456401D01*
X118822844Y-72450000D01*
X118225000Y-72450000D01*
X118224999Y-73314498D01*
X118117315Y-73265320D01*
X118010763Y-73250000D01*
X117939237Y-73250000D01*
X117832685Y-73265320D01*
X117724999Y-73314498D01*
X117725000Y-72450000D01*
X117127155Y-72450000D01*
X117067627Y-72456401D01*
X117067620Y-72456403D01*
X116932913Y-72506645D01*
X116932906Y-72506649D01*
X116817812Y-72592809D01*
X116817809Y-72592812D01*
X116731649Y-72707906D01*
X116731645Y-72707913D01*
X116681403Y-72842620D01*
X116681401Y-72842627D01*
X116675000Y-72902155D01*
X116675000Y-73608451D01*
X116655315Y-73675490D01*
X116602511Y-73721245D01*
X116533353Y-73731189D01*
X116469797Y-73702164D01*
X116432023Y-73643386D01*
X116427597Y-73620605D01*
X116421024Y-73553870D01*
X116421024Y-73553869D01*
X116421024Y-73553868D01*
X116363814Y-73365273D01*
X116363811Y-73365269D01*
X116363811Y-73365266D01*
X116270913Y-73191467D01*
X116270909Y-73191460D01*
X116145883Y-73039116D01*
X115993539Y-72914090D01*
X115993532Y-72914086D01*
X115819733Y-72821188D01*
X115819727Y-72821186D01*
X115631132Y-72763976D01*
X115631129Y-72763975D01*
X115435000Y-72744659D01*
X115238870Y-72763975D01*
X115050266Y-72821188D01*
X114876467Y-72914086D01*
X114876460Y-72914090D01*
X114724116Y-73039116D01*
X114599090Y-73191460D01*
X114599086Y-73191467D01*
X114506188Y-73365266D01*
X114448975Y-73553870D01*
X114429659Y-73750000D01*
X113900341Y-73750000D01*
X113881024Y-73553868D01*
X113851316Y-73455934D01*
X113850839Y-73454361D01*
X113845500Y-73418366D01*
X113845500Y-72300072D01*
X113865185Y-72233033D01*
X113881819Y-72212391D01*
X114107391Y-71986819D01*
X114168714Y-71953334D01*
X114195072Y-71950500D01*
X123554928Y-71950500D01*
X123621967Y-71970185D01*
X123642609Y-71986819D01*
X125568850Y-73913060D01*
X125569875Y-73914111D01*
X125627677Y-73974919D01*
X125675414Y-74008145D01*
X125679161Y-74010970D01*
X125700531Y-74028395D01*
X125724244Y-74047731D01*
X125724247Y-74047733D01*
X125752995Y-74062749D01*
X125759716Y-74066821D01*
X125778046Y-74079578D01*
X125786342Y-74085353D01*
X125839800Y-74108293D01*
X125844047Y-74110311D01*
X125895594Y-74137237D01*
X125926781Y-74146160D01*
X125934169Y-74148790D01*
X125963988Y-74161587D01*
X126020970Y-74173296D01*
X126025516Y-74174411D01*
X126081449Y-74190417D01*
X126113803Y-74192879D01*
X126121562Y-74193968D01*
X126153344Y-74200500D01*
X126211504Y-74200500D01*
X126216210Y-74200678D01*
X126239623Y-74202461D01*
X126274201Y-74205095D01*
X126274201Y-74205094D01*
X126274203Y-74205095D01*
X126306385Y-74200996D01*
X126314215Y-74200500D01*
X130375460Y-74200500D01*
X130442499Y-74220185D01*
X130449093Y-74224730D01*
X130487113Y-74252790D01*
X130487115Y-74252791D01*
X130487118Y-74252793D01*
X130529845Y-74267744D01*
X130615299Y-74297646D01*
X130645730Y-74300500D01*
X130654763Y-74300500D01*
X130721802Y-74320185D01*
X130767557Y-74372989D01*
X130777501Y-74442147D01*
X130748476Y-74505703D01*
X130707168Y-74536882D01*
X130622422Y-74576399D01*
X130622420Y-74576400D01*
X130428926Y-74711886D01*
X130428920Y-74711891D01*
X130261894Y-74878917D01*
X130126399Y-75072421D01*
X130026570Y-75286507D01*
X130026567Y-75286513D01*
X129969364Y-75499999D01*
X129969364Y-75500000D01*
X131021031Y-75500000D01*
X130988481Y-75550649D01*
X130950000Y-75681705D01*
X130950000Y-75818295D01*
X130988481Y-75949351D01*
X131021031Y-76000000D01*
X129969364Y-76000000D01*
X130026567Y-76213486D01*
X130026570Y-76213492D01*
X130126399Y-76427577D01*
X130126400Y-76427579D01*
X130160457Y-76476217D01*
X130182784Y-76542423D01*
X130165774Y-76610190D01*
X130114826Y-76658003D01*
X130081552Y-76667487D01*
X130081671Y-76667929D01*
X130032099Y-76681211D01*
X130026819Y-76682382D01*
X129986954Y-76689412D01*
X129981962Y-76691229D01*
X129965117Y-76698206D01*
X129960313Y-76700446D01*
X129927163Y-76723658D01*
X129922602Y-76726564D01*
X129887548Y-76746804D01*
X129887545Y-76746806D01*
X129887543Y-76746807D01*
X129887542Y-76746809D01*
X129861523Y-76777815D01*
X129857869Y-76781803D01*
X129131803Y-77507870D01*
X129127814Y-77511525D01*
X129096805Y-77537545D01*
X129076562Y-77572606D01*
X129073656Y-77577166D01*
X129050446Y-77610313D01*
X129048206Y-77615117D01*
X129041229Y-77631961D01*
X129039410Y-77636959D01*
X129032383Y-77676811D01*
X129031212Y-77682091D01*
X129020735Y-77721191D01*
X129020735Y-77721194D01*
X129024263Y-77761515D01*
X129024499Y-77766920D01*
X129024499Y-80133077D01*
X129024263Y-80138483D01*
X129020735Y-80178805D01*
X129020735Y-80178806D01*
X129031212Y-80217910D01*
X129032383Y-80223190D01*
X129039411Y-80263043D01*
X129041235Y-80268055D01*
X129048197Y-80284861D01*
X129050445Y-80289681D01*
X129050446Y-80289684D01*
X129051265Y-80290853D01*
X129073655Y-80322831D01*
X129076561Y-80327392D01*
X129096806Y-80362455D01*
X129127815Y-80388475D01*
X129131805Y-80392131D01*
X129707863Y-80968189D01*
X129711518Y-80972178D01*
X129737541Y-81003190D01*
X129737543Y-81003191D01*
X129737545Y-81003194D01*
X129737547Y-81003195D01*
X129737548Y-81003196D01*
X129772599Y-81023433D01*
X129777162Y-81026339D01*
X129810316Y-81049554D01*
X129810319Y-81049554D01*
X129815176Y-81051820D01*
X129831933Y-81058760D01*
X129836953Y-81060587D01*
X129836955Y-81060588D01*
X129876830Y-81067618D01*
X129882087Y-81068784D01*
X129921193Y-81079263D01*
X129961510Y-81075735D01*
X129966912Y-81075500D01*
X130209417Y-81075500D01*
X130276456Y-81095185D01*
X130322211Y-81147989D01*
X130323979Y-81152049D01*
X130324768Y-81153954D01*
X130422315Y-81336450D01*
X130422316Y-81336451D01*
X130422317Y-81336452D01*
X130553589Y-81496410D01*
X130650209Y-81575702D01*
X130713550Y-81627685D01*
X130896046Y-81725232D01*
X131094066Y-81785300D01*
X131094065Y-81785300D01*
X131132647Y-81789100D01*
X131248392Y-81800500D01*
X131248395Y-81800500D01*
X131601605Y-81800500D01*
X131601608Y-81800500D01*
X131755934Y-81785300D01*
X131953954Y-81725232D01*
X132136450Y-81627685D01*
X132296410Y-81496410D01*
X132427685Y-81336450D01*
X132491142Y-81217730D01*
X132540103Y-81167888D01*
X132608241Y-81152427D01*
X132673921Y-81176259D01*
X132716289Y-81231816D01*
X132724499Y-81276185D01*
X132724499Y-82723814D01*
X132704814Y-82790853D01*
X132652010Y-82836608D01*
X132582852Y-82846552D01*
X132519296Y-82817527D01*
X132491142Y-82782270D01*
X132427685Y-82663550D01*
X132352897Y-82572420D01*
X132296410Y-82503589D01*
X132178677Y-82406969D01*
X132136450Y-82372315D01*
X131953954Y-82274768D01*
X131755934Y-82214700D01*
X131755932Y-82214699D01*
X131755934Y-82214699D01*
X131636805Y-82202966D01*
X131601608Y-82199500D01*
X131248392Y-82199500D01*
X131210298Y-82203251D01*
X131094067Y-82214699D01*
X130896043Y-82274769D01*
X130785897Y-82333643D01*
X130713550Y-82372315D01*
X130713548Y-82372316D01*
X130713547Y-82372317D01*
X130553589Y-82503589D01*
X130422317Y-82663547D01*
X130324769Y-82846043D01*
X130324768Y-82846045D01*
X130324768Y-82846046D01*
X130324615Y-82846552D01*
X130264699Y-83044067D01*
X130244417Y-83249999D01*
X130264699Y-83455932D01*
X130278067Y-83500000D01*
X130324768Y-83653954D01*
X130422315Y-83836450D01*
X130422316Y-83836451D01*
X130422317Y-83836452D01*
X130553589Y-83996410D01*
X130613761Y-84045791D01*
X130713550Y-84127685D01*
X130896046Y-84225232D01*
X131094066Y-84285300D01*
X131094065Y-84285300D01*
X131122626Y-84288113D01*
X131248392Y-84300500D01*
X131248395Y-84300500D01*
X131601605Y-84300500D01*
X131601608Y-84300500D01*
X131755934Y-84285300D01*
X131953954Y-84225232D01*
X132136450Y-84127685D01*
X132296410Y-83996410D01*
X132427685Y-83836450D01*
X132491142Y-83717730D01*
X132540103Y-83667888D01*
X132608241Y-83652427D01*
X132673921Y-83676259D01*
X132716289Y-83731816D01*
X132724499Y-83776185D01*
X132724499Y-85223814D01*
X132704814Y-85290853D01*
X132652010Y-85336608D01*
X132582852Y-85346552D01*
X132519296Y-85317527D01*
X132491142Y-85282270D01*
X132427685Y-85163550D01*
X132347052Y-85065298D01*
X132296410Y-85003589D01*
X132178677Y-84906969D01*
X132136450Y-84872315D01*
X131953954Y-84774768D01*
X131755934Y-84714700D01*
X131755932Y-84714699D01*
X131755934Y-84714699D01*
X131636805Y-84702966D01*
X131601608Y-84699500D01*
X131248392Y-84699500D01*
X131210298Y-84703251D01*
X131094067Y-84714699D01*
X130896043Y-84774769D01*
X130877169Y-84784858D01*
X130818715Y-84799500D01*
X128195072Y-84799500D01*
X128128033Y-84779815D01*
X128107391Y-84763181D01*
X126486819Y-83142608D01*
X126453334Y-83081285D01*
X126450500Y-83054927D01*
X126450500Y-80012823D01*
X126450520Y-80011252D01*
X126452644Y-79927458D01*
X126452643Y-79927457D01*
X126452644Y-79927454D01*
X126442382Y-79870206D01*
X126441728Y-79865539D01*
X126435845Y-79807680D01*
X126435844Y-79807674D01*
X126426132Y-79776723D01*
X126424262Y-79769105D01*
X126418539Y-79737172D01*
X126396955Y-79683140D01*
X126395387Y-79678735D01*
X126377974Y-79623232D01*
X126362232Y-79594872D01*
X126358862Y-79587776D01*
X126346831Y-79557654D01*
X126314827Y-79509094D01*
X126312391Y-79505075D01*
X126284159Y-79454209D01*
X126263024Y-79429590D01*
X126258299Y-79423324D01*
X126240453Y-79396243D01*
X126199332Y-79355122D01*
X126196128Y-79351666D01*
X126158240Y-79307532D01*
X126132590Y-79287677D01*
X126126696Y-79282486D01*
X125209022Y-78364812D01*
X124181149Y-77336939D01*
X124180091Y-77335853D01*
X124122324Y-77275082D01*
X124122320Y-77275079D01*
X124121873Y-77274768D01*
X124074567Y-77241841D01*
X124070833Y-77239025D01*
X124025751Y-77202266D01*
X124025747Y-77202264D01*
X124025746Y-77202263D01*
X124025745Y-77202262D01*
X123996997Y-77187246D01*
X123990277Y-77183174D01*
X123963659Y-77164647D01*
X123910209Y-77141710D01*
X123905952Y-77139688D01*
X123854409Y-77112764D01*
X123854407Y-77112763D01*
X123854406Y-77112763D01*
X123837689Y-77107979D01*
X123823221Y-77103839D01*
X123815822Y-77101205D01*
X123786011Y-77088412D01*
X123786012Y-77088412D01*
X123729038Y-77076703D01*
X123724463Y-77075580D01*
X123668556Y-77059583D01*
X123668545Y-77059582D01*
X123636208Y-77057120D01*
X123628428Y-77056029D01*
X123596657Y-77049500D01*
X123596656Y-77049500D01*
X123538497Y-77049500D01*
X123533790Y-77049321D01*
X123528850Y-77048944D01*
X123475798Y-77044904D01*
X123458176Y-77047149D01*
X123443614Y-77049003D01*
X123435785Y-77049500D01*
X112695072Y-77049500D01*
X112628033Y-77029815D01*
X112607391Y-77013181D01*
X111341819Y-75747609D01*
X111308334Y-75686286D01*
X111305500Y-75659928D01*
X111305500Y-74081633D01*
X111310839Y-74045638D01*
X111321352Y-74010982D01*
X111341024Y-73946132D01*
X111360341Y-73750000D01*
X111341024Y-73553868D01*
X111283814Y-73365273D01*
X111283811Y-73365269D01*
X111283811Y-73365266D01*
X111190913Y-73191467D01*
X111190909Y-73191460D01*
X111065883Y-73039116D01*
X110913539Y-72914090D01*
X110913532Y-72914086D01*
X110739733Y-72821188D01*
X110739727Y-72821186D01*
X110551132Y-72763976D01*
X110551129Y-72763975D01*
X110355000Y-72744659D01*
X110158870Y-72763975D01*
X109970266Y-72821188D01*
X109796467Y-72914086D01*
X109796460Y-72914090D01*
X109644116Y-73039116D01*
X109519090Y-73191460D01*
X109519086Y-73191467D01*
X109426188Y-73365266D01*
X109368975Y-73553870D01*
X109349659Y-73750000D01*
X109368975Y-73946130D01*
X109399161Y-74045638D01*
X109404500Y-74081633D01*
X109404500Y-76092160D01*
X109404480Y-76093731D01*
X109402355Y-76177545D01*
X109402355Y-76177546D01*
X109412615Y-76234787D01*
X109413269Y-76239452D01*
X109419154Y-76297318D01*
X109419156Y-76297326D01*
X109428865Y-76328269D01*
X109430737Y-76335898D01*
X109436460Y-76367828D01*
X109436461Y-76367830D01*
X109458032Y-76421833D01*
X109459613Y-76426272D01*
X109477025Y-76481768D01*
X109492765Y-76510125D01*
X109496135Y-76517221D01*
X109504700Y-76538661D01*
X109508170Y-76547348D01*
X109508172Y-76547351D01*
X109508173Y-76547353D01*
X109540174Y-76595908D01*
X109542605Y-76599920D01*
X109565196Y-76640620D01*
X109570841Y-76650791D01*
X109591972Y-76675406D01*
X109596702Y-76681678D01*
X109596857Y-76681914D01*
X109614547Y-76708757D01*
X109655667Y-76749877D01*
X109658870Y-76753333D01*
X109678814Y-76776564D01*
X109696760Y-76797468D01*
X109696764Y-76797471D01*
X109696765Y-76797472D01*
X109722407Y-76817320D01*
X109728303Y-76822512D01*
X111568850Y-78663060D01*
X111569875Y-78664111D01*
X111627677Y-78724919D01*
X111673332Y-78756696D01*
X111675414Y-78758145D01*
X111679161Y-78760970D01*
X111700531Y-78778395D01*
X111724244Y-78797731D01*
X111724247Y-78797733D01*
X111752995Y-78812749D01*
X111759716Y-78816821D01*
X111778046Y-78829578D01*
X111786342Y-78835353D01*
X111786343Y-78835353D01*
X111786344Y-78835354D01*
X111788903Y-78836452D01*
X111839800Y-78858293D01*
X111844047Y-78860311D01*
X111895594Y-78887237D01*
X111926781Y-78896160D01*
X111934169Y-78898790D01*
X111963988Y-78911587D01*
X112020970Y-78923296D01*
X112025516Y-78924411D01*
X112081449Y-78940417D01*
X112113803Y-78942879D01*
X112121562Y-78943968D01*
X112153344Y-78950500D01*
X112211504Y-78950500D01*
X112216210Y-78950678D01*
X112239623Y-78952461D01*
X112274201Y-78955095D01*
X112274201Y-78955094D01*
X112274203Y-78955095D01*
X112306385Y-78950996D01*
X112314215Y-78950500D01*
X123054928Y-78950500D01*
X123121967Y-78970185D01*
X123142609Y-78986818D01*
X124513182Y-80357392D01*
X124546666Y-80418713D01*
X124549500Y-80445071D01*
X124549500Y-83487160D01*
X124549480Y-83488731D01*
X124547355Y-83572545D01*
X124547355Y-83572546D01*
X124557615Y-83629787D01*
X124558269Y-83634452D01*
X124564154Y-83692318D01*
X124564156Y-83692326D01*
X124573865Y-83723269D01*
X124575737Y-83730898D01*
X124581460Y-83762828D01*
X124581461Y-83762830D01*
X124603032Y-83816833D01*
X124604613Y-83821272D01*
X124622025Y-83876768D01*
X124637765Y-83905125D01*
X124641135Y-83912221D01*
X124653168Y-83942343D01*
X124653170Y-83942348D01*
X124653172Y-83942351D01*
X124653173Y-83942353D01*
X124685174Y-83990908D01*
X124687605Y-83994920D01*
X124688433Y-83996410D01*
X124715841Y-84045791D01*
X124736972Y-84070406D01*
X124741703Y-84076680D01*
X124759547Y-84103757D01*
X124800667Y-84144877D01*
X124803870Y-84148333D01*
X124823814Y-84171564D01*
X124841760Y-84192468D01*
X124841764Y-84192471D01*
X124841765Y-84192472D01*
X124867407Y-84212320D01*
X124873302Y-84217512D01*
X127068850Y-86413060D01*
X127069875Y-86414111D01*
X127127677Y-86474919D01*
X127158554Y-86496410D01*
X127175414Y-86508145D01*
X127179161Y-86510970D01*
X127200531Y-86528395D01*
X127224244Y-86547731D01*
X127224247Y-86547733D01*
X127252995Y-86562749D01*
X127259716Y-86566821D01*
X127278046Y-86579578D01*
X127286342Y-86585353D01*
X127339800Y-86608293D01*
X127344047Y-86610311D01*
X127395594Y-86637237D01*
X127426781Y-86646160D01*
X127434169Y-86648790D01*
X127463988Y-86661587D01*
X127520970Y-86673296D01*
X127525516Y-86674411D01*
X127581449Y-86690417D01*
X127613803Y-86692879D01*
X127621562Y-86693968D01*
X127653344Y-86700500D01*
X127711504Y-86700500D01*
X127716210Y-86700678D01*
X127739623Y-86702461D01*
X127774201Y-86705095D01*
X127774201Y-86705094D01*
X127774203Y-86705095D01*
X127806385Y-86700996D01*
X127814215Y-86700500D01*
X130818715Y-86700500D01*
X130877169Y-86715142D01*
X130896046Y-86725232D01*
X131094066Y-86785300D01*
X131094065Y-86785300D01*
X131132647Y-86789100D01*
X131248392Y-86800500D01*
X131248395Y-86800500D01*
X131601605Y-86800500D01*
X131601608Y-86800500D01*
X131755934Y-86785300D01*
X131953954Y-86725232D01*
X132136450Y-86627685D01*
X132296410Y-86496410D01*
X132427685Y-86336450D01*
X132491142Y-86217730D01*
X132540104Y-86167888D01*
X132608241Y-86152428D01*
X132673921Y-86176260D01*
X132716290Y-86231818D01*
X132724499Y-86276186D01*
X132724499Y-91263811D01*
X132704814Y-91330850D01*
X132688180Y-91351492D01*
X132449989Y-91589684D01*
X131970866Y-92068808D01*
X131751493Y-92288181D01*
X131690170Y-92321666D01*
X131663812Y-92324500D01*
X112536189Y-92324500D01*
X112469150Y-92304815D01*
X112448508Y-92288181D01*
X112101819Y-91941492D01*
X112068334Y-91880169D01*
X112065500Y-91853811D01*
X112065500Y-91574824D01*
X112065499Y-91284790D01*
X112085183Y-91217755D01*
X112131042Y-91175438D01*
X112298538Y-91085910D01*
X112450883Y-90960883D01*
X112575910Y-90808538D01*
X112668814Y-90634727D01*
X112726024Y-90446132D01*
X112745341Y-90250000D01*
X112726024Y-90053868D01*
X112709683Y-89999999D01*
X113001127Y-89999999D01*
X113001128Y-90000000D01*
X113846314Y-90000000D01*
X113820507Y-90040156D01*
X113780000Y-90178111D01*
X113780000Y-90321889D01*
X113820507Y-90459844D01*
X113846314Y-90500000D01*
X113001128Y-90500000D01*
X113053730Y-90696317D01*
X113053734Y-90696326D01*
X113149865Y-90902482D01*
X113280342Y-91088820D01*
X113441179Y-91249657D01*
X113627517Y-91380134D01*
X113833673Y-91476265D01*
X113833682Y-91476269D01*
X114029999Y-91528872D01*
X114030000Y-91528871D01*
X114030000Y-90685501D01*
X114137685Y-90734680D01*
X114244237Y-90750000D01*
X114315763Y-90750000D01*
X114422315Y-90734680D01*
X114529999Y-90685501D01*
X114529999Y-91528871D01*
X114530000Y-91528872D01*
X114726317Y-91476269D01*
X114726326Y-91476265D01*
X114932482Y-91380134D01*
X115118820Y-91249657D01*
X115279657Y-91088820D01*
X115410134Y-90902482D01*
X115506265Y-90696326D01*
X115506269Y-90696317D01*
X115558872Y-90500000D01*
X114713686Y-90500000D01*
X114739493Y-90459844D01*
X114780000Y-90321889D01*
X114780000Y-90250000D01*
X115814659Y-90250000D01*
X115833975Y-90446129D01*
X115891188Y-90634733D01*
X115984086Y-90808532D01*
X115984090Y-90808539D01*
X116109116Y-90960883D01*
X116261460Y-91085909D01*
X116261467Y-91085913D01*
X116435266Y-91178811D01*
X116435269Y-91178811D01*
X116435273Y-91178814D01*
X116623868Y-91236024D01*
X116820000Y-91255341D01*
X117016132Y-91236024D01*
X117204727Y-91178814D01*
X117378538Y-91085910D01*
X117530883Y-90960883D01*
X117655910Y-90808538D01*
X117748814Y-90634727D01*
X117806024Y-90446132D01*
X117825341Y-90250000D01*
X118354659Y-90250000D01*
X118373975Y-90446129D01*
X118431188Y-90634733D01*
X118524086Y-90808532D01*
X118524090Y-90808539D01*
X118649116Y-90960883D01*
X118801460Y-91085909D01*
X118801467Y-91085913D01*
X118975266Y-91178811D01*
X118975269Y-91178811D01*
X118975273Y-91178814D01*
X119163868Y-91236024D01*
X119360000Y-91255341D01*
X119556132Y-91236024D01*
X119744727Y-91178814D01*
X119918538Y-91085910D01*
X119938226Y-91069752D01*
X120899500Y-91069752D01*
X120911131Y-91128229D01*
X120911132Y-91128230D01*
X120955447Y-91194552D01*
X121021769Y-91238867D01*
X121021770Y-91238868D01*
X121080247Y-91250499D01*
X121080250Y-91250500D01*
X121080252Y-91250500D01*
X122719750Y-91250500D01*
X122719751Y-91250499D01*
X122734568Y-91247552D01*
X122778229Y-91238868D01*
X122778229Y-91238867D01*
X122778231Y-91238867D01*
X122844552Y-91194552D01*
X122888867Y-91128231D01*
X122888867Y-91128229D01*
X122888868Y-91128229D01*
X122900499Y-91069752D01*
X122900500Y-91069750D01*
X122900500Y-89430249D01*
X122900499Y-89430247D01*
X122888868Y-89371770D01*
X122888867Y-89371769D01*
X122844552Y-89305447D01*
X122778230Y-89261132D01*
X122778229Y-89261131D01*
X122719752Y-89249500D01*
X122719748Y-89249500D01*
X121080252Y-89249500D01*
X121080247Y-89249500D01*
X121021770Y-89261131D01*
X121021769Y-89261132D01*
X120955447Y-89305447D01*
X120911132Y-89371769D01*
X120911131Y-89371770D01*
X120899500Y-89430247D01*
X120899500Y-91069752D01*
X119938226Y-91069752D01*
X120070883Y-90960883D01*
X120195910Y-90808538D01*
X120288814Y-90634727D01*
X120346024Y-90446132D01*
X120365341Y-90250000D01*
X120346024Y-90053868D01*
X120288814Y-89865273D01*
X120288811Y-89865269D01*
X120288811Y-89865266D01*
X120195913Y-89691467D01*
X120195909Y-89691460D01*
X120070883Y-89539116D01*
X119918539Y-89414090D01*
X119918532Y-89414086D01*
X119744733Y-89321188D01*
X119744727Y-89321186D01*
X119607993Y-89279708D01*
X119556129Y-89263975D01*
X119360000Y-89244659D01*
X119163870Y-89263975D01*
X118975266Y-89321188D01*
X118801467Y-89414086D01*
X118801460Y-89414090D01*
X118649116Y-89539116D01*
X118524090Y-89691460D01*
X118524086Y-89691467D01*
X118431188Y-89865266D01*
X118373975Y-90053870D01*
X118354659Y-90250000D01*
X117825341Y-90250000D01*
X117806024Y-90053868D01*
X117748814Y-89865273D01*
X117748811Y-89865269D01*
X117748811Y-89865266D01*
X117655913Y-89691467D01*
X117655909Y-89691460D01*
X117530883Y-89539116D01*
X117378539Y-89414090D01*
X117378532Y-89414086D01*
X117204733Y-89321188D01*
X117204727Y-89321186D01*
X117067993Y-89279708D01*
X117016129Y-89263975D01*
X116820000Y-89244659D01*
X116623870Y-89263975D01*
X116435266Y-89321188D01*
X116261467Y-89414086D01*
X116261460Y-89414090D01*
X116109116Y-89539116D01*
X115984090Y-89691460D01*
X115984086Y-89691467D01*
X115891188Y-89865266D01*
X115833975Y-90053870D01*
X115814659Y-90250000D01*
X114780000Y-90250000D01*
X114780000Y-90178111D01*
X114739493Y-90040156D01*
X114713686Y-90000000D01*
X115558872Y-90000000D01*
X115558872Y-89999999D01*
X115506269Y-89803682D01*
X115506265Y-89803673D01*
X115410134Y-89597517D01*
X115279657Y-89411179D01*
X115118820Y-89250342D01*
X114932482Y-89119865D01*
X114726328Y-89023734D01*
X114530000Y-88971127D01*
X114530000Y-89814498D01*
X114422315Y-89765320D01*
X114315763Y-89750000D01*
X114244237Y-89750000D01*
X114137685Y-89765320D01*
X114030000Y-89814498D01*
X114030000Y-88971127D01*
X113833671Y-89023734D01*
X113627517Y-89119865D01*
X113441179Y-89250342D01*
X113280342Y-89411179D01*
X113149865Y-89597517D01*
X113053734Y-89803673D01*
X113053730Y-89803682D01*
X113001127Y-89999999D01*
X112709683Y-89999999D01*
X112668814Y-89865273D01*
X112668811Y-89865269D01*
X112668811Y-89865266D01*
X112575913Y-89691467D01*
X112575909Y-89691460D01*
X112450883Y-89539116D01*
X112298539Y-89414090D01*
X112298532Y-89414086D01*
X112124733Y-89321188D01*
X112124727Y-89321186D01*
X111987993Y-89279708D01*
X111936129Y-89263975D01*
X111740000Y-89244659D01*
X111543870Y-89263975D01*
X111355266Y-89321188D01*
X111181467Y-89414086D01*
X111181460Y-89414090D01*
X111029116Y-89539116D01*
X110904090Y-89691460D01*
X110904086Y-89691467D01*
X110811188Y-89865266D01*
X110753975Y-90053870D01*
X110734659Y-90250000D01*
X110753975Y-90446129D01*
X110811188Y-90634733D01*
X110904086Y-90808532D01*
X110904090Y-90808539D01*
X111029116Y-90960883D01*
X111181460Y-91085909D01*
X111181467Y-91085913D01*
X111348953Y-91175436D01*
X111398797Y-91224398D01*
X111414500Y-91284794D01*
X111414500Y-92023078D01*
X111414264Y-92028485D01*
X111410735Y-92068808D01*
X111421212Y-92107910D01*
X111422383Y-92113190D01*
X111429411Y-92153043D01*
X111431235Y-92158055D01*
X111438197Y-92174861D01*
X111440445Y-92179681D01*
X111440446Y-92179684D01*
X111452348Y-92196682D01*
X111463655Y-92212831D01*
X111466561Y-92217392D01*
X111486806Y-92252455D01*
X111517815Y-92278475D01*
X111521805Y-92282131D01*
X112052492Y-92812819D01*
X112085977Y-92874142D01*
X112080993Y-92943834D01*
X112039121Y-92999767D01*
X111973657Y-93024184D01*
X111964811Y-93024500D01*
X105811706Y-93024500D01*
X105744667Y-93004815D01*
X105698912Y-92952011D01*
X105688968Y-92882853D01*
X105717993Y-92819297D01*
X105740579Y-92798928D01*
X105772833Y-92776342D01*
X105777379Y-92773444D01*
X105812455Y-92753194D01*
X105838481Y-92722176D01*
X105842122Y-92718202D01*
X106878210Y-91682115D01*
X106882172Y-91678484D01*
X106913194Y-91652455D01*
X106933444Y-91617379D01*
X106936328Y-91612852D01*
X106959554Y-91579684D01*
X106959554Y-91579681D01*
X106961819Y-91574824D01*
X106968747Y-91558099D01*
X106970587Y-91553046D01*
X106970588Y-91553045D01*
X106977621Y-91513150D01*
X106978777Y-91507937D01*
X106989263Y-91468807D01*
X106985735Y-91428489D01*
X106985500Y-91423086D01*
X106985500Y-91284794D01*
X107005185Y-91217755D01*
X107051047Y-91175436D01*
X107139365Y-91128229D01*
X107218538Y-91085910D01*
X107370883Y-90960883D01*
X107495910Y-90808538D01*
X107588814Y-90634727D01*
X107646024Y-90446132D01*
X107665341Y-90250000D01*
X108194659Y-90250000D01*
X108213975Y-90446129D01*
X108271188Y-90634733D01*
X108364086Y-90808532D01*
X108364090Y-90808539D01*
X108489116Y-90960883D01*
X108641460Y-91085909D01*
X108641467Y-91085913D01*
X108815266Y-91178811D01*
X108815269Y-91178811D01*
X108815273Y-91178814D01*
X109003868Y-91236024D01*
X109200000Y-91255341D01*
X109396132Y-91236024D01*
X109584727Y-91178814D01*
X109758538Y-91085910D01*
X109910883Y-90960883D01*
X110035910Y-90808538D01*
X110128814Y-90634727D01*
X110186024Y-90446132D01*
X110205341Y-90250000D01*
X110186024Y-90053868D01*
X110128814Y-89865273D01*
X110128811Y-89865269D01*
X110128811Y-89865266D01*
X110035913Y-89691467D01*
X110035909Y-89691460D01*
X109910883Y-89539116D01*
X109758539Y-89414090D01*
X109758532Y-89414086D01*
X109584733Y-89321188D01*
X109584727Y-89321186D01*
X109447993Y-89279708D01*
X109396129Y-89263975D01*
X109200000Y-89244659D01*
X109003870Y-89263975D01*
X108815266Y-89321188D01*
X108641467Y-89414086D01*
X108641460Y-89414090D01*
X108489116Y-89539116D01*
X108364090Y-89691460D01*
X108364086Y-89691467D01*
X108271188Y-89865266D01*
X108213975Y-90053870D01*
X108194659Y-90250000D01*
X107665341Y-90250000D01*
X107646024Y-90053868D01*
X107588814Y-89865273D01*
X107588811Y-89865269D01*
X107588811Y-89865266D01*
X107495913Y-89691467D01*
X107495909Y-89691460D01*
X107370883Y-89539116D01*
X107218539Y-89414090D01*
X107218532Y-89414086D01*
X107044728Y-89321186D01*
X106907996Y-89279708D01*
X106849558Y-89241411D01*
X106821101Y-89177598D01*
X106831662Y-89108531D01*
X106877887Y-89056138D01*
X106888710Y-89050235D01*
X106889681Y-89049554D01*
X106889684Y-89049554D01*
X106922841Y-89026335D01*
X106927390Y-89023438D01*
X106962455Y-89003194D01*
X106988481Y-88972176D01*
X106992122Y-88968202D01*
X108033210Y-87927115D01*
X108037172Y-87923484D01*
X108068194Y-87897455D01*
X108088444Y-87862378D01*
X108091333Y-87857845D01*
X108114553Y-87824684D01*
X108114555Y-87824676D01*
X108116816Y-87819828D01*
X108123754Y-87803079D01*
X108125583Y-87798052D01*
X108125588Y-87798045D01*
X108132622Y-87758147D01*
X108133779Y-87752929D01*
X108144263Y-87713807D01*
X108140735Y-87673489D01*
X108140500Y-87668086D01*
X108140500Y-87484794D01*
X108160185Y-87417755D01*
X108206047Y-87375436D01*
X108265335Y-87343745D01*
X108373538Y-87285910D01*
X108525883Y-87160883D01*
X108650910Y-87008538D01*
X108743814Y-86834727D01*
X108801024Y-86646132D01*
X108820341Y-86450000D01*
X109349659Y-86450000D01*
X109368975Y-86646129D01*
X109377215Y-86673293D01*
X109411192Y-86785300D01*
X109426188Y-86834733D01*
X109519086Y-87008532D01*
X109519090Y-87008539D01*
X109644116Y-87160883D01*
X109796460Y-87285909D01*
X109796467Y-87285913D01*
X109970266Y-87378811D01*
X109970269Y-87378811D01*
X109970273Y-87378814D01*
X110158868Y-87436024D01*
X110355000Y-87455341D01*
X110551132Y-87436024D01*
X110739727Y-87378814D01*
X110776013Y-87359419D01*
X110826632Y-87332362D01*
X110913538Y-87285910D01*
X111065883Y-87160883D01*
X111190910Y-87008538D01*
X111283814Y-86834727D01*
X111341024Y-86646132D01*
X111360341Y-86450000D01*
X111889659Y-86450000D01*
X111908975Y-86646129D01*
X111917215Y-86673293D01*
X111951192Y-86785300D01*
X111966188Y-86834733D01*
X112059086Y-87008532D01*
X112059090Y-87008539D01*
X112184116Y-87160883D01*
X112336460Y-87285909D01*
X112336467Y-87285913D01*
X112510266Y-87378811D01*
X112510269Y-87378811D01*
X112510273Y-87378814D01*
X112698868Y-87436024D01*
X112895000Y-87455341D01*
X113091132Y-87436024D01*
X113279727Y-87378814D01*
X113316013Y-87359419D01*
X113366632Y-87332362D01*
X113453538Y-87285910D01*
X113605883Y-87160883D01*
X113730910Y-87008538D01*
X113823814Y-86834727D01*
X113881024Y-86646132D01*
X113900341Y-86450000D01*
X114429659Y-86450000D01*
X114448975Y-86646129D01*
X114457215Y-86673293D01*
X114491192Y-86785300D01*
X114506188Y-86834733D01*
X114599086Y-87008532D01*
X114599090Y-87008539D01*
X114724116Y-87160883D01*
X114876460Y-87285909D01*
X114876467Y-87285913D01*
X115050266Y-87378811D01*
X115050269Y-87378811D01*
X115050273Y-87378814D01*
X115238868Y-87436024D01*
X115435000Y-87455341D01*
X115631132Y-87436024D01*
X115819727Y-87378814D01*
X115856013Y-87359419D01*
X115906632Y-87332362D01*
X115993538Y-87285910D01*
X116145883Y-87160883D01*
X116270910Y-87008538D01*
X116363814Y-86834727D01*
X116421024Y-86646132D01*
X116440341Y-86450000D01*
X116969659Y-86450000D01*
X116988975Y-86646129D01*
X116997215Y-86673293D01*
X117031192Y-86785300D01*
X117046188Y-86834733D01*
X117139086Y-87008532D01*
X117139090Y-87008539D01*
X117264116Y-87160883D01*
X117416460Y-87285909D01*
X117416467Y-87285913D01*
X117590266Y-87378811D01*
X117590269Y-87378811D01*
X117590273Y-87378814D01*
X117778868Y-87436024D01*
X117975000Y-87455341D01*
X118171132Y-87436024D01*
X118359727Y-87378814D01*
X118396013Y-87359419D01*
X118446632Y-87332362D01*
X118533538Y-87285910D01*
X118685883Y-87160883D01*
X118810910Y-87008538D01*
X118903814Y-86834727D01*
X118961024Y-86646132D01*
X118980341Y-86450000D01*
X118961024Y-86253868D01*
X118903814Y-86065273D01*
X118903811Y-86065269D01*
X118903811Y-86065266D01*
X118810913Y-85891467D01*
X118810909Y-85891460D01*
X118685883Y-85739116D01*
X118533539Y-85614090D01*
X118533532Y-85614086D01*
X118359733Y-85521188D01*
X118359727Y-85521186D01*
X118171132Y-85463976D01*
X118171129Y-85463975D01*
X117975000Y-85444659D01*
X117778870Y-85463975D01*
X117590266Y-85521188D01*
X117416467Y-85614086D01*
X117416460Y-85614090D01*
X117264116Y-85739116D01*
X117139090Y-85891460D01*
X117139086Y-85891467D01*
X117046188Y-86065266D01*
X116988975Y-86253870D01*
X116969659Y-86450000D01*
X116440341Y-86450000D01*
X116421024Y-86253868D01*
X116363814Y-86065273D01*
X116363811Y-86065269D01*
X116363811Y-86065266D01*
X116270913Y-85891467D01*
X116270909Y-85891460D01*
X116145883Y-85739116D01*
X115993539Y-85614090D01*
X115993532Y-85614086D01*
X115819733Y-85521188D01*
X115819727Y-85521186D01*
X115631132Y-85463976D01*
X115631129Y-85463975D01*
X115435000Y-85444659D01*
X115238870Y-85463975D01*
X115050266Y-85521188D01*
X114876467Y-85614086D01*
X114876460Y-85614090D01*
X114724116Y-85739116D01*
X114599090Y-85891460D01*
X114599086Y-85891467D01*
X114506188Y-86065266D01*
X114448975Y-86253870D01*
X114429659Y-86450000D01*
X113900341Y-86450000D01*
X113881024Y-86253868D01*
X113823814Y-86065273D01*
X113823811Y-86065269D01*
X113823811Y-86065266D01*
X113730913Y-85891467D01*
X113730909Y-85891460D01*
X113605883Y-85739116D01*
X113453539Y-85614090D01*
X113453532Y-85614086D01*
X113279733Y-85521188D01*
X113279727Y-85521186D01*
X113091132Y-85463976D01*
X113091129Y-85463975D01*
X112895000Y-85444659D01*
X112698870Y-85463975D01*
X112510266Y-85521188D01*
X112336467Y-85614086D01*
X112336460Y-85614090D01*
X112184116Y-85739116D01*
X112059090Y-85891460D01*
X112059086Y-85891467D01*
X111966188Y-86065266D01*
X111908975Y-86253870D01*
X111889659Y-86450000D01*
X111360341Y-86450000D01*
X111341024Y-86253868D01*
X111283814Y-86065273D01*
X111283811Y-86065269D01*
X111283811Y-86065266D01*
X111190913Y-85891467D01*
X111190909Y-85891460D01*
X111065883Y-85739116D01*
X110913539Y-85614090D01*
X110913532Y-85614086D01*
X110739733Y-85521188D01*
X110739727Y-85521186D01*
X110551132Y-85463976D01*
X110551129Y-85463975D01*
X110355000Y-85444659D01*
X110158870Y-85463975D01*
X109970266Y-85521188D01*
X109796467Y-85614086D01*
X109796460Y-85614090D01*
X109644116Y-85739116D01*
X109519090Y-85891460D01*
X109519086Y-85891467D01*
X109426188Y-86065266D01*
X109368975Y-86253870D01*
X109349659Y-86450000D01*
X108820341Y-86450000D01*
X108801024Y-86253868D01*
X108743814Y-86065273D01*
X108743811Y-86065269D01*
X108743811Y-86065266D01*
X108650913Y-85891467D01*
X108650909Y-85891460D01*
X108525883Y-85739116D01*
X108373539Y-85614090D01*
X108373532Y-85614086D01*
X108199733Y-85521188D01*
X108199727Y-85521186D01*
X108011132Y-85463976D01*
X108011129Y-85463975D01*
X107815000Y-85444659D01*
X107618870Y-85463975D01*
X107430266Y-85521188D01*
X107256467Y-85614086D01*
X107256460Y-85614090D01*
X107104116Y-85739116D01*
X106979090Y-85891460D01*
X106979086Y-85891467D01*
X106886188Y-86065266D01*
X106828975Y-86253870D01*
X106809659Y-86450000D01*
X106828975Y-86646129D01*
X106837215Y-86673293D01*
X106871192Y-86785300D01*
X106886188Y-86834733D01*
X106979086Y-87008532D01*
X106979090Y-87008539D01*
X107104116Y-87160883D01*
X107256460Y-87285909D01*
X107256467Y-87285913D01*
X107423952Y-87375436D01*
X107473796Y-87424398D01*
X107489499Y-87484794D01*
X107489499Y-87498810D01*
X107469814Y-87565849D01*
X107453180Y-87586491D01*
X106651493Y-88388181D01*
X106590170Y-88421666D01*
X106563812Y-88424500D01*
X105235187Y-88424500D01*
X105168148Y-88404815D01*
X105122393Y-88352011D01*
X105112449Y-88282853D01*
X105141474Y-88219297D01*
X105147506Y-88212819D01*
X105228364Y-88131961D01*
X105493215Y-87867109D01*
X105497166Y-87863489D01*
X105528194Y-87837455D01*
X105548438Y-87802390D01*
X105551335Y-87797841D01*
X105574554Y-87764684D01*
X105574554Y-87764681D01*
X105576819Y-87759824D01*
X105583747Y-87743099D01*
X105585587Y-87738046D01*
X105585588Y-87738045D01*
X105592621Y-87698150D01*
X105593777Y-87692937D01*
X105604263Y-87653807D01*
X105600735Y-87613489D01*
X105600500Y-87608086D01*
X105600500Y-87484794D01*
X105620185Y-87417755D01*
X105666047Y-87375436D01*
X105725335Y-87343745D01*
X105833538Y-87285910D01*
X105985883Y-87160883D01*
X106110910Y-87008538D01*
X106203814Y-86834727D01*
X106261024Y-86646132D01*
X106280341Y-86450000D01*
X106261024Y-86253868D01*
X106203814Y-86065273D01*
X106203811Y-86065269D01*
X106203811Y-86065266D01*
X106110913Y-85891467D01*
X106110909Y-85891460D01*
X105985883Y-85739116D01*
X105833539Y-85614090D01*
X105833532Y-85614086D01*
X105659733Y-85521188D01*
X105659727Y-85521186D01*
X105471132Y-85463976D01*
X105471129Y-85463975D01*
X105275000Y-85444659D01*
X105078870Y-85463975D01*
X104890266Y-85521188D01*
X104716467Y-85614086D01*
X104716460Y-85614090D01*
X104564116Y-85739116D01*
X104439090Y-85891460D01*
X104439086Y-85891467D01*
X104346188Y-86065266D01*
X104288975Y-86253870D01*
X104269659Y-86450000D01*
X104288975Y-86646129D01*
X104297215Y-86673293D01*
X104331192Y-86785300D01*
X104346188Y-86834733D01*
X104439086Y-87008532D01*
X104439090Y-87008539D01*
X104564116Y-87160883D01*
X104716460Y-87285909D01*
X104716467Y-87285913D01*
X104853986Y-87359419D01*
X104903830Y-87408381D01*
X104919291Y-87476519D01*
X104895459Y-87542199D01*
X104883215Y-87556458D01*
X104651491Y-87788182D01*
X104590171Y-87821666D01*
X104563812Y-87824500D01*
X100882766Y-87824500D01*
X100815727Y-87804815D01*
X100769972Y-87752011D01*
X100760028Y-87682853D01*
X100789053Y-87619297D01*
X100830361Y-87588118D01*
X100847482Y-87580134D01*
X101033820Y-87449657D01*
X101194657Y-87288820D01*
X101325134Y-87102482D01*
X101421265Y-86896326D01*
X101421269Y-86896317D01*
X101473872Y-86700000D01*
X100628686Y-86700000D01*
X100654493Y-86659844D01*
X100695000Y-86521889D01*
X100695000Y-86378111D01*
X100654493Y-86240156D01*
X100628686Y-86200000D01*
X101473872Y-86200000D01*
X101473872Y-86199999D01*
X101421269Y-86003682D01*
X101421265Y-86003673D01*
X101325134Y-85797517D01*
X101194657Y-85611179D01*
X101033820Y-85450342D01*
X100847482Y-85319865D01*
X100641328Y-85223734D01*
X100445000Y-85171127D01*
X100445000Y-86014498D01*
X100337315Y-85965320D01*
X100230763Y-85950000D01*
X100159237Y-85950000D01*
X100052685Y-85965320D01*
X99945000Y-86014498D01*
X99945000Y-85171127D01*
X99748671Y-85223734D01*
X99542517Y-85319865D01*
X99356179Y-85450342D01*
X99195342Y-85611179D01*
X99064865Y-85797517D01*
X98968734Y-86003673D01*
X98968730Y-86003682D01*
X98916127Y-86199999D01*
X98916128Y-86200000D01*
X99761314Y-86200000D01*
X99735507Y-86240156D01*
X99695000Y-86378111D01*
X99695000Y-86521889D01*
X99735507Y-86659844D01*
X99761314Y-86700000D01*
X98916128Y-86700000D01*
X98968730Y-86896317D01*
X98968734Y-86896326D01*
X99064865Y-87102482D01*
X99195342Y-87288820D01*
X99356179Y-87449657D01*
X99542517Y-87580134D01*
X99559639Y-87588118D01*
X99612078Y-87634291D01*
X99631230Y-87701485D01*
X99611014Y-87768366D01*
X99557848Y-87813700D01*
X99507234Y-87824500D01*
X93266911Y-87824500D01*
X93261507Y-87824264D01*
X93256176Y-87823797D01*
X93221192Y-87820736D01*
X93182099Y-87831211D01*
X93176819Y-87832382D01*
X93136954Y-87839412D01*
X93131962Y-87841229D01*
X93115117Y-87848206D01*
X93110313Y-87850446D01*
X93077163Y-87873658D01*
X93072602Y-87876564D01*
X93037548Y-87896804D01*
X93037545Y-87896806D01*
X93037543Y-87896807D01*
X93037542Y-87896809D01*
X93011523Y-87927815D01*
X93007869Y-87931803D01*
X91587181Y-89352491D01*
X91525858Y-89385976D01*
X91456166Y-89380992D01*
X91400233Y-89339120D01*
X91375816Y-89273656D01*
X91375500Y-89264810D01*
X91375500Y-88436188D01*
X91395185Y-88369149D01*
X91411819Y-88348507D01*
X95548507Y-84211819D01*
X95609830Y-84178334D01*
X95636188Y-84175500D01*
X101163812Y-84175500D01*
X101230851Y-84195185D01*
X101251493Y-84211819D01*
X102369282Y-85329608D01*
X102402767Y-85390931D01*
X102397783Y-85460623D01*
X102355911Y-85516556D01*
X102340054Y-85526647D01*
X102176467Y-85614085D01*
X102176460Y-85614090D01*
X102024116Y-85739116D01*
X101899090Y-85891460D01*
X101899086Y-85891467D01*
X101806188Y-86065266D01*
X101748975Y-86253870D01*
X101729659Y-86450000D01*
X101748975Y-86646129D01*
X101757215Y-86673293D01*
X101791192Y-86785300D01*
X101806188Y-86834733D01*
X101899086Y-87008532D01*
X101899090Y-87008539D01*
X102024116Y-87160883D01*
X102176460Y-87285909D01*
X102176467Y-87285913D01*
X102350266Y-87378811D01*
X102350269Y-87378811D01*
X102350273Y-87378814D01*
X102538868Y-87436024D01*
X102735000Y-87455341D01*
X102931132Y-87436024D01*
X103119727Y-87378814D01*
X103156013Y-87359419D01*
X103206632Y-87332362D01*
X103293538Y-87285910D01*
X103445883Y-87160883D01*
X103570910Y-87008538D01*
X103663814Y-86834727D01*
X103721024Y-86646132D01*
X103740341Y-86450000D01*
X103721024Y-86253868D01*
X103663814Y-86065273D01*
X103663811Y-86065269D01*
X103663811Y-86065266D01*
X103570913Y-85891467D01*
X103570909Y-85891460D01*
X103445883Y-85739116D01*
X103293539Y-85614090D01*
X103293532Y-85614085D01*
X103126047Y-85524563D01*
X103076202Y-85475601D01*
X103060500Y-85415205D01*
X103060500Y-85251920D01*
X103060736Y-85246513D01*
X103064264Y-85206193D01*
X103053782Y-85167076D01*
X103052616Y-85161818D01*
X103045588Y-85121955D01*
X103045586Y-85121952D01*
X103045586Y-85121950D01*
X103043760Y-85116933D01*
X103036820Y-85100176D01*
X103034554Y-85095319D01*
X103034554Y-85095316D01*
X103011339Y-85062162D01*
X103008433Y-85057599D01*
X102988196Y-85022548D01*
X102988195Y-85022547D01*
X102988194Y-85022545D01*
X102957177Y-84996518D01*
X102953193Y-84992867D01*
X102273822Y-84313496D01*
X101592119Y-83631793D01*
X101588474Y-83627814D01*
X101562456Y-83596807D01*
X101562455Y-83596806D01*
X101551058Y-83590226D01*
X101527392Y-83576561D01*
X101522831Y-83573655D01*
X101509410Y-83564258D01*
X101489684Y-83550446D01*
X101489681Y-83550445D01*
X101484861Y-83548197D01*
X101468055Y-83541235D01*
X101463043Y-83539411D01*
X101423190Y-83532383D01*
X101417910Y-83531212D01*
X101378808Y-83520735D01*
X101343892Y-83523790D01*
X101338481Y-83524264D01*
X101333078Y-83524500D01*
X95466922Y-83524500D01*
X95461518Y-83524264D01*
X95456107Y-83523790D01*
X95421192Y-83520735D01*
X95421191Y-83520735D01*
X95382091Y-83531212D01*
X95376811Y-83532383D01*
X95336959Y-83539410D01*
X95331961Y-83541229D01*
X95315117Y-83548206D01*
X95310313Y-83550446D01*
X95277166Y-83573656D01*
X95272606Y-83576562D01*
X95237548Y-83596804D01*
X95237540Y-83596810D01*
X95211523Y-83627815D01*
X95207869Y-83631804D01*
X90831803Y-88007870D01*
X90827814Y-88011525D01*
X90796805Y-88037545D01*
X90776562Y-88072606D01*
X90773656Y-88077166D01*
X90750446Y-88110313D01*
X90748206Y-88115117D01*
X90741229Y-88131961D01*
X90739410Y-88136959D01*
X90732383Y-88176811D01*
X90731212Y-88182091D01*
X90720735Y-88221191D01*
X90724264Y-88261513D01*
X90724500Y-88266920D01*
X90724500Y-105033078D01*
X90724264Y-105038485D01*
X90720735Y-105078808D01*
X90731212Y-105117910D01*
X90732383Y-105123190D01*
X90739411Y-105163043D01*
X90741235Y-105168055D01*
X90748197Y-105184861D01*
X90750445Y-105189681D01*
X90750446Y-105189684D01*
X90764452Y-105209687D01*
X90773655Y-105222831D01*
X90776561Y-105227392D01*
X90796806Y-105262455D01*
X90827815Y-105288475D01*
X90831805Y-105292131D01*
X93107868Y-107568195D01*
X93111523Y-107572184D01*
X93137541Y-107603190D01*
X93137543Y-107603191D01*
X93137545Y-107603194D01*
X93172599Y-107623432D01*
X93177159Y-107626337D01*
X93210316Y-107649554D01*
X93210319Y-107649554D01*
X93215176Y-107651820D01*
X93231933Y-107658760D01*
X93236953Y-107660587D01*
X93236955Y-107660588D01*
X93276830Y-107667618D01*
X93282087Y-107668784D01*
X93321193Y-107679263D01*
X93361510Y-107675735D01*
X93366912Y-107675500D01*
X95733078Y-107675500D01*
X95738481Y-107675735D01*
X95778807Y-107679264D01*
X95817940Y-107668777D01*
X95823162Y-107667619D01*
X95863045Y-107660588D01*
X95863050Y-107660584D01*
X95868099Y-107658747D01*
X95884824Y-107651819D01*
X95889681Y-107649554D01*
X95889684Y-107649554D01*
X95922841Y-107626335D01*
X95927390Y-107623438D01*
X95962455Y-107603194D01*
X95962459Y-107603190D01*
X95975052Y-107588181D01*
X95988481Y-107572176D01*
X95992122Y-107568202D01*
X96718210Y-106842115D01*
X96722172Y-106838484D01*
X96753194Y-106812455D01*
X96773444Y-106777379D01*
X96776328Y-106772852D01*
X96799554Y-106739684D01*
X96799554Y-106739681D01*
X96801819Y-106734824D01*
X96808747Y-106718099D01*
X96810587Y-106713046D01*
X96810588Y-106713045D01*
X96817621Y-106673150D01*
X96818777Y-106667937D01*
X96829263Y-106628807D01*
X96825735Y-106588489D01*
X96825500Y-106583086D01*
X96825500Y-106524794D01*
X96845185Y-106457755D01*
X96891047Y-106415436D01*
X96963371Y-106376778D01*
X97058538Y-106325910D01*
X97210883Y-106200883D01*
X97210887Y-106200877D01*
X97212812Y-106198954D01*
X97214074Y-106198264D01*
X97215592Y-106197019D01*
X97215828Y-106197306D01*
X97274132Y-106165464D01*
X97343824Y-106170443D01*
X97399761Y-106212310D01*
X97424183Y-106277772D01*
X97424500Y-106286628D01*
X97424500Y-106933078D01*
X97424264Y-106938485D01*
X97420735Y-106978808D01*
X97431212Y-107017910D01*
X97432383Y-107023190D01*
X97439411Y-107063043D01*
X97441235Y-107068055D01*
X97448197Y-107084861D01*
X97450445Y-107089681D01*
X97450446Y-107089684D01*
X97464452Y-107109687D01*
X97473655Y-107122831D01*
X97476561Y-107127392D01*
X97496806Y-107162455D01*
X97527815Y-107188475D01*
X97531805Y-107192131D01*
X98507863Y-108168189D01*
X98511518Y-108172178D01*
X98537541Y-108203190D01*
X98537543Y-108203191D01*
X98537545Y-108203194D01*
X98537547Y-108203195D01*
X98537548Y-108203196D01*
X98572599Y-108223433D01*
X98577162Y-108226339D01*
X98610316Y-108249554D01*
X98610319Y-108249554D01*
X98615176Y-108251820D01*
X98631933Y-108258760D01*
X98636953Y-108260587D01*
X98636955Y-108260588D01*
X98672806Y-108266909D01*
X98676808Y-108267615D01*
X98682080Y-108268783D01*
X98721193Y-108279264D01*
X98761522Y-108275735D01*
X98766924Y-108275500D01*
X99113812Y-108275500D01*
X99180851Y-108295185D01*
X99201493Y-108311819D01*
X99888182Y-108998508D01*
X99921666Y-109059829D01*
X99924500Y-109086187D01*
X99924500Y-109250500D01*
X99904815Y-109317539D01*
X99852011Y-109363294D01*
X99800500Y-109374500D01*
X99380247Y-109374500D01*
X99321770Y-109386131D01*
X99321769Y-109386132D01*
X99255447Y-109430447D01*
X99211132Y-109496769D01*
X99211131Y-109496770D01*
X99199500Y-109555247D01*
X99199500Y-111250500D01*
X99179815Y-111317539D01*
X99127011Y-111363294D01*
X99075500Y-111374500D01*
X97804500Y-111374500D01*
X97737461Y-111354815D01*
X97691706Y-111302011D01*
X97680500Y-111250500D01*
X97680500Y-109555249D01*
X97680499Y-109555247D01*
X97668868Y-109496770D01*
X97668867Y-109496769D01*
X97624552Y-109430447D01*
X97558230Y-109386132D01*
X97558229Y-109386131D01*
X97499752Y-109374500D01*
X97499748Y-109374500D01*
X95760252Y-109374500D01*
X95760247Y-109374500D01*
X95701770Y-109386131D01*
X95701769Y-109386132D01*
X95635447Y-109430447D01*
X95591132Y-109496769D01*
X95591131Y-109496770D01*
X95579500Y-109555247D01*
X95579500Y-111250500D01*
X95559815Y-111317539D01*
X95507011Y-111363294D01*
X95455500Y-111374500D01*
X94931915Y-111374500D01*
X94864876Y-111354815D01*
X94819121Y-111302011D01*
X94809177Y-111232853D01*
X94836061Y-111171836D01*
X94916135Y-111074264D01*
X94967685Y-111011450D01*
X95065232Y-110828954D01*
X95125300Y-110630934D01*
X95145583Y-110425000D01*
X95125300Y-110219066D01*
X95065232Y-110021046D01*
X94967685Y-109838550D01*
X94914276Y-109773470D01*
X94836410Y-109678589D01*
X94686121Y-109555252D01*
X94676450Y-109547315D01*
X94493954Y-109449768D01*
X94295934Y-109389700D01*
X94295932Y-109389699D01*
X94295934Y-109389699D01*
X94090000Y-109369417D01*
X93884067Y-109389699D01*
X93686043Y-109449769D01*
X93598114Y-109496769D01*
X93503550Y-109547315D01*
X93503548Y-109547316D01*
X93503547Y-109547317D01*
X93343589Y-109678589D01*
X93212317Y-109838547D01*
X93114769Y-110021043D01*
X93054699Y-110219067D01*
X93034417Y-110425000D01*
X93054699Y-110630932D01*
X93079428Y-110712453D01*
X93114768Y-110828954D01*
X93212315Y-111011450D01*
X93240045Y-111045239D01*
X93343589Y-111171410D01*
X93394934Y-111213547D01*
X93503550Y-111302685D01*
X93686046Y-111400232D01*
X93692635Y-111402230D01*
X93751075Y-111440524D01*
X93775699Y-111492850D01*
X93775701Y-111492850D01*
X93775706Y-111492865D01*
X93778762Y-111499358D01*
X93779412Y-111503046D01*
X93781235Y-111508055D01*
X93788197Y-111524861D01*
X93790445Y-111529681D01*
X93790446Y-111529684D01*
X93804452Y-111549687D01*
X93813655Y-111562831D01*
X93816561Y-111567392D01*
X93836806Y-111602455D01*
X93867815Y-111628475D01*
X93871805Y-111632131D01*
X93958406Y-111718732D01*
X93991891Y-111780055D01*
X93986907Y-111849747D01*
X93945035Y-111905680D01*
X93889770Y-111927144D01*
X93890042Y-111928511D01*
X93884069Y-111929699D01*
X93884065Y-111929700D01*
X93884066Y-111929700D01*
X93730310Y-111976341D01*
X93686043Y-111989769D01*
X93585658Y-112043427D01*
X93503550Y-112087315D01*
X93503548Y-112087316D01*
X93503547Y-112087317D01*
X93343589Y-112218589D01*
X93212317Y-112378547D01*
X93114769Y-112561043D01*
X93054699Y-112759067D01*
X93034417Y-112965000D01*
X93054699Y-113170932D01*
X93054700Y-113170934D01*
X93114768Y-113368954D01*
X93212315Y-113551450D01*
X93212317Y-113551452D01*
X93343589Y-113711410D01*
X93440209Y-113790702D01*
X93503550Y-113842685D01*
X93686046Y-113940232D01*
X93686054Y-113940234D01*
X93689881Y-113941820D01*
X93744284Y-113985661D01*
X93762204Y-114024290D01*
X93771212Y-114057909D01*
X93772383Y-114063189D01*
X93779411Y-114103043D01*
X93781235Y-114108055D01*
X93788197Y-114124861D01*
X93790445Y-114129681D01*
X93790446Y-114129684D01*
X93804423Y-114149646D01*
X93813655Y-114162831D01*
X93816561Y-114167392D01*
X93836806Y-114202455D01*
X93867815Y-114228475D01*
X93871805Y-114232131D01*
X94177492Y-114537819D01*
X94210977Y-114599142D01*
X94205993Y-114668834D01*
X94164121Y-114724767D01*
X94098657Y-114749184D01*
X94089811Y-114749500D01*
X88048474Y-114749500D01*
X87981435Y-114729815D01*
X87935680Y-114677011D01*
X87925736Y-114607853D01*
X87954761Y-114544297D01*
X87997580Y-114512425D01*
X88257279Y-114395545D01*
X88536863Y-114226530D01*
X88794036Y-114025048D01*
X89025048Y-113794036D01*
X89226530Y-113536863D01*
X89395545Y-113257279D01*
X89527090Y-112964999D01*
X90494417Y-112964999D01*
X90514699Y-113170932D01*
X90514700Y-113170934D01*
X90574768Y-113368954D01*
X90672315Y-113551450D01*
X90672317Y-113551452D01*
X90803589Y-113711410D01*
X90900209Y-113790702D01*
X90963550Y-113842685D01*
X91146046Y-113940232D01*
X91344066Y-114000300D01*
X91344065Y-114000300D01*
X91362529Y-114002118D01*
X91550000Y-114020583D01*
X91755934Y-114000300D01*
X91953954Y-113940232D01*
X92136450Y-113842685D01*
X92296410Y-113711410D01*
X92427685Y-113551450D01*
X92525232Y-113368954D01*
X92585300Y-113170934D01*
X92605583Y-112965000D01*
X92585300Y-112759066D01*
X92525232Y-112561046D01*
X92427685Y-112378550D01*
X92338753Y-112270185D01*
X92296410Y-112218589D01*
X92136452Y-112087317D01*
X92136453Y-112087317D01*
X92136450Y-112087315D01*
X91966554Y-111996502D01*
X91953956Y-111989769D01*
X91953955Y-111989768D01*
X91953954Y-111989768D01*
X91755934Y-111929700D01*
X91755932Y-111929699D01*
X91755934Y-111929699D01*
X91550000Y-111909417D01*
X91344067Y-111929699D01*
X91146043Y-111989769D01*
X91045658Y-112043427D01*
X90963550Y-112087315D01*
X90963548Y-112087316D01*
X90963547Y-112087317D01*
X90803589Y-112218589D01*
X90672317Y-112378547D01*
X90574769Y-112561043D01*
X90514699Y-112759067D01*
X90494417Y-112964999D01*
X89527090Y-112964999D01*
X89529627Y-112959361D01*
X89626821Y-112647453D01*
X89685710Y-112326104D01*
X89705436Y-112000000D01*
X89685710Y-111673896D01*
X89626821Y-111352547D01*
X89615912Y-111317539D01*
X89529633Y-111040657D01*
X89529631Y-111040652D01*
X89529627Y-111040639D01*
X89395545Y-110742721D01*
X89226530Y-110463137D01*
X89226528Y-110463134D01*
X89226526Y-110463131D01*
X89196651Y-110424999D01*
X90494417Y-110424999D01*
X90514699Y-110630932D01*
X90539428Y-110712453D01*
X90574768Y-110828954D01*
X90672315Y-111011450D01*
X90700045Y-111045239D01*
X90803589Y-111171410D01*
X90854934Y-111213547D01*
X90963550Y-111302685D01*
X91146046Y-111400232D01*
X91344066Y-111460300D01*
X91344065Y-111460300D01*
X91346350Y-111460525D01*
X91550000Y-111480583D01*
X91755934Y-111460300D01*
X91953954Y-111400232D01*
X92136450Y-111302685D01*
X92296410Y-111171410D01*
X92427685Y-111011450D01*
X92525232Y-110828954D01*
X92585300Y-110630934D01*
X92605583Y-110425000D01*
X92585300Y-110219066D01*
X92525232Y-110021046D01*
X92427685Y-109838550D01*
X92374276Y-109773470D01*
X92296410Y-109678589D01*
X92146121Y-109555252D01*
X92136450Y-109547315D01*
X91953954Y-109449768D01*
X91755934Y-109389700D01*
X91755932Y-109389699D01*
X91755934Y-109389699D01*
X91550000Y-109369417D01*
X91344067Y-109389699D01*
X91146043Y-109449769D01*
X91058114Y-109496769D01*
X90963550Y-109547315D01*
X90963548Y-109547316D01*
X90963547Y-109547317D01*
X90803589Y-109678589D01*
X90672317Y-109838547D01*
X90574769Y-110021043D01*
X90514699Y-110219067D01*
X90494417Y-110424999D01*
X89196651Y-110424999D01*
X89025045Y-110205960D01*
X88794039Y-109974954D01*
X88536868Y-109773473D01*
X88529306Y-109768901D01*
X88257279Y-109604455D01*
X87959361Y-109470373D01*
X87959354Y-109470370D01*
X87959342Y-109470366D01*
X87647452Y-109373178D01*
X87326099Y-109314289D01*
X87000000Y-109294564D01*
X86673900Y-109314289D01*
X86352547Y-109373178D01*
X86040657Y-109470366D01*
X86040641Y-109470372D01*
X86040639Y-109470373D01*
X85852057Y-109555247D01*
X85742725Y-109604453D01*
X85742723Y-109604454D01*
X85463131Y-109773473D01*
X85205960Y-109974954D01*
X84974954Y-110205960D01*
X84773473Y-110463131D01*
X84681560Y-110615174D01*
X84607026Y-110738469D01*
X84604454Y-110742723D01*
X84604453Y-110742725D01*
X84577770Y-110802012D01*
X84487574Y-111002418D01*
X84442112Y-111055472D01*
X84375181Y-111075524D01*
X84308035Y-111056208D01*
X84261990Y-111003656D01*
X84250500Y-110951526D01*
X84250500Y-83500000D01*
X85619364Y-83500000D01*
X85676567Y-83713486D01*
X85676570Y-83713492D01*
X85776399Y-83927577D01*
X85776400Y-83927579D01*
X85911886Y-84121073D01*
X85911891Y-84121079D01*
X86078920Y-84288108D01*
X86078926Y-84288113D01*
X86272420Y-84423599D01*
X86272422Y-84423600D01*
X86357168Y-84463118D01*
X86409607Y-84509290D01*
X86428759Y-84576484D01*
X86408543Y-84643365D01*
X86355378Y-84688700D01*
X86304763Y-84699500D01*
X86295730Y-84699500D01*
X86265300Y-84702353D01*
X86265298Y-84702353D01*
X86137119Y-84747206D01*
X86137117Y-84747207D01*
X86027850Y-84827850D01*
X85947207Y-84937117D01*
X85947206Y-84937119D01*
X85902353Y-85065298D01*
X85902353Y-85065300D01*
X85899500Y-85095730D01*
X85899500Y-86404269D01*
X85902353Y-86434699D01*
X85902353Y-86434701D01*
X85947033Y-86562386D01*
X85947207Y-86562882D01*
X86027850Y-86672150D01*
X86137118Y-86752793D01*
X86179845Y-86767744D01*
X86265299Y-86797646D01*
X86295730Y-86800500D01*
X86295734Y-86800500D01*
X87854270Y-86800500D01*
X87884699Y-86797646D01*
X87884701Y-86797646D01*
X87948790Y-86775219D01*
X88012882Y-86752793D01*
X88016043Y-86750459D01*
X88050907Y-86724730D01*
X88116536Y-86700759D01*
X88124540Y-86700500D01*
X91162160Y-86700500D01*
X91163721Y-86700519D01*
X91197555Y-86701377D01*
X91247539Y-86702644D01*
X91247539Y-86702643D01*
X91247546Y-86702644D01*
X91304818Y-86692378D01*
X91309432Y-86691731D01*
X91367321Y-86685845D01*
X91398286Y-86676128D01*
X91405886Y-86674263D01*
X91437828Y-86668539D01*
X91491830Y-86646967D01*
X91496267Y-86645387D01*
X91500957Y-86643915D01*
X91551768Y-86627974D01*
X91580134Y-86612228D01*
X91587214Y-86608866D01*
X91617348Y-86596830D01*
X91665917Y-86564818D01*
X91669926Y-86562389D01*
X91720791Y-86534159D01*
X91745408Y-86513023D01*
X91751672Y-86508301D01*
X91778759Y-86490451D01*
X91819906Y-86449302D01*
X91823325Y-86446134D01*
X91867468Y-86408240D01*
X91887328Y-86382581D01*
X91892499Y-86376709D01*
X93313096Y-84956112D01*
X93314109Y-84955125D01*
X93374919Y-84897323D01*
X93408161Y-84849562D01*
X93410962Y-84845846D01*
X93447734Y-84800751D01*
X93462758Y-84771986D01*
X93466819Y-84765283D01*
X93485353Y-84738658D01*
X93508304Y-84685173D01*
X93510295Y-84680981D01*
X93537237Y-84629406D01*
X93546163Y-84598209D01*
X93548788Y-84590834D01*
X93561587Y-84561012D01*
X93573299Y-84504012D01*
X93574412Y-84499484D01*
X93590417Y-84443552D01*
X93592880Y-84411195D01*
X93593967Y-84403437D01*
X93600500Y-84371656D01*
X93600500Y-84313496D01*
X93600679Y-84308787D01*
X93605095Y-84250797D01*
X93600997Y-84218623D01*
X93600499Y-84210780D01*
X93600499Y-82503589D01*
X93600499Y-80795068D01*
X93620184Y-80728033D01*
X93636813Y-80707396D01*
X95357391Y-78986819D01*
X95418714Y-78953334D01*
X95445072Y-78950500D01*
X103337160Y-78950500D01*
X103338721Y-78950519D01*
X103372555Y-78951377D01*
X103422539Y-78952644D01*
X103422539Y-78952643D01*
X103422546Y-78952644D01*
X103479818Y-78942378D01*
X103484432Y-78941731D01*
X103542321Y-78935845D01*
X103573286Y-78926128D01*
X103580886Y-78924263D01*
X103612828Y-78918539D01*
X103666830Y-78896967D01*
X103671267Y-78895387D01*
X103675957Y-78893915D01*
X103726768Y-78877974D01*
X103755134Y-78862228D01*
X103762214Y-78858866D01*
X103792348Y-78846830D01*
X103840917Y-78814818D01*
X103844926Y-78812389D01*
X103895791Y-78784159D01*
X103920408Y-78763023D01*
X103926672Y-78758301D01*
X103953759Y-78740451D01*
X103994906Y-78699302D01*
X103998325Y-78696134D01*
X104042468Y-78658240D01*
X104062328Y-78632581D01*
X104067499Y-78626709D01*
X105938096Y-76756112D01*
X105939109Y-76755125D01*
X105999919Y-76697323D01*
X106033161Y-76649562D01*
X106035962Y-76645846D01*
X106072734Y-76600751D01*
X106087758Y-76571986D01*
X106091819Y-76565283D01*
X106110353Y-76538658D01*
X106133304Y-76485173D01*
X106135295Y-76480981D01*
X106162237Y-76429406D01*
X106171163Y-76398209D01*
X106173788Y-76390834D01*
X106186587Y-76361012D01*
X106198299Y-76304012D01*
X106199412Y-76299484D01*
X106215417Y-76243552D01*
X106217880Y-76211195D01*
X106218967Y-76203437D01*
X106225500Y-76171656D01*
X106225500Y-76113496D01*
X106225679Y-76108787D01*
X106230095Y-76050797D01*
X106225996Y-76018615D01*
X106225500Y-76010784D01*
X106225500Y-74081633D01*
X106230839Y-74045638D01*
X106241352Y-74010982D01*
X106261024Y-73946132D01*
X106280341Y-73750000D01*
X106261024Y-73553868D01*
X106203814Y-73365273D01*
X106203811Y-73365269D01*
X106203811Y-73365266D01*
X106110913Y-73191467D01*
X106110909Y-73191460D01*
X105985883Y-73039116D01*
X105833539Y-72914090D01*
X105833532Y-72914086D01*
X105659733Y-72821188D01*
X105659727Y-72821186D01*
X105471132Y-72763976D01*
X105471129Y-72763975D01*
X105275000Y-72744659D01*
X105078870Y-72763975D01*
X104890266Y-72821188D01*
X104716467Y-72914086D01*
X104716460Y-72914090D01*
X104564116Y-73039116D01*
X104439090Y-73191460D01*
X104439086Y-73191467D01*
X104346188Y-73365266D01*
X104288975Y-73553870D01*
X104269659Y-73750000D01*
X104288975Y-73946130D01*
X104319161Y-74045638D01*
X104324500Y-74081633D01*
X104324500Y-75629927D01*
X104304815Y-75696966D01*
X104288181Y-75717608D01*
X102992609Y-77013181D01*
X102931286Y-77046666D01*
X102904928Y-77049500D01*
X95012840Y-77049500D01*
X95011278Y-77049480D01*
X94942064Y-77047726D01*
X94927455Y-77047356D01*
X94927450Y-77047356D01*
X94870212Y-77057614D01*
X94865548Y-77058268D01*
X94807685Y-77064154D01*
X94807681Y-77064154D01*
X94807679Y-77064155D01*
X94807676Y-77064155D01*
X94807671Y-77064157D01*
X94776733Y-77073864D01*
X94769106Y-77075735D01*
X94737176Y-77081458D01*
X94737170Y-77081460D01*
X94683154Y-77103036D01*
X94678716Y-77104616D01*
X94623233Y-77122025D01*
X94623226Y-77122028D01*
X94594875Y-77137764D01*
X94587781Y-77141133D01*
X94557650Y-77153170D01*
X94509091Y-77185173D01*
X94505062Y-77187614D01*
X94454207Y-77215841D01*
X94454206Y-77215843D01*
X94429596Y-77236970D01*
X94423324Y-77241699D01*
X94396239Y-77259549D01*
X94396236Y-77259551D01*
X94355120Y-77300668D01*
X94351666Y-77303870D01*
X94307529Y-77341762D01*
X94287675Y-77367410D01*
X94282484Y-77373304D01*
X91986996Y-79668792D01*
X91985872Y-79669888D01*
X91925085Y-79727671D01*
X91925082Y-79727675D01*
X91891855Y-79775411D01*
X91889020Y-79779172D01*
X91852265Y-79824250D01*
X91837248Y-79852998D01*
X91833179Y-79859714D01*
X91814646Y-79886342D01*
X91814646Y-79886343D01*
X91802109Y-79915556D01*
X91797003Y-79927458D01*
X91791711Y-79939789D01*
X91789689Y-79944046D01*
X91762764Y-79995591D01*
X91762762Y-79995595D01*
X91753839Y-80026776D01*
X91751206Y-80034172D01*
X91738412Y-80063987D01*
X91738412Y-80063988D01*
X91726703Y-80120960D01*
X91725580Y-80125534D01*
X91709583Y-80181448D01*
X91709581Y-80181454D01*
X91707120Y-80213791D01*
X91706029Y-80221572D01*
X91699500Y-80253343D01*
X91699500Y-80311502D01*
X91699321Y-80316211D01*
X91694904Y-80374201D01*
X91696685Y-80388181D01*
X91699003Y-80406385D01*
X91699500Y-80414214D01*
X91699500Y-83829928D01*
X91679815Y-83896967D01*
X91663181Y-83917609D01*
X90817609Y-84763181D01*
X90756286Y-84796666D01*
X90729928Y-84799500D01*
X88124540Y-84799500D01*
X88057501Y-84779815D01*
X88050907Y-84775270D01*
X88012886Y-84747209D01*
X88012880Y-84747206D01*
X87884700Y-84702353D01*
X87854270Y-84699500D01*
X87854266Y-84699500D01*
X87845237Y-84699500D01*
X87778198Y-84679815D01*
X87732443Y-84627011D01*
X87722499Y-84557853D01*
X87751524Y-84494297D01*
X87792832Y-84463118D01*
X87877577Y-84423600D01*
X87877579Y-84423599D01*
X88071073Y-84288113D01*
X88071079Y-84288108D01*
X88238105Y-84121082D01*
X88373600Y-83927578D01*
X88473429Y-83713492D01*
X88473432Y-83713486D01*
X88530636Y-83500000D01*
X87478969Y-83500000D01*
X87511519Y-83449351D01*
X87550000Y-83318295D01*
X87550000Y-83181705D01*
X87511519Y-83050649D01*
X87478969Y-83000000D01*
X88530636Y-83000000D01*
X88530635Y-82999999D01*
X88473432Y-82786513D01*
X88473429Y-82786507D01*
X88373600Y-82572422D01*
X88373599Y-82572420D01*
X88238113Y-82378926D01*
X88238108Y-82378920D01*
X88071079Y-82211891D01*
X88071073Y-82211886D01*
X87877579Y-82076400D01*
X87877577Y-82076399D01*
X87663492Y-81976570D01*
X87663486Y-81976567D01*
X87611366Y-81962602D01*
X87551706Y-81926237D01*
X87521177Y-81863390D01*
X87529472Y-81794014D01*
X87573957Y-81740136D01*
X87598662Y-81728364D01*
X87598330Y-81727562D01*
X87603948Y-81725234D01*
X87603948Y-81725233D01*
X87603954Y-81725232D01*
X87786450Y-81627685D01*
X87946410Y-81496410D01*
X88077685Y-81336450D01*
X88175232Y-81153954D01*
X88235300Y-80955934D01*
X88255583Y-80750000D01*
X88235300Y-80544066D01*
X88175232Y-80346046D01*
X88077685Y-80163550D01*
X87995977Y-80063988D01*
X87946410Y-80003589D01*
X87786452Y-79872317D01*
X87786453Y-79872317D01*
X87786450Y-79872315D01*
X87603954Y-79774768D01*
X87405934Y-79714700D01*
X87405932Y-79714699D01*
X87405934Y-79714699D01*
X87286805Y-79702966D01*
X87251608Y-79699500D01*
X86898392Y-79699500D01*
X86860298Y-79703251D01*
X86744067Y-79714699D01*
X86546043Y-79774769D01*
X86435898Y-79833643D01*
X86363550Y-79872315D01*
X86363548Y-79872316D01*
X86363547Y-79872317D01*
X86203589Y-80003589D01*
X86072317Y-80163547D01*
X86072315Y-80163550D01*
X86040103Y-80223814D01*
X85974769Y-80346043D01*
X85914699Y-80544067D01*
X85894417Y-80750000D01*
X85914699Y-80955932D01*
X85935175Y-81023433D01*
X85974768Y-81153954D01*
X86072315Y-81336450D01*
X86072316Y-81336451D01*
X86072317Y-81336452D01*
X86203589Y-81496410D01*
X86300209Y-81575702D01*
X86363550Y-81627685D01*
X86546046Y-81725232D01*
X86546048Y-81725232D01*
X86546051Y-81725234D01*
X86551670Y-81727562D01*
X86550825Y-81729601D01*
X86600968Y-81762458D01*
X86629428Y-81826268D01*
X86618872Y-81895336D01*
X86572651Y-81947732D01*
X86538633Y-81962602D01*
X86486514Y-81976567D01*
X86486507Y-81976570D01*
X86272422Y-82076399D01*
X86272420Y-82076400D01*
X86078926Y-82211886D01*
X86078920Y-82211891D01*
X85911894Y-82378917D01*
X85776399Y-82572421D01*
X85676570Y-82786507D01*
X85676567Y-82786513D01*
X85619364Y-82999999D01*
X85619364Y-83000000D01*
X86671031Y-83000000D01*
X86638481Y-83050649D01*
X86600000Y-83181705D01*
X86600000Y-83318295D01*
X86638481Y-83449351D01*
X86671031Y-83500000D01*
X85619364Y-83500000D01*
X84250500Y-83500000D01*
X84250500Y-78249999D01*
X85894417Y-78249999D01*
X85914699Y-78455932D01*
X85914700Y-78455934D01*
X85974768Y-78653954D01*
X86072315Y-78836450D01*
X86091000Y-78859218D01*
X86203589Y-78996410D01*
X86300209Y-79075702D01*
X86363550Y-79127685D01*
X86546046Y-79225232D01*
X86744066Y-79285300D01*
X86744065Y-79285300D01*
X86768220Y-79287679D01*
X86898392Y-79300500D01*
X86898395Y-79300500D01*
X87251605Y-79300500D01*
X87251608Y-79300500D01*
X87405934Y-79285300D01*
X87603954Y-79225232D01*
X87786450Y-79127685D01*
X87946410Y-78996410D01*
X88077685Y-78836450D01*
X88175232Y-78653954D01*
X88235300Y-78455934D01*
X88255583Y-78250000D01*
X88235300Y-78044066D01*
X88175232Y-77846046D01*
X88077685Y-77663550D01*
X88003050Y-77572606D01*
X87946410Y-77503589D01*
X87786452Y-77372317D01*
X87786453Y-77372317D01*
X87786450Y-77372315D01*
X87616554Y-77281502D01*
X87603956Y-77274769D01*
X87603955Y-77274768D01*
X87603954Y-77274768D01*
X87405934Y-77214700D01*
X87405932Y-77214699D01*
X87405934Y-77214699D01*
X87279691Y-77202266D01*
X87251608Y-77199500D01*
X86898392Y-77199500D01*
X86860298Y-77203251D01*
X86744067Y-77214699D01*
X86546043Y-77274769D01*
X86494459Y-77302342D01*
X86363550Y-77372315D01*
X86363548Y-77372316D01*
X86363547Y-77372317D01*
X86203589Y-77503589D01*
X86072317Y-77663547D01*
X86072315Y-77663550D01*
X86062405Y-77682091D01*
X85974769Y-77846043D01*
X85974768Y-77846045D01*
X85974768Y-77846046D01*
X85973157Y-77851356D01*
X85914699Y-78044067D01*
X85894417Y-78249999D01*
X84250500Y-78249999D01*
X84250500Y-75750000D01*
X85894417Y-75750000D01*
X85914699Y-75955932D01*
X85914700Y-75955934D01*
X85974768Y-76153954D01*
X86072315Y-76336450D01*
X86098066Y-76367828D01*
X86203589Y-76496410D01*
X86287503Y-76565275D01*
X86363550Y-76627685D01*
X86546046Y-76725232D01*
X86744066Y-76785300D01*
X86744065Y-76785300D01*
X86782647Y-76789100D01*
X86898392Y-76800500D01*
X86898395Y-76800500D01*
X87251605Y-76800500D01*
X87251608Y-76800500D01*
X87405934Y-76785300D01*
X87603954Y-76725232D01*
X87786450Y-76627685D01*
X87946410Y-76496410D01*
X88077685Y-76336450D01*
X88175232Y-76153954D01*
X88235300Y-75955934D01*
X88255583Y-75750000D01*
X88235300Y-75544066D01*
X88175232Y-75346046D01*
X88077685Y-75163550D01*
X88002897Y-75072420D01*
X87946410Y-75003589D01*
X87828677Y-74906969D01*
X87786450Y-74872315D01*
X87603954Y-74774768D01*
X87405934Y-74714700D01*
X87405932Y-74714699D01*
X87405934Y-74714699D01*
X87286805Y-74702966D01*
X87251608Y-74699500D01*
X86898392Y-74699500D01*
X86860298Y-74703251D01*
X86744067Y-74714699D01*
X86546043Y-74774769D01*
X86513633Y-74792093D01*
X86363550Y-74872315D01*
X86363548Y-74872316D01*
X86363547Y-74872317D01*
X86203589Y-75003589D01*
X86072317Y-75163547D01*
X85974769Y-75346043D01*
X85974768Y-75346045D01*
X85974768Y-75346046D01*
X85967898Y-75368692D01*
X85914699Y-75544067D01*
X85894417Y-75750000D01*
X84250500Y-75750000D01*
X84250500Y-73250000D01*
X85894417Y-73250000D01*
X85914699Y-73455932D01*
X85914700Y-73455934D01*
X85974768Y-73653954D01*
X86072315Y-73836450D01*
X86072317Y-73836452D01*
X86203589Y-73996410D01*
X86300209Y-74075702D01*
X86363550Y-74127685D01*
X86546046Y-74225232D01*
X86744066Y-74285300D01*
X86744065Y-74285300D01*
X86782647Y-74289100D01*
X86898392Y-74300500D01*
X86898395Y-74300500D01*
X87251605Y-74300500D01*
X87251608Y-74300500D01*
X87405934Y-74285300D01*
X87603954Y-74225232D01*
X87622830Y-74215142D01*
X87681285Y-74200500D01*
X91987160Y-74200500D01*
X91988721Y-74200519D01*
X92022555Y-74201377D01*
X92072539Y-74202644D01*
X92072539Y-74202643D01*
X92072546Y-74202644D01*
X92129818Y-74192378D01*
X92134432Y-74191731D01*
X92192321Y-74185845D01*
X92223286Y-74176128D01*
X92230886Y-74174263D01*
X92262828Y-74168539D01*
X92316830Y-74146967D01*
X92321267Y-74145387D01*
X92325957Y-74143915D01*
X92376768Y-74127974D01*
X92405134Y-74112228D01*
X92412214Y-74108866D01*
X92442348Y-74096830D01*
X92490917Y-74064818D01*
X92494926Y-74062389D01*
X92545791Y-74034159D01*
X92570408Y-74013023D01*
X92576672Y-74008301D01*
X92603759Y-73990451D01*
X92644906Y-73949302D01*
X92648328Y-73946132D01*
X92692468Y-73908240D01*
X92712328Y-73882581D01*
X92717499Y-73876709D01*
X93094209Y-73499999D01*
X98916127Y-73499999D01*
X98916128Y-73500000D01*
X99761314Y-73500000D01*
X99735507Y-73540156D01*
X99695000Y-73678111D01*
X99695000Y-73821889D01*
X99735507Y-73959844D01*
X99761314Y-74000000D01*
X98916128Y-74000000D01*
X98968730Y-74196317D01*
X98968734Y-74196326D01*
X99064865Y-74402482D01*
X99195342Y-74588820D01*
X99356179Y-74749657D01*
X99542517Y-74880134D01*
X99748673Y-74976265D01*
X99748682Y-74976269D01*
X99944999Y-75028872D01*
X99945000Y-75028871D01*
X99945000Y-74185501D01*
X100052685Y-74234680D01*
X100159237Y-74250000D01*
X100230763Y-74250000D01*
X100337315Y-74234680D01*
X100445000Y-74185501D01*
X100445000Y-75028872D01*
X100641317Y-74976269D01*
X100641326Y-74976265D01*
X100847482Y-74880134D01*
X101033820Y-74749657D01*
X101194657Y-74588820D01*
X101325134Y-74402482D01*
X101421265Y-74196326D01*
X101421269Y-74196317D01*
X101473872Y-74000000D01*
X100628686Y-74000000D01*
X100654493Y-73959844D01*
X100695000Y-73821889D01*
X100695000Y-73750000D01*
X101729659Y-73750000D01*
X101748975Y-73946129D01*
X101757708Y-73974917D01*
X101804137Y-74127974D01*
X101806188Y-74134733D01*
X101899086Y-74308532D01*
X101899090Y-74308539D01*
X102024116Y-74460883D01*
X102176460Y-74585909D01*
X102176467Y-74585913D01*
X102350266Y-74678811D01*
X102350269Y-74678811D01*
X102350273Y-74678814D01*
X102538868Y-74736024D01*
X102735000Y-74755341D01*
X102931132Y-74736024D01*
X103119727Y-74678814D01*
X103293538Y-74585910D01*
X103445883Y-74460883D01*
X103570910Y-74308538D01*
X103620831Y-74215142D01*
X103663811Y-74134733D01*
X103663811Y-74134732D01*
X103663814Y-74134727D01*
X103721024Y-73946132D01*
X103740341Y-73750000D01*
X103721024Y-73553868D01*
X103663814Y-73365273D01*
X103663811Y-73365269D01*
X103663811Y-73365266D01*
X103570913Y-73191467D01*
X103570909Y-73191460D01*
X103445883Y-73039116D01*
X103293539Y-72914090D01*
X103293532Y-72914086D01*
X103119733Y-72821188D01*
X103119727Y-72821186D01*
X102931132Y-72763976D01*
X102931129Y-72763975D01*
X102735000Y-72744659D01*
X102538870Y-72763975D01*
X102350266Y-72821188D01*
X102176467Y-72914086D01*
X102176460Y-72914090D01*
X102024116Y-73039116D01*
X101899090Y-73191460D01*
X101899086Y-73191467D01*
X101806188Y-73365266D01*
X101748975Y-73553870D01*
X101729659Y-73750000D01*
X100695000Y-73750000D01*
X100695000Y-73678111D01*
X100654493Y-73540156D01*
X100628686Y-73500000D01*
X101473872Y-73500000D01*
X101473872Y-73499999D01*
X101421269Y-73303682D01*
X101421265Y-73303673D01*
X101325134Y-73097517D01*
X101194657Y-72911179D01*
X101033820Y-72750342D01*
X100847482Y-72619865D01*
X100641328Y-72523734D01*
X100445000Y-72471127D01*
X100445000Y-73314498D01*
X100337315Y-73265320D01*
X100230763Y-73250000D01*
X100159237Y-73250000D01*
X100052685Y-73265320D01*
X99945000Y-73314498D01*
X99945000Y-72471127D01*
X99748671Y-72523734D01*
X99542517Y-72619865D01*
X99356179Y-72750342D01*
X99195342Y-72911179D01*
X99064865Y-73097517D01*
X98968734Y-73303673D01*
X98968730Y-73303682D01*
X98916127Y-73499999D01*
X93094209Y-73499999D01*
X94607390Y-71986819D01*
X94668714Y-71953334D01*
X94695072Y-71950500D01*
X106554928Y-71950500D01*
X106621967Y-71970185D01*
X106642609Y-71986819D01*
X106828181Y-72172391D01*
X106861666Y-72233714D01*
X106864500Y-72260072D01*
X106864500Y-73418366D01*
X106859161Y-73454361D01*
X106828975Y-73553869D01*
X106809659Y-73750000D01*
X106828975Y-73946129D01*
X106837708Y-73974917D01*
X106884137Y-74127974D01*
X106886188Y-74134733D01*
X106979086Y-74308532D01*
X106979090Y-74308539D01*
X107104116Y-74460883D01*
X107256460Y-74585909D01*
X107256467Y-74585913D01*
X107430266Y-74678811D01*
X107430269Y-74678811D01*
X107430273Y-74678814D01*
X107618868Y-74736024D01*
X107815000Y-74755341D01*
X108011132Y-74736024D01*
X108199727Y-74678814D01*
X108373538Y-74585910D01*
X108525883Y-74460883D01*
X108650910Y-74308538D01*
X108700831Y-74215142D01*
X108743811Y-74134733D01*
X108743811Y-74134732D01*
X108743814Y-74134727D01*
X108801024Y-73946132D01*
X108820341Y-73750000D01*
X108801024Y-73553868D01*
X108771316Y-73455934D01*
X108770839Y-73454361D01*
X108765500Y-73418366D01*
X108765500Y-71827823D01*
X108765520Y-71826252D01*
X108767644Y-71742458D01*
X108767643Y-71742457D01*
X108767644Y-71742454D01*
X108757382Y-71685206D01*
X108756728Y-71680539D01*
X108750845Y-71622680D01*
X108750844Y-71622674D01*
X108741132Y-71591723D01*
X108739262Y-71584105D01*
X108733539Y-71552172D01*
X108711955Y-71498140D01*
X108710387Y-71493735D01*
X108692974Y-71438232D01*
X108677232Y-71409872D01*
X108673862Y-71402776D01*
X108661831Y-71372654D01*
X108633224Y-71329249D01*
X108629826Y-71324093D01*
X108627391Y-71320075D01*
X108599159Y-71269209D01*
X108578024Y-71244590D01*
X108573299Y-71238324D01*
X108569576Y-71232675D01*
X108566336Y-71227757D01*
X108555453Y-71211243D01*
X108514332Y-71170122D01*
X108511128Y-71166666D01*
X108473240Y-71122532D01*
X108447590Y-71102677D01*
X108441696Y-71097486D01*
X107681149Y-70336939D01*
X107680091Y-70335853D01*
X107622324Y-70275082D01*
X107622320Y-70275079D01*
X107574567Y-70241841D01*
X107570833Y-70239025D01*
X107525751Y-70202266D01*
X107525747Y-70202264D01*
X107525746Y-70202263D01*
X107525745Y-70202262D01*
X107496997Y-70187246D01*
X107490277Y-70183174D01*
X107463659Y-70164647D01*
X107410209Y-70141710D01*
X107405952Y-70139688D01*
X107354409Y-70112764D01*
X107354407Y-70112763D01*
X107354406Y-70112763D01*
X107337689Y-70107979D01*
X107323221Y-70103839D01*
X107315822Y-70101205D01*
X107286011Y-70088412D01*
X107286012Y-70088412D01*
X107229038Y-70076703D01*
X107224463Y-70075580D01*
X107168556Y-70059583D01*
X107168545Y-70059582D01*
X107136208Y-70057120D01*
X107128428Y-70056029D01*
X107096657Y-70049500D01*
X107096656Y-70049500D01*
X107038497Y-70049500D01*
X107033790Y-70049321D01*
X107028850Y-70048944D01*
X106975798Y-70044904D01*
X106958176Y-70047149D01*
X106943614Y-70049003D01*
X106935785Y-70049500D01*
X94262840Y-70049500D01*
X94261278Y-70049480D01*
X94192064Y-70047726D01*
X94177455Y-70047356D01*
X94177450Y-70047356D01*
X94120212Y-70057614D01*
X94115548Y-70058268D01*
X94057685Y-70064154D01*
X94057681Y-70064154D01*
X94057679Y-70064155D01*
X94057676Y-70064155D01*
X94057671Y-70064157D01*
X94026733Y-70073864D01*
X94019106Y-70075735D01*
X93987176Y-70081458D01*
X93987171Y-70081460D01*
X93933149Y-70103037D01*
X93928714Y-70104616D01*
X93873229Y-70122027D01*
X93844874Y-70137763D01*
X93837785Y-70141130D01*
X93807648Y-70153170D01*
X93759084Y-70185177D01*
X93755055Y-70187618D01*
X93704207Y-70215841D01*
X93704202Y-70215845D01*
X93679596Y-70236969D01*
X93673326Y-70241697D01*
X93646242Y-70259547D01*
X93646241Y-70259548D01*
X93605120Y-70300668D01*
X93601666Y-70303869D01*
X93557531Y-70341760D01*
X93537674Y-70367412D01*
X93532483Y-70373305D01*
X91642609Y-72263181D01*
X91581286Y-72296666D01*
X91554928Y-72299500D01*
X87681285Y-72299500D01*
X87622831Y-72284858D01*
X87603956Y-72274769D01*
X87603955Y-72274768D01*
X87603954Y-72274768D01*
X87405934Y-72214700D01*
X87405932Y-72214699D01*
X87405934Y-72214699D01*
X87286805Y-72202966D01*
X87251608Y-72199500D01*
X86898392Y-72199500D01*
X86860298Y-72203251D01*
X86744067Y-72214699D01*
X86546043Y-72274769D01*
X86446737Y-72327850D01*
X86363550Y-72372315D01*
X86363548Y-72372316D01*
X86363547Y-72372317D01*
X86203589Y-72503589D01*
X86072317Y-72663547D01*
X85974769Y-72846043D01*
X85914699Y-73044067D01*
X85894417Y-73250000D01*
X84250500Y-73250000D01*
X84250500Y-68548473D01*
X84270185Y-68481434D01*
X84322989Y-68435679D01*
X84392147Y-68425735D01*
X84455703Y-68454760D01*
X84487573Y-68497578D01*
X84604455Y-68757279D01*
X84756841Y-69009356D01*
X84773473Y-69036868D01*
X84974954Y-69294039D01*
X85205960Y-69525045D01*
X85463131Y-69726526D01*
X85463134Y-69726528D01*
X85463137Y-69726530D01*
X85742721Y-69895545D01*
X86040639Y-70029627D01*
X86040652Y-70029631D01*
X86040657Y-70029633D01*
X86276221Y-70103037D01*
X86352547Y-70126821D01*
X86673896Y-70185710D01*
X87000000Y-70205436D01*
X87326104Y-70185710D01*
X87647453Y-70126821D01*
X87959361Y-70029627D01*
X88257279Y-69895545D01*
X88536863Y-69726530D01*
X88794036Y-69525048D01*
X89025048Y-69294036D01*
X89226530Y-69036863D01*
X89395545Y-68757279D01*
X89529627Y-68459361D01*
X89626821Y-68147453D01*
X89685710Y-67826104D01*
X89705436Y-67500000D01*
X89694850Y-67325000D01*
X100150000Y-67325000D01*
X101066314Y-67325000D01*
X101040507Y-67365156D01*
X101000000Y-67503111D01*
X101000000Y-67646889D01*
X101040507Y-67784844D01*
X101066314Y-67825000D01*
X100150001Y-67825000D01*
X100150001Y-68374986D01*
X100160494Y-68477697D01*
X100215641Y-68644119D01*
X100215643Y-68644124D01*
X100307684Y-68793345D01*
X100431654Y-68917315D01*
X100580875Y-69009356D01*
X100580880Y-69009358D01*
X100747302Y-69064505D01*
X100747309Y-69064506D01*
X100850019Y-69074999D01*
X101249999Y-69074999D01*
X101250000Y-69074998D01*
X101250000Y-68010501D01*
X101357685Y-68059680D01*
X101464237Y-68075000D01*
X101535763Y-68075000D01*
X101642315Y-68059680D01*
X101749999Y-68010501D01*
X101750000Y-69074999D01*
X102149972Y-69074999D01*
X102149986Y-69074998D01*
X102252697Y-69064505D01*
X102419119Y-69009358D01*
X102419124Y-69009356D01*
X102568345Y-68917315D01*
X102692315Y-68793345D01*
X102784356Y-68644124D01*
X102784358Y-68644119D01*
X102839505Y-68477697D01*
X102839506Y-68477690D01*
X102849999Y-68374986D01*
X102849999Y-68297022D01*
X102869683Y-68229982D01*
X102922486Y-68184226D01*
X102991645Y-68174282D01*
X103055201Y-68203306D01*
X103083356Y-68238565D01*
X103122315Y-68311451D01*
X103253589Y-68471410D01*
X103347492Y-68548473D01*
X103413550Y-68602685D01*
X103596046Y-68700232D01*
X103794066Y-68760300D01*
X103794065Y-68760300D01*
X103812529Y-68762118D01*
X104000000Y-68780583D01*
X104205934Y-68760300D01*
X104403954Y-68700232D01*
X104586450Y-68602685D01*
X104746410Y-68471410D01*
X104877685Y-68311450D01*
X104975232Y-68128954D01*
X105035300Y-67930934D01*
X105050500Y-67776608D01*
X105050500Y-67373392D01*
X105045734Y-67325000D01*
X113150000Y-67325000D01*
X114066314Y-67325000D01*
X114040507Y-67365156D01*
X114000000Y-67503111D01*
X114000000Y-67646889D01*
X114040507Y-67784844D01*
X114066314Y-67825000D01*
X113150001Y-67825000D01*
X113150001Y-68374986D01*
X113160494Y-68477697D01*
X113215641Y-68644119D01*
X113215643Y-68644124D01*
X113307684Y-68793345D01*
X113431654Y-68917315D01*
X113580875Y-69009356D01*
X113580880Y-69009358D01*
X113747302Y-69064505D01*
X113747309Y-69064506D01*
X113850019Y-69074999D01*
X114249999Y-69074999D01*
X114250000Y-69074998D01*
X114250000Y-68010501D01*
X114357685Y-68059680D01*
X114464237Y-68075000D01*
X114535763Y-68075000D01*
X114642315Y-68059680D01*
X114750000Y-68010501D01*
X114750000Y-69074999D01*
X115149972Y-69074999D01*
X115149986Y-69074998D01*
X115252697Y-69064505D01*
X115419119Y-69009358D01*
X115419124Y-69009356D01*
X115568345Y-68917315D01*
X115692315Y-68793345D01*
X115784356Y-68644124D01*
X115784358Y-68644119D01*
X115839505Y-68477697D01*
X115839506Y-68477690D01*
X115849999Y-68374986D01*
X115849999Y-68297022D01*
X115869683Y-68229982D01*
X115922486Y-68184226D01*
X115991645Y-68174282D01*
X116055201Y-68203306D01*
X116083356Y-68238565D01*
X116122315Y-68311451D01*
X116253589Y-68471410D01*
X116347492Y-68548473D01*
X116413550Y-68602685D01*
X116596046Y-68700232D01*
X116794066Y-68760300D01*
X116794065Y-68760300D01*
X116812529Y-68762118D01*
X117000000Y-68780583D01*
X117205934Y-68760300D01*
X117403954Y-68700232D01*
X117586450Y-68602685D01*
X117746410Y-68471410D01*
X117877685Y-68311450D01*
X117975232Y-68128954D01*
X118035300Y-67930934D01*
X118050500Y-67776608D01*
X118050500Y-67373392D01*
X118035300Y-67219066D01*
X117975232Y-67021046D01*
X117877685Y-66838550D01*
X117825541Y-66775012D01*
X117746410Y-66678589D01*
X117586452Y-66547317D01*
X117586453Y-66547317D01*
X117586450Y-66547315D01*
X117403954Y-66449768D01*
X117205934Y-66389700D01*
X117205932Y-66389699D01*
X117205934Y-66389699D01*
X117000000Y-66369417D01*
X116794067Y-66389699D01*
X116618692Y-66442898D01*
X116609223Y-66445771D01*
X116596043Y-66449769D01*
X116491078Y-66505875D01*
X116413550Y-66547315D01*
X116413548Y-66547316D01*
X116413547Y-66547317D01*
X116253589Y-66678589D01*
X116122317Y-66838547D01*
X116122315Y-66838550D01*
X116095788Y-66888179D01*
X116083357Y-66911435D01*
X116034394Y-66961279D01*
X115966256Y-66976739D01*
X115900577Y-66952907D01*
X115858208Y-66897349D01*
X115849999Y-66852981D01*
X115849999Y-66775028D01*
X115849998Y-66775012D01*
X115839505Y-66672302D01*
X115784358Y-66505880D01*
X115784356Y-66505875D01*
X115692315Y-66356654D01*
X115568345Y-66232684D01*
X115419124Y-66140643D01*
X115419119Y-66140641D01*
X115252697Y-66085494D01*
X115252690Y-66085493D01*
X115149986Y-66075000D01*
X114750000Y-66075000D01*
X114750000Y-67139498D01*
X114642315Y-67090320D01*
X114535763Y-67075000D01*
X114464237Y-67075000D01*
X114357685Y-67090320D01*
X114250000Y-67139498D01*
X114250000Y-66075000D01*
X113850028Y-66075000D01*
X113850012Y-66075001D01*
X113747302Y-66085494D01*
X113580880Y-66140641D01*
X113580875Y-66140643D01*
X113431654Y-66232684D01*
X113307684Y-66356654D01*
X113215643Y-66505875D01*
X113215641Y-66505880D01*
X113160494Y-66672302D01*
X113160493Y-66672309D01*
X113150000Y-66775013D01*
X113150000Y-67325000D01*
X105045734Y-67325000D01*
X105035300Y-67219066D01*
X104975232Y-67021046D01*
X104877685Y-66838550D01*
X104825541Y-66775012D01*
X104746410Y-66678589D01*
X104586452Y-66547317D01*
X104586453Y-66547317D01*
X104586450Y-66547315D01*
X104403954Y-66449768D01*
X104205934Y-66389700D01*
X104205932Y-66389699D01*
X104205934Y-66389699D01*
X104000000Y-66369417D01*
X103794067Y-66389699D01*
X103618692Y-66442898D01*
X103609223Y-66445771D01*
X103596043Y-66449769D01*
X103491078Y-66505875D01*
X103413550Y-66547315D01*
X103413548Y-66547316D01*
X103413547Y-66547317D01*
X103253589Y-66678589D01*
X103122317Y-66838547D01*
X103122315Y-66838550D01*
X103095788Y-66888179D01*
X103083357Y-66911435D01*
X103034394Y-66961279D01*
X102966256Y-66976739D01*
X102900577Y-66952907D01*
X102858208Y-66897349D01*
X102849999Y-66852981D01*
X102849999Y-66775028D01*
X102849998Y-66775012D01*
X102839505Y-66672302D01*
X102784358Y-66505880D01*
X102784356Y-66505875D01*
X102692315Y-66356654D01*
X102568345Y-66232684D01*
X102419124Y-66140643D01*
X102419119Y-66140641D01*
X102252697Y-66085494D01*
X102252690Y-66085493D01*
X102149986Y-66075000D01*
X101750000Y-66075000D01*
X101749999Y-67139498D01*
X101642315Y-67090320D01*
X101535763Y-67075000D01*
X101464237Y-67075000D01*
X101357685Y-67090320D01*
X101249999Y-67139498D01*
X101249999Y-66075000D01*
X100850028Y-66075000D01*
X100850012Y-66075001D01*
X100747302Y-66085494D01*
X100580880Y-66140641D01*
X100580875Y-66140643D01*
X100431654Y-66232684D01*
X100307684Y-66356654D01*
X100215643Y-66505875D01*
X100215641Y-66505880D01*
X100160494Y-66672302D01*
X100160493Y-66672309D01*
X100150000Y-66775013D01*
X100150000Y-67325000D01*
X89694850Y-67325000D01*
X89685710Y-67173896D01*
X89626821Y-66852547D01*
X89531708Y-66547317D01*
X89529633Y-66540657D01*
X89529631Y-66540652D01*
X89529627Y-66540639D01*
X89395545Y-66242721D01*
X89226530Y-65963137D01*
X89226528Y-65963134D01*
X89226526Y-65963131D01*
X89025045Y-65705960D01*
X88794039Y-65474954D01*
X88536868Y-65273473D01*
X88503440Y-65253265D01*
X88257279Y-65104455D01*
X87997581Y-64987574D01*
X87944528Y-64942112D01*
X87924476Y-64875181D01*
X87943792Y-64808035D01*
X87996344Y-64761990D01*
X88048474Y-64750500D01*
X130451526Y-64750500D01*
X130518565Y-64770185D01*
G37*
%TD.AperFunction*%
%TA.AperFunction,Conductor*%
G36*
X134202151Y-92101143D02*
G01*
X134242680Y-92158056D01*
X134249500Y-92198614D01*
X134249500Y-110951526D01*
X134229815Y-111018565D01*
X134177011Y-111064320D01*
X134107853Y-111074264D01*
X134044297Y-111045239D01*
X134012425Y-111002419D01*
X133895545Y-110742721D01*
X133726530Y-110463137D01*
X133726528Y-110463134D01*
X133726526Y-110463131D01*
X133525045Y-110205960D01*
X133294039Y-109974954D01*
X133036868Y-109773473D01*
X133029306Y-109768901D01*
X132757279Y-109604455D01*
X132459361Y-109470373D01*
X132459354Y-109470370D01*
X132459342Y-109470366D01*
X132147452Y-109373178D01*
X131826099Y-109314289D01*
X131500000Y-109294564D01*
X131173900Y-109314289D01*
X130852547Y-109373178D01*
X130540657Y-109470366D01*
X130540641Y-109470372D01*
X130540639Y-109470373D01*
X130352057Y-109555247D01*
X130242725Y-109604453D01*
X130242723Y-109604454D01*
X129963131Y-109773473D01*
X129705960Y-109974954D01*
X129474954Y-110205960D01*
X129273473Y-110463131D01*
X129181560Y-110615174D01*
X129107026Y-110738469D01*
X129104454Y-110742723D01*
X129104453Y-110742725D01*
X129070615Y-110817910D01*
X128976332Y-111027400D01*
X128970372Y-111040642D01*
X128970366Y-111040657D01*
X128873178Y-111352547D01*
X128814289Y-111673900D01*
X128794564Y-112000000D01*
X128814289Y-112326099D01*
X128873178Y-112647452D01*
X128970366Y-112959342D01*
X128970370Y-112959354D01*
X128970373Y-112959361D01*
X129104455Y-113257279D01*
X129190732Y-113399998D01*
X129273473Y-113536868D01*
X129474954Y-113794039D01*
X129705960Y-114025045D01*
X129963131Y-114226526D01*
X129963134Y-114226528D01*
X129963137Y-114226530D01*
X130242721Y-114395545D01*
X130502418Y-114512425D01*
X130555472Y-114557888D01*
X130575524Y-114624819D01*
X130556208Y-114691965D01*
X130503656Y-114738010D01*
X130451526Y-114749500D01*
X107160187Y-114749500D01*
X107093148Y-114729815D01*
X107047393Y-114677011D01*
X107037449Y-114607853D01*
X107066474Y-114544297D01*
X107072506Y-114537819D01*
X108702223Y-112908102D01*
X110518204Y-111092120D01*
X110522166Y-111088489D01*
X110553194Y-111062455D01*
X110573438Y-111027390D01*
X110576335Y-111022841D01*
X110599554Y-110989684D01*
X110599554Y-110989681D01*
X110601819Y-110984824D01*
X110608747Y-110968099D01*
X110610584Y-110963050D01*
X110610588Y-110963045D01*
X110617619Y-110923162D01*
X110618777Y-110917940D01*
X110629264Y-110878807D01*
X110625733Y-110838453D01*
X110625499Y-110833097D01*
X110625499Y-107116186D01*
X110645184Y-107049148D01*
X110661818Y-107028506D01*
X110937718Y-106752606D01*
X111238455Y-106451869D01*
X111299774Y-106418387D01*
X111362126Y-106420892D01*
X111543868Y-106476024D01*
X111740000Y-106495341D01*
X111936132Y-106476024D01*
X112124727Y-106418814D01*
X112298538Y-106325910D01*
X112450883Y-106200883D01*
X112575910Y-106048538D01*
X112647313Y-105914952D01*
X112668811Y-105874733D01*
X112668811Y-105874732D01*
X112668814Y-105874727D01*
X112726024Y-105686132D01*
X112745341Y-105490000D01*
X113274659Y-105490000D01*
X113293975Y-105686129D01*
X113351188Y-105874733D01*
X113444086Y-106048532D01*
X113444090Y-106048539D01*
X113569116Y-106200883D01*
X113721460Y-106325909D01*
X113721467Y-106325913D01*
X113895266Y-106418811D01*
X113895269Y-106418811D01*
X113895273Y-106418814D01*
X114083868Y-106476024D01*
X114280000Y-106495341D01*
X114476132Y-106476024D01*
X114664727Y-106418814D01*
X114838538Y-106325910D01*
X114990883Y-106200883D01*
X115004645Y-106184113D01*
X115062392Y-106144778D01*
X115132236Y-106142907D01*
X115192005Y-106179094D01*
X115222721Y-106241850D01*
X115224500Y-106262777D01*
X115224500Y-110733078D01*
X115224264Y-110738485D01*
X115220735Y-110778808D01*
X115231212Y-110817910D01*
X115232383Y-110823190D01*
X115239411Y-110863043D01*
X115241235Y-110868055D01*
X115248197Y-110884861D01*
X115250445Y-110889681D01*
X115250446Y-110889684D01*
X115264452Y-110909687D01*
X115273655Y-110922831D01*
X115276561Y-110927392D01*
X115296806Y-110962455D01*
X115327815Y-110988475D01*
X115331805Y-110992131D01*
X116482863Y-112143189D01*
X116486518Y-112147178D01*
X116512541Y-112178190D01*
X116512543Y-112178191D01*
X116512545Y-112178194D01*
X116512547Y-112178195D01*
X116512548Y-112178196D01*
X116547599Y-112198433D01*
X116552163Y-112201340D01*
X116576798Y-112218590D01*
X116585316Y-112224554D01*
X116585319Y-112224554D01*
X116590176Y-112226820D01*
X116606933Y-112233760D01*
X116611950Y-112235586D01*
X116611952Y-112235586D01*
X116611955Y-112235588D01*
X116651818Y-112242616D01*
X116657076Y-112243782D01*
X116696193Y-112254264D01*
X116736518Y-112250735D01*
X116741922Y-112250500D01*
X117121087Y-112250500D01*
X117188126Y-112270185D01*
X117233881Y-112322989D01*
X117239744Y-112338496D01*
X117274768Y-112453954D01*
X117372315Y-112636450D01*
X117381344Y-112647452D01*
X117503589Y-112796410D01*
X117600209Y-112875702D01*
X117663550Y-112927685D01*
X117846046Y-113025232D01*
X118044066Y-113085300D01*
X118044065Y-113085300D01*
X118062529Y-113087118D01*
X118250000Y-113105583D01*
X118455934Y-113085300D01*
X118653954Y-113025232D01*
X118836450Y-112927685D01*
X118996410Y-112796410D01*
X119127685Y-112636450D01*
X119225232Y-112453954D01*
X119285300Y-112255934D01*
X119300500Y-112101608D01*
X119699500Y-112101608D01*
X119703785Y-112145112D01*
X119714699Y-112255932D01*
X119739747Y-112338505D01*
X119774768Y-112453954D01*
X119872315Y-112636450D01*
X119881344Y-112647452D01*
X120003589Y-112796410D01*
X120100209Y-112875702D01*
X120163550Y-112927685D01*
X120346046Y-113025232D01*
X120544066Y-113085300D01*
X120544065Y-113085300D01*
X120564347Y-113087297D01*
X120750000Y-113105583D01*
X120955934Y-113085300D01*
X121153954Y-113025232D01*
X121336450Y-112927685D01*
X121496410Y-112796410D01*
X121627685Y-112636450D01*
X121725232Y-112453954D01*
X121785300Y-112255934D01*
X121800500Y-112101608D01*
X122199500Y-112101608D01*
X122203785Y-112145112D01*
X122214699Y-112255932D01*
X122239747Y-112338505D01*
X122274768Y-112453954D01*
X122372315Y-112636450D01*
X122381344Y-112647452D01*
X122503589Y-112796410D01*
X122600209Y-112875702D01*
X122663550Y-112927685D01*
X122846046Y-113025232D01*
X123044066Y-113085300D01*
X123044065Y-113085300D01*
X123064347Y-113087297D01*
X123250000Y-113105583D01*
X123455934Y-113085300D01*
X123653954Y-113025232D01*
X123836450Y-112927685D01*
X123996410Y-112796410D01*
X124127685Y-112636450D01*
X124166644Y-112563562D01*
X124215603Y-112513721D01*
X124283741Y-112498260D01*
X124349421Y-112522091D01*
X124391790Y-112577648D01*
X124400000Y-112622016D01*
X124400000Y-112699970D01*
X124400001Y-112699987D01*
X124410494Y-112802697D01*
X124465641Y-112969119D01*
X124465643Y-112969124D01*
X124557684Y-113118345D01*
X124681654Y-113242315D01*
X124830875Y-113334356D01*
X124830880Y-113334358D01*
X124997302Y-113389505D01*
X124997309Y-113389506D01*
X125100019Y-113399999D01*
X125499999Y-113399999D01*
X125500000Y-113399998D01*
X125500000Y-112333018D01*
X125614801Y-112385446D01*
X125716025Y-112400000D01*
X125783975Y-112400000D01*
X125885199Y-112385446D01*
X125999999Y-112333018D01*
X125999999Y-113399998D01*
X126000000Y-113399999D01*
X126399972Y-113399999D01*
X126399986Y-113399998D01*
X126502697Y-113389505D01*
X126669119Y-113334358D01*
X126669124Y-113334356D01*
X126818345Y-113242315D01*
X126942315Y-113118345D01*
X127034356Y-112969124D01*
X127034358Y-112969119D01*
X127089505Y-112802697D01*
X127089506Y-112802690D01*
X127099999Y-112699986D01*
X127100000Y-112699973D01*
X127100000Y-112175000D01*
X126153969Y-112175000D01*
X126186519Y-112124351D01*
X126225000Y-111993295D01*
X126225000Y-111856705D01*
X126186519Y-111725649D01*
X126153969Y-111675000D01*
X127099999Y-111675000D01*
X127099999Y-111150028D01*
X127099998Y-111150013D01*
X127089505Y-111047302D01*
X127034358Y-110880880D01*
X127034356Y-110880875D01*
X126942315Y-110731654D01*
X126818345Y-110607684D01*
X126669124Y-110515643D01*
X126669119Y-110515641D01*
X126502697Y-110460494D01*
X126502690Y-110460493D01*
X126399986Y-110450000D01*
X126000000Y-110450000D01*
X125999999Y-111516981D01*
X125885199Y-111464554D01*
X125783975Y-111450000D01*
X125716025Y-111450000D01*
X125614801Y-111464554D01*
X125500000Y-111516981D01*
X125500000Y-110450000D01*
X125100028Y-110450000D01*
X125100012Y-110450001D01*
X124997302Y-110460494D01*
X124830880Y-110515641D01*
X124830875Y-110515643D01*
X124681654Y-110607684D01*
X124557684Y-110731654D01*
X124465643Y-110880875D01*
X124465641Y-110880880D01*
X124410494Y-111047302D01*
X124410493Y-111047309D01*
X124400000Y-111150013D01*
X124400000Y-111227979D01*
X124380315Y-111295018D01*
X124327511Y-111340773D01*
X124258353Y-111350717D01*
X124194797Y-111321692D01*
X124166642Y-111286433D01*
X124147435Y-111250500D01*
X124127685Y-111213550D01*
X124026466Y-111090213D01*
X123996410Y-111053589D01*
X123842636Y-110927392D01*
X123836450Y-110922315D01*
X123653954Y-110824768D01*
X123455934Y-110764700D01*
X123455932Y-110764699D01*
X123455934Y-110764699D01*
X123268463Y-110746235D01*
X123250000Y-110744417D01*
X123249999Y-110744417D01*
X123044067Y-110764699D01*
X122868692Y-110817898D01*
X122860034Y-110820525D01*
X122846043Y-110824769D01*
X122744951Y-110878805D01*
X122663550Y-110922315D01*
X122663548Y-110922316D01*
X122663547Y-110922317D01*
X122503589Y-111053589D01*
X122372317Y-111213547D01*
X122372315Y-111213550D01*
X122352565Y-111250500D01*
X122274769Y-111396043D01*
X122214699Y-111594067D01*
X122203251Y-111710298D01*
X122199500Y-111748392D01*
X122199500Y-112101608D01*
X121800500Y-112101608D01*
X121800500Y-111748392D01*
X121785300Y-111594066D01*
X121725232Y-111396046D01*
X121627685Y-111213550D01*
X121526466Y-111090213D01*
X121496410Y-111053589D01*
X121342636Y-110927392D01*
X121336450Y-110922315D01*
X121153954Y-110824768D01*
X120955934Y-110764700D01*
X120955932Y-110764699D01*
X120955934Y-110764699D01*
X120750000Y-110744417D01*
X120544067Y-110764699D01*
X120368692Y-110817898D01*
X120360034Y-110820525D01*
X120346043Y-110824769D01*
X120244951Y-110878805D01*
X120163550Y-110922315D01*
X120163548Y-110922316D01*
X120163547Y-110922317D01*
X120003589Y-111053589D01*
X119872317Y-111213547D01*
X119872315Y-111213550D01*
X119852565Y-111250500D01*
X119774769Y-111396043D01*
X119714699Y-111594067D01*
X119703251Y-111710298D01*
X119699500Y-111748392D01*
X119699500Y-112101608D01*
X119300500Y-112101608D01*
X119300500Y-111748392D01*
X119285300Y-111594066D01*
X119225232Y-111396046D01*
X119127685Y-111213550D01*
X119026466Y-111090213D01*
X118996410Y-111053589D01*
X118842636Y-110927392D01*
X118836450Y-110922315D01*
X118653954Y-110824768D01*
X118455934Y-110764700D01*
X118455932Y-110764699D01*
X118455934Y-110764699D01*
X118268463Y-110746235D01*
X118250000Y-110744417D01*
X118249999Y-110744417D01*
X118044067Y-110764699D01*
X117868692Y-110817898D01*
X117860034Y-110820525D01*
X117846043Y-110824769D01*
X117744951Y-110878805D01*
X117663550Y-110922315D01*
X117663548Y-110922316D01*
X117663547Y-110922317D01*
X117503589Y-111053589D01*
X117372317Y-111213547D01*
X117372315Y-111213550D01*
X117352565Y-111250500D01*
X117274769Y-111396043D01*
X117274768Y-111396045D01*
X117274768Y-111396046D01*
X117239746Y-111511496D01*
X117201451Y-111569934D01*
X117137638Y-111598390D01*
X117121087Y-111599500D01*
X116911188Y-111599500D01*
X116844149Y-111579815D01*
X116823507Y-111563181D01*
X115911819Y-110651493D01*
X115878334Y-110590170D01*
X115875500Y-110563812D01*
X115875500Y-106262777D01*
X115895185Y-106195738D01*
X115947989Y-106149983D01*
X116017147Y-106140039D01*
X116080703Y-106169064D01*
X116095354Y-106184113D01*
X116109117Y-106200883D01*
X116261460Y-106325909D01*
X116261467Y-106325913D01*
X116435266Y-106418811D01*
X116435269Y-106418811D01*
X116435273Y-106418814D01*
X116623868Y-106476024D01*
X116820000Y-106495341D01*
X117016132Y-106476024D01*
X117204727Y-106418814D01*
X117378538Y-106325910D01*
X117530883Y-106200883D01*
X117655910Y-106048538D01*
X117727313Y-105914952D01*
X117748811Y-105874733D01*
X117748811Y-105874732D01*
X117748814Y-105874727D01*
X117806024Y-105686132D01*
X117825341Y-105490000D01*
X117806024Y-105293868D01*
X117789683Y-105239999D01*
X118081127Y-105239999D01*
X118081128Y-105240000D01*
X118926314Y-105240000D01*
X118900507Y-105280156D01*
X118860000Y-105418111D01*
X118860000Y-105561889D01*
X118900507Y-105699844D01*
X118926314Y-105740000D01*
X118081128Y-105740000D01*
X118133730Y-105936317D01*
X118133734Y-105936326D01*
X118229865Y-106142482D01*
X118360342Y-106328820D01*
X118521179Y-106489657D01*
X118707517Y-106620134D01*
X118913673Y-106716265D01*
X118913682Y-106716269D01*
X119109999Y-106768872D01*
X119110000Y-106768871D01*
X119110000Y-105925501D01*
X119217685Y-105974680D01*
X119324237Y-105990000D01*
X119395763Y-105990000D01*
X119502315Y-105974680D01*
X119610000Y-105925501D01*
X119610000Y-106768872D01*
X119806317Y-106716269D01*
X119806326Y-106716265D01*
X120012482Y-106620134D01*
X120198820Y-106489657D01*
X120359657Y-106328820D01*
X120490134Y-106142482D01*
X120586265Y-105936326D01*
X120586269Y-105936317D01*
X120638872Y-105740000D01*
X119793686Y-105740000D01*
X119819493Y-105699844D01*
X119860000Y-105561889D01*
X119860000Y-105490000D01*
X120894659Y-105490000D01*
X120913975Y-105686129D01*
X120971188Y-105874733D01*
X121064086Y-106048532D01*
X121064090Y-106048539D01*
X121189116Y-106200883D01*
X121341460Y-106325909D01*
X121341467Y-106325913D01*
X121515266Y-106418811D01*
X121515269Y-106418811D01*
X121515273Y-106418814D01*
X121703868Y-106476024D01*
X121900000Y-106495341D01*
X122096132Y-106476024D01*
X122284727Y-106418814D01*
X122458538Y-106325910D01*
X122610883Y-106200883D01*
X122735910Y-106048538D01*
X122807313Y-105914952D01*
X122828811Y-105874733D01*
X122828811Y-105874732D01*
X122828814Y-105874727D01*
X122886024Y-105686132D01*
X122905341Y-105490000D01*
X122886024Y-105293868D01*
X122828814Y-105105273D01*
X122828811Y-105105269D01*
X122828811Y-105105266D01*
X122735913Y-104931467D01*
X122735909Y-104931460D01*
X122610883Y-104779116D01*
X122458539Y-104654090D01*
X122458532Y-104654086D01*
X122284733Y-104561188D01*
X122284727Y-104561186D01*
X122096132Y-104503976D01*
X122096129Y-104503975D01*
X121900000Y-104484659D01*
X121703870Y-104503975D01*
X121515266Y-104561188D01*
X121341467Y-104654086D01*
X121341460Y-104654090D01*
X121189116Y-104779116D01*
X121064090Y-104931460D01*
X121064086Y-104931467D01*
X120971188Y-105105266D01*
X120913975Y-105293870D01*
X120894659Y-105490000D01*
X119860000Y-105490000D01*
X119860000Y-105418111D01*
X119819493Y-105280156D01*
X119793686Y-105240000D01*
X120638872Y-105240000D01*
X120638872Y-105239999D01*
X120586269Y-105043682D01*
X120586265Y-105043673D01*
X120490134Y-104837517D01*
X120359657Y-104651179D01*
X120198820Y-104490342D01*
X120012482Y-104359865D01*
X119806328Y-104263734D01*
X119610000Y-104211127D01*
X119610000Y-105054498D01*
X119502315Y-105005320D01*
X119395763Y-104990000D01*
X119324237Y-104990000D01*
X119217685Y-105005320D01*
X119109999Y-105054498D01*
X119109999Y-104211127D01*
X118913671Y-104263734D01*
X118707517Y-104359865D01*
X118521179Y-104490342D01*
X118360342Y-104651179D01*
X118229865Y-104837517D01*
X118133734Y-105043673D01*
X118133730Y-105043682D01*
X118081127Y-105239999D01*
X117789683Y-105239999D01*
X117748814Y-105105273D01*
X117748811Y-105105269D01*
X117748811Y-105105266D01*
X117655913Y-104931467D01*
X117655909Y-104931460D01*
X117530883Y-104779116D01*
X117378539Y-104654090D01*
X117378532Y-104654086D01*
X117204733Y-104561188D01*
X117204727Y-104561186D01*
X117016132Y-104503976D01*
X117016129Y-104503975D01*
X116820000Y-104484659D01*
X116623870Y-104503975D01*
X116435266Y-104561188D01*
X116261467Y-104654086D01*
X116261460Y-104654090D01*
X116109115Y-104779117D01*
X116095352Y-104795888D01*
X116037605Y-104835222D01*
X115967761Y-104837091D01*
X115907993Y-104800903D01*
X115877278Y-104738146D01*
X115875500Y-104717222D01*
X115875500Y-103984794D01*
X115895185Y-103917755D01*
X115941047Y-103875436D01*
X116108532Y-103785913D01*
X116108538Y-103785910D01*
X116260883Y-103660883D01*
X116385910Y-103508538D01*
X116478814Y-103334727D01*
X116536024Y-103146132D01*
X116555341Y-102950000D01*
X116536024Y-102753868D01*
X116478814Y-102565273D01*
X116478811Y-102565269D01*
X116478811Y-102565266D01*
X116385913Y-102391467D01*
X116385909Y-102391460D01*
X116260883Y-102239116D01*
X116108539Y-102114090D01*
X116108532Y-102114086D01*
X115941046Y-102024563D01*
X115891202Y-101975601D01*
X115875500Y-101915208D01*
X115875500Y-100284790D01*
X115895184Y-100217755D01*
X115941042Y-100175438D01*
X116108538Y-100085910D01*
X116260883Y-99960883D01*
X116385910Y-99808538D01*
X116478814Y-99634727D01*
X116536024Y-99446132D01*
X116555341Y-99250000D01*
X116536024Y-99053868D01*
X116478814Y-98865273D01*
X116478811Y-98865269D01*
X116478811Y-98865266D01*
X116385913Y-98691467D01*
X116385909Y-98691460D01*
X116260883Y-98539116D01*
X116108539Y-98414090D01*
X116108532Y-98414086D01*
X115934733Y-98321188D01*
X115934727Y-98321186D01*
X115746132Y-98263976D01*
X115746129Y-98263975D01*
X115550000Y-98244659D01*
X115353870Y-98263975D01*
X115165266Y-98321188D01*
X114991467Y-98414086D01*
X114991460Y-98414090D01*
X114839116Y-98539116D01*
X114714090Y-98691460D01*
X114714086Y-98691467D01*
X114621188Y-98865266D01*
X114563975Y-99053870D01*
X114544659Y-99250000D01*
X114563975Y-99446129D01*
X114621188Y-99634733D01*
X114714086Y-99808532D01*
X114714090Y-99808539D01*
X114839116Y-99960883D01*
X114991460Y-100085909D01*
X114991467Y-100085913D01*
X115158953Y-100175436D01*
X115208797Y-100224398D01*
X115224500Y-100284794D01*
X115224500Y-101915205D01*
X115204815Y-101982244D01*
X115158953Y-102024563D01*
X114991467Y-102114085D01*
X114991460Y-102114090D01*
X114839116Y-102239116D01*
X114714090Y-102391460D01*
X114714086Y-102391467D01*
X114621188Y-102565266D01*
X114563975Y-102753870D01*
X114544659Y-102950000D01*
X114563975Y-103146129D01*
X114621188Y-103334733D01*
X114714086Y-103508532D01*
X114714090Y-103508539D01*
X114839116Y-103660883D01*
X114991460Y-103785909D01*
X114991467Y-103785913D01*
X115158952Y-103875436D01*
X115208796Y-103924398D01*
X115224499Y-103984794D01*
X115224499Y-104717222D01*
X115204814Y-104784261D01*
X115152010Y-104830016D01*
X115082852Y-104839960D01*
X115019296Y-104810935D01*
X115004645Y-104795886D01*
X114990882Y-104779115D01*
X114838539Y-104654090D01*
X114838532Y-104654086D01*
X114664733Y-104561188D01*
X114664727Y-104561186D01*
X114476132Y-104503976D01*
X114476129Y-104503975D01*
X114280000Y-104484659D01*
X114083870Y-104503975D01*
X113895266Y-104561188D01*
X113721467Y-104654086D01*
X113721460Y-104654090D01*
X113569116Y-104779116D01*
X113444090Y-104931460D01*
X113444086Y-104931467D01*
X113351188Y-105105266D01*
X113293975Y-105293870D01*
X113274659Y-105490000D01*
X112745341Y-105490000D01*
X112726024Y-105293868D01*
X112668814Y-105105273D01*
X112668811Y-105105269D01*
X112668811Y-105105266D01*
X112575913Y-104931467D01*
X112575909Y-104931460D01*
X112450883Y-104779116D01*
X112298539Y-104654090D01*
X112298532Y-104654086D01*
X112124733Y-104561188D01*
X112124727Y-104561186D01*
X111936132Y-104503976D01*
X111936129Y-104503975D01*
X111740000Y-104484659D01*
X111543870Y-104503975D01*
X111355266Y-104561188D01*
X111181467Y-104654086D01*
X111181460Y-104654090D01*
X111029116Y-104779116D01*
X110904090Y-104931460D01*
X110904086Y-104931467D01*
X110811188Y-105105266D01*
X110753975Y-105293870D01*
X110734659Y-105490000D01*
X110753975Y-105686130D01*
X110809106Y-105867870D01*
X110809729Y-105937736D01*
X110778126Y-105991546D01*
X110081803Y-106687870D01*
X110077814Y-106691525D01*
X110046805Y-106717545D01*
X110026562Y-106752606D01*
X110023656Y-106757166D01*
X110000446Y-106790313D01*
X109998206Y-106795117D01*
X109991229Y-106811961D01*
X109989410Y-106816959D01*
X109982383Y-106856811D01*
X109981212Y-106862091D01*
X109970735Y-106901191D01*
X109974264Y-106941513D01*
X109974500Y-106946920D01*
X109974500Y-110663812D01*
X109954815Y-110730851D01*
X109938181Y-110751493D01*
X106601493Y-114088181D01*
X106540170Y-114121666D01*
X106513812Y-114124500D01*
X97184248Y-114124500D01*
X97117209Y-114104815D01*
X97071454Y-114052011D01*
X97061510Y-113982853D01*
X97090535Y-113919297D01*
X97125794Y-113891142D01*
X97216450Y-113842685D01*
X97376410Y-113711410D01*
X97507685Y-113551450D01*
X97605232Y-113368954D01*
X97665300Y-113170934D01*
X97685583Y-112965000D01*
X97665300Y-112759066D01*
X97605232Y-112561046D01*
X97507685Y-112378550D01*
X97384268Y-112228165D01*
X97356955Y-112163855D01*
X97368746Y-112094987D01*
X97415898Y-112043427D01*
X97480121Y-112025500D01*
X107983078Y-112025500D01*
X107988481Y-112025735D01*
X108028807Y-112029264D01*
X108067940Y-112018777D01*
X108073162Y-112017619D01*
X108113045Y-112010588D01*
X108113050Y-112010584D01*
X108118099Y-112008747D01*
X108134824Y-112001819D01*
X108139681Y-111999554D01*
X108139684Y-111999554D01*
X108172841Y-111976335D01*
X108177390Y-111973438D01*
X108212455Y-111953194D01*
X108238481Y-111922176D01*
X108242122Y-111918202D01*
X109418210Y-110742115D01*
X109422172Y-110738484D01*
X109453194Y-110712455D01*
X109473444Y-110677379D01*
X109476328Y-110672852D01*
X109499554Y-110639684D01*
X109499554Y-110639681D01*
X109501819Y-110634824D01*
X109508747Y-110618099D01*
X109510587Y-110613046D01*
X109510588Y-110613045D01*
X109517621Y-110573150D01*
X109518777Y-110567937D01*
X109529263Y-110528807D01*
X109525735Y-110488489D01*
X109525500Y-110483086D01*
X109525500Y-106524794D01*
X109545185Y-106457755D01*
X109591047Y-106415436D01*
X109663371Y-106376778D01*
X109758538Y-106325910D01*
X109910883Y-106200883D01*
X110035910Y-106048538D01*
X110107313Y-105914952D01*
X110128811Y-105874733D01*
X110128811Y-105874732D01*
X110128814Y-105874727D01*
X110186024Y-105686132D01*
X110205341Y-105490000D01*
X110186024Y-105293868D01*
X110128814Y-105105273D01*
X110128811Y-105105269D01*
X110128811Y-105105266D01*
X110035913Y-104931467D01*
X110035909Y-104931460D01*
X109910883Y-104779116D01*
X109758539Y-104654090D01*
X109758532Y-104654086D01*
X109584733Y-104561188D01*
X109584727Y-104561186D01*
X109396132Y-104503976D01*
X109396129Y-104503975D01*
X109200000Y-104484659D01*
X109003870Y-104503975D01*
X108815266Y-104561188D01*
X108641467Y-104654086D01*
X108641460Y-104654090D01*
X108489116Y-104779116D01*
X108364090Y-104931460D01*
X108364086Y-104931467D01*
X108271188Y-105105266D01*
X108213975Y-105293870D01*
X108194659Y-105490000D01*
X108213975Y-105686129D01*
X108271188Y-105874733D01*
X108364086Y-106048532D01*
X108364090Y-106048539D01*
X108489116Y-106200883D01*
X108641460Y-106325909D01*
X108641467Y-106325913D01*
X108808953Y-106415436D01*
X108858797Y-106464398D01*
X108874500Y-106524794D01*
X108874500Y-110313811D01*
X108854815Y-110380850D01*
X108838181Y-110401492D01*
X107901493Y-111338181D01*
X107840170Y-111371666D01*
X107813812Y-111374500D01*
X101424500Y-111374500D01*
X101357461Y-111354815D01*
X101311706Y-111302011D01*
X101300500Y-111250500D01*
X101300500Y-109555249D01*
X101300499Y-109555247D01*
X101288868Y-109496770D01*
X101288867Y-109496769D01*
X101244552Y-109430447D01*
X101178230Y-109386132D01*
X101178229Y-109386131D01*
X101119752Y-109374500D01*
X101119748Y-109374500D01*
X100699500Y-109374500D01*
X100632461Y-109354815D01*
X100586706Y-109302011D01*
X100575500Y-109250500D01*
X100575500Y-108916920D01*
X100575736Y-108911513D01*
X100579264Y-108871193D01*
X100568782Y-108832076D01*
X100567616Y-108826818D01*
X100560588Y-108786955D01*
X100560586Y-108786952D01*
X100560586Y-108786950D01*
X100558760Y-108781933D01*
X100551820Y-108765176D01*
X100549554Y-108760319D01*
X100549554Y-108760316D01*
X100526339Y-108727162D01*
X100523433Y-108722599D01*
X100503196Y-108687548D01*
X100503195Y-108687547D01*
X100503194Y-108687545D01*
X100472177Y-108661518D01*
X100468193Y-108657867D01*
X100013516Y-108203190D01*
X99542119Y-107731793D01*
X99538474Y-107727814D01*
X99512456Y-107696807D01*
X99512455Y-107696806D01*
X99501058Y-107690226D01*
X99477392Y-107676561D01*
X99472831Y-107673655D01*
X99454167Y-107660587D01*
X99439684Y-107650446D01*
X99439681Y-107650445D01*
X99434861Y-107648197D01*
X99418055Y-107641235D01*
X99413043Y-107639411D01*
X99373190Y-107632383D01*
X99367910Y-107631212D01*
X99328808Y-107620735D01*
X99293892Y-107623790D01*
X99288481Y-107624264D01*
X99283078Y-107624500D01*
X98936188Y-107624500D01*
X98869149Y-107604815D01*
X98848507Y-107588181D01*
X98111819Y-106851493D01*
X98078334Y-106790170D01*
X98075500Y-106763812D01*
X98075500Y-106238407D01*
X98095185Y-106171368D01*
X98147989Y-106125613D01*
X98217147Y-106115669D01*
X98280703Y-106144694D01*
X98295353Y-106159742D01*
X98329116Y-106200883D01*
X98481460Y-106325909D01*
X98481467Y-106325913D01*
X98655266Y-106418811D01*
X98655269Y-106418811D01*
X98655273Y-106418814D01*
X98843868Y-106476024D01*
X99040000Y-106495341D01*
X99236132Y-106476024D01*
X99424727Y-106418814D01*
X99598538Y-106325910D01*
X99750883Y-106200883D01*
X99875910Y-106048538D01*
X99947313Y-105914952D01*
X99968811Y-105874733D01*
X99968811Y-105874732D01*
X99968814Y-105874727D01*
X100026024Y-105686132D01*
X100045341Y-105490000D01*
X100574659Y-105490000D01*
X100593975Y-105686129D01*
X100651188Y-105874733D01*
X100744086Y-106048532D01*
X100744090Y-106048539D01*
X100869116Y-106200883D01*
X101021460Y-106325909D01*
X101021467Y-106325913D01*
X101195266Y-106418811D01*
X101195269Y-106418811D01*
X101195273Y-106418814D01*
X101383868Y-106476024D01*
X101580000Y-106495341D01*
X101776132Y-106476024D01*
X101964727Y-106418814D01*
X102138538Y-106325910D01*
X102290883Y-106200883D01*
X102415910Y-106048538D01*
X102487313Y-105914952D01*
X102508811Y-105874733D01*
X102508811Y-105874732D01*
X102508814Y-105874727D01*
X102566024Y-105686132D01*
X102585341Y-105490000D01*
X103114659Y-105490000D01*
X103133975Y-105686129D01*
X103191188Y-105874733D01*
X103284086Y-106048532D01*
X103284090Y-106048539D01*
X103409116Y-106200883D01*
X103561460Y-106325909D01*
X103561467Y-106325913D01*
X103735266Y-106418811D01*
X103735269Y-106418811D01*
X103735273Y-106418814D01*
X103923868Y-106476024D01*
X104120000Y-106495341D01*
X104316132Y-106476024D01*
X104504727Y-106418814D01*
X104678538Y-106325910D01*
X104830883Y-106200883D01*
X104955910Y-106048538D01*
X105027313Y-105914952D01*
X105048811Y-105874733D01*
X105048811Y-105874732D01*
X105048814Y-105874727D01*
X105106024Y-105686132D01*
X105125341Y-105490000D01*
X105654659Y-105490000D01*
X105673975Y-105686129D01*
X105731188Y-105874733D01*
X105824086Y-106048532D01*
X105824090Y-106048539D01*
X105949116Y-106200883D01*
X106101460Y-106325909D01*
X106101467Y-106325913D01*
X106275266Y-106418811D01*
X106275269Y-106418811D01*
X106275273Y-106418814D01*
X106463868Y-106476024D01*
X106660000Y-106495341D01*
X106856132Y-106476024D01*
X107044727Y-106418814D01*
X107218538Y-106325910D01*
X107370883Y-106200883D01*
X107495910Y-106048538D01*
X107567313Y-105914952D01*
X107588811Y-105874733D01*
X107588811Y-105874732D01*
X107588814Y-105874727D01*
X107646024Y-105686132D01*
X107665341Y-105490000D01*
X107646024Y-105293868D01*
X107588814Y-105105273D01*
X107588811Y-105105269D01*
X107588811Y-105105266D01*
X107495913Y-104931467D01*
X107495909Y-104931460D01*
X107370883Y-104779116D01*
X107218539Y-104654090D01*
X107218532Y-104654086D01*
X107044733Y-104561188D01*
X107044727Y-104561186D01*
X106856132Y-104503976D01*
X106856129Y-104503975D01*
X106660000Y-104484659D01*
X106463870Y-104503975D01*
X106275266Y-104561188D01*
X106101467Y-104654086D01*
X106101460Y-104654090D01*
X105949116Y-104779116D01*
X105824090Y-104931460D01*
X105824086Y-104931467D01*
X105731188Y-105105266D01*
X105673975Y-105293870D01*
X105654659Y-105490000D01*
X105125341Y-105490000D01*
X105106024Y-105293868D01*
X105048814Y-105105273D01*
X105048811Y-105105269D01*
X105048811Y-105105266D01*
X104955913Y-104931467D01*
X104955909Y-104931460D01*
X104830883Y-104779116D01*
X104678539Y-104654090D01*
X104678532Y-104654086D01*
X104504733Y-104561188D01*
X104504727Y-104561186D01*
X104316132Y-104503976D01*
X104316129Y-104503975D01*
X104120000Y-104484659D01*
X103923870Y-104503975D01*
X103735266Y-104561188D01*
X103561467Y-104654086D01*
X103561460Y-104654090D01*
X103409116Y-104779116D01*
X103284090Y-104931460D01*
X103284086Y-104931467D01*
X103191188Y-105105266D01*
X103133975Y-105293870D01*
X103114659Y-105490000D01*
X102585341Y-105490000D01*
X102566024Y-105293868D01*
X102508814Y-105105273D01*
X102508811Y-105105269D01*
X102508811Y-105105266D01*
X102415913Y-104931467D01*
X102415909Y-104931460D01*
X102290883Y-104779116D01*
X102138539Y-104654090D01*
X102138532Y-104654086D01*
X101964733Y-104561188D01*
X101964727Y-104561186D01*
X101776132Y-104503976D01*
X101776129Y-104503975D01*
X101580000Y-104484659D01*
X101383870Y-104503975D01*
X101195266Y-104561188D01*
X101021467Y-104654086D01*
X101021460Y-104654090D01*
X100869116Y-104779116D01*
X100744090Y-104931460D01*
X100744086Y-104931467D01*
X100651188Y-105105266D01*
X100593975Y-105293870D01*
X100574659Y-105490000D01*
X100045341Y-105490000D01*
X100026024Y-105293868D01*
X99968814Y-105105273D01*
X99968811Y-105105269D01*
X99968811Y-105105266D01*
X99875913Y-104931467D01*
X99875909Y-104931460D01*
X99750883Y-104779116D01*
X99598539Y-104654090D01*
X99598532Y-104654085D01*
X99431047Y-104564563D01*
X99381202Y-104515601D01*
X99365500Y-104455205D01*
X99365500Y-99250000D01*
X106924659Y-99250000D01*
X106943975Y-99446129D01*
X107001188Y-99634733D01*
X107094086Y-99808532D01*
X107094090Y-99808539D01*
X107219116Y-99960883D01*
X107371460Y-100085909D01*
X107371467Y-100085913D01*
X107545266Y-100178811D01*
X107545269Y-100178811D01*
X107545273Y-100178814D01*
X107733868Y-100236024D01*
X107930000Y-100255341D01*
X108126132Y-100236024D01*
X108314727Y-100178814D01*
X108488538Y-100085910D01*
X108640883Y-99960883D01*
X108765910Y-99808538D01*
X108858814Y-99634727D01*
X108916024Y-99446132D01*
X108935341Y-99250000D01*
X108916024Y-99053868D01*
X108858814Y-98865273D01*
X108858811Y-98865269D01*
X108858811Y-98865266D01*
X108765913Y-98691467D01*
X108765909Y-98691460D01*
X108640883Y-98539116D01*
X108488539Y-98414090D01*
X108488532Y-98414086D01*
X108314733Y-98321188D01*
X108314727Y-98321186D01*
X108126132Y-98263976D01*
X108126129Y-98263975D01*
X107930000Y-98244659D01*
X107733870Y-98263975D01*
X107545266Y-98321188D01*
X107371467Y-98414086D01*
X107371460Y-98414090D01*
X107219116Y-98539116D01*
X107094090Y-98691460D01*
X107094086Y-98691467D01*
X107001188Y-98865266D01*
X106943975Y-99053870D01*
X106924659Y-99250000D01*
X99365500Y-99250000D01*
X99365500Y-94646187D01*
X99385185Y-94579148D01*
X99401814Y-94558511D01*
X100248506Y-93711818D01*
X100309830Y-93678334D01*
X100336188Y-93675500D01*
X105019252Y-93675500D01*
X105086291Y-93695185D01*
X105132046Y-93747989D01*
X105141990Y-93817147D01*
X105112965Y-93880703D01*
X105055248Y-93918159D01*
X105045273Y-93921186D01*
X105045270Y-93921187D01*
X105045268Y-93921188D01*
X104871467Y-94014086D01*
X104871460Y-94014090D01*
X104719116Y-94139116D01*
X104594090Y-94291460D01*
X104594086Y-94291467D01*
X104501188Y-94465266D01*
X104443975Y-94653870D01*
X104424659Y-94850000D01*
X104443975Y-95046129D01*
X104501188Y-95234733D01*
X104594086Y-95408532D01*
X104594090Y-95408539D01*
X104719116Y-95560883D01*
X104871460Y-95685909D01*
X104871467Y-95685913D01*
X105045266Y-95778811D01*
X105045269Y-95778811D01*
X105045273Y-95778814D01*
X105233868Y-95836024D01*
X105430000Y-95855341D01*
X105626132Y-95836024D01*
X105814727Y-95778814D01*
X105988538Y-95685910D01*
X106140883Y-95560883D01*
X106265910Y-95408538D01*
X106358814Y-95234727D01*
X106416024Y-95046132D01*
X106435341Y-94850000D01*
X106416024Y-94653868D01*
X106358814Y-94465273D01*
X106358811Y-94465269D01*
X106358811Y-94465266D01*
X106265913Y-94291467D01*
X106265909Y-94291460D01*
X106140883Y-94139116D01*
X105988539Y-94014090D01*
X105988532Y-94014086D01*
X105814731Y-93921188D01*
X105814730Y-93921187D01*
X105814727Y-93921186D01*
X105804751Y-93918159D01*
X105746314Y-93879864D01*
X105717858Y-93816052D01*
X105728418Y-93746985D01*
X105774642Y-93694591D01*
X105840748Y-93675500D01*
X112639252Y-93675500D01*
X112706291Y-93695185D01*
X112752046Y-93747989D01*
X112761990Y-93817147D01*
X112732965Y-93880703D01*
X112675248Y-93918159D01*
X112665273Y-93921186D01*
X112665270Y-93921187D01*
X112665268Y-93921188D01*
X112491467Y-94014086D01*
X112491460Y-94014090D01*
X112339116Y-94139116D01*
X112214090Y-94291460D01*
X112214086Y-94291467D01*
X112121188Y-94465266D01*
X112063975Y-94653870D01*
X112044659Y-94850000D01*
X112063975Y-95046129D01*
X112121188Y-95234733D01*
X112214086Y-95408532D01*
X112214090Y-95408539D01*
X112339116Y-95560883D01*
X112491460Y-95685909D01*
X112491463Y-95685911D01*
X112535340Y-95709363D01*
X112618953Y-95754055D01*
X112668797Y-95803016D01*
X112684500Y-95863413D01*
X112684500Y-101915205D01*
X112664815Y-101982244D01*
X112618953Y-102024563D01*
X112451467Y-102114085D01*
X112451460Y-102114090D01*
X112299116Y-102239116D01*
X112174090Y-102391460D01*
X112174086Y-102391467D01*
X112081188Y-102565266D01*
X112023975Y-102753870D01*
X112004659Y-102950000D01*
X112023975Y-103146129D01*
X112081188Y-103334733D01*
X112174086Y-103508532D01*
X112174090Y-103508539D01*
X112299116Y-103660883D01*
X112451460Y-103785909D01*
X112451467Y-103785913D01*
X112625266Y-103878811D01*
X112625269Y-103878811D01*
X112625273Y-103878814D01*
X112813868Y-103936024D01*
X113010000Y-103955341D01*
X113206132Y-103936024D01*
X113394727Y-103878814D01*
X113568538Y-103785910D01*
X113720883Y-103660883D01*
X113845910Y-103508538D01*
X113938814Y-103334727D01*
X113996024Y-103146132D01*
X114015341Y-102950000D01*
X113996024Y-102753868D01*
X113938814Y-102565273D01*
X113938811Y-102565269D01*
X113938811Y-102565266D01*
X113845913Y-102391467D01*
X113845909Y-102391460D01*
X113720883Y-102239116D01*
X113568539Y-102114090D01*
X113568532Y-102114085D01*
X113401047Y-102024563D01*
X113351202Y-101975601D01*
X113335500Y-101915205D01*
X113335500Y-95900878D01*
X113355185Y-95833839D01*
X113407989Y-95788084D01*
X113423496Y-95782220D01*
X113434727Y-95778814D01*
X113608538Y-95685910D01*
X113760883Y-95560883D01*
X113885910Y-95408538D01*
X113978814Y-95234727D01*
X114036024Y-95046132D01*
X114055341Y-94850000D01*
X114036024Y-94653868D01*
X113978814Y-94465273D01*
X113978811Y-94465269D01*
X113978811Y-94465266D01*
X113885913Y-94291467D01*
X113885909Y-94291460D01*
X113760883Y-94139116D01*
X113608539Y-94014090D01*
X113608532Y-94014086D01*
X113434731Y-93921188D01*
X113434730Y-93921187D01*
X113434727Y-93921186D01*
X113424751Y-93918159D01*
X113366314Y-93879864D01*
X113337858Y-93816052D01*
X113348418Y-93746985D01*
X113394642Y-93694591D01*
X113460748Y-93675500D01*
X132333078Y-93675500D01*
X132338481Y-93675735D01*
X132378807Y-93679264D01*
X132417940Y-93668777D01*
X132423162Y-93667619D01*
X132463045Y-93660588D01*
X132463050Y-93660584D01*
X132468099Y-93658747D01*
X132484824Y-93651819D01*
X132489681Y-93649554D01*
X132489684Y-93649554D01*
X132522841Y-93626335D01*
X132527390Y-93623438D01*
X132562455Y-93603194D01*
X132588481Y-93572176D01*
X132592122Y-93568202D01*
X133968204Y-92192120D01*
X133972166Y-92188489D01*
X134003194Y-92162455D01*
X134018112Y-92136614D01*
X134068679Y-92088399D01*
X134137286Y-92075175D01*
X134202151Y-92101143D01*
G37*
%TD.AperFunction*%
%TA.AperFunction,Conductor*%
G36*
X94131850Y-88495185D02*
G01*
X94177605Y-88547989D01*
X94187549Y-88617147D01*
X94158524Y-88680703D01*
X94152492Y-88687181D01*
X93741802Y-89097870D01*
X93737814Y-89101525D01*
X93706805Y-89127545D01*
X93686562Y-89162606D01*
X93683656Y-89167166D01*
X93660446Y-89200313D01*
X93658206Y-89205117D01*
X93651229Y-89221961D01*
X93649409Y-89226961D01*
X93649139Y-89228497D01*
X93648055Y-89230683D01*
X93645701Y-89237151D01*
X93644979Y-89236888D01*
X93618107Y-89291097D01*
X93580219Y-89317517D01*
X93580645Y-89318314D01*
X93401467Y-89414086D01*
X93401460Y-89414090D01*
X93249116Y-89539116D01*
X93124090Y-89691460D01*
X93124086Y-89691467D01*
X93031188Y-89865266D01*
X92973975Y-90053870D01*
X92954659Y-90250000D01*
X92973975Y-90446129D01*
X93031188Y-90634733D01*
X93124086Y-90808532D01*
X93124090Y-90808539D01*
X93249116Y-90960883D01*
X93401460Y-91085909D01*
X93401467Y-91085913D01*
X93575266Y-91178811D01*
X93575269Y-91178811D01*
X93575273Y-91178814D01*
X93763868Y-91236024D01*
X93960000Y-91255341D01*
X94156132Y-91236024D01*
X94344727Y-91178814D01*
X94518538Y-91085910D01*
X94670883Y-90960883D01*
X94795910Y-90808538D01*
X94888814Y-90634727D01*
X94946024Y-90446132D01*
X94965341Y-90250000D01*
X94946024Y-90053868D01*
X94888814Y-89865273D01*
X94888811Y-89865269D01*
X94888811Y-89865266D01*
X94795913Y-89691467D01*
X94795909Y-89691460D01*
X94670883Y-89539116D01*
X94529659Y-89423216D01*
X94490325Y-89365470D01*
X94488454Y-89295625D01*
X94520641Y-89239684D01*
X94648508Y-89111816D01*
X94709830Y-89078334D01*
X94736188Y-89075500D01*
X96089252Y-89075500D01*
X96156291Y-89095185D01*
X96202046Y-89147989D01*
X96211990Y-89217147D01*
X96182965Y-89280703D01*
X96125248Y-89318159D01*
X96115273Y-89321186D01*
X96115270Y-89321187D01*
X96115268Y-89321188D01*
X95941467Y-89414086D01*
X95941460Y-89414090D01*
X95789116Y-89539116D01*
X95664090Y-89691460D01*
X95664086Y-89691467D01*
X95571188Y-89865266D01*
X95513975Y-90053870D01*
X95494659Y-90250000D01*
X95513975Y-90446129D01*
X95571188Y-90634733D01*
X95664086Y-90808532D01*
X95664090Y-90808539D01*
X95789116Y-90960883D01*
X95941460Y-91085909D01*
X95941467Y-91085913D01*
X96115266Y-91178811D01*
X96115269Y-91178811D01*
X96115273Y-91178814D01*
X96303868Y-91236024D01*
X96500000Y-91255341D01*
X96696132Y-91236024D01*
X96884727Y-91178814D01*
X97058538Y-91085910D01*
X97210883Y-90960883D01*
X97335910Y-90808538D01*
X97428814Y-90634727D01*
X97486024Y-90446132D01*
X97505341Y-90250000D01*
X97486024Y-90053868D01*
X97428814Y-89865273D01*
X97428811Y-89865269D01*
X97428811Y-89865266D01*
X97335913Y-89691467D01*
X97335909Y-89691460D01*
X97210883Y-89539116D01*
X97058539Y-89414090D01*
X97058532Y-89414086D01*
X96884731Y-89321188D01*
X96884730Y-89321187D01*
X96884727Y-89321186D01*
X96874751Y-89318159D01*
X96816314Y-89279864D01*
X96787858Y-89216052D01*
X96798418Y-89146985D01*
X96844642Y-89094591D01*
X96910748Y-89075500D01*
X98629252Y-89075500D01*
X98696291Y-89095185D01*
X98742046Y-89147989D01*
X98751990Y-89217147D01*
X98722965Y-89280703D01*
X98665248Y-89318159D01*
X98655273Y-89321186D01*
X98655270Y-89321187D01*
X98655268Y-89321188D01*
X98481467Y-89414086D01*
X98481460Y-89414090D01*
X98329116Y-89539116D01*
X98204090Y-89691460D01*
X98204086Y-89691467D01*
X98111188Y-89865266D01*
X98053975Y-90053870D01*
X98034659Y-90250000D01*
X98053975Y-90446129D01*
X98111188Y-90634733D01*
X98204086Y-90808532D01*
X98204090Y-90808539D01*
X98329116Y-90960883D01*
X98481460Y-91085909D01*
X98481467Y-91085913D01*
X98655266Y-91178811D01*
X98655269Y-91178811D01*
X98655273Y-91178814D01*
X98843868Y-91236024D01*
X99040000Y-91255341D01*
X99236132Y-91236024D01*
X99424727Y-91178814D01*
X99598538Y-91085910D01*
X99750883Y-90960883D01*
X99875910Y-90808538D01*
X99968814Y-90634727D01*
X100026024Y-90446132D01*
X100045341Y-90250000D01*
X100026024Y-90053868D01*
X99968814Y-89865273D01*
X99968811Y-89865269D01*
X99968811Y-89865266D01*
X99875913Y-89691467D01*
X99875909Y-89691460D01*
X99750883Y-89539116D01*
X99598539Y-89414090D01*
X99598532Y-89414086D01*
X99424731Y-89321188D01*
X99424730Y-89321187D01*
X99424727Y-89321186D01*
X99414751Y-89318159D01*
X99356314Y-89279864D01*
X99327858Y-89216052D01*
X99338418Y-89146985D01*
X99384642Y-89094591D01*
X99450748Y-89075500D01*
X101169252Y-89075500D01*
X101236291Y-89095185D01*
X101282046Y-89147989D01*
X101291990Y-89217147D01*
X101262965Y-89280703D01*
X101205248Y-89318159D01*
X101195273Y-89321186D01*
X101195270Y-89321187D01*
X101195268Y-89321188D01*
X101021467Y-89414086D01*
X101021460Y-89414090D01*
X100869116Y-89539116D01*
X100744090Y-89691460D01*
X100744086Y-89691467D01*
X100651188Y-89865266D01*
X100593975Y-90053870D01*
X100574659Y-90250000D01*
X100593975Y-90446129D01*
X100651188Y-90634733D01*
X100744086Y-90808532D01*
X100744090Y-90808539D01*
X100869116Y-90960883D01*
X101021460Y-91085909D01*
X101021467Y-91085913D01*
X101195266Y-91178811D01*
X101195269Y-91178811D01*
X101195273Y-91178814D01*
X101383868Y-91236024D01*
X101580000Y-91255341D01*
X101776132Y-91236024D01*
X101964727Y-91178814D01*
X102138538Y-91085910D01*
X102290883Y-90960883D01*
X102415910Y-90808538D01*
X102508814Y-90634727D01*
X102566024Y-90446132D01*
X102585341Y-90250000D01*
X102566024Y-90053868D01*
X102508814Y-89865273D01*
X102508811Y-89865269D01*
X102508811Y-89865266D01*
X102415913Y-89691467D01*
X102415909Y-89691460D01*
X102290883Y-89539116D01*
X102138539Y-89414090D01*
X102138532Y-89414086D01*
X101964731Y-89321188D01*
X101964730Y-89321187D01*
X101964727Y-89321186D01*
X101954751Y-89318159D01*
X101896314Y-89279864D01*
X101867858Y-89216052D01*
X101878418Y-89146985D01*
X101924642Y-89094591D01*
X101990748Y-89075500D01*
X103709252Y-89075500D01*
X103776291Y-89095185D01*
X103822046Y-89147989D01*
X103831990Y-89217147D01*
X103802965Y-89280703D01*
X103745248Y-89318159D01*
X103735273Y-89321186D01*
X103735270Y-89321187D01*
X103735268Y-89321188D01*
X103561467Y-89414086D01*
X103561460Y-89414090D01*
X103409116Y-89539116D01*
X103284090Y-89691460D01*
X103284086Y-89691467D01*
X103191188Y-89865266D01*
X103133975Y-90053870D01*
X103114659Y-90250000D01*
X103133975Y-90446129D01*
X103191188Y-90634733D01*
X103284086Y-90808532D01*
X103284090Y-90808539D01*
X103409116Y-90960883D01*
X103561460Y-91085909D01*
X103561467Y-91085913D01*
X103735266Y-91178811D01*
X103735269Y-91178811D01*
X103735273Y-91178814D01*
X103923868Y-91236024D01*
X104120000Y-91255341D01*
X104316132Y-91236024D01*
X104504727Y-91178814D01*
X104678538Y-91085910D01*
X104830883Y-90960883D01*
X104955910Y-90808538D01*
X105048814Y-90634727D01*
X105106024Y-90446132D01*
X105125341Y-90250000D01*
X105106024Y-90053868D01*
X105048814Y-89865273D01*
X105048811Y-89865269D01*
X105048811Y-89865266D01*
X104955913Y-89691467D01*
X104955909Y-89691460D01*
X104830883Y-89539116D01*
X104678539Y-89414090D01*
X104678532Y-89414086D01*
X104504731Y-89321188D01*
X104504730Y-89321187D01*
X104504727Y-89321186D01*
X104494751Y-89318159D01*
X104436314Y-89279864D01*
X104407858Y-89216052D01*
X104418418Y-89146985D01*
X104464642Y-89094591D01*
X104530748Y-89075500D01*
X106249252Y-89075500D01*
X106316291Y-89095185D01*
X106362046Y-89147989D01*
X106371990Y-89217147D01*
X106342965Y-89280703D01*
X106285248Y-89318159D01*
X106275273Y-89321186D01*
X106275270Y-89321187D01*
X106275268Y-89321188D01*
X106101467Y-89414086D01*
X106101460Y-89414090D01*
X105949116Y-89539116D01*
X105824090Y-89691460D01*
X105824086Y-89691467D01*
X105731188Y-89865266D01*
X105673975Y-90053870D01*
X105654659Y-90250000D01*
X105673975Y-90446129D01*
X105731188Y-90634733D01*
X105824086Y-90808532D01*
X105824090Y-90808539D01*
X105949116Y-90960883D01*
X106101460Y-91085909D01*
X106101467Y-91085914D01*
X106248761Y-91164644D01*
X106298606Y-91213606D01*
X106314066Y-91281744D01*
X106290234Y-91347424D01*
X106277989Y-91361683D01*
X105501493Y-92138181D01*
X105440170Y-92171666D01*
X105413812Y-92174500D01*
X99116911Y-92174500D01*
X99111507Y-92174264D01*
X99106176Y-92173797D01*
X99071192Y-92170736D01*
X99032099Y-92181211D01*
X99026819Y-92182382D01*
X98986954Y-92189412D01*
X98981962Y-92191229D01*
X98965117Y-92198206D01*
X98960313Y-92200446D01*
X98927163Y-92223658D01*
X98922602Y-92226564D01*
X98887548Y-92246804D01*
X98887545Y-92246806D01*
X98887543Y-92246807D01*
X98887542Y-92246809D01*
X98861523Y-92277815D01*
X98857869Y-92281803D01*
X97531803Y-93607870D01*
X97527814Y-93611525D01*
X97496805Y-93637545D01*
X97476562Y-93672606D01*
X97473656Y-93677166D01*
X97450446Y-93710313D01*
X97448206Y-93715117D01*
X97441229Y-93731961D01*
X97439410Y-93736959D01*
X97432383Y-93776811D01*
X97431212Y-93782091D01*
X97420735Y-93821191D01*
X97424264Y-93861513D01*
X97424500Y-93866920D01*
X97424500Y-104693371D01*
X97404815Y-104760410D01*
X97352011Y-104806165D01*
X97282853Y-104816109D01*
X97219297Y-104787084D01*
X97212819Y-104781052D01*
X97210885Y-104779118D01*
X97058539Y-104654090D01*
X97058532Y-104654086D01*
X96884733Y-104561188D01*
X96884727Y-104561186D01*
X96696132Y-104503976D01*
X96696129Y-104503975D01*
X96500000Y-104484659D01*
X96303870Y-104503975D01*
X96115266Y-104561188D01*
X95941467Y-104654086D01*
X95941460Y-104654090D01*
X95789116Y-104779116D01*
X95664090Y-104931460D01*
X95664086Y-104931467D01*
X95571188Y-105105266D01*
X95513975Y-105293870D01*
X95494659Y-105490000D01*
X95513975Y-105686129D01*
X95571188Y-105874733D01*
X95664086Y-106048532D01*
X95664090Y-106048539D01*
X95789116Y-106200883D01*
X95941460Y-106325909D01*
X95941467Y-106325913D01*
X96036628Y-106376778D01*
X96086472Y-106425740D01*
X96101933Y-106493878D01*
X96078101Y-106559557D01*
X96065856Y-106573817D01*
X95651493Y-106988181D01*
X95590170Y-107021666D01*
X95563812Y-107024500D01*
X93536189Y-107024500D01*
X93469150Y-107004815D01*
X93448508Y-106988181D01*
X92471347Y-106011020D01*
X92437862Y-105949697D01*
X92442846Y-105880005D01*
X92484718Y-105824072D01*
X92550182Y-105799655D01*
X92580554Y-105801222D01*
X92616811Y-105807615D01*
X92622080Y-105808783D01*
X92661193Y-105819264D01*
X92701522Y-105815735D01*
X92706924Y-105815500D01*
X92925205Y-105815500D01*
X92992244Y-105835185D01*
X93034563Y-105881047D01*
X93124085Y-106048532D01*
X93124090Y-106048539D01*
X93249116Y-106200883D01*
X93401460Y-106325909D01*
X93401467Y-106325913D01*
X93575266Y-106418811D01*
X93575269Y-106418811D01*
X93575273Y-106418814D01*
X93763868Y-106476024D01*
X93960000Y-106495341D01*
X94156132Y-106476024D01*
X94344727Y-106418814D01*
X94518538Y-106325910D01*
X94670883Y-106200883D01*
X94795910Y-106048538D01*
X94867313Y-105914952D01*
X94888811Y-105874733D01*
X94888811Y-105874732D01*
X94888814Y-105874727D01*
X94946024Y-105686132D01*
X94965341Y-105490000D01*
X94946024Y-105293868D01*
X94888814Y-105105273D01*
X94888811Y-105105269D01*
X94888811Y-105105266D01*
X94795913Y-104931467D01*
X94795909Y-104931460D01*
X94670883Y-104779116D01*
X94518539Y-104654090D01*
X94518532Y-104654086D01*
X94344733Y-104561188D01*
X94344727Y-104561186D01*
X94156132Y-104503976D01*
X94156129Y-104503975D01*
X93960000Y-104484659D01*
X93763870Y-104503975D01*
X93575266Y-104561188D01*
X93401467Y-104654086D01*
X93401460Y-104654090D01*
X93249116Y-104779116D01*
X93124090Y-104931460D01*
X93124085Y-104931467D01*
X93034563Y-105098953D01*
X92985601Y-105148798D01*
X92925205Y-105164500D01*
X92876188Y-105164500D01*
X92809149Y-105144815D01*
X92788507Y-105128181D01*
X92111819Y-104451493D01*
X92078334Y-104390170D01*
X92075500Y-104363812D01*
X92075500Y-102950000D01*
X92954659Y-102950000D01*
X92973975Y-103146129D01*
X93031188Y-103334733D01*
X93124086Y-103508532D01*
X93124090Y-103508539D01*
X93249116Y-103660883D01*
X93401460Y-103785909D01*
X93401467Y-103785913D01*
X93575266Y-103878811D01*
X93575269Y-103878811D01*
X93575273Y-103878814D01*
X93763868Y-103936024D01*
X93960000Y-103955341D01*
X94156132Y-103936024D01*
X94344727Y-103878814D01*
X94518538Y-103785910D01*
X94670883Y-103660883D01*
X94795910Y-103508538D01*
X94888814Y-103334727D01*
X94946024Y-103146132D01*
X94965341Y-102950000D01*
X94946024Y-102753868D01*
X94888814Y-102565273D01*
X94888811Y-102565269D01*
X94888811Y-102565266D01*
X94795913Y-102391467D01*
X94795909Y-102391460D01*
X94670883Y-102239116D01*
X94518539Y-102114090D01*
X94518532Y-102114086D01*
X94344733Y-102021188D01*
X94344727Y-102021186D01*
X94156132Y-101963976D01*
X94156129Y-101963975D01*
X93960000Y-101944659D01*
X93763870Y-101963975D01*
X93575266Y-102021188D01*
X93401467Y-102114086D01*
X93401460Y-102114090D01*
X93249116Y-102239116D01*
X93124090Y-102391460D01*
X93124086Y-102391467D01*
X93031188Y-102565266D01*
X92973975Y-102753870D01*
X92954659Y-102950000D01*
X92075500Y-102950000D01*
X92075500Y-100410000D01*
X92954659Y-100410000D01*
X92973975Y-100606129D01*
X93031188Y-100794733D01*
X93124086Y-100968532D01*
X93124090Y-100968539D01*
X93249116Y-101120883D01*
X93401460Y-101245909D01*
X93401467Y-101245913D01*
X93575266Y-101338811D01*
X93575269Y-101338811D01*
X93575273Y-101338814D01*
X93763868Y-101396024D01*
X93960000Y-101415341D01*
X94156132Y-101396024D01*
X94344727Y-101338814D01*
X94518538Y-101245910D01*
X94670883Y-101120883D01*
X94795910Y-100968538D01*
X94888814Y-100794727D01*
X94946024Y-100606132D01*
X94965341Y-100410000D01*
X94946024Y-100213868D01*
X94888814Y-100025273D01*
X94888811Y-100025269D01*
X94888811Y-100025266D01*
X94795913Y-99851467D01*
X94795909Y-99851460D01*
X94670883Y-99699116D01*
X94518539Y-99574090D01*
X94518532Y-99574086D01*
X94344733Y-99481188D01*
X94344727Y-99481186D01*
X94156132Y-99423976D01*
X94156129Y-99423975D01*
X93960000Y-99404659D01*
X93763870Y-99423975D01*
X93575266Y-99481188D01*
X93401467Y-99574086D01*
X93401460Y-99574090D01*
X93249116Y-99699116D01*
X93124090Y-99851460D01*
X93124086Y-99851467D01*
X93031188Y-100025266D01*
X92973975Y-100213870D01*
X92954659Y-100410000D01*
X92075500Y-100410000D01*
X92075500Y-97619999D01*
X92681127Y-97619999D01*
X92681128Y-97620000D01*
X93526314Y-97620000D01*
X93500507Y-97660156D01*
X93460000Y-97798111D01*
X93460000Y-97941889D01*
X93500507Y-98079844D01*
X93526314Y-98120000D01*
X92681128Y-98120000D01*
X92733730Y-98316317D01*
X92733734Y-98316326D01*
X92829865Y-98522482D01*
X92960342Y-98708820D01*
X93121179Y-98869657D01*
X93307517Y-99000134D01*
X93513673Y-99096265D01*
X93513682Y-99096269D01*
X93709999Y-99148872D01*
X93710000Y-99148871D01*
X93710000Y-98305501D01*
X93817685Y-98354680D01*
X93924237Y-98370000D01*
X93995763Y-98370000D01*
X94102315Y-98354680D01*
X94209999Y-98305501D01*
X94209999Y-99148871D01*
X94210000Y-99148872D01*
X94406317Y-99096269D01*
X94406326Y-99096265D01*
X94612482Y-99000134D01*
X94798820Y-98869657D01*
X94959657Y-98708820D01*
X95090134Y-98522482D01*
X95186265Y-98316326D01*
X95186269Y-98316317D01*
X95238872Y-98120000D01*
X94393686Y-98120000D01*
X94419493Y-98079844D01*
X94460000Y-97941889D01*
X94460000Y-97798111D01*
X94419493Y-97660156D01*
X94393686Y-97620000D01*
X95238872Y-97620000D01*
X95238872Y-97619999D01*
X95186269Y-97423682D01*
X95186265Y-97423673D01*
X95090134Y-97217517D01*
X94959657Y-97031179D01*
X94798820Y-96870342D01*
X94612482Y-96739865D01*
X94406328Y-96643734D01*
X94210000Y-96591127D01*
X94210000Y-97434498D01*
X94102315Y-97385320D01*
X93995763Y-97370000D01*
X93924237Y-97370000D01*
X93817685Y-97385320D01*
X93710000Y-97434498D01*
X93710000Y-96591127D01*
X93513671Y-96643734D01*
X93307517Y-96739865D01*
X93121179Y-96870342D01*
X92960342Y-97031179D01*
X92829865Y-97217517D01*
X92733734Y-97423673D01*
X92733730Y-97423682D01*
X92681127Y-97619999D01*
X92075500Y-97619999D01*
X92075500Y-89836188D01*
X92095185Y-89769149D01*
X92111819Y-89748507D01*
X93348508Y-88511819D01*
X93409831Y-88478334D01*
X93436189Y-88475500D01*
X94064811Y-88475500D01*
X94131850Y-88495185D01*
G37*
%TD.AperFunction*%
%TD*%
M02*
