%TF.GenerationSoftware,KiCad,Pcbnew,7.0.3*%
%TF.CreationDate,2023-08-28T19:15:28+05:00*%
%TF.ProjectId,MotorDriver3,4d6f746f-7244-4726-9976-6572332e6b69,rev?*%
%TF.SameCoordinates,Original*%
%TF.FileFunction,Soldermask,Top*%
%TF.FilePolarity,Negative*%
%FSLAX46Y46*%
G04 Gerber Fmt 4.6, Leading zero omitted, Abs format (unit mm)*
G04 Created by KiCad (PCBNEW 7.0.3) date 2023-08-28 19:15:28*
%MOMM*%
%LPD*%
G01*
G04 APERTURE LIST*
G04 Aperture macros list*
%AMRoundRect*
0 Rectangle with rounded corners*
0 $1 Rounding radius*
0 $2 $3 $4 $5 $6 $7 $8 $9 X,Y pos of 4 corners*
0 Add a 4 corners polygon primitive as box body*
4,1,4,$2,$3,$4,$5,$6,$7,$8,$9,$2,$3,0*
0 Add four circle primitives for the rounded corners*
1,1,$1+$1,$2,$3*
1,1,$1+$1,$4,$5*
1,1,$1+$1,$6,$7*
1,1,$1+$1,$8,$9*
0 Add four rect primitives between the rounded corners*
20,1,$1+$1,$2,$3,$4,$5,0*
20,1,$1+$1,$4,$5,$6,$7,0*
20,1,$1+$1,$6,$7,$8,$9,0*
20,1,$1+$1,$8,$9,$2,$3,0*%
G04 Aperture macros list end*
%ADD10R,1.700000X1.700000*%
%ADD11O,1.600000X1.600000*%
%ADD12R,1.600000X1.600000*%
%ADD13C,5.000000*%
%ADD14RoundRect,0.250000X-0.725000X0.600000X-0.725000X-0.600000X0.725000X-0.600000X0.725000X0.600000X0*%
%ADD15O,1.950000X1.700000*%
%ADD16RoundRect,0.250000X-0.600000X-0.750000X0.600000X-0.750000X0.600000X0.750000X-0.600000X0.750000X0*%
%ADD17O,1.700000X2.000000*%
%ADD18RoundRect,0.250000X0.600000X0.725000X-0.600000X0.725000X-0.600000X-0.725000X0.600000X-0.725000X0*%
%ADD19O,1.700000X1.950000*%
%ADD20RoundRect,0.250000X0.725000X-0.600000X0.725000X0.600000X-0.725000X0.600000X-0.725000X-0.600000X0*%
%ADD21O,1.700000X1.700000*%
%ADD22C,1.600000*%
G04 APERTURE END LIST*
D10*
%TO.C,J7*%
X100250000Y-110425000D03*
%TD*%
D11*
%TO.C,A2*%
X121900000Y-105490000D03*
X119360000Y-105490000D03*
X116820000Y-105490000D03*
X114280000Y-105490000D03*
X115550000Y-102950000D03*
X113010000Y-102950000D03*
X111740000Y-105490000D03*
X109200000Y-105490000D03*
X106660000Y-105490000D03*
X104120000Y-105490000D03*
X101580000Y-105490000D03*
X99040000Y-105490000D03*
X96500000Y-105490000D03*
X93960000Y-105490000D03*
X93960000Y-102950000D03*
X93960000Y-100410000D03*
X93960000Y-97870000D03*
X93960000Y-90250000D03*
X96500000Y-90250000D03*
X99040000Y-90250000D03*
X101580000Y-90250000D03*
X104120000Y-90250000D03*
X106660000Y-90250000D03*
X109200000Y-90250000D03*
X111740000Y-90250000D03*
X114280000Y-90250000D03*
X116820000Y-90250000D03*
X119360000Y-90250000D03*
D12*
X121900000Y-90250000D03*
%TD*%
D13*
%TO.C,H1*%
X87000000Y-67500000D03*
%TD*%
D11*
%TO.C,U1*%
X117975000Y-86450000D03*
X115435000Y-86450000D03*
X112895000Y-86450000D03*
X110355000Y-86450000D03*
X107815000Y-86450000D03*
X105275000Y-86450000D03*
X102735000Y-86450000D03*
X100195000Y-86450000D03*
X100195000Y-73750000D03*
X102735000Y-73750000D03*
X105275000Y-73750000D03*
X107815000Y-73750000D03*
X110355000Y-73750000D03*
X112895000Y-73750000D03*
X115435000Y-73750000D03*
D12*
X117975000Y-73750000D03*
%TD*%
D14*
%TO.C,J1*%
X131425000Y-73250000D03*
D15*
X131425000Y-75750000D03*
X131425000Y-78250000D03*
X131425000Y-80750000D03*
X131425000Y-83250000D03*
X131425000Y-85750000D03*
%TD*%
D16*
%TO.C,J5*%
X101500000Y-67575000D03*
D17*
X104000000Y-67575000D03*
%TD*%
D16*
%TO.C,J6*%
X114500000Y-67575000D03*
D17*
X117000000Y-67575000D03*
%TD*%
D18*
%TO.C,J3*%
X125750000Y-111925000D03*
D19*
X123250000Y-111925000D03*
X120750000Y-111925000D03*
X118250000Y-111925000D03*
%TD*%
D13*
%TO.C,H2*%
X131500000Y-67500000D03*
%TD*%
%TO.C,H3*%
X131500000Y-112000000D03*
%TD*%
%TO.C,H4*%
X87000000Y-112000000D03*
%TD*%
D20*
%TO.C,J2*%
X87075000Y-85750000D03*
D15*
X87075000Y-83250000D03*
X87075000Y-80750000D03*
X87075000Y-78250000D03*
X87075000Y-75750000D03*
X87075000Y-73250000D03*
%TD*%
D10*
%TO.C,J4*%
X96630000Y-110425000D03*
D21*
X96630000Y-112965000D03*
X94090000Y-110425000D03*
X94090000Y-112965000D03*
X91550000Y-110425000D03*
X91550000Y-112965000D03*
%TD*%
D22*
%TO.C,R2*%
X105430000Y-94850000D03*
D11*
X113050000Y-94850000D03*
%TD*%
%TO.C,R1*%
X115550000Y-99250000D03*
D22*
X107930000Y-99250000D03*
%TD*%
M02*
