%TF.GenerationSoftware,KiCad,Pcbnew,7.0.3*%
%TF.CreationDate,2023-08-28T19:15:27+05:00*%
%TF.ProjectId,MotorDriver3,4d6f746f-7244-4726-9976-6572332e6b69,rev?*%
%TF.SameCoordinates,Original*%
%TF.FileFunction,Copper,L1,Top*%
%TF.FilePolarity,Positive*%
%FSLAX46Y46*%
G04 Gerber Fmt 4.6, Leading zero omitted, Abs format (unit mm)*
G04 Created by KiCad (PCBNEW 7.0.3) date 2023-08-28 19:15:27*
%MOMM*%
%LPD*%
G01*
G04 APERTURE LIST*
G04 Aperture macros list*
%AMRoundRect*
0 Rectangle with rounded corners*
0 $1 Rounding radius*
0 $2 $3 $4 $5 $6 $7 $8 $9 X,Y pos of 4 corners*
0 Add a 4 corners polygon primitive as box body*
4,1,4,$2,$3,$4,$5,$6,$7,$8,$9,$2,$3,0*
0 Add four circle primitives for the rounded corners*
1,1,$1+$1,$2,$3*
1,1,$1+$1,$4,$5*
1,1,$1+$1,$6,$7*
1,1,$1+$1,$8,$9*
0 Add four rect primitives between the rounded corners*
20,1,$1+$1,$2,$3,$4,$5,0*
20,1,$1+$1,$4,$5,$6,$7,0*
20,1,$1+$1,$6,$7,$8,$9,0*
20,1,$1+$1,$8,$9,$2,$3,0*%
G04 Aperture macros list end*
%TA.AperFunction,ComponentPad*%
%ADD10R,1.700000X1.700000*%
%TD*%
%TA.AperFunction,ComponentPad*%
%ADD11O,1.600000X1.600000*%
%TD*%
%TA.AperFunction,ComponentPad*%
%ADD12R,1.600000X1.600000*%
%TD*%
%TA.AperFunction,ComponentPad*%
%ADD13C,5.000000*%
%TD*%
%TA.AperFunction,ComponentPad*%
%ADD14RoundRect,0.250000X-0.725000X0.600000X-0.725000X-0.600000X0.725000X-0.600000X0.725000X0.600000X0*%
%TD*%
%TA.AperFunction,ComponentPad*%
%ADD15O,1.950000X1.700000*%
%TD*%
%TA.AperFunction,ComponentPad*%
%ADD16RoundRect,0.250000X-0.600000X-0.750000X0.600000X-0.750000X0.600000X0.750000X-0.600000X0.750000X0*%
%TD*%
%TA.AperFunction,ComponentPad*%
%ADD17O,1.700000X2.000000*%
%TD*%
%TA.AperFunction,ComponentPad*%
%ADD18RoundRect,0.250000X0.600000X0.725000X-0.600000X0.725000X-0.600000X-0.725000X0.600000X-0.725000X0*%
%TD*%
%TA.AperFunction,ComponentPad*%
%ADD19O,1.700000X1.950000*%
%TD*%
%TA.AperFunction,ComponentPad*%
%ADD20RoundRect,0.250000X0.725000X-0.600000X0.725000X0.600000X-0.725000X0.600000X-0.725000X-0.600000X0*%
%TD*%
%TA.AperFunction,ComponentPad*%
%ADD21O,1.700000X1.700000*%
%TD*%
%TA.AperFunction,ComponentPad*%
%ADD22C,1.600000*%
%TD*%
%TA.AperFunction,Conductor*%
%ADD23C,0.250000*%
%TD*%
%TA.AperFunction,Conductor*%
%ADD24C,1.500000*%
%TD*%
%TA.AperFunction,Conductor*%
%ADD25C,0.500000*%
%TD*%
G04 APERTURE END LIST*
D10*
%TO.P,J7,1,Pin_1*%
%TO.N,D4*%
X100250000Y-110425000D03*
%TD*%
D11*
%TO.P,A2,29,VRAW*%
%TO.N,unconnected-(A2-VRAW-Pad29)*%
X121900000Y-105490000D03*
%TO.P,A2,28,GND*%
%TO.N,GND*%
X119360000Y-105490000D03*
%TO.P,A2,27,~{RESET}*%
%TO.N,unconnected-(A2-~{RESET}-Pad27)*%
X116820000Y-105490000D03*
%TO.P,A2,26,VCC*%
%TO.N,+3V3*%
X114280000Y-105490000D03*
%TO.P,A2,25,A5*%
%TO.N,SCL*%
X115550000Y-102950000D03*
%TO.P,A2,24,A4*%
%TO.N,SDA*%
X113010000Y-102950000D03*
%TO.P,A2,23,A3*%
%TO.N,A3*%
X111740000Y-105490000D03*
%TO.P,A2,22,A2*%
%TO.N,A2*%
X109200000Y-105490000D03*
%TO.P,A2,21,A1*%
%TO.N,A1*%
X106660000Y-105490000D03*
%TO.P,A2,20,A0*%
%TO.N,A0*%
X104120000Y-105490000D03*
%TO.P,A2,19,D13*%
%TO.N,BINT2*%
X101580000Y-105490000D03*
%TO.P,A2,18,D12*%
%TO.N,AINT2*%
X99040000Y-105490000D03*
%TO.P,A2,17,D11*%
%TO.N,PWMB*%
X96500000Y-105490000D03*
%TO.P,A2,16,D10*%
%TO.N,BIN2*%
X93960000Y-105490000D03*
%TO.P,A2,15,A7*%
%TO.N,A7*%
X93960000Y-102950000D03*
%TO.P,A2,14,A6*%
%TO.N,A6*%
X93960000Y-100410000D03*
%TO.P,A2,13,GND*%
%TO.N,GND*%
X93960000Y-97870000D03*
%TO.P,A2,12,D9*%
%TO.N,BIN1*%
X93960000Y-90250000D03*
%TO.P,A2,11,D8*%
%TO.N,STBY*%
X96500000Y-90250000D03*
%TO.P,A2,10,D7*%
%TO.N,AIN1*%
X99040000Y-90250000D03*
%TO.P,A2,9,D6*%
%TO.N,AIN2*%
X101580000Y-90250000D03*
%TO.P,A2,8,D5*%
%TO.N,PWMA*%
X104120000Y-90250000D03*
%TO.P,A2,7,D4*%
%TO.N,D4*%
X106660000Y-90250000D03*
%TO.P,A2,6,D3*%
%TO.N,BINT1*%
X109200000Y-90250000D03*
%TO.P,A2,5,D2*%
%TO.N,AINT1*%
X111740000Y-90250000D03*
%TO.P,A2,4,GND*%
%TO.N,GND*%
X114280000Y-90250000D03*
%TO.P,A2,3,~{RESET}*%
%TO.N,unconnected-(A2-~{RESET}-Pad3)*%
X116820000Y-90250000D03*
%TO.P,A2,2,RX1*%
%TO.N,unconnected-(A2-RX1-Pad2)*%
X119360000Y-90250000D03*
D12*
%TO.P,A2,1,TX0*%
%TO.N,unconnected-(A2-TX0-Pad1)*%
X121900000Y-90250000D03*
%TD*%
D13*
%TO.P,H1,1,1*%
%TO.N,unconnected-(H1-Pad1)*%
X87000000Y-67500000D03*
%TD*%
D11*
%TO.P,U1,16,PWMA*%
%TO.N,PWMA*%
X117975000Y-86450000D03*
%TO.P,U1,15,AIN2*%
%TO.N,AIN1*%
X115435000Y-86450000D03*
%TO.P,U1,14,AIN1*%
%TO.N,AIN2*%
X112895000Y-86450000D03*
%TO.P,U1,13,STBY*%
%TO.N,STBY*%
X110355000Y-86450000D03*
%TO.P,U1,12,BIN1*%
%TO.N,BIN1*%
X107815000Y-86450000D03*
%TO.P,U1,11,BIN2*%
%TO.N,BIN2*%
X105275000Y-86450000D03*
%TO.P,U1,10,PWMB*%
%TO.N,PWMB*%
X102735000Y-86450000D03*
%TO.P,U1,9,GND*%
%TO.N,GND*%
X100195000Y-86450000D03*
%TO.P,U1,8,GND*%
X100195000Y-73750000D03*
%TO.P,U1,7,VMOT*%
%TO.N,VMOT*%
X102735000Y-73750000D03*
%TO.P,U1,6,BO1*%
%TO.N,BO1*%
X105275000Y-73750000D03*
%TO.P,U1,5,BO2*%
%TO.N,BO2*%
X107815000Y-73750000D03*
%TO.P,U1,4,AO2*%
%TO.N,AO2*%
X110355000Y-73750000D03*
%TO.P,U1,3,AO1*%
%TO.N,AO1*%
X112895000Y-73750000D03*
%TO.P,U1,2,VCC*%
%TO.N,+3V3*%
X115435000Y-73750000D03*
D12*
%TO.P,U1,1,GND*%
%TO.N,GND*%
X117975000Y-73750000D03*
%TD*%
D14*
%TO.P,J1,1,Pin_1*%
%TO.N,AO1*%
X131425000Y-73250000D03*
D15*
%TO.P,J1,2,Pin_2*%
%TO.N,GND*%
X131425000Y-75750000D03*
%TO.P,J1,3,Pin_3*%
%TO.N,AINT1*%
X131425000Y-78250000D03*
%TO.P,J1,4,Pin_4*%
%TO.N,AINT2*%
X131425000Y-80750000D03*
%TO.P,J1,5,Pin_5*%
%TO.N,+3V3*%
X131425000Y-83250000D03*
%TO.P,J1,6,Pin_6*%
%TO.N,AO2*%
X131425000Y-85750000D03*
%TD*%
D16*
%TO.P,J5,1,Pin_1*%
%TO.N,GND*%
X101500000Y-67575000D03*
D17*
%TO.P,J5,2,Pin_2*%
%TO.N,VMOT*%
X104000000Y-67575000D03*
%TD*%
D16*
%TO.P,J6,1,Pin_1*%
%TO.N,GND*%
X114500000Y-67575000D03*
D17*
%TO.P,J6,2,Pin_2*%
%TO.N,+3V3*%
X117000000Y-67575000D03*
%TD*%
D18*
%TO.P,J3,1,Pin_1*%
%TO.N,GND*%
X125750000Y-111925000D03*
D19*
%TO.P,J3,2,Pin_2*%
%TO.N,+3V3*%
X123250000Y-111925000D03*
%TO.P,J3,3,Pin_3*%
%TO.N,SDA*%
X120750000Y-111925000D03*
%TO.P,J3,4,Pin_4*%
%TO.N,SCL*%
X118250000Y-111925000D03*
%TD*%
D13*
%TO.P,H2,1,1*%
%TO.N,unconnected-(H2-Pad1)*%
X131500000Y-67500000D03*
%TD*%
%TO.P,H3,1,1*%
%TO.N,unconnected-(H3-Pad1)*%
X131500000Y-112000000D03*
%TD*%
%TO.P,H4,1,1*%
%TO.N,unconnected-(H4-Pad1)*%
X87000000Y-112000000D03*
%TD*%
D20*
%TO.P,J2,1,Pin_1*%
%TO.N,BO1*%
X87075000Y-85750000D03*
D15*
%TO.P,J2,2,Pin_2*%
%TO.N,GND*%
X87075000Y-83250000D03*
%TO.P,J2,3,Pin_3*%
%TO.N,BINT1*%
X87075000Y-80750000D03*
%TO.P,J2,4,Pin_4*%
%TO.N,BINT2*%
X87075000Y-78250000D03*
%TO.P,J2,5,Pin_5*%
%TO.N,+3V3*%
X87075000Y-75750000D03*
%TO.P,J2,6,Pin_6*%
%TO.N,BO2*%
X87075000Y-73250000D03*
%TD*%
D10*
%TO.P,J4,1,Pin_1*%
%TO.N,A0*%
X96630000Y-110425000D03*
D21*
%TO.P,J4,2,Pin_2*%
%TO.N,A1*%
X96630000Y-112965000D03*
%TO.P,J4,3,Pin_3*%
%TO.N,A2*%
X94090000Y-110425000D03*
%TO.P,J4,4,Pin_4*%
%TO.N,A3*%
X94090000Y-112965000D03*
%TO.P,J4,5,Pin_5*%
%TO.N,A6*%
X91550000Y-110425000D03*
%TO.P,J4,6,Pin_6*%
%TO.N,A7*%
X91550000Y-112965000D03*
%TD*%
D22*
%TO.P,R2,1*%
%TO.N,+3V3*%
X105430000Y-94850000D03*
D11*
%TO.P,R2,2*%
%TO.N,SDA*%
X113050000Y-94850000D03*
%TD*%
%TO.P,R1,2*%
%TO.N,SCL*%
X115550000Y-99250000D03*
D22*
%TO.P,R1,1*%
%TO.N,+3V3*%
X107930000Y-99250000D03*
%TD*%
D23*
%TO.N,A1*%
X106660000Y-105490000D02*
X106660000Y-106940000D01*
X104850000Y-108750000D02*
X99000000Y-108750000D01*
X106660000Y-106940000D02*
X104850000Y-108750000D01*
X98500000Y-112200000D02*
X97735000Y-112965000D01*
X99000000Y-108750000D02*
X98500000Y-109250000D01*
X98500000Y-109250000D02*
X98500000Y-112200000D01*
X97735000Y-112965000D02*
X96630000Y-112965000D01*
D24*
%TO.N,+3V3*%
X126000000Y-78750000D02*
X126000000Y-83050000D01*
X126000000Y-83050000D02*
X126000000Y-89500000D01*
D25*
X131425000Y-83250000D02*
X126200000Y-83250000D01*
X126200000Y-83250000D02*
X126000000Y-83050000D01*
D23*
%TO.N,BINT2*%
X101580000Y-105490000D02*
X101580000Y-104280000D01*
X84750000Y-94450000D02*
X84750000Y-79150000D01*
X101580000Y-104280000D02*
X100650000Y-103350000D01*
X100650000Y-103350000D02*
X96850000Y-103350000D01*
X96850000Y-103350000D02*
X96050000Y-102550000D01*
X96050000Y-102550000D02*
X96050000Y-96750000D01*
X95150000Y-95850000D02*
X86150000Y-95850000D01*
X96050000Y-96750000D02*
X95150000Y-95850000D01*
X86150000Y-95850000D02*
X84750000Y-94450000D01*
X84750000Y-79150000D02*
X85650000Y-78250000D01*
X85650000Y-78250000D02*
X87075000Y-78250000D01*
%TO.N,A0*%
X104120000Y-105490000D02*
X104120000Y-106980000D01*
X104120000Y-106980000D02*
X103250000Y-107850000D01*
X103250000Y-107850000D02*
X97700000Y-107850000D01*
X97700000Y-107850000D02*
X96630000Y-108920000D01*
X96630000Y-108920000D02*
X96630000Y-110425000D01*
%TO.N,SDA*%
X113010000Y-102950000D02*
X113010000Y-112610000D01*
X113010000Y-112610000D02*
X114350000Y-113950000D01*
X114350000Y-113950000D02*
X119450000Y-113950000D01*
X119450000Y-113950000D02*
X120750000Y-112650000D01*
X120750000Y-112650000D02*
X120750000Y-111925000D01*
D25*
%TO.N,+3V3*%
X105430000Y-94850000D02*
X105430000Y-96330000D01*
X105430000Y-96330000D02*
X106150000Y-97050000D01*
X106150000Y-97050000D02*
X108610000Y-97050000D01*
X107930000Y-99250000D02*
X107930000Y-97730000D01*
X107930000Y-97730000D02*
X108610000Y-97050000D01*
X108610000Y-97050000D02*
X131050000Y-97050000D01*
X131050000Y-97050000D02*
X131850000Y-96250000D01*
X131850000Y-96250000D02*
X132250000Y-96250000D01*
D24*
X132250000Y-92750000D02*
X132250000Y-96250000D01*
X132250000Y-96250000D02*
X132250000Y-106250000D01*
X124850000Y-108750000D02*
X115850000Y-108750000D01*
X115850000Y-108750000D02*
X114280000Y-107180000D01*
X114280000Y-107180000D02*
X114280000Y-105490000D01*
X130750000Y-91250000D02*
X132250000Y-92750000D01*
X126000000Y-89500000D02*
X127750000Y-91250000D01*
X127750000Y-91250000D02*
X130750000Y-91250000D01*
X132250000Y-106250000D02*
X129750000Y-108750000D01*
X129750000Y-108750000D02*
X124850000Y-108750000D01*
X124850000Y-108750000D02*
X123250000Y-110350000D01*
X123250000Y-110350000D02*
X123250000Y-111925000D01*
X126000000Y-69750000D02*
X126000000Y-78750000D01*
D25*
X87075000Y-75750000D02*
X91550000Y-75750000D01*
X91550000Y-75750000D02*
X92450000Y-76650000D01*
X92450000Y-76650000D02*
X123850000Y-76650000D01*
X123850000Y-76650000D02*
X125950000Y-78750000D01*
X125950000Y-78750000D02*
X126000000Y-78750000D01*
D23*
%TO.N,A7*%
X93960000Y-102950000D02*
X93150000Y-102950000D01*
X93150000Y-102950000D02*
X92550000Y-103550000D01*
X92550000Y-103550000D02*
X92550000Y-109150000D01*
X92550000Y-109150000D02*
X92800000Y-109400000D01*
X92800000Y-109400000D02*
X92800000Y-111715000D01*
X92800000Y-111715000D02*
X91550000Y-112965000D01*
%TO.N,A6*%
X93960000Y-100410000D02*
X92290000Y-100410000D01*
X92290000Y-100410000D02*
X91550000Y-101150000D01*
X91550000Y-101150000D02*
X91550000Y-110425000D01*
%TO.N,BINT1*%
X109200000Y-90250000D02*
X109200000Y-92000000D01*
X109200000Y-92000000D02*
X108450000Y-92750000D01*
X91450000Y-81950000D02*
X90250000Y-80750000D01*
X108450000Y-92750000D02*
X92650000Y-92750000D01*
X92650000Y-92750000D02*
X91450000Y-91550000D01*
X91450000Y-91550000D02*
X91450000Y-81950000D01*
X90250000Y-80750000D02*
X87075000Y-80750000D01*
%TO.N,STBY*%
X110355000Y-86450000D02*
X110355000Y-84355000D01*
X109850000Y-83850000D02*
X97350000Y-83850000D01*
X110355000Y-84355000D02*
X109850000Y-83850000D01*
X97350000Y-83850000D02*
X96500000Y-84700000D01*
X96500000Y-84700000D02*
X96500000Y-90250000D01*
%TO.N,AIN2*%
X112895000Y-86450000D02*
X112895000Y-87705000D01*
X112895000Y-87705000D02*
X112550000Y-88050000D01*
X112550000Y-88050000D02*
X99150000Y-88050000D01*
X99150000Y-88050000D02*
X97750000Y-89450000D01*
X97750000Y-89450000D02*
X97750000Y-90950000D01*
X97750000Y-90950000D02*
X98550000Y-91750000D01*
X98550000Y-91750000D02*
X101050000Y-91750000D01*
X101050000Y-91750000D02*
X101580000Y-91220000D01*
X101580000Y-91220000D02*
X101580000Y-90250000D01*
%TO.N,AIN1*%
X115435000Y-86450000D02*
X115435000Y-87965000D01*
X115435000Y-87965000D02*
X114850000Y-88550000D01*
X114850000Y-88550000D02*
X99450000Y-88550000D01*
X99450000Y-88550000D02*
X99040000Y-88960000D01*
X99040000Y-88960000D02*
X99040000Y-90250000D01*
%TO.N,PWMA*%
X104120000Y-90250000D02*
X104120000Y-89380000D01*
X104120000Y-89380000D02*
X104450000Y-89050000D01*
X104450000Y-89050000D02*
X117450000Y-89050000D01*
X117450000Y-89050000D02*
X117975000Y-88525000D01*
X117975000Y-88525000D02*
X117975000Y-86450000D01*
D24*
%TO.N,+3V3*%
X117000000Y-67575000D02*
X123825000Y-67575000D01*
X123825000Y-67575000D02*
X126000000Y-69750000D01*
X117000000Y-67575000D02*
X117000000Y-69750000D01*
X115435000Y-71315000D02*
X115435000Y-73750000D01*
X117000000Y-69750000D02*
X115435000Y-71315000D01*
%TO.N,VMOT*%
X104000000Y-67575000D02*
X104000000Y-70100000D01*
X104000000Y-70100000D02*
X102735000Y-71365000D01*
X102735000Y-71365000D02*
X102735000Y-73750000D01*
%TD*%
%TA.AperFunction,Conductor*%
%TO.N,GND*%
G36*
X130518565Y-64770185D02*
G01*
X130564320Y-64822989D01*
X130574264Y-64892147D01*
X130545239Y-64955703D01*
X130502419Y-64987574D01*
X130302012Y-65077770D01*
X130242725Y-65104453D01*
X130242723Y-65104454D01*
X129963131Y-65273473D01*
X129705960Y-65474954D01*
X129474954Y-65705960D01*
X129273473Y-65963131D01*
X129104454Y-66242723D01*
X129104453Y-66242725D01*
X128970372Y-66540642D01*
X128970366Y-66540657D01*
X128873178Y-66852547D01*
X128814289Y-67173900D01*
X128794564Y-67500000D01*
X128814289Y-67826099D01*
X128873178Y-68147452D01*
X128970366Y-68459342D01*
X128970370Y-68459354D01*
X128970373Y-68459361D01*
X129104455Y-68757279D01*
X129256841Y-69009356D01*
X129273473Y-69036868D01*
X129474954Y-69294039D01*
X129705960Y-69525045D01*
X129963131Y-69726526D01*
X129963134Y-69726528D01*
X129963137Y-69726530D01*
X130242721Y-69895545D01*
X130540639Y-70029627D01*
X130540652Y-70029631D01*
X130540657Y-70029633D01*
X130688804Y-70075797D01*
X130852547Y-70126821D01*
X131173896Y-70185710D01*
X131500000Y-70205436D01*
X131826104Y-70185710D01*
X132147453Y-70126821D01*
X132459361Y-70029627D01*
X132757279Y-69895545D01*
X133036863Y-69726530D01*
X133294036Y-69525048D01*
X133525048Y-69294036D01*
X133726530Y-69036863D01*
X133895545Y-68757279D01*
X134012426Y-68497579D01*
X134057888Y-68444528D01*
X134124819Y-68424475D01*
X134191965Y-68443791D01*
X134238010Y-68496342D01*
X134249500Y-68548473D01*
X134249500Y-110951526D01*
X134229815Y-111018565D01*
X134177011Y-111064320D01*
X134107853Y-111074264D01*
X134044297Y-111045239D01*
X134012425Y-111002419D01*
X133895545Y-110742721D01*
X133726530Y-110463137D01*
X133726528Y-110463134D01*
X133726526Y-110463131D01*
X133525045Y-110205960D01*
X133294039Y-109974954D01*
X133036868Y-109773473D01*
X132944517Y-109717645D01*
X132757279Y-109604455D01*
X132459361Y-109470373D01*
X132459354Y-109470370D01*
X132459342Y-109470366D01*
X132147452Y-109373178D01*
X131826099Y-109314289D01*
X131500000Y-109294564D01*
X131173900Y-109314289D01*
X130852555Y-109373176D01*
X130815170Y-109384826D01*
X130778634Y-109396211D01*
X130708774Y-109397361D01*
X130649382Y-109360560D01*
X130619314Y-109297491D01*
X130628118Y-109228178D01*
X130654061Y-109190147D01*
X132913096Y-106931112D01*
X132914109Y-106930125D01*
X132974919Y-106872323D01*
X133008161Y-106824562D01*
X133010962Y-106820846D01*
X133047734Y-106775751D01*
X133062758Y-106746986D01*
X133066819Y-106740283D01*
X133085353Y-106713658D01*
X133108304Y-106660173D01*
X133110295Y-106655981D01*
X133137237Y-106604406D01*
X133146163Y-106573209D01*
X133148788Y-106565834D01*
X133161587Y-106536012D01*
X133173299Y-106479012D01*
X133174412Y-106474484D01*
X133190417Y-106418552D01*
X133192880Y-106386195D01*
X133193967Y-106378437D01*
X133200500Y-106346656D01*
X133200500Y-106288496D01*
X133200679Y-106283787D01*
X133205095Y-106225800D01*
X133205095Y-106225797D01*
X133200996Y-106193612D01*
X133200500Y-106185799D01*
X133200500Y-96201794D01*
X133200500Y-96201793D01*
X133200500Y-92762821D01*
X133200520Y-92761251D01*
X133202644Y-92677457D01*
X133202643Y-92677456D01*
X133202644Y-92677453D01*
X133192382Y-92620204D01*
X133191729Y-92615537D01*
X133185845Y-92557680D01*
X133185844Y-92557674D01*
X133176132Y-92526723D01*
X133174262Y-92519105D01*
X133168539Y-92487172D01*
X133146963Y-92433157D01*
X133145382Y-92428716D01*
X133127975Y-92373234D01*
X133127974Y-92373233D01*
X133127974Y-92373232D01*
X133112233Y-92344873D01*
X133108863Y-92337775D01*
X133096830Y-92307652D01*
X133096830Y-92307651D01*
X133064822Y-92259085D01*
X133062382Y-92255056D01*
X133034159Y-92204209D01*
X133013030Y-92179597D01*
X133008304Y-92173330D01*
X132990451Y-92146241D01*
X132990450Y-92146239D01*
X132962309Y-92118099D01*
X132949319Y-92105109D01*
X132946128Y-92101666D01*
X132908240Y-92057532D01*
X132882590Y-92037677D01*
X132876696Y-92032486D01*
X132177255Y-91333045D01*
X131431149Y-90586939D01*
X131430091Y-90585853D01*
X131372324Y-90525082D01*
X131372320Y-90525079D01*
X131360836Y-90517086D01*
X131324567Y-90491841D01*
X131320833Y-90489025D01*
X131275751Y-90452266D01*
X131275747Y-90452264D01*
X131275746Y-90452263D01*
X131275745Y-90452262D01*
X131246997Y-90437246D01*
X131240277Y-90433174D01*
X131213659Y-90414647D01*
X131160209Y-90391710D01*
X131155952Y-90389688D01*
X131104409Y-90362764D01*
X131104407Y-90362763D01*
X131104406Y-90362763D01*
X131087689Y-90357979D01*
X131073221Y-90353839D01*
X131065822Y-90351205D01*
X131036011Y-90338412D01*
X131036012Y-90338412D01*
X130979038Y-90326703D01*
X130974463Y-90325580D01*
X130918556Y-90309583D01*
X130918545Y-90309582D01*
X130886208Y-90307120D01*
X130878428Y-90306029D01*
X130846657Y-90299500D01*
X130846656Y-90299500D01*
X130788497Y-90299500D01*
X130783790Y-90299321D01*
X130778850Y-90298944D01*
X130725798Y-90294904D01*
X130708176Y-90297149D01*
X130693614Y-90299003D01*
X130685785Y-90299500D01*
X128195072Y-90299500D01*
X128128033Y-90279815D01*
X128107391Y-90263181D01*
X126986819Y-89142609D01*
X126953334Y-89081286D01*
X126950500Y-89054928D01*
X126950500Y-85750000D01*
X130244417Y-85750000D01*
X130264699Y-85955932D01*
X130264700Y-85955934D01*
X130324768Y-86153954D01*
X130422315Y-86336450D01*
X130422317Y-86336452D01*
X130553589Y-86496410D01*
X130584636Y-86521889D01*
X130713550Y-86627685D01*
X130896046Y-86725232D01*
X131094066Y-86785300D01*
X131094065Y-86785300D01*
X131132647Y-86789100D01*
X131248392Y-86800500D01*
X131248395Y-86800500D01*
X131601605Y-86800500D01*
X131601608Y-86800500D01*
X131755934Y-86785300D01*
X131953954Y-86725232D01*
X132136450Y-86627685D01*
X132296410Y-86496410D01*
X132427685Y-86336450D01*
X132525232Y-86153954D01*
X132585300Y-85955934D01*
X132605583Y-85750000D01*
X132585300Y-85544066D01*
X132525232Y-85346046D01*
X132427685Y-85163550D01*
X132347052Y-85065298D01*
X132296410Y-85003589D01*
X132136452Y-84872317D01*
X132136453Y-84872317D01*
X132136450Y-84872315D01*
X131953954Y-84774768D01*
X131755934Y-84714700D01*
X131755932Y-84714699D01*
X131755934Y-84714699D01*
X131636805Y-84702966D01*
X131601608Y-84699500D01*
X131248392Y-84699500D01*
X131210298Y-84703251D01*
X131094067Y-84714699D01*
X130896043Y-84774769D01*
X130796737Y-84827850D01*
X130713550Y-84872315D01*
X130713548Y-84872316D01*
X130713547Y-84872317D01*
X130553589Y-85003589D01*
X130422317Y-85163547D01*
X130324769Y-85346043D01*
X130264699Y-85544067D01*
X130244417Y-85750000D01*
X126950500Y-85750000D01*
X126950500Y-83824500D01*
X126970185Y-83757461D01*
X127022989Y-83711706D01*
X127074500Y-83700500D01*
X130275325Y-83700500D01*
X130342364Y-83720185D01*
X130384683Y-83766047D01*
X130422311Y-83836444D01*
X130422315Y-83836450D01*
X130553589Y-83996410D01*
X130650209Y-84075702D01*
X130713550Y-84127685D01*
X130896046Y-84225232D01*
X131094066Y-84285300D01*
X131094065Y-84285300D01*
X131122626Y-84288113D01*
X131248392Y-84300500D01*
X131248395Y-84300500D01*
X131601605Y-84300500D01*
X131601608Y-84300500D01*
X131755934Y-84285300D01*
X131953954Y-84225232D01*
X132136450Y-84127685D01*
X132296410Y-83996410D01*
X132427685Y-83836450D01*
X132525232Y-83653954D01*
X132585300Y-83455934D01*
X132605583Y-83250000D01*
X132585300Y-83044066D01*
X132525232Y-82846046D01*
X132427685Y-82663550D01*
X132352897Y-82572420D01*
X132296410Y-82503589D01*
X132178677Y-82406969D01*
X132136450Y-82372315D01*
X131953954Y-82274768D01*
X131755934Y-82214700D01*
X131755932Y-82214699D01*
X131755934Y-82214699D01*
X131636805Y-82202966D01*
X131601608Y-82199500D01*
X131248392Y-82199500D01*
X131210298Y-82203251D01*
X131094067Y-82214699D01*
X130896043Y-82274769D01*
X130785897Y-82333643D01*
X130713550Y-82372315D01*
X130713548Y-82372316D01*
X130713547Y-82372317D01*
X130553589Y-82503589D01*
X130422315Y-82663549D01*
X130422311Y-82663555D01*
X130384683Y-82733953D01*
X130335721Y-82783797D01*
X130275325Y-82799500D01*
X127074500Y-82799500D01*
X127007461Y-82779815D01*
X126961706Y-82727011D01*
X126950500Y-82675500D01*
X126950500Y-80749999D01*
X130244417Y-80749999D01*
X130264699Y-80955932D01*
X130264700Y-80955934D01*
X130324768Y-81153954D01*
X130422315Y-81336450D01*
X130422317Y-81336452D01*
X130553589Y-81496410D01*
X130650209Y-81575702D01*
X130713550Y-81627685D01*
X130896046Y-81725232D01*
X131094066Y-81785300D01*
X131094065Y-81785300D01*
X131132647Y-81789100D01*
X131248392Y-81800500D01*
X131248395Y-81800500D01*
X131601605Y-81800500D01*
X131601608Y-81800500D01*
X131755934Y-81785300D01*
X131953954Y-81725232D01*
X132136450Y-81627685D01*
X132296410Y-81496410D01*
X132427685Y-81336450D01*
X132525232Y-81153954D01*
X132585300Y-80955934D01*
X132605583Y-80750000D01*
X132585300Y-80544066D01*
X132525232Y-80346046D01*
X132427685Y-80163550D01*
X132375702Y-80100209D01*
X132296410Y-80003589D01*
X132136452Y-79872317D01*
X132136453Y-79872317D01*
X132136450Y-79872315D01*
X131953954Y-79774768D01*
X131755934Y-79714700D01*
X131755932Y-79714699D01*
X131755934Y-79714699D01*
X131636805Y-79702966D01*
X131601608Y-79699500D01*
X131248392Y-79699500D01*
X131210298Y-79703251D01*
X131094067Y-79714699D01*
X130896043Y-79774769D01*
X130785897Y-79833643D01*
X130713550Y-79872315D01*
X130713548Y-79872316D01*
X130713547Y-79872317D01*
X130553589Y-80003589D01*
X130422317Y-80163547D01*
X130324769Y-80346043D01*
X130264699Y-80544067D01*
X130244417Y-80749999D01*
X126950500Y-80749999D01*
X126950500Y-76000000D01*
X129969364Y-76000000D01*
X130026567Y-76213486D01*
X130026570Y-76213492D01*
X130126399Y-76427577D01*
X130126400Y-76427579D01*
X130261886Y-76621073D01*
X130261891Y-76621079D01*
X130428920Y-76788108D01*
X130428926Y-76788113D01*
X130622420Y-76923599D01*
X130622422Y-76923600D01*
X130836507Y-77023429D01*
X130836518Y-77023434D01*
X130888631Y-77037397D01*
X130948292Y-77073761D01*
X130978822Y-77136608D01*
X130970528Y-77205983D01*
X130926043Y-77259862D01*
X130901339Y-77271641D01*
X130901670Y-77272438D01*
X130896051Y-77274765D01*
X130896044Y-77274769D01*
X130713550Y-77372315D01*
X130713548Y-77372316D01*
X130713547Y-77372317D01*
X130553589Y-77503589D01*
X130422317Y-77663547D01*
X130324769Y-77846043D01*
X130264699Y-78044067D01*
X130244417Y-78250000D01*
X130264699Y-78455932D01*
X130294733Y-78554944D01*
X130324768Y-78653954D01*
X130422315Y-78836450D01*
X130422317Y-78836452D01*
X130553589Y-78996410D01*
X130650209Y-79075702D01*
X130713550Y-79127685D01*
X130896046Y-79225232D01*
X131094066Y-79285300D01*
X131094065Y-79285300D01*
X131132647Y-79289100D01*
X131248392Y-79300500D01*
X131248395Y-79300500D01*
X131601605Y-79300500D01*
X131601608Y-79300500D01*
X131755934Y-79285300D01*
X131953954Y-79225232D01*
X132136450Y-79127685D01*
X132296410Y-78996410D01*
X132427685Y-78836450D01*
X132525232Y-78653954D01*
X132585300Y-78455934D01*
X132605583Y-78250000D01*
X132585300Y-78044066D01*
X132525232Y-77846046D01*
X132427685Y-77663550D01*
X132375702Y-77600209D01*
X132296410Y-77503589D01*
X132136452Y-77372317D01*
X132136453Y-77372317D01*
X132136450Y-77372315D01*
X131953954Y-77274768D01*
X131953953Y-77274767D01*
X131953948Y-77274765D01*
X131948330Y-77272438D01*
X131949172Y-77270404D01*
X131899009Y-77237515D01*
X131870566Y-77173697D01*
X131881141Y-77104632D01*
X131927377Y-77052248D01*
X131961368Y-77037397D01*
X132013481Y-77023434D01*
X132013492Y-77023429D01*
X132227577Y-76923600D01*
X132227579Y-76923599D01*
X132421073Y-76788113D01*
X132421079Y-76788108D01*
X132588105Y-76621082D01*
X132723600Y-76427578D01*
X132823429Y-76213492D01*
X132823432Y-76213486D01*
X132880636Y-76000000D01*
X131828969Y-76000000D01*
X131861519Y-75949351D01*
X131900000Y-75818295D01*
X131900000Y-75681705D01*
X131861519Y-75550649D01*
X131828969Y-75500000D01*
X132880636Y-75500000D01*
X132880635Y-75499999D01*
X132823432Y-75286513D01*
X132823429Y-75286507D01*
X132723600Y-75072422D01*
X132723599Y-75072420D01*
X132588113Y-74878926D01*
X132588108Y-74878920D01*
X132421079Y-74711891D01*
X132421073Y-74711886D01*
X132227579Y-74576400D01*
X132227577Y-74576399D01*
X132142832Y-74536882D01*
X132090393Y-74490710D01*
X132071241Y-74423516D01*
X132091457Y-74356635D01*
X132144622Y-74311300D01*
X132195237Y-74300500D01*
X132204270Y-74300500D01*
X132234699Y-74297646D01*
X132234701Y-74297646D01*
X132298790Y-74275219D01*
X132362882Y-74252793D01*
X132472150Y-74172150D01*
X132552793Y-74062882D01*
X132576052Y-73996410D01*
X132597646Y-73934701D01*
X132597646Y-73934699D01*
X132600500Y-73904269D01*
X132600500Y-72595730D01*
X132597646Y-72565300D01*
X132597646Y-72565298D01*
X132559540Y-72456401D01*
X132552793Y-72437118D01*
X132472150Y-72327850D01*
X132362882Y-72247207D01*
X132362880Y-72247206D01*
X132234700Y-72202353D01*
X132204270Y-72199500D01*
X132204266Y-72199500D01*
X130645734Y-72199500D01*
X130645730Y-72199500D01*
X130615300Y-72202353D01*
X130615298Y-72202353D01*
X130487119Y-72247206D01*
X130487117Y-72247207D01*
X130377850Y-72327850D01*
X130297207Y-72437117D01*
X130297206Y-72437119D01*
X130252353Y-72565298D01*
X130252353Y-72565300D01*
X130249499Y-72595730D01*
X130249499Y-73904269D01*
X130252353Y-73934699D01*
X130252353Y-73934701D01*
X130297206Y-74062880D01*
X130297207Y-74062882D01*
X130377850Y-74172150D01*
X130487118Y-74252793D01*
X130529845Y-74267744D01*
X130615299Y-74297646D01*
X130645730Y-74300500D01*
X130654763Y-74300500D01*
X130721802Y-74320185D01*
X130767557Y-74372989D01*
X130777501Y-74442147D01*
X130748476Y-74505703D01*
X130707168Y-74536882D01*
X130622422Y-74576399D01*
X130622420Y-74576400D01*
X130428926Y-74711886D01*
X130428920Y-74711891D01*
X130261894Y-74878917D01*
X130126399Y-75072421D01*
X130026570Y-75286507D01*
X130026567Y-75286513D01*
X129969364Y-75499999D01*
X129969364Y-75500000D01*
X131021031Y-75500000D01*
X130988481Y-75550649D01*
X130950000Y-75681705D01*
X130950000Y-75818295D01*
X130988481Y-75949351D01*
X131021031Y-76000000D01*
X129969364Y-76000000D01*
X126950500Y-76000000D01*
X126950500Y-69762822D01*
X126950520Y-69761251D01*
X126952644Y-69677457D01*
X126952643Y-69677456D01*
X126952644Y-69677453D01*
X126942382Y-69620204D01*
X126941729Y-69615537D01*
X126935845Y-69557680D01*
X126935844Y-69557674D01*
X126926132Y-69526723D01*
X126924262Y-69519105D01*
X126918539Y-69487172D01*
X126896963Y-69433157D01*
X126895382Y-69428716D01*
X126877975Y-69373234D01*
X126877974Y-69373233D01*
X126877974Y-69373232D01*
X126862233Y-69344873D01*
X126858863Y-69337775D01*
X126846830Y-69307652D01*
X126846830Y-69307651D01*
X126814822Y-69259085D01*
X126812382Y-69255056D01*
X126784159Y-69204209D01*
X126763030Y-69179597D01*
X126758304Y-69173330D01*
X126740451Y-69146241D01*
X126740450Y-69146239D01*
X126719891Y-69125680D01*
X126699319Y-69105109D01*
X126696128Y-69101666D01*
X126658240Y-69057532D01*
X126632590Y-69037677D01*
X126626696Y-69032486D01*
X125594162Y-67999952D01*
X124506149Y-66911939D01*
X124505091Y-66910853D01*
X124447324Y-66850082D01*
X124447320Y-66850079D01*
X124430756Y-66838550D01*
X124399567Y-66816841D01*
X124395833Y-66814025D01*
X124350751Y-66777266D01*
X124350747Y-66777264D01*
X124350746Y-66777263D01*
X124350745Y-66777262D01*
X124321997Y-66762246D01*
X124315277Y-66758174D01*
X124288659Y-66739647D01*
X124235209Y-66716710D01*
X124230952Y-66714688D01*
X124179409Y-66687764D01*
X124179407Y-66687763D01*
X124179406Y-66687763D01*
X124162689Y-66682979D01*
X124148221Y-66678839D01*
X124140822Y-66676205D01*
X124111011Y-66663412D01*
X124111012Y-66663412D01*
X124054038Y-66651703D01*
X124049463Y-66650580D01*
X123993556Y-66634583D01*
X123993545Y-66634582D01*
X123961208Y-66632120D01*
X123953428Y-66631029D01*
X123921657Y-66624500D01*
X123921656Y-66624500D01*
X123863497Y-66624500D01*
X123858790Y-66624321D01*
X123853850Y-66623944D01*
X123800798Y-66619904D01*
X123783176Y-66622149D01*
X123768614Y-66624003D01*
X123760785Y-66624500D01*
X117724869Y-66624500D01*
X117657830Y-66604815D01*
X117646205Y-66596354D01*
X117586452Y-66547317D01*
X117586453Y-66547317D01*
X117586450Y-66547315D01*
X117403954Y-66449768D01*
X117205934Y-66389700D01*
X117205932Y-66389699D01*
X117205934Y-66389699D01*
X117000000Y-66369417D01*
X116794067Y-66389699D01*
X116618692Y-66442898D01*
X116609223Y-66445771D01*
X116596043Y-66449769D01*
X116491078Y-66505875D01*
X116413550Y-66547315D01*
X116413548Y-66547316D01*
X116413547Y-66547317D01*
X116253589Y-66678589D01*
X116140120Y-66816854D01*
X116122315Y-66838550D01*
X116083357Y-66911435D01*
X116034394Y-66961279D01*
X115966256Y-66976739D01*
X115900577Y-66952907D01*
X115858208Y-66897349D01*
X115849999Y-66852981D01*
X115849999Y-66775028D01*
X115849998Y-66775012D01*
X115839505Y-66672302D01*
X115784358Y-66505880D01*
X115784356Y-66505875D01*
X115692315Y-66356654D01*
X115568345Y-66232684D01*
X115419124Y-66140643D01*
X115419119Y-66140641D01*
X115252697Y-66085494D01*
X115252690Y-66085493D01*
X115149986Y-66075000D01*
X114750000Y-66075000D01*
X114750000Y-67139498D01*
X114642315Y-67090320D01*
X114535763Y-67075000D01*
X114464237Y-67075000D01*
X114357685Y-67090320D01*
X114250000Y-67139498D01*
X114250000Y-66075000D01*
X113850028Y-66075000D01*
X113850012Y-66075001D01*
X113747302Y-66085494D01*
X113580880Y-66140641D01*
X113580875Y-66140643D01*
X113431654Y-66232684D01*
X113307684Y-66356654D01*
X113215643Y-66505875D01*
X113215641Y-66505880D01*
X113160494Y-66672302D01*
X113160493Y-66672309D01*
X113150000Y-66775013D01*
X113150000Y-67325000D01*
X114066314Y-67325000D01*
X114040507Y-67365156D01*
X114000000Y-67503111D01*
X114000000Y-67646889D01*
X114040507Y-67784844D01*
X114066314Y-67825000D01*
X113150001Y-67825000D01*
X113150001Y-68374986D01*
X113160494Y-68477697D01*
X113215641Y-68644119D01*
X113215643Y-68644124D01*
X113307684Y-68793345D01*
X113431654Y-68917315D01*
X113580875Y-69009356D01*
X113580880Y-69009358D01*
X113747302Y-69064505D01*
X113747309Y-69064506D01*
X113850019Y-69074999D01*
X114249999Y-69074999D01*
X114250000Y-69074998D01*
X114250000Y-68010501D01*
X114357685Y-68059680D01*
X114464237Y-68075000D01*
X114535763Y-68075000D01*
X114642315Y-68059680D01*
X114750000Y-68010501D01*
X114750000Y-69074999D01*
X115149972Y-69074999D01*
X115149986Y-69074998D01*
X115252697Y-69064505D01*
X115419119Y-69009358D01*
X115419124Y-69009356D01*
X115568345Y-68917315D01*
X115692315Y-68793345D01*
X115784356Y-68644124D01*
X115784358Y-68644119D01*
X115807794Y-68573395D01*
X115847566Y-68515950D01*
X115912082Y-68489127D01*
X115980858Y-68501442D01*
X116032058Y-68548985D01*
X116049500Y-68612399D01*
X116049500Y-69304927D01*
X116029815Y-69371966D01*
X116013181Y-69392608D01*
X114771996Y-70633792D01*
X114770872Y-70634888D01*
X114710085Y-70692671D01*
X114710082Y-70692675D01*
X114676855Y-70740411D01*
X114674020Y-70744172D01*
X114637265Y-70789250D01*
X114622248Y-70817998D01*
X114618179Y-70824714D01*
X114599646Y-70851342D01*
X114599646Y-70851343D01*
X114592499Y-70867998D01*
X114578190Y-70901343D01*
X114576711Y-70904789D01*
X114574689Y-70909046D01*
X114547764Y-70960591D01*
X114547762Y-70960595D01*
X114538839Y-70991776D01*
X114536206Y-70999172D01*
X114523412Y-71028987D01*
X114523412Y-71028988D01*
X114511703Y-71085960D01*
X114510580Y-71090534D01*
X114494583Y-71146448D01*
X114494581Y-71146454D01*
X114492120Y-71178791D01*
X114491029Y-71186572D01*
X114484500Y-71218343D01*
X114484500Y-71276502D01*
X114484321Y-71281211D01*
X114479904Y-71339201D01*
X114481804Y-71354120D01*
X114484003Y-71371385D01*
X114484500Y-71379214D01*
X114484500Y-73418366D01*
X114479161Y-73454361D01*
X114448975Y-73553869D01*
X114429659Y-73750000D01*
X114448975Y-73946129D01*
X114506188Y-74134733D01*
X114599086Y-74308532D01*
X114599090Y-74308539D01*
X114724116Y-74460883D01*
X114876460Y-74585909D01*
X114876467Y-74585913D01*
X115050266Y-74678811D01*
X115050269Y-74678811D01*
X115050273Y-74678814D01*
X115238868Y-74736024D01*
X115435000Y-74755341D01*
X115631132Y-74736024D01*
X115819727Y-74678814D01*
X115993538Y-74585910D01*
X116145883Y-74460883D01*
X116270910Y-74308538D01*
X116363814Y-74134727D01*
X116421024Y-73946132D01*
X116427597Y-73879393D01*
X116453758Y-73814607D01*
X116510792Y-73774248D01*
X116580592Y-73771131D01*
X116640997Y-73806245D01*
X116672828Y-73868443D01*
X116675000Y-73891548D01*
X116675000Y-74597844D01*
X116681401Y-74657372D01*
X116681403Y-74657379D01*
X116731645Y-74792086D01*
X116731649Y-74792093D01*
X116817809Y-74907187D01*
X116817812Y-74907190D01*
X116932906Y-74993350D01*
X116932913Y-74993354D01*
X117067620Y-75043596D01*
X117067627Y-75043598D01*
X117127155Y-75049999D01*
X117127172Y-75050000D01*
X117724999Y-75050000D01*
X117724999Y-74185501D01*
X117832685Y-74234680D01*
X117939237Y-74250000D01*
X118010763Y-74250000D01*
X118117315Y-74234680D01*
X118224999Y-74185501D01*
X118224999Y-75049999D01*
X118225000Y-75050000D01*
X118822828Y-75050000D01*
X118822844Y-75049999D01*
X118882372Y-75043598D01*
X118882379Y-75043596D01*
X119017086Y-74993354D01*
X119017093Y-74993350D01*
X119132187Y-74907190D01*
X119132190Y-74907187D01*
X119218350Y-74792093D01*
X119218354Y-74792086D01*
X119268596Y-74657379D01*
X119268598Y-74657372D01*
X119274999Y-74597844D01*
X119275000Y-74597827D01*
X119275000Y-74000000D01*
X118408686Y-74000000D01*
X118434493Y-73959844D01*
X118475000Y-73821889D01*
X118475000Y-73678111D01*
X118434493Y-73540156D01*
X118408686Y-73500000D01*
X119275000Y-73500000D01*
X119275000Y-72902172D01*
X119274999Y-72902155D01*
X119268598Y-72842627D01*
X119268596Y-72842620D01*
X119218354Y-72707913D01*
X119218350Y-72707906D01*
X119132190Y-72592812D01*
X119132187Y-72592809D01*
X119017093Y-72506649D01*
X119017086Y-72506645D01*
X118882379Y-72456403D01*
X118882372Y-72456401D01*
X118822844Y-72450000D01*
X118225000Y-72450000D01*
X118224999Y-73314498D01*
X118117315Y-73265320D01*
X118010763Y-73250000D01*
X117939237Y-73250000D01*
X117832685Y-73265320D01*
X117724999Y-73314498D01*
X117725000Y-72450000D01*
X117127155Y-72450000D01*
X117067627Y-72456401D01*
X117067620Y-72456403D01*
X116932913Y-72506645D01*
X116932906Y-72506649D01*
X116817812Y-72592809D01*
X116817809Y-72592812D01*
X116731649Y-72707906D01*
X116731645Y-72707913D01*
X116681403Y-72842620D01*
X116681401Y-72842627D01*
X116675000Y-72902155D01*
X116675000Y-73608451D01*
X116655315Y-73675490D01*
X116602511Y-73721245D01*
X116533353Y-73731189D01*
X116469797Y-73702164D01*
X116432023Y-73643386D01*
X116427597Y-73620605D01*
X116421024Y-73553869D01*
X116416864Y-73540156D01*
X116391316Y-73455934D01*
X116390839Y-73454361D01*
X116385500Y-73418366D01*
X116385500Y-71760071D01*
X116405185Y-71693032D01*
X116421814Y-71672395D01*
X117663096Y-70431112D01*
X117664109Y-70430125D01*
X117724919Y-70372323D01*
X117758161Y-70324562D01*
X117760962Y-70320846D01*
X117797734Y-70275751D01*
X117812752Y-70246998D01*
X117816822Y-70240282D01*
X117825076Y-70228423D01*
X117835353Y-70213658D01*
X117858301Y-70160179D01*
X117860300Y-70155969D01*
X117887236Y-70104406D01*
X117896157Y-70073230D01*
X117898792Y-70065828D01*
X117908321Y-70043623D01*
X117911587Y-70036012D01*
X117923295Y-69979039D01*
X117924419Y-69974460D01*
X117927200Y-69964738D01*
X117940417Y-69918552D01*
X117942880Y-69886195D01*
X117943967Y-69878437D01*
X117950500Y-69846656D01*
X117950500Y-69788496D01*
X117950679Y-69783787D01*
X117955095Y-69725800D01*
X117952610Y-69706289D01*
X117950996Y-69693612D01*
X117950500Y-69685799D01*
X117950500Y-68649500D01*
X117970185Y-68582460D01*
X118022989Y-68536706D01*
X118074500Y-68525500D01*
X123379928Y-68525500D01*
X123446967Y-68545185D01*
X123467609Y-68561819D01*
X125013180Y-70107390D01*
X125046665Y-70168713D01*
X125049499Y-70195071D01*
X125049500Y-76913035D01*
X125029815Y-76980074D01*
X124977011Y-77025829D01*
X124907853Y-77035773D01*
X124844297Y-77006748D01*
X124837819Y-77000716D01*
X124188908Y-76351805D01*
X124184271Y-76346617D01*
X124176163Y-76336450D01*
X124159879Y-76316030D01*
X124159878Y-76316029D01*
X124159877Y-76316028D01*
X124136973Y-76300412D01*
X124111669Y-76283161D01*
X124109803Y-76281836D01*
X124062886Y-76247210D01*
X124062882Y-76247207D01*
X124062877Y-76247205D01*
X124055297Y-76243198D01*
X124047675Y-76239528D01*
X123991941Y-76222337D01*
X123989752Y-76221617D01*
X123966513Y-76213486D01*
X123934695Y-76202352D01*
X123926326Y-76200768D01*
X123917904Y-76199500D01*
X123917902Y-76199500D01*
X123859578Y-76199500D01*
X123857294Y-76199457D01*
X123833402Y-76198563D01*
X123798989Y-76197275D01*
X123789756Y-76198316D01*
X123789662Y-76197486D01*
X123774364Y-76199500D01*
X92687965Y-76199500D01*
X92620926Y-76179815D01*
X92600284Y-76163181D01*
X91888908Y-75451805D01*
X91884271Y-75446617D01*
X91859879Y-75416030D01*
X91859878Y-75416029D01*
X91859877Y-75416028D01*
X91836973Y-75400412D01*
X91811669Y-75383161D01*
X91809803Y-75381836D01*
X91762886Y-75347210D01*
X91762882Y-75347207D01*
X91762877Y-75347205D01*
X91755297Y-75343198D01*
X91747675Y-75339528D01*
X91691941Y-75322337D01*
X91689752Y-75321617D01*
X91671297Y-75315160D01*
X91634695Y-75302352D01*
X91626326Y-75300768D01*
X91617904Y-75299500D01*
X91617902Y-75299500D01*
X91559578Y-75299500D01*
X91557294Y-75299457D01*
X91533402Y-75298563D01*
X91498989Y-75297275D01*
X91489756Y-75298316D01*
X91489662Y-75297486D01*
X91474364Y-75299500D01*
X88224675Y-75299500D01*
X88157636Y-75279815D01*
X88115317Y-75233953D01*
X88077688Y-75163555D01*
X88077684Y-75163549D01*
X88077682Y-75163547D01*
X88002897Y-75072420D01*
X87946410Y-75003589D01*
X87828677Y-74906969D01*
X87786450Y-74872315D01*
X87603954Y-74774768D01*
X87405934Y-74714700D01*
X87405932Y-74714699D01*
X87405934Y-74714699D01*
X87286805Y-74702966D01*
X87251608Y-74699500D01*
X86898392Y-74699500D01*
X86860298Y-74703251D01*
X86744067Y-74714699D01*
X86546043Y-74774769D01*
X86513633Y-74792093D01*
X86363550Y-74872315D01*
X86363548Y-74872316D01*
X86363547Y-74872317D01*
X86203589Y-75003589D01*
X86072317Y-75163547D01*
X86072315Y-75163550D01*
X86034683Y-75233953D01*
X85974769Y-75346043D01*
X85974768Y-75346045D01*
X85974768Y-75346046D01*
X85974416Y-75347207D01*
X85914699Y-75544067D01*
X85894417Y-75750000D01*
X85914699Y-75955932D01*
X85914700Y-75955934D01*
X85974768Y-76153954D01*
X86072315Y-76336450D01*
X86106969Y-76378677D01*
X86203589Y-76496410D01*
X86300209Y-76575702D01*
X86363550Y-76627685D01*
X86546046Y-76725232D01*
X86744066Y-76785300D01*
X86744065Y-76785300D01*
X86772626Y-76788113D01*
X86898392Y-76800500D01*
X86898395Y-76800500D01*
X87251605Y-76800500D01*
X87251608Y-76800500D01*
X87405934Y-76785300D01*
X87603954Y-76725232D01*
X87786450Y-76627685D01*
X87946410Y-76496410D01*
X88077685Y-76336450D01*
X88088601Y-76316028D01*
X88115317Y-76266047D01*
X88164279Y-76216203D01*
X88224675Y-76200500D01*
X91312034Y-76200500D01*
X91379073Y-76220185D01*
X91399715Y-76236819D01*
X92111090Y-76948193D01*
X92115726Y-76953380D01*
X92140121Y-76983970D01*
X92140123Y-76983972D01*
X92188321Y-77016833D01*
X92190212Y-77018175D01*
X92237118Y-77052793D01*
X92244665Y-77056781D01*
X92252322Y-77060468D01*
X92252327Y-77060472D01*
X92308079Y-77077669D01*
X92310246Y-77078382D01*
X92322790Y-77082771D01*
X92365300Y-77097646D01*
X92365305Y-77097646D01*
X92373698Y-77099234D01*
X92382095Y-77100500D01*
X92382098Y-77100500D01*
X92440421Y-77100500D01*
X92442704Y-77100542D01*
X92501010Y-77102724D01*
X92510243Y-77101684D01*
X92510336Y-77102513D01*
X92525636Y-77100500D01*
X123612034Y-77100500D01*
X123679073Y-77120185D01*
X123699714Y-77136818D01*
X125013182Y-78450286D01*
X125046666Y-78511607D01*
X125049500Y-78537965D01*
X125049500Y-78653344D01*
X125049499Y-83004697D01*
X125049500Y-83004707D01*
X125049500Y-89487160D01*
X125049480Y-89488731D01*
X125047355Y-89572545D01*
X125047355Y-89572546D01*
X125057615Y-89629787D01*
X125058269Y-89634452D01*
X125064154Y-89692318D01*
X125064156Y-89692326D01*
X125073865Y-89723269D01*
X125075737Y-89730898D01*
X125081460Y-89762828D01*
X125081461Y-89762830D01*
X125103032Y-89816833D01*
X125104613Y-89821272D01*
X125122025Y-89876768D01*
X125137765Y-89905125D01*
X125141135Y-89912221D01*
X125143924Y-89919202D01*
X125153170Y-89942348D01*
X125153172Y-89942351D01*
X125153173Y-89942353D01*
X125185174Y-89990908D01*
X125187605Y-89994920D01*
X125212713Y-90040156D01*
X125215841Y-90045791D01*
X125236972Y-90070406D01*
X125241703Y-90076680D01*
X125259547Y-90103757D01*
X125300667Y-90144877D01*
X125303870Y-90148333D01*
X125323814Y-90171564D01*
X125341760Y-90192468D01*
X125341764Y-90192471D01*
X125341765Y-90192472D01*
X125367407Y-90212320D01*
X125373303Y-90217513D01*
X127068850Y-91913060D01*
X127069875Y-91914111D01*
X127127677Y-91974919D01*
X127175414Y-92008145D01*
X127179161Y-92010970D01*
X127198011Y-92026340D01*
X127224244Y-92047731D01*
X127224247Y-92047733D01*
X127252995Y-92062749D01*
X127259716Y-92066821D01*
X127272186Y-92075500D01*
X127286342Y-92085353D01*
X127339800Y-92108293D01*
X127344047Y-92110311D01*
X127395594Y-92137237D01*
X127426781Y-92146160D01*
X127434169Y-92148790D01*
X127463988Y-92161587D01*
X127520970Y-92173296D01*
X127525516Y-92174411D01*
X127581449Y-92190417D01*
X127613803Y-92192879D01*
X127621562Y-92193968D01*
X127653344Y-92200500D01*
X127711504Y-92200500D01*
X127716210Y-92200678D01*
X127739623Y-92202461D01*
X127774201Y-92205095D01*
X127774201Y-92205094D01*
X127774203Y-92205095D01*
X127806385Y-92200996D01*
X127814215Y-92200500D01*
X130304928Y-92200500D01*
X130371967Y-92220185D01*
X130392609Y-92236819D01*
X131263181Y-93107391D01*
X131296666Y-93168714D01*
X131299500Y-93195072D01*
X131299500Y-96112034D01*
X131279815Y-96179073D01*
X131263181Y-96199715D01*
X130899716Y-96563181D01*
X130838393Y-96596666D01*
X130812035Y-96599500D01*
X108638783Y-96599500D01*
X108631844Y-96599110D01*
X108618630Y-96597621D01*
X108592965Y-96594729D01*
X108581605Y-96596879D01*
X108579179Y-96597338D01*
X108556128Y-96599500D01*
X106387965Y-96599500D01*
X106320926Y-96579815D01*
X106300284Y-96563181D01*
X105916819Y-96179716D01*
X105883334Y-96118393D01*
X105880500Y-96092035D01*
X105880500Y-95817979D01*
X105900185Y-95750940D01*
X105946047Y-95708621D01*
X105988538Y-95685910D01*
X106140883Y-95560883D01*
X106265910Y-95408538D01*
X106358814Y-95234727D01*
X106416024Y-95046132D01*
X106435341Y-94850000D01*
X112044659Y-94850000D01*
X112063975Y-95046129D01*
X112121188Y-95234733D01*
X112214086Y-95408532D01*
X112214090Y-95408539D01*
X112339116Y-95560883D01*
X112491460Y-95685909D01*
X112491467Y-95685913D01*
X112665266Y-95778811D01*
X112665269Y-95778811D01*
X112665273Y-95778814D01*
X112853868Y-95836024D01*
X113050000Y-95855341D01*
X113246132Y-95836024D01*
X113434727Y-95778814D01*
X113608538Y-95685910D01*
X113760883Y-95560883D01*
X113885910Y-95408538D01*
X113978814Y-95234727D01*
X114036024Y-95046132D01*
X114055341Y-94850000D01*
X114036024Y-94653868D01*
X113978814Y-94465273D01*
X113978811Y-94465269D01*
X113978811Y-94465266D01*
X113885913Y-94291467D01*
X113885909Y-94291460D01*
X113760883Y-94139116D01*
X113608539Y-94014090D01*
X113608532Y-94014086D01*
X113434733Y-93921188D01*
X113434727Y-93921186D01*
X113246132Y-93863976D01*
X113246129Y-93863975D01*
X113050000Y-93844659D01*
X112853870Y-93863975D01*
X112665266Y-93921188D01*
X112491467Y-94014086D01*
X112491460Y-94014090D01*
X112339116Y-94139116D01*
X112214090Y-94291460D01*
X112214086Y-94291467D01*
X112121188Y-94465266D01*
X112063975Y-94653870D01*
X112044659Y-94850000D01*
X106435341Y-94850000D01*
X106416024Y-94653868D01*
X106358814Y-94465273D01*
X106358811Y-94465269D01*
X106358811Y-94465266D01*
X106265913Y-94291467D01*
X106265909Y-94291460D01*
X106140883Y-94139116D01*
X105988539Y-94014090D01*
X105988532Y-94014086D01*
X105814733Y-93921188D01*
X105814727Y-93921186D01*
X105626132Y-93863976D01*
X105626129Y-93863975D01*
X105430000Y-93844659D01*
X105233870Y-93863975D01*
X105045266Y-93921188D01*
X104871467Y-94014086D01*
X104871460Y-94014090D01*
X104719116Y-94139116D01*
X104594090Y-94291460D01*
X104594086Y-94291467D01*
X104501188Y-94465266D01*
X104443975Y-94653870D01*
X104424659Y-94850000D01*
X104443975Y-95046129D01*
X104501188Y-95234733D01*
X104594086Y-95408532D01*
X104594090Y-95408539D01*
X104719116Y-95560883D01*
X104871460Y-95685909D01*
X104871461Y-95685909D01*
X104871462Y-95685910D01*
X104913952Y-95708621D01*
X104963796Y-95757581D01*
X104979500Y-95817979D01*
X104979500Y-96301217D01*
X104979110Y-96308155D01*
X104977502Y-96322430D01*
X104974729Y-96347036D01*
X104985571Y-96404335D01*
X104985959Y-96406619D01*
X104994652Y-96464291D01*
X104997162Y-96472427D01*
X104999976Y-96480470D01*
X105027229Y-96532036D01*
X105028274Y-96534105D01*
X105053574Y-96586642D01*
X105058362Y-96593665D01*
X105063431Y-96600532D01*
X105063434Y-96600538D01*
X105063438Y-96600542D01*
X105104666Y-96641770D01*
X105106275Y-96643440D01*
X105145947Y-96686196D01*
X105153210Y-96691988D01*
X105152689Y-96692641D01*
X105164930Y-96702034D01*
X105811090Y-97348193D01*
X105815726Y-97353380D01*
X105840121Y-97383970D01*
X105840123Y-97383972D01*
X105888321Y-97416833D01*
X105890212Y-97418175D01*
X105937118Y-97452793D01*
X105944654Y-97456776D01*
X105952319Y-97460467D01*
X105952327Y-97460472D01*
X105979121Y-97468736D01*
X106008089Y-97477672D01*
X106010284Y-97478394D01*
X106065301Y-97497646D01*
X106065305Y-97497646D01*
X106073698Y-97499234D01*
X106082095Y-97500500D01*
X106082098Y-97500500D01*
X106140405Y-97500500D01*
X106142692Y-97500542D01*
X106197592Y-97502597D01*
X106201009Y-97502725D01*
X106201009Y-97502724D01*
X106201010Y-97502725D01*
X106201010Y-97502724D01*
X106210242Y-97501685D01*
X106210335Y-97502513D01*
X106225639Y-97500500D01*
X107360089Y-97500500D01*
X107427128Y-97520185D01*
X107472883Y-97572989D01*
X107481942Y-97635998D01*
X107482702Y-97636027D01*
X107482643Y-97637597D01*
X107482388Y-97639096D01*
X107482827Y-97642147D01*
X107481927Y-97647555D01*
X107480771Y-97653660D01*
X107479500Y-97662100D01*
X107479500Y-97720420D01*
X107479457Y-97722705D01*
X107478594Y-97745770D01*
X107477275Y-97781011D01*
X107478315Y-97790242D01*
X107477484Y-97790335D01*
X107479499Y-97805629D01*
X107479499Y-98282019D01*
X107459814Y-98349058D01*
X107413955Y-98391376D01*
X107371458Y-98414092D01*
X107219116Y-98539116D01*
X107094090Y-98691460D01*
X107094086Y-98691467D01*
X107001188Y-98865266D01*
X106943975Y-99053870D01*
X106924659Y-99250000D01*
X106943975Y-99446129D01*
X107001188Y-99634733D01*
X107094086Y-99808532D01*
X107094090Y-99808539D01*
X107219116Y-99960883D01*
X107371460Y-100085909D01*
X107371467Y-100085913D01*
X107545266Y-100178811D01*
X107545269Y-100178811D01*
X107545273Y-100178814D01*
X107733868Y-100236024D01*
X107930000Y-100255341D01*
X108126132Y-100236024D01*
X108314727Y-100178814D01*
X108488538Y-100085910D01*
X108640883Y-99960883D01*
X108765910Y-99808538D01*
X108858814Y-99634727D01*
X108916024Y-99446132D01*
X108935341Y-99250000D01*
X114544659Y-99250000D01*
X114563975Y-99446129D01*
X114621188Y-99634733D01*
X114714086Y-99808532D01*
X114714090Y-99808539D01*
X114839116Y-99960883D01*
X114991460Y-100085909D01*
X114991467Y-100085913D01*
X115165266Y-100178811D01*
X115165269Y-100178811D01*
X115165273Y-100178814D01*
X115353868Y-100236024D01*
X115550000Y-100255341D01*
X115746132Y-100236024D01*
X115934727Y-100178814D01*
X116108538Y-100085910D01*
X116260883Y-99960883D01*
X116385910Y-99808538D01*
X116478814Y-99634727D01*
X116536024Y-99446132D01*
X116555341Y-99250000D01*
X116536024Y-99053868D01*
X116478814Y-98865273D01*
X116478811Y-98865269D01*
X116478811Y-98865266D01*
X116385913Y-98691467D01*
X116385909Y-98691460D01*
X116260883Y-98539116D01*
X116108539Y-98414090D01*
X116108532Y-98414086D01*
X115934733Y-98321188D01*
X115934727Y-98321186D01*
X115746132Y-98263976D01*
X115746129Y-98263975D01*
X115550000Y-98244659D01*
X115353870Y-98263975D01*
X115165266Y-98321188D01*
X114991467Y-98414086D01*
X114991460Y-98414090D01*
X114839116Y-98539116D01*
X114714090Y-98691460D01*
X114714086Y-98691467D01*
X114621188Y-98865266D01*
X114563975Y-99053870D01*
X114544659Y-99250000D01*
X108935341Y-99250000D01*
X108916024Y-99053868D01*
X108858814Y-98865273D01*
X108858811Y-98865269D01*
X108858811Y-98865266D01*
X108765913Y-98691467D01*
X108765909Y-98691460D01*
X108640883Y-98539116D01*
X108488539Y-98414090D01*
X108446045Y-98391376D01*
X108396201Y-98342413D01*
X108380500Y-98282019D01*
X108380500Y-97967964D01*
X108400185Y-97900925D01*
X108416814Y-97880288D01*
X108760284Y-97536818D01*
X108821607Y-97503334D01*
X108847965Y-97500500D01*
X131021217Y-97500500D01*
X131028155Y-97500889D01*
X131060050Y-97504483D01*
X131067034Y-97505270D01*
X131067034Y-97505269D01*
X131067035Y-97505270D01*
X131124382Y-97494418D01*
X131126620Y-97494038D01*
X131157021Y-97489457D01*
X131226245Y-97498931D01*
X131279358Y-97544326D01*
X131299497Y-97611231D01*
X131299500Y-97612072D01*
X131299500Y-105804927D01*
X131279815Y-105871966D01*
X131263181Y-105892608D01*
X129392609Y-107763181D01*
X129331286Y-107796666D01*
X129304928Y-107799500D01*
X124862840Y-107799500D01*
X124861278Y-107799480D01*
X124853360Y-107799279D01*
X124777460Y-107797355D01*
X124777454Y-107797356D01*
X124776334Y-107797556D01*
X124754469Y-107799500D01*
X116295072Y-107799500D01*
X116228033Y-107779815D01*
X116207391Y-107763181D01*
X115266818Y-106822608D01*
X115233333Y-106761285D01*
X115230499Y-106734935D01*
X115230499Y-105821630D01*
X115235839Y-105785634D01*
X115266024Y-105686133D01*
X115267755Y-105668547D01*
X115285341Y-105490000D01*
X115814659Y-105490000D01*
X115833975Y-105686129D01*
X115850317Y-105740000D01*
X115890348Y-105871966D01*
X115891188Y-105874733D01*
X115984086Y-106048532D01*
X115984090Y-106048539D01*
X116109116Y-106200883D01*
X116261460Y-106325909D01*
X116261467Y-106325913D01*
X116435266Y-106418811D01*
X116435269Y-106418811D01*
X116435273Y-106418814D01*
X116623868Y-106476024D01*
X116820000Y-106495341D01*
X117016132Y-106476024D01*
X117204727Y-106418814D01*
X117205218Y-106418552D01*
X117339732Y-106346652D01*
X117378538Y-106325910D01*
X117530883Y-106200883D01*
X117655910Y-106048538D01*
X117727313Y-105914952D01*
X117748811Y-105874733D01*
X117748811Y-105874732D01*
X117748814Y-105874727D01*
X117806024Y-105686132D01*
X117825341Y-105490000D01*
X117806024Y-105293868D01*
X117789683Y-105239999D01*
X118081127Y-105239999D01*
X118081128Y-105240000D01*
X118926314Y-105240000D01*
X118900507Y-105280156D01*
X118860000Y-105418111D01*
X118860000Y-105561889D01*
X118900507Y-105699844D01*
X118926314Y-105740000D01*
X118081128Y-105740000D01*
X118133730Y-105936317D01*
X118133734Y-105936326D01*
X118229865Y-106142482D01*
X118360342Y-106328820D01*
X118521179Y-106489657D01*
X118707517Y-106620134D01*
X118913673Y-106716265D01*
X118913682Y-106716269D01*
X119109999Y-106768872D01*
X119110000Y-106768871D01*
X119110000Y-105925501D01*
X119217685Y-105974680D01*
X119324237Y-105990000D01*
X119395763Y-105990000D01*
X119502315Y-105974680D01*
X119610000Y-105925501D01*
X119610000Y-106768872D01*
X119806317Y-106716269D01*
X119806326Y-106716265D01*
X120012482Y-106620134D01*
X120198820Y-106489657D01*
X120359657Y-106328820D01*
X120490134Y-106142482D01*
X120586265Y-105936326D01*
X120586269Y-105936317D01*
X120638872Y-105740000D01*
X119793686Y-105740000D01*
X119819493Y-105699844D01*
X119860000Y-105561889D01*
X119860000Y-105490000D01*
X120894659Y-105490000D01*
X120913975Y-105686129D01*
X120930317Y-105740000D01*
X120970348Y-105871966D01*
X120971188Y-105874733D01*
X121064086Y-106048532D01*
X121064090Y-106048539D01*
X121189116Y-106200883D01*
X121341460Y-106325909D01*
X121341467Y-106325913D01*
X121515266Y-106418811D01*
X121515269Y-106418811D01*
X121515273Y-106418814D01*
X121703868Y-106476024D01*
X121900000Y-106495341D01*
X122096132Y-106476024D01*
X122284727Y-106418814D01*
X122285218Y-106418552D01*
X122419732Y-106346652D01*
X122458538Y-106325910D01*
X122610883Y-106200883D01*
X122735910Y-106048538D01*
X122807313Y-105914952D01*
X122828811Y-105874733D01*
X122828811Y-105874732D01*
X122828814Y-105874727D01*
X122886024Y-105686132D01*
X122905341Y-105490000D01*
X122886024Y-105293868D01*
X122828814Y-105105273D01*
X122828811Y-105105269D01*
X122828811Y-105105266D01*
X122735913Y-104931467D01*
X122735909Y-104931460D01*
X122610883Y-104779116D01*
X122458539Y-104654090D01*
X122458532Y-104654086D01*
X122284733Y-104561188D01*
X122284727Y-104561186D01*
X122096132Y-104503976D01*
X122096129Y-104503975D01*
X121900000Y-104484659D01*
X121703870Y-104503975D01*
X121515266Y-104561188D01*
X121341467Y-104654086D01*
X121341460Y-104654090D01*
X121189116Y-104779116D01*
X121064090Y-104931460D01*
X121064086Y-104931467D01*
X120971188Y-105105266D01*
X120913975Y-105293870D01*
X120894659Y-105490000D01*
X119860000Y-105490000D01*
X119860000Y-105418111D01*
X119819493Y-105280156D01*
X119793686Y-105240000D01*
X120638872Y-105240000D01*
X120638872Y-105239999D01*
X120586269Y-105043682D01*
X120586265Y-105043673D01*
X120490134Y-104837517D01*
X120359657Y-104651179D01*
X120198820Y-104490342D01*
X120012482Y-104359865D01*
X119806328Y-104263734D01*
X119610000Y-104211127D01*
X119610000Y-105054498D01*
X119502315Y-105005320D01*
X119395763Y-104990000D01*
X119324237Y-104990000D01*
X119217685Y-105005320D01*
X119109999Y-105054498D01*
X119109999Y-104211127D01*
X118913671Y-104263734D01*
X118707517Y-104359865D01*
X118521179Y-104490342D01*
X118360342Y-104651179D01*
X118229865Y-104837517D01*
X118133734Y-105043673D01*
X118133730Y-105043682D01*
X118081127Y-105239999D01*
X117789683Y-105239999D01*
X117748814Y-105105273D01*
X117748811Y-105105269D01*
X117748811Y-105105266D01*
X117655913Y-104931467D01*
X117655909Y-104931460D01*
X117530883Y-104779116D01*
X117378539Y-104654090D01*
X117378532Y-104654086D01*
X117204733Y-104561188D01*
X117204727Y-104561186D01*
X117016132Y-104503976D01*
X117016129Y-104503975D01*
X116820000Y-104484659D01*
X116623870Y-104503975D01*
X116435266Y-104561188D01*
X116261467Y-104654086D01*
X116261460Y-104654090D01*
X116109116Y-104779116D01*
X115984090Y-104931460D01*
X115984086Y-104931467D01*
X115891188Y-105105266D01*
X115833975Y-105293870D01*
X115814659Y-105490000D01*
X115285341Y-105490000D01*
X115266024Y-105293868D01*
X115208814Y-105105273D01*
X115208811Y-105105269D01*
X115208811Y-105105266D01*
X115115913Y-104931467D01*
X115115909Y-104931460D01*
X114990883Y-104779116D01*
X114838539Y-104654090D01*
X114838532Y-104654086D01*
X114664733Y-104561188D01*
X114664727Y-104561186D01*
X114476132Y-104503976D01*
X114476129Y-104503975D01*
X114280000Y-104484659D01*
X114083870Y-104503975D01*
X113895266Y-104561188D01*
X113721467Y-104654086D01*
X113721460Y-104654090D01*
X113569115Y-104779117D01*
X113555352Y-104795888D01*
X113497605Y-104835222D01*
X113427761Y-104837091D01*
X113367993Y-104800903D01*
X113337278Y-104738146D01*
X113335500Y-104717222D01*
X113335500Y-104359865D01*
X113335499Y-103984790D01*
X113355183Y-103917755D01*
X113401042Y-103875438D01*
X113568538Y-103785910D01*
X113720883Y-103660883D01*
X113845910Y-103508538D01*
X113938814Y-103334727D01*
X113996024Y-103146132D01*
X114015341Y-102950000D01*
X114544659Y-102950000D01*
X114563975Y-103146129D01*
X114621188Y-103334733D01*
X114714086Y-103508532D01*
X114714090Y-103508539D01*
X114839116Y-103660883D01*
X114991460Y-103785909D01*
X114991467Y-103785913D01*
X115165266Y-103878811D01*
X115165269Y-103878811D01*
X115165273Y-103878814D01*
X115353868Y-103936024D01*
X115550000Y-103955341D01*
X115746132Y-103936024D01*
X115934727Y-103878814D01*
X116108538Y-103785910D01*
X116260883Y-103660883D01*
X116385910Y-103508538D01*
X116478814Y-103334727D01*
X116536024Y-103146132D01*
X116555341Y-102950000D01*
X116536024Y-102753868D01*
X116478814Y-102565273D01*
X116478811Y-102565269D01*
X116478811Y-102565266D01*
X116385913Y-102391467D01*
X116385909Y-102391460D01*
X116260883Y-102239116D01*
X116108539Y-102114090D01*
X116108532Y-102114086D01*
X115934733Y-102021188D01*
X115934727Y-102021186D01*
X115746132Y-101963976D01*
X115746129Y-101963975D01*
X115550000Y-101944659D01*
X115353870Y-101963975D01*
X115165266Y-102021188D01*
X114991467Y-102114086D01*
X114991460Y-102114090D01*
X114839116Y-102239116D01*
X114714090Y-102391460D01*
X114714086Y-102391467D01*
X114621188Y-102565266D01*
X114563975Y-102753870D01*
X114544659Y-102950000D01*
X114015341Y-102950000D01*
X113996024Y-102753868D01*
X113938814Y-102565273D01*
X113938811Y-102565269D01*
X113938811Y-102565266D01*
X113845913Y-102391467D01*
X113845909Y-102391460D01*
X113720883Y-102239116D01*
X113568539Y-102114090D01*
X113568532Y-102114086D01*
X113394733Y-102021188D01*
X113394727Y-102021186D01*
X113206132Y-101963976D01*
X113206129Y-101963975D01*
X113010000Y-101944659D01*
X112813870Y-101963975D01*
X112625266Y-102021188D01*
X112451467Y-102114086D01*
X112451460Y-102114090D01*
X112299116Y-102239116D01*
X112174090Y-102391460D01*
X112174086Y-102391467D01*
X112081188Y-102565266D01*
X112023975Y-102753870D01*
X112004659Y-102950000D01*
X112023975Y-103146129D01*
X112081188Y-103334733D01*
X112174086Y-103508532D01*
X112174090Y-103508539D01*
X112299116Y-103660883D01*
X112451460Y-103785909D01*
X112451467Y-103785913D01*
X112618953Y-103875436D01*
X112668797Y-103924398D01*
X112684500Y-103984794D01*
X112684500Y-104717222D01*
X112664815Y-104784261D01*
X112612011Y-104830016D01*
X112542853Y-104839960D01*
X112479297Y-104810935D01*
X112464648Y-104795888D01*
X112450884Y-104779117D01*
X112298539Y-104654090D01*
X112298532Y-104654086D01*
X112124733Y-104561188D01*
X112124727Y-104561186D01*
X111936132Y-104503976D01*
X111936129Y-104503975D01*
X111740000Y-104484659D01*
X111543870Y-104503975D01*
X111355266Y-104561188D01*
X111181467Y-104654086D01*
X111181460Y-104654090D01*
X111029116Y-104779116D01*
X110904090Y-104931460D01*
X110904086Y-104931467D01*
X110811188Y-105105266D01*
X110753975Y-105293870D01*
X110734659Y-105490000D01*
X110753975Y-105686129D01*
X110770317Y-105740000D01*
X110810348Y-105871966D01*
X110811188Y-105874733D01*
X110904086Y-106048532D01*
X110904090Y-106048539D01*
X111029116Y-106200883D01*
X111181460Y-106325909D01*
X111181467Y-106325913D01*
X111355266Y-106418811D01*
X111355269Y-106418811D01*
X111355273Y-106418814D01*
X111543868Y-106476024D01*
X111740000Y-106495341D01*
X111936132Y-106476024D01*
X112124727Y-106418814D01*
X112125218Y-106418552D01*
X112259732Y-106346652D01*
X112298538Y-106325910D01*
X112450883Y-106200883D01*
X112462947Y-106186182D01*
X112464646Y-106184113D01*
X112522392Y-106144778D01*
X112592236Y-106142907D01*
X112652005Y-106179094D01*
X112682721Y-106241850D01*
X112684500Y-106262777D01*
X112684500Y-112593078D01*
X112684264Y-112598485D01*
X112680735Y-112638808D01*
X112691212Y-112677910D01*
X112692383Y-112683190D01*
X112699411Y-112723043D01*
X112701235Y-112728055D01*
X112708197Y-112744861D01*
X112710445Y-112749681D01*
X112710446Y-112749684D01*
X112717016Y-112759067D01*
X112733655Y-112782831D01*
X112736561Y-112787392D01*
X112756806Y-112822455D01*
X112787815Y-112848475D01*
X112791805Y-112852131D01*
X114107868Y-114168195D01*
X114111523Y-114172184D01*
X114137541Y-114203190D01*
X114137543Y-114203191D01*
X114137545Y-114203194D01*
X114172599Y-114223432D01*
X114177159Y-114226337D01*
X114210316Y-114249554D01*
X114210319Y-114249554D01*
X114215176Y-114251820D01*
X114231933Y-114258760D01*
X114236953Y-114260587D01*
X114236955Y-114260588D01*
X114276830Y-114267618D01*
X114282087Y-114268784D01*
X114321193Y-114279263D01*
X114361510Y-114275735D01*
X114366912Y-114275500D01*
X119433078Y-114275500D01*
X119438481Y-114275735D01*
X119478807Y-114279264D01*
X119517940Y-114268777D01*
X119523162Y-114267619D01*
X119563045Y-114260588D01*
X119563050Y-114260584D01*
X119568099Y-114258747D01*
X119584824Y-114251819D01*
X119589681Y-114249554D01*
X119589684Y-114249554D01*
X119622841Y-114226335D01*
X119627390Y-114223438D01*
X119662455Y-114203194D01*
X119662459Y-114203190D01*
X119673537Y-114189986D01*
X119688481Y-114172176D01*
X119692122Y-114168202D01*
X120723889Y-113136435D01*
X120785210Y-113102952D01*
X120799409Y-113100715D01*
X120955934Y-113085300D01*
X121153954Y-113025232D01*
X121336450Y-112927685D01*
X121496410Y-112796410D01*
X121627685Y-112636450D01*
X121725232Y-112453954D01*
X121785300Y-112255934D01*
X121800500Y-112101608D01*
X121800500Y-111748392D01*
X121785300Y-111594066D01*
X121725232Y-111396046D01*
X121627685Y-111213550D01*
X121513377Y-111074264D01*
X121496410Y-111053589D01*
X121372044Y-110951526D01*
X121336450Y-110922315D01*
X121153954Y-110824768D01*
X120955934Y-110764700D01*
X120955932Y-110764699D01*
X120955934Y-110764699D01*
X120750000Y-110744417D01*
X120544067Y-110764699D01*
X120346043Y-110824769D01*
X120241086Y-110880871D01*
X120163550Y-110922315D01*
X120163548Y-110922316D01*
X120163547Y-110922317D01*
X120003589Y-111053589D01*
X119872317Y-111213547D01*
X119774769Y-111396043D01*
X119714699Y-111594067D01*
X119699500Y-111748395D01*
X119699500Y-112101604D01*
X119714699Y-112255932D01*
X119738631Y-112334824D01*
X119774768Y-112453954D01*
X119859150Y-112611821D01*
X119872317Y-112636453D01*
X119995250Y-112786248D01*
X120022563Y-112850558D01*
X120010772Y-112919426D01*
X119987078Y-112952594D01*
X119351493Y-113588181D01*
X119290170Y-113621666D01*
X119263812Y-113624500D01*
X114536189Y-113624500D01*
X114469150Y-113604815D01*
X114448508Y-113588181D01*
X113371819Y-112511492D01*
X113338334Y-112450169D01*
X113335500Y-112423811D01*
X113335500Y-112101604D01*
X117199500Y-112101604D01*
X117214699Y-112255932D01*
X117238631Y-112334824D01*
X117274768Y-112453954D01*
X117372315Y-112636450D01*
X117374250Y-112638808D01*
X117503589Y-112796410D01*
X117580305Y-112859368D01*
X117663550Y-112927685D01*
X117846046Y-113025232D01*
X118044066Y-113085300D01*
X118044065Y-113085300D01*
X118062529Y-113087118D01*
X118250000Y-113105583D01*
X118455934Y-113085300D01*
X118653954Y-113025232D01*
X118836450Y-112927685D01*
X118996410Y-112796410D01*
X119127685Y-112636450D01*
X119225232Y-112453954D01*
X119285300Y-112255934D01*
X119300500Y-112101608D01*
X119300500Y-111748392D01*
X119285300Y-111594066D01*
X119225232Y-111396046D01*
X119127685Y-111213550D01*
X119013377Y-111074264D01*
X118996410Y-111053589D01*
X118872044Y-110951526D01*
X118836450Y-110922315D01*
X118653954Y-110824768D01*
X118455934Y-110764700D01*
X118455932Y-110764699D01*
X118455934Y-110764699D01*
X118268463Y-110746235D01*
X118250000Y-110744417D01*
X118249999Y-110744417D01*
X118044067Y-110764699D01*
X117846043Y-110824769D01*
X117741086Y-110880871D01*
X117663550Y-110922315D01*
X117663548Y-110922316D01*
X117663547Y-110922317D01*
X117503589Y-111053589D01*
X117372317Y-111213547D01*
X117274769Y-111396043D01*
X117214699Y-111594067D01*
X117199500Y-111748395D01*
X117199500Y-112101604D01*
X113335500Y-112101604D01*
X113335500Y-107879072D01*
X113355185Y-107812033D01*
X113407989Y-107766278D01*
X113477147Y-107756334D01*
X113540703Y-107785359D01*
X113547181Y-107791391D01*
X113580667Y-107824877D01*
X113583870Y-107828333D01*
X113603814Y-107851564D01*
X113621760Y-107872468D01*
X113621764Y-107872471D01*
X113621765Y-107872472D01*
X113647407Y-107892320D01*
X113653303Y-107897513D01*
X115168850Y-109413060D01*
X115169875Y-109414111D01*
X115190861Y-109436188D01*
X115227674Y-109474917D01*
X115227675Y-109474918D01*
X115275413Y-109508145D01*
X115279161Y-109510970D01*
X115324249Y-109547734D01*
X115352998Y-109562751D01*
X115359716Y-109566821D01*
X115386342Y-109585353D01*
X115439808Y-109608296D01*
X115444049Y-109610310D01*
X115495594Y-109637236D01*
X115526788Y-109646161D01*
X115534157Y-109648785D01*
X115563988Y-109661587D01*
X115620980Y-109673298D01*
X115625543Y-109674419D01*
X115665474Y-109685845D01*
X115681448Y-109690416D01*
X115713791Y-109692878D01*
X115721567Y-109693969D01*
X115753344Y-109700500D01*
X115811506Y-109700500D01*
X115816213Y-109700678D01*
X115840789Y-109702550D01*
X115874201Y-109705095D01*
X115874201Y-109705094D01*
X115874203Y-109705095D01*
X115906385Y-109700996D01*
X115914215Y-109700500D01*
X122307152Y-109700500D01*
X122374191Y-109720185D01*
X122419946Y-109772989D01*
X122429890Y-109842147D01*
X122416976Y-109880497D01*
X122417127Y-109880562D01*
X122416326Y-109882427D01*
X122415566Y-109884686D01*
X122414646Y-109886342D01*
X122391711Y-109939789D01*
X122389689Y-109944046D01*
X122362764Y-109995591D01*
X122362762Y-109995595D01*
X122353839Y-110026776D01*
X122351206Y-110034172D01*
X122338412Y-110063987D01*
X122338412Y-110063988D01*
X122326703Y-110120960D01*
X122325580Y-110125534D01*
X122309583Y-110181448D01*
X122309581Y-110181454D01*
X122307120Y-110213791D01*
X122306029Y-110221572D01*
X122299500Y-110253343D01*
X122299500Y-110311502D01*
X122299321Y-110316211D01*
X122294904Y-110374201D01*
X122296804Y-110389120D01*
X122299003Y-110406385D01*
X122299500Y-110414214D01*
X122299500Y-111318715D01*
X122284858Y-111377169D01*
X122274769Y-111396043D01*
X122214699Y-111594067D01*
X122199500Y-111748395D01*
X122199500Y-112101604D01*
X122214699Y-112255932D01*
X122238631Y-112334824D01*
X122274768Y-112453954D01*
X122372315Y-112636450D01*
X122374250Y-112638808D01*
X122503589Y-112796410D01*
X122580305Y-112859368D01*
X122663550Y-112927685D01*
X122846046Y-113025232D01*
X123044066Y-113085300D01*
X123044065Y-113085300D01*
X123064347Y-113087297D01*
X123250000Y-113105583D01*
X123455934Y-113085300D01*
X123653954Y-113025232D01*
X123836450Y-112927685D01*
X123996410Y-112796410D01*
X124127685Y-112636450D01*
X124166644Y-112563562D01*
X124215603Y-112513721D01*
X124283741Y-112498260D01*
X124349421Y-112522091D01*
X124391790Y-112577648D01*
X124400000Y-112622016D01*
X124400000Y-112699970D01*
X124400001Y-112699987D01*
X124410494Y-112802697D01*
X124465641Y-112969119D01*
X124465643Y-112969124D01*
X124557684Y-113118345D01*
X124681654Y-113242315D01*
X124830875Y-113334356D01*
X124830880Y-113334358D01*
X124997302Y-113389505D01*
X124997309Y-113389506D01*
X125100019Y-113399999D01*
X125499999Y-113399999D01*
X125500000Y-113399998D01*
X125500000Y-112333018D01*
X125614801Y-112385446D01*
X125716025Y-112400000D01*
X125783975Y-112400000D01*
X125885199Y-112385446D01*
X125999999Y-112333018D01*
X125999999Y-113399998D01*
X126000000Y-113399999D01*
X126399972Y-113399999D01*
X126399986Y-113399998D01*
X126502697Y-113389505D01*
X126669119Y-113334358D01*
X126669124Y-113334356D01*
X126818345Y-113242315D01*
X126942315Y-113118345D01*
X127034356Y-112969124D01*
X127034358Y-112969119D01*
X127089505Y-112802697D01*
X127089506Y-112802690D01*
X127099999Y-112699986D01*
X127100000Y-112699973D01*
X127100000Y-112175000D01*
X126153969Y-112175000D01*
X126186519Y-112124351D01*
X126225000Y-111993295D01*
X126225000Y-111856705D01*
X126186519Y-111725649D01*
X126153969Y-111675000D01*
X127099999Y-111675000D01*
X127099999Y-111150028D01*
X127099998Y-111150013D01*
X127089505Y-111047302D01*
X127034358Y-110880880D01*
X127034356Y-110880875D01*
X126942315Y-110731654D01*
X126818345Y-110607684D01*
X126669124Y-110515643D01*
X126669119Y-110515641D01*
X126502697Y-110460494D01*
X126502690Y-110460493D01*
X126399986Y-110450000D01*
X126000000Y-110450000D01*
X125999999Y-111516981D01*
X125885199Y-111464554D01*
X125783975Y-111450000D01*
X125716025Y-111450000D01*
X125614801Y-111464554D01*
X125500000Y-111516981D01*
X125500000Y-110450000D01*
X125100028Y-110450000D01*
X125100012Y-110450001D01*
X124997302Y-110460494D01*
X124830880Y-110515641D01*
X124830871Y-110515645D01*
X124683919Y-110606286D01*
X124616527Y-110624726D01*
X124553958Y-110605088D01*
X124574431Y-110659976D01*
X124559579Y-110728249D01*
X124556286Y-110733919D01*
X124465645Y-110880871D01*
X124465641Y-110880880D01*
X124442206Y-110951604D01*
X124402433Y-111009049D01*
X124337917Y-111035872D01*
X124269142Y-111023557D01*
X124217942Y-110976014D01*
X124200500Y-110912600D01*
X124200500Y-110795071D01*
X124220185Y-110728032D01*
X124236813Y-110707395D01*
X124363069Y-110581139D01*
X124424388Y-110547657D01*
X124494080Y-110552641D01*
X124528947Y-110578741D01*
X124505094Y-110550161D01*
X124496433Y-110480830D01*
X124526630Y-110417823D01*
X124531117Y-110413091D01*
X125207390Y-109736819D01*
X125268714Y-109703334D01*
X125295072Y-109700500D01*
X129696937Y-109700500D01*
X129763976Y-109720185D01*
X129809731Y-109772989D01*
X129819675Y-109842147D01*
X129790650Y-109905703D01*
X129773410Y-109922111D01*
X129705960Y-109974954D01*
X129474954Y-110205960D01*
X129273473Y-110463131D01*
X129202133Y-110581142D01*
X129125814Y-110707390D01*
X129104454Y-110742723D01*
X129104453Y-110742725D01*
X129094563Y-110764700D01*
X128972519Y-111035872D01*
X128970372Y-111040642D01*
X128970366Y-111040657D01*
X128873178Y-111352547D01*
X128814289Y-111673900D01*
X128794564Y-112000000D01*
X128814289Y-112326099D01*
X128873178Y-112647452D01*
X128970366Y-112959342D01*
X128970370Y-112959354D01*
X128970373Y-112959361D01*
X129104455Y-113257279D01*
X129190732Y-113399998D01*
X129273473Y-113536868D01*
X129474954Y-113794039D01*
X129705960Y-114025045D01*
X129963131Y-114226526D01*
X129963134Y-114226528D01*
X129963137Y-114226530D01*
X130242721Y-114395545D01*
X130502418Y-114512425D01*
X130555472Y-114557888D01*
X130575524Y-114624819D01*
X130556208Y-114691965D01*
X130503656Y-114738010D01*
X130451526Y-114749500D01*
X88048474Y-114749500D01*
X87981435Y-114729815D01*
X87935680Y-114677011D01*
X87925736Y-114607853D01*
X87954761Y-114544297D01*
X87997580Y-114512425D01*
X88257279Y-114395545D01*
X88536863Y-114226530D01*
X88794036Y-114025048D01*
X89025048Y-113794036D01*
X89226530Y-113536863D01*
X89395545Y-113257279D01*
X89527090Y-112964999D01*
X90494417Y-112964999D01*
X90514699Y-113170932D01*
X90529036Y-113218194D01*
X90574768Y-113368954D01*
X90672315Y-113551450D01*
X90672317Y-113551452D01*
X90803589Y-113711410D01*
X90900209Y-113790702D01*
X90963550Y-113842685D01*
X91146046Y-113940232D01*
X91344066Y-114000300D01*
X91344065Y-114000300D01*
X91362529Y-114002118D01*
X91550000Y-114020583D01*
X91755934Y-114000300D01*
X91953954Y-113940232D01*
X92136450Y-113842685D01*
X92296410Y-113711410D01*
X92427685Y-113551450D01*
X92525232Y-113368954D01*
X92585300Y-113170934D01*
X92605583Y-112965000D01*
X93034417Y-112965000D01*
X93054699Y-113170932D01*
X93069036Y-113218194D01*
X93114768Y-113368954D01*
X93212315Y-113551450D01*
X93212317Y-113551452D01*
X93343589Y-113711410D01*
X93440209Y-113790702D01*
X93503550Y-113842685D01*
X93686046Y-113940232D01*
X93884066Y-114000300D01*
X93884065Y-114000300D01*
X93902529Y-114002118D01*
X94090000Y-114020583D01*
X94295934Y-114000300D01*
X94493954Y-113940232D01*
X94676450Y-113842685D01*
X94836410Y-113711410D01*
X94967685Y-113551450D01*
X95065232Y-113368954D01*
X95125300Y-113170934D01*
X95145583Y-112965000D01*
X95574417Y-112965000D01*
X95594699Y-113170932D01*
X95609036Y-113218194D01*
X95654768Y-113368954D01*
X95752315Y-113551450D01*
X95752317Y-113551452D01*
X95883589Y-113711410D01*
X95980209Y-113790702D01*
X96043550Y-113842685D01*
X96226046Y-113940232D01*
X96424066Y-114000300D01*
X96424065Y-114000300D01*
X96444347Y-114002297D01*
X96630000Y-114020583D01*
X96835934Y-114000300D01*
X97033954Y-113940232D01*
X97216450Y-113842685D01*
X97376410Y-113711410D01*
X97507685Y-113551450D01*
X97605232Y-113368954D01*
X97605235Y-113368941D01*
X97605834Y-113367499D01*
X97606356Y-113366850D01*
X97608104Y-113363581D01*
X97608723Y-113363912D01*
X97649670Y-113313091D01*
X97715962Y-113291019D01*
X97731208Y-113291412D01*
X97737541Y-113291965D01*
X97763807Y-113294264D01*
X97802940Y-113283777D01*
X97808162Y-113282619D01*
X97848045Y-113275588D01*
X97848050Y-113275584D01*
X97853099Y-113273747D01*
X97869824Y-113266819D01*
X97874681Y-113264554D01*
X97874684Y-113264554D01*
X97907841Y-113241335D01*
X97912390Y-113238438D01*
X97947455Y-113218194D01*
X97973481Y-113187176D01*
X97977122Y-113183202D01*
X98718210Y-112442115D01*
X98722172Y-112438484D01*
X98753194Y-112412455D01*
X98773444Y-112377379D01*
X98776328Y-112372852D01*
X98799554Y-112339684D01*
X98799554Y-112339681D01*
X98801819Y-112334824D01*
X98808747Y-112318099D01*
X98810587Y-112313046D01*
X98810588Y-112313045D01*
X98817621Y-112273150D01*
X98818777Y-112267937D01*
X98829263Y-112228807D01*
X98825733Y-112188464D01*
X98825500Y-112183108D01*
X98825500Y-111294752D01*
X99199500Y-111294752D01*
X99211131Y-111353229D01*
X99211132Y-111353230D01*
X99255447Y-111419552D01*
X99321769Y-111463867D01*
X99321770Y-111463868D01*
X99380247Y-111475499D01*
X99380250Y-111475500D01*
X99380252Y-111475500D01*
X101119750Y-111475500D01*
X101119751Y-111475499D01*
X101134568Y-111472552D01*
X101178229Y-111463868D01*
X101178229Y-111463867D01*
X101178231Y-111463867D01*
X101244552Y-111419552D01*
X101288867Y-111353231D01*
X101288867Y-111353229D01*
X101288868Y-111353229D01*
X101300499Y-111294752D01*
X101300500Y-111294750D01*
X101300500Y-109555249D01*
X101300499Y-109555247D01*
X101288868Y-109496770D01*
X101288867Y-109496769D01*
X101244552Y-109430447D01*
X101178230Y-109386132D01*
X101178229Y-109386131D01*
X101119752Y-109374500D01*
X101119748Y-109374500D01*
X99380252Y-109374500D01*
X99380247Y-109374500D01*
X99321770Y-109386131D01*
X99321769Y-109386132D01*
X99255447Y-109430447D01*
X99211132Y-109496769D01*
X99211131Y-109496770D01*
X99199500Y-109555247D01*
X99199500Y-111294752D01*
X98825500Y-111294752D01*
X98825500Y-109436187D01*
X98845185Y-109369149D01*
X98861819Y-109348507D01*
X99098507Y-109111819D01*
X99159830Y-109078334D01*
X99186188Y-109075500D01*
X104833078Y-109075500D01*
X104838481Y-109075735D01*
X104878807Y-109079264D01*
X104917940Y-109068777D01*
X104923162Y-109067619D01*
X104963045Y-109060588D01*
X104963050Y-109060584D01*
X104968099Y-109058747D01*
X104984824Y-109051819D01*
X104989681Y-109049554D01*
X104989684Y-109049554D01*
X105022841Y-109026335D01*
X105027390Y-109023438D01*
X105062455Y-109003194D01*
X105088481Y-108972176D01*
X105092122Y-108968202D01*
X106878204Y-107182120D01*
X106882166Y-107178489D01*
X106913194Y-107152455D01*
X106933438Y-107117390D01*
X106936335Y-107112841D01*
X106959554Y-107079684D01*
X106959554Y-107079681D01*
X106961819Y-107074824D01*
X106968747Y-107058099D01*
X106970584Y-107053050D01*
X106970588Y-107053045D01*
X106977619Y-107013162D01*
X106978777Y-107007940D01*
X106989264Y-106968807D01*
X106985735Y-106928478D01*
X106985500Y-106923075D01*
X106985500Y-106524794D01*
X107005185Y-106457755D01*
X107051047Y-106415436D01*
X107179732Y-106346652D01*
X107218538Y-106325910D01*
X107370883Y-106200883D01*
X107495910Y-106048538D01*
X107567313Y-105914952D01*
X107588811Y-105874733D01*
X107588811Y-105874732D01*
X107588814Y-105874727D01*
X107646024Y-105686132D01*
X107665341Y-105490000D01*
X108194659Y-105490000D01*
X108213975Y-105686129D01*
X108230317Y-105740000D01*
X108270348Y-105871966D01*
X108271188Y-105874733D01*
X108364086Y-106048532D01*
X108364090Y-106048539D01*
X108489116Y-106200883D01*
X108641460Y-106325909D01*
X108641467Y-106325913D01*
X108815266Y-106418811D01*
X108815269Y-106418811D01*
X108815273Y-106418814D01*
X109003868Y-106476024D01*
X109200000Y-106495341D01*
X109396132Y-106476024D01*
X109584727Y-106418814D01*
X109585218Y-106418552D01*
X109719732Y-106346652D01*
X109758538Y-106325910D01*
X109910883Y-106200883D01*
X110035910Y-106048538D01*
X110107313Y-105914952D01*
X110128811Y-105874733D01*
X110128811Y-105874732D01*
X110128814Y-105874727D01*
X110186024Y-105686132D01*
X110205341Y-105490000D01*
X110186024Y-105293868D01*
X110128814Y-105105273D01*
X110128811Y-105105269D01*
X110128811Y-105105266D01*
X110035913Y-104931467D01*
X110035909Y-104931460D01*
X109910883Y-104779116D01*
X109758539Y-104654090D01*
X109758532Y-104654086D01*
X109584733Y-104561188D01*
X109584727Y-104561186D01*
X109396132Y-104503976D01*
X109396129Y-104503975D01*
X109200000Y-104484659D01*
X109003870Y-104503975D01*
X108815266Y-104561188D01*
X108641467Y-104654086D01*
X108641460Y-104654090D01*
X108489116Y-104779116D01*
X108364090Y-104931460D01*
X108364086Y-104931467D01*
X108271188Y-105105266D01*
X108213975Y-105293870D01*
X108194659Y-105490000D01*
X107665341Y-105490000D01*
X107646024Y-105293868D01*
X107588814Y-105105273D01*
X107588811Y-105105269D01*
X107588811Y-105105266D01*
X107495913Y-104931467D01*
X107495909Y-104931460D01*
X107370883Y-104779116D01*
X107218539Y-104654090D01*
X107218532Y-104654086D01*
X107044733Y-104561188D01*
X107044727Y-104561186D01*
X106856132Y-104503976D01*
X106856129Y-104503975D01*
X106660000Y-104484659D01*
X106463870Y-104503975D01*
X106275266Y-104561188D01*
X106101467Y-104654086D01*
X106101460Y-104654090D01*
X105949116Y-104779116D01*
X105824090Y-104931460D01*
X105824086Y-104931467D01*
X105731188Y-105105266D01*
X105673975Y-105293870D01*
X105654659Y-105490000D01*
X105673975Y-105686129D01*
X105690317Y-105740000D01*
X105730348Y-105871966D01*
X105731188Y-105874733D01*
X105824086Y-106048532D01*
X105824090Y-106048539D01*
X105949116Y-106200883D01*
X106101460Y-106325909D01*
X106101467Y-106325913D01*
X106268953Y-106415436D01*
X106318797Y-106464398D01*
X106334500Y-106524794D01*
X106334500Y-106753811D01*
X106314815Y-106820850D01*
X106298181Y-106841492D01*
X104751493Y-108388181D01*
X104690170Y-108421666D01*
X104663812Y-108424500D01*
X103305446Y-108424500D01*
X103277319Y-108416241D01*
X103266232Y-108422069D01*
X103241801Y-108424500D01*
X99016922Y-108424500D01*
X99011518Y-108424264D01*
X99003861Y-108423594D01*
X98997391Y-108423028D01*
X98981859Y-108416952D01*
X98979488Y-108418477D01*
X98976644Y-108419276D01*
X98971193Y-108420736D01*
X98962639Y-108423028D01*
X98932091Y-108431212D01*
X98926811Y-108432383D01*
X98886959Y-108439410D01*
X98881961Y-108441229D01*
X98865117Y-108448206D01*
X98860313Y-108450446D01*
X98827166Y-108473656D01*
X98822606Y-108476562D01*
X98787548Y-108496804D01*
X98787540Y-108496810D01*
X98761523Y-108527815D01*
X98757869Y-108531804D01*
X98281803Y-109007870D01*
X98277814Y-109011525D01*
X98246805Y-109037545D01*
X98226562Y-109072606D01*
X98223656Y-109077166D01*
X98200446Y-109110313D01*
X98198206Y-109115117D01*
X98191229Y-109131961D01*
X98189410Y-109136959D01*
X98182383Y-109176811D01*
X98181212Y-109182091D01*
X98170735Y-109221191D01*
X98171347Y-109228178D01*
X98174159Y-109260319D01*
X98174264Y-109261513D01*
X98174500Y-109266920D01*
X98174500Y-112013811D01*
X98154815Y-112080850D01*
X98138181Y-112101492D01*
X97749021Y-112490651D01*
X97687698Y-112524136D01*
X97618006Y-112519152D01*
X97562073Y-112477280D01*
X97551982Y-112461424D01*
X97507685Y-112378550D01*
X97416877Y-112267899D01*
X97376410Y-112218589D01*
X97216452Y-112087317D01*
X97216453Y-112087317D01*
X97216450Y-112087315D01*
X97046554Y-111996502D01*
X97033956Y-111989769D01*
X97033955Y-111989768D01*
X97033954Y-111989768D01*
X96835934Y-111929700D01*
X96835932Y-111929699D01*
X96835934Y-111929699D01*
X96630000Y-111909417D01*
X96424067Y-111929699D01*
X96226043Y-111989769D01*
X96153743Y-112028415D01*
X96043550Y-112087315D01*
X96043548Y-112087316D01*
X96043547Y-112087317D01*
X95883589Y-112218589D01*
X95753252Y-112377408D01*
X95752315Y-112378550D01*
X95734192Y-112412455D01*
X95654769Y-112561043D01*
X95594699Y-112759067D01*
X95574417Y-112965000D01*
X95145583Y-112965000D01*
X95125300Y-112759066D01*
X95065232Y-112561046D01*
X94967685Y-112378550D01*
X94876877Y-112267899D01*
X94836410Y-112218589D01*
X94676452Y-112087317D01*
X94676453Y-112087317D01*
X94676450Y-112087315D01*
X94506554Y-111996502D01*
X94493956Y-111989769D01*
X94493955Y-111989768D01*
X94493954Y-111989768D01*
X94295934Y-111929700D01*
X94295932Y-111929699D01*
X94295934Y-111929699D01*
X94108463Y-111911235D01*
X94090000Y-111909417D01*
X94089999Y-111909417D01*
X93884067Y-111929699D01*
X93686043Y-111989769D01*
X93613743Y-112028415D01*
X93503550Y-112087315D01*
X93503548Y-112087316D01*
X93503547Y-112087317D01*
X93343589Y-112218589D01*
X93213252Y-112377408D01*
X93212315Y-112378550D01*
X93194192Y-112412455D01*
X93114769Y-112561043D01*
X93054699Y-112759067D01*
X93034417Y-112965000D01*
X92605583Y-112965000D01*
X92585300Y-112759066D01*
X92525232Y-112561046D01*
X92525227Y-112561038D01*
X92524439Y-112559132D01*
X92524322Y-112558051D01*
X92523463Y-112555217D01*
X92524000Y-112555053D01*
X92516973Y-112489663D01*
X92548250Y-112427185D01*
X92551293Y-112424031D01*
X93018204Y-111957120D01*
X93022166Y-111953489D01*
X93053194Y-111927455D01*
X93073438Y-111892390D01*
X93076335Y-111887841D01*
X93099554Y-111854684D01*
X93099554Y-111854681D01*
X93101819Y-111849824D01*
X93108747Y-111833099D01*
X93110584Y-111828050D01*
X93110588Y-111828045D01*
X93117619Y-111788162D01*
X93118777Y-111782940D01*
X93129264Y-111743807D01*
X93125735Y-111703481D01*
X93125500Y-111698078D01*
X93125500Y-111252223D01*
X93145185Y-111185184D01*
X93197989Y-111139429D01*
X93267147Y-111129485D01*
X93330703Y-111158510D01*
X93339173Y-111167211D01*
X93339282Y-111167103D01*
X93343586Y-111171407D01*
X93343590Y-111171410D01*
X93503550Y-111302685D01*
X93686046Y-111400232D01*
X93884066Y-111460300D01*
X93884065Y-111460300D01*
X93904347Y-111462297D01*
X94090000Y-111480583D01*
X94295934Y-111460300D01*
X94493954Y-111400232D01*
X94676450Y-111302685D01*
X94686116Y-111294752D01*
X95579500Y-111294752D01*
X95591131Y-111353229D01*
X95591132Y-111353230D01*
X95635447Y-111419552D01*
X95701769Y-111463867D01*
X95701770Y-111463868D01*
X95760247Y-111475499D01*
X95760250Y-111475500D01*
X95760252Y-111475500D01*
X97499750Y-111475500D01*
X97499751Y-111475499D01*
X97514568Y-111472552D01*
X97558229Y-111463868D01*
X97558229Y-111463867D01*
X97558231Y-111463867D01*
X97624552Y-111419552D01*
X97668867Y-111353231D01*
X97668867Y-111353229D01*
X97668868Y-111353229D01*
X97680499Y-111294752D01*
X97680500Y-111294750D01*
X97680500Y-109555249D01*
X97680499Y-109555247D01*
X97668868Y-109496770D01*
X97668867Y-109496769D01*
X97624552Y-109430447D01*
X97558230Y-109386132D01*
X97558229Y-109386131D01*
X97499752Y-109374500D01*
X97499748Y-109374500D01*
X97079500Y-109374500D01*
X97012461Y-109354815D01*
X96966706Y-109302011D01*
X96955500Y-109250500D01*
X96955500Y-109106187D01*
X96975185Y-109039148D01*
X96991819Y-109018506D01*
X97798507Y-108211819D01*
X97859830Y-108178334D01*
X97886188Y-108175500D01*
X98944553Y-108175500D01*
X98972679Y-108183759D01*
X98983768Y-108177931D01*
X99008199Y-108175500D01*
X103233078Y-108175500D01*
X103238481Y-108175735D01*
X103246138Y-108176405D01*
X103252609Y-108176972D01*
X103268139Y-108183047D01*
X103270511Y-108181523D01*
X103273349Y-108180726D01*
X103278805Y-108179263D01*
X103278807Y-108179264D01*
X103317940Y-108168777D01*
X103323158Y-108167620D01*
X103363045Y-108160588D01*
X103363050Y-108160584D01*
X103368099Y-108158747D01*
X103384824Y-108151819D01*
X103389681Y-108149554D01*
X103389684Y-108149554D01*
X103422841Y-108126335D01*
X103427390Y-108123438D01*
X103462455Y-108103194D01*
X103488481Y-108072176D01*
X103492122Y-108068202D01*
X104338204Y-107222120D01*
X104342166Y-107218489D01*
X104373194Y-107192455D01*
X104393438Y-107157390D01*
X104396335Y-107152841D01*
X104419554Y-107119684D01*
X104419554Y-107119681D01*
X104421819Y-107114824D01*
X104428747Y-107098099D01*
X104430584Y-107093050D01*
X104430588Y-107093045D01*
X104437619Y-107053162D01*
X104438777Y-107047940D01*
X104449264Y-107008807D01*
X104445735Y-106968478D01*
X104445500Y-106963075D01*
X104445500Y-106524794D01*
X104465185Y-106457755D01*
X104511047Y-106415436D01*
X104639732Y-106346652D01*
X104678538Y-106325910D01*
X104830883Y-106200883D01*
X104955910Y-106048538D01*
X105027313Y-105914952D01*
X105048811Y-105874733D01*
X105048811Y-105874732D01*
X105048814Y-105874727D01*
X105106024Y-105686132D01*
X105125341Y-105490000D01*
X105106024Y-105293868D01*
X105048814Y-105105273D01*
X105048811Y-105105269D01*
X105048811Y-105105266D01*
X104955913Y-104931467D01*
X104955909Y-104931460D01*
X104830883Y-104779116D01*
X104678539Y-104654090D01*
X104678532Y-104654086D01*
X104504733Y-104561188D01*
X104504727Y-104561186D01*
X104316132Y-104503976D01*
X104316129Y-104503975D01*
X104120000Y-104484659D01*
X103923870Y-104503975D01*
X103735266Y-104561188D01*
X103561467Y-104654086D01*
X103561460Y-104654090D01*
X103409116Y-104779116D01*
X103284090Y-104931460D01*
X103284086Y-104931467D01*
X103191188Y-105105266D01*
X103133975Y-105293870D01*
X103114659Y-105490000D01*
X103133975Y-105686129D01*
X103150317Y-105740000D01*
X103190348Y-105871966D01*
X103191188Y-105874733D01*
X103284086Y-106048532D01*
X103284090Y-106048539D01*
X103409116Y-106200883D01*
X103561460Y-106325909D01*
X103561467Y-106325913D01*
X103728953Y-106415436D01*
X103778797Y-106464398D01*
X103794500Y-106524794D01*
X103794500Y-106793811D01*
X103774815Y-106860850D01*
X103758181Y-106881492D01*
X103151493Y-107488181D01*
X103090170Y-107521666D01*
X103063812Y-107524500D01*
X97716923Y-107524500D01*
X97711519Y-107524264D01*
X97705618Y-107523747D01*
X97671192Y-107520735D01*
X97632090Y-107531213D01*
X97626809Y-107532384D01*
X97586955Y-107539412D01*
X97581962Y-107541229D01*
X97565117Y-107548206D01*
X97560313Y-107550446D01*
X97527166Y-107573656D01*
X97522606Y-107576562D01*
X97487548Y-107596804D01*
X97487540Y-107596810D01*
X97461523Y-107627815D01*
X97457869Y-107631804D01*
X96411803Y-108677870D01*
X96407814Y-108681525D01*
X96376805Y-108707545D01*
X96356562Y-108742606D01*
X96353656Y-108747166D01*
X96330446Y-108780313D01*
X96328206Y-108785117D01*
X96321229Y-108801961D01*
X96319410Y-108806959D01*
X96312383Y-108846811D01*
X96311212Y-108852092D01*
X96300735Y-108891192D01*
X96304263Y-108931510D01*
X96304499Y-108936916D01*
X96304499Y-109138485D01*
X96304500Y-109250500D01*
X96284816Y-109317539D01*
X96232012Y-109363294D01*
X96180500Y-109374500D01*
X95760247Y-109374500D01*
X95701770Y-109386131D01*
X95701769Y-109386132D01*
X95635447Y-109430447D01*
X95591132Y-109496769D01*
X95591131Y-109496770D01*
X95579500Y-109555247D01*
X95579500Y-111294752D01*
X94686116Y-111294752D01*
X94836410Y-111171410D01*
X94967685Y-111011450D01*
X95065232Y-110828954D01*
X95125300Y-110630934D01*
X95145583Y-110425000D01*
X95125300Y-110219066D01*
X95065232Y-110021046D01*
X94967685Y-109838550D01*
X94884197Y-109736819D01*
X94836410Y-109678589D01*
X94697480Y-109564574D01*
X94676450Y-109547315D01*
X94493954Y-109449768D01*
X94295934Y-109389700D01*
X94295932Y-109389699D01*
X94295934Y-109389699D01*
X94090000Y-109369417D01*
X93884067Y-109389699D01*
X93749736Y-109430448D01*
X93694476Y-109447211D01*
X93686043Y-109449769D01*
X93638992Y-109474919D01*
X93503550Y-109547315D01*
X93503548Y-109547316D01*
X93503547Y-109547317D01*
X93343586Y-109678592D01*
X93339282Y-109682897D01*
X93337901Y-109681516D01*
X93287606Y-109715776D01*
X93217761Y-109717645D01*
X93157993Y-109681457D01*
X93127278Y-109618701D01*
X93125500Y-109597776D01*
X93125500Y-109416909D01*
X93125736Y-109411502D01*
X93126022Y-109408240D01*
X93129263Y-109371193D01*
X93129262Y-109371192D01*
X93129263Y-109371191D01*
X93118786Y-109332092D01*
X93117617Y-109326824D01*
X93110588Y-109286955D01*
X93110587Y-109286954D01*
X93110587Y-109286951D01*
X93108765Y-109281947D01*
X93101815Y-109265168D01*
X93099554Y-109260319D01*
X93099553Y-109260318D01*
X93099553Y-109260316D01*
X93076333Y-109227154D01*
X93073434Y-109222603D01*
X93072234Y-109220525D01*
X93054695Y-109190144D01*
X93053194Y-109187544D01*
X93053193Y-109187543D01*
X93022193Y-109161532D01*
X93018202Y-109157876D01*
X92911818Y-109051491D01*
X92878334Y-108990168D01*
X92875500Y-108963810D01*
X92875500Y-106078495D01*
X92895185Y-106011456D01*
X92947989Y-105965701D01*
X93017147Y-105955757D01*
X93080703Y-105984782D01*
X93108859Y-106020043D01*
X93124088Y-106048536D01*
X93124090Y-106048539D01*
X93249116Y-106200883D01*
X93401460Y-106325909D01*
X93401467Y-106325913D01*
X93575266Y-106418811D01*
X93575269Y-106418811D01*
X93575273Y-106418814D01*
X93763868Y-106476024D01*
X93960000Y-106495341D01*
X94156132Y-106476024D01*
X94344727Y-106418814D01*
X94345218Y-106418552D01*
X94479732Y-106346652D01*
X94518538Y-106325910D01*
X94670883Y-106200883D01*
X94795910Y-106048538D01*
X94867313Y-105914952D01*
X94888811Y-105874733D01*
X94888811Y-105874732D01*
X94888814Y-105874727D01*
X94946024Y-105686132D01*
X94965341Y-105490000D01*
X95494659Y-105490000D01*
X95513975Y-105686129D01*
X95530317Y-105740000D01*
X95570348Y-105871966D01*
X95571188Y-105874733D01*
X95664086Y-106048532D01*
X95664090Y-106048539D01*
X95789116Y-106200883D01*
X95941460Y-106325909D01*
X95941467Y-106325913D01*
X96115266Y-106418811D01*
X96115269Y-106418811D01*
X96115273Y-106418814D01*
X96303868Y-106476024D01*
X96500000Y-106495341D01*
X96696132Y-106476024D01*
X96884727Y-106418814D01*
X96885218Y-106418552D01*
X97019732Y-106346652D01*
X97058538Y-106325910D01*
X97210883Y-106200883D01*
X97335910Y-106048538D01*
X97407313Y-105914952D01*
X97428811Y-105874733D01*
X97428811Y-105874732D01*
X97428814Y-105874727D01*
X97486024Y-105686132D01*
X97505341Y-105490000D01*
X98034659Y-105490000D01*
X98053975Y-105686129D01*
X98070317Y-105740000D01*
X98110348Y-105871966D01*
X98111188Y-105874733D01*
X98204086Y-106048532D01*
X98204090Y-106048539D01*
X98329116Y-106200883D01*
X98481460Y-106325909D01*
X98481467Y-106325913D01*
X98655266Y-106418811D01*
X98655269Y-106418811D01*
X98655273Y-106418814D01*
X98843868Y-106476024D01*
X99040000Y-106495341D01*
X99236132Y-106476024D01*
X99424727Y-106418814D01*
X99425218Y-106418552D01*
X99559732Y-106346652D01*
X99598538Y-106325910D01*
X99750883Y-106200883D01*
X99875910Y-106048538D01*
X99947313Y-105914952D01*
X99968811Y-105874733D01*
X99968811Y-105874732D01*
X99968814Y-105874727D01*
X100026024Y-105686132D01*
X100045341Y-105490000D01*
X100026024Y-105293868D01*
X99968814Y-105105273D01*
X99968811Y-105105269D01*
X99968811Y-105105266D01*
X99875913Y-104931467D01*
X99875909Y-104931460D01*
X99750883Y-104779116D01*
X99598539Y-104654090D01*
X99598532Y-104654086D01*
X99424733Y-104561188D01*
X99424727Y-104561186D01*
X99236132Y-104503976D01*
X99236129Y-104503975D01*
X99040000Y-104484659D01*
X98843870Y-104503975D01*
X98655266Y-104561188D01*
X98481467Y-104654086D01*
X98481460Y-104654090D01*
X98329116Y-104779116D01*
X98204090Y-104931460D01*
X98204086Y-104931467D01*
X98111188Y-105105266D01*
X98053975Y-105293870D01*
X98034659Y-105490000D01*
X97505341Y-105490000D01*
X97486024Y-105293868D01*
X97428814Y-105105273D01*
X97428811Y-105105269D01*
X97428811Y-105105266D01*
X97335913Y-104931467D01*
X97335909Y-104931460D01*
X97210883Y-104779116D01*
X97058539Y-104654090D01*
X97058532Y-104654086D01*
X96884733Y-104561188D01*
X96884727Y-104561186D01*
X96696132Y-104503976D01*
X96696129Y-104503975D01*
X96500000Y-104484659D01*
X96303870Y-104503975D01*
X96115266Y-104561188D01*
X95941467Y-104654086D01*
X95941460Y-104654090D01*
X95789116Y-104779116D01*
X95664090Y-104931460D01*
X95664086Y-104931467D01*
X95571188Y-105105266D01*
X95513975Y-105293870D01*
X95494659Y-105490000D01*
X94965341Y-105490000D01*
X94946024Y-105293868D01*
X94888814Y-105105273D01*
X94888811Y-105105269D01*
X94888811Y-105105266D01*
X94795913Y-104931467D01*
X94795909Y-104931460D01*
X94670883Y-104779116D01*
X94518539Y-104654090D01*
X94518532Y-104654086D01*
X94344733Y-104561188D01*
X94344727Y-104561186D01*
X94156132Y-104503976D01*
X94156129Y-104503975D01*
X93960000Y-104484659D01*
X93763870Y-104503975D01*
X93575266Y-104561188D01*
X93401467Y-104654086D01*
X93401460Y-104654090D01*
X93249116Y-104779116D01*
X93124090Y-104931460D01*
X93124088Y-104931463D01*
X93108858Y-104959958D01*
X93059895Y-105009802D01*
X92991758Y-105025262D01*
X92926078Y-105001430D01*
X92883709Y-104945872D01*
X92875500Y-104901504D01*
X92875500Y-103736187D01*
X92895185Y-103669148D01*
X92911810Y-103648515D01*
X92994761Y-103565564D01*
X93056079Y-103532082D01*
X93125771Y-103537066D01*
X93178291Y-103574583D01*
X93249116Y-103660883D01*
X93401460Y-103785909D01*
X93401467Y-103785913D01*
X93575266Y-103878811D01*
X93575269Y-103878811D01*
X93575273Y-103878814D01*
X93763868Y-103936024D01*
X93960000Y-103955341D01*
X94156132Y-103936024D01*
X94344727Y-103878814D01*
X94518538Y-103785910D01*
X94670883Y-103660883D01*
X94795910Y-103508538D01*
X94888814Y-103334727D01*
X94946024Y-103146132D01*
X94965341Y-102950000D01*
X94946024Y-102753868D01*
X94888814Y-102565273D01*
X94888811Y-102565269D01*
X94888811Y-102565266D01*
X94795913Y-102391467D01*
X94795909Y-102391460D01*
X94670883Y-102239116D01*
X94518539Y-102114090D01*
X94518532Y-102114086D01*
X94344733Y-102021188D01*
X94344727Y-102021186D01*
X94156132Y-101963976D01*
X94156129Y-101963975D01*
X93960000Y-101944659D01*
X93763870Y-101963975D01*
X93575266Y-102021188D01*
X93401467Y-102114086D01*
X93401460Y-102114090D01*
X93249116Y-102239116D01*
X93124090Y-102391460D01*
X93124086Y-102391467D01*
X93031186Y-102565270D01*
X93016920Y-102612300D01*
X92978622Y-102670738D01*
X92960264Y-102683688D01*
X92937548Y-102696804D01*
X92937540Y-102696810D01*
X92911523Y-102727815D01*
X92907869Y-102731804D01*
X92331803Y-103307870D01*
X92327814Y-103311525D01*
X92296805Y-103337545D01*
X92276562Y-103372606D01*
X92273656Y-103377166D01*
X92250446Y-103410313D01*
X92248206Y-103415117D01*
X92241229Y-103431961D01*
X92239410Y-103436959D01*
X92232383Y-103476811D01*
X92231212Y-103482091D01*
X92220735Y-103521191D01*
X92224264Y-103561513D01*
X92224500Y-103566920D01*
X92224500Y-109133078D01*
X92224264Y-109138485D01*
X92220735Y-109178808D01*
X92231212Y-109217910D01*
X92232383Y-109223190D01*
X92239411Y-109263043D01*
X92241235Y-109268055D01*
X92248197Y-109284861D01*
X92250445Y-109289681D01*
X92250446Y-109289684D01*
X92269950Y-109317539D01*
X92273655Y-109322830D01*
X92276557Y-109327383D01*
X92280618Y-109334417D01*
X92302230Y-109371851D01*
X92300960Y-109372584D01*
X92324239Y-109425763D01*
X92313205Y-109494756D01*
X92266623Y-109546832D01*
X92199281Y-109565456D01*
X92143010Y-109547963D01*
X92141822Y-109550187D01*
X92136451Y-109547316D01*
X92136450Y-109547315D01*
X91953954Y-109449768D01*
X91952049Y-109448979D01*
X91951203Y-109448298D01*
X91948581Y-109446896D01*
X91948846Y-109446398D01*
X91897645Y-109405138D01*
X91875579Y-109338844D01*
X91875500Y-109334417D01*
X91875500Y-101336187D01*
X91895185Y-101269148D01*
X91911819Y-101248506D01*
X92388507Y-100771819D01*
X92449830Y-100738334D01*
X92476188Y-100735500D01*
X92925205Y-100735500D01*
X92992244Y-100755185D01*
X93034563Y-100801047D01*
X93124085Y-100968532D01*
X93124090Y-100968539D01*
X93249116Y-101120883D01*
X93401460Y-101245909D01*
X93401467Y-101245913D01*
X93575266Y-101338811D01*
X93575269Y-101338811D01*
X93575273Y-101338814D01*
X93763868Y-101396024D01*
X93960000Y-101415341D01*
X94156132Y-101396024D01*
X94344727Y-101338814D01*
X94518538Y-101245910D01*
X94670883Y-101120883D01*
X94795910Y-100968538D01*
X94888814Y-100794727D01*
X94946024Y-100606132D01*
X94965341Y-100410000D01*
X94946024Y-100213868D01*
X94888814Y-100025273D01*
X94888811Y-100025269D01*
X94888811Y-100025266D01*
X94795913Y-99851467D01*
X94795909Y-99851460D01*
X94670883Y-99699116D01*
X94518539Y-99574090D01*
X94518532Y-99574086D01*
X94344733Y-99481188D01*
X94344727Y-99481186D01*
X94156132Y-99423976D01*
X94156129Y-99423975D01*
X93960000Y-99404659D01*
X93763870Y-99423975D01*
X93575266Y-99481188D01*
X93401467Y-99574086D01*
X93401460Y-99574090D01*
X93249116Y-99699116D01*
X93124090Y-99851460D01*
X93124085Y-99851467D01*
X93034563Y-100018953D01*
X92985601Y-100068798D01*
X92925205Y-100084500D01*
X92306922Y-100084500D01*
X92301518Y-100084264D01*
X92296107Y-100083790D01*
X92261192Y-100080735D01*
X92261191Y-100080735D01*
X92222091Y-100091212D01*
X92216811Y-100092383D01*
X92176959Y-100099410D01*
X92171961Y-100101229D01*
X92155117Y-100108206D01*
X92150313Y-100110446D01*
X92117166Y-100133656D01*
X92112606Y-100136562D01*
X92077548Y-100156804D01*
X92077540Y-100156810D01*
X92051523Y-100187815D01*
X92047869Y-100191804D01*
X91331803Y-100907870D01*
X91327814Y-100911525D01*
X91296805Y-100937545D01*
X91276562Y-100972606D01*
X91273656Y-100977166D01*
X91250446Y-101010313D01*
X91248206Y-101015117D01*
X91241229Y-101031961D01*
X91239410Y-101036959D01*
X91232383Y-101076811D01*
X91231212Y-101082091D01*
X91220735Y-101121191D01*
X91220735Y-101121194D01*
X91224263Y-101161515D01*
X91224499Y-101166920D01*
X91224499Y-109334417D01*
X91204814Y-109401456D01*
X91152010Y-109447211D01*
X91147956Y-109448976D01*
X91146052Y-109449764D01*
X91069934Y-109490451D01*
X90963550Y-109547315D01*
X90963548Y-109547316D01*
X90963547Y-109547317D01*
X90803589Y-109678589D01*
X90684051Y-109824249D01*
X90672315Y-109838550D01*
X90636421Y-109905703D01*
X90574769Y-110021043D01*
X90514699Y-110219067D01*
X90494417Y-110424999D01*
X90514699Y-110630932D01*
X90537892Y-110707390D01*
X90574768Y-110828954D01*
X90672315Y-111011450D01*
X90700045Y-111045239D01*
X90803589Y-111171410D01*
X90854934Y-111213547D01*
X90963550Y-111302685D01*
X91146046Y-111400232D01*
X91344066Y-111460300D01*
X91344065Y-111460300D01*
X91362529Y-111462118D01*
X91550000Y-111480583D01*
X91755934Y-111460300D01*
X91953954Y-111400232D01*
X92136450Y-111302685D01*
X92271835Y-111191577D01*
X92336145Y-111164265D01*
X92405013Y-111176056D01*
X92456573Y-111223208D01*
X92474500Y-111287431D01*
X92474500Y-111528811D01*
X92454815Y-111595850D01*
X92438181Y-111616492D01*
X92090994Y-111963678D01*
X92029671Y-111997163D01*
X91959979Y-111992179D01*
X91955862Y-111990559D01*
X91953962Y-111989772D01*
X91953954Y-111989768D01*
X91755934Y-111929700D01*
X91755932Y-111929699D01*
X91755934Y-111929699D01*
X91550000Y-111909417D01*
X91344067Y-111929699D01*
X91146043Y-111989769D01*
X91073743Y-112028415D01*
X90963550Y-112087315D01*
X90963548Y-112087316D01*
X90963547Y-112087317D01*
X90803589Y-112218589D01*
X90673252Y-112377408D01*
X90672315Y-112378550D01*
X90654192Y-112412455D01*
X90574769Y-112561043D01*
X90514699Y-112759067D01*
X90494417Y-112964999D01*
X89527090Y-112964999D01*
X89529627Y-112959361D01*
X89626821Y-112647453D01*
X89685710Y-112326104D01*
X89705436Y-112000000D01*
X89685710Y-111673896D01*
X89626821Y-111352547D01*
X89616279Y-111318715D01*
X89529633Y-111040657D01*
X89529631Y-111040652D01*
X89529627Y-111040639D01*
X89395545Y-110742721D01*
X89226530Y-110463137D01*
X89226528Y-110463134D01*
X89226526Y-110463131D01*
X89025045Y-110205960D01*
X88794039Y-109974954D01*
X88536868Y-109773473D01*
X88444517Y-109717645D01*
X88257279Y-109604455D01*
X87959361Y-109470373D01*
X87959354Y-109470370D01*
X87959342Y-109470366D01*
X87647452Y-109373178D01*
X87326099Y-109314289D01*
X87000000Y-109294564D01*
X86673900Y-109314289D01*
X86352547Y-109373178D01*
X86040657Y-109470366D01*
X86040641Y-109470372D01*
X86040639Y-109470373D01*
X85742721Y-109604455D01*
X85688495Y-109637236D01*
X85463131Y-109773473D01*
X85205960Y-109974954D01*
X84974954Y-110205960D01*
X84773473Y-110463131D01*
X84702133Y-110581142D01*
X84625814Y-110707390D01*
X84604454Y-110742723D01*
X84604453Y-110742725D01*
X84594563Y-110764700D01*
X84487574Y-111002418D01*
X84442112Y-111055472D01*
X84375181Y-111075524D01*
X84308035Y-111056208D01*
X84261990Y-111003656D01*
X84250500Y-110951526D01*
X84250500Y-97619999D01*
X92681127Y-97619999D01*
X92681128Y-97620000D01*
X93526314Y-97620000D01*
X93500507Y-97660156D01*
X93460000Y-97798111D01*
X93460000Y-97941889D01*
X93500507Y-98079844D01*
X93526314Y-98120000D01*
X92681128Y-98120000D01*
X92733730Y-98316317D01*
X92733734Y-98316326D01*
X92829865Y-98522482D01*
X92960342Y-98708820D01*
X93121179Y-98869657D01*
X93307517Y-99000134D01*
X93513673Y-99096265D01*
X93513682Y-99096269D01*
X93709999Y-99148872D01*
X93710000Y-99148871D01*
X93710000Y-98305501D01*
X93817685Y-98354680D01*
X93924237Y-98370000D01*
X93995763Y-98370000D01*
X94102315Y-98354680D01*
X94209999Y-98305501D01*
X94209999Y-99148871D01*
X94210000Y-99148872D01*
X94406317Y-99096269D01*
X94406326Y-99096265D01*
X94612482Y-99000134D01*
X94798820Y-98869657D01*
X94959657Y-98708820D01*
X95090134Y-98522482D01*
X95186265Y-98316326D01*
X95186269Y-98316317D01*
X95238872Y-98120000D01*
X94393686Y-98120000D01*
X94419493Y-98079844D01*
X94460000Y-97941889D01*
X94460000Y-97798111D01*
X94419493Y-97660156D01*
X94393686Y-97620000D01*
X95238872Y-97620000D01*
X95238872Y-97619999D01*
X95186269Y-97423682D01*
X95186265Y-97423673D01*
X95090134Y-97217517D01*
X94959657Y-97031179D01*
X94798820Y-96870342D01*
X94612482Y-96739865D01*
X94406328Y-96643734D01*
X94210000Y-96591127D01*
X94210000Y-97434498D01*
X94102315Y-97385320D01*
X93995763Y-97370000D01*
X93924237Y-97370000D01*
X93817685Y-97385320D01*
X93710000Y-97434498D01*
X93710000Y-96591127D01*
X93513671Y-96643734D01*
X93307517Y-96739865D01*
X93121179Y-96870342D01*
X92960342Y-97031179D01*
X92829865Y-97217517D01*
X92733734Y-97423673D01*
X92733730Y-97423682D01*
X92681127Y-97619999D01*
X84250500Y-97619999D01*
X84250500Y-94698615D01*
X84270185Y-94631576D01*
X84322989Y-94585821D01*
X84392147Y-94575877D01*
X84455703Y-94604902D01*
X84481884Y-94636611D01*
X84496806Y-94662455D01*
X84496807Y-94662456D01*
X84527815Y-94688475D01*
X84531805Y-94692131D01*
X85907863Y-96068189D01*
X85911518Y-96072178D01*
X85937541Y-96103190D01*
X85937543Y-96103191D01*
X85937545Y-96103194D01*
X85937547Y-96103195D01*
X85937548Y-96103196D01*
X85972599Y-96123433D01*
X85977162Y-96126339D01*
X86010316Y-96149554D01*
X86010319Y-96149554D01*
X86015176Y-96151820D01*
X86031933Y-96158760D01*
X86036950Y-96160586D01*
X86036952Y-96160586D01*
X86036955Y-96160588D01*
X86076818Y-96167616D01*
X86082076Y-96168782D01*
X86121193Y-96179264D01*
X86161518Y-96175735D01*
X86166922Y-96175500D01*
X94963812Y-96175500D01*
X95030851Y-96195185D01*
X95051493Y-96211819D01*
X95688182Y-96848508D01*
X95721666Y-96909829D01*
X95724500Y-96936187D01*
X95724500Y-102533078D01*
X95724264Y-102538485D01*
X95720735Y-102578808D01*
X95731212Y-102617910D01*
X95732383Y-102623190D01*
X95739411Y-102663043D01*
X95741235Y-102668055D01*
X95748197Y-102684861D01*
X95750445Y-102689681D01*
X95750446Y-102689684D01*
X95755433Y-102696806D01*
X95773655Y-102722831D01*
X95776561Y-102727392D01*
X95796806Y-102762455D01*
X95827815Y-102788475D01*
X95831805Y-102792131D01*
X96607863Y-103568189D01*
X96611518Y-103572178D01*
X96637541Y-103603190D01*
X96637543Y-103603191D01*
X96637545Y-103603194D01*
X96637547Y-103603195D01*
X96637548Y-103603196D01*
X96672599Y-103623433D01*
X96677162Y-103626339D01*
X96710316Y-103649554D01*
X96710319Y-103649554D01*
X96715176Y-103651820D01*
X96731933Y-103658760D01*
X96736953Y-103660587D01*
X96736955Y-103660588D01*
X96772806Y-103666909D01*
X96776808Y-103667615D01*
X96782080Y-103668783D01*
X96821193Y-103679264D01*
X96861522Y-103675735D01*
X96866924Y-103675500D01*
X100463812Y-103675500D01*
X100530851Y-103695185D01*
X100551493Y-103711819D01*
X101211023Y-104371349D01*
X101244508Y-104432672D01*
X101239524Y-104502364D01*
X101197652Y-104558297D01*
X101181796Y-104568388D01*
X101021464Y-104654088D01*
X101021460Y-104654090D01*
X100869116Y-104779116D01*
X100744090Y-104931460D01*
X100744086Y-104931467D01*
X100651188Y-105105266D01*
X100593975Y-105293870D01*
X100574659Y-105490000D01*
X100593975Y-105686129D01*
X100610317Y-105740000D01*
X100650348Y-105871966D01*
X100651188Y-105874733D01*
X100744086Y-106048532D01*
X100744090Y-106048539D01*
X100869116Y-106200883D01*
X101021460Y-106325909D01*
X101021467Y-106325913D01*
X101195266Y-106418811D01*
X101195269Y-106418811D01*
X101195273Y-106418814D01*
X101383868Y-106476024D01*
X101580000Y-106495341D01*
X101776132Y-106476024D01*
X101964727Y-106418814D01*
X101965218Y-106418552D01*
X102099732Y-106346652D01*
X102138538Y-106325910D01*
X102290883Y-106200883D01*
X102415910Y-106048538D01*
X102487313Y-105914952D01*
X102508811Y-105874733D01*
X102508811Y-105874732D01*
X102508814Y-105874727D01*
X102566024Y-105686132D01*
X102585341Y-105490000D01*
X102566024Y-105293868D01*
X102508814Y-105105273D01*
X102508811Y-105105269D01*
X102508811Y-105105266D01*
X102415913Y-104931467D01*
X102415909Y-104931460D01*
X102290883Y-104779116D01*
X102138539Y-104654090D01*
X102138532Y-104654085D01*
X101971047Y-104564563D01*
X101921202Y-104515601D01*
X101905500Y-104455205D01*
X101905500Y-104296920D01*
X101905736Y-104291513D01*
X101909264Y-104251193D01*
X101898782Y-104212076D01*
X101897616Y-104206818D01*
X101890588Y-104166955D01*
X101890586Y-104166952D01*
X101890586Y-104166950D01*
X101888760Y-104161933D01*
X101881820Y-104145176D01*
X101879554Y-104140319D01*
X101879554Y-104140316D01*
X101856339Y-104107162D01*
X101853433Y-104102599D01*
X101833196Y-104067548D01*
X101833195Y-104067547D01*
X101833194Y-104067545D01*
X101802177Y-104041518D01*
X101798193Y-104037867D01*
X101363516Y-103603190D01*
X100892119Y-103131793D01*
X100888474Y-103127814D01*
X100862456Y-103096807D01*
X100862455Y-103096806D01*
X100851058Y-103090226D01*
X100827392Y-103076561D01*
X100822831Y-103073655D01*
X100809687Y-103064452D01*
X100789684Y-103050446D01*
X100789681Y-103050445D01*
X100784861Y-103048197D01*
X100768055Y-103041235D01*
X100763043Y-103039411D01*
X100723190Y-103032383D01*
X100717910Y-103031212D01*
X100678808Y-103020735D01*
X100643892Y-103023790D01*
X100638481Y-103024264D01*
X100633078Y-103024500D01*
X97036188Y-103024500D01*
X96969149Y-103004815D01*
X96948507Y-102988181D01*
X96411819Y-102451493D01*
X96378334Y-102390170D01*
X96375500Y-102363812D01*
X96375500Y-96766912D01*
X96375736Y-96761506D01*
X96379263Y-96721191D01*
X96368785Y-96682090D01*
X96367618Y-96676830D01*
X96360588Y-96636955D01*
X96360587Y-96636953D01*
X96358760Y-96631933D01*
X96351820Y-96615176D01*
X96349554Y-96610319D01*
X96349554Y-96610316D01*
X96326337Y-96577159D01*
X96323435Y-96572605D01*
X96303194Y-96537545D01*
X96272182Y-96511522D01*
X96268210Y-96507883D01*
X95392119Y-95631793D01*
X95388474Y-95627814D01*
X95362456Y-95596807D01*
X95362455Y-95596806D01*
X95351058Y-95590226D01*
X95327392Y-95576561D01*
X95322831Y-95573655D01*
X95304590Y-95560883D01*
X95289684Y-95550446D01*
X95289681Y-95550445D01*
X95284861Y-95548197D01*
X95268055Y-95541235D01*
X95263043Y-95539411D01*
X95223190Y-95532383D01*
X95217910Y-95531212D01*
X95178808Y-95520735D01*
X95143892Y-95523790D01*
X95138481Y-95524264D01*
X95133078Y-95524500D01*
X86336188Y-95524500D01*
X86269149Y-95504815D01*
X86248507Y-95488181D01*
X85111819Y-94351492D01*
X85078334Y-94290169D01*
X85075500Y-94263811D01*
X85075500Y-83500000D01*
X85619364Y-83500000D01*
X85676567Y-83713486D01*
X85676570Y-83713492D01*
X85776399Y-83927577D01*
X85776400Y-83927579D01*
X85911886Y-84121073D01*
X85911891Y-84121079D01*
X86078920Y-84288108D01*
X86078926Y-84288113D01*
X86272420Y-84423599D01*
X86272422Y-84423600D01*
X86357168Y-84463118D01*
X86409607Y-84509290D01*
X86428759Y-84576484D01*
X86408543Y-84643365D01*
X86355378Y-84688700D01*
X86304763Y-84699500D01*
X86295730Y-84699500D01*
X86265300Y-84702353D01*
X86265298Y-84702353D01*
X86137119Y-84747206D01*
X86137117Y-84747207D01*
X86027850Y-84827850D01*
X85947207Y-84937117D01*
X85947206Y-84937119D01*
X85902353Y-85065298D01*
X85902353Y-85065300D01*
X85899500Y-85095730D01*
X85899500Y-86404269D01*
X85902353Y-86434699D01*
X85902353Y-86434701D01*
X85947206Y-86562880D01*
X85947207Y-86562882D01*
X86027850Y-86672150D01*
X86137118Y-86752793D01*
X86179845Y-86767744D01*
X86265299Y-86797646D01*
X86295730Y-86800500D01*
X86295734Y-86800500D01*
X87854270Y-86800500D01*
X87884699Y-86797646D01*
X87884701Y-86797646D01*
X87948790Y-86775219D01*
X88012882Y-86752793D01*
X88122150Y-86672150D01*
X88202793Y-86562882D01*
X88226052Y-86496410D01*
X88247646Y-86434701D01*
X88247646Y-86434699D01*
X88250500Y-86404269D01*
X88250500Y-85095730D01*
X88247646Y-85065300D01*
X88247646Y-85065298D01*
X88202793Y-84937119D01*
X88202792Y-84937117D01*
X88165205Y-84886188D01*
X88122150Y-84827850D01*
X88012882Y-84747207D01*
X88012880Y-84747206D01*
X87884700Y-84702353D01*
X87854270Y-84699500D01*
X87854266Y-84699500D01*
X87845237Y-84699500D01*
X87778198Y-84679815D01*
X87732443Y-84627011D01*
X87722499Y-84557853D01*
X87751524Y-84494297D01*
X87792832Y-84463118D01*
X87877577Y-84423600D01*
X87877579Y-84423599D01*
X88071073Y-84288113D01*
X88071079Y-84288108D01*
X88238105Y-84121082D01*
X88373600Y-83927578D01*
X88473429Y-83713492D01*
X88473432Y-83713486D01*
X88530636Y-83500000D01*
X87478969Y-83500000D01*
X87511519Y-83449351D01*
X87550000Y-83318295D01*
X87550000Y-83181705D01*
X87511519Y-83050649D01*
X87478969Y-83000000D01*
X88530636Y-83000000D01*
X88530635Y-82999999D01*
X88473432Y-82786513D01*
X88473429Y-82786507D01*
X88373600Y-82572422D01*
X88373599Y-82572420D01*
X88238113Y-82378926D01*
X88238108Y-82378920D01*
X88071079Y-82211891D01*
X88071073Y-82211886D01*
X87877579Y-82076400D01*
X87877577Y-82076399D01*
X87663492Y-81976570D01*
X87663486Y-81976567D01*
X87611366Y-81962602D01*
X87551706Y-81926237D01*
X87521177Y-81863390D01*
X87529472Y-81794014D01*
X87573957Y-81740136D01*
X87598662Y-81728364D01*
X87598330Y-81727562D01*
X87603948Y-81725234D01*
X87603948Y-81725233D01*
X87603954Y-81725232D01*
X87786450Y-81627685D01*
X87946410Y-81496410D01*
X88077685Y-81336450D01*
X88175232Y-81153954D01*
X88175234Y-81153945D01*
X88176021Y-81152049D01*
X88176701Y-81151203D01*
X88178104Y-81148581D01*
X88178601Y-81148846D01*
X88219862Y-81097645D01*
X88286156Y-81075579D01*
X88290583Y-81075500D01*
X90063812Y-81075500D01*
X90130851Y-81095185D01*
X90151493Y-81111819D01*
X91088181Y-82048507D01*
X91121666Y-82109830D01*
X91124500Y-82136188D01*
X91124500Y-91533078D01*
X91124264Y-91538485D01*
X91120735Y-91578808D01*
X91131212Y-91617910D01*
X91132383Y-91623190D01*
X91139411Y-91663043D01*
X91141235Y-91668055D01*
X91148197Y-91684861D01*
X91150445Y-91689681D01*
X91150446Y-91689684D01*
X91164452Y-91709687D01*
X91173655Y-91722831D01*
X91176561Y-91727392D01*
X91196806Y-91762455D01*
X91227815Y-91788475D01*
X91231805Y-91792131D01*
X92407868Y-92968195D01*
X92411523Y-92972184D01*
X92437541Y-93003190D01*
X92437543Y-93003191D01*
X92437545Y-93003194D01*
X92472599Y-93023432D01*
X92477159Y-93026337D01*
X92510316Y-93049554D01*
X92510319Y-93049554D01*
X92515176Y-93051820D01*
X92531933Y-93058760D01*
X92536953Y-93060587D01*
X92536955Y-93060588D01*
X92576830Y-93067618D01*
X92582087Y-93068784D01*
X92621193Y-93079263D01*
X92661510Y-93075735D01*
X92666912Y-93075500D01*
X108433078Y-93075500D01*
X108438481Y-93075735D01*
X108478807Y-93079264D01*
X108517940Y-93068777D01*
X108523162Y-93067619D01*
X108563045Y-93060588D01*
X108563050Y-93060584D01*
X108568099Y-93058747D01*
X108584824Y-93051819D01*
X108589681Y-93049554D01*
X108589684Y-93049554D01*
X108622841Y-93026335D01*
X108627390Y-93023438D01*
X108662455Y-93003194D01*
X108662459Y-93003190D01*
X108673537Y-92989986D01*
X108688481Y-92972176D01*
X108692122Y-92968202D01*
X109418210Y-92242115D01*
X109422172Y-92238484D01*
X109453194Y-92212455D01*
X109473444Y-92177379D01*
X109476328Y-92172852D01*
X109499554Y-92139684D01*
X109499554Y-92139681D01*
X109501819Y-92134824D01*
X109508747Y-92118099D01*
X109510587Y-92113046D01*
X109510588Y-92113045D01*
X109517621Y-92073150D01*
X109518777Y-92067937D01*
X109529263Y-92028807D01*
X109525735Y-91988489D01*
X109525500Y-91983086D01*
X109525500Y-91284794D01*
X109545185Y-91217755D01*
X109591047Y-91175436D01*
X109751479Y-91089683D01*
X109758538Y-91085910D01*
X109910883Y-90960883D01*
X110035910Y-90808538D01*
X110107313Y-90674952D01*
X110128811Y-90634733D01*
X110128811Y-90634732D01*
X110128814Y-90634727D01*
X110186024Y-90446132D01*
X110205341Y-90250000D01*
X110186024Y-90053868D01*
X110128814Y-89865273D01*
X110128811Y-89865269D01*
X110128811Y-89865266D01*
X110035913Y-89691467D01*
X110035909Y-89691460D01*
X109942930Y-89578165D01*
X109915617Y-89513855D01*
X109927408Y-89444987D01*
X109974560Y-89393427D01*
X110038783Y-89375500D01*
X110901217Y-89375500D01*
X110968256Y-89395185D01*
X111014011Y-89447989D01*
X111023955Y-89517147D01*
X110997070Y-89578165D01*
X110904090Y-89691460D01*
X110904086Y-89691467D01*
X110811188Y-89865266D01*
X110753975Y-90053870D01*
X110734659Y-90250000D01*
X110753975Y-90446129D01*
X110766985Y-90489016D01*
X110796701Y-90586978D01*
X110811188Y-90634733D01*
X110904086Y-90808532D01*
X110904090Y-90808539D01*
X111029116Y-90960883D01*
X111181460Y-91085909D01*
X111181467Y-91085913D01*
X111355266Y-91178811D01*
X111355269Y-91178811D01*
X111355273Y-91178814D01*
X111543868Y-91236024D01*
X111740000Y-91255341D01*
X111936132Y-91236024D01*
X112124727Y-91178814D01*
X112129289Y-91176376D01*
X112291479Y-91089683D01*
X112298538Y-91085910D01*
X112450883Y-90960883D01*
X112575910Y-90808538D01*
X112647313Y-90674952D01*
X112668811Y-90634733D01*
X112668811Y-90634732D01*
X112668814Y-90634727D01*
X112726024Y-90446132D01*
X112745341Y-90250000D01*
X112726024Y-90053868D01*
X112668814Y-89865273D01*
X112668811Y-89865269D01*
X112668811Y-89865266D01*
X112575913Y-89691467D01*
X112575909Y-89691460D01*
X112482930Y-89578165D01*
X112455617Y-89513855D01*
X112467408Y-89444987D01*
X112514560Y-89393427D01*
X112578783Y-89375500D01*
X113067122Y-89375500D01*
X113134161Y-89395185D01*
X113179916Y-89447989D01*
X113189860Y-89517147D01*
X113168697Y-89570623D01*
X113149868Y-89597512D01*
X113149866Y-89597516D01*
X113053734Y-89803673D01*
X113053730Y-89803682D01*
X113001127Y-89999999D01*
X113001128Y-90000000D01*
X113846314Y-90000000D01*
X113820507Y-90040156D01*
X113780000Y-90178111D01*
X113780000Y-90321889D01*
X113820507Y-90459844D01*
X113846314Y-90500000D01*
X113001128Y-90500000D01*
X113053730Y-90696317D01*
X113053734Y-90696326D01*
X113149865Y-90902482D01*
X113280342Y-91088820D01*
X113441179Y-91249657D01*
X113627517Y-91380134D01*
X113833673Y-91476265D01*
X113833682Y-91476269D01*
X114029999Y-91528872D01*
X114030000Y-91528871D01*
X114030000Y-90685501D01*
X114137685Y-90734680D01*
X114244237Y-90750000D01*
X114315763Y-90750000D01*
X114422315Y-90734680D01*
X114529999Y-90685501D01*
X114529999Y-91528871D01*
X114530000Y-91528872D01*
X114726317Y-91476269D01*
X114726326Y-91476265D01*
X114932482Y-91380134D01*
X115118820Y-91249657D01*
X115279657Y-91088820D01*
X115410134Y-90902482D01*
X115506265Y-90696326D01*
X115506269Y-90696317D01*
X115558872Y-90500000D01*
X114713686Y-90500000D01*
X114739493Y-90459844D01*
X114780000Y-90321889D01*
X114780000Y-90178111D01*
X114739493Y-90040156D01*
X114713686Y-90000000D01*
X115558872Y-90000000D01*
X115558872Y-89999999D01*
X115506269Y-89803682D01*
X115506265Y-89803673D01*
X115410133Y-89597516D01*
X115410131Y-89597512D01*
X115391303Y-89570623D01*
X115368976Y-89504417D01*
X115385986Y-89436650D01*
X115436934Y-89388837D01*
X115492878Y-89375500D01*
X115981217Y-89375500D01*
X116048256Y-89395185D01*
X116094011Y-89447989D01*
X116103955Y-89517147D01*
X116077070Y-89578165D01*
X115984090Y-89691460D01*
X115984086Y-89691467D01*
X115891188Y-89865266D01*
X115833975Y-90053870D01*
X115814659Y-90250000D01*
X115833975Y-90446129D01*
X115846985Y-90489016D01*
X115876701Y-90586978D01*
X115891188Y-90634733D01*
X115984086Y-90808532D01*
X115984090Y-90808539D01*
X116109116Y-90960883D01*
X116261460Y-91085909D01*
X116261467Y-91085913D01*
X116435266Y-91178811D01*
X116435269Y-91178811D01*
X116435273Y-91178814D01*
X116623868Y-91236024D01*
X116820000Y-91255341D01*
X117016132Y-91236024D01*
X117204727Y-91178814D01*
X117209289Y-91176376D01*
X117371479Y-91089683D01*
X117378538Y-91085910D01*
X117530883Y-90960883D01*
X117655910Y-90808538D01*
X117727313Y-90674952D01*
X117748811Y-90634733D01*
X117748811Y-90634732D01*
X117748814Y-90634727D01*
X117806024Y-90446132D01*
X117825341Y-90250000D01*
X118354659Y-90250000D01*
X118373975Y-90446129D01*
X118386985Y-90489016D01*
X118416701Y-90586978D01*
X118431188Y-90634733D01*
X118524086Y-90808532D01*
X118524090Y-90808539D01*
X118649116Y-90960883D01*
X118801460Y-91085909D01*
X118801467Y-91085913D01*
X118975266Y-91178811D01*
X118975269Y-91178811D01*
X118975273Y-91178814D01*
X119163868Y-91236024D01*
X119360000Y-91255341D01*
X119556132Y-91236024D01*
X119744727Y-91178814D01*
X119749289Y-91176376D01*
X119911479Y-91089683D01*
X119918538Y-91085910D01*
X119938226Y-91069752D01*
X120899500Y-91069752D01*
X120911131Y-91128229D01*
X120911132Y-91128230D01*
X120955447Y-91194552D01*
X121021769Y-91238867D01*
X121021770Y-91238868D01*
X121080247Y-91250499D01*
X121080250Y-91250500D01*
X121080252Y-91250500D01*
X122719750Y-91250500D01*
X122719751Y-91250499D01*
X122734568Y-91247552D01*
X122778229Y-91238868D01*
X122778229Y-91238867D01*
X122778231Y-91238867D01*
X122844552Y-91194552D01*
X122888867Y-91128231D01*
X122888867Y-91128229D01*
X122888868Y-91128229D01*
X122897552Y-91084568D01*
X122900500Y-91069748D01*
X122900500Y-89430252D01*
X122900500Y-89430251D01*
X122900500Y-89430249D01*
X122900499Y-89430247D01*
X122888868Y-89371770D01*
X122888867Y-89371769D01*
X122844552Y-89305447D01*
X122778230Y-89261132D01*
X122778229Y-89261131D01*
X122719752Y-89249500D01*
X122719748Y-89249500D01*
X121080252Y-89249500D01*
X121080247Y-89249500D01*
X121021770Y-89261131D01*
X121021769Y-89261132D01*
X120955447Y-89305447D01*
X120911132Y-89371769D01*
X120911131Y-89371770D01*
X120899500Y-89430247D01*
X120899500Y-91069752D01*
X119938226Y-91069752D01*
X120070883Y-90960883D01*
X120195910Y-90808538D01*
X120267313Y-90674952D01*
X120288811Y-90634733D01*
X120288811Y-90634732D01*
X120288814Y-90634727D01*
X120346024Y-90446132D01*
X120365341Y-90250000D01*
X120346024Y-90053868D01*
X120288814Y-89865273D01*
X120288811Y-89865269D01*
X120288811Y-89865266D01*
X120195913Y-89691467D01*
X120195909Y-89691460D01*
X120070883Y-89539116D01*
X119918539Y-89414090D01*
X119918532Y-89414086D01*
X119744733Y-89321188D01*
X119744727Y-89321186D01*
X119584581Y-89272606D01*
X119556129Y-89263975D01*
X119360000Y-89244659D01*
X119163870Y-89263975D01*
X118975266Y-89321188D01*
X118801467Y-89414086D01*
X118801460Y-89414090D01*
X118649116Y-89539116D01*
X118524090Y-89691460D01*
X118524086Y-89691467D01*
X118431188Y-89865266D01*
X118373975Y-90053870D01*
X118354659Y-90250000D01*
X117825341Y-90250000D01*
X117806024Y-90053868D01*
X117748814Y-89865273D01*
X117748811Y-89865269D01*
X117748811Y-89865266D01*
X117655913Y-89691467D01*
X117655909Y-89691460D01*
X117535962Y-89545305D01*
X117508649Y-89480995D01*
X117520440Y-89412128D01*
X117567592Y-89360567D01*
X117580316Y-89355142D01*
X117579849Y-89354140D01*
X117589681Y-89349554D01*
X117589684Y-89349554D01*
X117622841Y-89326335D01*
X117627390Y-89323438D01*
X117662455Y-89303194D01*
X117688481Y-89272176D01*
X117692122Y-89268202D01*
X118193204Y-88767120D01*
X118197166Y-88763489D01*
X118228194Y-88737455D01*
X118248438Y-88702390D01*
X118251335Y-88697841D01*
X118274554Y-88664684D01*
X118274554Y-88664681D01*
X118276819Y-88659824D01*
X118283747Y-88643099D01*
X118285587Y-88638046D01*
X118285588Y-88638045D01*
X118292621Y-88598150D01*
X118293777Y-88592937D01*
X118304263Y-88553807D01*
X118300735Y-88513489D01*
X118300500Y-88508086D01*
X118300500Y-87484794D01*
X118320185Y-87417755D01*
X118366047Y-87375436D01*
X118425335Y-87343745D01*
X118533538Y-87285910D01*
X118685883Y-87160883D01*
X118810910Y-87008538D01*
X118903814Y-86834727D01*
X118961024Y-86646132D01*
X118980341Y-86450000D01*
X118961024Y-86253868D01*
X118903814Y-86065273D01*
X118903811Y-86065269D01*
X118903811Y-86065266D01*
X118810913Y-85891467D01*
X118810909Y-85891460D01*
X118685883Y-85739116D01*
X118533539Y-85614090D01*
X118533532Y-85614086D01*
X118359733Y-85521188D01*
X118359727Y-85521186D01*
X118171132Y-85463976D01*
X118171129Y-85463975D01*
X117975000Y-85444659D01*
X117778870Y-85463975D01*
X117590266Y-85521188D01*
X117416467Y-85614086D01*
X117416460Y-85614090D01*
X117264116Y-85739116D01*
X117139090Y-85891460D01*
X117139086Y-85891467D01*
X117046188Y-86065266D01*
X116988975Y-86253870D01*
X116969659Y-86450000D01*
X116988975Y-86646129D01*
X117005317Y-86700000D01*
X117031192Y-86785300D01*
X117046188Y-86834733D01*
X117139086Y-87008532D01*
X117139090Y-87008539D01*
X117264116Y-87160883D01*
X117416460Y-87285909D01*
X117416467Y-87285913D01*
X117583953Y-87375436D01*
X117633797Y-87424398D01*
X117649500Y-87484794D01*
X117649500Y-88338811D01*
X117629815Y-88405850D01*
X117613181Y-88426492D01*
X117351493Y-88688181D01*
X117290170Y-88721666D01*
X117263812Y-88724500D01*
X115435188Y-88724500D01*
X115368149Y-88704815D01*
X115322394Y-88652011D01*
X115312450Y-88582853D01*
X115341475Y-88519297D01*
X115347498Y-88512827D01*
X115653215Y-88207109D01*
X115657166Y-88203489D01*
X115688194Y-88177455D01*
X115708438Y-88142390D01*
X115711335Y-88137841D01*
X115734554Y-88104684D01*
X115734554Y-88104681D01*
X115736819Y-88099824D01*
X115743747Y-88083099D01*
X115745584Y-88078050D01*
X115745588Y-88078045D01*
X115752619Y-88038162D01*
X115753777Y-88032940D01*
X115764264Y-87993807D01*
X115760735Y-87953481D01*
X115760500Y-87948078D01*
X115760500Y-87720735D01*
X115760500Y-87484790D01*
X115780183Y-87417755D01*
X115826042Y-87375438D01*
X115993538Y-87285910D01*
X116145883Y-87160883D01*
X116270910Y-87008538D01*
X116363814Y-86834727D01*
X116421024Y-86646132D01*
X116440341Y-86450000D01*
X116421024Y-86253868D01*
X116363814Y-86065273D01*
X116363811Y-86065269D01*
X116363811Y-86065266D01*
X116270913Y-85891467D01*
X116270909Y-85891460D01*
X116145883Y-85739116D01*
X115993539Y-85614090D01*
X115993532Y-85614086D01*
X115819733Y-85521188D01*
X115819727Y-85521186D01*
X115631132Y-85463976D01*
X115631129Y-85463975D01*
X115435000Y-85444659D01*
X115238870Y-85463975D01*
X115050266Y-85521188D01*
X114876467Y-85614086D01*
X114876460Y-85614090D01*
X114724116Y-85739116D01*
X114599090Y-85891460D01*
X114599086Y-85891467D01*
X114506188Y-86065266D01*
X114448975Y-86253870D01*
X114429659Y-86450000D01*
X114448975Y-86646129D01*
X114465317Y-86700000D01*
X114491192Y-86785300D01*
X114506188Y-86834733D01*
X114599086Y-87008532D01*
X114599090Y-87008539D01*
X114724116Y-87160883D01*
X114876460Y-87285909D01*
X114876467Y-87285913D01*
X115043953Y-87375436D01*
X115093797Y-87424398D01*
X115109500Y-87484794D01*
X115109500Y-87778812D01*
X115089815Y-87845851D01*
X115073181Y-87866493D01*
X114751493Y-88188181D01*
X114690170Y-88221666D01*
X114663812Y-88224500D01*
X113135187Y-88224500D01*
X113068148Y-88204815D01*
X113022393Y-88152011D01*
X113012449Y-88082853D01*
X113041474Y-88019297D01*
X113047488Y-88012837D01*
X113113215Y-87947109D01*
X113117166Y-87943489D01*
X113148194Y-87917455D01*
X113168438Y-87882390D01*
X113171335Y-87877841D01*
X113194554Y-87844684D01*
X113194554Y-87844681D01*
X113196819Y-87839824D01*
X113203747Y-87823099D01*
X113205584Y-87818050D01*
X113205588Y-87818045D01*
X113212619Y-87778162D01*
X113213777Y-87772940D01*
X113224264Y-87733807D01*
X113220735Y-87693478D01*
X113220500Y-87688075D01*
X113220500Y-87484794D01*
X113240185Y-87417755D01*
X113286047Y-87375436D01*
X113345335Y-87343745D01*
X113453538Y-87285910D01*
X113605883Y-87160883D01*
X113730910Y-87008538D01*
X113823814Y-86834727D01*
X113881024Y-86646132D01*
X113900341Y-86450000D01*
X113881024Y-86253868D01*
X113823814Y-86065273D01*
X113823811Y-86065269D01*
X113823811Y-86065266D01*
X113730913Y-85891467D01*
X113730909Y-85891460D01*
X113605883Y-85739116D01*
X113453539Y-85614090D01*
X113453532Y-85614086D01*
X113279733Y-85521188D01*
X113279727Y-85521186D01*
X113091132Y-85463976D01*
X113091129Y-85463975D01*
X112895000Y-85444659D01*
X112698870Y-85463975D01*
X112510266Y-85521188D01*
X112336467Y-85614086D01*
X112336460Y-85614090D01*
X112184116Y-85739116D01*
X112059090Y-85891460D01*
X112059086Y-85891467D01*
X111966188Y-86065266D01*
X111908975Y-86253870D01*
X111889659Y-86450000D01*
X111908975Y-86646129D01*
X111925317Y-86700000D01*
X111951192Y-86785300D01*
X111966188Y-86834733D01*
X112059086Y-87008532D01*
X112059090Y-87008539D01*
X112184116Y-87160883D01*
X112336460Y-87285909D01*
X112336467Y-87285913D01*
X112503953Y-87375436D01*
X112553797Y-87424398D01*
X112569500Y-87484798D01*
X112569499Y-87518816D01*
X112549812Y-87585855D01*
X112533180Y-87606493D01*
X112451491Y-87688182D01*
X112390171Y-87721666D01*
X112363812Y-87724500D01*
X101034584Y-87724500D01*
X100967545Y-87704815D01*
X100921790Y-87652011D01*
X100911846Y-87582853D01*
X100940871Y-87519297D01*
X100963460Y-87498925D01*
X101033820Y-87449657D01*
X101194657Y-87288820D01*
X101325134Y-87102482D01*
X101421265Y-86896326D01*
X101421269Y-86896317D01*
X101473872Y-86700000D01*
X100628686Y-86700000D01*
X100654493Y-86659844D01*
X100695000Y-86521889D01*
X100695000Y-86450000D01*
X101729659Y-86450000D01*
X101748975Y-86646129D01*
X101765317Y-86700000D01*
X101791192Y-86785300D01*
X101806188Y-86834733D01*
X101899086Y-87008532D01*
X101899090Y-87008539D01*
X102024116Y-87160883D01*
X102176460Y-87285909D01*
X102176467Y-87285913D01*
X102350266Y-87378811D01*
X102350269Y-87378811D01*
X102350273Y-87378814D01*
X102538868Y-87436024D01*
X102735000Y-87455341D01*
X102931132Y-87436024D01*
X103119727Y-87378814D01*
X103293538Y-87285910D01*
X103445883Y-87160883D01*
X103570910Y-87008538D01*
X103663814Y-86834727D01*
X103721024Y-86646132D01*
X103740341Y-86450000D01*
X104269659Y-86450000D01*
X104288975Y-86646129D01*
X104305317Y-86700000D01*
X104331192Y-86785300D01*
X104346188Y-86834733D01*
X104439086Y-87008532D01*
X104439090Y-87008539D01*
X104564116Y-87160883D01*
X104716460Y-87285909D01*
X104716467Y-87285913D01*
X104890266Y-87378811D01*
X104890269Y-87378811D01*
X104890273Y-87378814D01*
X105078868Y-87436024D01*
X105275000Y-87455341D01*
X105471132Y-87436024D01*
X105659727Y-87378814D01*
X105833538Y-87285910D01*
X105985883Y-87160883D01*
X106110910Y-87008538D01*
X106203814Y-86834727D01*
X106261024Y-86646132D01*
X106280341Y-86450000D01*
X106809659Y-86450000D01*
X106828975Y-86646129D01*
X106845317Y-86700000D01*
X106871192Y-86785300D01*
X106886188Y-86834733D01*
X106979086Y-87008532D01*
X106979090Y-87008539D01*
X107104116Y-87160883D01*
X107256460Y-87285909D01*
X107256467Y-87285913D01*
X107430266Y-87378811D01*
X107430269Y-87378811D01*
X107430273Y-87378814D01*
X107618868Y-87436024D01*
X107815000Y-87455341D01*
X108011132Y-87436024D01*
X108199727Y-87378814D01*
X108373538Y-87285910D01*
X108525883Y-87160883D01*
X108650910Y-87008538D01*
X108743814Y-86834727D01*
X108801024Y-86646132D01*
X108820341Y-86450000D01*
X108801024Y-86253868D01*
X108743814Y-86065273D01*
X108743811Y-86065269D01*
X108743811Y-86065266D01*
X108650913Y-85891467D01*
X108650909Y-85891460D01*
X108525883Y-85739116D01*
X108373539Y-85614090D01*
X108373532Y-85614086D01*
X108199733Y-85521188D01*
X108199727Y-85521186D01*
X108011132Y-85463976D01*
X108011129Y-85463975D01*
X107815000Y-85444659D01*
X107618870Y-85463975D01*
X107430266Y-85521188D01*
X107256467Y-85614086D01*
X107256460Y-85614090D01*
X107104116Y-85739116D01*
X106979090Y-85891460D01*
X106979086Y-85891467D01*
X106886188Y-86065266D01*
X106828975Y-86253870D01*
X106809659Y-86450000D01*
X106280341Y-86450000D01*
X106261024Y-86253868D01*
X106203814Y-86065273D01*
X106203811Y-86065269D01*
X106203811Y-86065266D01*
X106110913Y-85891467D01*
X106110909Y-85891460D01*
X105985883Y-85739116D01*
X105833539Y-85614090D01*
X105833532Y-85614086D01*
X105659733Y-85521188D01*
X105659727Y-85521186D01*
X105471132Y-85463976D01*
X105471129Y-85463975D01*
X105275000Y-85444659D01*
X105078870Y-85463975D01*
X104890266Y-85521188D01*
X104716467Y-85614086D01*
X104716460Y-85614090D01*
X104564116Y-85739116D01*
X104439090Y-85891460D01*
X104439086Y-85891467D01*
X104346188Y-86065266D01*
X104288975Y-86253870D01*
X104269659Y-86450000D01*
X103740341Y-86450000D01*
X103721024Y-86253868D01*
X103663814Y-86065273D01*
X103663811Y-86065269D01*
X103663811Y-86065266D01*
X103570913Y-85891467D01*
X103570909Y-85891460D01*
X103445883Y-85739116D01*
X103293539Y-85614090D01*
X103293532Y-85614086D01*
X103119733Y-85521188D01*
X103119727Y-85521186D01*
X102931132Y-85463976D01*
X102931129Y-85463975D01*
X102735000Y-85444659D01*
X102538870Y-85463975D01*
X102350266Y-85521188D01*
X102176467Y-85614086D01*
X102176460Y-85614090D01*
X102024116Y-85739116D01*
X101899090Y-85891460D01*
X101899086Y-85891467D01*
X101806188Y-86065266D01*
X101748975Y-86253870D01*
X101729659Y-86450000D01*
X100695000Y-86450000D01*
X100695000Y-86378111D01*
X100654493Y-86240156D01*
X100628686Y-86200000D01*
X101473872Y-86200000D01*
X101473872Y-86199999D01*
X101421269Y-86003682D01*
X101421265Y-86003673D01*
X101325134Y-85797517D01*
X101194657Y-85611179D01*
X101033820Y-85450342D01*
X100847482Y-85319865D01*
X100641328Y-85223734D01*
X100445000Y-85171127D01*
X100445000Y-86014498D01*
X100337315Y-85965320D01*
X100230763Y-85950000D01*
X100159237Y-85950000D01*
X100052685Y-85965320D01*
X99945000Y-86014498D01*
X99945000Y-85171127D01*
X99748671Y-85223734D01*
X99542517Y-85319865D01*
X99356179Y-85450342D01*
X99195342Y-85611179D01*
X99064865Y-85797517D01*
X98968734Y-86003673D01*
X98968730Y-86003682D01*
X98916127Y-86199999D01*
X98916128Y-86200000D01*
X99761314Y-86200000D01*
X99735507Y-86240156D01*
X99695000Y-86378111D01*
X99695000Y-86521889D01*
X99735507Y-86659844D01*
X99761314Y-86700000D01*
X98916128Y-86700000D01*
X98968730Y-86896317D01*
X98968734Y-86896326D01*
X99064865Y-87102482D01*
X99195342Y-87288820D01*
X99356179Y-87449657D01*
X99426540Y-87498925D01*
X99470165Y-87553503D01*
X99477357Y-87623001D01*
X99445835Y-87685356D01*
X99385605Y-87720769D01*
X99355416Y-87724500D01*
X99166922Y-87724500D01*
X99161518Y-87724264D01*
X99156107Y-87723790D01*
X99121192Y-87720735D01*
X99121191Y-87720735D01*
X99082091Y-87731212D01*
X99076811Y-87732383D01*
X99036959Y-87739410D01*
X99031961Y-87741229D01*
X99015117Y-87748206D01*
X99010313Y-87750446D01*
X98977166Y-87773656D01*
X98972606Y-87776562D01*
X98937548Y-87796804D01*
X98937540Y-87796810D01*
X98911523Y-87827815D01*
X98907869Y-87831804D01*
X97531803Y-89207870D01*
X97527814Y-89211525D01*
X97496805Y-89237545D01*
X97476562Y-89272606D01*
X97473656Y-89277166D01*
X97450446Y-89310313D01*
X97448206Y-89315117D01*
X97441229Y-89331961D01*
X97439410Y-89336959D01*
X97432383Y-89376811D01*
X97431212Y-89382091D01*
X97420735Y-89421191D01*
X97420735Y-89421193D01*
X97422469Y-89441004D01*
X97408703Y-89509504D01*
X97360088Y-89559687D01*
X97292060Y-89575621D01*
X97226216Y-89552246D01*
X97211260Y-89539493D01*
X97210885Y-89539118D01*
X97058539Y-89414090D01*
X97058532Y-89414085D01*
X96891047Y-89324563D01*
X96841202Y-89275601D01*
X96825500Y-89215205D01*
X96825500Y-84886188D01*
X96845185Y-84819149D01*
X96861819Y-84798507D01*
X97448507Y-84211819D01*
X97509830Y-84178334D01*
X97536188Y-84175500D01*
X109663812Y-84175500D01*
X109730851Y-84195185D01*
X109751493Y-84211819D01*
X109993180Y-84453506D01*
X110026665Y-84514829D01*
X110029499Y-84541187D01*
X110029499Y-85415205D01*
X110009814Y-85482244D01*
X109963953Y-85524563D01*
X109796463Y-85614088D01*
X109796460Y-85614090D01*
X109644116Y-85739116D01*
X109519090Y-85891460D01*
X109519086Y-85891467D01*
X109426188Y-86065266D01*
X109368975Y-86253870D01*
X109349659Y-86450000D01*
X109368975Y-86646129D01*
X109385317Y-86700000D01*
X109411192Y-86785300D01*
X109426188Y-86834733D01*
X109519086Y-87008532D01*
X109519090Y-87008539D01*
X109644116Y-87160883D01*
X109796460Y-87285909D01*
X109796467Y-87285913D01*
X109970266Y-87378811D01*
X109970269Y-87378811D01*
X109970273Y-87378814D01*
X110158868Y-87436024D01*
X110355000Y-87455341D01*
X110551132Y-87436024D01*
X110739727Y-87378814D01*
X110913538Y-87285910D01*
X111065883Y-87160883D01*
X111190910Y-87008538D01*
X111283814Y-86834727D01*
X111341024Y-86646132D01*
X111360341Y-86450000D01*
X111341024Y-86253868D01*
X111283814Y-86065273D01*
X111283811Y-86065269D01*
X111283811Y-86065266D01*
X111190913Y-85891467D01*
X111190909Y-85891460D01*
X111065883Y-85739116D01*
X110913539Y-85614090D01*
X110913532Y-85614086D01*
X110746046Y-85524563D01*
X110696202Y-85475601D01*
X110680499Y-85415208D01*
X110680499Y-84371922D01*
X110680735Y-84366515D01*
X110684264Y-84326193D01*
X110673782Y-84287076D01*
X110672616Y-84281818D01*
X110665588Y-84241955D01*
X110665586Y-84241952D01*
X110665586Y-84241950D01*
X110663760Y-84236933D01*
X110656820Y-84220176D01*
X110654554Y-84215319D01*
X110654554Y-84215316D01*
X110631339Y-84182162D01*
X110628433Y-84177599D01*
X110608196Y-84142548D01*
X110608195Y-84142547D01*
X110608194Y-84142545D01*
X110577177Y-84116518D01*
X110573193Y-84112867D01*
X110387903Y-83927577D01*
X110092119Y-83631793D01*
X110088474Y-83627814D01*
X110062456Y-83596807D01*
X110062455Y-83596806D01*
X110051058Y-83590226D01*
X110027392Y-83576561D01*
X110022831Y-83573655D01*
X110009410Y-83564258D01*
X109989684Y-83550446D01*
X109989681Y-83550445D01*
X109984861Y-83548197D01*
X109968055Y-83541235D01*
X109963043Y-83539411D01*
X109923190Y-83532383D01*
X109917910Y-83531212D01*
X109878808Y-83520735D01*
X109843892Y-83523790D01*
X109838481Y-83524264D01*
X109833078Y-83524500D01*
X97366923Y-83524500D01*
X97361519Y-83524264D01*
X97355618Y-83523747D01*
X97321192Y-83520735D01*
X97282090Y-83531213D01*
X97276809Y-83532384D01*
X97236955Y-83539412D01*
X97231962Y-83541229D01*
X97215117Y-83548206D01*
X97210313Y-83550446D01*
X97177166Y-83573656D01*
X97172606Y-83576562D01*
X97137548Y-83596804D01*
X97137540Y-83596810D01*
X97111523Y-83627815D01*
X97107869Y-83631804D01*
X96281803Y-84457870D01*
X96277814Y-84461525D01*
X96246805Y-84487545D01*
X96226562Y-84522606D01*
X96223656Y-84527166D01*
X96200446Y-84560313D01*
X96198206Y-84565117D01*
X96191229Y-84581961D01*
X96189410Y-84586959D01*
X96182383Y-84626811D01*
X96181212Y-84632091D01*
X96170735Y-84671191D01*
X96174264Y-84711513D01*
X96174500Y-84716920D01*
X96174500Y-89215205D01*
X96154815Y-89282244D01*
X96108953Y-89324563D01*
X95941467Y-89414085D01*
X95941460Y-89414090D01*
X95789116Y-89539116D01*
X95664090Y-89691460D01*
X95664086Y-89691467D01*
X95571188Y-89865266D01*
X95513975Y-90053870D01*
X95494659Y-90250000D01*
X95513975Y-90446129D01*
X95526985Y-90489016D01*
X95556701Y-90586978D01*
X95571188Y-90634733D01*
X95664086Y-90808532D01*
X95664090Y-90808539D01*
X95789116Y-90960883D01*
X95941460Y-91085909D01*
X95941467Y-91085913D01*
X96115266Y-91178811D01*
X96115269Y-91178811D01*
X96115273Y-91178814D01*
X96303868Y-91236024D01*
X96500000Y-91255341D01*
X96696132Y-91236024D01*
X96884727Y-91178814D01*
X96889289Y-91176376D01*
X97051479Y-91089683D01*
X97058538Y-91085910D01*
X97210883Y-90960883D01*
X97212311Y-90959142D01*
X97213293Y-90958473D01*
X97215191Y-90956576D01*
X97215550Y-90956935D01*
X97270056Y-90919804D01*
X97339901Y-90917931D01*
X97399671Y-90954115D01*
X97427946Y-91005718D01*
X97431214Y-91017915D01*
X97432383Y-91023191D01*
X97439411Y-91063043D01*
X97441235Y-91068055D01*
X97448197Y-91084861D01*
X97450445Y-91089681D01*
X97450446Y-91089684D01*
X97464452Y-91109687D01*
X97473655Y-91122831D01*
X97476561Y-91127392D01*
X97496806Y-91162455D01*
X97527815Y-91188475D01*
X97531805Y-91192131D01*
X98307863Y-91968189D01*
X98311518Y-91972178D01*
X98337541Y-92003190D01*
X98337543Y-92003191D01*
X98337545Y-92003194D01*
X98337547Y-92003195D01*
X98337548Y-92003196D01*
X98372599Y-92023433D01*
X98377162Y-92026339D01*
X98410316Y-92049554D01*
X98410319Y-92049554D01*
X98415176Y-92051820D01*
X98431933Y-92058760D01*
X98436953Y-92060587D01*
X98436955Y-92060588D01*
X98472305Y-92066821D01*
X98476808Y-92067615D01*
X98482080Y-92068783D01*
X98521193Y-92079264D01*
X98561522Y-92075735D01*
X98566924Y-92075500D01*
X101033078Y-92075500D01*
X101038481Y-92075735D01*
X101078807Y-92079264D01*
X101117940Y-92068777D01*
X101123162Y-92067619D01*
X101163045Y-92060588D01*
X101163050Y-92060584D01*
X101168099Y-92058747D01*
X101184824Y-92051819D01*
X101189681Y-92049554D01*
X101189684Y-92049554D01*
X101222841Y-92026335D01*
X101227390Y-92023438D01*
X101262455Y-92003194D01*
X101262459Y-92003190D01*
X101286180Y-91974919D01*
X101288481Y-91972176D01*
X101292122Y-91968202D01*
X101798210Y-91462115D01*
X101802172Y-91458484D01*
X101833194Y-91432455D01*
X101853444Y-91397379D01*
X101856328Y-91392852D01*
X101879554Y-91359684D01*
X101879554Y-91359681D01*
X101881819Y-91354824D01*
X101888747Y-91338099D01*
X101890587Y-91333046D01*
X101890588Y-91333045D01*
X101897621Y-91293150D01*
X101898777Y-91287937D01*
X101907969Y-91253633D01*
X101944335Y-91193977D01*
X101969289Y-91176376D01*
X102131479Y-91089683D01*
X102138538Y-91085910D01*
X102290883Y-90960883D01*
X102415910Y-90808538D01*
X102487313Y-90674952D01*
X102508811Y-90634733D01*
X102508811Y-90634732D01*
X102508814Y-90634727D01*
X102566024Y-90446132D01*
X102585341Y-90250000D01*
X102566024Y-90053868D01*
X102508814Y-89865273D01*
X102508811Y-89865269D01*
X102508811Y-89865266D01*
X102415913Y-89691467D01*
X102415909Y-89691460D01*
X102290883Y-89539116D01*
X102138539Y-89414090D01*
X102138532Y-89414086D01*
X101964733Y-89321188D01*
X101964727Y-89321186D01*
X101804581Y-89272606D01*
X101776129Y-89263975D01*
X101580000Y-89244659D01*
X101383870Y-89263975D01*
X101195266Y-89321188D01*
X101021467Y-89414086D01*
X101021460Y-89414090D01*
X100869116Y-89539116D01*
X100744090Y-89691460D01*
X100744086Y-89691467D01*
X100651188Y-89865266D01*
X100593975Y-90053870D01*
X100574659Y-90250000D01*
X100593975Y-90446129D01*
X100606985Y-90489016D01*
X100636701Y-90586978D01*
X100651188Y-90634733D01*
X100744086Y-90808532D01*
X100744090Y-90808539D01*
X100869116Y-90960883D01*
X101021460Y-91085909D01*
X101021462Y-91085910D01*
X101025387Y-91088008D01*
X101075234Y-91136968D01*
X101090697Y-91205105D01*
X101066869Y-91270786D01*
X101054622Y-91285049D01*
X100951494Y-91388180D01*
X100890171Y-91421666D01*
X100863811Y-91424500D01*
X99450748Y-91424500D01*
X99383709Y-91404815D01*
X99337954Y-91352011D01*
X99328010Y-91282853D01*
X99357035Y-91219297D01*
X99414751Y-91181840D01*
X99424727Y-91178814D01*
X99598538Y-91085910D01*
X99750883Y-90960883D01*
X99875910Y-90808538D01*
X99947313Y-90674952D01*
X99968811Y-90634733D01*
X99968811Y-90634732D01*
X99968814Y-90634727D01*
X100026024Y-90446132D01*
X100045341Y-90250000D01*
X100026024Y-90053868D01*
X99968814Y-89865273D01*
X99968811Y-89865269D01*
X99968811Y-89865266D01*
X99875913Y-89691467D01*
X99875909Y-89691460D01*
X99750883Y-89539116D01*
X99598539Y-89414090D01*
X99598532Y-89414085D01*
X99431047Y-89324563D01*
X99381202Y-89275601D01*
X99365500Y-89215205D01*
X99365500Y-89146188D01*
X99385185Y-89079149D01*
X99401819Y-89058507D01*
X99548507Y-88911819D01*
X99609830Y-88878334D01*
X99636188Y-88875500D01*
X103864811Y-88875500D01*
X103931850Y-88895185D01*
X103977605Y-88947989D01*
X103987549Y-89017147D01*
X103958524Y-89080703D01*
X103952491Y-89087182D01*
X103901802Y-89137871D01*
X103897814Y-89141525D01*
X103866805Y-89167545D01*
X103846562Y-89202606D01*
X103843656Y-89207166D01*
X103820446Y-89240313D01*
X103815863Y-89250144D01*
X103812998Y-89248808D01*
X103785844Y-89293334D01*
X103740893Y-89318838D01*
X103740900Y-89318855D01*
X103740765Y-89318910D01*
X103738465Y-89320216D01*
X103735282Y-89321181D01*
X103735269Y-89321187D01*
X103561467Y-89414086D01*
X103561460Y-89414090D01*
X103409116Y-89539116D01*
X103284090Y-89691460D01*
X103284086Y-89691467D01*
X103191188Y-89865266D01*
X103133975Y-90053870D01*
X103114659Y-90250000D01*
X103133975Y-90446129D01*
X103146985Y-90489016D01*
X103176701Y-90586978D01*
X103191188Y-90634733D01*
X103284086Y-90808532D01*
X103284090Y-90808539D01*
X103409116Y-90960883D01*
X103561460Y-91085909D01*
X103561467Y-91085913D01*
X103735266Y-91178811D01*
X103735269Y-91178811D01*
X103735273Y-91178814D01*
X103923868Y-91236024D01*
X104120000Y-91255341D01*
X104316132Y-91236024D01*
X104504727Y-91178814D01*
X104509289Y-91176376D01*
X104671479Y-91089683D01*
X104678538Y-91085910D01*
X104830883Y-90960883D01*
X104955910Y-90808538D01*
X105027313Y-90674952D01*
X105048811Y-90634733D01*
X105048811Y-90634732D01*
X105048814Y-90634727D01*
X105106024Y-90446132D01*
X105125341Y-90250000D01*
X105106024Y-90053868D01*
X105048814Y-89865273D01*
X105048811Y-89865269D01*
X105048811Y-89865266D01*
X104955913Y-89691467D01*
X104955909Y-89691460D01*
X104862930Y-89578165D01*
X104835617Y-89513855D01*
X104847408Y-89444987D01*
X104894560Y-89393427D01*
X104958783Y-89375500D01*
X105821217Y-89375500D01*
X105888256Y-89395185D01*
X105934011Y-89447989D01*
X105943955Y-89517147D01*
X105917070Y-89578165D01*
X105824090Y-89691460D01*
X105824086Y-89691467D01*
X105731188Y-89865266D01*
X105673975Y-90053870D01*
X105654659Y-90250000D01*
X105673975Y-90446129D01*
X105686985Y-90489016D01*
X105716701Y-90586978D01*
X105731188Y-90634733D01*
X105824086Y-90808532D01*
X105824090Y-90808539D01*
X105949116Y-90960883D01*
X106101460Y-91085909D01*
X106101467Y-91085913D01*
X106275266Y-91178811D01*
X106275269Y-91178811D01*
X106275273Y-91178814D01*
X106463868Y-91236024D01*
X106660000Y-91255341D01*
X106856132Y-91236024D01*
X107044727Y-91178814D01*
X107049289Y-91176376D01*
X107211479Y-91089683D01*
X107218538Y-91085910D01*
X107370883Y-90960883D01*
X107495910Y-90808538D01*
X107567313Y-90674952D01*
X107588811Y-90634733D01*
X107588811Y-90634732D01*
X107588814Y-90634727D01*
X107646024Y-90446132D01*
X107665341Y-90250000D01*
X107646024Y-90053868D01*
X107588814Y-89865273D01*
X107588811Y-89865269D01*
X107588811Y-89865266D01*
X107495913Y-89691467D01*
X107495909Y-89691460D01*
X107402930Y-89578165D01*
X107375617Y-89513855D01*
X107387408Y-89444987D01*
X107434560Y-89393427D01*
X107498783Y-89375500D01*
X108361217Y-89375500D01*
X108428256Y-89395185D01*
X108474011Y-89447989D01*
X108483955Y-89517147D01*
X108457070Y-89578165D01*
X108364090Y-89691460D01*
X108364086Y-89691467D01*
X108271188Y-89865266D01*
X108213975Y-90053870D01*
X108194659Y-90250000D01*
X108213975Y-90446129D01*
X108226985Y-90489016D01*
X108256701Y-90586978D01*
X108271188Y-90634733D01*
X108364086Y-90808532D01*
X108364090Y-90808539D01*
X108489116Y-90960883D01*
X108641460Y-91085909D01*
X108641467Y-91085913D01*
X108808953Y-91175436D01*
X108858797Y-91224398D01*
X108874500Y-91284794D01*
X108874500Y-91813811D01*
X108854815Y-91880850D01*
X108838181Y-91901492D01*
X108351493Y-92388181D01*
X108290170Y-92421666D01*
X108263812Y-92424500D01*
X92836189Y-92424500D01*
X92769150Y-92404815D01*
X92748508Y-92388181D01*
X91811819Y-91451492D01*
X91778334Y-91390169D01*
X91775500Y-91363811D01*
X91775500Y-90250000D01*
X92954659Y-90250000D01*
X92973975Y-90446129D01*
X92986985Y-90489016D01*
X93016701Y-90586978D01*
X93031188Y-90634733D01*
X93124086Y-90808532D01*
X93124090Y-90808539D01*
X93249116Y-90960883D01*
X93401460Y-91085909D01*
X93401467Y-91085913D01*
X93575266Y-91178811D01*
X93575269Y-91178811D01*
X93575273Y-91178814D01*
X93763868Y-91236024D01*
X93960000Y-91255341D01*
X94156132Y-91236024D01*
X94344727Y-91178814D01*
X94349289Y-91176376D01*
X94511479Y-91089683D01*
X94518538Y-91085910D01*
X94670883Y-90960883D01*
X94795910Y-90808538D01*
X94867313Y-90674952D01*
X94888811Y-90634733D01*
X94888811Y-90634732D01*
X94888814Y-90634727D01*
X94946024Y-90446132D01*
X94965341Y-90250000D01*
X94946024Y-90053868D01*
X94888814Y-89865273D01*
X94888811Y-89865269D01*
X94888811Y-89865266D01*
X94795913Y-89691467D01*
X94795909Y-89691460D01*
X94670883Y-89539116D01*
X94518539Y-89414090D01*
X94518532Y-89414086D01*
X94344733Y-89321188D01*
X94344727Y-89321186D01*
X94184581Y-89272606D01*
X94156129Y-89263975D01*
X93960000Y-89244659D01*
X93763870Y-89263975D01*
X93575266Y-89321188D01*
X93401467Y-89414086D01*
X93401460Y-89414090D01*
X93249116Y-89539116D01*
X93124090Y-89691460D01*
X93124086Y-89691467D01*
X93031188Y-89865266D01*
X92973975Y-90053870D01*
X92954659Y-90250000D01*
X91775500Y-90250000D01*
X91775500Y-81966912D01*
X91775736Y-81961506D01*
X91779263Y-81921191D01*
X91768785Y-81882090D01*
X91767618Y-81876830D01*
X91760588Y-81836955D01*
X91760587Y-81836953D01*
X91758760Y-81831933D01*
X91751820Y-81815176D01*
X91749554Y-81810319D01*
X91749554Y-81810316D01*
X91726337Y-81777159D01*
X91723435Y-81772605D01*
X91703194Y-81737545D01*
X91672182Y-81711522D01*
X91668210Y-81707883D01*
X90492119Y-80531793D01*
X90488474Y-80527814D01*
X90462456Y-80496807D01*
X90462455Y-80496806D01*
X90451058Y-80490226D01*
X90427392Y-80476561D01*
X90422831Y-80473655D01*
X90409687Y-80464452D01*
X90389684Y-80450446D01*
X90389681Y-80450445D01*
X90384861Y-80448197D01*
X90368055Y-80441235D01*
X90363043Y-80439411D01*
X90323190Y-80432383D01*
X90317910Y-80431212D01*
X90278808Y-80420735D01*
X90243892Y-80423790D01*
X90238481Y-80424264D01*
X90233078Y-80424500D01*
X88290583Y-80424500D01*
X88223544Y-80404815D01*
X88177789Y-80352011D01*
X88176021Y-80347951D01*
X88175233Y-80346051D01*
X88175232Y-80346046D01*
X88077685Y-80163550D01*
X88025702Y-80100209D01*
X87946410Y-80003589D01*
X87786452Y-79872317D01*
X87786453Y-79872317D01*
X87786450Y-79872315D01*
X87603954Y-79774768D01*
X87405934Y-79714700D01*
X87405932Y-79714699D01*
X87405934Y-79714699D01*
X87286805Y-79702966D01*
X87251608Y-79699500D01*
X86898392Y-79699500D01*
X86860298Y-79703251D01*
X86744067Y-79714699D01*
X86546043Y-79774769D01*
X86435898Y-79833643D01*
X86363550Y-79872315D01*
X86363548Y-79872316D01*
X86363547Y-79872317D01*
X86203589Y-80003589D01*
X86072317Y-80163547D01*
X85974769Y-80346043D01*
X85914699Y-80544067D01*
X85894417Y-80750000D01*
X85914699Y-80955932D01*
X85914700Y-80955934D01*
X85974768Y-81153954D01*
X86072315Y-81336450D01*
X86072317Y-81336452D01*
X86203589Y-81496410D01*
X86300209Y-81575702D01*
X86363550Y-81627685D01*
X86546046Y-81725232D01*
X86546048Y-81725232D01*
X86546051Y-81725234D01*
X86551670Y-81727562D01*
X86550825Y-81729601D01*
X86600968Y-81762458D01*
X86629428Y-81826268D01*
X86618872Y-81895336D01*
X86572651Y-81947732D01*
X86538633Y-81962602D01*
X86486514Y-81976567D01*
X86486507Y-81976570D01*
X86272422Y-82076399D01*
X86272420Y-82076400D01*
X86078926Y-82211886D01*
X86078920Y-82211891D01*
X85911894Y-82378917D01*
X85776399Y-82572421D01*
X85676570Y-82786507D01*
X85676567Y-82786513D01*
X85619364Y-82999999D01*
X85619364Y-83000000D01*
X86671031Y-83000000D01*
X86638481Y-83050649D01*
X86600000Y-83181705D01*
X86600000Y-83318295D01*
X86638481Y-83449351D01*
X86671031Y-83500000D01*
X85619364Y-83500000D01*
X85075500Y-83500000D01*
X85075500Y-79336188D01*
X85095185Y-79269149D01*
X85111819Y-79248507D01*
X85748508Y-78611819D01*
X85809831Y-78578334D01*
X85836189Y-78575500D01*
X85859417Y-78575500D01*
X85926456Y-78595185D01*
X85972211Y-78647989D01*
X85973979Y-78652049D01*
X85974768Y-78653954D01*
X86072315Y-78836450D01*
X86072317Y-78836452D01*
X86203589Y-78996410D01*
X86300209Y-79075702D01*
X86363550Y-79127685D01*
X86546046Y-79225232D01*
X86744066Y-79285300D01*
X86744065Y-79285300D01*
X86782647Y-79289100D01*
X86898392Y-79300500D01*
X86898395Y-79300500D01*
X87251605Y-79300500D01*
X87251608Y-79300500D01*
X87405934Y-79285300D01*
X87603954Y-79225232D01*
X87786450Y-79127685D01*
X87946410Y-78996410D01*
X88077685Y-78836450D01*
X88175232Y-78653954D01*
X88235300Y-78455934D01*
X88255583Y-78250000D01*
X88235300Y-78044066D01*
X88175232Y-77846046D01*
X88077685Y-77663550D01*
X88025702Y-77600209D01*
X87946410Y-77503589D01*
X87786452Y-77372317D01*
X87786453Y-77372317D01*
X87786450Y-77372315D01*
X87603954Y-77274768D01*
X87405934Y-77214700D01*
X87405932Y-77214699D01*
X87405934Y-77214699D01*
X87286805Y-77202966D01*
X87251608Y-77199500D01*
X86898392Y-77199500D01*
X86860298Y-77203251D01*
X86744067Y-77214699D01*
X86595185Y-77259862D01*
X86556355Y-77271641D01*
X86546043Y-77274769D01*
X86435898Y-77333643D01*
X86363550Y-77372315D01*
X86363548Y-77372316D01*
X86363547Y-77372317D01*
X86203589Y-77503589D01*
X86072317Y-77663547D01*
X85974768Y-77846045D01*
X85973979Y-77847951D01*
X85973298Y-77848796D01*
X85971896Y-77851419D01*
X85971398Y-77851153D01*
X85930138Y-77902355D01*
X85863844Y-77924421D01*
X85859417Y-77924500D01*
X85666913Y-77924500D01*
X85661511Y-77924264D01*
X85654126Y-77923618D01*
X85621192Y-77920736D01*
X85621191Y-77920736D01*
X85582099Y-77931211D01*
X85576819Y-77932382D01*
X85536954Y-77939412D01*
X85531962Y-77941229D01*
X85515117Y-77948206D01*
X85510313Y-77950446D01*
X85477163Y-77973658D01*
X85472602Y-77976564D01*
X85437548Y-77996804D01*
X85437545Y-77996806D01*
X85437543Y-77996807D01*
X85437542Y-77996809D01*
X85411523Y-78027815D01*
X85407869Y-78031803D01*
X84531803Y-78907870D01*
X84527814Y-78911525D01*
X84496805Y-78937545D01*
X84481885Y-78963387D01*
X84431316Y-79011601D01*
X84362709Y-79024821D01*
X84297845Y-78998851D01*
X84257318Y-78941935D01*
X84250500Y-78901383D01*
X84250500Y-73250000D01*
X85894417Y-73250000D01*
X85914699Y-73455932D01*
X85914700Y-73455934D01*
X85974768Y-73653954D01*
X86072315Y-73836450D01*
X86072317Y-73836452D01*
X86203589Y-73996410D01*
X86284584Y-74062880D01*
X86363550Y-74127685D01*
X86546046Y-74225232D01*
X86744066Y-74285300D01*
X86744065Y-74285300D01*
X86782647Y-74289100D01*
X86898392Y-74300500D01*
X86898395Y-74300500D01*
X87251605Y-74300500D01*
X87251608Y-74300500D01*
X87405934Y-74285300D01*
X87603954Y-74225232D01*
X87786450Y-74127685D01*
X87946410Y-73996410D01*
X88077685Y-73836450D01*
X88175232Y-73653954D01*
X88221933Y-73499999D01*
X98916127Y-73499999D01*
X98916128Y-73500000D01*
X99761314Y-73500000D01*
X99735507Y-73540156D01*
X99695000Y-73678111D01*
X99695000Y-73821889D01*
X99735507Y-73959844D01*
X99761314Y-74000000D01*
X98916128Y-74000000D01*
X98968730Y-74196317D01*
X98968734Y-74196326D01*
X99064865Y-74402482D01*
X99195342Y-74588820D01*
X99356179Y-74749657D01*
X99542517Y-74880134D01*
X99748673Y-74976265D01*
X99748682Y-74976269D01*
X99944999Y-75028872D01*
X99945000Y-75028871D01*
X99945000Y-74185501D01*
X100052685Y-74234680D01*
X100159237Y-74250000D01*
X100230763Y-74250000D01*
X100337315Y-74234680D01*
X100445000Y-74185501D01*
X100445000Y-75028872D01*
X100641317Y-74976269D01*
X100641326Y-74976265D01*
X100847482Y-74880134D01*
X101033820Y-74749657D01*
X101194657Y-74588820D01*
X101325134Y-74402482D01*
X101421265Y-74196326D01*
X101421269Y-74196317D01*
X101473872Y-74000000D01*
X100628686Y-74000000D01*
X100654493Y-73959844D01*
X100695000Y-73821889D01*
X100695000Y-73678111D01*
X100654493Y-73540156D01*
X100628686Y-73500000D01*
X101473872Y-73500000D01*
X101473872Y-73499999D01*
X101421269Y-73303682D01*
X101421265Y-73303673D01*
X101325134Y-73097517D01*
X101194657Y-72911179D01*
X101033820Y-72750342D01*
X100847482Y-72619865D01*
X100641328Y-72523734D01*
X100445000Y-72471127D01*
X100445000Y-73314498D01*
X100337315Y-73265320D01*
X100230763Y-73250000D01*
X100159237Y-73250000D01*
X100052685Y-73265320D01*
X99945000Y-73314498D01*
X99945000Y-72471127D01*
X99748671Y-72523734D01*
X99542517Y-72619865D01*
X99356179Y-72750342D01*
X99195342Y-72911179D01*
X99064865Y-73097517D01*
X98968734Y-73303673D01*
X98968730Y-73303682D01*
X98916127Y-73499999D01*
X88221933Y-73499999D01*
X88235300Y-73455934D01*
X88255583Y-73250000D01*
X88235300Y-73044066D01*
X88175232Y-72846046D01*
X88077685Y-72663550D01*
X87962942Y-72523734D01*
X87946410Y-72503589D01*
X87786452Y-72372317D01*
X87786453Y-72372317D01*
X87786450Y-72372315D01*
X87603954Y-72274768D01*
X87405934Y-72214700D01*
X87405932Y-72214699D01*
X87405934Y-72214699D01*
X87286805Y-72202966D01*
X87251608Y-72199500D01*
X86898392Y-72199500D01*
X86860298Y-72203251D01*
X86744067Y-72214699D01*
X86546043Y-72274769D01*
X86446737Y-72327850D01*
X86363550Y-72372315D01*
X86363548Y-72372316D01*
X86363547Y-72372317D01*
X86203589Y-72503589D01*
X86072317Y-72663547D01*
X85974769Y-72846043D01*
X85914699Y-73044067D01*
X85894417Y-73250000D01*
X84250500Y-73250000D01*
X84250500Y-68548473D01*
X84270185Y-68481434D01*
X84322989Y-68435679D01*
X84392147Y-68425735D01*
X84455703Y-68454760D01*
X84487573Y-68497578D01*
X84604455Y-68757279D01*
X84756841Y-69009356D01*
X84773473Y-69036868D01*
X84974954Y-69294039D01*
X85205960Y-69525045D01*
X85463131Y-69726526D01*
X85463134Y-69726528D01*
X85463137Y-69726530D01*
X85742721Y-69895545D01*
X86040639Y-70029627D01*
X86040652Y-70029631D01*
X86040657Y-70029633D01*
X86188804Y-70075797D01*
X86352547Y-70126821D01*
X86673896Y-70185710D01*
X87000000Y-70205436D01*
X87326104Y-70185710D01*
X87647453Y-70126821D01*
X87959361Y-70029627D01*
X88257279Y-69895545D01*
X88536863Y-69726530D01*
X88794036Y-69525048D01*
X89025048Y-69294036D01*
X89226530Y-69036863D01*
X89395545Y-68757279D01*
X89529627Y-68459361D01*
X89626821Y-68147453D01*
X89685710Y-67826104D01*
X89705436Y-67500000D01*
X89694850Y-67325000D01*
X100150000Y-67325000D01*
X101066314Y-67325000D01*
X101040507Y-67365156D01*
X101000000Y-67503111D01*
X101000000Y-67646889D01*
X101040507Y-67784844D01*
X101066314Y-67825000D01*
X100150001Y-67825000D01*
X100150001Y-68374986D01*
X100160494Y-68477697D01*
X100215641Y-68644119D01*
X100215643Y-68644124D01*
X100307684Y-68793345D01*
X100431654Y-68917315D01*
X100580875Y-69009356D01*
X100580880Y-69009358D01*
X100747302Y-69064505D01*
X100747309Y-69064506D01*
X100850019Y-69074999D01*
X101249999Y-69074999D01*
X101250000Y-69074998D01*
X101250000Y-68010501D01*
X101357685Y-68059680D01*
X101464237Y-68075000D01*
X101535763Y-68075000D01*
X101642315Y-68059680D01*
X101749999Y-68010501D01*
X101750000Y-69074999D01*
X102149972Y-69074999D01*
X102149986Y-69074998D01*
X102252697Y-69064505D01*
X102419119Y-69009358D01*
X102419124Y-69009356D01*
X102568345Y-68917315D01*
X102692315Y-68793345D01*
X102784356Y-68644124D01*
X102784358Y-68644119D01*
X102807794Y-68573395D01*
X102847566Y-68515950D01*
X102912082Y-68489127D01*
X102980858Y-68501442D01*
X103032058Y-68548985D01*
X103049500Y-68612399D01*
X103049500Y-69654927D01*
X103029815Y-69721966D01*
X103013181Y-69742608D01*
X102071996Y-70683792D01*
X102070872Y-70684888D01*
X102010085Y-70742671D01*
X102010082Y-70742675D01*
X101976855Y-70790411D01*
X101974020Y-70794172D01*
X101937265Y-70839250D01*
X101922248Y-70867998D01*
X101918179Y-70874714D01*
X101899646Y-70901342D01*
X101899646Y-70901343D01*
X101876711Y-70954789D01*
X101874689Y-70959046D01*
X101847764Y-71010591D01*
X101847762Y-71010595D01*
X101838839Y-71041776D01*
X101836206Y-71049172D01*
X101823412Y-71078987D01*
X101823412Y-71078988D01*
X101811703Y-71135960D01*
X101810580Y-71140534D01*
X101794583Y-71196448D01*
X101794581Y-71196454D01*
X101792120Y-71228791D01*
X101791029Y-71236572D01*
X101784500Y-71268343D01*
X101784500Y-71326502D01*
X101784321Y-71331211D01*
X101779904Y-71389201D01*
X101781804Y-71404120D01*
X101784003Y-71421385D01*
X101784500Y-71429214D01*
X101784500Y-73418366D01*
X101779161Y-73454361D01*
X101748975Y-73553869D01*
X101729659Y-73750000D01*
X101748975Y-73946129D01*
X101806188Y-74134733D01*
X101899086Y-74308532D01*
X101899090Y-74308539D01*
X102024116Y-74460883D01*
X102176460Y-74585909D01*
X102176467Y-74585913D01*
X102350266Y-74678811D01*
X102350269Y-74678811D01*
X102350273Y-74678814D01*
X102538868Y-74736024D01*
X102735000Y-74755341D01*
X102931132Y-74736024D01*
X103119727Y-74678814D01*
X103293538Y-74585910D01*
X103445883Y-74460883D01*
X103570910Y-74308538D01*
X103663814Y-74134727D01*
X103721024Y-73946132D01*
X103740341Y-73750000D01*
X104269659Y-73750000D01*
X104288975Y-73946129D01*
X104346188Y-74134733D01*
X104439086Y-74308532D01*
X104439090Y-74308539D01*
X104564116Y-74460883D01*
X104716460Y-74585909D01*
X104716467Y-74585913D01*
X104890266Y-74678811D01*
X104890269Y-74678811D01*
X104890273Y-74678814D01*
X105078868Y-74736024D01*
X105275000Y-74755341D01*
X105471132Y-74736024D01*
X105659727Y-74678814D01*
X105833538Y-74585910D01*
X105985883Y-74460883D01*
X106110910Y-74308538D01*
X106203814Y-74134727D01*
X106261024Y-73946132D01*
X106280341Y-73750000D01*
X106809659Y-73750000D01*
X106828975Y-73946129D01*
X106886188Y-74134733D01*
X106979086Y-74308532D01*
X106979090Y-74308539D01*
X107104116Y-74460883D01*
X107256460Y-74585909D01*
X107256467Y-74585913D01*
X107430266Y-74678811D01*
X107430269Y-74678811D01*
X107430273Y-74678814D01*
X107618868Y-74736024D01*
X107815000Y-74755341D01*
X108011132Y-74736024D01*
X108199727Y-74678814D01*
X108373538Y-74585910D01*
X108525883Y-74460883D01*
X108650910Y-74308538D01*
X108743814Y-74134727D01*
X108801024Y-73946132D01*
X108820341Y-73750000D01*
X109349659Y-73750000D01*
X109368975Y-73946129D01*
X109426188Y-74134733D01*
X109519086Y-74308532D01*
X109519090Y-74308539D01*
X109644116Y-74460883D01*
X109796460Y-74585909D01*
X109796467Y-74585913D01*
X109970266Y-74678811D01*
X109970269Y-74678811D01*
X109970273Y-74678814D01*
X110158868Y-74736024D01*
X110355000Y-74755341D01*
X110551132Y-74736024D01*
X110739727Y-74678814D01*
X110913538Y-74585910D01*
X111065883Y-74460883D01*
X111190910Y-74308538D01*
X111283814Y-74134727D01*
X111341024Y-73946132D01*
X111360341Y-73750000D01*
X111889659Y-73750000D01*
X111908975Y-73946129D01*
X111966188Y-74134733D01*
X112059086Y-74308532D01*
X112059090Y-74308539D01*
X112184116Y-74460883D01*
X112336460Y-74585909D01*
X112336467Y-74585913D01*
X112510266Y-74678811D01*
X112510269Y-74678811D01*
X112510273Y-74678814D01*
X112698868Y-74736024D01*
X112895000Y-74755341D01*
X113091132Y-74736024D01*
X113279727Y-74678814D01*
X113453538Y-74585910D01*
X113605883Y-74460883D01*
X113730910Y-74308538D01*
X113823814Y-74134727D01*
X113881024Y-73946132D01*
X113900341Y-73750000D01*
X113881024Y-73553868D01*
X113823814Y-73365273D01*
X113823811Y-73365269D01*
X113823811Y-73365266D01*
X113730913Y-73191467D01*
X113730909Y-73191460D01*
X113605883Y-73039116D01*
X113453539Y-72914090D01*
X113453532Y-72914086D01*
X113279733Y-72821188D01*
X113279727Y-72821186D01*
X113091132Y-72763976D01*
X113091129Y-72763975D01*
X112895000Y-72744659D01*
X112698870Y-72763975D01*
X112510266Y-72821188D01*
X112336467Y-72914086D01*
X112336460Y-72914090D01*
X112184116Y-73039116D01*
X112059090Y-73191460D01*
X112059086Y-73191467D01*
X111966188Y-73365266D01*
X111908975Y-73553870D01*
X111889659Y-73750000D01*
X111360341Y-73750000D01*
X111341024Y-73553868D01*
X111283814Y-73365273D01*
X111283811Y-73365269D01*
X111283811Y-73365266D01*
X111190913Y-73191467D01*
X111190909Y-73191460D01*
X111065883Y-73039116D01*
X110913539Y-72914090D01*
X110913532Y-72914086D01*
X110739733Y-72821188D01*
X110739727Y-72821186D01*
X110551132Y-72763976D01*
X110551129Y-72763975D01*
X110355000Y-72744659D01*
X110158870Y-72763975D01*
X109970266Y-72821188D01*
X109796467Y-72914086D01*
X109796460Y-72914090D01*
X109644116Y-73039116D01*
X109519090Y-73191460D01*
X109519086Y-73191467D01*
X109426188Y-73365266D01*
X109368975Y-73553870D01*
X109349659Y-73750000D01*
X108820341Y-73750000D01*
X108801024Y-73553868D01*
X108743814Y-73365273D01*
X108743811Y-73365269D01*
X108743811Y-73365266D01*
X108650913Y-73191467D01*
X108650909Y-73191460D01*
X108525883Y-73039116D01*
X108373539Y-72914090D01*
X108373532Y-72914086D01*
X108199733Y-72821188D01*
X108199727Y-72821186D01*
X108011132Y-72763976D01*
X108011129Y-72763975D01*
X107815000Y-72744659D01*
X107618870Y-72763975D01*
X107430266Y-72821188D01*
X107256467Y-72914086D01*
X107256460Y-72914090D01*
X107104116Y-73039116D01*
X106979090Y-73191460D01*
X106979086Y-73191467D01*
X106886188Y-73365266D01*
X106828975Y-73553870D01*
X106809659Y-73750000D01*
X106280341Y-73750000D01*
X106261024Y-73553868D01*
X106203814Y-73365273D01*
X106203811Y-73365269D01*
X106203811Y-73365266D01*
X106110913Y-73191467D01*
X106110909Y-73191460D01*
X105985883Y-73039116D01*
X105833539Y-72914090D01*
X105833532Y-72914086D01*
X105659733Y-72821188D01*
X105659727Y-72821186D01*
X105471132Y-72763976D01*
X105471129Y-72763975D01*
X105275000Y-72744659D01*
X105078870Y-72763975D01*
X104890266Y-72821188D01*
X104716467Y-72914086D01*
X104716460Y-72914090D01*
X104564116Y-73039116D01*
X104439090Y-73191460D01*
X104439086Y-73191467D01*
X104346188Y-73365266D01*
X104288975Y-73553870D01*
X104269659Y-73750000D01*
X103740341Y-73750000D01*
X103721024Y-73553868D01*
X103691316Y-73455934D01*
X103690839Y-73454361D01*
X103685500Y-73418366D01*
X103685500Y-72619865D01*
X103685500Y-71810067D01*
X103705184Y-71743032D01*
X103721813Y-71722395D01*
X104663096Y-70781112D01*
X104664109Y-70780125D01*
X104724919Y-70722323D01*
X104758161Y-70674562D01*
X104760962Y-70670846D01*
X104797734Y-70625751D01*
X104812752Y-70596998D01*
X104816822Y-70590282D01*
X104824940Y-70578617D01*
X104835353Y-70563658D01*
X104858301Y-70510179D01*
X104860300Y-70505969D01*
X104887236Y-70454406D01*
X104894194Y-70430091D01*
X104896157Y-70423230D01*
X104898792Y-70415828D01*
X104911587Y-70386011D01*
X104923295Y-70329039D01*
X104924419Y-70324460D01*
X104927200Y-70314738D01*
X104940417Y-70268552D01*
X104942880Y-70236195D01*
X104943967Y-70228437D01*
X104950500Y-70196656D01*
X104950500Y-70138496D01*
X104950679Y-70133787D01*
X104951210Y-70126821D01*
X104955095Y-70075797D01*
X104953825Y-70065828D01*
X104950997Y-70043623D01*
X104950499Y-70035780D01*
X104950499Y-69146239D01*
X104950499Y-68206280D01*
X104965142Y-68147830D01*
X104975232Y-68128954D01*
X105035300Y-67930934D01*
X105050500Y-67776608D01*
X105050500Y-67373392D01*
X105035300Y-67219066D01*
X104975232Y-67021046D01*
X104877685Y-66838550D01*
X104796518Y-66739647D01*
X104746410Y-66678589D01*
X104586452Y-66547317D01*
X104586453Y-66547317D01*
X104586450Y-66547315D01*
X104403954Y-66449768D01*
X104205934Y-66389700D01*
X104205932Y-66389699D01*
X104205934Y-66389699D01*
X104000000Y-66369417D01*
X103794067Y-66389699D01*
X103618692Y-66442898D01*
X103609223Y-66445771D01*
X103596043Y-66449769D01*
X103491078Y-66505875D01*
X103413550Y-66547315D01*
X103413548Y-66547316D01*
X103413547Y-66547317D01*
X103253589Y-66678589D01*
X103140120Y-66816854D01*
X103122315Y-66838550D01*
X103083357Y-66911435D01*
X103034394Y-66961279D01*
X102966256Y-66976739D01*
X102900577Y-66952907D01*
X102858208Y-66897349D01*
X102849999Y-66852981D01*
X102849999Y-66775028D01*
X102849998Y-66775012D01*
X102839505Y-66672302D01*
X102784358Y-66505880D01*
X102784356Y-66505875D01*
X102692315Y-66356654D01*
X102568345Y-66232684D01*
X102419124Y-66140643D01*
X102419119Y-66140641D01*
X102252697Y-66085494D01*
X102252690Y-66085493D01*
X102149986Y-66075000D01*
X101750000Y-66075000D01*
X101749999Y-67139498D01*
X101642315Y-67090320D01*
X101535763Y-67075000D01*
X101464237Y-67075000D01*
X101357685Y-67090320D01*
X101249999Y-67139498D01*
X101249999Y-66075000D01*
X100850028Y-66075000D01*
X100850012Y-66075001D01*
X100747302Y-66085494D01*
X100580880Y-66140641D01*
X100580875Y-66140643D01*
X100431654Y-66232684D01*
X100307684Y-66356654D01*
X100215643Y-66505875D01*
X100215641Y-66505880D01*
X100160494Y-66672302D01*
X100160493Y-66672309D01*
X100150000Y-66775013D01*
X100150000Y-67325000D01*
X89694850Y-67325000D01*
X89685710Y-67173896D01*
X89626821Y-66852547D01*
X89575473Y-66687764D01*
X89529633Y-66540657D01*
X89529631Y-66540652D01*
X89529627Y-66540639D01*
X89395545Y-66242721D01*
X89226530Y-65963137D01*
X89226528Y-65963134D01*
X89226526Y-65963131D01*
X89025045Y-65705960D01*
X88794039Y-65474954D01*
X88536868Y-65273473D01*
X88503440Y-65253265D01*
X88257279Y-65104455D01*
X87997581Y-64987574D01*
X87944528Y-64942112D01*
X87924476Y-64875181D01*
X87943792Y-64808035D01*
X87996344Y-64761990D01*
X88048474Y-64750500D01*
X130451526Y-64750500D01*
X130518565Y-64770185D01*
G37*
%TD.AperFunction*%
%TD*%
M02*
