%TF.GenerationSoftware,KiCad,Pcbnew,5.1.10*%
%TF.CreationDate,2021-11-06T21:22:03+05:45*%
%TF.ProjectId,RobotHat,526f626f-7448-4617-942e-6b696361645f,rev?*%
%TF.SameCoordinates,Original*%
%TF.FileFunction,Legend,Top*%
%TF.FilePolarity,Positive*%
%FSLAX46Y46*%
G04 Gerber Fmt 4.6, Leading zero omitted, Abs format (unit mm)*
G04 Created by KiCad (PCBNEW 5.1.10) date 2021-11-06 21:22:03*
%MOMM*%
%LPD*%
G01*
G04 APERTURE LIST*
%ADD10C,0.120000*%
%ADD11C,0.100000*%
%ADD12C,0.300000*%
%ADD13C,0.150000*%
%ADD14C,0.125000*%
G04 APERTURE END LIST*
D10*
%TO.C,SW1*%
X107300000Y-65400000D02*
X107300000Y-60200000D01*
X114700000Y-65400000D02*
X107300000Y-65400000D01*
X114700000Y-60200000D02*
X114700000Y-65400000D01*
X107300000Y-60200000D02*
X114700000Y-60200000D01*
X112500000Y-62800000D02*
G75*
G03*
X112500000Y-62800000I-1500000J0D01*
G01*
X112029563Y-62800000D02*
G75*
G03*
X112029563Y-62800000I-1029563J0D01*
G01*
%TO.C,C7*%
X92590000Y-93788748D02*
X92590000Y-95211252D01*
X94410000Y-93788748D02*
X94410000Y-95211252D01*
D11*
%TO.C,D2*%
X101645000Y-62700000D02*
G75*
G03*
X101645000Y-62700000I-50000J0D01*
G01*
D10*
%TO.C,R2*%
X102446359Y-63620000D02*
X102753641Y-63620000D01*
X102446359Y-64380000D02*
X102753641Y-64380000D01*
D11*
%TO.C,D4*%
X105685000Y-90600000D02*
G75*
G03*
X105685000Y-90600000I-50000J0D01*
G01*
D10*
%TO.C,R4*%
X106571359Y-89802000D02*
X106878641Y-89802000D01*
X106571359Y-89042000D02*
X106878641Y-89042000D01*
%TO.C,J8*%
X114890000Y-59610000D02*
X106260000Y-59610000D01*
X114890000Y-59491905D02*
X106260000Y-59491905D01*
X114890000Y-59373810D02*
X106260000Y-59373810D01*
X114890000Y-59255715D02*
X106260000Y-59255715D01*
X114890000Y-59137620D02*
X106260000Y-59137620D01*
X114890000Y-59019525D02*
X106260000Y-59019525D01*
X114890000Y-58901430D02*
X106260000Y-58901430D01*
X114890000Y-58783335D02*
X106260000Y-58783335D01*
X114890000Y-58665240D02*
X106260000Y-58665240D01*
X114890000Y-58547145D02*
X106260000Y-58547145D01*
X114890000Y-58429050D02*
X106260000Y-58429050D01*
X114890000Y-58310955D02*
X106260000Y-58310955D01*
X114890000Y-58192860D02*
X106260000Y-58192860D01*
X114890000Y-58074765D02*
X106260000Y-58074765D01*
X114890000Y-57956670D02*
X106260000Y-57956670D01*
X114890000Y-57838575D02*
X106260000Y-57838575D01*
X114890000Y-57720480D02*
X106260000Y-57720480D01*
X114890000Y-57602385D02*
X106260000Y-57602385D01*
X114890000Y-57484290D02*
X106260000Y-57484290D01*
X114890000Y-57366195D02*
X106260000Y-57366195D01*
X114890000Y-57248100D02*
X106260000Y-57248100D01*
X106260000Y-58760000D02*
X105910000Y-58760000D01*
X106260000Y-58040000D02*
X105910000Y-58040000D01*
X106260000Y-56220000D02*
X105850000Y-56220000D01*
X106260000Y-55500000D02*
X105850000Y-55500000D01*
X106260000Y-53680000D02*
X105850000Y-53680000D01*
X106260000Y-52960000D02*
X105850000Y-52960000D01*
X106260000Y-51140000D02*
X105850000Y-51140000D01*
X106260000Y-50420000D02*
X105850000Y-50420000D01*
X114890000Y-57130000D02*
X106260000Y-57130000D01*
X114890000Y-54590000D02*
X106260000Y-54590000D01*
X114890000Y-52050000D02*
X106260000Y-52050000D01*
X114890000Y-59730000D02*
X106260000Y-59730000D01*
X106260000Y-59730000D02*
X106260000Y-49450000D01*
X114890000Y-49450000D02*
X106260000Y-49450000D01*
X114890000Y-59730000D02*
X114890000Y-49450000D01*
X103690000Y-59730000D02*
X103690000Y-58400000D01*
X104800000Y-59730000D02*
X103690000Y-59730000D01*
%TO.C,Y1*%
X95971000Y-54343000D02*
X89721000Y-54343000D01*
X95971000Y-49293000D02*
X89721000Y-49293000D01*
X89721000Y-49293000D02*
G75*
G03*
X89721000Y-54343000I0J-2525000D01*
G01*
X95971000Y-49293000D02*
G75*
G02*
X95971000Y-54343000I0J-2525000D01*
G01*
%TO.C,C3*%
X85075252Y-51076000D02*
X83652748Y-51076000D01*
X85075252Y-49256000D02*
X83652748Y-49256000D01*
%TO.C,C2*%
X85075252Y-54378000D02*
X83652748Y-54378000D01*
X85075252Y-52558000D02*
X83652748Y-52558000D01*
%TO.C,U1*%
X63984000Y-61072000D02*
X63984000Y-62722000D01*
X63984000Y-62722000D02*
X99664000Y-62722000D01*
X99664000Y-62722000D02*
X99664000Y-57422000D01*
X99664000Y-57422000D02*
X63984000Y-57422000D01*
X63984000Y-57422000D02*
X63984000Y-59072000D01*
X63984000Y-59072000D02*
G75*
G02*
X63984000Y-61072000I0J-1000000D01*
G01*
%TO.C,C8*%
X100290000Y-95211252D02*
X100290000Y-93788748D01*
X102110000Y-95211252D02*
X102110000Y-93788748D01*
%TO.C,Q3*%
X66102000Y-51946000D02*
X66102000Y-50486000D01*
X69262000Y-51946000D02*
X69262000Y-49786000D01*
X69262000Y-51946000D02*
X68332000Y-51946000D01*
X66102000Y-51946000D02*
X67032000Y-51946000D01*
%TO.C,R6*%
X64071000Y-50954936D02*
X64071000Y-51409064D01*
X65541000Y-50954936D02*
X65541000Y-51409064D01*
%TO.C,R5*%
X70167000Y-50954936D02*
X70167000Y-51409064D01*
X71637000Y-50954936D02*
X71637000Y-51409064D01*
%TO.C,R8*%
X65772936Y-54735000D02*
X66227064Y-54735000D01*
X65772936Y-53265000D02*
X66227064Y-53265000D01*
%TO.C,R7*%
X74055064Y-53351000D02*
X73600936Y-53351000D01*
X74055064Y-54821000D02*
X73600936Y-54821000D01*
%TO.C,R1*%
X65287000Y-67665064D02*
X65287000Y-67210936D01*
X63817000Y-67665064D02*
X63817000Y-67210936D01*
%TO.C,J5*%
X114360000Y-72940000D02*
X108390000Y-72940000D01*
X108390000Y-72940000D02*
X108390000Y-85560000D01*
X108390000Y-85560000D02*
X114360000Y-85560000D01*
X114360000Y-85560000D02*
X114360000Y-72940000D01*
X114350000Y-76250000D02*
X113600000Y-76250000D01*
X113600000Y-76250000D02*
X113600000Y-82250000D01*
X113600000Y-82250000D02*
X114350000Y-82250000D01*
X114350000Y-82250000D02*
X114350000Y-76250000D01*
X114350000Y-72950000D02*
X113600000Y-72950000D01*
X113600000Y-72950000D02*
X113600000Y-74750000D01*
X113600000Y-74750000D02*
X114350000Y-74750000D01*
X114350000Y-74750000D02*
X114350000Y-72950000D01*
X114350000Y-83750000D02*
X113600000Y-83750000D01*
X113600000Y-83750000D02*
X113600000Y-85550000D01*
X113600000Y-85550000D02*
X114350000Y-85550000D01*
X114350000Y-85550000D02*
X114350000Y-83750000D01*
X112100000Y-72950000D02*
X112100000Y-73700000D01*
X112100000Y-73700000D02*
X109150000Y-73700000D01*
X109150000Y-73700000D02*
X109150000Y-79250000D01*
X112100000Y-85550000D02*
X112100000Y-84800000D01*
X112100000Y-84800000D02*
X109150000Y-84800000D01*
X109150000Y-84800000D02*
X109150000Y-79250000D01*
X114650000Y-73900000D02*
X114650000Y-72650000D01*
X114650000Y-72650000D02*
X113400000Y-72650000D01*
%TO.C,C5*%
X64441250Y-76706250D02*
X63653750Y-76706250D01*
X64047500Y-76312500D02*
X64047500Y-77100000D01*
X59854437Y-77340000D02*
X58790000Y-78404437D01*
X64545563Y-77340000D02*
X65610000Y-78404437D01*
X64545563Y-77340000D02*
X63260000Y-77340000D01*
X59854437Y-77340000D02*
X61140000Y-77340000D01*
X58790000Y-78404437D02*
X58790000Y-84160000D01*
X65610000Y-78404437D02*
X65610000Y-84160000D01*
X65610000Y-84160000D02*
X63260000Y-84160000D01*
X58790000Y-84160000D02*
X61140000Y-84160000D01*
%TO.C,C1*%
X73743750Y-103191250D02*
X73743750Y-102403750D01*
X74137500Y-102797500D02*
X73350000Y-102797500D01*
X73110000Y-98604437D02*
X72045563Y-97540000D01*
X73110000Y-103295563D02*
X72045563Y-104360000D01*
X73110000Y-103295563D02*
X73110000Y-102010000D01*
X73110000Y-98604437D02*
X73110000Y-99890000D01*
X72045563Y-97540000D02*
X66290000Y-97540000D01*
X72045563Y-104360000D02*
X66290000Y-104360000D01*
X66290000Y-104360000D02*
X66290000Y-102010000D01*
X66290000Y-97540000D02*
X66290000Y-99890000D01*
%TO.C,L1*%
X66550000Y-84900000D02*
X66550000Y-72900000D01*
X66550000Y-72900000D02*
X78550000Y-72900000D01*
X78550000Y-72900000D02*
X78550000Y-84900000D01*
X78550000Y-84900000D02*
X66550000Y-84900000D01*
%TO.C,Q2*%
X72248000Y-51946000D02*
X72248000Y-50486000D01*
X75408000Y-51946000D02*
X75408000Y-49786000D01*
X75408000Y-51946000D02*
X74478000Y-51946000D01*
X72248000Y-51946000D02*
X73178000Y-51946000D01*
%TO.C,J3*%
X108230000Y-65970000D02*
X108230000Y-67300000D01*
X106900000Y-65970000D02*
X108230000Y-65970000D01*
X108230000Y-68570000D02*
X108230000Y-71170000D01*
X105630000Y-68570000D02*
X108230000Y-68570000D01*
X105630000Y-65970000D02*
X105630000Y-68570000D01*
X108230000Y-71170000D02*
X100490000Y-71170000D01*
X105630000Y-65970000D02*
X100490000Y-65970000D01*
X100490000Y-65970000D02*
X100490000Y-71170000D01*
%TO.C,J4*%
X59460000Y-64930000D02*
X59460000Y-49570000D01*
X59460000Y-49570000D02*
X56800000Y-49570000D01*
X56800000Y-49570000D02*
X56800000Y-64930000D01*
X56800000Y-64930000D02*
X59460000Y-64930000D01*
X56800000Y-63980000D02*
X50800000Y-63980000D01*
X50800000Y-63980000D02*
X50800000Y-63220000D01*
X50800000Y-63220000D02*
X56800000Y-63220000D01*
X56800000Y-63920000D02*
X50800000Y-63920000D01*
X56800000Y-63800000D02*
X50800000Y-63800000D01*
X56800000Y-63680000D02*
X50800000Y-63680000D01*
X56800000Y-63560000D02*
X50800000Y-63560000D01*
X56800000Y-63440000D02*
X50800000Y-63440000D01*
X56800000Y-63320000D02*
X50800000Y-63320000D01*
X59790000Y-63980000D02*
X59460000Y-63980000D01*
X59790000Y-63220000D02*
X59460000Y-63220000D01*
X59460000Y-62330000D02*
X56800000Y-62330000D01*
X56800000Y-61440000D02*
X50800000Y-61440000D01*
X50800000Y-61440000D02*
X50800000Y-60680000D01*
X50800000Y-60680000D02*
X56800000Y-60680000D01*
X59857071Y-61440000D02*
X59460000Y-61440000D01*
X59857071Y-60680000D02*
X59460000Y-60680000D01*
X59460000Y-59790000D02*
X56800000Y-59790000D01*
X56800000Y-58900000D02*
X50800000Y-58900000D01*
X50800000Y-58900000D02*
X50800000Y-58140000D01*
X50800000Y-58140000D02*
X56800000Y-58140000D01*
X59857071Y-58900000D02*
X59460000Y-58900000D01*
X59857071Y-58140000D02*
X59460000Y-58140000D01*
X59460000Y-57250000D02*
X56800000Y-57250000D01*
X56800000Y-56360000D02*
X50800000Y-56360000D01*
X50800000Y-56360000D02*
X50800000Y-55600000D01*
X50800000Y-55600000D02*
X56800000Y-55600000D01*
X59857071Y-56360000D02*
X59460000Y-56360000D01*
X59857071Y-55600000D02*
X59460000Y-55600000D01*
X59460000Y-54710000D02*
X56800000Y-54710000D01*
X56800000Y-53820000D02*
X50800000Y-53820000D01*
X50800000Y-53820000D02*
X50800000Y-53060000D01*
X50800000Y-53060000D02*
X56800000Y-53060000D01*
X59857071Y-53820000D02*
X59460000Y-53820000D01*
X59857071Y-53060000D02*
X59460000Y-53060000D01*
X59460000Y-52170000D02*
X56800000Y-52170000D01*
X56800000Y-51280000D02*
X50800000Y-51280000D01*
X50800000Y-51280000D02*
X50800000Y-50520000D01*
X50800000Y-50520000D02*
X56800000Y-50520000D01*
X59857071Y-51280000D02*
X59460000Y-51280000D01*
X59857071Y-50520000D02*
X59460000Y-50520000D01*
X62170000Y-63600000D02*
X62170000Y-64870000D01*
X62170000Y-64870000D02*
X60900000Y-64870000D01*
%TO.C,Q1*%
X62140000Y-97670000D02*
X63600000Y-97670000D01*
X62140000Y-100830000D02*
X64300000Y-100830000D01*
X62140000Y-100830000D02*
X62140000Y-99900000D01*
X62140000Y-97670000D02*
X62140000Y-98600000D01*
D12*
%TO.C,D1*%
X77391421Y-95000000D02*
G75*
G03*
X77391421Y-95000000I-141421J0D01*
G01*
D10*
X77250000Y-90400000D02*
X77250000Y-92200000D01*
X76750000Y-91800000D02*
X77750000Y-91800000D01*
X77250000Y-91800000D02*
X76750000Y-91100000D01*
X77750000Y-91100000D02*
X76750000Y-91100000D01*
X76750000Y-91100000D02*
X77650000Y-91100000D01*
X77750000Y-91100000D02*
X77250000Y-91800000D01*
X76750000Y-91800000D02*
X76750000Y-91600000D01*
X76750000Y-91600000D02*
X76850000Y-91600000D01*
X77750000Y-91800000D02*
X77750000Y-92000000D01*
X77750000Y-92000000D02*
X77650000Y-92000000D01*
%TO.C,R3*%
X55953641Y-82580000D02*
X55646359Y-82580000D01*
X55953641Y-81820000D02*
X55646359Y-81820000D01*
D11*
%TO.C,D3*%
X52025000Y-82200000D02*
G75*
G03*
X52025000Y-82200000I-50000J0D01*
G01*
D10*
%TO.C,C4*%
X66478000Y-67037836D02*
X66478000Y-66822164D01*
X67198000Y-67037836D02*
X67198000Y-66822164D01*
%TO.C,C6*%
X80700164Y-53870000D02*
X80915836Y-53870000D01*
X80700164Y-54590000D02*
X80915836Y-54590000D01*
%TO.C,J2*%
X51050000Y-80750000D02*
X52300000Y-80750000D01*
X51050000Y-79500000D02*
X51050000Y-80750000D01*
X56550000Y-73600000D02*
X56550000Y-76650000D01*
X53600000Y-73600000D02*
X56550000Y-73600000D01*
X53600000Y-72850000D02*
X53600000Y-73600000D01*
X56550000Y-79700000D02*
X56550000Y-76650000D01*
X53600000Y-79700000D02*
X56550000Y-79700000D01*
X53600000Y-80450000D02*
X53600000Y-79700000D01*
X51350000Y-72850000D02*
X51350000Y-74650000D01*
X52100000Y-72850000D02*
X51350000Y-72850000D01*
X52100000Y-74650000D02*
X52100000Y-72850000D01*
X51350000Y-74650000D02*
X52100000Y-74650000D01*
X51350000Y-78650000D02*
X51350000Y-80450000D01*
X52100000Y-78650000D02*
X51350000Y-78650000D01*
X52100000Y-80450000D02*
X52100000Y-78650000D01*
X51350000Y-80450000D02*
X52100000Y-80450000D01*
X51350000Y-76150000D02*
X51350000Y-77150000D01*
X52100000Y-76150000D02*
X51350000Y-76150000D01*
X52100000Y-77150000D02*
X52100000Y-76150000D01*
X51350000Y-77150000D02*
X52100000Y-77150000D01*
X51340000Y-72840000D02*
X51340000Y-80460000D01*
X57310000Y-72840000D02*
X51340000Y-72840000D01*
X57310000Y-80460000D02*
X57310000Y-72840000D01*
X51340000Y-80460000D02*
X57310000Y-80460000D01*
%TO.C,U2*%
X66850000Y-96700000D02*
X68350000Y-96700000D01*
X68350000Y-96700000D02*
X68350000Y-95750000D01*
X68350000Y-95750000D02*
X73475000Y-95750000D01*
X66850000Y-86300000D02*
X68350000Y-86300000D01*
X68350000Y-86300000D02*
X68350000Y-87250000D01*
X68350000Y-87250000D02*
X69450000Y-87250000D01*
%TO.C,J10*%
X113410000Y-104210000D02*
X113410000Y-98240000D01*
X113410000Y-98240000D02*
X105790000Y-98240000D01*
X105790000Y-98240000D02*
X105790000Y-104210000D01*
X105790000Y-104210000D02*
X113410000Y-104210000D01*
X110100000Y-104200000D02*
X110100000Y-103450000D01*
X110100000Y-103450000D02*
X109100000Y-103450000D01*
X109100000Y-103450000D02*
X109100000Y-104200000D01*
X109100000Y-104200000D02*
X110100000Y-104200000D01*
X113400000Y-104200000D02*
X113400000Y-103450000D01*
X113400000Y-103450000D02*
X111600000Y-103450000D01*
X111600000Y-103450000D02*
X111600000Y-104200000D01*
X111600000Y-104200000D02*
X113400000Y-104200000D01*
X107600000Y-104200000D02*
X107600000Y-103450000D01*
X107600000Y-103450000D02*
X105800000Y-103450000D01*
X105800000Y-103450000D02*
X105800000Y-104200000D01*
X105800000Y-104200000D02*
X107600000Y-104200000D01*
X113400000Y-101950000D02*
X112650000Y-101950000D01*
X112650000Y-101950000D02*
X112650000Y-99000000D01*
X112650000Y-99000000D02*
X109600000Y-99000000D01*
X105800000Y-101950000D02*
X106550000Y-101950000D01*
X106550000Y-101950000D02*
X106550000Y-99000000D01*
X106550000Y-99000000D02*
X109600000Y-99000000D01*
X112450000Y-104500000D02*
X113700000Y-104500000D01*
X113700000Y-104500000D02*
X113700000Y-103250000D01*
%TO.C,J9*%
X82760000Y-104210000D02*
X82760000Y-98240000D01*
X82760000Y-98240000D02*
X75140000Y-98240000D01*
X75140000Y-98240000D02*
X75140000Y-104210000D01*
X75140000Y-104210000D02*
X82760000Y-104210000D01*
X79450000Y-104200000D02*
X79450000Y-103450000D01*
X79450000Y-103450000D02*
X78450000Y-103450000D01*
X78450000Y-103450000D02*
X78450000Y-104200000D01*
X78450000Y-104200000D02*
X79450000Y-104200000D01*
X82750000Y-104200000D02*
X82750000Y-103450000D01*
X82750000Y-103450000D02*
X80950000Y-103450000D01*
X80950000Y-103450000D02*
X80950000Y-104200000D01*
X80950000Y-104200000D02*
X82750000Y-104200000D01*
X76950000Y-104200000D02*
X76950000Y-103450000D01*
X76950000Y-103450000D02*
X75150000Y-103450000D01*
X75150000Y-103450000D02*
X75150000Y-104200000D01*
X75150000Y-104200000D02*
X76950000Y-104200000D01*
X82750000Y-101950000D02*
X82000000Y-101950000D01*
X82000000Y-101950000D02*
X82000000Y-99000000D01*
X82000000Y-99000000D02*
X78950000Y-99000000D01*
X75150000Y-101950000D02*
X75900000Y-101950000D01*
X75900000Y-101950000D02*
X75900000Y-99000000D01*
X75900000Y-99000000D02*
X78950000Y-99000000D01*
X81800000Y-104500000D02*
X83050000Y-104500000D01*
X83050000Y-104500000D02*
X83050000Y-103250000D01*
%TO.C,J7*%
X104860000Y-104210000D02*
X104860000Y-98240000D01*
X104860000Y-98240000D02*
X94740000Y-98240000D01*
X94740000Y-98240000D02*
X94740000Y-104210000D01*
X94740000Y-104210000D02*
X104860000Y-104210000D01*
X101550000Y-104200000D02*
X101550000Y-103450000D01*
X101550000Y-103450000D02*
X98050000Y-103450000D01*
X98050000Y-103450000D02*
X98050000Y-104200000D01*
X98050000Y-104200000D02*
X101550000Y-104200000D01*
X104850000Y-104200000D02*
X104850000Y-103450000D01*
X104850000Y-103450000D02*
X103050000Y-103450000D01*
X103050000Y-103450000D02*
X103050000Y-104200000D01*
X103050000Y-104200000D02*
X104850000Y-104200000D01*
X96550000Y-104200000D02*
X96550000Y-103450000D01*
X96550000Y-103450000D02*
X94750000Y-103450000D01*
X94750000Y-103450000D02*
X94750000Y-104200000D01*
X94750000Y-104200000D02*
X96550000Y-104200000D01*
X104850000Y-101950000D02*
X104100000Y-101950000D01*
X104100000Y-101950000D02*
X104100000Y-99000000D01*
X104100000Y-99000000D02*
X99800000Y-99000000D01*
X94750000Y-101950000D02*
X95500000Y-101950000D01*
X95500000Y-101950000D02*
X95500000Y-99000000D01*
X95500000Y-99000000D02*
X99800000Y-99000000D01*
X103900000Y-104500000D02*
X105150000Y-104500000D01*
X105150000Y-104500000D02*
X105150000Y-103250000D01*
%TO.C,J6*%
X93810000Y-104210000D02*
X93810000Y-98240000D01*
X93810000Y-98240000D02*
X83690000Y-98240000D01*
X83690000Y-98240000D02*
X83690000Y-104210000D01*
X83690000Y-104210000D02*
X93810000Y-104210000D01*
X90500000Y-104200000D02*
X90500000Y-103450000D01*
X90500000Y-103450000D02*
X87000000Y-103450000D01*
X87000000Y-103450000D02*
X87000000Y-104200000D01*
X87000000Y-104200000D02*
X90500000Y-104200000D01*
X93800000Y-104200000D02*
X93800000Y-103450000D01*
X93800000Y-103450000D02*
X92000000Y-103450000D01*
X92000000Y-103450000D02*
X92000000Y-104200000D01*
X92000000Y-104200000D02*
X93800000Y-104200000D01*
X85500000Y-104200000D02*
X85500000Y-103450000D01*
X85500000Y-103450000D02*
X83700000Y-103450000D01*
X83700000Y-103450000D02*
X83700000Y-104200000D01*
X83700000Y-104200000D02*
X85500000Y-104200000D01*
X93800000Y-101950000D02*
X93050000Y-101950000D01*
X93050000Y-101950000D02*
X93050000Y-99000000D01*
X93050000Y-99000000D02*
X88750000Y-99000000D01*
X83700000Y-101950000D02*
X84450000Y-101950000D01*
X84450000Y-101950000D02*
X84450000Y-99000000D01*
X84450000Y-99000000D02*
X88750000Y-99000000D01*
X92850000Y-104500000D02*
X94100000Y-104500000D01*
X94100000Y-104500000D02*
X94100000Y-103250000D01*
%TO.C,J1*%
X60260000Y-104160000D02*
X60260000Y-98190000D01*
X60260000Y-98190000D02*
X52640000Y-98190000D01*
X52640000Y-98190000D02*
X52640000Y-104160000D01*
X52640000Y-104160000D02*
X60260000Y-104160000D01*
X56950000Y-104150000D02*
X56950000Y-103400000D01*
X56950000Y-103400000D02*
X55950000Y-103400000D01*
X55950000Y-103400000D02*
X55950000Y-104150000D01*
X55950000Y-104150000D02*
X56950000Y-104150000D01*
X60250000Y-104150000D02*
X60250000Y-103400000D01*
X60250000Y-103400000D02*
X58450000Y-103400000D01*
X58450000Y-103400000D02*
X58450000Y-104150000D01*
X58450000Y-104150000D02*
X60250000Y-104150000D01*
X54450000Y-104150000D02*
X54450000Y-103400000D01*
X54450000Y-103400000D02*
X52650000Y-103400000D01*
X52650000Y-103400000D02*
X52650000Y-104150000D01*
X52650000Y-104150000D02*
X54450000Y-104150000D01*
X60250000Y-101900000D02*
X59500000Y-101900000D01*
X59500000Y-101900000D02*
X59500000Y-98950000D01*
X59500000Y-98950000D02*
X56450000Y-98950000D01*
X52650000Y-101900000D02*
X53400000Y-101900000D01*
X53400000Y-101900000D02*
X53400000Y-98950000D01*
X53400000Y-98950000D02*
X56450000Y-98950000D01*
X59300000Y-104450000D02*
X60550000Y-104450000D01*
X60550000Y-104450000D02*
X60550000Y-103200000D01*
%TO.C,SW1*%
D13*
X109666666Y-68004761D02*
X109809523Y-68052380D01*
X110047619Y-68052380D01*
X110142857Y-68004761D01*
X110190476Y-67957142D01*
X110238095Y-67861904D01*
X110238095Y-67766666D01*
X110190476Y-67671428D01*
X110142857Y-67623809D01*
X110047619Y-67576190D01*
X109857142Y-67528571D01*
X109761904Y-67480952D01*
X109714285Y-67433333D01*
X109666666Y-67338095D01*
X109666666Y-67242857D01*
X109714285Y-67147619D01*
X109761904Y-67100000D01*
X109857142Y-67052380D01*
X110095238Y-67052380D01*
X110238095Y-67100000D01*
X110571428Y-67052380D02*
X110809523Y-68052380D01*
X111000000Y-67338095D01*
X111190476Y-68052380D01*
X111428571Y-67052380D01*
X112333333Y-68052380D02*
X111761904Y-68052380D01*
X112047619Y-68052380D02*
X112047619Y-67052380D01*
X111952380Y-67195238D01*
X111857142Y-67290476D01*
X111761904Y-67338095D01*
%TO.C,C7*%
D14*
X91816666Y-94678571D02*
X91792857Y-94702380D01*
X91721428Y-94726190D01*
X91673809Y-94726190D01*
X91602380Y-94702380D01*
X91554761Y-94654761D01*
X91530952Y-94607142D01*
X91507142Y-94511904D01*
X91507142Y-94440476D01*
X91530952Y-94345238D01*
X91554761Y-94297619D01*
X91602380Y-94250000D01*
X91673809Y-94226190D01*
X91721428Y-94226190D01*
X91792857Y-94250000D01*
X91816666Y-94273809D01*
X91983333Y-94226190D02*
X92316666Y-94226190D01*
X92102380Y-94726190D01*
%TO.C,D2*%
X103830952Y-62926190D02*
X103830952Y-62426190D01*
X103950000Y-62426190D01*
X104021428Y-62450000D01*
X104069047Y-62497619D01*
X104092857Y-62545238D01*
X104116666Y-62640476D01*
X104116666Y-62711904D01*
X104092857Y-62807142D01*
X104069047Y-62854761D01*
X104021428Y-62902380D01*
X103950000Y-62926190D01*
X103830952Y-62926190D01*
X104307142Y-62473809D02*
X104330952Y-62450000D01*
X104378571Y-62426190D01*
X104497619Y-62426190D01*
X104545238Y-62450000D01*
X104569047Y-62473809D01*
X104592857Y-62521428D01*
X104592857Y-62569047D01*
X104569047Y-62640476D01*
X104283333Y-62926190D01*
X104592857Y-62926190D01*
%TO.C,R2*%
X104116666Y-64226190D02*
X103950000Y-63988095D01*
X103830952Y-64226190D02*
X103830952Y-63726190D01*
X104021428Y-63726190D01*
X104069047Y-63750000D01*
X104092857Y-63773809D01*
X104116666Y-63821428D01*
X104116666Y-63892857D01*
X104092857Y-63940476D01*
X104069047Y-63964285D01*
X104021428Y-63988095D01*
X103830952Y-63988095D01*
X104307142Y-63773809D02*
X104330952Y-63750000D01*
X104378571Y-63726190D01*
X104497619Y-63726190D01*
X104545238Y-63750000D01*
X104569047Y-63773809D01*
X104592857Y-63821428D01*
X104592857Y-63869047D01*
X104569047Y-63940476D01*
X104283333Y-64226190D01*
X104592857Y-64226190D01*
%TO.C,D4*%
X107930952Y-90826190D02*
X107930952Y-90326190D01*
X108050000Y-90326190D01*
X108121428Y-90350000D01*
X108169047Y-90397619D01*
X108192857Y-90445238D01*
X108216666Y-90540476D01*
X108216666Y-90611904D01*
X108192857Y-90707142D01*
X108169047Y-90754761D01*
X108121428Y-90802380D01*
X108050000Y-90826190D01*
X107930952Y-90826190D01*
X108645238Y-90492857D02*
X108645238Y-90826190D01*
X108526190Y-90302380D02*
X108407142Y-90659523D01*
X108716666Y-90659523D01*
%TO.C,R4*%
X108216666Y-89626190D02*
X108050000Y-89388095D01*
X107930952Y-89626190D02*
X107930952Y-89126190D01*
X108121428Y-89126190D01*
X108169047Y-89150000D01*
X108192857Y-89173809D01*
X108216666Y-89221428D01*
X108216666Y-89292857D01*
X108192857Y-89340476D01*
X108169047Y-89364285D01*
X108121428Y-89388095D01*
X107930952Y-89388095D01*
X108645238Y-89292857D02*
X108645238Y-89626190D01*
X108526190Y-89102380D02*
X108407142Y-89459523D01*
X108716666Y-89459523D01*
%TO.C,J8*%
X104133333Y-60326190D02*
X104133333Y-60683333D01*
X104109523Y-60754761D01*
X104061904Y-60802380D01*
X103990476Y-60826190D01*
X103942857Y-60826190D01*
X104442857Y-60540476D02*
X104395238Y-60516666D01*
X104371428Y-60492857D01*
X104347619Y-60445238D01*
X104347619Y-60421428D01*
X104371428Y-60373809D01*
X104395238Y-60350000D01*
X104442857Y-60326190D01*
X104538095Y-60326190D01*
X104585714Y-60350000D01*
X104609523Y-60373809D01*
X104633333Y-60421428D01*
X104633333Y-60445238D01*
X104609523Y-60492857D01*
X104585714Y-60516666D01*
X104538095Y-60540476D01*
X104442857Y-60540476D01*
X104395238Y-60564285D01*
X104371428Y-60588095D01*
X104347619Y-60635714D01*
X104347619Y-60730952D01*
X104371428Y-60778571D01*
X104395238Y-60802380D01*
X104442857Y-60826190D01*
X104538095Y-60826190D01*
X104585714Y-60802380D01*
X104609523Y-60778571D01*
X104633333Y-60730952D01*
X104633333Y-60635714D01*
X104609523Y-60588095D01*
X104585714Y-60564285D01*
X104538095Y-60540476D01*
%TO.C,Y1*%
X99261904Y-51688095D02*
X99261904Y-51926190D01*
X99095238Y-51426190D02*
X99261904Y-51688095D01*
X99428571Y-51426190D01*
X99857142Y-51926190D02*
X99571428Y-51926190D01*
X99714285Y-51926190D02*
X99714285Y-51426190D01*
X99666666Y-51497619D01*
X99619047Y-51545238D01*
X99571428Y-51569047D01*
%TO.C,C3*%
X81516666Y-50378571D02*
X81492857Y-50402380D01*
X81421428Y-50426190D01*
X81373809Y-50426190D01*
X81302380Y-50402380D01*
X81254761Y-50354761D01*
X81230952Y-50307142D01*
X81207142Y-50211904D01*
X81207142Y-50140476D01*
X81230952Y-50045238D01*
X81254761Y-49997619D01*
X81302380Y-49950000D01*
X81373809Y-49926190D01*
X81421428Y-49926190D01*
X81492857Y-49950000D01*
X81516666Y-49973809D01*
X81683333Y-49926190D02*
X81992857Y-49926190D01*
X81826190Y-50116666D01*
X81897619Y-50116666D01*
X81945238Y-50140476D01*
X81969047Y-50164285D01*
X81992857Y-50211904D01*
X81992857Y-50330952D01*
X81969047Y-50378571D01*
X81945238Y-50402380D01*
X81897619Y-50426190D01*
X81754761Y-50426190D01*
X81707142Y-50402380D01*
X81683333Y-50378571D01*
%TO.C,C2*%
X81516666Y-53378571D02*
X81492857Y-53402380D01*
X81421428Y-53426190D01*
X81373809Y-53426190D01*
X81302380Y-53402380D01*
X81254761Y-53354761D01*
X81230952Y-53307142D01*
X81207142Y-53211904D01*
X81207142Y-53140476D01*
X81230952Y-53045238D01*
X81254761Y-52997619D01*
X81302380Y-52950000D01*
X81373809Y-52926190D01*
X81421428Y-52926190D01*
X81492857Y-52950000D01*
X81516666Y-52973809D01*
X81707142Y-52973809D02*
X81730952Y-52950000D01*
X81778571Y-52926190D01*
X81897619Y-52926190D01*
X81945238Y-52950000D01*
X81969047Y-52973809D01*
X81992857Y-53021428D01*
X81992857Y-53069047D01*
X81969047Y-53140476D01*
X81683333Y-53426190D01*
X81992857Y-53426190D01*
%TO.C,U3*%
X94419047Y-82926190D02*
X94419047Y-83330952D01*
X94442857Y-83378571D01*
X94466666Y-83402380D01*
X94514285Y-83426190D01*
X94609523Y-83426190D01*
X94657142Y-83402380D01*
X94680952Y-83378571D01*
X94704761Y-83330952D01*
X94704761Y-82926190D01*
X94895238Y-82926190D02*
X95204761Y-82926190D01*
X95038095Y-83116666D01*
X95109523Y-83116666D01*
X95157142Y-83140476D01*
X95180952Y-83164285D01*
X95204761Y-83211904D01*
X95204761Y-83330952D01*
X95180952Y-83378571D01*
X95157142Y-83402380D01*
X95109523Y-83426190D01*
X94966666Y-83426190D01*
X94919047Y-83402380D01*
X94895238Y-83378571D01*
%TO.C,U1*%
X81519047Y-59726190D02*
X81519047Y-60130952D01*
X81542857Y-60178571D01*
X81566666Y-60202380D01*
X81614285Y-60226190D01*
X81709523Y-60226190D01*
X81757142Y-60202380D01*
X81780952Y-60178571D01*
X81804761Y-60130952D01*
X81804761Y-59726190D01*
X82304761Y-60226190D02*
X82019047Y-60226190D01*
X82161904Y-60226190D02*
X82161904Y-59726190D01*
X82114285Y-59797619D01*
X82066666Y-59845238D01*
X82019047Y-59869047D01*
%TO.C,C8*%
X102816666Y-94678571D02*
X102792857Y-94702380D01*
X102721428Y-94726190D01*
X102673809Y-94726190D01*
X102602380Y-94702380D01*
X102554761Y-94654761D01*
X102530952Y-94607142D01*
X102507142Y-94511904D01*
X102507142Y-94440476D01*
X102530952Y-94345238D01*
X102554761Y-94297619D01*
X102602380Y-94250000D01*
X102673809Y-94226190D01*
X102721428Y-94226190D01*
X102792857Y-94250000D01*
X102816666Y-94273809D01*
X103102380Y-94440476D02*
X103054761Y-94416666D01*
X103030952Y-94392857D01*
X103007142Y-94345238D01*
X103007142Y-94321428D01*
X103030952Y-94273809D01*
X103054761Y-94250000D01*
X103102380Y-94226190D01*
X103197619Y-94226190D01*
X103245238Y-94250000D01*
X103269047Y-94273809D01*
X103292857Y-94321428D01*
X103292857Y-94345238D01*
X103269047Y-94392857D01*
X103245238Y-94416666D01*
X103197619Y-94440476D01*
X103102380Y-94440476D01*
X103054761Y-94464285D01*
X103030952Y-94488095D01*
X103007142Y-94535714D01*
X103007142Y-94630952D01*
X103030952Y-94678571D01*
X103054761Y-94702380D01*
X103102380Y-94726190D01*
X103197619Y-94726190D01*
X103245238Y-94702380D01*
X103269047Y-94678571D01*
X103292857Y-94630952D01*
X103292857Y-94535714D01*
X103269047Y-94488095D01*
X103245238Y-94464285D01*
X103197619Y-94440476D01*
%TO.C,Q3*%
X67552380Y-49473809D02*
X67504761Y-49450000D01*
X67457142Y-49402380D01*
X67385714Y-49330952D01*
X67338095Y-49307142D01*
X67290476Y-49307142D01*
X67314285Y-49426190D02*
X67266666Y-49402380D01*
X67219047Y-49354761D01*
X67195238Y-49259523D01*
X67195238Y-49092857D01*
X67219047Y-48997619D01*
X67266666Y-48950000D01*
X67314285Y-48926190D01*
X67409523Y-48926190D01*
X67457142Y-48950000D01*
X67504761Y-48997619D01*
X67528571Y-49092857D01*
X67528571Y-49259523D01*
X67504761Y-49354761D01*
X67457142Y-49402380D01*
X67409523Y-49426190D01*
X67314285Y-49426190D01*
X67695238Y-48926190D02*
X68004761Y-48926190D01*
X67838095Y-49116666D01*
X67909523Y-49116666D01*
X67957142Y-49140476D01*
X67980952Y-49164285D01*
X68004761Y-49211904D01*
X68004761Y-49330952D01*
X67980952Y-49378571D01*
X67957142Y-49402380D01*
X67909523Y-49426190D01*
X67766666Y-49426190D01*
X67719047Y-49402380D01*
X67695238Y-49378571D01*
%TO.C,R6*%
X64716666Y-49426190D02*
X64550000Y-49188095D01*
X64430952Y-49426190D02*
X64430952Y-48926190D01*
X64621428Y-48926190D01*
X64669047Y-48950000D01*
X64692857Y-48973809D01*
X64716666Y-49021428D01*
X64716666Y-49092857D01*
X64692857Y-49140476D01*
X64669047Y-49164285D01*
X64621428Y-49188095D01*
X64430952Y-49188095D01*
X65145238Y-48926190D02*
X65050000Y-48926190D01*
X65002380Y-48950000D01*
X64978571Y-48973809D01*
X64930952Y-49045238D01*
X64907142Y-49140476D01*
X64907142Y-49330952D01*
X64930952Y-49378571D01*
X64954761Y-49402380D01*
X65002380Y-49426190D01*
X65097619Y-49426190D01*
X65145238Y-49402380D01*
X65169047Y-49378571D01*
X65192857Y-49330952D01*
X65192857Y-49211904D01*
X65169047Y-49164285D01*
X65145238Y-49140476D01*
X65097619Y-49116666D01*
X65002380Y-49116666D01*
X64954761Y-49140476D01*
X64930952Y-49164285D01*
X64907142Y-49211904D01*
%TO.C,R5*%
X70816666Y-49426190D02*
X70650000Y-49188095D01*
X70530952Y-49426190D02*
X70530952Y-48926190D01*
X70721428Y-48926190D01*
X70769047Y-48950000D01*
X70792857Y-48973809D01*
X70816666Y-49021428D01*
X70816666Y-49092857D01*
X70792857Y-49140476D01*
X70769047Y-49164285D01*
X70721428Y-49188095D01*
X70530952Y-49188095D01*
X71269047Y-48926190D02*
X71030952Y-48926190D01*
X71007142Y-49164285D01*
X71030952Y-49140476D01*
X71078571Y-49116666D01*
X71197619Y-49116666D01*
X71245238Y-49140476D01*
X71269047Y-49164285D01*
X71292857Y-49211904D01*
X71292857Y-49330952D01*
X71269047Y-49378571D01*
X71245238Y-49402380D01*
X71197619Y-49426190D01*
X71078571Y-49426190D01*
X71030952Y-49402380D01*
X71007142Y-49378571D01*
%TO.C,R8*%
X68316666Y-54226190D02*
X68150000Y-53988095D01*
X68030952Y-54226190D02*
X68030952Y-53726190D01*
X68221428Y-53726190D01*
X68269047Y-53750000D01*
X68292857Y-53773809D01*
X68316666Y-53821428D01*
X68316666Y-53892857D01*
X68292857Y-53940476D01*
X68269047Y-53964285D01*
X68221428Y-53988095D01*
X68030952Y-53988095D01*
X68602380Y-53940476D02*
X68554761Y-53916666D01*
X68530952Y-53892857D01*
X68507142Y-53845238D01*
X68507142Y-53821428D01*
X68530952Y-53773809D01*
X68554761Y-53750000D01*
X68602380Y-53726190D01*
X68697619Y-53726190D01*
X68745238Y-53750000D01*
X68769047Y-53773809D01*
X68792857Y-53821428D01*
X68792857Y-53845238D01*
X68769047Y-53892857D01*
X68745238Y-53916666D01*
X68697619Y-53940476D01*
X68602380Y-53940476D01*
X68554761Y-53964285D01*
X68530952Y-53988095D01*
X68507142Y-54035714D01*
X68507142Y-54130952D01*
X68530952Y-54178571D01*
X68554761Y-54202380D01*
X68602380Y-54226190D01*
X68697619Y-54226190D01*
X68745238Y-54202380D01*
X68769047Y-54178571D01*
X68792857Y-54130952D01*
X68792857Y-54035714D01*
X68769047Y-53988095D01*
X68745238Y-53964285D01*
X68697619Y-53940476D01*
%TO.C,R7*%
X71516666Y-54226190D02*
X71350000Y-53988095D01*
X71230952Y-54226190D02*
X71230952Y-53726190D01*
X71421428Y-53726190D01*
X71469047Y-53750000D01*
X71492857Y-53773809D01*
X71516666Y-53821428D01*
X71516666Y-53892857D01*
X71492857Y-53940476D01*
X71469047Y-53964285D01*
X71421428Y-53988095D01*
X71230952Y-53988095D01*
X71683333Y-53726190D02*
X72016666Y-53726190D01*
X71802380Y-54226190D01*
%TO.C,R1*%
X65916666Y-68626190D02*
X65750000Y-68388095D01*
X65630952Y-68626190D02*
X65630952Y-68126190D01*
X65821428Y-68126190D01*
X65869047Y-68150000D01*
X65892857Y-68173809D01*
X65916666Y-68221428D01*
X65916666Y-68292857D01*
X65892857Y-68340476D01*
X65869047Y-68364285D01*
X65821428Y-68388095D01*
X65630952Y-68388095D01*
X66392857Y-68626190D02*
X66107142Y-68626190D01*
X66250000Y-68626190D02*
X66250000Y-68126190D01*
X66202380Y-68197619D01*
X66154761Y-68245238D01*
X66107142Y-68269047D01*
%TO.C,J5*%
X108733333Y-85926190D02*
X108733333Y-86283333D01*
X108709523Y-86354761D01*
X108661904Y-86402380D01*
X108590476Y-86426190D01*
X108542857Y-86426190D01*
X109209523Y-85926190D02*
X108971428Y-85926190D01*
X108947619Y-86164285D01*
X108971428Y-86140476D01*
X109019047Y-86116666D01*
X109138095Y-86116666D01*
X109185714Y-86140476D01*
X109209523Y-86164285D01*
X109233333Y-86211904D01*
X109233333Y-86330952D01*
X109209523Y-86378571D01*
X109185714Y-86402380D01*
X109138095Y-86426190D01*
X109019047Y-86426190D01*
X108971428Y-86402380D01*
X108947619Y-86378571D01*
%TO.C,C5*%
X60116666Y-76878571D02*
X60092857Y-76902380D01*
X60021428Y-76926190D01*
X59973809Y-76926190D01*
X59902380Y-76902380D01*
X59854761Y-76854761D01*
X59830952Y-76807142D01*
X59807142Y-76711904D01*
X59807142Y-76640476D01*
X59830952Y-76545238D01*
X59854761Y-76497619D01*
X59902380Y-76450000D01*
X59973809Y-76426190D01*
X60021428Y-76426190D01*
X60092857Y-76450000D01*
X60116666Y-76473809D01*
X60569047Y-76426190D02*
X60330952Y-76426190D01*
X60307142Y-76664285D01*
X60330952Y-76640476D01*
X60378571Y-76616666D01*
X60497619Y-76616666D01*
X60545238Y-76640476D01*
X60569047Y-76664285D01*
X60592857Y-76711904D01*
X60592857Y-76830952D01*
X60569047Y-76878571D01*
X60545238Y-76902380D01*
X60497619Y-76926190D01*
X60378571Y-76926190D01*
X60330952Y-76902380D01*
X60307142Y-76878571D01*
%TO.C,C1*%
X73116666Y-97678571D02*
X73092857Y-97702380D01*
X73021428Y-97726190D01*
X72973809Y-97726190D01*
X72902380Y-97702380D01*
X72854761Y-97654761D01*
X72830952Y-97607142D01*
X72807142Y-97511904D01*
X72807142Y-97440476D01*
X72830952Y-97345238D01*
X72854761Y-97297619D01*
X72902380Y-97250000D01*
X72973809Y-97226190D01*
X73021428Y-97226190D01*
X73092857Y-97250000D01*
X73116666Y-97273809D01*
X73592857Y-97726190D02*
X73307142Y-97726190D01*
X73450000Y-97726190D02*
X73450000Y-97226190D01*
X73402380Y-97297619D01*
X73354761Y-97345238D01*
X73307142Y-97369047D01*
%TO.C,L1*%
X79016666Y-73426190D02*
X78778571Y-73426190D01*
X78778571Y-72926190D01*
X79445238Y-73426190D02*
X79159523Y-73426190D01*
X79302380Y-73426190D02*
X79302380Y-72926190D01*
X79254761Y-72997619D01*
X79207142Y-73045238D01*
X79159523Y-73069047D01*
%TO.C,Q2*%
X73852380Y-49473809D02*
X73804761Y-49450000D01*
X73757142Y-49402380D01*
X73685714Y-49330952D01*
X73638095Y-49307142D01*
X73590476Y-49307142D01*
X73614285Y-49426190D02*
X73566666Y-49402380D01*
X73519047Y-49354761D01*
X73495238Y-49259523D01*
X73495238Y-49092857D01*
X73519047Y-48997619D01*
X73566666Y-48950000D01*
X73614285Y-48926190D01*
X73709523Y-48926190D01*
X73757142Y-48950000D01*
X73804761Y-48997619D01*
X73828571Y-49092857D01*
X73828571Y-49259523D01*
X73804761Y-49354761D01*
X73757142Y-49402380D01*
X73709523Y-49426190D01*
X73614285Y-49426190D01*
X74019047Y-48973809D02*
X74042857Y-48950000D01*
X74090476Y-48926190D01*
X74209523Y-48926190D01*
X74257142Y-48950000D01*
X74280952Y-48973809D01*
X74304761Y-49021428D01*
X74304761Y-49069047D01*
X74280952Y-49140476D01*
X73995238Y-49426190D01*
X74304761Y-49426190D01*
%TO.C,J3*%
X102308190Y-75086666D02*
X102665333Y-75086666D01*
X102736761Y-75110476D01*
X102784380Y-75158095D01*
X102808190Y-75229523D01*
X102808190Y-75277142D01*
X102308190Y-74896190D02*
X102308190Y-74586666D01*
X102498666Y-74753333D01*
X102498666Y-74681904D01*
X102522476Y-74634285D01*
X102546285Y-74610476D01*
X102593904Y-74586666D01*
X102712952Y-74586666D01*
X102760571Y-74610476D01*
X102784380Y-74634285D01*
X102808190Y-74681904D01*
X102808190Y-74824761D01*
X102784380Y-74872380D01*
X102760571Y-74896190D01*
%TO.C,J4*%
X60733333Y-65426190D02*
X60733333Y-65783333D01*
X60709523Y-65854761D01*
X60661904Y-65902380D01*
X60590476Y-65926190D01*
X60542857Y-65926190D01*
X61185714Y-65592857D02*
X61185714Y-65926190D01*
X61066666Y-65402380D02*
X60947619Y-65759523D01*
X61257142Y-65759523D01*
%TO.C,Q1*%
X63052380Y-101773809D02*
X63004761Y-101750000D01*
X62957142Y-101702380D01*
X62885714Y-101630952D01*
X62838095Y-101607142D01*
X62790476Y-101607142D01*
X62814285Y-101726190D02*
X62766666Y-101702380D01*
X62719047Y-101654761D01*
X62695238Y-101559523D01*
X62695238Y-101392857D01*
X62719047Y-101297619D01*
X62766666Y-101250000D01*
X62814285Y-101226190D01*
X62909523Y-101226190D01*
X62957142Y-101250000D01*
X63004761Y-101297619D01*
X63028571Y-101392857D01*
X63028571Y-101559523D01*
X63004761Y-101654761D01*
X62957142Y-101702380D01*
X62909523Y-101726190D01*
X62814285Y-101726190D01*
X63504761Y-101726190D02*
X63219047Y-101726190D01*
X63361904Y-101726190D02*
X63361904Y-101226190D01*
X63314285Y-101297619D01*
X63266666Y-101345238D01*
X63219047Y-101369047D01*
%TO.C,D1*%
X76830952Y-87476190D02*
X76830952Y-86976190D01*
X76950000Y-86976190D01*
X77021428Y-87000000D01*
X77069047Y-87047619D01*
X77092857Y-87095238D01*
X77116666Y-87190476D01*
X77116666Y-87261904D01*
X77092857Y-87357142D01*
X77069047Y-87404761D01*
X77021428Y-87452380D01*
X76950000Y-87476190D01*
X76830952Y-87476190D01*
X77592857Y-87476190D02*
X77307142Y-87476190D01*
X77450000Y-87476190D02*
X77450000Y-86976190D01*
X77402380Y-87047619D01*
X77354761Y-87095238D01*
X77307142Y-87119047D01*
%TO.C,R3*%
X55816666Y-83426190D02*
X55650000Y-83188095D01*
X55530952Y-83426190D02*
X55530952Y-82926190D01*
X55721428Y-82926190D01*
X55769047Y-82950000D01*
X55792857Y-82973809D01*
X55816666Y-83021428D01*
X55816666Y-83092857D01*
X55792857Y-83140476D01*
X55769047Y-83164285D01*
X55721428Y-83188095D01*
X55530952Y-83188095D01*
X55983333Y-82926190D02*
X56292857Y-82926190D01*
X56126190Y-83116666D01*
X56197619Y-83116666D01*
X56245238Y-83140476D01*
X56269047Y-83164285D01*
X56292857Y-83211904D01*
X56292857Y-83330952D01*
X56269047Y-83378571D01*
X56245238Y-83402380D01*
X56197619Y-83426190D01*
X56054761Y-83426190D01*
X56007142Y-83402380D01*
X55983333Y-83378571D01*
%TO.C,D3*%
X52730952Y-83326190D02*
X52730952Y-82826190D01*
X52850000Y-82826190D01*
X52921428Y-82850000D01*
X52969047Y-82897619D01*
X52992857Y-82945238D01*
X53016666Y-83040476D01*
X53016666Y-83111904D01*
X52992857Y-83207142D01*
X52969047Y-83254761D01*
X52921428Y-83302380D01*
X52850000Y-83326190D01*
X52730952Y-83326190D01*
X53183333Y-82826190D02*
X53492857Y-82826190D01*
X53326190Y-83016666D01*
X53397619Y-83016666D01*
X53445238Y-83040476D01*
X53469047Y-83064285D01*
X53492857Y-83111904D01*
X53492857Y-83230952D01*
X53469047Y-83278571D01*
X53445238Y-83302380D01*
X53397619Y-83326190D01*
X53254761Y-83326190D01*
X53207142Y-83302380D01*
X53183333Y-83278571D01*
%TO.C,C4*%
X67816666Y-67178571D02*
X67792857Y-67202380D01*
X67721428Y-67226190D01*
X67673809Y-67226190D01*
X67602380Y-67202380D01*
X67554761Y-67154761D01*
X67530952Y-67107142D01*
X67507142Y-67011904D01*
X67507142Y-66940476D01*
X67530952Y-66845238D01*
X67554761Y-66797619D01*
X67602380Y-66750000D01*
X67673809Y-66726190D01*
X67721428Y-66726190D01*
X67792857Y-66750000D01*
X67816666Y-66773809D01*
X68245238Y-66892857D02*
X68245238Y-67226190D01*
X68126190Y-66702380D02*
X68007142Y-67059523D01*
X68316666Y-67059523D01*
%TO.C,C6*%
X79216666Y-54378571D02*
X79192857Y-54402380D01*
X79121428Y-54426190D01*
X79073809Y-54426190D01*
X79002380Y-54402380D01*
X78954761Y-54354761D01*
X78930952Y-54307142D01*
X78907142Y-54211904D01*
X78907142Y-54140476D01*
X78930952Y-54045238D01*
X78954761Y-53997619D01*
X79002380Y-53950000D01*
X79073809Y-53926190D01*
X79121428Y-53926190D01*
X79192857Y-53950000D01*
X79216666Y-53973809D01*
X79645238Y-53926190D02*
X79550000Y-53926190D01*
X79502380Y-53950000D01*
X79478571Y-53973809D01*
X79430952Y-54045238D01*
X79407142Y-54140476D01*
X79407142Y-54330952D01*
X79430952Y-54378571D01*
X79454761Y-54402380D01*
X79502380Y-54426190D01*
X79597619Y-54426190D01*
X79645238Y-54402380D01*
X79669047Y-54378571D01*
X79692857Y-54330952D01*
X79692857Y-54211904D01*
X79669047Y-54164285D01*
X79645238Y-54140476D01*
X79597619Y-54116666D01*
X79502380Y-54116666D01*
X79454761Y-54140476D01*
X79430952Y-54164285D01*
X79407142Y-54211904D01*
%TO.C,J2*%
X56633333Y-71926190D02*
X56633333Y-72283333D01*
X56609523Y-72354761D01*
X56561904Y-72402380D01*
X56490476Y-72426190D01*
X56442857Y-72426190D01*
X56847619Y-71973809D02*
X56871428Y-71950000D01*
X56919047Y-71926190D01*
X57038095Y-71926190D01*
X57085714Y-71950000D01*
X57109523Y-71973809D01*
X57133333Y-72021428D01*
X57133333Y-72069047D01*
X57109523Y-72140476D01*
X56823809Y-72426190D01*
X57133333Y-72426190D01*
%TO.C,U2*%
X68819047Y-96026190D02*
X68819047Y-96430952D01*
X68842857Y-96478571D01*
X68866666Y-96502380D01*
X68914285Y-96526190D01*
X69009523Y-96526190D01*
X69057142Y-96502380D01*
X69080952Y-96478571D01*
X69104761Y-96430952D01*
X69104761Y-96026190D01*
X69319047Y-96073809D02*
X69342857Y-96050000D01*
X69390476Y-96026190D01*
X69509523Y-96026190D01*
X69557142Y-96050000D01*
X69580952Y-96073809D01*
X69604761Y-96121428D01*
X69604761Y-96169047D01*
X69580952Y-96240476D01*
X69295238Y-96526190D01*
X69604761Y-96526190D01*
%TO.C,J10*%
X105795238Y-104426190D02*
X105795238Y-104783333D01*
X105771428Y-104854761D01*
X105723809Y-104902380D01*
X105652380Y-104926190D01*
X105604761Y-104926190D01*
X106295238Y-104926190D02*
X106009523Y-104926190D01*
X106152380Y-104926190D02*
X106152380Y-104426190D01*
X106104761Y-104497619D01*
X106057142Y-104545238D01*
X106009523Y-104569047D01*
X106604761Y-104426190D02*
X106652380Y-104426190D01*
X106700000Y-104450000D01*
X106723809Y-104473809D01*
X106747619Y-104521428D01*
X106771428Y-104616666D01*
X106771428Y-104735714D01*
X106747619Y-104830952D01*
X106723809Y-104878571D01*
X106700000Y-104902380D01*
X106652380Y-104926190D01*
X106604761Y-104926190D01*
X106557142Y-104902380D01*
X106533333Y-104878571D01*
X106509523Y-104830952D01*
X106485714Y-104735714D01*
X106485714Y-104616666D01*
X106509523Y-104521428D01*
X106533333Y-104473809D01*
X106557142Y-104450000D01*
X106604761Y-104426190D01*
%TO.C,J9*%
X75233333Y-104426190D02*
X75233333Y-104783333D01*
X75209523Y-104854761D01*
X75161904Y-104902380D01*
X75090476Y-104926190D01*
X75042857Y-104926190D01*
X75495238Y-104926190D02*
X75590476Y-104926190D01*
X75638095Y-104902380D01*
X75661904Y-104878571D01*
X75709523Y-104807142D01*
X75733333Y-104711904D01*
X75733333Y-104521428D01*
X75709523Y-104473809D01*
X75685714Y-104450000D01*
X75638095Y-104426190D01*
X75542857Y-104426190D01*
X75495238Y-104450000D01*
X75471428Y-104473809D01*
X75447619Y-104521428D01*
X75447619Y-104640476D01*
X75471428Y-104688095D01*
X75495238Y-104711904D01*
X75542857Y-104735714D01*
X75638095Y-104735714D01*
X75685714Y-104711904D01*
X75709523Y-104688095D01*
X75733333Y-104640476D01*
%TO.C,J7*%
X94933333Y-104426190D02*
X94933333Y-104783333D01*
X94909523Y-104854761D01*
X94861904Y-104902380D01*
X94790476Y-104926190D01*
X94742857Y-104926190D01*
X95123809Y-104426190D02*
X95457142Y-104426190D01*
X95242857Y-104926190D01*
%TO.C,J6*%
X83933333Y-104426190D02*
X83933333Y-104783333D01*
X83909523Y-104854761D01*
X83861904Y-104902380D01*
X83790476Y-104926190D01*
X83742857Y-104926190D01*
X84385714Y-104426190D02*
X84290476Y-104426190D01*
X84242857Y-104450000D01*
X84219047Y-104473809D01*
X84171428Y-104545238D01*
X84147619Y-104640476D01*
X84147619Y-104830952D01*
X84171428Y-104878571D01*
X84195238Y-104902380D01*
X84242857Y-104926190D01*
X84338095Y-104926190D01*
X84385714Y-104902380D01*
X84409523Y-104878571D01*
X84433333Y-104830952D01*
X84433333Y-104711904D01*
X84409523Y-104664285D01*
X84385714Y-104640476D01*
X84338095Y-104616666D01*
X84242857Y-104616666D01*
X84195238Y-104640476D01*
X84171428Y-104664285D01*
X84147619Y-104711904D01*
%TO.C,J1*%
X61133333Y-103526190D02*
X61133333Y-103883333D01*
X61109523Y-103954761D01*
X61061904Y-104002380D01*
X60990476Y-104026190D01*
X60942857Y-104026190D01*
X61633333Y-104026190D02*
X61347619Y-104026190D01*
X61490476Y-104026190D02*
X61490476Y-103526190D01*
X61442857Y-103597619D01*
X61395238Y-103645238D01*
X61347619Y-103669047D01*
%TD*%
M02*
