%TF.GenerationSoftware,KiCad,Pcbnew,5.1.10*%
%TF.CreationDate,2021-11-06T21:22:03+05:45*%
%TF.ProjectId,RobotHat,526f626f-7448-4617-942e-6b696361645f,rev?*%
%TF.SameCoordinates,Original*%
%TF.FileFunction,Soldermask,Top*%
%TF.FilePolarity,Negative*%
%FSLAX46Y46*%
G04 Gerber Fmt 4.6, Leading zero omitted, Abs format (unit mm)*
G04 Created by KiCad (PCBNEW 5.1.10) date 2021-11-06 21:22:03*
%MOMM*%
%LPD*%
G01*
G04 APERTURE LIST*
%ADD10R,1.000000X0.750000*%
%ADD11O,1.700000X1.700000*%
%ADD12R,1.700000X1.700000*%
%ADD13C,1.500000*%
%ADD14C,2.000000*%
%ADD15O,1.600000X1.600000*%
%ADD16R,1.600000X1.600000*%
%ADD17R,0.800000X0.900000*%
%ADD18O,1.950000X1.700000*%
%ADD19R,2.800000X5.400000*%
%ADD20R,0.900000X0.800000*%
%ADD21C,4.700000*%
%ADD22O,2.000000X1.700000*%
%ADD23R,9.400000X10.800000*%
%ADD24R,4.600000X1.100000*%
%ADD25O,1.700000X2.000000*%
%ADD26O,1.700000X1.950000*%
G04 APERTURE END LIST*
D10*
%TO.C,SW1*%
X114000000Y-60925000D03*
X108000000Y-60925000D03*
X114000000Y-64675000D03*
X108000000Y-64675000D03*
%TD*%
%TO.C,C7*%
G36*
G01*
X92849999Y-95400000D02*
X94150001Y-95400000D01*
G75*
G02*
X94400000Y-95649999I0J-249999D01*
G01*
X94400000Y-96300001D01*
G75*
G02*
X94150001Y-96550000I-249999J0D01*
G01*
X92849999Y-96550000D01*
G75*
G02*
X92600000Y-96300001I0J249999D01*
G01*
X92600000Y-95649999D01*
G75*
G02*
X92849999Y-95400000I249999J0D01*
G01*
G37*
G36*
G01*
X92849999Y-92450000D02*
X94150001Y-92450000D01*
G75*
G02*
X94400000Y-92699999I0J-249999D01*
G01*
X94400000Y-93350001D01*
G75*
G02*
X94150001Y-93600000I-249999J0D01*
G01*
X92849999Y-93600000D01*
G75*
G02*
X92600000Y-93350001I0J249999D01*
G01*
X92600000Y-92699999D01*
G75*
G02*
X92849999Y-92450000I249999J0D01*
G01*
G37*
%TD*%
%TO.C,D2*%
G36*
G01*
X102875000Y-62872500D02*
X102875000Y-62527500D01*
G75*
G02*
X103022500Y-62380000I147500J0D01*
G01*
X103317500Y-62380000D01*
G75*
G02*
X103465000Y-62527500I0J-147500D01*
G01*
X103465000Y-62872500D01*
G75*
G02*
X103317500Y-63020000I-147500J0D01*
G01*
X103022500Y-63020000D01*
G75*
G02*
X102875000Y-62872500I0J147500D01*
G01*
G37*
G36*
G01*
X101905000Y-62872500D02*
X101905000Y-62527500D01*
G75*
G02*
X102052500Y-62380000I147500J0D01*
G01*
X102347500Y-62380000D01*
G75*
G02*
X102495000Y-62527500I0J-147500D01*
G01*
X102495000Y-62872500D01*
G75*
G02*
X102347500Y-63020000I-147500J0D01*
G01*
X102052500Y-63020000D01*
G75*
G02*
X101905000Y-62872500I0J147500D01*
G01*
G37*
%TD*%
%TO.C,R2*%
G36*
G01*
X102840000Y-64185000D02*
X102840000Y-63815000D01*
G75*
G02*
X102975000Y-63680000I135000J0D01*
G01*
X103245000Y-63680000D01*
G75*
G02*
X103380000Y-63815000I0J-135000D01*
G01*
X103380000Y-64185000D01*
G75*
G02*
X103245000Y-64320000I-135000J0D01*
G01*
X102975000Y-64320000D01*
G75*
G02*
X102840000Y-64185000I0J135000D01*
G01*
G37*
G36*
G01*
X101820000Y-64185000D02*
X101820000Y-63815000D01*
G75*
G02*
X101955000Y-63680000I135000J0D01*
G01*
X102225000Y-63680000D01*
G75*
G02*
X102360000Y-63815000I0J-135000D01*
G01*
X102360000Y-64185000D01*
G75*
G02*
X102225000Y-64320000I-135000J0D01*
G01*
X101955000Y-64320000D01*
G75*
G02*
X101820000Y-64185000I0J135000D01*
G01*
G37*
%TD*%
%TO.C,D4*%
G36*
G01*
X106915000Y-90772500D02*
X106915000Y-90427500D01*
G75*
G02*
X107062500Y-90280000I147500J0D01*
G01*
X107357500Y-90280000D01*
G75*
G02*
X107505000Y-90427500I0J-147500D01*
G01*
X107505000Y-90772500D01*
G75*
G02*
X107357500Y-90920000I-147500J0D01*
G01*
X107062500Y-90920000D01*
G75*
G02*
X106915000Y-90772500I0J147500D01*
G01*
G37*
G36*
G01*
X105945000Y-90772500D02*
X105945000Y-90427500D01*
G75*
G02*
X106092500Y-90280000I147500J0D01*
G01*
X106387500Y-90280000D01*
G75*
G02*
X106535000Y-90427500I0J-147500D01*
G01*
X106535000Y-90772500D01*
G75*
G02*
X106387500Y-90920000I-147500J0D01*
G01*
X106092500Y-90920000D01*
G75*
G02*
X105945000Y-90772500I0J147500D01*
G01*
G37*
%TD*%
%TO.C,R4*%
G36*
G01*
X106965000Y-89607000D02*
X106965000Y-89237000D01*
G75*
G02*
X107100000Y-89102000I135000J0D01*
G01*
X107370000Y-89102000D01*
G75*
G02*
X107505000Y-89237000I0J-135000D01*
G01*
X107505000Y-89607000D01*
G75*
G02*
X107370000Y-89742000I-135000J0D01*
G01*
X107100000Y-89742000D01*
G75*
G02*
X106965000Y-89607000I0J135000D01*
G01*
G37*
G36*
G01*
X105945000Y-89607000D02*
X105945000Y-89237000D01*
G75*
G02*
X106080000Y-89102000I135000J0D01*
G01*
X106350000Y-89102000D01*
G75*
G02*
X106485000Y-89237000I0J-135000D01*
G01*
X106485000Y-89607000D01*
G75*
G02*
X106350000Y-89742000I-135000J0D01*
G01*
X106080000Y-89742000D01*
G75*
G02*
X105945000Y-89607000I0J135000D01*
G01*
G37*
%TD*%
D11*
%TO.C,J11*%
X106960000Y-44260000D03*
X106960000Y-46800000D03*
X104420000Y-44260000D03*
X104420000Y-46800000D03*
X101880000Y-44260000D03*
X101880000Y-46800000D03*
X99340000Y-44260000D03*
X99340000Y-46800000D03*
X96800000Y-44260000D03*
X96800000Y-46800000D03*
X94260000Y-44260000D03*
X94260000Y-46800000D03*
X91720000Y-44260000D03*
X91720000Y-46800000D03*
X89180000Y-44260000D03*
X89180000Y-46800000D03*
X86640000Y-44260000D03*
X86640000Y-46800000D03*
X84100000Y-44260000D03*
X84100000Y-46800000D03*
X81560000Y-44260000D03*
X81560000Y-46800000D03*
X79020000Y-44260000D03*
X79020000Y-46800000D03*
X76480000Y-44260000D03*
X76480000Y-46800000D03*
X73940000Y-44260000D03*
X73940000Y-46800000D03*
X71400000Y-44260000D03*
X71400000Y-46800000D03*
X68860000Y-44260000D03*
X68860000Y-46800000D03*
X66320000Y-44260000D03*
X66320000Y-46800000D03*
X63780000Y-44260000D03*
X63780000Y-46800000D03*
X61240000Y-44260000D03*
X61240000Y-46800000D03*
X58700000Y-44260000D03*
D12*
X58700000Y-46800000D03*
%TD*%
D11*
%TO.C,J8*%
X104800000Y-50780000D03*
X104800000Y-53320000D03*
X104800000Y-55860000D03*
D12*
X104800000Y-58400000D03*
%TD*%
D13*
%TO.C,Y1*%
X90406000Y-51818000D03*
X95286000Y-51818000D03*
%TD*%
%TO.C,C3*%
G36*
G01*
X83464000Y-49515999D02*
X83464000Y-50816001D01*
G75*
G02*
X83214001Y-51066000I-249999J0D01*
G01*
X82563999Y-51066000D01*
G75*
G02*
X82314000Y-50816001I0J249999D01*
G01*
X82314000Y-49515999D01*
G75*
G02*
X82563999Y-49266000I249999J0D01*
G01*
X83214001Y-49266000D01*
G75*
G02*
X83464000Y-49515999I0J-249999D01*
G01*
G37*
G36*
G01*
X86414000Y-49515999D02*
X86414000Y-50816001D01*
G75*
G02*
X86164001Y-51066000I-249999J0D01*
G01*
X85513999Y-51066000D01*
G75*
G02*
X85264000Y-50816001I0J249999D01*
G01*
X85264000Y-49515999D01*
G75*
G02*
X85513999Y-49266000I249999J0D01*
G01*
X86164001Y-49266000D01*
G75*
G02*
X86414000Y-49515999I0J-249999D01*
G01*
G37*
%TD*%
%TO.C,C2*%
G36*
G01*
X83464000Y-52817999D02*
X83464000Y-54118001D01*
G75*
G02*
X83214001Y-54368000I-249999J0D01*
G01*
X82563999Y-54368000D01*
G75*
G02*
X82314000Y-54118001I0J249999D01*
G01*
X82314000Y-52817999D01*
G75*
G02*
X82563999Y-52568000I249999J0D01*
G01*
X83214001Y-52568000D01*
G75*
G02*
X83464000Y-52817999I0J-249999D01*
G01*
G37*
G36*
G01*
X86414000Y-52817999D02*
X86414000Y-54118001D01*
G75*
G02*
X86164001Y-54368000I-249999J0D01*
G01*
X85513999Y-54368000D01*
G75*
G02*
X85264000Y-54118001I0J249999D01*
G01*
X85264000Y-52817999D01*
G75*
G02*
X85513999Y-52568000I249999J0D01*
G01*
X86164001Y-52568000D01*
G75*
G02*
X86414000Y-52817999I0J-249999D01*
G01*
G37*
%TD*%
D14*
%TO.C,U3*%
X103680000Y-75060000D03*
X101140000Y-75060000D03*
X98600000Y-75060000D03*
X96060000Y-75060000D03*
X93520000Y-75060000D03*
X90980000Y-75060000D03*
X88440000Y-75060000D03*
X85900000Y-75060000D03*
X103680000Y-90300000D03*
X101140000Y-90300000D03*
X98600000Y-90300000D03*
X96060000Y-90300000D03*
X93520000Y-90300000D03*
X90980000Y-90300000D03*
X88440000Y-90300000D03*
X85900000Y-90300000D03*
%TD*%
D15*
%TO.C,U1*%
X65314000Y-56262000D03*
X98334000Y-63882000D03*
X67854000Y-56262000D03*
X95794000Y-63882000D03*
X70394000Y-56262000D03*
X93254000Y-63882000D03*
X72934000Y-56262000D03*
X90714000Y-63882000D03*
X75474000Y-56262000D03*
X88174000Y-63882000D03*
X78014000Y-56262000D03*
X85634000Y-63882000D03*
X80554000Y-56262000D03*
X83094000Y-63882000D03*
X83094000Y-56262000D03*
X80554000Y-63882000D03*
X85634000Y-56262000D03*
X78014000Y-63882000D03*
X88174000Y-56262000D03*
X75474000Y-63882000D03*
X90714000Y-56262000D03*
X72934000Y-63882000D03*
X93254000Y-56262000D03*
X70394000Y-63882000D03*
X95794000Y-56262000D03*
X67854000Y-63882000D03*
X98334000Y-56262000D03*
D16*
X65314000Y-63882000D03*
%TD*%
%TO.C,C8*%
G36*
G01*
X101850001Y-93600000D02*
X100549999Y-93600000D01*
G75*
G02*
X100300000Y-93350001I0J249999D01*
G01*
X100300000Y-92699999D01*
G75*
G02*
X100549999Y-92450000I249999J0D01*
G01*
X101850001Y-92450000D01*
G75*
G02*
X102100000Y-92699999I0J-249999D01*
G01*
X102100000Y-93350001D01*
G75*
G02*
X101850001Y-93600000I-249999J0D01*
G01*
G37*
G36*
G01*
X101850001Y-96550000D02*
X100549999Y-96550000D01*
G75*
G02*
X100300000Y-96300001I0J249999D01*
G01*
X100300000Y-95649999D01*
G75*
G02*
X100549999Y-95400000I249999J0D01*
G01*
X101850001Y-95400000D01*
G75*
G02*
X102100000Y-95649999I0J-249999D01*
G01*
X102100000Y-96300001D01*
G75*
G02*
X101850001Y-96550000I-249999J0D01*
G01*
G37*
%TD*%
D17*
%TO.C,Q3*%
X67682000Y-52186000D03*
X66732000Y-50186000D03*
X68632000Y-50186000D03*
%TD*%
%TO.C,R6*%
G36*
G01*
X64355998Y-51582000D02*
X65256002Y-51582000D01*
G75*
G02*
X65506000Y-51831998I0J-249998D01*
G01*
X65506000Y-52357002D01*
G75*
G02*
X65256002Y-52607000I-249998J0D01*
G01*
X64355998Y-52607000D01*
G75*
G02*
X64106000Y-52357002I0J249998D01*
G01*
X64106000Y-51831998D01*
G75*
G02*
X64355998Y-51582000I249998J0D01*
G01*
G37*
G36*
G01*
X64355998Y-49757000D02*
X65256002Y-49757000D01*
G75*
G02*
X65506000Y-50006998I0J-249998D01*
G01*
X65506000Y-50532002D01*
G75*
G02*
X65256002Y-50782000I-249998J0D01*
G01*
X64355998Y-50782000D01*
G75*
G02*
X64106000Y-50532002I0J249998D01*
G01*
X64106000Y-50006998D01*
G75*
G02*
X64355998Y-49757000I249998J0D01*
G01*
G37*
%TD*%
%TO.C,R5*%
G36*
G01*
X70451998Y-51582000D02*
X71352002Y-51582000D01*
G75*
G02*
X71602000Y-51831998I0J-249998D01*
G01*
X71602000Y-52357002D01*
G75*
G02*
X71352002Y-52607000I-249998J0D01*
G01*
X70451998Y-52607000D01*
G75*
G02*
X70202000Y-52357002I0J249998D01*
G01*
X70202000Y-51831998D01*
G75*
G02*
X70451998Y-51582000I249998J0D01*
G01*
G37*
G36*
G01*
X70451998Y-49757000D02*
X71352002Y-49757000D01*
G75*
G02*
X71602000Y-50006998I0J-249998D01*
G01*
X71602000Y-50532002D01*
G75*
G02*
X71352002Y-50782000I-249998J0D01*
G01*
X70451998Y-50782000D01*
G75*
G02*
X70202000Y-50532002I0J249998D01*
G01*
X70202000Y-50006998D01*
G75*
G02*
X70451998Y-49757000I249998J0D01*
G01*
G37*
%TD*%
%TO.C,R8*%
G36*
G01*
X66400000Y-54450002D02*
X66400000Y-53549998D01*
G75*
G02*
X66649998Y-53300000I249998J0D01*
G01*
X67175002Y-53300000D01*
G75*
G02*
X67425000Y-53549998I0J-249998D01*
G01*
X67425000Y-54450002D01*
G75*
G02*
X67175002Y-54700000I-249998J0D01*
G01*
X66649998Y-54700000D01*
G75*
G02*
X66400000Y-54450002I0J249998D01*
G01*
G37*
G36*
G01*
X64575000Y-54450002D02*
X64575000Y-53549998D01*
G75*
G02*
X64824998Y-53300000I249998J0D01*
G01*
X65350002Y-53300000D01*
G75*
G02*
X65600000Y-53549998I0J-249998D01*
G01*
X65600000Y-54450002D01*
G75*
G02*
X65350002Y-54700000I-249998J0D01*
G01*
X64824998Y-54700000D01*
G75*
G02*
X64575000Y-54450002I0J249998D01*
G01*
G37*
%TD*%
%TO.C,R7*%
G36*
G01*
X73428000Y-53635998D02*
X73428000Y-54536002D01*
G75*
G02*
X73178002Y-54786000I-249998J0D01*
G01*
X72652998Y-54786000D01*
G75*
G02*
X72403000Y-54536002I0J249998D01*
G01*
X72403000Y-53635998D01*
G75*
G02*
X72652998Y-53386000I249998J0D01*
G01*
X73178002Y-53386000D01*
G75*
G02*
X73428000Y-53635998I0J-249998D01*
G01*
G37*
G36*
G01*
X75253000Y-53635998D02*
X75253000Y-54536002D01*
G75*
G02*
X75003002Y-54786000I-249998J0D01*
G01*
X74477998Y-54786000D01*
G75*
G02*
X74228000Y-54536002I0J249998D01*
G01*
X74228000Y-53635998D01*
G75*
G02*
X74477998Y-53386000I249998J0D01*
G01*
X75003002Y-53386000D01*
G75*
G02*
X75253000Y-53635998I0J-249998D01*
G01*
G37*
%TD*%
%TO.C,R1*%
G36*
G01*
X65002002Y-67038000D02*
X64101998Y-67038000D01*
G75*
G02*
X63852000Y-66788002I0J249998D01*
G01*
X63852000Y-66262998D01*
G75*
G02*
X64101998Y-66013000I249998J0D01*
G01*
X65002002Y-66013000D01*
G75*
G02*
X65252000Y-66262998I0J-249998D01*
G01*
X65252000Y-66788002D01*
G75*
G02*
X65002002Y-67038000I-249998J0D01*
G01*
G37*
G36*
G01*
X65002002Y-68863000D02*
X64101998Y-68863000D01*
G75*
G02*
X63852000Y-68613002I0J249998D01*
G01*
X63852000Y-68087998D01*
G75*
G02*
X64101998Y-67838000I249998J0D01*
G01*
X65002002Y-67838000D01*
G75*
G02*
X65252000Y-68087998I0J-249998D01*
G01*
X65252000Y-68613002D01*
G75*
G02*
X65002002Y-68863000I-249998J0D01*
G01*
G37*
%TD*%
%TO.C,J5*%
G36*
G01*
X111175000Y-74650000D02*
X112625000Y-74650000D01*
G75*
G02*
X112875000Y-74900000I0J-250000D01*
G01*
X112875000Y-76100000D01*
G75*
G02*
X112625000Y-76350000I-250000J0D01*
G01*
X111175000Y-76350000D01*
G75*
G02*
X110925000Y-76100000I0J250000D01*
G01*
X110925000Y-74900000D01*
G75*
G02*
X111175000Y-74650000I250000J0D01*
G01*
G37*
D18*
X111900000Y-78000000D03*
X111900000Y-80500000D03*
X111900000Y-83000000D03*
%TD*%
%TO.C,C5*%
G36*
G01*
X61650000Y-81700000D02*
X62750000Y-81700000D01*
G75*
G02*
X63000000Y-81950000I0J-250000D01*
G01*
X63000000Y-84950000D01*
G75*
G02*
X62750000Y-85200000I-250000J0D01*
G01*
X61650000Y-85200000D01*
G75*
G02*
X61400000Y-84950000I0J250000D01*
G01*
X61400000Y-81950000D01*
G75*
G02*
X61650000Y-81700000I250000J0D01*
G01*
G37*
G36*
G01*
X61650000Y-76300000D02*
X62750000Y-76300000D01*
G75*
G02*
X63000000Y-76550000I0J-250000D01*
G01*
X63000000Y-79550000D01*
G75*
G02*
X62750000Y-79800000I-250000J0D01*
G01*
X61650000Y-79800000D01*
G75*
G02*
X61400000Y-79550000I0J250000D01*
G01*
X61400000Y-76550000D01*
G75*
G02*
X61650000Y-76300000I250000J0D01*
G01*
G37*
%TD*%
%TO.C,C1*%
G36*
G01*
X68750000Y-100400000D02*
X68750000Y-101500000D01*
G75*
G02*
X68500000Y-101750000I-250000J0D01*
G01*
X65500000Y-101750000D01*
G75*
G02*
X65250000Y-101500000I0J250000D01*
G01*
X65250000Y-100400000D01*
G75*
G02*
X65500000Y-100150000I250000J0D01*
G01*
X68500000Y-100150000D01*
G75*
G02*
X68750000Y-100400000I0J-250000D01*
G01*
G37*
G36*
G01*
X74150000Y-100400000D02*
X74150000Y-101500000D01*
G75*
G02*
X73900000Y-101750000I-250000J0D01*
G01*
X70900000Y-101750000D01*
G75*
G02*
X70650000Y-101500000I0J250000D01*
G01*
X70650000Y-100400000D01*
G75*
G02*
X70900000Y-100150000I250000J0D01*
G01*
X73900000Y-100150000D01*
G75*
G02*
X74150000Y-100400000I0J-250000D01*
G01*
G37*
%TD*%
D19*
%TO.C,L1*%
X77450000Y-78900000D03*
X67650000Y-78900000D03*
%TD*%
D17*
%TO.C,Q2*%
X73828000Y-52186000D03*
X72878000Y-50186000D03*
X74778000Y-50186000D03*
%TD*%
D12*
%TO.C,J3*%
X106900000Y-67300000D03*
D11*
X106900000Y-69840000D03*
X104360000Y-67300000D03*
X104360000Y-69840000D03*
X101820000Y-67300000D03*
X101820000Y-69840000D03*
%TD*%
%TO.C,J4*%
X60900000Y-50900000D03*
X60900000Y-53440000D03*
X60900000Y-55980000D03*
X60900000Y-58520000D03*
X60900000Y-61060000D03*
D12*
X60900000Y-63600000D03*
%TD*%
D20*
%TO.C,Q1*%
X61900000Y-99250000D03*
X63900000Y-98300000D03*
X63900000Y-100200000D03*
%TD*%
%TO.C,D1*%
G36*
G01*
X77630000Y-90190000D02*
X76870000Y-90190000D01*
G75*
G02*
X76490000Y-89810000I0J380000D01*
G01*
X76490000Y-88890000D01*
G75*
G02*
X76870000Y-88510000I380000J0D01*
G01*
X77630000Y-88510000D01*
G75*
G02*
X78010000Y-88890000I0J-380000D01*
G01*
X78010000Y-89810000D01*
G75*
G02*
X77630000Y-90190000I-380000J0D01*
G01*
G37*
G36*
G01*
X77630000Y-94090000D02*
X76870000Y-94090000D01*
G75*
G02*
X76490000Y-93710000I0J380000D01*
G01*
X76490000Y-92790000D01*
G75*
G02*
X76870000Y-92410000I380000J0D01*
G01*
X77630000Y-92410000D01*
G75*
G02*
X78010000Y-92790000I0J-380000D01*
G01*
X78010000Y-93710000D01*
G75*
G02*
X77630000Y-94090000I-380000J0D01*
G01*
G37*
%TD*%
%TO.C,R3*%
G36*
G01*
X55560000Y-82015000D02*
X55560000Y-82385000D01*
G75*
G02*
X55425000Y-82520000I-135000J0D01*
G01*
X55155000Y-82520000D01*
G75*
G02*
X55020000Y-82385000I0J135000D01*
G01*
X55020000Y-82015000D01*
G75*
G02*
X55155000Y-81880000I135000J0D01*
G01*
X55425000Y-81880000D01*
G75*
G02*
X55560000Y-82015000I0J-135000D01*
G01*
G37*
G36*
G01*
X56580000Y-82015000D02*
X56580000Y-82385000D01*
G75*
G02*
X56445000Y-82520000I-135000J0D01*
G01*
X56175000Y-82520000D01*
G75*
G02*
X56040000Y-82385000I0J135000D01*
G01*
X56040000Y-82015000D01*
G75*
G02*
X56175000Y-81880000I135000J0D01*
G01*
X56445000Y-81880000D01*
G75*
G02*
X56580000Y-82015000I0J-135000D01*
G01*
G37*
%TD*%
%TO.C,D3*%
G36*
G01*
X53255000Y-82372500D02*
X53255000Y-82027500D01*
G75*
G02*
X53402500Y-81880000I147500J0D01*
G01*
X53697500Y-81880000D01*
G75*
G02*
X53845000Y-82027500I0J-147500D01*
G01*
X53845000Y-82372500D01*
G75*
G02*
X53697500Y-82520000I-147500J0D01*
G01*
X53402500Y-82520000D01*
G75*
G02*
X53255000Y-82372500I0J147500D01*
G01*
G37*
G36*
G01*
X52285000Y-82372500D02*
X52285000Y-82027500D01*
G75*
G02*
X52432500Y-81880000I147500J0D01*
G01*
X52727500Y-81880000D01*
G75*
G02*
X52875000Y-82027500I0J-147500D01*
G01*
X52875000Y-82372500D01*
G75*
G02*
X52727500Y-82520000I-147500J0D01*
G01*
X52432500Y-82520000D01*
G75*
G02*
X52285000Y-82372500I0J147500D01*
G01*
G37*
%TD*%
%TO.C,C4*%
G36*
G01*
X67008000Y-66730000D02*
X66668000Y-66730000D01*
G75*
G02*
X66528000Y-66590000I0J140000D01*
G01*
X66528000Y-66310000D01*
G75*
G02*
X66668000Y-66170000I140000J0D01*
G01*
X67008000Y-66170000D01*
G75*
G02*
X67148000Y-66310000I0J-140000D01*
G01*
X67148000Y-66590000D01*
G75*
G02*
X67008000Y-66730000I-140000J0D01*
G01*
G37*
G36*
G01*
X67008000Y-67690000D02*
X66668000Y-67690000D01*
G75*
G02*
X66528000Y-67550000I0J140000D01*
G01*
X66528000Y-67270000D01*
G75*
G02*
X66668000Y-67130000I140000J0D01*
G01*
X67008000Y-67130000D01*
G75*
G02*
X67148000Y-67270000I0J-140000D01*
G01*
X67148000Y-67550000D01*
G75*
G02*
X67008000Y-67690000I-140000J0D01*
G01*
G37*
%TD*%
%TO.C,C6*%
G36*
G01*
X81008000Y-54400000D02*
X81008000Y-54060000D01*
G75*
G02*
X81148000Y-53920000I140000J0D01*
G01*
X81428000Y-53920000D01*
G75*
G02*
X81568000Y-54060000I0J-140000D01*
G01*
X81568000Y-54400000D01*
G75*
G02*
X81428000Y-54540000I-140000J0D01*
G01*
X81148000Y-54540000D01*
G75*
G02*
X81008000Y-54400000I0J140000D01*
G01*
G37*
G36*
G01*
X80048000Y-54400000D02*
X80048000Y-54060000D01*
G75*
G02*
X80188000Y-53920000I140000J0D01*
G01*
X80468000Y-53920000D01*
G75*
G02*
X80608000Y-54060000I0J-140000D01*
G01*
X80608000Y-54400000D01*
G75*
G02*
X80468000Y-54540000I-140000J0D01*
G01*
X80188000Y-54540000D01*
G75*
G02*
X80048000Y-54400000I0J140000D01*
G01*
G37*
%TD*%
D21*
%TO.C,H6*%
X111800000Y-94500000D03*
%TD*%
%TO.C,H5*%
X53800000Y-94500000D03*
%TD*%
D22*
%TO.C,J2*%
X53800000Y-75400000D03*
G36*
G01*
X54550000Y-78750000D02*
X53050000Y-78750000D01*
G75*
G02*
X52800000Y-78500000I0J250000D01*
G01*
X52800000Y-77300000D01*
G75*
G02*
X53050000Y-77050000I250000J0D01*
G01*
X54550000Y-77050000D01*
G75*
G02*
X54800000Y-77300000I0J-250000D01*
G01*
X54800000Y-78500000D01*
G75*
G02*
X54550000Y-78750000I-250000J0D01*
G01*
G37*
%TD*%
D23*
%TO.C,U2*%
X62025000Y-91500000D03*
D24*
X71175000Y-88100000D03*
X71175000Y-89800000D03*
X71175000Y-91500000D03*
X71175000Y-93200000D03*
X71175000Y-94900000D03*
%TD*%
D21*
%TO.C,H4*%
X111800000Y-68500000D03*
%TD*%
%TO.C,H3*%
X111800000Y-45500000D03*
%TD*%
%TO.C,H2*%
X53800000Y-68500000D03*
%TD*%
%TO.C,H1*%
X53800000Y-45500000D03*
%TD*%
D25*
%TO.C,J10*%
X108350000Y-101750000D03*
G36*
G01*
X111700000Y-101000000D02*
X111700000Y-102500000D01*
G75*
G02*
X111450000Y-102750000I-250000J0D01*
G01*
X110250000Y-102750000D01*
G75*
G02*
X110000000Y-102500000I0J250000D01*
G01*
X110000000Y-101000000D01*
G75*
G02*
X110250000Y-100750000I250000J0D01*
G01*
X111450000Y-100750000D01*
G75*
G02*
X111700000Y-101000000I0J-250000D01*
G01*
G37*
%TD*%
%TO.C,J9*%
X77700000Y-101750000D03*
G36*
G01*
X81050000Y-101000000D02*
X81050000Y-102500000D01*
G75*
G02*
X80800000Y-102750000I-250000J0D01*
G01*
X79600000Y-102750000D01*
G75*
G02*
X79350000Y-102500000I0J250000D01*
G01*
X79350000Y-101000000D01*
G75*
G02*
X79600000Y-100750000I250000J0D01*
G01*
X80800000Y-100750000D01*
G75*
G02*
X81050000Y-101000000I0J-250000D01*
G01*
G37*
%TD*%
D26*
%TO.C,J7*%
X97300000Y-101750000D03*
X99800000Y-101750000D03*
G36*
G01*
X103150000Y-101025000D02*
X103150000Y-102475000D01*
G75*
G02*
X102900000Y-102725000I-250000J0D01*
G01*
X101700000Y-102725000D01*
G75*
G02*
X101450000Y-102475000I0J250000D01*
G01*
X101450000Y-101025000D01*
G75*
G02*
X101700000Y-100775000I250000J0D01*
G01*
X102900000Y-100775000D01*
G75*
G02*
X103150000Y-101025000I0J-250000D01*
G01*
G37*
%TD*%
%TO.C,J6*%
X86250000Y-101750000D03*
X88750000Y-101750000D03*
G36*
G01*
X92100000Y-101025000D02*
X92100000Y-102475000D01*
G75*
G02*
X91850000Y-102725000I-250000J0D01*
G01*
X90650000Y-102725000D01*
G75*
G02*
X90400000Y-102475000I0J250000D01*
G01*
X90400000Y-101025000D01*
G75*
G02*
X90650000Y-100775000I250000J0D01*
G01*
X91850000Y-100775000D01*
G75*
G02*
X92100000Y-101025000I0J-250000D01*
G01*
G37*
%TD*%
D25*
%TO.C,J1*%
X55200000Y-101700000D03*
G36*
G01*
X58550000Y-100950000D02*
X58550000Y-102450000D01*
G75*
G02*
X58300000Y-102700000I-250000J0D01*
G01*
X57100000Y-102700000D01*
G75*
G02*
X56850000Y-102450000I0J250000D01*
G01*
X56850000Y-100950000D01*
G75*
G02*
X57100000Y-100700000I250000J0D01*
G01*
X58300000Y-100700000D01*
G75*
G02*
X58550000Y-100950000I0J-250000D01*
G01*
G37*
%TD*%
M02*
