%TF.GenerationSoftware,KiCad,Pcbnew,5.1.10*%
%TF.CreationDate,2021-11-06T21:22:03+05:45*%
%TF.ProjectId,RobotHat,526f626f-7448-4617-942e-6b696361645f,rev?*%
%TF.SameCoordinates,Original*%
%TF.FileFunction,Copper,L2,Bot*%
%TF.FilePolarity,Positive*%
%FSLAX46Y46*%
G04 Gerber Fmt 4.6, Leading zero omitted, Abs format (unit mm)*
G04 Created by KiCad (PCBNEW 5.1.10) date 2021-11-06 21:22:03*
%MOMM*%
%LPD*%
G01*
G04 APERTURE LIST*
%TA.AperFunction,ComponentPad*%
%ADD10O,1.700000X1.700000*%
%TD*%
%TA.AperFunction,ComponentPad*%
%ADD11R,1.700000X1.700000*%
%TD*%
%TA.AperFunction,ComponentPad*%
%ADD12C,1.500000*%
%TD*%
%TA.AperFunction,ComponentPad*%
%ADD13C,2.000000*%
%TD*%
%TA.AperFunction,ComponentPad*%
%ADD14O,1.600000X1.600000*%
%TD*%
%TA.AperFunction,ComponentPad*%
%ADD15R,1.600000X1.600000*%
%TD*%
%TA.AperFunction,ComponentPad*%
%ADD16O,1.950000X1.700000*%
%TD*%
%TA.AperFunction,ComponentPad*%
%ADD17C,4.700000*%
%TD*%
%TA.AperFunction,ComponentPad*%
%ADD18O,2.000000X1.700000*%
%TD*%
%TA.AperFunction,ComponentPad*%
%ADD19O,1.700000X2.000000*%
%TD*%
%TA.AperFunction,ComponentPad*%
%ADD20O,1.700000X1.950000*%
%TD*%
%TA.AperFunction,ViaPad*%
%ADD21C,0.800000*%
%TD*%
%TA.AperFunction,Conductor*%
%ADD22C,0.250000*%
%TD*%
%TA.AperFunction,Conductor*%
%ADD23C,1.000000*%
%TD*%
%TA.AperFunction,Conductor*%
%ADD24C,0.254000*%
%TD*%
%TA.AperFunction,Conductor*%
%ADD25C,0.100000*%
%TD*%
G04 APERTURE END LIST*
D10*
%TO.P,J11,40*%
%TO.N,N/C*%
X106960000Y-44260000D03*
%TO.P,J11,39*%
%TO.N,GND*%
X106960000Y-46800000D03*
%TO.P,J11,38*%
%TO.N,N/C*%
X104420000Y-44260000D03*
%TO.P,J11,37*%
X104420000Y-46800000D03*
%TO.P,J11,36*%
X101880000Y-44260000D03*
%TO.P,J11,35*%
X101880000Y-46800000D03*
%TO.P,J11,34*%
%TO.N,GND*%
X99340000Y-44260000D03*
%TO.P,J11,33*%
%TO.N,N/C*%
X99340000Y-46800000D03*
%TO.P,J11,32*%
X96800000Y-44260000D03*
%TO.P,J11,31*%
X96800000Y-46800000D03*
%TO.P,J11,30*%
%TO.N,GND*%
X94260000Y-44260000D03*
%TO.P,J11,29*%
%TO.N,N/C*%
X94260000Y-46800000D03*
%TO.P,J11,28*%
X91720000Y-44260000D03*
%TO.P,J11,27*%
X91720000Y-46800000D03*
%TO.P,J11,26*%
X89180000Y-44260000D03*
%TO.P,J11,25*%
%TO.N,GND*%
X89180000Y-46800000D03*
%TO.P,J11,24*%
%TO.N,N/C*%
X86640000Y-44260000D03*
%TO.P,J11,23*%
X86640000Y-46800000D03*
%TO.P,J11,22*%
X84100000Y-44260000D03*
%TO.P,J11,21*%
X84100000Y-46800000D03*
%TO.P,J11,20*%
%TO.N,GND*%
X81560000Y-44260000D03*
%TO.P,J11,19*%
%TO.N,N/C*%
X81560000Y-46800000D03*
%TO.P,J11,18*%
X79020000Y-44260000D03*
%TO.P,J11,17*%
%TO.N,+3V3*%
X79020000Y-46800000D03*
%TO.P,J11,16*%
%TO.N,N/C*%
X76480000Y-44260000D03*
%TO.P,J11,15*%
X76480000Y-46800000D03*
%TO.P,J11,14*%
%TO.N,GND*%
X73940000Y-44260000D03*
%TO.P,J11,13*%
%TO.N,N/C*%
X73940000Y-46800000D03*
%TO.P,J11,12*%
X71400000Y-44260000D03*
%TO.P,J11,11*%
X71400000Y-46800000D03*
%TO.P,J11,10*%
X68860000Y-44260000D03*
%TO.P,J11,9*%
%TO.N,GND*%
X68860000Y-46800000D03*
%TO.P,J11,8*%
%TO.N,N/C*%
X66320000Y-44260000D03*
%TO.P,J11,7*%
X66320000Y-46800000D03*
%TO.P,J11,6*%
%TO.N,GND*%
X63780000Y-44260000D03*
%TO.P,J11,5*%
%TO.N,3v3_SCL*%
X63780000Y-46800000D03*
%TO.P,J11,4*%
%TO.N,+5V*%
X61240000Y-44260000D03*
%TO.P,J11,3*%
%TO.N,3v3_SDA*%
X61240000Y-46800000D03*
%TO.P,J11,2*%
%TO.N,+5V*%
X58700000Y-44260000D03*
D11*
%TO.P,J11,1*%
%TO.N,+3V3*%
X58700000Y-46800000D03*
%TD*%
D10*
%TO.P,J8,4*%
%TO.N,A3*%
X104800000Y-50780000D03*
%TO.P,J8,3*%
%TO.N,A2*%
X104800000Y-53320000D03*
%TO.P,J8,2*%
%TO.N,A1*%
X104800000Y-55860000D03*
D11*
%TO.P,J8,1*%
%TO.N,A0*%
X104800000Y-58400000D03*
%TD*%
D12*
%TO.P,Y1,2*%
%TO.N,XTAL1*%
X90406000Y-51818000D03*
%TO.P,Y1,1*%
%TO.N,XTAL2*%
X95286000Y-51818000D03*
%TD*%
D13*
%TO.P,U3,16*%
%TO.N,GND*%
X103680000Y-75060000D03*
%TO.P,U3,15*%
%TO.N,D10*%
X101140000Y-75060000D03*
%TO.P,U3,14*%
%TO.N,D9*%
X98600000Y-75060000D03*
%TO.P,U3,13*%
%TO.N,D8*%
X96060000Y-75060000D03*
%TO.P,U3,12*%
%TO.N,D4*%
X93520000Y-75060000D03*
%TO.P,U3,11*%
%TO.N,D7*%
X90980000Y-75060000D03*
%TO.P,U3,10*%
%TO.N,D6*%
X88440000Y-75060000D03*
%TO.P,U3,9*%
%TO.N,D5*%
X85900000Y-75060000D03*
%TO.P,U3,8*%
%TO.N,GND*%
X103680000Y-90300000D03*
%TO.P,U3,7*%
%TO.N,MOTORB1*%
X101140000Y-90300000D03*
%TO.P,U3,6*%
%TO.N,MOTORB2*%
X98600000Y-90300000D03*
%TO.P,U3,5*%
%TO.N,MOTORA2*%
X96060000Y-90300000D03*
%TO.P,U3,4*%
%TO.N,MOTORA1*%
X93520000Y-90300000D03*
%TO.P,U3,3*%
%TO.N,GND*%
X90980000Y-90300000D03*
%TO.P,U3,2*%
%TO.N,+5V*%
X88440000Y-90300000D03*
%TO.P,U3,1*%
%TO.N,+9VA*%
X85900000Y-90300000D03*
%TD*%
D14*
%TO.P,U1,28*%
%TO.N,SCL*%
X65314000Y-56262000D03*
%TO.P,U1,14*%
%TO.N,D8*%
X98334000Y-63882000D03*
%TO.P,U1,27*%
%TO.N,SDA*%
X67854000Y-56262000D03*
%TO.P,U1,13*%
%TO.N,D7*%
X95794000Y-63882000D03*
%TO.P,U1,26*%
%TO.N,A3*%
X70394000Y-56262000D03*
%TO.P,U1,12*%
%TO.N,D6*%
X93254000Y-63882000D03*
%TO.P,U1,25*%
%TO.N,A2*%
X72934000Y-56262000D03*
%TO.P,U1,11*%
%TO.N,D5*%
X90714000Y-63882000D03*
%TO.P,U1,24*%
%TO.N,A1*%
X75474000Y-56262000D03*
%TO.P,U1,10*%
%TO.N,XTAL2*%
X88174000Y-63882000D03*
%TO.P,U1,23*%
%TO.N,A0*%
X78014000Y-56262000D03*
%TO.P,U1,9*%
%TO.N,XTAL1*%
X85634000Y-63882000D03*
%TO.P,U1,22*%
%TO.N,GND*%
X80554000Y-56262000D03*
%TO.P,U1,8*%
X83094000Y-63882000D03*
%TO.P,U1,21*%
%TO.N,AREF*%
X83094000Y-56262000D03*
%TO.P,U1,7*%
%TO.N,+5V*%
X80554000Y-63882000D03*
%TO.P,U1,20*%
X85634000Y-56262000D03*
%TO.P,U1,6*%
%TO.N,D4*%
X78014000Y-63882000D03*
%TO.P,U1,19*%
%TO.N,SCK*%
X88174000Y-56262000D03*
%TO.P,U1,5*%
%TO.N,D3*%
X75474000Y-63882000D03*
%TO.P,U1,18*%
%TO.N,MISO*%
X90714000Y-56262000D03*
%TO.P,U1,4*%
%TO.N,D2*%
X72934000Y-63882000D03*
%TO.P,U1,17*%
%TO.N,MOSI*%
X93254000Y-56262000D03*
%TO.P,U1,3*%
%TO.N,TXO*%
X70394000Y-63882000D03*
%TO.P,U1,16*%
%TO.N,D10*%
X95794000Y-56262000D03*
%TO.P,U1,2*%
%TO.N,RXI*%
X67854000Y-63882000D03*
%TO.P,U1,15*%
%TO.N,D9*%
X98334000Y-56262000D03*
D15*
%TO.P,U1,1*%
%TO.N,RESET*%
X65314000Y-63882000D03*
%TD*%
%TO.P,J5,1*%
%TO.N,GND*%
%TA.AperFunction,ComponentPad*%
G36*
G01*
X111175000Y-74650000D02*
X112625000Y-74650000D01*
G75*
G02*
X112875000Y-74900000I0J-250000D01*
G01*
X112875000Y-76100000D01*
G75*
G02*
X112625000Y-76350000I-250000J0D01*
G01*
X111175000Y-76350000D01*
G75*
G02*
X110925000Y-76100000I0J250000D01*
G01*
X110925000Y-74900000D01*
G75*
G02*
X111175000Y-74650000I250000J0D01*
G01*
G37*
%TD.AperFunction*%
D16*
%TO.P,J5,2*%
%TO.N,+5V*%
X111900000Y-78000000D03*
%TO.P,J5,3*%
%TO.N,SDA*%
X111900000Y-80500000D03*
%TO.P,J5,4*%
%TO.N,SCL*%
X111900000Y-83000000D03*
%TD*%
D11*
%TO.P,J3,1*%
%TO.N,MISO*%
X106900000Y-67300000D03*
D10*
%TO.P,J3,2*%
%TO.N,+5V*%
X106900000Y-69840000D03*
%TO.P,J3,3*%
%TO.N,SCK*%
X104360000Y-67300000D03*
%TO.P,J3,4*%
%TO.N,MOSI*%
X104360000Y-69840000D03*
%TO.P,J3,5*%
%TO.N,RESET*%
X101820000Y-67300000D03*
%TO.P,J3,6*%
%TO.N,GND*%
X101820000Y-69840000D03*
%TD*%
%TO.P,J4,6*%
%TO.N,DTR*%
X60900000Y-50900000D03*
%TO.P,J4,5*%
%TO.N,TXO*%
X60900000Y-53440000D03*
%TO.P,J4,4*%
%TO.N,RXI*%
X60900000Y-55980000D03*
%TO.P,J4,3*%
%TO.N,+5V*%
X60900000Y-58520000D03*
%TO.P,J4,2*%
%TO.N,GND*%
X60900000Y-61060000D03*
D11*
%TO.P,J4,1*%
X60900000Y-63600000D03*
%TD*%
D17*
%TO.P,H6,1*%
%TO.N,N/C*%
X111800000Y-94500000D03*
%TD*%
%TO.P,H5,1*%
%TO.N,N/C*%
X53800000Y-94500000D03*
%TD*%
D18*
%TO.P,J2,2*%
%TO.N,+5V*%
X53800000Y-75400000D03*
%TO.P,J2,1*%
%TO.N,GND*%
%TA.AperFunction,ComponentPad*%
G36*
G01*
X54550000Y-78750000D02*
X53050000Y-78750000D01*
G75*
G02*
X52800000Y-78500000I0J250000D01*
G01*
X52800000Y-77300000D01*
G75*
G02*
X53050000Y-77050000I250000J0D01*
G01*
X54550000Y-77050000D01*
G75*
G02*
X54800000Y-77300000I0J-250000D01*
G01*
X54800000Y-78500000D01*
G75*
G02*
X54550000Y-78750000I-250000J0D01*
G01*
G37*
%TD.AperFunction*%
%TD*%
D17*
%TO.P,H4,1*%
%TO.N,N/C*%
X111800000Y-68500000D03*
%TD*%
%TO.P,H3,1*%
%TO.N,N/C*%
X111800000Y-45500000D03*
%TD*%
%TO.P,H2,1*%
%TO.N,N/C*%
X53800000Y-68500000D03*
%TD*%
%TO.P,H1,1*%
%TO.N,N/C*%
X53800000Y-45500000D03*
%TD*%
D19*
%TO.P,J10,2*%
%TO.N,MOTORB2*%
X108350000Y-101750000D03*
%TO.P,J10,1*%
%TO.N,MOTORB1*%
%TA.AperFunction,ComponentPad*%
G36*
G01*
X111700000Y-101000000D02*
X111700000Y-102500000D01*
G75*
G02*
X111450000Y-102750000I-250000J0D01*
G01*
X110250000Y-102750000D01*
G75*
G02*
X110000000Y-102500000I0J250000D01*
G01*
X110000000Y-101000000D01*
G75*
G02*
X110250000Y-100750000I250000J0D01*
G01*
X111450000Y-100750000D01*
G75*
G02*
X111700000Y-101000000I0J-250000D01*
G01*
G37*
%TD.AperFunction*%
%TD*%
%TO.P,J9,2*%
%TO.N,MOTORA1*%
X77700000Y-101750000D03*
%TO.P,J9,1*%
%TO.N,MOTORA2*%
%TA.AperFunction,ComponentPad*%
G36*
G01*
X81050000Y-101000000D02*
X81050000Y-102500000D01*
G75*
G02*
X80800000Y-102750000I-250000J0D01*
G01*
X79600000Y-102750000D01*
G75*
G02*
X79350000Y-102500000I0J250000D01*
G01*
X79350000Y-101000000D01*
G75*
G02*
X79600000Y-100750000I250000J0D01*
G01*
X80800000Y-100750000D01*
G75*
G02*
X81050000Y-101000000I0J-250000D01*
G01*
G37*
%TD.AperFunction*%
%TD*%
D20*
%TO.P,J7,3*%
%TO.N,D3*%
X97300000Y-101750000D03*
%TO.P,J7,2*%
%TO.N,+5V*%
X99800000Y-101750000D03*
%TO.P,J7,1*%
%TO.N,GND*%
%TA.AperFunction,ComponentPad*%
G36*
G01*
X103150000Y-101025000D02*
X103150000Y-102475000D01*
G75*
G02*
X102900000Y-102725000I-250000J0D01*
G01*
X101700000Y-102725000D01*
G75*
G02*
X101450000Y-102475000I0J250000D01*
G01*
X101450000Y-101025000D01*
G75*
G02*
X101700000Y-100775000I250000J0D01*
G01*
X102900000Y-100775000D01*
G75*
G02*
X103150000Y-101025000I0J-250000D01*
G01*
G37*
%TD.AperFunction*%
%TD*%
%TO.P,J6,3*%
%TO.N,D2*%
X86250000Y-101750000D03*
%TO.P,J6,2*%
%TO.N,+5V*%
X88750000Y-101750000D03*
%TO.P,J6,1*%
%TO.N,GND*%
%TA.AperFunction,ComponentPad*%
G36*
G01*
X92100000Y-101025000D02*
X92100000Y-102475000D01*
G75*
G02*
X91850000Y-102725000I-250000J0D01*
G01*
X90650000Y-102725000D01*
G75*
G02*
X90400000Y-102475000I0J250000D01*
G01*
X90400000Y-101025000D01*
G75*
G02*
X90650000Y-100775000I250000J0D01*
G01*
X91850000Y-100775000D01*
G75*
G02*
X92100000Y-101025000I0J-250000D01*
G01*
G37*
%TD.AperFunction*%
%TD*%
D19*
%TO.P,J1,2*%
%TO.N,+9V*%
X55200000Y-101700000D03*
%TO.P,J1,1*%
%TO.N,GND*%
%TA.AperFunction,ComponentPad*%
G36*
G01*
X58550000Y-100950000D02*
X58550000Y-102450000D01*
G75*
G02*
X58300000Y-102700000I-250000J0D01*
G01*
X57100000Y-102700000D01*
G75*
G02*
X56850000Y-102450000I0J250000D01*
G01*
X56850000Y-100950000D01*
G75*
G02*
X57100000Y-100700000I250000J0D01*
G01*
X58300000Y-100700000D01*
G75*
G02*
X58550000Y-100950000I0J-250000D01*
G01*
G37*
%TD.AperFunction*%
%TD*%
D21*
%TO.N,GND*%
X55100000Y-86350000D03*
X55100000Y-89750000D03*
X84200000Y-61100000D03*
X70600000Y-61100000D03*
X75600000Y-58800000D03*
X108400000Y-53400000D03*
X108400000Y-58400000D03*
X52500000Y-99200000D03*
X98100000Y-84600000D03*
X101300000Y-61500000D03*
X106600000Y-60900000D03*
%TO.N,RESET*%
X108700000Y-62900000D03*
%TO.N,+5V*%
X88440000Y-84529998D03*
X74650000Y-70849998D03*
X106900014Y-78000000D03*
%TO.N,+3V3*%
X67300000Y-48800000D03*
X70600000Y-48800000D03*
%TO.N,A3*%
X77000000Y-51500000D03*
%TO.N,A0*%
X87700000Y-54500000D03*
%TD*%
D22*
%TO.N,GND*%
X65144999Y-45624999D02*
X63780000Y-44260000D01*
X67684999Y-45624999D02*
X65144999Y-45624999D01*
X68860000Y-46800000D02*
X67684999Y-45624999D01*
X83094000Y-62206000D02*
X83094000Y-63882000D01*
X84200000Y-61100000D02*
X83094000Y-62206000D01*
X106000000Y-61500000D02*
X106600000Y-60900000D01*
X101300000Y-61500000D02*
X106000000Y-61500000D01*
%TO.N,XTAL1*%
X85634000Y-63882000D02*
X89444000Y-60072000D01*
X89444000Y-60072000D02*
X89444000Y-52780000D01*
X89444000Y-52780000D02*
X90406000Y-51818000D01*
%TO.N,RESET*%
X101820000Y-67300000D02*
X106220000Y-62900000D01*
X106220000Y-62900000D02*
X108700000Y-62900000D01*
%TO.N,XTAL2*%
X95286000Y-51818000D02*
X91984000Y-55120000D01*
X91984000Y-55120000D02*
X91984000Y-60072000D01*
X91984000Y-60072000D02*
X88174000Y-63882000D01*
D23*
%TO.N,+5V*%
X57497919Y-44260000D02*
X58700000Y-44260000D01*
X57050000Y-44707919D02*
X57497919Y-44260000D01*
X61240000Y-44260000D02*
X58700000Y-44260000D01*
X57050000Y-58400000D02*
X57050000Y-44707919D01*
X98400000Y-103650000D02*
X88750000Y-103650000D01*
X99750000Y-102300000D02*
X98400000Y-103650000D01*
X88750000Y-101750000D02*
X88750000Y-103650000D01*
X74650000Y-75350000D02*
X74650000Y-75350000D01*
X60780000Y-58400000D02*
X60900000Y-58520000D01*
X57050000Y-58400000D02*
X60780000Y-58400000D01*
X88750000Y-103650000D02*
X85450000Y-103650000D01*
X85450000Y-103650000D02*
X74650000Y-92850000D01*
X74650000Y-92850000D02*
X74650000Y-70849998D01*
X55893500Y-75400000D02*
X53800000Y-75400000D01*
X57050000Y-74243500D02*
X55893500Y-75400000D01*
X57249998Y-70849998D02*
X57050000Y-70650000D01*
X74650000Y-70849998D02*
X57249998Y-70849998D01*
X57050000Y-70650000D02*
X57050000Y-74243500D01*
X57050000Y-58400000D02*
X57050000Y-70650000D01*
X85634000Y-57066000D02*
X85634000Y-56262000D01*
X80554000Y-62146000D02*
X85634000Y-57066000D01*
X80554000Y-63882000D02*
X80554000Y-62146000D01*
X85400000Y-103600000D02*
X85450000Y-103650000D01*
X63700000Y-103600000D02*
X85400000Y-103600000D01*
X61300000Y-80900000D02*
X61300000Y-101200000D01*
X55800000Y-75400000D02*
X61300000Y-80900000D01*
X61300000Y-101200000D02*
X63700000Y-103600000D01*
X53800000Y-75400000D02*
X55800000Y-75400000D01*
X99800000Y-99775000D02*
X106900014Y-92674986D01*
X94969998Y-78000000D02*
X106900014Y-78000000D01*
X106900000Y-77999986D02*
X106900014Y-78000000D01*
X88440000Y-84529998D02*
X94969998Y-78000000D01*
X106900000Y-69840000D02*
X106900000Y-77999986D01*
X99800000Y-101750000D02*
X99800000Y-99775000D01*
X106900014Y-92674986D02*
X106900014Y-78000000D01*
D22*
%TO.N,+3V3*%
X60700000Y-48800000D02*
X58700000Y-46800000D01*
X67300000Y-48800000D02*
X60700000Y-48800000D01*
X70600000Y-48800000D02*
X67300000Y-48800000D01*
%TO.N,SCL*%
X73276000Y-48300000D02*
X65314000Y-56262000D01*
X111400000Y-48300000D02*
X73276000Y-48300000D01*
X114925010Y-51825010D02*
X111400000Y-48300000D01*
X114925010Y-79974990D02*
X114925010Y-51825010D01*
X111900000Y-83000000D02*
X114925010Y-79974990D01*
%TO.N,SDA*%
X109000000Y-77600000D02*
X111900000Y-80500000D01*
X112200000Y-63400000D02*
X109000000Y-66600000D01*
X109000000Y-66600000D02*
X109000000Y-77600000D01*
X112200000Y-51000000D02*
X112200000Y-63400000D01*
X110600000Y-49400000D02*
X112200000Y-51000000D01*
X74716000Y-49400000D02*
X110600000Y-49400000D01*
X67854000Y-56262000D02*
X74716000Y-49400000D01*
%TO.N,A3*%
X75156000Y-51500000D02*
X70394000Y-56262000D01*
X77000000Y-51500000D02*
X75156000Y-51500000D01*
%TO.N,A2*%
X73311002Y-56262000D02*
X72934000Y-56262000D01*
X79573002Y-50000000D02*
X73311002Y-56262000D01*
X101480000Y-50000000D02*
X79573002Y-50000000D01*
X104800000Y-53320000D02*
X101480000Y-50000000D01*
%TO.N,A1*%
X99682999Y-50742999D02*
X80993001Y-50742999D01*
X80993001Y-50742999D02*
X75474000Y-56262000D01*
X104800000Y-55860000D02*
X99682999Y-50742999D01*
%TO.N,A0*%
X79776000Y-54500000D02*
X78014000Y-56262000D01*
X87700000Y-54500000D02*
X79776000Y-54500000D01*
%TO.N,D2*%
X72934000Y-65134000D02*
X72934000Y-63882000D01*
X82100000Y-74300000D02*
X72934000Y-65134000D01*
X82100000Y-97600000D02*
X82100000Y-74300000D01*
X86250000Y-101750000D02*
X82100000Y-97600000D01*
%TO.N,D3*%
X84100000Y-73600000D02*
X75474000Y-64974000D01*
X75474000Y-64974000D02*
X75474000Y-63882000D01*
X84100000Y-95200000D02*
X84100000Y-73600000D01*
X88000000Y-99100000D02*
X84100000Y-95200000D01*
X94650000Y-99100000D02*
X88000000Y-99100000D01*
X97300000Y-101750000D02*
X94650000Y-99100000D01*
%TO.N,D10*%
X97047999Y-70967999D02*
X101140000Y-75060000D01*
X97047999Y-57515999D02*
X97047999Y-70967999D01*
X95794000Y-56262000D02*
X97047999Y-57515999D01*
%TO.N,D9*%
X94524000Y-70984000D02*
X98600000Y-75060000D01*
X94524000Y-55577000D02*
X94524000Y-70984000D01*
X95363000Y-54738000D02*
X94524000Y-55577000D01*
X96810000Y-54738000D02*
X95363000Y-54738000D01*
X98334000Y-56262000D02*
X96810000Y-54738000D01*
%TO.N,D4*%
X79932000Y-65800000D02*
X78014000Y-63882000D01*
X92800000Y-65800000D02*
X79932000Y-65800000D01*
X93520000Y-66520000D02*
X92800000Y-65800000D01*
X93520000Y-75060000D02*
X93520000Y-66520000D01*
%TD*%
D24*
%TO.N,GND*%
X51154727Y-69913928D02*
X51481399Y-70402826D01*
X51897174Y-70818601D01*
X52386072Y-71145273D01*
X52929308Y-71370288D01*
X53506003Y-71485000D01*
X54093997Y-71485000D01*
X54670692Y-71370288D01*
X55213928Y-71145273D01*
X55702826Y-70818601D01*
X55913669Y-70607758D01*
X55909509Y-70650000D01*
X55915000Y-70705752D01*
X55915001Y-73773367D01*
X55423369Y-74265000D01*
X54907817Y-74265000D01*
X54779014Y-74159294D01*
X54521034Y-74021401D01*
X54241111Y-73936487D01*
X54022950Y-73915000D01*
X53577050Y-73915000D01*
X53358889Y-73936487D01*
X53078966Y-74021401D01*
X52820986Y-74159294D01*
X52594866Y-74344866D01*
X52409294Y-74570986D01*
X52271401Y-74828966D01*
X52186487Y-75108889D01*
X52157815Y-75400000D01*
X52186487Y-75691111D01*
X52271401Y-75971034D01*
X52409294Y-76229014D01*
X52594866Y-76455134D01*
X52820986Y-76640706D01*
X53078966Y-76778599D01*
X53358889Y-76863513D01*
X53577050Y-76885000D01*
X54022950Y-76885000D01*
X54241111Y-76863513D01*
X54521034Y-76778599D01*
X54779014Y-76640706D01*
X54907817Y-76535000D01*
X55329869Y-76535000D01*
X60165000Y-81370133D01*
X60165001Y-101144238D01*
X60159509Y-101200000D01*
X60181423Y-101422498D01*
X60246324Y-101636446D01*
X60285919Y-101710522D01*
X60351717Y-101833623D01*
X60493552Y-102006449D01*
X60536860Y-102041991D01*
X62858013Y-104363146D01*
X62893551Y-104406449D01*
X62936854Y-104441987D01*
X62936856Y-104441989D01*
X63066377Y-104548284D01*
X63263553Y-104653676D01*
X63477501Y-104718577D01*
X63700000Y-104740491D01*
X63755752Y-104735000D01*
X85116813Y-104735000D01*
X85227501Y-104768577D01*
X85394248Y-104785000D01*
X85394249Y-104785000D01*
X85450000Y-104790491D01*
X85505752Y-104785000D01*
X88694249Y-104785000D01*
X88750000Y-104790491D01*
X88805752Y-104785000D01*
X98344249Y-104785000D01*
X98400000Y-104790491D01*
X98455751Y-104785000D01*
X98455752Y-104785000D01*
X98622499Y-104768577D01*
X98836447Y-104703676D01*
X99033623Y-104598284D01*
X99206449Y-104456449D01*
X99241996Y-104413135D01*
X100436555Y-103218577D01*
X100629013Y-103115706D01*
X100855134Y-102930134D01*
X101040706Y-102704014D01*
X101178599Y-102446034D01*
X101263513Y-102166111D01*
X101285000Y-101947950D01*
X101285000Y-101552051D01*
X101282538Y-101527050D01*
X106865000Y-101527050D01*
X106865000Y-101972949D01*
X106886487Y-102191110D01*
X106971401Y-102471033D01*
X107109294Y-102729013D01*
X107294866Y-102955134D01*
X107520986Y-103140706D01*
X107778966Y-103278599D01*
X108058889Y-103363513D01*
X108350000Y-103392185D01*
X108641110Y-103363513D01*
X108921033Y-103278599D01*
X109179013Y-103140706D01*
X109405134Y-102955134D01*
X109457223Y-102891663D01*
X109511595Y-102993386D01*
X109622038Y-103127962D01*
X109756614Y-103238405D01*
X109910150Y-103320472D01*
X110076746Y-103371008D01*
X110250000Y-103388072D01*
X111450000Y-103388072D01*
X111623254Y-103371008D01*
X111789850Y-103320472D01*
X111943386Y-103238405D01*
X112077962Y-103127962D01*
X112188405Y-102993386D01*
X112270472Y-102839850D01*
X112321008Y-102673254D01*
X112338072Y-102500000D01*
X112338072Y-101000000D01*
X112321008Y-100826746D01*
X112270472Y-100660150D01*
X112188405Y-100506614D01*
X112077962Y-100372038D01*
X111943386Y-100261595D01*
X111789850Y-100179528D01*
X111623254Y-100128992D01*
X111450000Y-100111928D01*
X110250000Y-100111928D01*
X110076746Y-100128992D01*
X109910150Y-100179528D01*
X109756614Y-100261595D01*
X109622038Y-100372038D01*
X109511595Y-100506614D01*
X109457223Y-100608337D01*
X109405134Y-100544866D01*
X109179014Y-100359294D01*
X108921034Y-100221401D01*
X108641111Y-100136487D01*
X108350000Y-100107815D01*
X108058890Y-100136487D01*
X107778967Y-100221401D01*
X107520987Y-100359294D01*
X107294866Y-100544866D01*
X107109294Y-100770986D01*
X106971401Y-101028966D01*
X106886487Y-101308889D01*
X106865000Y-101527050D01*
X101282538Y-101527050D01*
X101263513Y-101333890D01*
X101178599Y-101053967D01*
X101040706Y-100795986D01*
X100935000Y-100667183D01*
X100935000Y-100245131D01*
X107663155Y-93516977D01*
X107706463Y-93481435D01*
X107848298Y-93308609D01*
X107953690Y-93111433D01*
X108018591Y-92897485D01*
X108035014Y-92730738D01*
X108035014Y-92730737D01*
X108040505Y-92674987D01*
X108035014Y-92619235D01*
X108035014Y-78055752D01*
X108040505Y-78000000D01*
X108035000Y-77944106D01*
X108035000Y-70805107D01*
X108053475Y-70786632D01*
X108215990Y-70543411D01*
X108240000Y-70485445D01*
X108240001Y-77562668D01*
X108236324Y-77600000D01*
X108250998Y-77748985D01*
X108294454Y-77892246D01*
X108365026Y-78024276D01*
X108428763Y-78101939D01*
X108460000Y-78140001D01*
X108488998Y-78163799D01*
X110363296Y-80038098D01*
X110311487Y-80208889D01*
X110282815Y-80500000D01*
X110311487Y-80791111D01*
X110396401Y-81071034D01*
X110534294Y-81329014D01*
X110719866Y-81555134D01*
X110945986Y-81740706D01*
X110963374Y-81750000D01*
X110945986Y-81759294D01*
X110719866Y-81944866D01*
X110534294Y-82170986D01*
X110396401Y-82428966D01*
X110311487Y-82708889D01*
X110282815Y-83000000D01*
X110311487Y-83291111D01*
X110396401Y-83571034D01*
X110534294Y-83829014D01*
X110719866Y-84055134D01*
X110945986Y-84240706D01*
X111203966Y-84378599D01*
X111483889Y-84463513D01*
X111702050Y-84485000D01*
X112097950Y-84485000D01*
X112316111Y-84463513D01*
X112596034Y-84378599D01*
X112854014Y-84240706D01*
X113080134Y-84055134D01*
X113265706Y-83829014D01*
X113403599Y-83571034D01*
X113488513Y-83291111D01*
X113517185Y-83000000D01*
X113488513Y-82708889D01*
X113436704Y-82538098D01*
X114640000Y-81334801D01*
X114640001Y-93556188D01*
X114445273Y-93086072D01*
X114118601Y-92597174D01*
X113702826Y-92181399D01*
X113213928Y-91854727D01*
X112670692Y-91629712D01*
X112093997Y-91515000D01*
X111506003Y-91515000D01*
X110929308Y-91629712D01*
X110386072Y-91854727D01*
X109897174Y-92181399D01*
X109481399Y-92597174D01*
X109154727Y-93086072D01*
X108929712Y-93629308D01*
X108815000Y-94206003D01*
X108815000Y-94793997D01*
X108929712Y-95370692D01*
X109154727Y-95913928D01*
X109481399Y-96402826D01*
X109897174Y-96818601D01*
X110386072Y-97145273D01*
X110929308Y-97370288D01*
X111506003Y-97485000D01*
X112093997Y-97485000D01*
X112670692Y-97370288D01*
X113213928Y-97145273D01*
X113702826Y-96818601D01*
X114118601Y-96402826D01*
X114445273Y-95913928D01*
X114640001Y-95443812D01*
X114640001Y-101967711D01*
X114582808Y-102551010D01*
X114422783Y-103081036D01*
X114162860Y-103569880D01*
X113812935Y-103998931D01*
X113386335Y-104351845D01*
X112899320Y-104615173D01*
X112370422Y-104778894D01*
X111789040Y-104840000D01*
X53832279Y-104840000D01*
X53248990Y-104782808D01*
X52718964Y-104622783D01*
X52230120Y-104362860D01*
X51801069Y-104012935D01*
X51448155Y-103586335D01*
X51184827Y-103099320D01*
X51021106Y-102570422D01*
X50960000Y-101989040D01*
X50960000Y-101477050D01*
X53715000Y-101477050D01*
X53715000Y-101922949D01*
X53736487Y-102141110D01*
X53821401Y-102421033D01*
X53959294Y-102679013D01*
X54144866Y-102905134D01*
X54370986Y-103090706D01*
X54628966Y-103228599D01*
X54908889Y-103313513D01*
X55200000Y-103342185D01*
X55491110Y-103313513D01*
X55771033Y-103228599D01*
X56029013Y-103090706D01*
X56255134Y-102905134D01*
X56440706Y-102679014D01*
X56578599Y-102421034D01*
X56663513Y-102141111D01*
X56685000Y-101922950D01*
X56685000Y-101477051D01*
X56663513Y-101258890D01*
X56578599Y-100978967D01*
X56440706Y-100720986D01*
X56255134Y-100494866D01*
X56029014Y-100309294D01*
X55771034Y-100171401D01*
X55491111Y-100086487D01*
X55200000Y-100057815D01*
X54908890Y-100086487D01*
X54628967Y-100171401D01*
X54370987Y-100309294D01*
X54144866Y-100494866D01*
X53959294Y-100720986D01*
X53821401Y-100978966D01*
X53736487Y-101258889D01*
X53715000Y-101477050D01*
X50960000Y-101477050D01*
X50960000Y-95443814D01*
X51154727Y-95913928D01*
X51481399Y-96402826D01*
X51897174Y-96818601D01*
X52386072Y-97145273D01*
X52929308Y-97370288D01*
X53506003Y-97485000D01*
X54093997Y-97485000D01*
X54670692Y-97370288D01*
X55213928Y-97145273D01*
X55702826Y-96818601D01*
X56118601Y-96402826D01*
X56445273Y-95913928D01*
X56670288Y-95370692D01*
X56785000Y-94793997D01*
X56785000Y-94206003D01*
X56670288Y-93629308D01*
X56445273Y-93086072D01*
X56118601Y-92597174D01*
X55702826Y-92181399D01*
X55213928Y-91854727D01*
X54670692Y-91629712D01*
X54093997Y-91515000D01*
X53506003Y-91515000D01*
X52929308Y-91629712D01*
X52386072Y-91854727D01*
X51897174Y-92181399D01*
X51481399Y-92597174D01*
X51154727Y-93086072D01*
X50960000Y-93556186D01*
X50960000Y-69443814D01*
X51154727Y-69913928D01*
%TA.AperFunction,Conductor*%
D25*
G36*
X51154727Y-69913928D02*
G01*
X51481399Y-70402826D01*
X51897174Y-70818601D01*
X52386072Y-71145273D01*
X52929308Y-71370288D01*
X53506003Y-71485000D01*
X54093997Y-71485000D01*
X54670692Y-71370288D01*
X55213928Y-71145273D01*
X55702826Y-70818601D01*
X55913669Y-70607758D01*
X55909509Y-70650000D01*
X55915000Y-70705752D01*
X55915001Y-73773367D01*
X55423369Y-74265000D01*
X54907817Y-74265000D01*
X54779014Y-74159294D01*
X54521034Y-74021401D01*
X54241111Y-73936487D01*
X54022950Y-73915000D01*
X53577050Y-73915000D01*
X53358889Y-73936487D01*
X53078966Y-74021401D01*
X52820986Y-74159294D01*
X52594866Y-74344866D01*
X52409294Y-74570986D01*
X52271401Y-74828966D01*
X52186487Y-75108889D01*
X52157815Y-75400000D01*
X52186487Y-75691111D01*
X52271401Y-75971034D01*
X52409294Y-76229014D01*
X52594866Y-76455134D01*
X52820986Y-76640706D01*
X53078966Y-76778599D01*
X53358889Y-76863513D01*
X53577050Y-76885000D01*
X54022950Y-76885000D01*
X54241111Y-76863513D01*
X54521034Y-76778599D01*
X54779014Y-76640706D01*
X54907817Y-76535000D01*
X55329869Y-76535000D01*
X60165000Y-81370133D01*
X60165001Y-101144238D01*
X60159509Y-101200000D01*
X60181423Y-101422498D01*
X60246324Y-101636446D01*
X60285919Y-101710522D01*
X60351717Y-101833623D01*
X60493552Y-102006449D01*
X60536860Y-102041991D01*
X62858013Y-104363146D01*
X62893551Y-104406449D01*
X62936854Y-104441987D01*
X62936856Y-104441989D01*
X63066377Y-104548284D01*
X63263553Y-104653676D01*
X63477501Y-104718577D01*
X63700000Y-104740491D01*
X63755752Y-104735000D01*
X85116813Y-104735000D01*
X85227501Y-104768577D01*
X85394248Y-104785000D01*
X85394249Y-104785000D01*
X85450000Y-104790491D01*
X85505752Y-104785000D01*
X88694249Y-104785000D01*
X88750000Y-104790491D01*
X88805752Y-104785000D01*
X98344249Y-104785000D01*
X98400000Y-104790491D01*
X98455751Y-104785000D01*
X98455752Y-104785000D01*
X98622499Y-104768577D01*
X98836447Y-104703676D01*
X99033623Y-104598284D01*
X99206449Y-104456449D01*
X99241996Y-104413135D01*
X100436555Y-103218577D01*
X100629013Y-103115706D01*
X100855134Y-102930134D01*
X101040706Y-102704014D01*
X101178599Y-102446034D01*
X101263513Y-102166111D01*
X101285000Y-101947950D01*
X101285000Y-101552051D01*
X101282538Y-101527050D01*
X106865000Y-101527050D01*
X106865000Y-101972949D01*
X106886487Y-102191110D01*
X106971401Y-102471033D01*
X107109294Y-102729013D01*
X107294866Y-102955134D01*
X107520986Y-103140706D01*
X107778966Y-103278599D01*
X108058889Y-103363513D01*
X108350000Y-103392185D01*
X108641110Y-103363513D01*
X108921033Y-103278599D01*
X109179013Y-103140706D01*
X109405134Y-102955134D01*
X109457223Y-102891663D01*
X109511595Y-102993386D01*
X109622038Y-103127962D01*
X109756614Y-103238405D01*
X109910150Y-103320472D01*
X110076746Y-103371008D01*
X110250000Y-103388072D01*
X111450000Y-103388072D01*
X111623254Y-103371008D01*
X111789850Y-103320472D01*
X111943386Y-103238405D01*
X112077962Y-103127962D01*
X112188405Y-102993386D01*
X112270472Y-102839850D01*
X112321008Y-102673254D01*
X112338072Y-102500000D01*
X112338072Y-101000000D01*
X112321008Y-100826746D01*
X112270472Y-100660150D01*
X112188405Y-100506614D01*
X112077962Y-100372038D01*
X111943386Y-100261595D01*
X111789850Y-100179528D01*
X111623254Y-100128992D01*
X111450000Y-100111928D01*
X110250000Y-100111928D01*
X110076746Y-100128992D01*
X109910150Y-100179528D01*
X109756614Y-100261595D01*
X109622038Y-100372038D01*
X109511595Y-100506614D01*
X109457223Y-100608337D01*
X109405134Y-100544866D01*
X109179014Y-100359294D01*
X108921034Y-100221401D01*
X108641111Y-100136487D01*
X108350000Y-100107815D01*
X108058890Y-100136487D01*
X107778967Y-100221401D01*
X107520987Y-100359294D01*
X107294866Y-100544866D01*
X107109294Y-100770986D01*
X106971401Y-101028966D01*
X106886487Y-101308889D01*
X106865000Y-101527050D01*
X101282538Y-101527050D01*
X101263513Y-101333890D01*
X101178599Y-101053967D01*
X101040706Y-100795986D01*
X100935000Y-100667183D01*
X100935000Y-100245131D01*
X107663155Y-93516977D01*
X107706463Y-93481435D01*
X107848298Y-93308609D01*
X107953690Y-93111433D01*
X108018591Y-92897485D01*
X108035014Y-92730738D01*
X108035014Y-92730737D01*
X108040505Y-92674987D01*
X108035014Y-92619235D01*
X108035014Y-78055752D01*
X108040505Y-78000000D01*
X108035000Y-77944106D01*
X108035000Y-70805107D01*
X108053475Y-70786632D01*
X108215990Y-70543411D01*
X108240000Y-70485445D01*
X108240001Y-77562668D01*
X108236324Y-77600000D01*
X108250998Y-77748985D01*
X108294454Y-77892246D01*
X108365026Y-78024276D01*
X108428763Y-78101939D01*
X108460000Y-78140001D01*
X108488998Y-78163799D01*
X110363296Y-80038098D01*
X110311487Y-80208889D01*
X110282815Y-80500000D01*
X110311487Y-80791111D01*
X110396401Y-81071034D01*
X110534294Y-81329014D01*
X110719866Y-81555134D01*
X110945986Y-81740706D01*
X110963374Y-81750000D01*
X110945986Y-81759294D01*
X110719866Y-81944866D01*
X110534294Y-82170986D01*
X110396401Y-82428966D01*
X110311487Y-82708889D01*
X110282815Y-83000000D01*
X110311487Y-83291111D01*
X110396401Y-83571034D01*
X110534294Y-83829014D01*
X110719866Y-84055134D01*
X110945986Y-84240706D01*
X111203966Y-84378599D01*
X111483889Y-84463513D01*
X111702050Y-84485000D01*
X112097950Y-84485000D01*
X112316111Y-84463513D01*
X112596034Y-84378599D01*
X112854014Y-84240706D01*
X113080134Y-84055134D01*
X113265706Y-83829014D01*
X113403599Y-83571034D01*
X113488513Y-83291111D01*
X113517185Y-83000000D01*
X113488513Y-82708889D01*
X113436704Y-82538098D01*
X114640000Y-81334801D01*
X114640001Y-93556188D01*
X114445273Y-93086072D01*
X114118601Y-92597174D01*
X113702826Y-92181399D01*
X113213928Y-91854727D01*
X112670692Y-91629712D01*
X112093997Y-91515000D01*
X111506003Y-91515000D01*
X110929308Y-91629712D01*
X110386072Y-91854727D01*
X109897174Y-92181399D01*
X109481399Y-92597174D01*
X109154727Y-93086072D01*
X108929712Y-93629308D01*
X108815000Y-94206003D01*
X108815000Y-94793997D01*
X108929712Y-95370692D01*
X109154727Y-95913928D01*
X109481399Y-96402826D01*
X109897174Y-96818601D01*
X110386072Y-97145273D01*
X110929308Y-97370288D01*
X111506003Y-97485000D01*
X112093997Y-97485000D01*
X112670692Y-97370288D01*
X113213928Y-97145273D01*
X113702826Y-96818601D01*
X114118601Y-96402826D01*
X114445273Y-95913928D01*
X114640001Y-95443812D01*
X114640001Y-101967711D01*
X114582808Y-102551010D01*
X114422783Y-103081036D01*
X114162860Y-103569880D01*
X113812935Y-103998931D01*
X113386335Y-104351845D01*
X112899320Y-104615173D01*
X112370422Y-104778894D01*
X111789040Y-104840000D01*
X53832279Y-104840000D01*
X53248990Y-104782808D01*
X52718964Y-104622783D01*
X52230120Y-104362860D01*
X51801069Y-104012935D01*
X51448155Y-103586335D01*
X51184827Y-103099320D01*
X51021106Y-102570422D01*
X50960000Y-101989040D01*
X50960000Y-101477050D01*
X53715000Y-101477050D01*
X53715000Y-101922949D01*
X53736487Y-102141110D01*
X53821401Y-102421033D01*
X53959294Y-102679013D01*
X54144866Y-102905134D01*
X54370986Y-103090706D01*
X54628966Y-103228599D01*
X54908889Y-103313513D01*
X55200000Y-103342185D01*
X55491110Y-103313513D01*
X55771033Y-103228599D01*
X56029013Y-103090706D01*
X56255134Y-102905134D01*
X56440706Y-102679014D01*
X56578599Y-102421034D01*
X56663513Y-102141111D01*
X56685000Y-101922950D01*
X56685000Y-101477051D01*
X56663513Y-101258890D01*
X56578599Y-100978967D01*
X56440706Y-100720986D01*
X56255134Y-100494866D01*
X56029014Y-100309294D01*
X55771034Y-100171401D01*
X55491111Y-100086487D01*
X55200000Y-100057815D01*
X54908890Y-100086487D01*
X54628967Y-100171401D01*
X54370987Y-100309294D01*
X54144866Y-100494866D01*
X53959294Y-100720986D01*
X53821401Y-100978966D01*
X53736487Y-101258889D01*
X53715000Y-101477050D01*
X50960000Y-101477050D01*
X50960000Y-95443814D01*
X51154727Y-95913928D01*
X51481399Y-96402826D01*
X51897174Y-96818601D01*
X52386072Y-97145273D01*
X52929308Y-97370288D01*
X53506003Y-97485000D01*
X54093997Y-97485000D01*
X54670692Y-97370288D01*
X55213928Y-97145273D01*
X55702826Y-96818601D01*
X56118601Y-96402826D01*
X56445273Y-95913928D01*
X56670288Y-95370692D01*
X56785000Y-94793997D01*
X56785000Y-94206003D01*
X56670288Y-93629308D01*
X56445273Y-93086072D01*
X56118601Y-92597174D01*
X55702826Y-92181399D01*
X55213928Y-91854727D01*
X54670692Y-91629712D01*
X54093997Y-91515000D01*
X53506003Y-91515000D01*
X52929308Y-91629712D01*
X52386072Y-91854727D01*
X51897174Y-92181399D01*
X51481399Y-92597174D01*
X51154727Y-93086072D01*
X50960000Y-93556186D01*
X50960000Y-69443814D01*
X51154727Y-69913928D01*
G37*
%TD.AperFunction*%
D24*
X74359363Y-64796759D02*
X74559241Y-64996637D01*
X74723353Y-65106293D01*
X74724997Y-65122985D01*
X74752162Y-65212537D01*
X74768454Y-65266246D01*
X74839026Y-65398276D01*
X74878871Y-65446826D01*
X74933999Y-65514001D01*
X74963003Y-65537804D01*
X83340001Y-73914803D01*
X83340000Y-95162678D01*
X83336324Y-95200000D01*
X83340000Y-95237322D01*
X83340000Y-95237332D01*
X83350997Y-95348985D01*
X83357582Y-95370692D01*
X83394454Y-95492246D01*
X83465026Y-95624276D01*
X83504871Y-95672826D01*
X83559999Y-95740001D01*
X83589003Y-95763804D01*
X87436200Y-99611002D01*
X87459999Y-99640001D01*
X87488997Y-99663799D01*
X87575723Y-99734974D01*
X87650606Y-99775000D01*
X87707753Y-99805546D01*
X87851014Y-99849003D01*
X87962667Y-99860000D01*
X87962677Y-99860000D01*
X88000000Y-99863676D01*
X88037323Y-99860000D01*
X94335199Y-99860000D01*
X95834030Y-101358832D01*
X95815000Y-101552050D01*
X95815000Y-101947949D01*
X95836487Y-102166110D01*
X95921401Y-102446033D01*
X95958265Y-102515000D01*
X90091736Y-102515000D01*
X90128599Y-102446034D01*
X90213513Y-102166111D01*
X90235000Y-101947950D01*
X90235000Y-101552051D01*
X90213513Y-101333890D01*
X90128599Y-101053967D01*
X89990706Y-100795986D01*
X89805134Y-100569866D01*
X89579014Y-100384294D01*
X89321034Y-100246401D01*
X89041111Y-100161487D01*
X88750000Y-100132815D01*
X88458890Y-100161487D01*
X88178967Y-100246401D01*
X87920987Y-100384294D01*
X87694866Y-100569866D01*
X87509294Y-100795986D01*
X87500000Y-100813374D01*
X87490706Y-100795986D01*
X87305134Y-100569866D01*
X87079014Y-100384294D01*
X86821034Y-100246401D01*
X86541111Y-100161487D01*
X86250000Y-100132815D01*
X85958890Y-100161487D01*
X85788098Y-100213296D01*
X82860000Y-97285199D01*
X82860000Y-74337333D01*
X82863677Y-74300000D01*
X82849003Y-74151014D01*
X82805546Y-74007753D01*
X82734974Y-73875724D01*
X82663799Y-73788997D01*
X82640001Y-73759999D01*
X82611003Y-73736201D01*
X73860099Y-64985297D01*
X74048637Y-64796759D01*
X74204000Y-64564241D01*
X74359363Y-64796759D01*
%TA.AperFunction,Conductor*%
D25*
G36*
X74359363Y-64796759D02*
G01*
X74559241Y-64996637D01*
X74723353Y-65106293D01*
X74724997Y-65122985D01*
X74752162Y-65212537D01*
X74768454Y-65266246D01*
X74839026Y-65398276D01*
X74878871Y-65446826D01*
X74933999Y-65514001D01*
X74963003Y-65537804D01*
X83340001Y-73914803D01*
X83340000Y-95162678D01*
X83336324Y-95200000D01*
X83340000Y-95237322D01*
X83340000Y-95237332D01*
X83350997Y-95348985D01*
X83357582Y-95370692D01*
X83394454Y-95492246D01*
X83465026Y-95624276D01*
X83504871Y-95672826D01*
X83559999Y-95740001D01*
X83589003Y-95763804D01*
X87436200Y-99611002D01*
X87459999Y-99640001D01*
X87488997Y-99663799D01*
X87575723Y-99734974D01*
X87650606Y-99775000D01*
X87707753Y-99805546D01*
X87851014Y-99849003D01*
X87962667Y-99860000D01*
X87962677Y-99860000D01*
X88000000Y-99863676D01*
X88037323Y-99860000D01*
X94335199Y-99860000D01*
X95834030Y-101358832D01*
X95815000Y-101552050D01*
X95815000Y-101947949D01*
X95836487Y-102166110D01*
X95921401Y-102446033D01*
X95958265Y-102515000D01*
X90091736Y-102515000D01*
X90128599Y-102446034D01*
X90213513Y-102166111D01*
X90235000Y-101947950D01*
X90235000Y-101552051D01*
X90213513Y-101333890D01*
X90128599Y-101053967D01*
X89990706Y-100795986D01*
X89805134Y-100569866D01*
X89579014Y-100384294D01*
X89321034Y-100246401D01*
X89041111Y-100161487D01*
X88750000Y-100132815D01*
X88458890Y-100161487D01*
X88178967Y-100246401D01*
X87920987Y-100384294D01*
X87694866Y-100569866D01*
X87509294Y-100795986D01*
X87500000Y-100813374D01*
X87490706Y-100795986D01*
X87305134Y-100569866D01*
X87079014Y-100384294D01*
X86821034Y-100246401D01*
X86541111Y-100161487D01*
X86250000Y-100132815D01*
X85958890Y-100161487D01*
X85788098Y-100213296D01*
X82860000Y-97285199D01*
X82860000Y-74337333D01*
X82863677Y-74300000D01*
X82849003Y-74151014D01*
X82805546Y-74007753D01*
X82734974Y-73875724D01*
X82663799Y-73788997D01*
X82640001Y-73759999D01*
X82611003Y-73736201D01*
X73860099Y-64985297D01*
X74048637Y-64796759D01*
X74204000Y-64564241D01*
X74359363Y-64796759D01*
G37*
%TD.AperFunction*%
D24*
X66640226Y-49603937D02*
X66809744Y-49717205D01*
X66998102Y-49795226D01*
X67198061Y-49835000D01*
X67401939Y-49835000D01*
X67601898Y-49795226D01*
X67790256Y-49717205D01*
X67959774Y-49603937D01*
X68003711Y-49560000D01*
X69896289Y-49560000D01*
X69940226Y-49603937D01*
X70109744Y-49717205D01*
X70298102Y-49795226D01*
X70498061Y-49835000D01*
X70666198Y-49835000D01*
X65637887Y-54863312D01*
X65455335Y-54827000D01*
X65172665Y-54827000D01*
X64895426Y-54882147D01*
X64634273Y-54990320D01*
X64399241Y-55147363D01*
X64199363Y-55347241D01*
X64042320Y-55582273D01*
X63934147Y-55843426D01*
X63879000Y-56120665D01*
X63879000Y-56403335D01*
X63934147Y-56680574D01*
X64042320Y-56941727D01*
X64199363Y-57176759D01*
X64399241Y-57376637D01*
X64634273Y-57533680D01*
X64895426Y-57641853D01*
X65172665Y-57697000D01*
X65455335Y-57697000D01*
X65732574Y-57641853D01*
X65993727Y-57533680D01*
X66228759Y-57376637D01*
X66428637Y-57176759D01*
X66584000Y-56944241D01*
X66739363Y-57176759D01*
X66939241Y-57376637D01*
X67174273Y-57533680D01*
X67435426Y-57641853D01*
X67712665Y-57697000D01*
X67995335Y-57697000D01*
X68272574Y-57641853D01*
X68533727Y-57533680D01*
X68768759Y-57376637D01*
X68968637Y-57176759D01*
X69124000Y-56944241D01*
X69279363Y-57176759D01*
X69479241Y-57376637D01*
X69714273Y-57533680D01*
X69975426Y-57641853D01*
X70252665Y-57697000D01*
X70535335Y-57697000D01*
X70812574Y-57641853D01*
X71073727Y-57533680D01*
X71308759Y-57376637D01*
X71508637Y-57176759D01*
X71664000Y-56944241D01*
X71819363Y-57176759D01*
X72019241Y-57376637D01*
X72254273Y-57533680D01*
X72515426Y-57641853D01*
X72792665Y-57697000D01*
X73075335Y-57697000D01*
X73352574Y-57641853D01*
X73613727Y-57533680D01*
X73848759Y-57376637D01*
X74048637Y-57176759D01*
X74204000Y-56944241D01*
X74359363Y-57176759D01*
X74559241Y-57376637D01*
X74794273Y-57533680D01*
X75055426Y-57641853D01*
X75332665Y-57697000D01*
X75615335Y-57697000D01*
X75892574Y-57641853D01*
X76153727Y-57533680D01*
X76388759Y-57376637D01*
X76588637Y-57176759D01*
X76744000Y-56944241D01*
X76899363Y-57176759D01*
X77099241Y-57376637D01*
X77334273Y-57533680D01*
X77595426Y-57641853D01*
X77872665Y-57697000D01*
X78155335Y-57697000D01*
X78432574Y-57641853D01*
X78693727Y-57533680D01*
X78928759Y-57376637D01*
X79128637Y-57176759D01*
X79285680Y-56941727D01*
X79393853Y-56680574D01*
X79449000Y-56403335D01*
X79449000Y-56120665D01*
X79412688Y-55938114D01*
X80090802Y-55260000D01*
X82066604Y-55260000D01*
X81979363Y-55347241D01*
X81822320Y-55582273D01*
X81714147Y-55843426D01*
X81659000Y-56120665D01*
X81659000Y-56403335D01*
X81714147Y-56680574D01*
X81822320Y-56941727D01*
X81979363Y-57176759D01*
X82179241Y-57376637D01*
X82414273Y-57533680D01*
X82675426Y-57641853D01*
X82952665Y-57697000D01*
X83235335Y-57697000D01*
X83438226Y-57656642D01*
X79790860Y-61304009D01*
X79747552Y-61339551D01*
X79605717Y-61512377D01*
X79549384Y-61617770D01*
X79500324Y-61709554D01*
X79435423Y-61923502D01*
X79413509Y-62146000D01*
X79419000Y-62201751D01*
X79419000Y-62997716D01*
X79284000Y-63199759D01*
X79128637Y-62967241D01*
X78928759Y-62767363D01*
X78693727Y-62610320D01*
X78432574Y-62502147D01*
X78155335Y-62447000D01*
X77872665Y-62447000D01*
X77595426Y-62502147D01*
X77334273Y-62610320D01*
X77099241Y-62767363D01*
X76899363Y-62967241D01*
X76744000Y-63199759D01*
X76588637Y-62967241D01*
X76388759Y-62767363D01*
X76153727Y-62610320D01*
X75892574Y-62502147D01*
X75615335Y-62447000D01*
X75332665Y-62447000D01*
X75055426Y-62502147D01*
X74794273Y-62610320D01*
X74559241Y-62767363D01*
X74359363Y-62967241D01*
X74204000Y-63199759D01*
X74048637Y-62967241D01*
X73848759Y-62767363D01*
X73613727Y-62610320D01*
X73352574Y-62502147D01*
X73075335Y-62447000D01*
X72792665Y-62447000D01*
X72515426Y-62502147D01*
X72254273Y-62610320D01*
X72019241Y-62767363D01*
X71819363Y-62967241D01*
X71664000Y-63199759D01*
X71508637Y-62967241D01*
X71308759Y-62767363D01*
X71073727Y-62610320D01*
X70812574Y-62502147D01*
X70535335Y-62447000D01*
X70252665Y-62447000D01*
X69975426Y-62502147D01*
X69714273Y-62610320D01*
X69479241Y-62767363D01*
X69279363Y-62967241D01*
X69124000Y-63199759D01*
X68968637Y-62967241D01*
X68768759Y-62767363D01*
X68533727Y-62610320D01*
X68272574Y-62502147D01*
X67995335Y-62447000D01*
X67712665Y-62447000D01*
X67435426Y-62502147D01*
X67174273Y-62610320D01*
X66939241Y-62767363D01*
X66740643Y-62965961D01*
X66739812Y-62957518D01*
X66703502Y-62837820D01*
X66644537Y-62727506D01*
X66565185Y-62630815D01*
X66468494Y-62551463D01*
X66358180Y-62492498D01*
X66238482Y-62456188D01*
X66114000Y-62443928D01*
X64514000Y-62443928D01*
X64389518Y-62456188D01*
X64269820Y-62492498D01*
X64159506Y-62551463D01*
X64062815Y-62630815D01*
X63983463Y-62727506D01*
X63924498Y-62837820D01*
X63888188Y-62957518D01*
X63875928Y-63082000D01*
X63875928Y-64682000D01*
X63888188Y-64806482D01*
X63924498Y-64926180D01*
X63983463Y-65036494D01*
X64062815Y-65133185D01*
X64159506Y-65212537D01*
X64269820Y-65271502D01*
X64389518Y-65307812D01*
X64514000Y-65320072D01*
X66114000Y-65320072D01*
X66238482Y-65307812D01*
X66358180Y-65271502D01*
X66468494Y-65212537D01*
X66565185Y-65133185D01*
X66644537Y-65036494D01*
X66703502Y-64926180D01*
X66739812Y-64806482D01*
X66740643Y-64798039D01*
X66939241Y-64996637D01*
X67174273Y-65153680D01*
X67435426Y-65261853D01*
X67712665Y-65317000D01*
X67995335Y-65317000D01*
X68272574Y-65261853D01*
X68533727Y-65153680D01*
X68768759Y-64996637D01*
X68968637Y-64796759D01*
X69124000Y-64564241D01*
X69279363Y-64796759D01*
X69479241Y-64996637D01*
X69714273Y-65153680D01*
X69975426Y-65261853D01*
X70252665Y-65317000D01*
X70535335Y-65317000D01*
X70812574Y-65261853D01*
X71073727Y-65153680D01*
X71308759Y-64996637D01*
X71508637Y-64796759D01*
X71664000Y-64564241D01*
X71819363Y-64796759D01*
X72019241Y-64996637D01*
X72173689Y-65099836D01*
X72170324Y-65134000D01*
X72174000Y-65171322D01*
X72174000Y-65171332D01*
X72184997Y-65282985D01*
X72213129Y-65375724D01*
X72228454Y-65426246D01*
X72299026Y-65558276D01*
X72338871Y-65606826D01*
X72393999Y-65674001D01*
X72423003Y-65697804D01*
X81340001Y-74614803D01*
X81340000Y-97562678D01*
X81336324Y-97600000D01*
X81340000Y-97637322D01*
X81340000Y-97637332D01*
X81350997Y-97748985D01*
X81394454Y-97892246D01*
X81465026Y-98024276D01*
X81504871Y-98072826D01*
X81559999Y-98140001D01*
X81589003Y-98163804D01*
X84784030Y-101358832D01*
X84782231Y-101377099D01*
X75785000Y-92379869D01*
X75785000Y-75405752D01*
X75790491Y-75350000D01*
X75785000Y-75294248D01*
X75785000Y-70905750D01*
X75790491Y-70849998D01*
X75774906Y-70691754D01*
X75768577Y-70627499D01*
X75703676Y-70413551D01*
X75598284Y-70216375D01*
X75456449Y-70043549D01*
X75283623Y-69901714D01*
X75086447Y-69796322D01*
X74872499Y-69731421D01*
X74650000Y-69709507D01*
X74594249Y-69714998D01*
X58185000Y-69714998D01*
X58185000Y-59535000D01*
X59814893Y-59535000D01*
X59953368Y-59673475D01*
X60196589Y-59835990D01*
X60466842Y-59947932D01*
X60753740Y-60005000D01*
X61046260Y-60005000D01*
X61333158Y-59947932D01*
X61603411Y-59835990D01*
X61846632Y-59673475D01*
X62053475Y-59466632D01*
X62215990Y-59223411D01*
X62327932Y-58953158D01*
X62385000Y-58666260D01*
X62385000Y-58373740D01*
X62327932Y-58086842D01*
X62215990Y-57816589D01*
X62053475Y-57573368D01*
X61846632Y-57366525D01*
X61672240Y-57250000D01*
X61846632Y-57133475D01*
X62053475Y-56926632D01*
X62215990Y-56683411D01*
X62327932Y-56413158D01*
X62385000Y-56126260D01*
X62385000Y-55833740D01*
X62327932Y-55546842D01*
X62215990Y-55276589D01*
X62053475Y-55033368D01*
X61846632Y-54826525D01*
X61672240Y-54710000D01*
X61846632Y-54593475D01*
X62053475Y-54386632D01*
X62215990Y-54143411D01*
X62327932Y-53873158D01*
X62385000Y-53586260D01*
X62385000Y-53293740D01*
X62327932Y-53006842D01*
X62215990Y-52736589D01*
X62053475Y-52493368D01*
X61846632Y-52286525D01*
X61672240Y-52170000D01*
X61846632Y-52053475D01*
X62053475Y-51846632D01*
X62215990Y-51603411D01*
X62327932Y-51333158D01*
X62385000Y-51046260D01*
X62385000Y-50753740D01*
X62327932Y-50466842D01*
X62215990Y-50196589D01*
X62053475Y-49953368D01*
X61846632Y-49746525D01*
X61603411Y-49584010D01*
X61545445Y-49560000D01*
X66596289Y-49560000D01*
X66640226Y-49603937D01*
%TA.AperFunction,Conductor*%
D25*
G36*
X66640226Y-49603937D02*
G01*
X66809744Y-49717205D01*
X66998102Y-49795226D01*
X67198061Y-49835000D01*
X67401939Y-49835000D01*
X67601898Y-49795226D01*
X67790256Y-49717205D01*
X67959774Y-49603937D01*
X68003711Y-49560000D01*
X69896289Y-49560000D01*
X69940226Y-49603937D01*
X70109744Y-49717205D01*
X70298102Y-49795226D01*
X70498061Y-49835000D01*
X70666198Y-49835000D01*
X65637887Y-54863312D01*
X65455335Y-54827000D01*
X65172665Y-54827000D01*
X64895426Y-54882147D01*
X64634273Y-54990320D01*
X64399241Y-55147363D01*
X64199363Y-55347241D01*
X64042320Y-55582273D01*
X63934147Y-55843426D01*
X63879000Y-56120665D01*
X63879000Y-56403335D01*
X63934147Y-56680574D01*
X64042320Y-56941727D01*
X64199363Y-57176759D01*
X64399241Y-57376637D01*
X64634273Y-57533680D01*
X64895426Y-57641853D01*
X65172665Y-57697000D01*
X65455335Y-57697000D01*
X65732574Y-57641853D01*
X65993727Y-57533680D01*
X66228759Y-57376637D01*
X66428637Y-57176759D01*
X66584000Y-56944241D01*
X66739363Y-57176759D01*
X66939241Y-57376637D01*
X67174273Y-57533680D01*
X67435426Y-57641853D01*
X67712665Y-57697000D01*
X67995335Y-57697000D01*
X68272574Y-57641853D01*
X68533727Y-57533680D01*
X68768759Y-57376637D01*
X68968637Y-57176759D01*
X69124000Y-56944241D01*
X69279363Y-57176759D01*
X69479241Y-57376637D01*
X69714273Y-57533680D01*
X69975426Y-57641853D01*
X70252665Y-57697000D01*
X70535335Y-57697000D01*
X70812574Y-57641853D01*
X71073727Y-57533680D01*
X71308759Y-57376637D01*
X71508637Y-57176759D01*
X71664000Y-56944241D01*
X71819363Y-57176759D01*
X72019241Y-57376637D01*
X72254273Y-57533680D01*
X72515426Y-57641853D01*
X72792665Y-57697000D01*
X73075335Y-57697000D01*
X73352574Y-57641853D01*
X73613727Y-57533680D01*
X73848759Y-57376637D01*
X74048637Y-57176759D01*
X74204000Y-56944241D01*
X74359363Y-57176759D01*
X74559241Y-57376637D01*
X74794273Y-57533680D01*
X75055426Y-57641853D01*
X75332665Y-57697000D01*
X75615335Y-57697000D01*
X75892574Y-57641853D01*
X76153727Y-57533680D01*
X76388759Y-57376637D01*
X76588637Y-57176759D01*
X76744000Y-56944241D01*
X76899363Y-57176759D01*
X77099241Y-57376637D01*
X77334273Y-57533680D01*
X77595426Y-57641853D01*
X77872665Y-57697000D01*
X78155335Y-57697000D01*
X78432574Y-57641853D01*
X78693727Y-57533680D01*
X78928759Y-57376637D01*
X79128637Y-57176759D01*
X79285680Y-56941727D01*
X79393853Y-56680574D01*
X79449000Y-56403335D01*
X79449000Y-56120665D01*
X79412688Y-55938114D01*
X80090802Y-55260000D01*
X82066604Y-55260000D01*
X81979363Y-55347241D01*
X81822320Y-55582273D01*
X81714147Y-55843426D01*
X81659000Y-56120665D01*
X81659000Y-56403335D01*
X81714147Y-56680574D01*
X81822320Y-56941727D01*
X81979363Y-57176759D01*
X82179241Y-57376637D01*
X82414273Y-57533680D01*
X82675426Y-57641853D01*
X82952665Y-57697000D01*
X83235335Y-57697000D01*
X83438226Y-57656642D01*
X79790860Y-61304009D01*
X79747552Y-61339551D01*
X79605717Y-61512377D01*
X79549384Y-61617770D01*
X79500324Y-61709554D01*
X79435423Y-61923502D01*
X79413509Y-62146000D01*
X79419000Y-62201751D01*
X79419000Y-62997716D01*
X79284000Y-63199759D01*
X79128637Y-62967241D01*
X78928759Y-62767363D01*
X78693727Y-62610320D01*
X78432574Y-62502147D01*
X78155335Y-62447000D01*
X77872665Y-62447000D01*
X77595426Y-62502147D01*
X77334273Y-62610320D01*
X77099241Y-62767363D01*
X76899363Y-62967241D01*
X76744000Y-63199759D01*
X76588637Y-62967241D01*
X76388759Y-62767363D01*
X76153727Y-62610320D01*
X75892574Y-62502147D01*
X75615335Y-62447000D01*
X75332665Y-62447000D01*
X75055426Y-62502147D01*
X74794273Y-62610320D01*
X74559241Y-62767363D01*
X74359363Y-62967241D01*
X74204000Y-63199759D01*
X74048637Y-62967241D01*
X73848759Y-62767363D01*
X73613727Y-62610320D01*
X73352574Y-62502147D01*
X73075335Y-62447000D01*
X72792665Y-62447000D01*
X72515426Y-62502147D01*
X72254273Y-62610320D01*
X72019241Y-62767363D01*
X71819363Y-62967241D01*
X71664000Y-63199759D01*
X71508637Y-62967241D01*
X71308759Y-62767363D01*
X71073727Y-62610320D01*
X70812574Y-62502147D01*
X70535335Y-62447000D01*
X70252665Y-62447000D01*
X69975426Y-62502147D01*
X69714273Y-62610320D01*
X69479241Y-62767363D01*
X69279363Y-62967241D01*
X69124000Y-63199759D01*
X68968637Y-62967241D01*
X68768759Y-62767363D01*
X68533727Y-62610320D01*
X68272574Y-62502147D01*
X67995335Y-62447000D01*
X67712665Y-62447000D01*
X67435426Y-62502147D01*
X67174273Y-62610320D01*
X66939241Y-62767363D01*
X66740643Y-62965961D01*
X66739812Y-62957518D01*
X66703502Y-62837820D01*
X66644537Y-62727506D01*
X66565185Y-62630815D01*
X66468494Y-62551463D01*
X66358180Y-62492498D01*
X66238482Y-62456188D01*
X66114000Y-62443928D01*
X64514000Y-62443928D01*
X64389518Y-62456188D01*
X64269820Y-62492498D01*
X64159506Y-62551463D01*
X64062815Y-62630815D01*
X63983463Y-62727506D01*
X63924498Y-62837820D01*
X63888188Y-62957518D01*
X63875928Y-63082000D01*
X63875928Y-64682000D01*
X63888188Y-64806482D01*
X63924498Y-64926180D01*
X63983463Y-65036494D01*
X64062815Y-65133185D01*
X64159506Y-65212537D01*
X64269820Y-65271502D01*
X64389518Y-65307812D01*
X64514000Y-65320072D01*
X66114000Y-65320072D01*
X66238482Y-65307812D01*
X66358180Y-65271502D01*
X66468494Y-65212537D01*
X66565185Y-65133185D01*
X66644537Y-65036494D01*
X66703502Y-64926180D01*
X66739812Y-64806482D01*
X66740643Y-64798039D01*
X66939241Y-64996637D01*
X67174273Y-65153680D01*
X67435426Y-65261853D01*
X67712665Y-65317000D01*
X67995335Y-65317000D01*
X68272574Y-65261853D01*
X68533727Y-65153680D01*
X68768759Y-64996637D01*
X68968637Y-64796759D01*
X69124000Y-64564241D01*
X69279363Y-64796759D01*
X69479241Y-64996637D01*
X69714273Y-65153680D01*
X69975426Y-65261853D01*
X70252665Y-65317000D01*
X70535335Y-65317000D01*
X70812574Y-65261853D01*
X71073727Y-65153680D01*
X71308759Y-64996637D01*
X71508637Y-64796759D01*
X71664000Y-64564241D01*
X71819363Y-64796759D01*
X72019241Y-64996637D01*
X72173689Y-65099836D01*
X72170324Y-65134000D01*
X72174000Y-65171322D01*
X72174000Y-65171332D01*
X72184997Y-65282985D01*
X72213129Y-65375724D01*
X72228454Y-65426246D01*
X72299026Y-65558276D01*
X72338871Y-65606826D01*
X72393999Y-65674001D01*
X72423003Y-65697804D01*
X81340001Y-74614803D01*
X81340000Y-97562678D01*
X81336324Y-97600000D01*
X81340000Y-97637322D01*
X81340000Y-97637332D01*
X81350997Y-97748985D01*
X81394454Y-97892246D01*
X81465026Y-98024276D01*
X81504871Y-98072826D01*
X81559999Y-98140001D01*
X81589003Y-98163804D01*
X84784030Y-101358832D01*
X84782231Y-101377099D01*
X75785000Y-92379869D01*
X75785000Y-75405752D01*
X75790491Y-75350000D01*
X75785000Y-75294248D01*
X75785000Y-70905750D01*
X75790491Y-70849998D01*
X75774906Y-70691754D01*
X75768577Y-70627499D01*
X75703676Y-70413551D01*
X75598284Y-70216375D01*
X75456449Y-70043549D01*
X75283623Y-69901714D01*
X75086447Y-69796322D01*
X74872499Y-69731421D01*
X74650000Y-69709507D01*
X74594249Y-69714998D01*
X58185000Y-69714998D01*
X58185000Y-59535000D01*
X59814893Y-59535000D01*
X59953368Y-59673475D01*
X60196589Y-59835990D01*
X60466842Y-59947932D01*
X60753740Y-60005000D01*
X61046260Y-60005000D01*
X61333158Y-59947932D01*
X61603411Y-59835990D01*
X61846632Y-59673475D01*
X62053475Y-59466632D01*
X62215990Y-59223411D01*
X62327932Y-58953158D01*
X62385000Y-58666260D01*
X62385000Y-58373740D01*
X62327932Y-58086842D01*
X62215990Y-57816589D01*
X62053475Y-57573368D01*
X61846632Y-57366525D01*
X61672240Y-57250000D01*
X61846632Y-57133475D01*
X62053475Y-56926632D01*
X62215990Y-56683411D01*
X62327932Y-56413158D01*
X62385000Y-56126260D01*
X62385000Y-55833740D01*
X62327932Y-55546842D01*
X62215990Y-55276589D01*
X62053475Y-55033368D01*
X61846632Y-54826525D01*
X61672240Y-54710000D01*
X61846632Y-54593475D01*
X62053475Y-54386632D01*
X62215990Y-54143411D01*
X62327932Y-53873158D01*
X62385000Y-53586260D01*
X62385000Y-53293740D01*
X62327932Y-53006842D01*
X62215990Y-52736589D01*
X62053475Y-52493368D01*
X61846632Y-52286525D01*
X61672240Y-52170000D01*
X61846632Y-52053475D01*
X62053475Y-51846632D01*
X62215990Y-51603411D01*
X62327932Y-51333158D01*
X62385000Y-51046260D01*
X62385000Y-50753740D01*
X62327932Y-50466842D01*
X62215990Y-50196589D01*
X62053475Y-49953368D01*
X61846632Y-49746525D01*
X61603411Y-49584010D01*
X61545445Y-49560000D01*
X66596289Y-49560000D01*
X66640226Y-49603937D01*
G37*
%TD.AperFunction*%
D24*
X111440000Y-51314802D02*
X111440001Y-63085196D01*
X108489003Y-66036196D01*
X108459999Y-66059999D01*
X108430681Y-66095724D01*
X108365026Y-66175724D01*
X108342919Y-66217083D01*
X108339502Y-66205820D01*
X108280537Y-66095506D01*
X108201185Y-65998815D01*
X108104494Y-65919463D01*
X107994180Y-65860498D01*
X107874482Y-65824188D01*
X107750000Y-65811928D01*
X106050000Y-65811928D01*
X105925518Y-65824188D01*
X105805820Y-65860498D01*
X105695506Y-65919463D01*
X105598815Y-65998815D01*
X105519463Y-66095506D01*
X105460498Y-66205820D01*
X105438487Y-66278380D01*
X105306632Y-66146525D01*
X105063411Y-65984010D01*
X104793158Y-65872068D01*
X104506260Y-65815000D01*
X104379801Y-65815000D01*
X106534802Y-63660000D01*
X107996289Y-63660000D01*
X108040226Y-63703937D01*
X108209744Y-63817205D01*
X108398102Y-63895226D01*
X108598061Y-63935000D01*
X108801939Y-63935000D01*
X109001898Y-63895226D01*
X109190256Y-63817205D01*
X109359774Y-63703937D01*
X109503937Y-63559774D01*
X109617205Y-63390256D01*
X109695226Y-63201898D01*
X109735000Y-63001939D01*
X109735000Y-62798061D01*
X109695226Y-62598102D01*
X109617205Y-62409744D01*
X109503937Y-62240226D01*
X109359774Y-62096063D01*
X109190256Y-61982795D01*
X109001898Y-61904774D01*
X108801939Y-61865000D01*
X108598061Y-61865000D01*
X108398102Y-61904774D01*
X108209744Y-61982795D01*
X108040226Y-62096063D01*
X107996289Y-62140000D01*
X106257325Y-62140000D01*
X106220000Y-62136324D01*
X106182675Y-62140000D01*
X106182667Y-62140000D01*
X106071014Y-62150997D01*
X105927753Y-62194454D01*
X105795724Y-62265026D01*
X105679999Y-62359999D01*
X105656201Y-62388997D01*
X102186408Y-65858791D01*
X101966260Y-65815000D01*
X101673740Y-65815000D01*
X101386842Y-65872068D01*
X101116589Y-65984010D01*
X100873368Y-66146525D01*
X100666525Y-66353368D01*
X100504010Y-66596589D01*
X100392068Y-66866842D01*
X100335000Y-67153740D01*
X100335000Y-67446260D01*
X100392068Y-67733158D01*
X100504010Y-68003411D01*
X100666525Y-68246632D01*
X100873368Y-68453475D01*
X101116589Y-68615990D01*
X101386842Y-68727932D01*
X101673740Y-68785000D01*
X101966260Y-68785000D01*
X102253158Y-68727932D01*
X102523411Y-68615990D01*
X102766632Y-68453475D01*
X102973475Y-68246632D01*
X103090000Y-68072240D01*
X103206525Y-68246632D01*
X103413368Y-68453475D01*
X103587760Y-68570000D01*
X103413368Y-68686525D01*
X103206525Y-68893368D01*
X103044010Y-69136589D01*
X102932068Y-69406842D01*
X102875000Y-69693740D01*
X102875000Y-69986260D01*
X102932068Y-70273158D01*
X103044010Y-70543411D01*
X103206525Y-70786632D01*
X103413368Y-70993475D01*
X103656589Y-71155990D01*
X103926842Y-71267932D01*
X104213740Y-71325000D01*
X104506260Y-71325000D01*
X104793158Y-71267932D01*
X105063411Y-71155990D01*
X105306632Y-70993475D01*
X105513475Y-70786632D01*
X105630000Y-70612240D01*
X105746525Y-70786632D01*
X105765000Y-70805107D01*
X105765001Y-76865000D01*
X95025750Y-76865000D01*
X94969998Y-76859509D01*
X94747499Y-76881423D01*
X94533551Y-76946324D01*
X94336375Y-77051716D01*
X94206854Y-77158011D01*
X94206852Y-77158013D01*
X94163549Y-77193551D01*
X94128011Y-77236854D01*
X87598012Y-83766855D01*
X87491717Y-83896376D01*
X87386324Y-84093552D01*
X87321423Y-84307500D01*
X87299509Y-84529998D01*
X87321423Y-84752496D01*
X87386324Y-84966444D01*
X87491717Y-85163620D01*
X87633552Y-85336446D01*
X87806378Y-85478281D01*
X88003554Y-85583674D01*
X88217502Y-85648575D01*
X88440000Y-85670489D01*
X88662498Y-85648575D01*
X88876446Y-85583674D01*
X89073622Y-85478281D01*
X89203143Y-85371986D01*
X95440131Y-79135000D01*
X105765015Y-79135000D01*
X105765014Y-92204854D01*
X99036860Y-98933009D01*
X98993552Y-98968551D01*
X98851717Y-99141377D01*
X98795384Y-99246770D01*
X98746324Y-99338554D01*
X98681423Y-99552502D01*
X98659509Y-99775000D01*
X98665001Y-99830761D01*
X98665001Y-100667182D01*
X98559294Y-100795986D01*
X98550000Y-100813374D01*
X98540706Y-100795986D01*
X98355134Y-100569866D01*
X98129014Y-100384294D01*
X97871034Y-100246401D01*
X97591111Y-100161487D01*
X97300000Y-100132815D01*
X97008890Y-100161487D01*
X96838098Y-100213296D01*
X95213804Y-98589003D01*
X95190001Y-98559999D01*
X95074276Y-98465026D01*
X94942247Y-98394454D01*
X94798986Y-98350997D01*
X94687333Y-98340000D01*
X94687322Y-98340000D01*
X94650000Y-98336324D01*
X94612678Y-98340000D01*
X88314802Y-98340000D01*
X84860000Y-94885199D01*
X84860000Y-91571492D01*
X85125537Y-91748918D01*
X85423088Y-91872168D01*
X85738967Y-91935000D01*
X86061033Y-91935000D01*
X86376912Y-91872168D01*
X86674463Y-91748918D01*
X86942252Y-91569987D01*
X87169987Y-91342252D01*
X87170000Y-91342233D01*
X87170013Y-91342252D01*
X87397748Y-91569987D01*
X87665537Y-91748918D01*
X87963088Y-91872168D01*
X88278967Y-91935000D01*
X88601033Y-91935000D01*
X88916912Y-91872168D01*
X89214463Y-91748918D01*
X89482252Y-91569987D01*
X89709987Y-91342252D01*
X89888918Y-91074463D01*
X90012168Y-90776912D01*
X90075000Y-90461033D01*
X90075000Y-90138967D01*
X91885000Y-90138967D01*
X91885000Y-90461033D01*
X91947832Y-90776912D01*
X92071082Y-91074463D01*
X92250013Y-91342252D01*
X92477748Y-91569987D01*
X92745537Y-91748918D01*
X93043088Y-91872168D01*
X93358967Y-91935000D01*
X93681033Y-91935000D01*
X93996912Y-91872168D01*
X94294463Y-91748918D01*
X94562252Y-91569987D01*
X94789987Y-91342252D01*
X94790000Y-91342233D01*
X94790013Y-91342252D01*
X95017748Y-91569987D01*
X95285537Y-91748918D01*
X95583088Y-91872168D01*
X95898967Y-91935000D01*
X96221033Y-91935000D01*
X96536912Y-91872168D01*
X96834463Y-91748918D01*
X97102252Y-91569987D01*
X97329987Y-91342252D01*
X97330000Y-91342233D01*
X97330013Y-91342252D01*
X97557748Y-91569987D01*
X97825537Y-91748918D01*
X98123088Y-91872168D01*
X98438967Y-91935000D01*
X98761033Y-91935000D01*
X99076912Y-91872168D01*
X99374463Y-91748918D01*
X99642252Y-91569987D01*
X99869987Y-91342252D01*
X99870000Y-91342233D01*
X99870013Y-91342252D01*
X100097748Y-91569987D01*
X100365537Y-91748918D01*
X100663088Y-91872168D01*
X100978967Y-91935000D01*
X101301033Y-91935000D01*
X101616912Y-91872168D01*
X101914463Y-91748918D01*
X102182252Y-91569987D01*
X102409987Y-91342252D01*
X102588918Y-91074463D01*
X102712168Y-90776912D01*
X102775000Y-90461033D01*
X102775000Y-90138967D01*
X102712168Y-89823088D01*
X102588918Y-89525537D01*
X102409987Y-89257748D01*
X102182252Y-89030013D01*
X101914463Y-88851082D01*
X101616912Y-88727832D01*
X101301033Y-88665000D01*
X100978967Y-88665000D01*
X100663088Y-88727832D01*
X100365537Y-88851082D01*
X100097748Y-89030013D01*
X99870013Y-89257748D01*
X99870000Y-89257767D01*
X99869987Y-89257748D01*
X99642252Y-89030013D01*
X99374463Y-88851082D01*
X99076912Y-88727832D01*
X98761033Y-88665000D01*
X98438967Y-88665000D01*
X98123088Y-88727832D01*
X97825537Y-88851082D01*
X97557748Y-89030013D01*
X97330013Y-89257748D01*
X97330000Y-89257767D01*
X97329987Y-89257748D01*
X97102252Y-89030013D01*
X96834463Y-88851082D01*
X96536912Y-88727832D01*
X96221033Y-88665000D01*
X95898967Y-88665000D01*
X95583088Y-88727832D01*
X95285537Y-88851082D01*
X95017748Y-89030013D01*
X94790013Y-89257748D01*
X94790000Y-89257767D01*
X94789987Y-89257748D01*
X94562252Y-89030013D01*
X94294463Y-88851082D01*
X93996912Y-88727832D01*
X93681033Y-88665000D01*
X93358967Y-88665000D01*
X93043088Y-88727832D01*
X92745537Y-88851082D01*
X92477748Y-89030013D01*
X92250013Y-89257748D01*
X92071082Y-89525537D01*
X91947832Y-89823088D01*
X91885000Y-90138967D01*
X90075000Y-90138967D01*
X90012168Y-89823088D01*
X89888918Y-89525537D01*
X89709987Y-89257748D01*
X89482252Y-89030013D01*
X89214463Y-88851082D01*
X88916912Y-88727832D01*
X88601033Y-88665000D01*
X88278967Y-88665000D01*
X87963088Y-88727832D01*
X87665537Y-88851082D01*
X87397748Y-89030013D01*
X87170013Y-89257748D01*
X87170000Y-89257767D01*
X87169987Y-89257748D01*
X86942252Y-89030013D01*
X86674463Y-88851082D01*
X86376912Y-88727832D01*
X86061033Y-88665000D01*
X85738967Y-88665000D01*
X85423088Y-88727832D01*
X85125537Y-88851082D01*
X84860000Y-89028508D01*
X84860000Y-76331492D01*
X85125537Y-76508918D01*
X85423088Y-76632168D01*
X85738967Y-76695000D01*
X86061033Y-76695000D01*
X86376912Y-76632168D01*
X86674463Y-76508918D01*
X86942252Y-76329987D01*
X87169987Y-76102252D01*
X87170000Y-76102233D01*
X87170013Y-76102252D01*
X87397748Y-76329987D01*
X87665537Y-76508918D01*
X87963088Y-76632168D01*
X88278967Y-76695000D01*
X88601033Y-76695000D01*
X88916912Y-76632168D01*
X89214463Y-76508918D01*
X89482252Y-76329987D01*
X89709987Y-76102252D01*
X89710000Y-76102233D01*
X89710013Y-76102252D01*
X89937748Y-76329987D01*
X90205537Y-76508918D01*
X90503088Y-76632168D01*
X90818967Y-76695000D01*
X91141033Y-76695000D01*
X91456912Y-76632168D01*
X91754463Y-76508918D01*
X92022252Y-76329987D01*
X92249987Y-76102252D01*
X92250000Y-76102233D01*
X92250013Y-76102252D01*
X92477748Y-76329987D01*
X92745537Y-76508918D01*
X93043088Y-76632168D01*
X93358967Y-76695000D01*
X93681033Y-76695000D01*
X93996912Y-76632168D01*
X94294463Y-76508918D01*
X94562252Y-76329987D01*
X94789987Y-76102252D01*
X94790000Y-76102233D01*
X94790013Y-76102252D01*
X95017748Y-76329987D01*
X95285537Y-76508918D01*
X95583088Y-76632168D01*
X95898967Y-76695000D01*
X96221033Y-76695000D01*
X96536912Y-76632168D01*
X96834463Y-76508918D01*
X97102252Y-76329987D01*
X97329987Y-76102252D01*
X97330000Y-76102233D01*
X97330013Y-76102252D01*
X97557748Y-76329987D01*
X97825537Y-76508918D01*
X98123088Y-76632168D01*
X98438967Y-76695000D01*
X98761033Y-76695000D01*
X99076912Y-76632168D01*
X99374463Y-76508918D01*
X99642252Y-76329987D01*
X99869987Y-76102252D01*
X99870000Y-76102233D01*
X99870013Y-76102252D01*
X100097748Y-76329987D01*
X100365537Y-76508918D01*
X100663088Y-76632168D01*
X100978967Y-76695000D01*
X101301033Y-76695000D01*
X101616912Y-76632168D01*
X101914463Y-76508918D01*
X102182252Y-76329987D01*
X102409987Y-76102252D01*
X102588918Y-75834463D01*
X102712168Y-75536912D01*
X102775000Y-75221033D01*
X102775000Y-74898967D01*
X102712168Y-74583088D01*
X102588918Y-74285537D01*
X102409987Y-74017748D01*
X102182252Y-73790013D01*
X101914463Y-73611082D01*
X101616912Y-73487832D01*
X101301033Y-73425000D01*
X100978967Y-73425000D01*
X100663088Y-73487832D01*
X100648625Y-73493823D01*
X97807999Y-70653198D01*
X97807999Y-65217355D01*
X97915426Y-65261853D01*
X98192665Y-65317000D01*
X98475335Y-65317000D01*
X98752574Y-65261853D01*
X99013727Y-65153680D01*
X99248759Y-64996637D01*
X99448637Y-64796759D01*
X99605680Y-64561727D01*
X99713853Y-64300574D01*
X99769000Y-64023335D01*
X99769000Y-63740665D01*
X99713853Y-63463426D01*
X99605680Y-63202273D01*
X99448637Y-62967241D01*
X99248759Y-62767363D01*
X99013727Y-62610320D01*
X98752574Y-62502147D01*
X98475335Y-62447000D01*
X98192665Y-62447000D01*
X97915426Y-62502147D01*
X97807999Y-62546645D01*
X97807999Y-57597355D01*
X97915426Y-57641853D01*
X98192665Y-57697000D01*
X98475335Y-57697000D01*
X98752574Y-57641853D01*
X99013727Y-57533680D01*
X99248759Y-57376637D01*
X99448637Y-57176759D01*
X99605680Y-56941727D01*
X99713853Y-56680574D01*
X99769000Y-56403335D01*
X99769000Y-56120665D01*
X99713853Y-55843426D01*
X99605680Y-55582273D01*
X99448637Y-55347241D01*
X99248759Y-55147363D01*
X99013727Y-54990320D01*
X98752574Y-54882147D01*
X98475335Y-54827000D01*
X98192665Y-54827000D01*
X98010114Y-54863312D01*
X97373803Y-54227002D01*
X97350001Y-54197999D01*
X97234276Y-54103026D01*
X97102247Y-54032454D01*
X96958986Y-53988997D01*
X96847333Y-53978000D01*
X96847322Y-53978000D01*
X96810000Y-53974324D01*
X96772678Y-53978000D01*
X95400322Y-53978000D01*
X95362999Y-53974324D01*
X95325676Y-53978000D01*
X95325667Y-53978000D01*
X95214014Y-53988997D01*
X95070753Y-54032454D01*
X94938724Y-54103026D01*
X94822999Y-54197999D01*
X94799201Y-54226997D01*
X94013002Y-55013197D01*
X93992790Y-55029784D01*
X93933727Y-54990320D01*
X93672574Y-54882147D01*
X93395335Y-54827000D01*
X93351801Y-54827000D01*
X95004635Y-53174167D01*
X95149589Y-53203000D01*
X95422411Y-53203000D01*
X95689989Y-53149775D01*
X95942043Y-53045371D01*
X96168886Y-52893799D01*
X96361799Y-52700886D01*
X96513371Y-52474043D01*
X96617775Y-52221989D01*
X96671000Y-51954411D01*
X96671000Y-51681589D01*
X96635476Y-51502999D01*
X99368198Y-51502999D01*
X103358790Y-55493592D01*
X103315000Y-55713740D01*
X103315000Y-56006260D01*
X103372068Y-56293158D01*
X103484010Y-56563411D01*
X103646525Y-56806632D01*
X103778380Y-56938487D01*
X103705820Y-56960498D01*
X103595506Y-57019463D01*
X103498815Y-57098815D01*
X103419463Y-57195506D01*
X103360498Y-57305820D01*
X103324188Y-57425518D01*
X103311928Y-57550000D01*
X103311928Y-59250000D01*
X103324188Y-59374482D01*
X103360498Y-59494180D01*
X103419463Y-59604494D01*
X103498815Y-59701185D01*
X103595506Y-59780537D01*
X103705820Y-59839502D01*
X103825518Y-59875812D01*
X103950000Y-59888072D01*
X105650000Y-59888072D01*
X105774482Y-59875812D01*
X105894180Y-59839502D01*
X106004494Y-59780537D01*
X106101185Y-59701185D01*
X106180537Y-59604494D01*
X106239502Y-59494180D01*
X106275812Y-59374482D01*
X106288072Y-59250000D01*
X106288072Y-57550000D01*
X106275812Y-57425518D01*
X106239502Y-57305820D01*
X106180537Y-57195506D01*
X106101185Y-57098815D01*
X106004494Y-57019463D01*
X105894180Y-56960498D01*
X105821620Y-56938487D01*
X105953475Y-56806632D01*
X106115990Y-56563411D01*
X106227932Y-56293158D01*
X106285000Y-56006260D01*
X106285000Y-55713740D01*
X106227932Y-55426842D01*
X106115990Y-55156589D01*
X105953475Y-54913368D01*
X105746632Y-54706525D01*
X105572240Y-54590000D01*
X105746632Y-54473475D01*
X105953475Y-54266632D01*
X106115990Y-54023411D01*
X106227932Y-53753158D01*
X106285000Y-53466260D01*
X106285000Y-53173740D01*
X106227932Y-52886842D01*
X106115990Y-52616589D01*
X105953475Y-52373368D01*
X105746632Y-52166525D01*
X105572240Y-52050000D01*
X105746632Y-51933475D01*
X105953475Y-51726632D01*
X106115990Y-51483411D01*
X106227932Y-51213158D01*
X106285000Y-50926260D01*
X106285000Y-50633740D01*
X106227932Y-50346842D01*
X106150540Y-50160000D01*
X110285199Y-50160000D01*
X111440000Y-51314802D01*
%TA.AperFunction,Conductor*%
D25*
G36*
X111440000Y-51314802D02*
G01*
X111440001Y-63085196D01*
X108489003Y-66036196D01*
X108459999Y-66059999D01*
X108430681Y-66095724D01*
X108365026Y-66175724D01*
X108342919Y-66217083D01*
X108339502Y-66205820D01*
X108280537Y-66095506D01*
X108201185Y-65998815D01*
X108104494Y-65919463D01*
X107994180Y-65860498D01*
X107874482Y-65824188D01*
X107750000Y-65811928D01*
X106050000Y-65811928D01*
X105925518Y-65824188D01*
X105805820Y-65860498D01*
X105695506Y-65919463D01*
X105598815Y-65998815D01*
X105519463Y-66095506D01*
X105460498Y-66205820D01*
X105438487Y-66278380D01*
X105306632Y-66146525D01*
X105063411Y-65984010D01*
X104793158Y-65872068D01*
X104506260Y-65815000D01*
X104379801Y-65815000D01*
X106534802Y-63660000D01*
X107996289Y-63660000D01*
X108040226Y-63703937D01*
X108209744Y-63817205D01*
X108398102Y-63895226D01*
X108598061Y-63935000D01*
X108801939Y-63935000D01*
X109001898Y-63895226D01*
X109190256Y-63817205D01*
X109359774Y-63703937D01*
X109503937Y-63559774D01*
X109617205Y-63390256D01*
X109695226Y-63201898D01*
X109735000Y-63001939D01*
X109735000Y-62798061D01*
X109695226Y-62598102D01*
X109617205Y-62409744D01*
X109503937Y-62240226D01*
X109359774Y-62096063D01*
X109190256Y-61982795D01*
X109001898Y-61904774D01*
X108801939Y-61865000D01*
X108598061Y-61865000D01*
X108398102Y-61904774D01*
X108209744Y-61982795D01*
X108040226Y-62096063D01*
X107996289Y-62140000D01*
X106257325Y-62140000D01*
X106220000Y-62136324D01*
X106182675Y-62140000D01*
X106182667Y-62140000D01*
X106071014Y-62150997D01*
X105927753Y-62194454D01*
X105795724Y-62265026D01*
X105679999Y-62359999D01*
X105656201Y-62388997D01*
X102186408Y-65858791D01*
X101966260Y-65815000D01*
X101673740Y-65815000D01*
X101386842Y-65872068D01*
X101116589Y-65984010D01*
X100873368Y-66146525D01*
X100666525Y-66353368D01*
X100504010Y-66596589D01*
X100392068Y-66866842D01*
X100335000Y-67153740D01*
X100335000Y-67446260D01*
X100392068Y-67733158D01*
X100504010Y-68003411D01*
X100666525Y-68246632D01*
X100873368Y-68453475D01*
X101116589Y-68615990D01*
X101386842Y-68727932D01*
X101673740Y-68785000D01*
X101966260Y-68785000D01*
X102253158Y-68727932D01*
X102523411Y-68615990D01*
X102766632Y-68453475D01*
X102973475Y-68246632D01*
X103090000Y-68072240D01*
X103206525Y-68246632D01*
X103413368Y-68453475D01*
X103587760Y-68570000D01*
X103413368Y-68686525D01*
X103206525Y-68893368D01*
X103044010Y-69136589D01*
X102932068Y-69406842D01*
X102875000Y-69693740D01*
X102875000Y-69986260D01*
X102932068Y-70273158D01*
X103044010Y-70543411D01*
X103206525Y-70786632D01*
X103413368Y-70993475D01*
X103656589Y-71155990D01*
X103926842Y-71267932D01*
X104213740Y-71325000D01*
X104506260Y-71325000D01*
X104793158Y-71267932D01*
X105063411Y-71155990D01*
X105306632Y-70993475D01*
X105513475Y-70786632D01*
X105630000Y-70612240D01*
X105746525Y-70786632D01*
X105765000Y-70805107D01*
X105765001Y-76865000D01*
X95025750Y-76865000D01*
X94969998Y-76859509D01*
X94747499Y-76881423D01*
X94533551Y-76946324D01*
X94336375Y-77051716D01*
X94206854Y-77158011D01*
X94206852Y-77158013D01*
X94163549Y-77193551D01*
X94128011Y-77236854D01*
X87598012Y-83766855D01*
X87491717Y-83896376D01*
X87386324Y-84093552D01*
X87321423Y-84307500D01*
X87299509Y-84529998D01*
X87321423Y-84752496D01*
X87386324Y-84966444D01*
X87491717Y-85163620D01*
X87633552Y-85336446D01*
X87806378Y-85478281D01*
X88003554Y-85583674D01*
X88217502Y-85648575D01*
X88440000Y-85670489D01*
X88662498Y-85648575D01*
X88876446Y-85583674D01*
X89073622Y-85478281D01*
X89203143Y-85371986D01*
X95440131Y-79135000D01*
X105765015Y-79135000D01*
X105765014Y-92204854D01*
X99036860Y-98933009D01*
X98993552Y-98968551D01*
X98851717Y-99141377D01*
X98795384Y-99246770D01*
X98746324Y-99338554D01*
X98681423Y-99552502D01*
X98659509Y-99775000D01*
X98665001Y-99830761D01*
X98665001Y-100667182D01*
X98559294Y-100795986D01*
X98550000Y-100813374D01*
X98540706Y-100795986D01*
X98355134Y-100569866D01*
X98129014Y-100384294D01*
X97871034Y-100246401D01*
X97591111Y-100161487D01*
X97300000Y-100132815D01*
X97008890Y-100161487D01*
X96838098Y-100213296D01*
X95213804Y-98589003D01*
X95190001Y-98559999D01*
X95074276Y-98465026D01*
X94942247Y-98394454D01*
X94798986Y-98350997D01*
X94687333Y-98340000D01*
X94687322Y-98340000D01*
X94650000Y-98336324D01*
X94612678Y-98340000D01*
X88314802Y-98340000D01*
X84860000Y-94885199D01*
X84860000Y-91571492D01*
X85125537Y-91748918D01*
X85423088Y-91872168D01*
X85738967Y-91935000D01*
X86061033Y-91935000D01*
X86376912Y-91872168D01*
X86674463Y-91748918D01*
X86942252Y-91569987D01*
X87169987Y-91342252D01*
X87170000Y-91342233D01*
X87170013Y-91342252D01*
X87397748Y-91569987D01*
X87665537Y-91748918D01*
X87963088Y-91872168D01*
X88278967Y-91935000D01*
X88601033Y-91935000D01*
X88916912Y-91872168D01*
X89214463Y-91748918D01*
X89482252Y-91569987D01*
X89709987Y-91342252D01*
X89888918Y-91074463D01*
X90012168Y-90776912D01*
X90075000Y-90461033D01*
X90075000Y-90138967D01*
X91885000Y-90138967D01*
X91885000Y-90461033D01*
X91947832Y-90776912D01*
X92071082Y-91074463D01*
X92250013Y-91342252D01*
X92477748Y-91569987D01*
X92745537Y-91748918D01*
X93043088Y-91872168D01*
X93358967Y-91935000D01*
X93681033Y-91935000D01*
X93996912Y-91872168D01*
X94294463Y-91748918D01*
X94562252Y-91569987D01*
X94789987Y-91342252D01*
X94790000Y-91342233D01*
X94790013Y-91342252D01*
X95017748Y-91569987D01*
X95285537Y-91748918D01*
X95583088Y-91872168D01*
X95898967Y-91935000D01*
X96221033Y-91935000D01*
X96536912Y-91872168D01*
X96834463Y-91748918D01*
X97102252Y-91569987D01*
X97329987Y-91342252D01*
X97330000Y-91342233D01*
X97330013Y-91342252D01*
X97557748Y-91569987D01*
X97825537Y-91748918D01*
X98123088Y-91872168D01*
X98438967Y-91935000D01*
X98761033Y-91935000D01*
X99076912Y-91872168D01*
X99374463Y-91748918D01*
X99642252Y-91569987D01*
X99869987Y-91342252D01*
X99870000Y-91342233D01*
X99870013Y-91342252D01*
X100097748Y-91569987D01*
X100365537Y-91748918D01*
X100663088Y-91872168D01*
X100978967Y-91935000D01*
X101301033Y-91935000D01*
X101616912Y-91872168D01*
X101914463Y-91748918D01*
X102182252Y-91569987D01*
X102409987Y-91342252D01*
X102588918Y-91074463D01*
X102712168Y-90776912D01*
X102775000Y-90461033D01*
X102775000Y-90138967D01*
X102712168Y-89823088D01*
X102588918Y-89525537D01*
X102409987Y-89257748D01*
X102182252Y-89030013D01*
X101914463Y-88851082D01*
X101616912Y-88727832D01*
X101301033Y-88665000D01*
X100978967Y-88665000D01*
X100663088Y-88727832D01*
X100365537Y-88851082D01*
X100097748Y-89030013D01*
X99870013Y-89257748D01*
X99870000Y-89257767D01*
X99869987Y-89257748D01*
X99642252Y-89030013D01*
X99374463Y-88851082D01*
X99076912Y-88727832D01*
X98761033Y-88665000D01*
X98438967Y-88665000D01*
X98123088Y-88727832D01*
X97825537Y-88851082D01*
X97557748Y-89030013D01*
X97330013Y-89257748D01*
X97330000Y-89257767D01*
X97329987Y-89257748D01*
X97102252Y-89030013D01*
X96834463Y-88851082D01*
X96536912Y-88727832D01*
X96221033Y-88665000D01*
X95898967Y-88665000D01*
X95583088Y-88727832D01*
X95285537Y-88851082D01*
X95017748Y-89030013D01*
X94790013Y-89257748D01*
X94790000Y-89257767D01*
X94789987Y-89257748D01*
X94562252Y-89030013D01*
X94294463Y-88851082D01*
X93996912Y-88727832D01*
X93681033Y-88665000D01*
X93358967Y-88665000D01*
X93043088Y-88727832D01*
X92745537Y-88851082D01*
X92477748Y-89030013D01*
X92250013Y-89257748D01*
X92071082Y-89525537D01*
X91947832Y-89823088D01*
X91885000Y-90138967D01*
X90075000Y-90138967D01*
X90012168Y-89823088D01*
X89888918Y-89525537D01*
X89709987Y-89257748D01*
X89482252Y-89030013D01*
X89214463Y-88851082D01*
X88916912Y-88727832D01*
X88601033Y-88665000D01*
X88278967Y-88665000D01*
X87963088Y-88727832D01*
X87665537Y-88851082D01*
X87397748Y-89030013D01*
X87170013Y-89257748D01*
X87170000Y-89257767D01*
X87169987Y-89257748D01*
X86942252Y-89030013D01*
X86674463Y-88851082D01*
X86376912Y-88727832D01*
X86061033Y-88665000D01*
X85738967Y-88665000D01*
X85423088Y-88727832D01*
X85125537Y-88851082D01*
X84860000Y-89028508D01*
X84860000Y-76331492D01*
X85125537Y-76508918D01*
X85423088Y-76632168D01*
X85738967Y-76695000D01*
X86061033Y-76695000D01*
X86376912Y-76632168D01*
X86674463Y-76508918D01*
X86942252Y-76329987D01*
X87169987Y-76102252D01*
X87170000Y-76102233D01*
X87170013Y-76102252D01*
X87397748Y-76329987D01*
X87665537Y-76508918D01*
X87963088Y-76632168D01*
X88278967Y-76695000D01*
X88601033Y-76695000D01*
X88916912Y-76632168D01*
X89214463Y-76508918D01*
X89482252Y-76329987D01*
X89709987Y-76102252D01*
X89710000Y-76102233D01*
X89710013Y-76102252D01*
X89937748Y-76329987D01*
X90205537Y-76508918D01*
X90503088Y-76632168D01*
X90818967Y-76695000D01*
X91141033Y-76695000D01*
X91456912Y-76632168D01*
X91754463Y-76508918D01*
X92022252Y-76329987D01*
X92249987Y-76102252D01*
X92250000Y-76102233D01*
X92250013Y-76102252D01*
X92477748Y-76329987D01*
X92745537Y-76508918D01*
X93043088Y-76632168D01*
X93358967Y-76695000D01*
X93681033Y-76695000D01*
X93996912Y-76632168D01*
X94294463Y-76508918D01*
X94562252Y-76329987D01*
X94789987Y-76102252D01*
X94790000Y-76102233D01*
X94790013Y-76102252D01*
X95017748Y-76329987D01*
X95285537Y-76508918D01*
X95583088Y-76632168D01*
X95898967Y-76695000D01*
X96221033Y-76695000D01*
X96536912Y-76632168D01*
X96834463Y-76508918D01*
X97102252Y-76329987D01*
X97329987Y-76102252D01*
X97330000Y-76102233D01*
X97330013Y-76102252D01*
X97557748Y-76329987D01*
X97825537Y-76508918D01*
X98123088Y-76632168D01*
X98438967Y-76695000D01*
X98761033Y-76695000D01*
X99076912Y-76632168D01*
X99374463Y-76508918D01*
X99642252Y-76329987D01*
X99869987Y-76102252D01*
X99870000Y-76102233D01*
X99870013Y-76102252D01*
X100097748Y-76329987D01*
X100365537Y-76508918D01*
X100663088Y-76632168D01*
X100978967Y-76695000D01*
X101301033Y-76695000D01*
X101616912Y-76632168D01*
X101914463Y-76508918D01*
X102182252Y-76329987D01*
X102409987Y-76102252D01*
X102588918Y-75834463D01*
X102712168Y-75536912D01*
X102775000Y-75221033D01*
X102775000Y-74898967D01*
X102712168Y-74583088D01*
X102588918Y-74285537D01*
X102409987Y-74017748D01*
X102182252Y-73790013D01*
X101914463Y-73611082D01*
X101616912Y-73487832D01*
X101301033Y-73425000D01*
X100978967Y-73425000D01*
X100663088Y-73487832D01*
X100648625Y-73493823D01*
X97807999Y-70653198D01*
X97807999Y-65217355D01*
X97915426Y-65261853D01*
X98192665Y-65317000D01*
X98475335Y-65317000D01*
X98752574Y-65261853D01*
X99013727Y-65153680D01*
X99248759Y-64996637D01*
X99448637Y-64796759D01*
X99605680Y-64561727D01*
X99713853Y-64300574D01*
X99769000Y-64023335D01*
X99769000Y-63740665D01*
X99713853Y-63463426D01*
X99605680Y-63202273D01*
X99448637Y-62967241D01*
X99248759Y-62767363D01*
X99013727Y-62610320D01*
X98752574Y-62502147D01*
X98475335Y-62447000D01*
X98192665Y-62447000D01*
X97915426Y-62502147D01*
X97807999Y-62546645D01*
X97807999Y-57597355D01*
X97915426Y-57641853D01*
X98192665Y-57697000D01*
X98475335Y-57697000D01*
X98752574Y-57641853D01*
X99013727Y-57533680D01*
X99248759Y-57376637D01*
X99448637Y-57176759D01*
X99605680Y-56941727D01*
X99713853Y-56680574D01*
X99769000Y-56403335D01*
X99769000Y-56120665D01*
X99713853Y-55843426D01*
X99605680Y-55582273D01*
X99448637Y-55347241D01*
X99248759Y-55147363D01*
X99013727Y-54990320D01*
X98752574Y-54882147D01*
X98475335Y-54827000D01*
X98192665Y-54827000D01*
X98010114Y-54863312D01*
X97373803Y-54227002D01*
X97350001Y-54197999D01*
X97234276Y-54103026D01*
X97102247Y-54032454D01*
X96958986Y-53988997D01*
X96847333Y-53978000D01*
X96847322Y-53978000D01*
X96810000Y-53974324D01*
X96772678Y-53978000D01*
X95400322Y-53978000D01*
X95362999Y-53974324D01*
X95325676Y-53978000D01*
X95325667Y-53978000D01*
X95214014Y-53988997D01*
X95070753Y-54032454D01*
X94938724Y-54103026D01*
X94822999Y-54197999D01*
X94799201Y-54226997D01*
X94013002Y-55013197D01*
X93992790Y-55029784D01*
X93933727Y-54990320D01*
X93672574Y-54882147D01*
X93395335Y-54827000D01*
X93351801Y-54827000D01*
X95004635Y-53174167D01*
X95149589Y-53203000D01*
X95422411Y-53203000D01*
X95689989Y-53149775D01*
X95942043Y-53045371D01*
X96168886Y-52893799D01*
X96361799Y-52700886D01*
X96513371Y-52474043D01*
X96617775Y-52221989D01*
X96671000Y-51954411D01*
X96671000Y-51681589D01*
X96635476Y-51502999D01*
X99368198Y-51502999D01*
X103358790Y-55493592D01*
X103315000Y-55713740D01*
X103315000Y-56006260D01*
X103372068Y-56293158D01*
X103484010Y-56563411D01*
X103646525Y-56806632D01*
X103778380Y-56938487D01*
X103705820Y-56960498D01*
X103595506Y-57019463D01*
X103498815Y-57098815D01*
X103419463Y-57195506D01*
X103360498Y-57305820D01*
X103324188Y-57425518D01*
X103311928Y-57550000D01*
X103311928Y-59250000D01*
X103324188Y-59374482D01*
X103360498Y-59494180D01*
X103419463Y-59604494D01*
X103498815Y-59701185D01*
X103595506Y-59780537D01*
X103705820Y-59839502D01*
X103825518Y-59875812D01*
X103950000Y-59888072D01*
X105650000Y-59888072D01*
X105774482Y-59875812D01*
X105894180Y-59839502D01*
X106004494Y-59780537D01*
X106101185Y-59701185D01*
X106180537Y-59604494D01*
X106239502Y-59494180D01*
X106275812Y-59374482D01*
X106288072Y-59250000D01*
X106288072Y-57550000D01*
X106275812Y-57425518D01*
X106239502Y-57305820D01*
X106180537Y-57195506D01*
X106101185Y-57098815D01*
X106004494Y-57019463D01*
X105894180Y-56960498D01*
X105821620Y-56938487D01*
X105953475Y-56806632D01*
X106115990Y-56563411D01*
X106227932Y-56293158D01*
X106285000Y-56006260D01*
X106285000Y-55713740D01*
X106227932Y-55426842D01*
X106115990Y-55156589D01*
X105953475Y-54913368D01*
X105746632Y-54706525D01*
X105572240Y-54590000D01*
X105746632Y-54473475D01*
X105953475Y-54266632D01*
X106115990Y-54023411D01*
X106227932Y-53753158D01*
X106285000Y-53466260D01*
X106285000Y-53173740D01*
X106227932Y-52886842D01*
X106115990Y-52616589D01*
X105953475Y-52373368D01*
X105746632Y-52166525D01*
X105572240Y-52050000D01*
X105746632Y-51933475D01*
X105953475Y-51726632D01*
X106115990Y-51483411D01*
X106227932Y-51213158D01*
X106285000Y-50926260D01*
X106285000Y-50633740D01*
X106227932Y-50346842D01*
X106150540Y-50160000D01*
X110285199Y-50160000D01*
X111440000Y-51314802D01*
G37*
%TD.AperFunction*%
D24*
X114165010Y-79660188D02*
X113499971Y-80325227D01*
X113488513Y-80208889D01*
X113403599Y-79928966D01*
X113265706Y-79670986D01*
X113080134Y-79444866D01*
X112854014Y-79259294D01*
X112836626Y-79250000D01*
X112854014Y-79240706D01*
X113080134Y-79055134D01*
X113265706Y-78829014D01*
X113403599Y-78571034D01*
X113488513Y-78291111D01*
X113517185Y-78000000D01*
X113488513Y-77708889D01*
X113403599Y-77428966D01*
X113265706Y-77170986D01*
X113080134Y-76944866D01*
X112854014Y-76759294D01*
X112596034Y-76621401D01*
X112316111Y-76536487D01*
X112097950Y-76515000D01*
X111702050Y-76515000D01*
X111483889Y-76536487D01*
X111203966Y-76621401D01*
X110945986Y-76759294D01*
X110719866Y-76944866D01*
X110534294Y-77170986D01*
X110396401Y-77428966D01*
X110311487Y-77708889D01*
X110300029Y-77825227D01*
X109760000Y-77285199D01*
X109760000Y-70681427D01*
X109897174Y-70818601D01*
X110386072Y-71145273D01*
X110929308Y-71370288D01*
X111506003Y-71485000D01*
X112093997Y-71485000D01*
X112670692Y-71370288D01*
X113213928Y-71145273D01*
X113702826Y-70818601D01*
X114118601Y-70402826D01*
X114165010Y-70333370D01*
X114165010Y-79660188D01*
%TA.AperFunction,Conductor*%
D25*
G36*
X114165010Y-79660188D02*
G01*
X113499971Y-80325227D01*
X113488513Y-80208889D01*
X113403599Y-79928966D01*
X113265706Y-79670986D01*
X113080134Y-79444866D01*
X112854014Y-79259294D01*
X112836626Y-79250000D01*
X112854014Y-79240706D01*
X113080134Y-79055134D01*
X113265706Y-78829014D01*
X113403599Y-78571034D01*
X113488513Y-78291111D01*
X113517185Y-78000000D01*
X113488513Y-77708889D01*
X113403599Y-77428966D01*
X113265706Y-77170986D01*
X113080134Y-76944866D01*
X112854014Y-76759294D01*
X112596034Y-76621401D01*
X112316111Y-76536487D01*
X112097950Y-76515000D01*
X111702050Y-76515000D01*
X111483889Y-76536487D01*
X111203966Y-76621401D01*
X110945986Y-76759294D01*
X110719866Y-76944866D01*
X110534294Y-77170986D01*
X110396401Y-77428966D01*
X110311487Y-77708889D01*
X110300029Y-77825227D01*
X109760000Y-77285199D01*
X109760000Y-70681427D01*
X109897174Y-70818601D01*
X110386072Y-71145273D01*
X110929308Y-71370288D01*
X111506003Y-71485000D01*
X112093997Y-71485000D01*
X112670692Y-71370288D01*
X113213928Y-71145273D01*
X113702826Y-70818601D01*
X114118601Y-70402826D01*
X114165010Y-70333370D01*
X114165010Y-79660188D01*
G37*
%TD.AperFunction*%
D24*
X87059363Y-57176759D02*
X87259241Y-57376637D01*
X87494273Y-57533680D01*
X87755426Y-57641853D01*
X88032665Y-57697000D01*
X88315335Y-57697000D01*
X88592574Y-57641853D01*
X88684000Y-57603983D01*
X88684000Y-59757198D01*
X85957887Y-62483312D01*
X85775335Y-62447000D01*
X85492665Y-62447000D01*
X85215426Y-62502147D01*
X84954273Y-62610320D01*
X84719241Y-62767363D01*
X84519363Y-62967241D01*
X84362320Y-63202273D01*
X84254147Y-63463426D01*
X84199000Y-63740665D01*
X84199000Y-64023335D01*
X84254147Y-64300574D01*
X84362320Y-64561727D01*
X84519363Y-64796759D01*
X84719241Y-64996637D01*
X84784138Y-65040000D01*
X81403862Y-65040000D01*
X81468759Y-64996637D01*
X81668637Y-64796759D01*
X81825680Y-64561727D01*
X81933853Y-64300574D01*
X81989000Y-64023335D01*
X81989000Y-63740665D01*
X81933853Y-63463426D01*
X81825680Y-63202273D01*
X81689000Y-62997716D01*
X81689000Y-62616131D01*
X86397141Y-57907991D01*
X86440449Y-57872449D01*
X86582284Y-57699623D01*
X86687676Y-57502447D01*
X86752577Y-57288499D01*
X86766166Y-57150525D01*
X86904000Y-56944241D01*
X87059363Y-57176759D01*
%TA.AperFunction,Conductor*%
D25*
G36*
X87059363Y-57176759D02*
G01*
X87259241Y-57376637D01*
X87494273Y-57533680D01*
X87755426Y-57641853D01*
X88032665Y-57697000D01*
X88315335Y-57697000D01*
X88592574Y-57641853D01*
X88684000Y-57603983D01*
X88684000Y-59757198D01*
X85957887Y-62483312D01*
X85775335Y-62447000D01*
X85492665Y-62447000D01*
X85215426Y-62502147D01*
X84954273Y-62610320D01*
X84719241Y-62767363D01*
X84519363Y-62967241D01*
X84362320Y-63202273D01*
X84254147Y-63463426D01*
X84199000Y-63740665D01*
X84199000Y-64023335D01*
X84254147Y-64300574D01*
X84362320Y-64561727D01*
X84519363Y-64796759D01*
X84719241Y-64996637D01*
X84784138Y-65040000D01*
X81403862Y-65040000D01*
X81468759Y-64996637D01*
X81668637Y-64796759D01*
X81825680Y-64561727D01*
X81933853Y-64300574D01*
X81989000Y-64023335D01*
X81989000Y-63740665D01*
X81933853Y-63463426D01*
X81825680Y-63202273D01*
X81689000Y-62997716D01*
X81689000Y-62616131D01*
X86397141Y-57907991D01*
X86440449Y-57872449D01*
X86582284Y-57699623D01*
X86687676Y-57502447D01*
X86752577Y-57288499D01*
X86766166Y-57150525D01*
X86904000Y-56944241D01*
X87059363Y-57176759D01*
G37*
%TD.AperFunction*%
D24*
X70246525Y-45206632D02*
X70453368Y-45413475D01*
X70627760Y-45530000D01*
X70453368Y-45646525D01*
X70246525Y-45853368D01*
X70084010Y-46096589D01*
X69972068Y-46366842D01*
X69915000Y-46653740D01*
X69915000Y-46946260D01*
X69972068Y-47233158D01*
X70084010Y-47503411D01*
X70246525Y-47746632D01*
X70303578Y-47803685D01*
X70298102Y-47804774D01*
X70109744Y-47882795D01*
X69940226Y-47996063D01*
X69896289Y-48040000D01*
X68003711Y-48040000D01*
X67959774Y-47996063D01*
X67790256Y-47882795D01*
X67601898Y-47804774D01*
X67446286Y-47773821D01*
X67473475Y-47746632D01*
X67635990Y-47503411D01*
X67747932Y-47233158D01*
X67805000Y-46946260D01*
X67805000Y-46653740D01*
X67747932Y-46366842D01*
X67635990Y-46096589D01*
X67473475Y-45853368D01*
X67266632Y-45646525D01*
X67092240Y-45530000D01*
X67266632Y-45413475D01*
X67473475Y-45206632D01*
X67590000Y-45032240D01*
X67706525Y-45206632D01*
X67913368Y-45413475D01*
X68156589Y-45575990D01*
X68426842Y-45687932D01*
X68713740Y-45745000D01*
X69006260Y-45745000D01*
X69293158Y-45687932D01*
X69563411Y-45575990D01*
X69806632Y-45413475D01*
X70013475Y-45206632D01*
X70130000Y-45032240D01*
X70246525Y-45206632D01*
%TA.AperFunction,Conductor*%
D25*
G36*
X70246525Y-45206632D02*
G01*
X70453368Y-45413475D01*
X70627760Y-45530000D01*
X70453368Y-45646525D01*
X70246525Y-45853368D01*
X70084010Y-46096589D01*
X69972068Y-46366842D01*
X69915000Y-46653740D01*
X69915000Y-46946260D01*
X69972068Y-47233158D01*
X70084010Y-47503411D01*
X70246525Y-47746632D01*
X70303578Y-47803685D01*
X70298102Y-47804774D01*
X70109744Y-47882795D01*
X69940226Y-47996063D01*
X69896289Y-48040000D01*
X68003711Y-48040000D01*
X67959774Y-47996063D01*
X67790256Y-47882795D01*
X67601898Y-47804774D01*
X67446286Y-47773821D01*
X67473475Y-47746632D01*
X67635990Y-47503411D01*
X67747932Y-47233158D01*
X67805000Y-46946260D01*
X67805000Y-46653740D01*
X67747932Y-46366842D01*
X67635990Y-46096589D01*
X67473475Y-45853368D01*
X67266632Y-45646525D01*
X67092240Y-45530000D01*
X67266632Y-45413475D01*
X67473475Y-45206632D01*
X67590000Y-45032240D01*
X67706525Y-45206632D01*
X67913368Y-45413475D01*
X68156589Y-45575990D01*
X68426842Y-45687932D01*
X68713740Y-45745000D01*
X69006260Y-45745000D01*
X69293158Y-45687932D01*
X69563411Y-45575990D01*
X69806632Y-45413475D01*
X70013475Y-45206632D01*
X70130000Y-45032240D01*
X70246525Y-45206632D01*
G37*
%TD.AperFunction*%
D24*
X110386072Y-42854727D02*
X109897174Y-43181399D01*
X109481399Y-43597174D01*
X109154727Y-44086072D01*
X108929712Y-44629308D01*
X108815000Y-45206003D01*
X108815000Y-45793997D01*
X108929712Y-46370692D01*
X109154727Y-46913928D01*
X109481399Y-47402826D01*
X109618573Y-47540000D01*
X105711542Y-47540000D01*
X105735990Y-47503411D01*
X105847932Y-47233158D01*
X105905000Y-46946260D01*
X105905000Y-46653740D01*
X105847932Y-46366842D01*
X105735990Y-46096589D01*
X105573475Y-45853368D01*
X105366632Y-45646525D01*
X105192240Y-45530000D01*
X105366632Y-45413475D01*
X105573475Y-45206632D01*
X105690000Y-45032240D01*
X105806525Y-45206632D01*
X106013368Y-45413475D01*
X106256589Y-45575990D01*
X106526842Y-45687932D01*
X106813740Y-45745000D01*
X107106260Y-45745000D01*
X107393158Y-45687932D01*
X107663411Y-45575990D01*
X107906632Y-45413475D01*
X108113475Y-45206632D01*
X108275990Y-44963411D01*
X108387932Y-44693158D01*
X108445000Y-44406260D01*
X108445000Y-44113740D01*
X108387932Y-43826842D01*
X108275990Y-43556589D01*
X108113475Y-43313368D01*
X107906632Y-43106525D01*
X107663411Y-42944010D01*
X107393158Y-42832068D01*
X107106260Y-42775000D01*
X106813740Y-42775000D01*
X106526842Y-42832068D01*
X106256589Y-42944010D01*
X106013368Y-43106525D01*
X105806525Y-43313368D01*
X105690000Y-43487760D01*
X105573475Y-43313368D01*
X105366632Y-43106525D01*
X105123411Y-42944010D01*
X104853158Y-42832068D01*
X104566260Y-42775000D01*
X104273740Y-42775000D01*
X103986842Y-42832068D01*
X103716589Y-42944010D01*
X103473368Y-43106525D01*
X103266525Y-43313368D01*
X103150000Y-43487760D01*
X103033475Y-43313368D01*
X102826632Y-43106525D01*
X102583411Y-42944010D01*
X102313158Y-42832068D01*
X102026260Y-42775000D01*
X101733740Y-42775000D01*
X101446842Y-42832068D01*
X101176589Y-42944010D01*
X100933368Y-43106525D01*
X100726525Y-43313368D01*
X100564010Y-43556589D01*
X100452068Y-43826842D01*
X100395000Y-44113740D01*
X100395000Y-44406260D01*
X100452068Y-44693158D01*
X100564010Y-44963411D01*
X100726525Y-45206632D01*
X100933368Y-45413475D01*
X101107760Y-45530000D01*
X100933368Y-45646525D01*
X100726525Y-45853368D01*
X100610000Y-46027760D01*
X100493475Y-45853368D01*
X100286632Y-45646525D01*
X100043411Y-45484010D01*
X99773158Y-45372068D01*
X99486260Y-45315000D01*
X99193740Y-45315000D01*
X98906842Y-45372068D01*
X98636589Y-45484010D01*
X98393368Y-45646525D01*
X98186525Y-45853368D01*
X98070000Y-46027760D01*
X97953475Y-45853368D01*
X97746632Y-45646525D01*
X97572240Y-45530000D01*
X97746632Y-45413475D01*
X97953475Y-45206632D01*
X98115990Y-44963411D01*
X98227932Y-44693158D01*
X98285000Y-44406260D01*
X98285000Y-44113740D01*
X98227932Y-43826842D01*
X98115990Y-43556589D01*
X97953475Y-43313368D01*
X97746632Y-43106525D01*
X97503411Y-42944010D01*
X97233158Y-42832068D01*
X96946260Y-42775000D01*
X96653740Y-42775000D01*
X96366842Y-42832068D01*
X96096589Y-42944010D01*
X95853368Y-43106525D01*
X95646525Y-43313368D01*
X95484010Y-43556589D01*
X95372068Y-43826842D01*
X95315000Y-44113740D01*
X95315000Y-44406260D01*
X95372068Y-44693158D01*
X95484010Y-44963411D01*
X95646525Y-45206632D01*
X95853368Y-45413475D01*
X96027760Y-45530000D01*
X95853368Y-45646525D01*
X95646525Y-45853368D01*
X95530000Y-46027760D01*
X95413475Y-45853368D01*
X95206632Y-45646525D01*
X94963411Y-45484010D01*
X94693158Y-45372068D01*
X94406260Y-45315000D01*
X94113740Y-45315000D01*
X93826842Y-45372068D01*
X93556589Y-45484010D01*
X93313368Y-45646525D01*
X93106525Y-45853368D01*
X92990000Y-46027760D01*
X92873475Y-45853368D01*
X92666632Y-45646525D01*
X92492240Y-45530000D01*
X92666632Y-45413475D01*
X92873475Y-45206632D01*
X93035990Y-44963411D01*
X93147932Y-44693158D01*
X93205000Y-44406260D01*
X93205000Y-44113740D01*
X93147932Y-43826842D01*
X93035990Y-43556589D01*
X92873475Y-43313368D01*
X92666632Y-43106525D01*
X92423411Y-42944010D01*
X92153158Y-42832068D01*
X91866260Y-42775000D01*
X91573740Y-42775000D01*
X91286842Y-42832068D01*
X91016589Y-42944010D01*
X90773368Y-43106525D01*
X90566525Y-43313368D01*
X90450000Y-43487760D01*
X90333475Y-43313368D01*
X90126632Y-43106525D01*
X89883411Y-42944010D01*
X89613158Y-42832068D01*
X89326260Y-42775000D01*
X89033740Y-42775000D01*
X88746842Y-42832068D01*
X88476589Y-42944010D01*
X88233368Y-43106525D01*
X88026525Y-43313368D01*
X87910000Y-43487760D01*
X87793475Y-43313368D01*
X87586632Y-43106525D01*
X87343411Y-42944010D01*
X87073158Y-42832068D01*
X86786260Y-42775000D01*
X86493740Y-42775000D01*
X86206842Y-42832068D01*
X85936589Y-42944010D01*
X85693368Y-43106525D01*
X85486525Y-43313368D01*
X85370000Y-43487760D01*
X85253475Y-43313368D01*
X85046632Y-43106525D01*
X84803411Y-42944010D01*
X84533158Y-42832068D01*
X84246260Y-42775000D01*
X83953740Y-42775000D01*
X83666842Y-42832068D01*
X83396589Y-42944010D01*
X83153368Y-43106525D01*
X82946525Y-43313368D01*
X82784010Y-43556589D01*
X82672068Y-43826842D01*
X82615000Y-44113740D01*
X82615000Y-44406260D01*
X82672068Y-44693158D01*
X82784010Y-44963411D01*
X82946525Y-45206632D01*
X83153368Y-45413475D01*
X83327760Y-45530000D01*
X83153368Y-45646525D01*
X82946525Y-45853368D01*
X82830000Y-46027760D01*
X82713475Y-45853368D01*
X82506632Y-45646525D01*
X82263411Y-45484010D01*
X81993158Y-45372068D01*
X81706260Y-45315000D01*
X81413740Y-45315000D01*
X81126842Y-45372068D01*
X80856589Y-45484010D01*
X80613368Y-45646525D01*
X80406525Y-45853368D01*
X80290000Y-46027760D01*
X80173475Y-45853368D01*
X79966632Y-45646525D01*
X79792240Y-45530000D01*
X79966632Y-45413475D01*
X80173475Y-45206632D01*
X80335990Y-44963411D01*
X80447932Y-44693158D01*
X80505000Y-44406260D01*
X80505000Y-44113740D01*
X80447932Y-43826842D01*
X80335990Y-43556589D01*
X80173475Y-43313368D01*
X79966632Y-43106525D01*
X79723411Y-42944010D01*
X79453158Y-42832068D01*
X79166260Y-42775000D01*
X78873740Y-42775000D01*
X78586842Y-42832068D01*
X78316589Y-42944010D01*
X78073368Y-43106525D01*
X77866525Y-43313368D01*
X77750000Y-43487760D01*
X77633475Y-43313368D01*
X77426632Y-43106525D01*
X77183411Y-42944010D01*
X76913158Y-42832068D01*
X76626260Y-42775000D01*
X76333740Y-42775000D01*
X76046842Y-42832068D01*
X75776589Y-42944010D01*
X75533368Y-43106525D01*
X75326525Y-43313368D01*
X75164010Y-43556589D01*
X75052068Y-43826842D01*
X74995000Y-44113740D01*
X74995000Y-44406260D01*
X75052068Y-44693158D01*
X75164010Y-44963411D01*
X75326525Y-45206632D01*
X75533368Y-45413475D01*
X75707760Y-45530000D01*
X75533368Y-45646525D01*
X75326525Y-45853368D01*
X75210000Y-46027760D01*
X75093475Y-45853368D01*
X74886632Y-45646525D01*
X74643411Y-45484010D01*
X74373158Y-45372068D01*
X74086260Y-45315000D01*
X73793740Y-45315000D01*
X73506842Y-45372068D01*
X73236589Y-45484010D01*
X72993368Y-45646525D01*
X72786525Y-45853368D01*
X72670000Y-46027760D01*
X72553475Y-45853368D01*
X72346632Y-45646525D01*
X72172240Y-45530000D01*
X72346632Y-45413475D01*
X72553475Y-45206632D01*
X72715990Y-44963411D01*
X72827932Y-44693158D01*
X72885000Y-44406260D01*
X72885000Y-44113740D01*
X72827932Y-43826842D01*
X72715990Y-43556589D01*
X72553475Y-43313368D01*
X72346632Y-43106525D01*
X72103411Y-42944010D01*
X71833158Y-42832068D01*
X71546260Y-42775000D01*
X71253740Y-42775000D01*
X70966842Y-42832068D01*
X70696589Y-42944010D01*
X70453368Y-43106525D01*
X70246525Y-43313368D01*
X70130000Y-43487760D01*
X70013475Y-43313368D01*
X69806632Y-43106525D01*
X69563411Y-42944010D01*
X69293158Y-42832068D01*
X69006260Y-42775000D01*
X68713740Y-42775000D01*
X68426842Y-42832068D01*
X68156589Y-42944010D01*
X67913368Y-43106525D01*
X67706525Y-43313368D01*
X67590000Y-43487760D01*
X67473475Y-43313368D01*
X67266632Y-43106525D01*
X67023411Y-42944010D01*
X66753158Y-42832068D01*
X66466260Y-42775000D01*
X66173740Y-42775000D01*
X65886842Y-42832068D01*
X65616589Y-42944010D01*
X65373368Y-43106525D01*
X65166525Y-43313368D01*
X65004010Y-43556589D01*
X64892068Y-43826842D01*
X64835000Y-44113740D01*
X64835000Y-44406260D01*
X64892068Y-44693158D01*
X65004010Y-44963411D01*
X65166525Y-45206632D01*
X65373368Y-45413475D01*
X65547760Y-45530000D01*
X65373368Y-45646525D01*
X65166525Y-45853368D01*
X65050000Y-46027760D01*
X64933475Y-45853368D01*
X64726632Y-45646525D01*
X64483411Y-45484010D01*
X64213158Y-45372068D01*
X63926260Y-45315000D01*
X63633740Y-45315000D01*
X63346842Y-45372068D01*
X63076589Y-45484010D01*
X62833368Y-45646525D01*
X62626525Y-45853368D01*
X62510000Y-46027760D01*
X62393475Y-45853368D01*
X62186632Y-45646525D01*
X62012240Y-45530000D01*
X62186632Y-45413475D01*
X62393475Y-45206632D01*
X62555990Y-44963411D01*
X62667932Y-44693158D01*
X62725000Y-44406260D01*
X62725000Y-44113740D01*
X62667932Y-43826842D01*
X62555990Y-43556589D01*
X62393475Y-43313368D01*
X62186632Y-43106525D01*
X61943411Y-42944010D01*
X61673158Y-42832068D01*
X61386260Y-42775000D01*
X61093740Y-42775000D01*
X60806842Y-42832068D01*
X60536589Y-42944010D01*
X60293368Y-43106525D01*
X60274893Y-43125000D01*
X59665107Y-43125000D01*
X59646632Y-43106525D01*
X59403411Y-42944010D01*
X59133158Y-42832068D01*
X58846260Y-42775000D01*
X58553740Y-42775000D01*
X58266842Y-42832068D01*
X57996589Y-42944010D01*
X57753368Y-43106525D01*
X57734893Y-43125000D01*
X57553670Y-43125000D01*
X57497918Y-43119509D01*
X57275419Y-43141423D01*
X57260361Y-43145991D01*
X57061472Y-43206324D01*
X56864296Y-43311716D01*
X56691470Y-43453551D01*
X56655923Y-43496865D01*
X56293644Y-43859144D01*
X56118601Y-43597174D01*
X55702826Y-43181399D01*
X55213928Y-42854727D01*
X54743814Y-42660000D01*
X110856186Y-42660000D01*
X110386072Y-42854727D01*
%TA.AperFunction,Conductor*%
D25*
G36*
X110386072Y-42854727D02*
G01*
X109897174Y-43181399D01*
X109481399Y-43597174D01*
X109154727Y-44086072D01*
X108929712Y-44629308D01*
X108815000Y-45206003D01*
X108815000Y-45793997D01*
X108929712Y-46370692D01*
X109154727Y-46913928D01*
X109481399Y-47402826D01*
X109618573Y-47540000D01*
X105711542Y-47540000D01*
X105735990Y-47503411D01*
X105847932Y-47233158D01*
X105905000Y-46946260D01*
X105905000Y-46653740D01*
X105847932Y-46366842D01*
X105735990Y-46096589D01*
X105573475Y-45853368D01*
X105366632Y-45646525D01*
X105192240Y-45530000D01*
X105366632Y-45413475D01*
X105573475Y-45206632D01*
X105690000Y-45032240D01*
X105806525Y-45206632D01*
X106013368Y-45413475D01*
X106256589Y-45575990D01*
X106526842Y-45687932D01*
X106813740Y-45745000D01*
X107106260Y-45745000D01*
X107393158Y-45687932D01*
X107663411Y-45575990D01*
X107906632Y-45413475D01*
X108113475Y-45206632D01*
X108275990Y-44963411D01*
X108387932Y-44693158D01*
X108445000Y-44406260D01*
X108445000Y-44113740D01*
X108387932Y-43826842D01*
X108275990Y-43556589D01*
X108113475Y-43313368D01*
X107906632Y-43106525D01*
X107663411Y-42944010D01*
X107393158Y-42832068D01*
X107106260Y-42775000D01*
X106813740Y-42775000D01*
X106526842Y-42832068D01*
X106256589Y-42944010D01*
X106013368Y-43106525D01*
X105806525Y-43313368D01*
X105690000Y-43487760D01*
X105573475Y-43313368D01*
X105366632Y-43106525D01*
X105123411Y-42944010D01*
X104853158Y-42832068D01*
X104566260Y-42775000D01*
X104273740Y-42775000D01*
X103986842Y-42832068D01*
X103716589Y-42944010D01*
X103473368Y-43106525D01*
X103266525Y-43313368D01*
X103150000Y-43487760D01*
X103033475Y-43313368D01*
X102826632Y-43106525D01*
X102583411Y-42944010D01*
X102313158Y-42832068D01*
X102026260Y-42775000D01*
X101733740Y-42775000D01*
X101446842Y-42832068D01*
X101176589Y-42944010D01*
X100933368Y-43106525D01*
X100726525Y-43313368D01*
X100564010Y-43556589D01*
X100452068Y-43826842D01*
X100395000Y-44113740D01*
X100395000Y-44406260D01*
X100452068Y-44693158D01*
X100564010Y-44963411D01*
X100726525Y-45206632D01*
X100933368Y-45413475D01*
X101107760Y-45530000D01*
X100933368Y-45646525D01*
X100726525Y-45853368D01*
X100610000Y-46027760D01*
X100493475Y-45853368D01*
X100286632Y-45646525D01*
X100043411Y-45484010D01*
X99773158Y-45372068D01*
X99486260Y-45315000D01*
X99193740Y-45315000D01*
X98906842Y-45372068D01*
X98636589Y-45484010D01*
X98393368Y-45646525D01*
X98186525Y-45853368D01*
X98070000Y-46027760D01*
X97953475Y-45853368D01*
X97746632Y-45646525D01*
X97572240Y-45530000D01*
X97746632Y-45413475D01*
X97953475Y-45206632D01*
X98115990Y-44963411D01*
X98227932Y-44693158D01*
X98285000Y-44406260D01*
X98285000Y-44113740D01*
X98227932Y-43826842D01*
X98115990Y-43556589D01*
X97953475Y-43313368D01*
X97746632Y-43106525D01*
X97503411Y-42944010D01*
X97233158Y-42832068D01*
X96946260Y-42775000D01*
X96653740Y-42775000D01*
X96366842Y-42832068D01*
X96096589Y-42944010D01*
X95853368Y-43106525D01*
X95646525Y-43313368D01*
X95484010Y-43556589D01*
X95372068Y-43826842D01*
X95315000Y-44113740D01*
X95315000Y-44406260D01*
X95372068Y-44693158D01*
X95484010Y-44963411D01*
X95646525Y-45206632D01*
X95853368Y-45413475D01*
X96027760Y-45530000D01*
X95853368Y-45646525D01*
X95646525Y-45853368D01*
X95530000Y-46027760D01*
X95413475Y-45853368D01*
X95206632Y-45646525D01*
X94963411Y-45484010D01*
X94693158Y-45372068D01*
X94406260Y-45315000D01*
X94113740Y-45315000D01*
X93826842Y-45372068D01*
X93556589Y-45484010D01*
X93313368Y-45646525D01*
X93106525Y-45853368D01*
X92990000Y-46027760D01*
X92873475Y-45853368D01*
X92666632Y-45646525D01*
X92492240Y-45530000D01*
X92666632Y-45413475D01*
X92873475Y-45206632D01*
X93035990Y-44963411D01*
X93147932Y-44693158D01*
X93205000Y-44406260D01*
X93205000Y-44113740D01*
X93147932Y-43826842D01*
X93035990Y-43556589D01*
X92873475Y-43313368D01*
X92666632Y-43106525D01*
X92423411Y-42944010D01*
X92153158Y-42832068D01*
X91866260Y-42775000D01*
X91573740Y-42775000D01*
X91286842Y-42832068D01*
X91016589Y-42944010D01*
X90773368Y-43106525D01*
X90566525Y-43313368D01*
X90450000Y-43487760D01*
X90333475Y-43313368D01*
X90126632Y-43106525D01*
X89883411Y-42944010D01*
X89613158Y-42832068D01*
X89326260Y-42775000D01*
X89033740Y-42775000D01*
X88746842Y-42832068D01*
X88476589Y-42944010D01*
X88233368Y-43106525D01*
X88026525Y-43313368D01*
X87910000Y-43487760D01*
X87793475Y-43313368D01*
X87586632Y-43106525D01*
X87343411Y-42944010D01*
X87073158Y-42832068D01*
X86786260Y-42775000D01*
X86493740Y-42775000D01*
X86206842Y-42832068D01*
X85936589Y-42944010D01*
X85693368Y-43106525D01*
X85486525Y-43313368D01*
X85370000Y-43487760D01*
X85253475Y-43313368D01*
X85046632Y-43106525D01*
X84803411Y-42944010D01*
X84533158Y-42832068D01*
X84246260Y-42775000D01*
X83953740Y-42775000D01*
X83666842Y-42832068D01*
X83396589Y-42944010D01*
X83153368Y-43106525D01*
X82946525Y-43313368D01*
X82784010Y-43556589D01*
X82672068Y-43826842D01*
X82615000Y-44113740D01*
X82615000Y-44406260D01*
X82672068Y-44693158D01*
X82784010Y-44963411D01*
X82946525Y-45206632D01*
X83153368Y-45413475D01*
X83327760Y-45530000D01*
X83153368Y-45646525D01*
X82946525Y-45853368D01*
X82830000Y-46027760D01*
X82713475Y-45853368D01*
X82506632Y-45646525D01*
X82263411Y-45484010D01*
X81993158Y-45372068D01*
X81706260Y-45315000D01*
X81413740Y-45315000D01*
X81126842Y-45372068D01*
X80856589Y-45484010D01*
X80613368Y-45646525D01*
X80406525Y-45853368D01*
X80290000Y-46027760D01*
X80173475Y-45853368D01*
X79966632Y-45646525D01*
X79792240Y-45530000D01*
X79966632Y-45413475D01*
X80173475Y-45206632D01*
X80335990Y-44963411D01*
X80447932Y-44693158D01*
X80505000Y-44406260D01*
X80505000Y-44113740D01*
X80447932Y-43826842D01*
X80335990Y-43556589D01*
X80173475Y-43313368D01*
X79966632Y-43106525D01*
X79723411Y-42944010D01*
X79453158Y-42832068D01*
X79166260Y-42775000D01*
X78873740Y-42775000D01*
X78586842Y-42832068D01*
X78316589Y-42944010D01*
X78073368Y-43106525D01*
X77866525Y-43313368D01*
X77750000Y-43487760D01*
X77633475Y-43313368D01*
X77426632Y-43106525D01*
X77183411Y-42944010D01*
X76913158Y-42832068D01*
X76626260Y-42775000D01*
X76333740Y-42775000D01*
X76046842Y-42832068D01*
X75776589Y-42944010D01*
X75533368Y-43106525D01*
X75326525Y-43313368D01*
X75164010Y-43556589D01*
X75052068Y-43826842D01*
X74995000Y-44113740D01*
X74995000Y-44406260D01*
X75052068Y-44693158D01*
X75164010Y-44963411D01*
X75326525Y-45206632D01*
X75533368Y-45413475D01*
X75707760Y-45530000D01*
X75533368Y-45646525D01*
X75326525Y-45853368D01*
X75210000Y-46027760D01*
X75093475Y-45853368D01*
X74886632Y-45646525D01*
X74643411Y-45484010D01*
X74373158Y-45372068D01*
X74086260Y-45315000D01*
X73793740Y-45315000D01*
X73506842Y-45372068D01*
X73236589Y-45484010D01*
X72993368Y-45646525D01*
X72786525Y-45853368D01*
X72670000Y-46027760D01*
X72553475Y-45853368D01*
X72346632Y-45646525D01*
X72172240Y-45530000D01*
X72346632Y-45413475D01*
X72553475Y-45206632D01*
X72715990Y-44963411D01*
X72827932Y-44693158D01*
X72885000Y-44406260D01*
X72885000Y-44113740D01*
X72827932Y-43826842D01*
X72715990Y-43556589D01*
X72553475Y-43313368D01*
X72346632Y-43106525D01*
X72103411Y-42944010D01*
X71833158Y-42832068D01*
X71546260Y-42775000D01*
X71253740Y-42775000D01*
X70966842Y-42832068D01*
X70696589Y-42944010D01*
X70453368Y-43106525D01*
X70246525Y-43313368D01*
X70130000Y-43487760D01*
X70013475Y-43313368D01*
X69806632Y-43106525D01*
X69563411Y-42944010D01*
X69293158Y-42832068D01*
X69006260Y-42775000D01*
X68713740Y-42775000D01*
X68426842Y-42832068D01*
X68156589Y-42944010D01*
X67913368Y-43106525D01*
X67706525Y-43313368D01*
X67590000Y-43487760D01*
X67473475Y-43313368D01*
X67266632Y-43106525D01*
X67023411Y-42944010D01*
X66753158Y-42832068D01*
X66466260Y-42775000D01*
X66173740Y-42775000D01*
X65886842Y-42832068D01*
X65616589Y-42944010D01*
X65373368Y-43106525D01*
X65166525Y-43313368D01*
X65004010Y-43556589D01*
X64892068Y-43826842D01*
X64835000Y-44113740D01*
X64835000Y-44406260D01*
X64892068Y-44693158D01*
X65004010Y-44963411D01*
X65166525Y-45206632D01*
X65373368Y-45413475D01*
X65547760Y-45530000D01*
X65373368Y-45646525D01*
X65166525Y-45853368D01*
X65050000Y-46027760D01*
X64933475Y-45853368D01*
X64726632Y-45646525D01*
X64483411Y-45484010D01*
X64213158Y-45372068D01*
X63926260Y-45315000D01*
X63633740Y-45315000D01*
X63346842Y-45372068D01*
X63076589Y-45484010D01*
X62833368Y-45646525D01*
X62626525Y-45853368D01*
X62510000Y-46027760D01*
X62393475Y-45853368D01*
X62186632Y-45646525D01*
X62012240Y-45530000D01*
X62186632Y-45413475D01*
X62393475Y-45206632D01*
X62555990Y-44963411D01*
X62667932Y-44693158D01*
X62725000Y-44406260D01*
X62725000Y-44113740D01*
X62667932Y-43826842D01*
X62555990Y-43556589D01*
X62393475Y-43313368D01*
X62186632Y-43106525D01*
X61943411Y-42944010D01*
X61673158Y-42832068D01*
X61386260Y-42775000D01*
X61093740Y-42775000D01*
X60806842Y-42832068D01*
X60536589Y-42944010D01*
X60293368Y-43106525D01*
X60274893Y-43125000D01*
X59665107Y-43125000D01*
X59646632Y-43106525D01*
X59403411Y-42944010D01*
X59133158Y-42832068D01*
X58846260Y-42775000D01*
X58553740Y-42775000D01*
X58266842Y-42832068D01*
X57996589Y-42944010D01*
X57753368Y-43106525D01*
X57734893Y-43125000D01*
X57553670Y-43125000D01*
X57497918Y-43119509D01*
X57275419Y-43141423D01*
X57260361Y-43145991D01*
X57061472Y-43206324D01*
X56864296Y-43311716D01*
X56691470Y-43453551D01*
X56655923Y-43496865D01*
X56293644Y-43859144D01*
X56118601Y-43597174D01*
X55702826Y-43181399D01*
X55213928Y-42854727D01*
X54743814Y-42660000D01*
X110856186Y-42660000D01*
X110386072Y-42854727D01*
G37*
%TD.AperFunction*%
D24*
X90566525Y-45206632D02*
X90773368Y-45413475D01*
X90947760Y-45530000D01*
X90773368Y-45646525D01*
X90566525Y-45853368D01*
X90404010Y-46096589D01*
X90292068Y-46366842D01*
X90235000Y-46653740D01*
X90235000Y-46946260D01*
X90292068Y-47233158D01*
X90404010Y-47503411D01*
X90428458Y-47540000D01*
X87931542Y-47540000D01*
X87955990Y-47503411D01*
X88067932Y-47233158D01*
X88125000Y-46946260D01*
X88125000Y-46653740D01*
X88067932Y-46366842D01*
X87955990Y-46096589D01*
X87793475Y-45853368D01*
X87586632Y-45646525D01*
X87412240Y-45530000D01*
X87586632Y-45413475D01*
X87793475Y-45206632D01*
X87910000Y-45032240D01*
X88026525Y-45206632D01*
X88233368Y-45413475D01*
X88476589Y-45575990D01*
X88746842Y-45687932D01*
X89033740Y-45745000D01*
X89326260Y-45745000D01*
X89613158Y-45687932D01*
X89883411Y-45575990D01*
X90126632Y-45413475D01*
X90333475Y-45206632D01*
X90450000Y-45032240D01*
X90566525Y-45206632D01*
%TA.AperFunction,Conductor*%
D25*
G36*
X90566525Y-45206632D02*
G01*
X90773368Y-45413475D01*
X90947760Y-45530000D01*
X90773368Y-45646525D01*
X90566525Y-45853368D01*
X90404010Y-46096589D01*
X90292068Y-46366842D01*
X90235000Y-46653740D01*
X90235000Y-46946260D01*
X90292068Y-47233158D01*
X90404010Y-47503411D01*
X90428458Y-47540000D01*
X87931542Y-47540000D01*
X87955990Y-47503411D01*
X88067932Y-47233158D01*
X88125000Y-46946260D01*
X88125000Y-46653740D01*
X88067932Y-46366842D01*
X87955990Y-46096589D01*
X87793475Y-45853368D01*
X87586632Y-45646525D01*
X87412240Y-45530000D01*
X87586632Y-45413475D01*
X87793475Y-45206632D01*
X87910000Y-45032240D01*
X88026525Y-45206632D01*
X88233368Y-45413475D01*
X88476589Y-45575990D01*
X88746842Y-45687932D01*
X89033740Y-45745000D01*
X89326260Y-45745000D01*
X89613158Y-45687932D01*
X89883411Y-45575990D01*
X90126632Y-45413475D01*
X90333475Y-45206632D01*
X90450000Y-45032240D01*
X90566525Y-45206632D01*
G37*
%TD.AperFunction*%
%TD*%
M02*
