M48
; DRILL file {KiCad 5.1.10} date Sat Nov  6 21:22:06 2021
; FORMAT={-:-/ absolute / metric / decimal}
; #@! TF.CreationDate,2021-11-06T21:22:06+05:45
; #@! TF.GenerationSoftware,Kicad,Pcbnew,5.1.10
; #@! TF.FileFunction,Plated,1,2,PTH
FMAT,2
METRIC
T1C0.400
T2C0.800
T3C0.950
T4C1.000
T5C2.700
%
G90
G05
T1
X52.5Y-99.2
X55.1Y-86.35
X55.1Y-89.75
X67.3Y-48.8
X70.6Y-48.8
X70.6Y-61.1
X74.65Y-70.85
X75.6Y-58.8
X77.0Y-51.5
X84.2Y-61.1
X87.7Y-54.5
X88.44Y-84.53
X98.1Y-84.6
X101.3Y-61.5
X106.6Y-60.9
X106.9Y-78.0
X108.4Y-53.4
X108.4Y-58.4
X108.7Y-62.9
T2
X65.314Y-56.262
X65.314Y-63.882
X67.854Y-56.262
X67.854Y-63.882
X70.394Y-56.262
X70.394Y-63.882
X72.934Y-56.262
X72.934Y-63.882
X75.474Y-56.262
X75.474Y-63.882
X78.014Y-56.262
X78.014Y-63.882
X80.554Y-56.262
X80.554Y-63.882
X83.094Y-56.262
X83.094Y-63.882
X85.634Y-56.262
X85.634Y-63.882
X88.174Y-56.262
X88.174Y-63.882
X90.406Y-51.818
X90.714Y-56.262
X90.714Y-63.882
X93.254Y-56.262
X93.254Y-63.882
X95.286Y-51.818
X95.794Y-56.262
X95.794Y-63.882
X98.334Y-56.262
X98.334Y-63.882
T3
X86.25Y-101.75
X88.75Y-101.75
X91.25Y-101.75
X97.3Y-101.75
X99.8Y-101.75
X102.3Y-101.75
X111.9Y-75.5
X111.9Y-78.0
X111.9Y-80.5
X111.9Y-83.0
T4
X53.8Y-75.4
X53.8Y-77.9
X55.2Y-101.7
X57.7Y-101.7
X58.7Y-44.26
X58.7Y-46.8
X60.9Y-50.9
X60.9Y-53.44
X60.9Y-55.98
X60.9Y-58.52
X60.9Y-61.06
X60.9Y-63.6
X61.24Y-44.26
X61.24Y-46.8
X63.78Y-44.26
X63.78Y-46.8
X66.32Y-44.26
X66.32Y-46.8
X68.86Y-44.26
X68.86Y-46.8
X71.4Y-44.26
X71.4Y-46.8
X73.94Y-44.26
X73.94Y-46.8
X76.48Y-44.26
X76.48Y-46.8
X77.7Y-101.75
X79.02Y-44.26
X79.02Y-46.8
X80.2Y-101.75
X81.56Y-44.26
X81.56Y-46.8
X84.1Y-44.26
X84.1Y-46.8
X85.9Y-75.06
X85.9Y-90.3
X86.64Y-44.26
X86.64Y-46.8
X88.44Y-75.06
X88.44Y-90.3
X89.18Y-44.26
X89.18Y-46.8
X90.98Y-75.06
X90.98Y-90.3
X91.72Y-44.26
X91.72Y-46.8
X93.52Y-75.06
X93.52Y-90.3
X94.26Y-44.26
X94.26Y-46.8
X96.06Y-75.06
X96.06Y-90.3
X96.8Y-44.26
X96.8Y-46.8
X98.6Y-75.06
X98.6Y-90.3
X99.34Y-44.26
X99.34Y-46.8
X101.14Y-75.06
X101.14Y-90.3
X101.82Y-67.3
X101.82Y-69.84
X101.88Y-44.26
X101.88Y-46.8
X103.68Y-75.06
X103.68Y-90.3
X104.36Y-67.3
X104.36Y-69.84
X104.42Y-44.26
X104.42Y-46.8
X104.8Y-50.78
X104.8Y-53.32
X104.8Y-55.86
X104.8Y-58.4
X106.9Y-67.3
X106.9Y-69.84
X106.96Y-44.26
X106.96Y-46.8
X108.35Y-101.75
X110.85Y-101.75
T5
X53.8Y-45.5
X53.8Y-68.5
X53.8Y-94.5
X111.8Y-45.5
X111.8Y-68.5
X111.8Y-94.5
T0
M30
