%TF.GenerationSoftware,KiCad,Pcbnew,5.1.10*%
%TF.CreationDate,2021-11-06T21:22:03+05:45*%
%TF.ProjectId,RobotHat,526f626f-7448-4617-942e-6b696361645f,rev?*%
%TF.SameCoordinates,Original*%
%TF.FileFunction,Paste,Top*%
%TF.FilePolarity,Positive*%
%FSLAX46Y46*%
G04 Gerber Fmt 4.6, Leading zero omitted, Abs format (unit mm)*
G04 Created by KiCad (PCBNEW 5.1.10) date 2021-11-06 21:22:03*
%MOMM*%
%LPD*%
G01*
G04 APERTURE LIST*
%ADD10R,1.000000X0.750000*%
%ADD11R,0.800000X0.900000*%
%ADD12R,2.800000X5.400000*%
%ADD13R,0.900000X0.800000*%
%ADD14R,4.550000X5.250000*%
%ADD15R,4.600000X1.100000*%
G04 APERTURE END LIST*
D10*
%TO.C,SW1*%
X114000000Y-60925000D03*
X108000000Y-60925000D03*
X114000000Y-64675000D03*
X108000000Y-64675000D03*
%TD*%
%TO.C,C7*%
G36*
G01*
X92849999Y-95400000D02*
X94150001Y-95400000D01*
G75*
G02*
X94400000Y-95649999I0J-249999D01*
G01*
X94400000Y-96300001D01*
G75*
G02*
X94150001Y-96550000I-249999J0D01*
G01*
X92849999Y-96550000D01*
G75*
G02*
X92600000Y-96300001I0J249999D01*
G01*
X92600000Y-95649999D01*
G75*
G02*
X92849999Y-95400000I249999J0D01*
G01*
G37*
G36*
G01*
X92849999Y-92450000D02*
X94150001Y-92450000D01*
G75*
G02*
X94400000Y-92699999I0J-249999D01*
G01*
X94400000Y-93350001D01*
G75*
G02*
X94150001Y-93600000I-249999J0D01*
G01*
X92849999Y-93600000D01*
G75*
G02*
X92600000Y-93350001I0J249999D01*
G01*
X92600000Y-92699999D01*
G75*
G02*
X92849999Y-92450000I249999J0D01*
G01*
G37*
%TD*%
%TO.C,D2*%
G36*
G01*
X102875000Y-62872500D02*
X102875000Y-62527500D01*
G75*
G02*
X103022500Y-62380000I147500J0D01*
G01*
X103317500Y-62380000D01*
G75*
G02*
X103465000Y-62527500I0J-147500D01*
G01*
X103465000Y-62872500D01*
G75*
G02*
X103317500Y-63020000I-147500J0D01*
G01*
X103022500Y-63020000D01*
G75*
G02*
X102875000Y-62872500I0J147500D01*
G01*
G37*
G36*
G01*
X101905000Y-62872500D02*
X101905000Y-62527500D01*
G75*
G02*
X102052500Y-62380000I147500J0D01*
G01*
X102347500Y-62380000D01*
G75*
G02*
X102495000Y-62527500I0J-147500D01*
G01*
X102495000Y-62872500D01*
G75*
G02*
X102347500Y-63020000I-147500J0D01*
G01*
X102052500Y-63020000D01*
G75*
G02*
X101905000Y-62872500I0J147500D01*
G01*
G37*
%TD*%
%TO.C,R2*%
G36*
G01*
X102840000Y-64185000D02*
X102840000Y-63815000D01*
G75*
G02*
X102975000Y-63680000I135000J0D01*
G01*
X103245000Y-63680000D01*
G75*
G02*
X103380000Y-63815000I0J-135000D01*
G01*
X103380000Y-64185000D01*
G75*
G02*
X103245000Y-64320000I-135000J0D01*
G01*
X102975000Y-64320000D01*
G75*
G02*
X102840000Y-64185000I0J135000D01*
G01*
G37*
G36*
G01*
X101820000Y-64185000D02*
X101820000Y-63815000D01*
G75*
G02*
X101955000Y-63680000I135000J0D01*
G01*
X102225000Y-63680000D01*
G75*
G02*
X102360000Y-63815000I0J-135000D01*
G01*
X102360000Y-64185000D01*
G75*
G02*
X102225000Y-64320000I-135000J0D01*
G01*
X101955000Y-64320000D01*
G75*
G02*
X101820000Y-64185000I0J135000D01*
G01*
G37*
%TD*%
%TO.C,D4*%
G36*
G01*
X106915000Y-90772500D02*
X106915000Y-90427500D01*
G75*
G02*
X107062500Y-90280000I147500J0D01*
G01*
X107357500Y-90280000D01*
G75*
G02*
X107505000Y-90427500I0J-147500D01*
G01*
X107505000Y-90772500D01*
G75*
G02*
X107357500Y-90920000I-147500J0D01*
G01*
X107062500Y-90920000D01*
G75*
G02*
X106915000Y-90772500I0J147500D01*
G01*
G37*
G36*
G01*
X105945000Y-90772500D02*
X105945000Y-90427500D01*
G75*
G02*
X106092500Y-90280000I147500J0D01*
G01*
X106387500Y-90280000D01*
G75*
G02*
X106535000Y-90427500I0J-147500D01*
G01*
X106535000Y-90772500D01*
G75*
G02*
X106387500Y-90920000I-147500J0D01*
G01*
X106092500Y-90920000D01*
G75*
G02*
X105945000Y-90772500I0J147500D01*
G01*
G37*
%TD*%
%TO.C,R4*%
G36*
G01*
X106965000Y-89607000D02*
X106965000Y-89237000D01*
G75*
G02*
X107100000Y-89102000I135000J0D01*
G01*
X107370000Y-89102000D01*
G75*
G02*
X107505000Y-89237000I0J-135000D01*
G01*
X107505000Y-89607000D01*
G75*
G02*
X107370000Y-89742000I-135000J0D01*
G01*
X107100000Y-89742000D01*
G75*
G02*
X106965000Y-89607000I0J135000D01*
G01*
G37*
G36*
G01*
X105945000Y-89607000D02*
X105945000Y-89237000D01*
G75*
G02*
X106080000Y-89102000I135000J0D01*
G01*
X106350000Y-89102000D01*
G75*
G02*
X106485000Y-89237000I0J-135000D01*
G01*
X106485000Y-89607000D01*
G75*
G02*
X106350000Y-89742000I-135000J0D01*
G01*
X106080000Y-89742000D01*
G75*
G02*
X105945000Y-89607000I0J135000D01*
G01*
G37*
%TD*%
%TO.C,C3*%
G36*
G01*
X83464000Y-49515999D02*
X83464000Y-50816001D01*
G75*
G02*
X83214001Y-51066000I-249999J0D01*
G01*
X82563999Y-51066000D01*
G75*
G02*
X82314000Y-50816001I0J249999D01*
G01*
X82314000Y-49515999D01*
G75*
G02*
X82563999Y-49266000I249999J0D01*
G01*
X83214001Y-49266000D01*
G75*
G02*
X83464000Y-49515999I0J-249999D01*
G01*
G37*
G36*
G01*
X86414000Y-49515999D02*
X86414000Y-50816001D01*
G75*
G02*
X86164001Y-51066000I-249999J0D01*
G01*
X85513999Y-51066000D01*
G75*
G02*
X85264000Y-50816001I0J249999D01*
G01*
X85264000Y-49515999D01*
G75*
G02*
X85513999Y-49266000I249999J0D01*
G01*
X86164001Y-49266000D01*
G75*
G02*
X86414000Y-49515999I0J-249999D01*
G01*
G37*
%TD*%
%TO.C,C2*%
G36*
G01*
X83464000Y-52817999D02*
X83464000Y-54118001D01*
G75*
G02*
X83214001Y-54368000I-249999J0D01*
G01*
X82563999Y-54368000D01*
G75*
G02*
X82314000Y-54118001I0J249999D01*
G01*
X82314000Y-52817999D01*
G75*
G02*
X82563999Y-52568000I249999J0D01*
G01*
X83214001Y-52568000D01*
G75*
G02*
X83464000Y-52817999I0J-249999D01*
G01*
G37*
G36*
G01*
X86414000Y-52817999D02*
X86414000Y-54118001D01*
G75*
G02*
X86164001Y-54368000I-249999J0D01*
G01*
X85513999Y-54368000D01*
G75*
G02*
X85264000Y-54118001I0J249999D01*
G01*
X85264000Y-52817999D01*
G75*
G02*
X85513999Y-52568000I249999J0D01*
G01*
X86164001Y-52568000D01*
G75*
G02*
X86414000Y-52817999I0J-249999D01*
G01*
G37*
%TD*%
%TO.C,C8*%
G36*
G01*
X101850001Y-93600000D02*
X100549999Y-93600000D01*
G75*
G02*
X100300000Y-93350001I0J249999D01*
G01*
X100300000Y-92699999D01*
G75*
G02*
X100549999Y-92450000I249999J0D01*
G01*
X101850001Y-92450000D01*
G75*
G02*
X102100000Y-92699999I0J-249999D01*
G01*
X102100000Y-93350001D01*
G75*
G02*
X101850001Y-93600000I-249999J0D01*
G01*
G37*
G36*
G01*
X101850001Y-96550000D02*
X100549999Y-96550000D01*
G75*
G02*
X100300000Y-96300001I0J249999D01*
G01*
X100300000Y-95649999D01*
G75*
G02*
X100549999Y-95400000I249999J0D01*
G01*
X101850001Y-95400000D01*
G75*
G02*
X102100000Y-95649999I0J-249999D01*
G01*
X102100000Y-96300001D01*
G75*
G02*
X101850001Y-96550000I-249999J0D01*
G01*
G37*
%TD*%
D11*
%TO.C,Q3*%
X67682000Y-52186000D03*
X66732000Y-50186000D03*
X68632000Y-50186000D03*
%TD*%
%TO.C,R6*%
G36*
G01*
X64355998Y-51582000D02*
X65256002Y-51582000D01*
G75*
G02*
X65506000Y-51831998I0J-249998D01*
G01*
X65506000Y-52357002D01*
G75*
G02*
X65256002Y-52607000I-249998J0D01*
G01*
X64355998Y-52607000D01*
G75*
G02*
X64106000Y-52357002I0J249998D01*
G01*
X64106000Y-51831998D01*
G75*
G02*
X64355998Y-51582000I249998J0D01*
G01*
G37*
G36*
G01*
X64355998Y-49757000D02*
X65256002Y-49757000D01*
G75*
G02*
X65506000Y-50006998I0J-249998D01*
G01*
X65506000Y-50532002D01*
G75*
G02*
X65256002Y-50782000I-249998J0D01*
G01*
X64355998Y-50782000D01*
G75*
G02*
X64106000Y-50532002I0J249998D01*
G01*
X64106000Y-50006998D01*
G75*
G02*
X64355998Y-49757000I249998J0D01*
G01*
G37*
%TD*%
%TO.C,R5*%
G36*
G01*
X70451998Y-51582000D02*
X71352002Y-51582000D01*
G75*
G02*
X71602000Y-51831998I0J-249998D01*
G01*
X71602000Y-52357002D01*
G75*
G02*
X71352002Y-52607000I-249998J0D01*
G01*
X70451998Y-52607000D01*
G75*
G02*
X70202000Y-52357002I0J249998D01*
G01*
X70202000Y-51831998D01*
G75*
G02*
X70451998Y-51582000I249998J0D01*
G01*
G37*
G36*
G01*
X70451998Y-49757000D02*
X71352002Y-49757000D01*
G75*
G02*
X71602000Y-50006998I0J-249998D01*
G01*
X71602000Y-50532002D01*
G75*
G02*
X71352002Y-50782000I-249998J0D01*
G01*
X70451998Y-50782000D01*
G75*
G02*
X70202000Y-50532002I0J249998D01*
G01*
X70202000Y-50006998D01*
G75*
G02*
X70451998Y-49757000I249998J0D01*
G01*
G37*
%TD*%
%TO.C,R8*%
G36*
G01*
X66400000Y-54450002D02*
X66400000Y-53549998D01*
G75*
G02*
X66649998Y-53300000I249998J0D01*
G01*
X67175002Y-53300000D01*
G75*
G02*
X67425000Y-53549998I0J-249998D01*
G01*
X67425000Y-54450002D01*
G75*
G02*
X67175002Y-54700000I-249998J0D01*
G01*
X66649998Y-54700000D01*
G75*
G02*
X66400000Y-54450002I0J249998D01*
G01*
G37*
G36*
G01*
X64575000Y-54450002D02*
X64575000Y-53549998D01*
G75*
G02*
X64824998Y-53300000I249998J0D01*
G01*
X65350002Y-53300000D01*
G75*
G02*
X65600000Y-53549998I0J-249998D01*
G01*
X65600000Y-54450002D01*
G75*
G02*
X65350002Y-54700000I-249998J0D01*
G01*
X64824998Y-54700000D01*
G75*
G02*
X64575000Y-54450002I0J249998D01*
G01*
G37*
%TD*%
%TO.C,R7*%
G36*
G01*
X73428000Y-53635998D02*
X73428000Y-54536002D01*
G75*
G02*
X73178002Y-54786000I-249998J0D01*
G01*
X72652998Y-54786000D01*
G75*
G02*
X72403000Y-54536002I0J249998D01*
G01*
X72403000Y-53635998D01*
G75*
G02*
X72652998Y-53386000I249998J0D01*
G01*
X73178002Y-53386000D01*
G75*
G02*
X73428000Y-53635998I0J-249998D01*
G01*
G37*
G36*
G01*
X75253000Y-53635998D02*
X75253000Y-54536002D01*
G75*
G02*
X75003002Y-54786000I-249998J0D01*
G01*
X74477998Y-54786000D01*
G75*
G02*
X74228000Y-54536002I0J249998D01*
G01*
X74228000Y-53635998D01*
G75*
G02*
X74477998Y-53386000I249998J0D01*
G01*
X75003002Y-53386000D01*
G75*
G02*
X75253000Y-53635998I0J-249998D01*
G01*
G37*
%TD*%
%TO.C,R1*%
G36*
G01*
X65002002Y-67038000D02*
X64101998Y-67038000D01*
G75*
G02*
X63852000Y-66788002I0J249998D01*
G01*
X63852000Y-66262998D01*
G75*
G02*
X64101998Y-66013000I249998J0D01*
G01*
X65002002Y-66013000D01*
G75*
G02*
X65252000Y-66262998I0J-249998D01*
G01*
X65252000Y-66788002D01*
G75*
G02*
X65002002Y-67038000I-249998J0D01*
G01*
G37*
G36*
G01*
X65002002Y-68863000D02*
X64101998Y-68863000D01*
G75*
G02*
X63852000Y-68613002I0J249998D01*
G01*
X63852000Y-68087998D01*
G75*
G02*
X64101998Y-67838000I249998J0D01*
G01*
X65002002Y-67838000D01*
G75*
G02*
X65252000Y-68087998I0J-249998D01*
G01*
X65252000Y-68613002D01*
G75*
G02*
X65002002Y-68863000I-249998J0D01*
G01*
G37*
%TD*%
%TO.C,C5*%
G36*
G01*
X61650000Y-81700000D02*
X62750000Y-81700000D01*
G75*
G02*
X63000000Y-81950000I0J-250000D01*
G01*
X63000000Y-84950000D01*
G75*
G02*
X62750000Y-85200000I-250000J0D01*
G01*
X61650000Y-85200000D01*
G75*
G02*
X61400000Y-84950000I0J250000D01*
G01*
X61400000Y-81950000D01*
G75*
G02*
X61650000Y-81700000I250000J0D01*
G01*
G37*
G36*
G01*
X61650000Y-76300000D02*
X62750000Y-76300000D01*
G75*
G02*
X63000000Y-76550000I0J-250000D01*
G01*
X63000000Y-79550000D01*
G75*
G02*
X62750000Y-79800000I-250000J0D01*
G01*
X61650000Y-79800000D01*
G75*
G02*
X61400000Y-79550000I0J250000D01*
G01*
X61400000Y-76550000D01*
G75*
G02*
X61650000Y-76300000I250000J0D01*
G01*
G37*
%TD*%
%TO.C,C1*%
G36*
G01*
X68750000Y-100400000D02*
X68750000Y-101500000D01*
G75*
G02*
X68500000Y-101750000I-250000J0D01*
G01*
X65500000Y-101750000D01*
G75*
G02*
X65250000Y-101500000I0J250000D01*
G01*
X65250000Y-100400000D01*
G75*
G02*
X65500000Y-100150000I250000J0D01*
G01*
X68500000Y-100150000D01*
G75*
G02*
X68750000Y-100400000I0J-250000D01*
G01*
G37*
G36*
G01*
X74150000Y-100400000D02*
X74150000Y-101500000D01*
G75*
G02*
X73900000Y-101750000I-250000J0D01*
G01*
X70900000Y-101750000D01*
G75*
G02*
X70650000Y-101500000I0J250000D01*
G01*
X70650000Y-100400000D01*
G75*
G02*
X70900000Y-100150000I250000J0D01*
G01*
X73900000Y-100150000D01*
G75*
G02*
X74150000Y-100400000I0J-250000D01*
G01*
G37*
%TD*%
D12*
%TO.C,L1*%
X77450000Y-78900000D03*
X67650000Y-78900000D03*
%TD*%
D11*
%TO.C,Q2*%
X73828000Y-52186000D03*
X72878000Y-50186000D03*
X74778000Y-50186000D03*
%TD*%
D13*
%TO.C,Q1*%
X61900000Y-99250000D03*
X63900000Y-98300000D03*
X63900000Y-100200000D03*
%TD*%
%TO.C,D1*%
G36*
G01*
X77630000Y-90190000D02*
X76870000Y-90190000D01*
G75*
G02*
X76490000Y-89810000I0J380000D01*
G01*
X76490000Y-88890000D01*
G75*
G02*
X76870000Y-88510000I380000J0D01*
G01*
X77630000Y-88510000D01*
G75*
G02*
X78010000Y-88890000I0J-380000D01*
G01*
X78010000Y-89810000D01*
G75*
G02*
X77630000Y-90190000I-380000J0D01*
G01*
G37*
G36*
G01*
X77630000Y-94090000D02*
X76870000Y-94090000D01*
G75*
G02*
X76490000Y-93710000I0J380000D01*
G01*
X76490000Y-92790000D01*
G75*
G02*
X76870000Y-92410000I380000J0D01*
G01*
X77630000Y-92410000D01*
G75*
G02*
X78010000Y-92790000I0J-380000D01*
G01*
X78010000Y-93710000D01*
G75*
G02*
X77630000Y-94090000I-380000J0D01*
G01*
G37*
%TD*%
%TO.C,R3*%
G36*
G01*
X55560000Y-82015000D02*
X55560000Y-82385000D01*
G75*
G02*
X55425000Y-82520000I-135000J0D01*
G01*
X55155000Y-82520000D01*
G75*
G02*
X55020000Y-82385000I0J135000D01*
G01*
X55020000Y-82015000D01*
G75*
G02*
X55155000Y-81880000I135000J0D01*
G01*
X55425000Y-81880000D01*
G75*
G02*
X55560000Y-82015000I0J-135000D01*
G01*
G37*
G36*
G01*
X56580000Y-82015000D02*
X56580000Y-82385000D01*
G75*
G02*
X56445000Y-82520000I-135000J0D01*
G01*
X56175000Y-82520000D01*
G75*
G02*
X56040000Y-82385000I0J135000D01*
G01*
X56040000Y-82015000D01*
G75*
G02*
X56175000Y-81880000I135000J0D01*
G01*
X56445000Y-81880000D01*
G75*
G02*
X56580000Y-82015000I0J-135000D01*
G01*
G37*
%TD*%
%TO.C,D3*%
G36*
G01*
X53255000Y-82372500D02*
X53255000Y-82027500D01*
G75*
G02*
X53402500Y-81880000I147500J0D01*
G01*
X53697500Y-81880000D01*
G75*
G02*
X53845000Y-82027500I0J-147500D01*
G01*
X53845000Y-82372500D01*
G75*
G02*
X53697500Y-82520000I-147500J0D01*
G01*
X53402500Y-82520000D01*
G75*
G02*
X53255000Y-82372500I0J147500D01*
G01*
G37*
G36*
G01*
X52285000Y-82372500D02*
X52285000Y-82027500D01*
G75*
G02*
X52432500Y-81880000I147500J0D01*
G01*
X52727500Y-81880000D01*
G75*
G02*
X52875000Y-82027500I0J-147500D01*
G01*
X52875000Y-82372500D01*
G75*
G02*
X52727500Y-82520000I-147500J0D01*
G01*
X52432500Y-82520000D01*
G75*
G02*
X52285000Y-82372500I0J147500D01*
G01*
G37*
%TD*%
%TO.C,C4*%
G36*
G01*
X67008000Y-66730000D02*
X66668000Y-66730000D01*
G75*
G02*
X66528000Y-66590000I0J140000D01*
G01*
X66528000Y-66310000D01*
G75*
G02*
X66668000Y-66170000I140000J0D01*
G01*
X67008000Y-66170000D01*
G75*
G02*
X67148000Y-66310000I0J-140000D01*
G01*
X67148000Y-66590000D01*
G75*
G02*
X67008000Y-66730000I-140000J0D01*
G01*
G37*
G36*
G01*
X67008000Y-67690000D02*
X66668000Y-67690000D01*
G75*
G02*
X66528000Y-67550000I0J140000D01*
G01*
X66528000Y-67270000D01*
G75*
G02*
X66668000Y-67130000I140000J0D01*
G01*
X67008000Y-67130000D01*
G75*
G02*
X67148000Y-67270000I0J-140000D01*
G01*
X67148000Y-67550000D01*
G75*
G02*
X67008000Y-67690000I-140000J0D01*
G01*
G37*
%TD*%
%TO.C,C6*%
G36*
G01*
X81008000Y-54400000D02*
X81008000Y-54060000D01*
G75*
G02*
X81148000Y-53920000I140000J0D01*
G01*
X81428000Y-53920000D01*
G75*
G02*
X81568000Y-54060000I0J-140000D01*
G01*
X81568000Y-54400000D01*
G75*
G02*
X81428000Y-54540000I-140000J0D01*
G01*
X81148000Y-54540000D01*
G75*
G02*
X81008000Y-54400000I0J140000D01*
G01*
G37*
G36*
G01*
X80048000Y-54400000D02*
X80048000Y-54060000D01*
G75*
G02*
X80188000Y-53920000I140000J0D01*
G01*
X80468000Y-53920000D01*
G75*
G02*
X80608000Y-54060000I0J-140000D01*
G01*
X80608000Y-54400000D01*
G75*
G02*
X80468000Y-54540000I-140000J0D01*
G01*
X80188000Y-54540000D01*
G75*
G02*
X80048000Y-54400000I0J140000D01*
G01*
G37*
%TD*%
D14*
%TO.C,U2*%
X64450000Y-88725000D03*
X59600000Y-94275000D03*
X64450000Y-94275000D03*
X59600000Y-88725000D03*
D15*
X71175000Y-88100000D03*
X71175000Y-89800000D03*
X71175000Y-91500000D03*
X71175000Y-93200000D03*
X71175000Y-94900000D03*
%TD*%
M02*
